<?xml version="1.0" encoding="utf-8"?>
<!-- Generator: Adobe Illustrator 19.2.1, SVG Export Plug-In . SVG Version: 6.00 Build 0)  -->
<svg version="1.1" id="Layer_1" xmlns="http://www.w3.org/2000/svg" xmlns:xlink="http://www.w3.org/1999/xlink" x="0px" y="0px"
	 viewBox="0 0 303 303.5" style="enable-background:new 0 0 303 303.5;" xml:space="preserve">
<style type="text/css">
	.st0{fill:#FFFFFF;stroke:#000000;stroke-width:3;stroke-miterlimit:10;}
	.st1{fill:none;stroke:#000000;stroke-miterlimit:10;}
	.st2{fill:none;stroke:#000000;stroke-width:3;stroke-miterlimit:10;}
	.st3{enable-background:new    ;}
</style>
<g id="Layer_3">
	<circle class="st0" cx="151.5" cy="151.8" r="150"/>
</g>
<g id="Layer_1_1_">
	<line class="st1" x1="136.1" y1="298.2" x2="137.4" y2="286"/>
	<line class="st1" x1="166.9" y1="5.2" x2="165.6" y2="17.4"/>
	<line class="st1" x1="120.9" y1="295.9" x2="123.4" y2="283.8"/>
	<line class="st1" x1="182.1" y1="7.7" x2="179.6" y2="19.8"/>
	<line class="st1" x1="106" y1="291.9" x2="109.8" y2="280.1"/>
	<line class="st1" x1="197" y1="11.7" x2="193.2" y2="23.3"/>
	<line class="st1" x1="91.6" y1="286.4" x2="96.6" y2="275"/>
	<line class="st1" x1="211.4" y1="17.2" x2="206.4" y2="28.4"/>
	<line class="st1" x1="64.9" y1="271" x2="72.1" y2="261"/>
	<line class="st1" x1="238.1" y1="32.6" x2="230.9" y2="42.6"/>
	<line class="st1" x1="52.9" y1="261.2" x2="61.2" y2="252"/>
	<line class="st1" x1="250.1" y1="42.2" x2="241.8" y2="51.4"/>
	<line class="st1" x1="42" y1="250.4" x2="51.2" y2="242"/>
	<line class="st1" x1="261" y1="53.2" x2="251.8" y2="61.4"/>
	<line class="st1" x1="32.3" y1="238.4" x2="42.3" y2="231.1"/>
	<line class="st1" x1="270.7" y1="65.2" x2="260.7" y2="72.3"/>
	<line class="st1" x1="16.9" y1="211.6" x2="28.2" y2="206.6"/>
	<line class="st1" x1="286.1" y1="91.9" x2="274.8" y2="96.9"/>
	<line class="st1" x1="11.4" y1="197.2" x2="23.1" y2="193.4"/>
	<line class="st1" x1="291.6" y1="106.2" x2="279.9" y2="110.1"/>
	<line class="st1" x1="7.4" y1="182.4" x2="19.5" y2="179.9"/>
	<line class="st1" x1="295.6" y1="121.1" x2="283.5" y2="123.6"/>
	<line class="st1" x1="5" y1="167.1" x2="17.2" y2="165.9"/>
	<line class="st1" x1="298" y1="136.4" x2="285.8" y2="137.6"/>
	<line class="st1" x1="5" y1="136.4" x2="17.2" y2="137.6"/>
	<line class="st1" x1="298" y1="167.1" x2="285.8" y2="165.9"/>
	<line class="st1" x1="7.4" y1="121.1" x2="19.5" y2="123.6"/>
	<line class="st1" x1="295.6" y1="182.4" x2="283.5" y2="179.9"/>
	<line class="st1" x1="11.4" y1="106.2" x2="23.1" y2="110.1"/>
	<line class="st1" x1="291.6" y1="197.2" x2="279.9" y2="193.4"/>
	<line class="st1" x1="16.9" y1="91.9" x2="28.2" y2="96.9"/>
	<line class="st1" x1="286.1" y1="211.6" x2="274.8" y2="206.6"/>
	<line class="st1" x1="32.3" y1="65.2" x2="42.3" y2="72.3"/>
	<line class="st1" x1="270.7" y1="238.4" x2="260.7" y2="231.1"/>
	<line class="st1" x1="42" y1="53.2" x2="51.2" y2="61.4"/>
	<line class="st1" x1="261" y1="250.4" x2="251.8" y2="242"/>
	<line class="st1" x1="52.9" y1="42.2" x2="61.2" y2="51.4"/>
	<line class="st1" x1="250.1" y1="261.2" x2="241.8" y2="252"/>
	<line class="st1" x1="64.9" y1="32.6" x2="72.1" y2="42.6"/>
	<line class="st1" x1="238.1" y1="271" x2="230.9" y2="261"/>
	<g>
		<line class="st2" x1="151.5" y1="4.5" x2="151.5" y2="16.8"/>
		<line class="st2" x1="151.5" y1="299" x2="151.5" y2="286.8"/>
		<line class="st2" x1="225.2" y1="24.2" x2="219" y2="34.8"/>
		<line class="st2" x1="77.8" y1="279.4" x2="84" y2="268.6"/>
		<line class="st2" x1="279.1" y1="78.1" x2="268.4" y2="84.2"/>
		<line class="st2" x1="23.9" y1="225.5" x2="34.6" y2="219.2"/>
		<line class="st2" x1="298.8" y1="151.8" x2="286.5" y2="151.8"/>
		<line class="st2" x1="4.2" y1="151.8" x2="16.5" y2="151.8"/>
		<line class="st2" x1="279.1" y1="225.5" x2="268.4" y2="219.2"/>
		<line class="st2" x1="23.9" y1="78.1" x2="34.6" y2="84.2"/>
		<line class="st2" x1="225.2" y1="279.4" x2="219" y2="268.6"/>
		<line class="st2" x1="77.8" y1="24.2" x2="84" y2="34.8"/>
	</g>
	<line class="st1" x1="91.6" y1="17.2" x2="96.6" y2="28.4"/>
	<line class="st1" x1="211.4" y1="286.4" x2="206.4" y2="275"/>
	<line class="st1" x1="106" y1="11.7" x2="109.8" y2="23.3"/>
	<line class="st1" x1="197" y1="291.9" x2="193.2" y2="280.1"/>
	<line class="st1" x1="120.9" y1="7.7" x2="123.4" y2="19.8"/>
	<line class="st1" x1="182.1" y1="295.9" x2="179.6" y2="283.8"/>
	<line class="st1" x1="136.1" y1="5.2" x2="137.4" y2="17.4"/>
	<line class="st1" x1="166.9" y1="298.2" x2="165.6" y2="286"/>
</g>
<g id="Layer_2">
	<g class="st3">
		<path d="M137.8,57.3V32.9H129v-3.3c1.2,0,2.3-0.1,3.4-0.3c1.1-0.2,2.1-0.5,3-1c0.9-0.5,1.6-1.1,2.2-2c0.6-0.8,1-1.9,1.2-3.2h3.1
			v34H137.8z"/>
		<path d="M154.1,30.5c0.4-1.5,1.1-2.7,2.1-3.8c0.9-1.1,2.1-1.9,3.5-2.5c1.4-0.6,3-0.9,4.8-0.9c1.5,0,2.9,0.2,4.2,0.6
			c1.3,0.4,2.4,1.1,3.4,1.9c1,0.8,1.7,1.8,2.3,3c0.6,1.2,0.8,2.6,0.8,4.2c0,1.5-0.2,2.8-0.7,4s-1.1,2.2-1.8,3.1
			c-0.8,0.9-1.6,1.7-2.6,2.5c-1,0.7-2,1.4-3.1,2.1c-1.1,0.6-2.1,1.3-3.2,1.9c-1.1,0.6-2,1.3-2.9,2c-0.9,0.7-1.6,1.5-2.3,2.3
			c-0.6,0.8-1,1.8-1.2,2.8h17.5v3.6h-22.2c0.2-2,0.5-3.7,1.1-5.2c0.6-1.4,1.3-2.7,2.1-3.7c0.9-1.1,1.8-2,2.9-2.8
			c1.1-0.8,2.2-1.6,3.4-2.3c1.4-0.9,2.7-1.7,3.8-2.5c1.1-0.8,2-1.5,2.7-2.3c0.7-0.8,1.3-1.6,1.6-2.5c0.4-0.9,0.6-1.9,0.6-3.1
			c0-0.9-0.2-1.8-0.5-2.5c-0.4-0.8-0.8-1.4-1.4-1.9c-0.6-0.5-1.3-1-2.1-1.2s-1.6-0.4-2.5-0.4c-1.2,0-2.2,0.2-3,0.7
			c-0.8,0.5-1.5,1.1-2.1,1.9c-0.5,0.8-0.9,1.7-1.2,2.7s-0.3,2-0.3,3h-4.1C153.5,33.6,153.7,32,154.1,30.5z"/>
	</g>
	<g class="st3">
		<path d="M82.9,75.9V51.5h-8.8v-3.3c1.2,0,2.3-0.1,3.4-0.3c1.1-0.2,2.1-0.5,3-1c0.9-0.5,1.6-1.1,2.2-2c0.6-0.8,1-1.9,1.2-3.2H87v34
			H82.9z"/>
		<path d="M109.6,75.9V51.5h-8.8v-3.3c1.2,0,2.3-0.1,3.4-0.3c1.1-0.2,2.1-0.5,3-1c0.9-0.5,1.6-1.1,2.2-2c0.6-0.8,1-1.9,1.2-3.2h3.1
			v34H109.6z"/>
	</g>
	<g class="st3">
		<path d="M47.5,114.5V90.1h-8.8v-3.3c1.2,0,2.3-0.1,3.4-0.3c1.1-0.2,2.1-0.5,3-1c0.9-0.5,1.6-1.1,2.2-2c0.6-0.8,1-1.9,1.2-3.2h3.1
			v34H47.5z"/>
		<path d="M63.3,93.9c0.1-1.3,0.2-2.7,0.5-3.9c0.3-1.3,0.6-2.5,1.1-3.6c0.5-1.2,1.1-2.2,2-3c0.8-0.9,1.9-1.6,3.1-2.1
			c1.3-0.5,2.8-0.8,4.5-0.8c1.8,0,3.3,0.3,4.5,0.8c1.3,0.5,2.3,1.2,3.1,2.1c0.8,0.9,1.5,1.9,2,3c0.5,1.2,0.8,2.4,1.1,3.6
			c0.3,1.3,0.4,2.6,0.5,3.9c0.1,1.3,0.1,2.6,0.1,3.9s0,2.5-0.1,3.9c-0.1,1.3-0.2,2.7-0.5,3.9c-0.3,1.3-0.6,2.5-1.1,3.6s-1.1,2.1-2,3
			c-0.8,0.9-1.9,1.5-3.1,2c-1.2,0.5-2.8,0.7-4.6,0.7c-1.8,0-3.3-0.2-4.5-0.7c-1.3-0.5-2.3-1.2-3.1-2c-0.8-0.9-1.5-1.9-2-3
			s-0.8-2.3-1.1-3.6c-0.3-1.3-0.4-2.6-0.5-3.9c-0.1-1.3-0.1-2.6-0.1-3.9S63.2,95.3,63.3,93.9z M67.6,102.1c0.1,1.6,0.3,3.1,0.8,4.5
			c0.4,1.4,1.1,2.6,2.1,3.5s2.3,1.4,4,1.4c1.7,0,3.1-0.5,4-1.4s1.7-2.1,2.1-3.5c0.4-1.4,0.7-2.9,0.8-4.5c0.1-1.6,0.1-3,0.1-4.3
			c0-0.8,0-1.8,0-2.8c0-1-0.1-2-0.2-3s-0.4-2-0.6-3c-0.3-1-0.7-1.8-1.2-2.5c-0.5-0.7-1.2-1.3-2-1.8c-0.8-0.4-1.8-0.7-2.9-0.7
			c-1.2,0-2.1,0.2-2.9,0.7c-0.8,0.4-1.5,1-2,1.8c-0.5,0.7-0.9,1.6-1.2,2.5c-0.3,1-0.5,1.9-0.6,3s-0.2,2-0.2,3c0,1,0,1.9,0,2.8
			C67.5,99.1,67.5,100.5,67.6,102.1z"/>
	</g>
	<g class="st3">
		<path d="M29.7,162.8c1.2,0.9,2.6,1.3,4.2,1.3c2.5,0,4.4-1.1,5.6-3.2s1.9-5.5,2.1-9.9l-0.1-0.1c-0.8,1.4-1.9,2.6-3.3,3.4
			c-1.4,0.8-2.9,1.3-4.6,1.3c-1.7,0-3.3-0.3-4.6-0.8c-1.3-0.6-2.5-1.3-3.4-2.3c-0.9-1-1.6-2.2-2.1-3.6c-0.5-1.4-0.7-2.9-0.7-4.6
			c0-1.6,0.3-3.1,0.8-4.5c0.5-1.4,1.3-2.5,2.3-3.5c1-1,2.2-1.7,3.6-2.3c1.4-0.5,2.9-0.8,4.5-0.8c1.6,0,3.1,0.2,4.5,0.7
			c1.4,0.5,2.6,1.4,3.7,2.6s1.9,2.9,2.5,5c0.6,2.1,0.9,4.8,0.9,8c0,5.9-0.9,10.4-2.8,13.6c-1.9,3.2-4.9,4.7-9,4.7
			c-2.8,0-5.2-0.7-7.1-2.2c-1.9-1.4-3-3.6-3.2-6.6h4.1C27.8,160.6,28.5,161.9,29.7,162.8z M40.4,141.5c-0.3-0.9-0.8-1.8-1.3-2.5
			c-0.6-0.7-1.3-1.3-2.2-1.7c-0.9-0.4-1.9-0.6-3-0.6c-1.2,0-2.2,0.2-3.1,0.7c-0.8,0.4-1.5,1-2.1,1.8c-0.5,0.8-0.9,1.6-1.2,2.6
			c-0.2,1-0.4,2-0.4,3c0,0.9,0.2,1.8,0.5,2.7c0.3,0.9,0.8,1.6,1.4,2.3c0.6,0.7,1.3,1.2,2.1,1.6s1.7,0.6,2.7,0.6c1.1,0,2-0.2,2.9-0.6
			c0.9-0.4,1.6-0.9,2.2-1.6c0.6-0.7,1.1-1.5,1.4-2.4c0.3-0.9,0.5-1.9,0.5-2.9C40.9,143.4,40.7,142.4,40.4,141.5z"/>
	</g>
	<g class="st3">
		<path d="M41.8,193.3c0.5-1.1,1.3-2,2.2-2.7c0.9-0.7,2-1.3,3.2-1.7c1.2-0.4,2.5-0.6,3.8-0.6c1.9,0,3.4,0.2,4.8,0.7
			c1.3,0.5,2.4,1.2,3.2,2c0.8,0.8,1.4,1.7,1.8,2.8c0.4,1,0.6,2.1,0.6,3.2c0,1.5-0.4,2.9-1.3,4.2c-0.8,1.3-2,2.2-3.4,2.9
			c2,0.6,3.6,1.7,4.6,3.1c1,1.5,1.5,3.2,1.5,5.4c0,1.7-0.3,3.1-0.9,4.4c-0.6,1.3-1.4,2.4-2.4,3.2s-2.2,1.5-3.6,2
			c-1.4,0.4-2.8,0.7-4.4,0.7c-1.6,0-3.2-0.2-4.6-0.6c-1.4-0.4-2.6-1.1-3.7-1.9c-1-0.9-1.9-1.9-2.4-3.2c-0.6-1.3-0.9-2.8-0.9-4.5
			c0-2,0.5-3.8,1.5-5.3c1-1.5,2.5-2.6,4.4-3.2c-1.4-0.6-2.6-1.5-3.5-2.8c-0.9-1.3-1.3-2.7-1.3-4.2C41,195.6,41.2,194.3,41.8,193.3z
			 M46.1,217.6c1.4,1.2,3.1,1.8,5.2,1.8c1,0,2-0.2,2.8-0.5c0.8-0.3,1.6-0.8,2.2-1.4c0.6-0.6,1.1-1.3,1.4-2.1s0.5-1.7,0.5-2.6
			c0-0.9-0.2-1.8-0.6-2.6c-0.4-0.8-0.9-1.5-1.5-2s-1.4-1-2.2-1.4c-0.8-0.3-1.8-0.5-2.7-0.5c-1,0-1.9,0.2-2.8,0.5
			c-0.9,0.3-1.6,0.7-2.3,1.3c-0.7,0.6-1.2,1.3-1.5,2.1c-0.4,0.8-0.6,1.7-0.6,2.7C44.1,214.8,44.8,216.4,46.1,217.6z M45.8,199.6
			c0.3,0.7,0.8,1.3,1.3,1.7c0.5,0.4,1.2,0.8,1.9,1c0.7,0.2,1.5,0.3,2.4,0.3c1.6,0,3-0.5,4-1.4s1.6-2.3,1.6-4c0-1.7-0.5-3-1.6-3.9
			c-1.1-0.9-2.4-1.3-4.1-1.3c-0.8,0-1.6,0.1-2.3,0.3c-0.7,0.2-1.4,0.6-1.9,1c-0.5,0.4-1,1-1.3,1.6c-0.3,0.6-0.5,1.4-0.5,2.3
			C45.3,198.1,45.4,198.9,45.8,199.6z"/>
	</g>
	<g class="st3">
		<path d="M100.3,241c-1.5,2.3-2.8,4.8-4,7.5c-1.2,2.7-2.1,5.4-2.9,8.2c-0.7,2.8-1.2,5.6-1.3,8.2h-4.6c0.2-2.9,0.7-5.7,1.4-8.4
			c0.8-2.7,1.7-5.4,2.9-7.9c1.2-2.5,2.6-4.9,4.1-7.1c1.6-2.2,3.2-4.3,5-6.2H83.1v-3.8h22v3.5C103.4,236.7,101.8,238.7,100.3,241z"/>
	</g>
	<g class="st3">
		<path d="M156.3,251.7c-1-0.9-2.3-1.4-3.9-1.4c-1.7,0-3.1,0.4-4.2,1.3c-1.1,0.8-1.9,1.9-2.5,3.2c-0.6,1.3-1,2.7-1.2,4.2
			c-0.2,1.5-0.4,2.9-0.4,4.2l0.1,0.1c1-1.6,2.2-2.7,3.6-3.4c1.4-0.7,3.1-1.1,4.9-1.1c1.6,0,3.1,0.3,4.4,0.8c1.3,0.6,2.4,1.3,3.3,2.3
			c0.9,1,1.6,2.2,2,3.5c0.5,1.3,0.7,2.8,0.7,4.4c0,1.2-0.2,2.5-0.6,3.9c-0.4,1.3-1,2.6-1.9,3.7c-0.9,1.1-2,2-3.5,2.7
			c-1.5,0.7-3.3,1.1-5.4,1.1c-2.5,0-4.6-0.5-6.1-1.5c-1.5-1-2.7-2.3-3.6-3.9c-0.8-1.6-1.4-3.4-1.7-5.3c-0.3-1.9-0.4-3.8-0.4-5.6
			c0-2.3,0.2-4.6,0.6-6.8c0.4-2.2,1.1-4.1,2-5.8c1-1.7,2.2-3.1,3.8-4.1c1.6-1,3.6-1.5,6-1.5c2.8,0,5.1,0.7,6.7,2.2
			c1.7,1.5,2.6,3.6,2.9,6.5H158C157.8,253.8,157.2,252.6,156.3,251.7z M148.9,263c-0.9,0.4-1.6,0.9-2.2,1.6
			c-0.6,0.7-1.1,1.5-1.4,2.4c-0.3,0.9-0.5,1.9-0.5,3c0,1.1,0.2,2,0.5,3c0.3,0.9,0.8,1.7,1.4,2.4c0.6,0.7,1.3,1.2,2.2,1.6
			c0.9,0.4,1.9,0.6,3,0.6c1.1,0,2.1-0.2,3-0.6c0.8-0.4,1.6-1,2.1-1.7c0.6-0.7,1-1.5,1.3-2.4c0.3-0.9,0.5-1.9,0.5-2.9
			c0-1.1-0.1-2.1-0.4-3c-0.3-0.9-0.7-1.8-1.3-2.4c-0.6-0.7-1.3-1.2-2.2-1.7c-0.9-0.4-1.9-0.6-3-0.6S149.7,262.6,148.9,263z"/>
	</g>
	<g class="st3">
		<path d="M206.9,235.1l-1.8,9.8l0.1,0.1c0.7-0.8,1.7-1.4,2.9-1.8c1.2-0.4,2.3-0.6,3.5-0.6c1.5,0,2.9,0.2,4.3,0.7
			c1.3,0.5,2.5,1.2,3.5,2.2c1,1,1.8,2.2,2.4,3.6c0.6,1.5,0.9,3.2,0.9,5.1c0,1.4-0.2,2.8-0.7,4.2c-0.5,1.4-1.2,2.6-2.2,3.6
			c-1,1.1-2.2,1.9-3.7,2.5s-3.2,0.9-5.2,0.9c-1.5,0-2.9-0.2-4.2-0.6s-2.4-1.1-3.4-1.9c-1-0.8-1.8-1.8-2.4-3
			c-0.6-1.2-0.9-2.6-0.9-4.1h4.1c0.1,0.9,0.3,1.7,0.6,2.4c0.4,0.8,0.9,1.4,1.5,2c0.6,0.6,1.4,1,2.2,1.3c0.8,0.3,1.8,0.5,2.8,0.5
			c1,0,1.9-0.2,2.8-0.5s1.6-0.8,2.3-1.5c0.7-0.7,1.2-1.5,1.6-2.5c0.4-1,0.6-2.2,0.6-3.5c0-1.1-0.2-2.2-0.6-3.1
			c-0.4-0.9-0.9-1.8-1.6-2.4c-0.7-0.7-1.5-1.2-2.4-1.6c-0.9-0.4-2-0.6-3.1-0.6c-1.3,0-2.5,0.3-3.6,0.9c-1,0.6-2,1.4-2.8,2.3
			l-3.5-0.2l3.2-17.7h16.8v3.6H206.9z"/>
	</g>
	<g class="st3">
		<path d="M261.4,210.8v3.6h-4.6v8H253v-8h-14.9v-3.9l15.5-22.1h3.3v22.5H261.4z M253,194.1L253,194.1l-11.4,16.7H253V194.1z"/>
	</g>
	<g class="st3">
		<path d="M266,147.8c0.2,0,0.3,0,0.5,0h0.9c0.9,0,1.7-0.1,2.5-0.4c0.8-0.2,1.5-0.6,2.1-1.1s1.1-1,1.4-1.8s0.5-1.5,0.5-2.4
			c0-1.8-0.6-3.2-1.7-4.1c-1.2-0.9-2.6-1.4-4.3-1.4c-1.1,0-2,0.2-2.9,0.6c-0.8,0.4-1.5,0.9-2,1.6c-0.5,0.7-0.9,1.5-1.2,2.4
			c-0.3,0.9-0.4,1.8-0.4,2.8h-4.1c0.1-1.6,0.3-3.1,0.8-4.5c0.5-1.3,1.1-2.5,2-3.5c0.9-1,1.9-1.7,3.2-2.3s2.8-0.8,4.5-0.8
			c1.5,0,2.8,0.2,4.1,0.6c1.3,0.4,2.4,0.9,3.3,1.7c0.9,0.7,1.7,1.7,2.2,2.8c0.5,1.2,0.8,2.5,0.8,4.1c0,1.5-0.4,2.9-1.3,4.1
			c-0.9,1.2-2,2.1-3.4,2.7v0.1c2.1,0.4,3.6,1.4,4.6,2.9c1,1.5,1.5,3.3,1.5,5.3c0,1.7-0.3,3.2-0.9,4.5s-1.5,2.4-2.5,3.2
			c-1.1,0.9-2.3,1.5-3.7,1.9s-2.9,0.6-4.5,0.6c-1.7,0-3.3-0.2-4.7-0.7c-1.4-0.5-2.6-1.2-3.6-2.1c-1-0.9-1.8-2.1-2.3-3.5
			s-0.8-2.9-0.7-4.7h4.1c0.1,2.2,0.7,4,1.9,5.4c1.2,1.4,3,2.1,5.3,2.1c1,0,1.9-0.2,2.8-0.5c0.9-0.3,1.7-0.7,2.4-1.3
			c0.7-0.6,1.2-1.2,1.6-2.1c0.4-0.8,0.6-1.7,0.6-2.8c0-1.1-0.2-2-0.6-2.8c-0.4-0.8-0.9-1.5-1.5-2.1c-0.6-0.6-1.4-1-2.3-1.2
			c-0.9-0.3-1.8-0.4-2.9-0.4c-0.9,0-1.7,0-2.4,0.1v-3.5C265.7,147.7,265.8,147.8,266,147.8z"/>
	</g>
	<g class="st3">
		<path d="M241.1,87.7c0.4-1.5,1.1-2.7,2.1-3.8c0.9-1.1,2.1-1.9,3.5-2.5c1.4-0.6,3-0.9,4.8-0.9c1.5,0,2.9,0.2,4.2,0.6
			c1.3,0.4,2.4,1.1,3.4,1.9c1,0.8,1.7,1.8,2.3,3c0.6,1.2,0.8,2.6,0.8,4.2c0,1.5-0.2,2.8-0.7,4c-0.5,1.2-1.1,2.2-1.8,3.1
			c-0.8,0.9-1.6,1.7-2.6,2.5c-1,0.7-2,1.4-3.1,2.1c-1.1,0.6-2.1,1.3-3.2,1.9c-1.1,0.6-2,1.3-2.9,2c-0.9,0.7-1.6,1.5-2.3,2.3
			c-0.6,0.8-1,1.8-1.2,2.8h17.5v3.6h-22.2c0.2-2,0.5-3.7,1.1-5.2c0.6-1.4,1.3-2.7,2.1-3.7s1.8-2,2.9-2.8c1.1-0.8,2.2-1.6,3.4-2.3
			c1.4-0.9,2.7-1.7,3.8-2.5s2-1.5,2.7-2.3c0.7-0.8,1.3-1.6,1.6-2.5c0.4-0.9,0.6-1.9,0.6-3.1c0-0.9-0.2-1.8-0.5-2.5
			c-0.4-0.8-0.8-1.4-1.4-1.9c-0.6-0.5-1.3-1-2.1-1.2c-0.8-0.3-1.6-0.4-2.5-0.4c-1.2,0-2.2,0.2-3,0.7c-0.8,0.5-1.5,1.1-2.1,1.9
			c-0.5,0.8-0.9,1.7-1.2,2.7c-0.2,1-0.3,2-0.3,3h-4.1C240.5,90.8,240.7,89.2,241.1,87.7z"/>
	</g>
	<g class="st3">
		<path d="M211.1,75.9V51.5h-8.8v-3.3c1.2,0,2.3-0.1,3.4-0.3c1.1-0.2,2.1-0.5,3-1c0.9-0.5,1.6-1.1,2.2-2c0.6-0.8,1-1.9,1.2-3.2h3.1
			v34H211.1z"/>
	</g>
</g>
</svg>
