<?xml version="1.0" encoding="utf-8"?>
<!-- Generator: Adobe Illustrator 19.2.1, SVG Export Plug-In . SVG Version: 6.00 Build 0)  -->
<svg version="1.1" id="Layer_1" xmlns="http://www.w3.org/2000/svg" xmlns:xlink="http://www.w3.org/1999/xlink" x="0px" y="0px"
	 viewBox="0 0 21.6 94.7" style="enable-background:new 0 0 21.6 94.7;" xml:space="preserve">
<style type="text/css">
	.st0{opacity:0.4;fill:#F9F687;enable-background:new    ;}
	.st1{fill:none;stroke:#000000;stroke-miterlimit:10;}
	.st2{fill:#FFFFFF;stroke:#000000;stroke-miterlimit:1;}
	.st3{fill:#FFFFFF;}
	.st4{enable-background:new    ;}
</style>
<path class="st0" d="M3.1,11.7v73.1c0,5.2,3.5,9.3,7.7,9.3s7.7-4.2,7.7-9.3V11.7H3.1z"/>
<path class="st1" d="M3.1,11.7v73.1c0,5.2,3.5,9.3,7.7,9.3s7.7-4.2,7.7-9.3V11.7H3.1z"/>
<path class="st2" d="M19.9,15.8c0,0,0.5-15.3,1.7-15.3H0.1c1.3,0,1.7,15.3,1.7,15.3H19.9z"/>
<rect x="4.1" y="28.9" class="st3" width="13.2" height="11.3"/>
<g class="st4">
	<path d="M6.1,32.8c0.1,0,0.2,0,0.2,0s0.2,0,0.3,0c0.1,0,0.2,0,0.2,0s0.1,0,0.2,0.1c0.1,0.1,0.2,0.2,0.3,0.3
		c0.1,0.1,0.1,0.3,0.1,0.5c0,0.2,0,0.4-0.1,0.5c-0.1,0.1-0.2,0.2-0.4,0.3v0c0.2,0,0.4,0.1,0.5,0.3s0.2,0.3,0.2,0.6
		c0,0.1,0,0.3-0.1,0.4c0,0.1-0.1,0.2-0.2,0.3S7.1,36.2,7,36.3c-0.1,0.1-0.3,0.1-0.5,0.1H4.8v-3.6H6.1z M6.2,34.3
		c0.3,0,0.5,0,0.6-0.1C6.9,34.1,7,34,7,33.8c0-0.1,0-0.2-0.1-0.3s-0.1-0.1-0.2-0.2c-0.1,0-0.2-0.1-0.2-0.1s-0.2,0-0.3,0H5.3v1.1H6.2
		z M6.5,36c0.2,0,0.4-0.1,0.5-0.2c0.1-0.1,0.2-0.3,0.2-0.5c0-0.1,0-0.2-0.1-0.3C7,35,7,34.9,6.9,34.9c-0.1,0-0.2-0.1-0.2-0.1
		c-0.1,0-0.2,0-0.3,0H5.3V36H6.5z"/>
	<path d="M8.6,32.8v3.6H8.2v-3.6H8.6z"/>
	<path d="M11.5,36.4c-0.1,0-0.2,0.1-0.3,0.1c-0.1,0-0.2,0-0.3-0.1c-0.1-0.1-0.1-0.2-0.1-0.3c-0.1,0.1-0.3,0.2-0.4,0.3
		c-0.2,0.1-0.3,0.1-0.5,0.1c-0.1,0-0.2,0-0.3,0c-0.1,0-0.2-0.1-0.3-0.1S9.2,36.1,9.2,36c0-0.1-0.1-0.2-0.1-0.3c0-0.1,0-0.3,0.1-0.4
		c0.1-0.1,0.1-0.2,0.2-0.2C9.5,35.1,9.6,35,9.7,35c0.1,0,0.2-0.1,0.3-0.1c0.1,0,0.2,0,0.3-0.1s0.2,0,0.3,0s0.1-0.1,0.2-0.1
		c0,0,0.1-0.1,0.1-0.2c0-0.1,0-0.2-0.1-0.2c0-0.1-0.1-0.1-0.1-0.1c-0.1,0-0.1,0-0.2-0.1c-0.1,0-0.1,0-0.2,0c-0.2,0-0.3,0-0.5,0.1
		c-0.1,0.1-0.2,0.2-0.2,0.4H9.2c0-0.2,0-0.3,0.1-0.4c0.1-0.1,0.1-0.2,0.2-0.3s0.2-0.1,0.3-0.1c0.1,0,0.3,0,0.4,0c0.1,0,0.2,0,0.3,0
		c0.1,0,0.2,0.1,0.3,0.1c0.1,0.1,0.2,0.1,0.2,0.2s0.1,0.2,0.1,0.4v1.3c0,0.1,0,0.2,0,0.2c0,0,0.1,0.1,0.1,0.1c0,0,0.1,0,0.1,0V36.4z
		 M10.9,35c-0.1,0-0.1,0.1-0.2,0.1s-0.2,0-0.3,0s-0.2,0-0.3,0s-0.2,0-0.3,0.1s-0.1,0.1-0.2,0.1s-0.1,0.1-0.1,0.3c0,0.1,0,0.1,0,0.2
		s0.1,0.1,0.1,0.1c0,0,0.1,0.1,0.2,0.1s0.1,0,0.2,0c0.1,0,0.3,0,0.4-0.1c0.1,0,0.2-0.1,0.2-0.1c0.1-0.1,0.1-0.1,0.1-0.2
		c0-0.1,0-0.1,0-0.2V35z"/>
	<path d="M12.3,33.8v0.4h0c0.2-0.3,0.5-0.5,0.8-0.5c0.2,0,0.3,0,0.4,0.1s0.2,0.1,0.3,0.2c0.1,0.1,0.1,0.2,0.1,0.3c0,0.1,0,0.2,0,0.4
		v1.7h-0.4v-1.8c0-0.2,0-0.3-0.1-0.4c-0.1-0.1-0.2-0.1-0.4-0.1c-0.1,0-0.2,0-0.3,0.1s-0.2,0.1-0.2,0.2c-0.1,0.1-0.1,0.2-0.1,0.3
		c0,0.1,0,0.2,0,0.3v1.5h-0.4v-2.6H12.3z"/>
	<path d="M15.2,32.8v2.1l1.2-1.1h0.6l-1,0.9l1.1,1.6h-0.5L15.6,35l-0.4,0.4v1h-0.4v-3.6H15.2z"/>
</g>
</svg>
