<?xml version="1.0" encoding="utf-8"?>
<!-- Generator: Adobe Illustrator 19.2.1, SVG Export Plug-In . SVG Version: 6.00 Build 0)  -->
<svg version="1.1" id="Layer_1" xmlns="http://www.w3.org/2000/svg" xmlns:xlink="http://www.w3.org/1999/xlink" x="0px" y="0px"
	 viewBox="0 0 400 600" style="enable-background:new 0 0 400 600;" xml:space="preserve">
<style type="text/css">
	.st0{fill:none;}
	.st1{fill:#131313;}
	.st2{fill:#202020;}
	.st3{fill:url(#SVGID_1_);stroke:#000000;stroke-width:5;stroke-miterlimit:10;}
</style>
<pattern  y="600" width="611.7" height="1774" patternUnits="userSpaceOnUse" id="New_Pattern_Swatch_28" viewBox="0 -1774 611.7 1774" style="overflow:visible;">
	<g>
		<rect x="0" y="-1774" class="st0" width="611.7" height="1774"/>
		<g>
			<g>
				<g>
					<g>
						<rect y="-1774" class="st1" width="42.6" height="1774"/>
						<rect x="38.2" y="-1774" class="st2" width="48.2" height="1774"/>
					</g>
				</g>
				<g>
					<g>
						<g>
							<rect x="76.5" y="-1774" class="st1" width="42.6" height="1774"/>
							<rect x="114.7" y="-1774" class="st2" width="46.9" height="1774"/>
						</g>
					</g>
				</g>
			</g>
			<g>
				<g>
					<g>
						<rect x="152.9" y="-1774" class="st1" width="42.6" height="1774"/>
						<rect x="191.2" y="-1774" class="st2" width="48.2" height="1774"/>
					</g>
				</g>
				<g>
					<g>
						<g>
							<rect x="229.4" y="-1774" class="st1" width="42.6" height="1774"/>
							<rect x="267.6" y="-1774" class="st2" width="48.7" height="1774"/>
						</g>
					</g>
				</g>
			</g>
			<g>
				<g>
					<g>
						<rect x="305.9" y="-1774" class="st1" width="42.6" height="1774"/>
						<rect x="344.1" y="-1774" class="st2" width="48.2" height="1774"/>
					</g>
				</g>
				<g>
					<g>
						<g>
							<rect x="382.3" y="-1774" class="st1" width="42.6" height="1774"/>
							<rect x="420.6" y="-1774" class="st2" width="46.9" height="1774"/>
						</g>
					</g>
				</g>
			</g>
			<g>
				<g>
					<g>
						<rect x="458.8" y="-1774" class="st1" width="42.6" height="1774"/>
						<rect x="497" y="-1774" class="st2" width="48.2" height="1774"/>
					</g>
				</g>
				<g>
					<g>
						<g>
							<rect x="535.3" y="-1774" class="st1" width="42.6" height="1774"/>
							<rect x="573.5" y="-1774" class="st2" width="38.2" height="1774"/>
						</g>
					</g>
				</g>
			</g>
		</g>
	</g>
</pattern>
<pattern  id="SVGID_1_" xlink:href="#New_Pattern_Swatch_28" patternTransform="matrix(-0.7071 0.7071 0.7071 0.7071 -1455.837 15454.3838)">
</pattern>
<path class="st3" d="M-3,46v400c0,27.5,22.5,50,50,50h150l175.4,100l-27.3-100h1.9c27.5,0,50-22.5,50-50V46c0-27.5-22.5-50-50-50H47
	C19.5-4-3,18.5-3,46z"/>
</svg>
