<?xml version="1.0" encoding="utf-8"?>
<!-- Generator: Adobe Illustrator 19.2.1, SVG Export Plug-In . SVG Version: 6.00 Build 0)  -->
<svg version="1.1" id="Layer_1" xmlns="http://www.w3.org/2000/svg" xmlns:xlink="http://www.w3.org/1999/xlink" x="0px" y="0px"
	 viewBox="0 0 328.8 400.7" style="enable-background:new 0 0 328.8 400.7;" xml:space="preserve">
<style type="text/css">
	.st0{fill:#333333;stroke:#000000;stroke-width:4;stroke-miterlimit:10;}
	.st1{enable-background:new    ;}
	.st2{fill:#FFFFFF;}
	.st3{fill:#009444;stroke:#000000;stroke-width:4;stroke-miterlimit:10;}
</style>
<g>
	<g>
		<path class="st0" d="M276.8,398.7H52c-27.5,0-50-22.5-50-50v-93.8c0-27.5,22.5-50,50-50h224.8c27.5,0,50,22.5,50,50v93.8
			C326.8,376.2,304.3,398.7,276.8,398.7z"/>
		<g class="st1">
			<path class="st2" d="M98.7,277.8c-3.3-2.3-7.1-3.4-11.6-3.4c-3.8,0-7.1,0.7-9.8,2.2c-2.7,1.4-5,3.4-6.7,5.8
				c-1.8,2.4-3.1,5.2-3.9,8.3c-0.8,3.1-1.3,6.3-1.3,9.7c0,3.7,0.4,7.1,1.3,10.4c0.8,3.3,2.1,6.1,3.9,8.5c1.8,2.4,4,4.4,6.8,5.8
				c2.8,1.4,6,2.2,9.9,2.2c2.8,0,5.3-0.5,7.5-1.4c2.2-0.9,4.1-2.2,5.7-3.9c1.6-1.6,2.8-3.6,3.7-5.9c0.9-2.3,1.4-4.7,1.6-7.4h8.5
				c-0.8,8.1-3.6,14.4-8.4,18.9c-4.7,4.5-11.2,6.7-19.4,6.7c-5,0-9.3-0.9-13-2.6c-3.7-1.7-6.8-4.1-9.2-7c-2.5-3-4.3-6.5-5.5-10.6
				c-1.2-4.1-1.8-8.4-1.8-13.1c0-4.7,0.7-9.1,2-13.2c1.3-4.1,3.2-7.7,5.8-10.7c2.5-3.1,5.7-5.5,9.5-7.2c3.8-1.8,8.2-2.6,13.1-2.6
				c3.4,0,6.5,0.4,9.5,1.3c3,0.9,5.7,2.2,8,4c2.3,1.7,4.3,3.9,5.8,6.5c1.6,2.6,2.6,5.6,3.1,9h-8.5C104.1,283.5,102,280.1,98.7,277.8
				z"/>
			<path class="st2" d="M131.7,268.8v64.1H124v-64.1H131.7z"/>
			<path class="st2" d="M144,278.1v-9.3h7.6v9.3H144z M151.6,286.4v46.4H144v-46.4H151.6z"/>
			<path class="st2" d="M191.2,294.5c-1.9-1.6-4.5-2.4-7.7-2.4c-2.8,0-5.1,0.5-6.9,1.5c-1.9,1-3.3,2.4-4.4,4
				c-1.1,1.7-1.9,3.6-2.4,5.8c-0.5,2.2-0.7,4.4-0.7,6.8c0,2.2,0.3,4.3,0.8,6.3c0.5,2,1.3,3.8,2.4,5.4c1.1,1.6,2.5,2.9,4.2,3.8
				c1.7,1,3.8,1.4,6.2,1.4c3.8,0,6.7-1,8.8-3c2.1-2,3.4-4.8,3.9-8.4h7.8c-0.8,5.7-3,10.2-6.4,13.3c-3.4,3.1-8.1,4.7-14.1,4.7
				c-3.5,0-6.7-0.6-9.4-1.7c-2.7-1.1-5-2.8-6.8-4.8c-1.8-2.1-3.2-4.6-4.1-7.5c-0.9-2.9-1.4-6.1-1.4-9.6c0-3.5,0.4-6.7,1.3-9.7
				c0.9-3,2.3-5.7,4.1-7.9c1.8-2.2,4.1-4,6.9-5.3c2.8-1.3,6-1.9,9.6-1.9c2.6,0,5.1,0.3,7.4,0.9c2.3,0.6,4.3,1.6,6.1,2.9
				c1.8,1.3,3.2,3,4.4,5c1.1,2,1.9,4.4,2.2,7.1H195C194.4,298.4,193.1,296.1,191.2,294.5z"/>
			<path class="st2" d="M219.8,268.8v38l21.2-20.3h10.2l-18.4,16.9l19.8,29.5h-9.7l-15.9-24.2l-7.2,6.6v17.6h-7.6v-64.1H219.8z"/>
			<path class="st2" d="M269.1,322.9v10h-10v-10H269.1z M266.2,316.4h-4l-2.2-27.9v-19.8h8.5v19.8L266.2,316.4z"/>
		</g>
	</g>
	<polygon class="st3" points="164.4,4 121.1,79 141.5,79 141.5,192.6 187.3,192.6 187.3,79 207.7,79 	"/>
</g>
</svg>
