<?xml version="1.0" encoding="utf-8"?>
<!-- Generator: Adobe Illustrator 19.2.1, SVG Export Plug-In . SVG Version: 6.00 Build 0)  -->
<svg version="1.1" id="Layer_1" xmlns="http://www.w3.org/2000/svg" xmlns:xlink="http://www.w3.org/1999/xlink" x="0px" y="0px"
	 viewBox="0 0 456 311.1" style="enable-background:new 0 0 456 311.1;" xml:space="preserve">
<style type="text/css">
	.st0{fill:#333333;stroke:#000000;stroke-width:4;stroke-miterlimit:10;}
	.st1{enable-background:new    ;}
	.st2{fill:#FFFFFF;}
	.st3{fill:#009444;stroke:#000000;stroke-width:4;stroke-miterlimit:10;}
</style>
<g>
	<path class="st0" d="M404,252.5H179.2c-27.5,0-50-22.5-50-50v-93.8c0-27.5,22.5-50,50-50H404c27.5,0,50,22.5,50,50v93.8
		C454,230,431.5,252.5,404,252.5z"/>
	<g class="st1">
		<path class="st2" d="M184.1,122.5c6.1,0,10.9,1.5,14.3,4.5c3.4,3,5.2,7.1,5.2,12.3c0,3.9-0.9,7.3-2.6,10.2c-1.8,2.9-4.6,4.9-8.5,6
			v0.2c1.9,0.4,3.4,1,4.5,1.8c1.2,0.8,2.1,1.8,2.8,3c0.7,1.2,1.2,2.5,1.5,3.9c0.3,1.4,0.6,2.9,0.8,4.5c0.1,1.6,0.2,3.1,0.3,4.8
			c0.1,1.6,0.2,3.2,0.4,4.8c0.2,1.6,0.6,3,1,4.4c0.4,1.4,1.1,2.6,2,3.7h-9.5c-0.6-0.7-1-1.6-1.2-2.7c-0.2-1.1-0.3-2.4-0.4-3.8
			c-0.1-1.4-0.1-2.9-0.2-4.5c-0.1-1.6-0.2-3.2-0.5-4.8c-0.2-1.6-0.5-3-0.9-4.4c-0.4-1.4-0.9-2.6-1.7-3.7c-0.8-1-1.8-1.9-3.1-2.5
			c-1.3-0.6-2.9-0.9-5-0.9h-20.8v27.4h-8.5v-64.1H184.1z M185.9,151.6c1.8-0.3,3.4-0.9,4.7-1.8c1.3-0.9,2.4-2,3.2-3.5
			c0.8-1.5,1.2-3.4,1.2-5.7c0-3.2-0.9-5.9-2.7-7.9c-1.8-2-4.7-3.1-8.7-3.1h-21.2v22.4h17.8C182.2,152.1,184.1,151.9,185.9,151.6z"/>
		<path class="st2" d="M213.1,153.9c1-3,2.4-5.5,4.3-7.7c1.9-2.2,4.3-3.9,7.1-5.2c2.8-1.3,6-1.9,9.7-1.9c3.7,0,7,0.6,9.7,1.9
			c2.8,1.3,5.1,3,7,5.2s3.4,4.8,4.3,7.7c1,3,1.4,6.2,1.4,9.6c0,3.4-0.5,6.6-1.4,9.5c-1,2.9-2.4,5.5-4.3,7.7c-1.9,2.2-4.3,3.9-7,5.1
			c-2.8,1.2-6,1.8-9.7,1.8c-3.7,0-6.9-0.6-9.7-1.8c-2.8-1.2-5.2-2.9-7.1-5.1c-1.9-2.2-3.4-4.7-4.3-7.7c-1-2.9-1.4-6.1-1.4-9.5
			C211.7,160,212.2,156.9,213.1,153.9z M220.9,171c0.7,2.2,1.8,4,3.1,5.5c1.3,1.5,2.9,2.6,4.6,3.4c1.8,0.8,3.6,1.2,5.6,1.2
			s3.8-0.4,5.6-1.2c1.8-0.8,3.3-1.9,4.6-3.4c1.3-1.5,2.3-3.3,3.1-5.5c0.7-2.2,1.1-4.7,1.1-7.5c0-2.8-0.4-5.3-1.1-7.5
			c-0.7-2.2-1.8-4-3.1-5.5c-1.3-1.5-2.9-2.6-4.6-3.4c-1.8-0.8-3.6-1.2-5.6-1.2s-3.8,0.4-5.6,1.2c-1.8,0.8-3.3,1.9-4.6,3.4
			c-1.3,1.5-2.4,3.3-3.1,5.5c-0.7,2.2-1.1,4.7-1.1,7.5C219.8,166.3,220.1,168.8,220.9,171z"/>
		<path class="st2" d="M285.6,140.2v6.7h-9.2v28.8c0,0.9,0.1,1.6,0.2,2.2c0.1,0.5,0.4,1,0.9,1.3c0.4,0.3,1,0.5,1.8,0.6
			c0.7,0.1,1.7,0.1,2.9,0.1h3.5v6.7h-5.8c-2,0-3.7-0.1-5.1-0.4c-1.4-0.3-2.5-0.8-3.4-1.5c-0.9-0.7-1.5-1.7-1.9-3.1
			c-0.4-1.3-0.6-3.1-0.6-5.2v-29.5h-7.9v-6.7h7.9v-13.9h7.6v13.9H285.6z"/>
		<path class="st2" d="M335.2,186.4c-1.3,0.8-3.1,1.2-5.5,1.2c-2,0-3.5-0.6-4.7-1.7c-1.2-1.1-1.8-2.9-1.8-5.4
			c-2.1,2.5-4.5,4.3-7.3,5.4c-2.8,1.1-5.8,1.7-9,1.7c-2.1,0-4.1-0.2-6-0.7s-3.5-1.2-4.9-2.2c-1.4-1-2.5-2.3-3.3-4
			c-0.8-1.6-1.2-3.6-1.2-6c0-2.6,0.4-4.8,1.3-6.5c0.9-1.7,2.1-3,3.5-4.1c1.5-1,3.1-1.8,5-2.4s3.8-1,5.8-1.3c2.1-0.4,4.1-0.7,6-0.9
			c1.9-0.2,3.5-0.5,5-0.9c1.4-0.4,2.6-1,3.4-1.7c0.8-0.7,1.3-1.8,1.3-3.3c0-1.7-0.3-3-0.9-4c-0.6-1-1.4-1.8-2.4-2.3
			c-1-0.5-2.1-0.9-3.3-1.1c-1.2-0.2-2.4-0.3-3.6-0.3c-3.2,0-5.9,0.6-8.1,1.8c-2.2,1.2-3.3,3.5-3.5,7h-7.6c0.1-2.9,0.7-5.3,1.8-7.3
			c1.1-2,2.5-3.6,4.3-4.8c1.8-1.2,3.8-2.1,6.2-2.6c2.3-0.5,4.8-0.8,7.4-0.8c2.1,0,4.2,0.2,6.2,0.4s3.9,0.9,5.6,1.8
			c1.7,0.9,3,2.2,4,3.9c1,1.7,1.5,3.9,1.5,6.5v23.8c0,1.8,0.1,3.1,0.3,3.9c0.2,0.8,0.9,1.3,2.1,1.3c0.7,0,1.4-0.1,2.3-0.4V186.4z
			 M322.8,162.6c-1,0.7-2.2,1.2-3.8,1.6c-1.6,0.3-3.2,0.6-4.9,0.8c-1.7,0.2-3.4,0.4-5.2,0.7c-1.7,0.3-3.3,0.7-4.7,1.3
			c-1.4,0.6-2.5,1.4-3.4,2.5c-0.9,1.1-1.3,2.6-1.3,4.5c0,1.3,0.3,2.3,0.8,3.2c0.5,0.9,1.2,1.6,2,2.1c0.8,0.5,1.8,0.9,2.8,1.2
			c1.1,0.2,2.2,0.4,3.4,0.4c2.5,0,4.7-0.3,6.5-1s3.3-1.5,4.4-2.6c1.1-1,2-2.2,2.5-3.4c0.5-1.2,0.8-2.4,0.8-3.4V162.6z"/>
		<path class="st2" d="M362.1,140.2v6.7h-9.2v28.8c0,0.9,0.1,1.6,0.2,2.2c0.1,0.5,0.4,1,0.9,1.3c0.4,0.3,1,0.5,1.8,0.6
			c0.7,0.1,1.7,0.1,2.9,0.1h3.5v6.7h-5.8c-2,0-3.7-0.1-5.1-0.4c-1.4-0.3-2.5-0.8-3.4-1.5c-0.9-0.7-1.5-1.7-1.9-3.1
			c-0.4-1.3-0.6-3.1-0.6-5.2v-29.5h-7.9v-6.7h7.9v-13.9h7.6v13.9H362.1z"/>
		<path class="st2" d="M403.4,183.7c-3.5,2.6-7.8,4-13.1,4c-3.7,0-6.9-0.6-9.7-1.8c-2.7-1.2-5-2.9-6.9-5c-1.9-2.2-3.2-4.7-4.2-7.7
			c-0.9-3-1.5-6.3-1.6-9.8c0-3.5,0.5-6.8,1.6-9.7c1.1-2.9,2.6-5.5,4.5-7.6s4.3-3.8,6.9-5c2.7-1.2,5.6-1.8,8.8-1.8
			c4.1,0,7.6,0.9,10.3,2.6c2.7,1.7,4.9,3.9,6.6,6.5c1.6,2.6,2.8,5.5,3.4,8.6c0.6,3.1,0.9,6.1,0.8,8.9h-34.8c-0.1,2,0.2,4,0.7,5.8
			c0.5,1.8,1.4,3.4,2.6,4.8c1.2,1.4,2.7,2.5,4.6,3.4c1.9,0.8,4,1.3,6.6,1.3c3.2,0,5.9-0.7,7.9-2.2c2.1-1.5,3.4-3.8,4.1-6.8h7.5
			C409.1,177.1,406.9,181,403.4,183.7z M401.6,153.8c-0.7-1.6-1.6-3-2.8-4.2c-1.2-1.2-2.5-2.1-4.1-2.8c-1.6-0.7-3.3-1-5.3-1
			c-2,0-3.8,0.3-5.3,1c-1.6,0.7-3,1.6-4.1,2.8c-1.1,1.2-2,2.6-2.7,4.2c-0.7,1.6-1,3.3-1.2,5.1h26.7
			C402.7,157.2,402.2,155.5,401.6,153.8z"/>
		<path class="st2" d="M429.6,176.7v10h-10v-10H429.6z M426.7,170.2h-4l-2.2-27.9v-19.8h8.5v19.8L426.7,170.2z"/>
	</g>
	<path class="st3" d="M113.3,155.6c0-0.1,0-0.1,0-0.2c0-43.5-17.1-82.9-44.9-112.1l18.1-18.1L2.8,2.8l22.4,83.7L41.7,70
		c21.1,22.3,34,52.4,34,85.6c0,33.1-13,63.2-34,85.6l-16.5-16.5L2.8,308.3l83.7-22.4l-18.1-18.1C96.2,238.6,113.3,199.2,113.3,155.6
		C113.3,155.7,113.3,155.6,113.3,155.6z"/>
</g>
</svg>
