<?xml version="1.0" encoding="utf-8"?>
<!-- Generator: Adobe Illustrator 19.2.1, SVG Export Plug-In . SVG Version: 6.00 Build 0)  -->
<svg version="1.1" id="Layer_1" xmlns="http://www.w3.org/2000/svg" xmlns:xlink="http://www.w3.org/1999/xlink" x="0px" y="0px"
	 viewBox="0 0 519.7 371.2" style="enable-background:new 0 0 519.7 371.2;" xml:space="preserve">
<style type="text/css">
	.st0{fill:#333333;stroke:#010101;stroke-width:4;stroke-miterlimit:10;}
	.st1{enable-background:new    ;}
	.st2{fill:#FFFFFF;}
	.st3{fill:#019547;stroke:#010101;stroke-width:4;stroke-miterlimit:10;}
</style>
<g>
	<g>
		<path class="st0" d="M467.7,369.2H242.9c-27.5,0-50-22.5-50-50v-93.8c0-27.5,22.5-50,50-50h224.8c27.5,0,50,22.5,50,50v93.8
			C517.7,346.7,495.2,369.2,467.7,369.2z"/>
		<g class="st1">
			<path class="st2" d="M247.8,239.2c6.1,0,10.9,1.5,14.3,4.5c3.4,3,5.2,7.1,5.2,12.3c0,3.9-0.9,7.3-2.6,10.2
				c-1.8,2.9-4.6,4.9-8.5,6v0.2c1.9,0.4,3.4,1,4.5,1.8c1.2,0.8,2.1,1.8,2.8,3c0.7,1.2,1.2,2.5,1.5,3.9c0.3,1.4,0.6,2.9,0.8,4.5
				c0.1,1.6,0.2,3.1,0.3,4.8s0.2,3.2,0.4,4.8c0.2,1.6,0.6,3,1,4.4c0.4,1.4,1.1,2.6,2,3.7H260c-0.6-0.7-1-1.6-1.2-2.7
				c-0.2-1.1-0.3-2.4-0.4-3.8c-0.1-1.4-0.1-2.9-0.2-4.5c-0.1-1.6-0.2-3.2-0.5-4.8c-0.2-1.6-0.5-3-0.9-4.4c-0.4-1.4-0.9-2.6-1.7-3.7
				c-0.8-1-1.8-1.9-3.1-2.5c-1.3-0.6-2.9-0.9-5-0.9h-20.8v27.4h-8.5v-64.1H247.8z M249.6,268.3c1.8-0.3,3.4-0.9,4.7-1.8
				c1.3-0.9,2.4-2,3.2-3.5c0.8-1.5,1.2-3.4,1.2-5.7c0-3.2-0.9-5.9-2.7-7.9c-1.8-2-4.7-3.1-8.7-3.1h-21.2v22.4h17.8
				C245.9,268.7,247.8,268.6,249.6,268.3z"/>
			<path class="st2" d="M276.8,270.6c1-3,2.4-5.5,4.3-7.7c1.9-2.2,4.3-3.9,7.1-5.2c2.8-1.3,6-1.9,9.7-1.9c3.7,0,7,0.6,9.7,1.9
				s5.1,3,7,5.2s3.4,4.8,4.3,7.7c1,3,1.4,6.2,1.4,9.6c0,3.4-0.5,6.6-1.4,9.5c-1,2.9-2.4,5.5-4.3,7.7c-1.9,2.2-4.3,3.9-7,5.1
				c-2.8,1.2-6,1.8-9.7,1.8c-3.7,0-6.9-0.6-9.7-1.8c-2.8-1.2-5.2-2.9-7.1-5.1c-1.9-2.2-3.4-4.7-4.3-7.7c-1-2.9-1.4-6.1-1.4-9.5
				C275.4,276.7,275.9,273.5,276.8,270.6z M284.6,287.6c0.7,2.2,1.8,4,3.1,5.5c1.3,1.5,2.9,2.6,4.6,3.4c1.8,0.8,3.6,1.2,5.6,1.2
				s3.8-0.4,5.6-1.2c1.8-0.8,3.3-1.9,4.6-3.4c1.3-1.5,2.3-3.3,3.1-5.5c0.7-2.2,1.1-4.7,1.1-7.5c0-2.8-0.4-5.3-1.1-7.5
				c-0.7-2.2-1.8-4-3.1-5.5c-1.3-1.5-2.9-2.6-4.6-3.4c-1.8-0.8-3.6-1.2-5.6-1.2s-3.8,0.4-5.6,1.2c-1.8,0.8-3.3,1.9-4.6,3.4
				c-1.3,1.5-2.4,3.3-3.1,5.5c-0.7,2.2-1.1,4.7-1.1,7.5C283.5,283,283.8,285.5,284.6,287.6z"/>
			<path class="st2" d="M349.3,256.9v6.7H340v28.8c0,0.9,0.1,1.6,0.2,2.2c0.1,0.5,0.4,1,0.9,1.3c0.4,0.3,1,0.5,1.8,0.6
				c0.7,0.1,1.7,0.1,2.9,0.1h3.5v6.7h-5.8c-2,0-3.7-0.1-5.1-0.4c-1.4-0.3-2.5-0.8-3.4-1.5c-0.9-0.7-1.5-1.7-1.9-3.1
				c-0.4-1.3-0.6-3.1-0.6-5.2v-29.5h-7.9v-6.7h7.9V243h7.6v13.9H349.3z"/>
			<path class="st2" d="M398.8,303.1c-1.3,0.8-3.1,1.2-5.5,1.2c-2,0-3.5-0.6-4.7-1.7c-1.2-1.1-1.8-2.9-1.8-5.4
				c-2.1,2.5-4.5,4.3-7.3,5.4c-2.8,1.1-5.8,1.7-9,1.7c-2.1,0-4.1-0.2-6-0.7s-3.5-1.2-4.9-2.2c-1.4-1-2.5-2.3-3.3-4
				c-0.8-1.6-1.2-3.6-1.2-6c0-2.6,0.4-4.8,1.3-6.5c0.9-1.7,2.1-3,3.5-4.1c1.5-1,3.1-1.8,5-2.4s3.8-1,5.8-1.3c2.1-0.4,4.1-0.7,6-0.9
				c1.9-0.2,3.5-0.5,5-0.9c1.4-0.4,2.6-1,3.4-1.7c0.8-0.7,1.3-1.8,1.3-3.3c0-1.7-0.3-3-0.9-4c-0.6-1-1.4-1.8-2.4-2.3
				c-1-0.5-2.1-0.9-3.3-1.1c-1.2-0.2-2.4-0.3-3.6-0.3c-3.2,0-5.9,0.6-8.1,1.8c-2.2,1.2-3.3,3.5-3.5,7H357c0.1-2.9,0.7-5.3,1.8-7.3
				c1.1-2,2.5-3.6,4.3-4.8c1.8-1.2,3.8-2.1,6.2-2.6c2.3-0.5,4.8-0.8,7.4-0.8c2.1,0,4.2,0.2,6.2,0.4s3.9,0.9,5.6,1.8
				c1.7,0.9,3,2.2,4,3.9c1,1.7,1.5,3.9,1.5,6.5v23.8c0,1.8,0.1,3.1,0.3,3.9c0.2,0.8,0.9,1.3,2.1,1.3c0.7,0,1.4-0.1,2.3-0.4V303.1z
				 M386.5,279.3c-1,0.7-2.2,1.2-3.8,1.6c-1.6,0.3-3.2,0.6-4.9,0.8c-1.7,0.2-3.4,0.4-5.2,0.7c-1.7,0.3-3.3,0.7-4.7,1.3
				c-1.4,0.6-2.5,1.4-3.4,2.5c-0.9,1.1-1.3,2.6-1.3,4.5c0,1.3,0.3,2.3,0.8,3.2c0.5,0.9,1.2,1.6,2,2.1c0.8,0.5,1.8,0.9,2.8,1.2
				c1.1,0.2,2.2,0.4,3.4,0.4c2.5,0,4.7-0.3,6.5-1s3.3-1.5,4.4-2.6c1.1-1,2-2.2,2.5-3.4c0.5-1.2,0.8-2.4,0.8-3.4V279.3z"/>
			<path class="st2" d="M425.8,256.9v6.7h-9.2v28.8c0,0.9,0.1,1.6,0.2,2.2c0.1,0.5,0.4,1,0.9,1.3c0.4,0.3,1,0.5,1.8,0.6
				c0.7,0.1,1.7,0.1,2.9,0.1h3.5v6.7H420c-2,0-3.7-0.1-5.1-0.4c-1.4-0.3-2.5-0.8-3.4-1.5c-0.9-0.7-1.5-1.7-1.9-3.1
				c-0.4-1.3-0.6-3.1-0.6-5.2v-29.5H401v-6.7h7.9V243h7.6v13.9H425.8z"/>
			<path class="st2" d="M467.1,300.4c-3.5,2.6-7.8,4-13.1,4c-3.7,0-6.9-0.6-9.7-1.8c-2.7-1.2-5-2.9-6.9-5c-1.9-2.2-3.2-4.7-4.2-7.7
				c-0.9-3-1.5-6.3-1.6-9.8c0-3.5,0.5-6.8,1.6-9.7c1.1-2.9,2.6-5.5,4.5-7.6s4.3-3.8,6.9-5c2.7-1.2,5.6-1.8,8.8-1.8
				c4.1,0,7.6,0.9,10.3,2.6c2.7,1.7,4.9,3.9,6.6,6.5c1.6,2.6,2.8,5.5,3.4,8.6c0.6,3.1,0.9,6.1,0.8,8.9h-34.8c-0.1,2,0.2,4,0.7,5.8
				c0.5,1.8,1.4,3.4,2.6,4.8c1.2,1.4,2.7,2.5,4.6,3.4c1.9,0.8,4,1.3,6.6,1.3c3.2,0,5.9-0.7,7.9-2.2c2.1-1.5,3.4-3.8,4.1-6.8h7.5
				C472.8,293.8,470.6,297.7,467.1,300.4z M465.3,270.5c-0.7-1.6-1.6-3-2.8-4.2c-1.2-1.2-2.5-2.1-4.1-2.8c-1.6-0.7-3.3-1-5.3-1
				c-2,0-3.8,0.3-5.3,1c-1.6,0.7-3,1.6-4.1,2.8c-1.1,1.2-2,2.6-2.7,4.2c-0.7,1.6-1,3.3-1.2,5.1h26.7
				C466.3,273.9,465.9,272.2,465.3,270.5z"/>
			<path class="st2" d="M493.3,293.3v10h-10v-10H493.3z M490.4,286.9h-4l-2.2-27.9v-19.8h8.5V259L490.4,286.9z"/>
		</g>
	</g>
	<path class="st3" d="M190.1,190.2c0.1-0.1,0.1-0.1,0.1-0.1c30.8-30.8,46.5-70.7,47.5-111h25.6L220,4l-43.3,75H200
		c-0.8,30.7-13,61.1-36.5,84.6c-23.4,23.4-53.9,35.5-84.6,36.5v-23.3L4,220l75,43.3v-25.6C119.3,236.8,159.3,221,190.1,190.2
		C190,190.2,190.1,190.2,190.1,190.2z"/>
</g>
</svg>
