<?xml version="1.0" encoding="utf-8"?>
<!-- Generator: Adobe Illustrator 19.1.0, SVG Export Plug-In . SVG Version: 6.00 Build 0)  -->
<svg version="1.1" id="Layer_1" xmlns="http://www.w3.org/2000/svg" xmlns:xlink="http://www.w3.org/1999/xlink" x="0px" y="0px"
	 viewBox="-58 66.7 82 68.3" style="enable-background:new -58 66.7 82 68.3;" xml:space="preserve">
<style type="text/css">
	.st0{fill:#282828;}
	.st1{fill:none;stroke:#010101;stroke-miterlimit:10;}
</style>
<path class="st0" d="M-33.2,97.4c0-6.4,7.3-11.7,16.2-11.7s16.2,5.2,16.2,11.7h21.1L17,73.2c-0.5-3.3-3.9-5.8-8-5.8h-51.9
	c-4.1,0-7.6,2.5-8,5.8l-3.4,24.2C-54.3,97.4-33.2,97.4-33.2,97.4z"/>
<g>
	<path class="st0" d="M-0.8,97.2c0,6.5-7.2,11.7-16.2,11.7c-8.9,0-16.2-5.2-16.2-11.7l0,0h-21.1l-3.1,22.8c-0.5,3.9,3.2,7.2,8,7.2
		h64.8c4.8,0,8.6-3.4,8-7.2l-3.2-22.8H-0.8L-0.8,97.2z"/>
</g>
<path class="st1" d="M23.5,120L17,73c-0.5-3.3-3.9-5.8-8-5.8h-51.9c-4.1,0-7.6,2.5-8.1,5.8l-6.5,47c-0.5,3.9,3.2,7.2,8,7.2h64.8
	C20.3,127.2,24,123.8,23.5,120z M-17,108.9c-8.9,0-16.2-5.2-16.2-11.7s7.3-11.7,16.2-11.7s16.2,5.2,16.2,11.7S-8,108.9-17,108.9z"/>
</svg>
