<?xml version="1.0" encoding="utf-8"?>
<!-- Generator: Adobe Illustrator 19.1.0, SVG Export Plug-In . SVG Version: 6.00 Build 0)  -->
<svg version="1.1" id="Layer_1" xmlns="http://www.w3.org/2000/svg" xmlns:xlink="http://www.w3.org/1999/xlink" x="0px" y="0px"
	 viewBox="-58 97.7 82.1 37.8" style="enable-background:new -58 97.7 82.1 37.8;" xml:space="preserve">
<style type="text/css">
	.st0{fill:#0D0D0D;stroke:#010101;stroke-miterlimit:10;}
	.st1{fill:#282828;}
	.st2{fill:none;stroke:#010101;stroke-miterlimit:10;}
</style>
<g>
	<path class="st0" d="M23.5,127.7L23.5,127.7v-7.2h-81v7.2v1.5c0.4,3.2,3.8,5.8,8,5.8h64.8C20.2,135,24,131.6,23.5,127.7z"/>
	<path class="st1" d="M-0.8,97.7c0,6.5-7.2,11.7-16.2,11.7c-8.9,0-16.2-5.2-16.2-11.7l0,0h-21.1l-3.1,22.8c-0.5,3.9,3.2,7.2,8,7.2
		h64.8c4.8,0,8.6-3.4,8-7.2l-3.2-22.8H-0.8L-0.8,97.7z"/>
</g>
<path class="st2" d="M-57.5,120.5c-0.5,3.9,3.2,7.2,8,7.2h64.8c5,0,8.7-3.4,8.2-7.2 M-0.8,97.7c0,6.5-7.2,11.7-16.2,11.7
	c-8.9,0-16.2-5.2-16.2-11.7"/>
</svg>
