<?xml version="1.0" encoding="utf-8"?>
<!-- Generator: Adobe Illustrator 19.2.1, SVG Export Plug-In . SVG Version: 6.00 Build 0)  -->
<svg version="1.1" id="Layer_1" xmlns="http://www.w3.org/2000/svg" xmlns:xlink="http://www.w3.org/1999/xlink" x="0px" y="0px"
	 viewBox="0 0 400 300" style="enable-background:new 0 0 400 300;" xml:space="preserve">
<style type="text/css">
	.st0{fill:#331B0E;stroke:#000000;stroke-miterlimit:10;}
	.st1{fill:#3B1E0E;stroke:#000000;stroke-miterlimit:10;}
	.st2{fill:#2BB673;stroke:#000000;stroke-miterlimit:10;}
	.st3{fill:#67C18C;stroke:#000000;stroke-miterlimit:10;}
	.st4{fill:none;stroke:#000000;stroke-miterlimit:10;}
	.st5{fill:#FFFFFF;stroke:#A7A9AC;stroke-miterlimit:10;}
	.st6{enable-background:new    ;}
	.st7{fill:#FFFFFF;}
	.st8{fill:#FFFFFF;stroke:#000000;stroke-miterlimit:10;}
	.st9{fill:#FFFFFF;stroke:#000000;stroke-linecap:round;stroke-miterlimit:10;}
	.st10{fill:#006838;}
	.st11{fill:#589C75;stroke:#000000;stroke-linecap:round;stroke-miterlimit:10;}
	.st12{fill:#E6E7E8;}
</style>
<rect y="280" class="st0" width="400" height="20"/>
<polygon class="st1" points="400,280 0,280 35,200 365,200 "/>
<rect x="50" y="120" class="st2" width="300" height="130"/>
<polygon class="st3" points="330,80 70,80 50,120 350,120 "/>
<ellipse class="st4" cx="200" cy="100" rx="91.5" ry="15.4"/>
<g>
	<rect x="124.5" y="134.7" class="st5" width="151.1" height="97"/>
	<g class="st6">
		<path d="M134.5,178.4v0.5c0,1.8,0.2,3,0.5,3.7s1,1.1,2.1,1.1c1,0,1.7-0.4,2.1-1.2c0.2-0.5,0.3-1.2,0.3-2.3v-15.8h4.7v15.7
			c0,1.9-0.3,3.4-1,4.6c-1.1,1.9-3.1,2.9-6,2.9c-2.9,0-4.8-0.8-5.8-2.3c-1-1.5-1.5-3.6-1.5-6.3v-0.5H134.5z"/>
		<path d="M153.3,168.3h-4.4v-4h4.4V168.3z M148.9,170.3h4.4V187h-4.4V170.3z"/>
		<path d="M178.4,170.3c0.7,0.3,1.4,0.8,1.9,1.5c0.5,0.6,0.8,1.3,1,2.1c0.1,0.6,0.2,1.4,0.2,2.5l0,10.5H177v-10.6
			c0-0.6-0.1-1.2-0.3-1.6c-0.4-0.8-1.1-1.2-2.1-1.2c-1.2,0-2,0.5-2.5,1.5c-0.2,0.5-0.4,1.2-0.4,1.9v10h-4.4v-10c0-1-0.1-1.7-0.3-2.2
			c-0.4-0.8-1.1-1.2-2.2-1.2c-1.2,0-2.1,0.4-2.5,1.2c-0.2,0.5-0.4,1.1-0.4,2.1V187h-4.4v-16.7h4.3v2.4c0.5-0.9,1.1-1.5,1.5-1.9
			c0.8-0.7,1.9-1,3.3-1c1.3,0,2.3,0.3,3.1,0.8c0.6,0.5,1.1,1.2,1.4,2c0.6-1,1.3-1.7,2.1-2.2c0.9-0.5,1.9-0.7,3-0.7
			C177,169.9,177.7,170,178.4,170.3z"/>
		<path d="M193.4,170.3h4.4l2.5,12l2.6-12h4.6l-4.8,16.7h-4.5l-2.6-12.2l-2.7,12.2h-4.5l-4.7-16.7h4.7l2.6,12L193.4,170.3z"/>
		<path d="M214.4,168.3H210v-4h4.4V168.3z M210,170.3h4.4V187H210V170.3z"/>
		<path d="M232.7,172.1c1.4,1.4,2,3.6,2,6.4c0,2.9-0.7,5.2-2,6.7c-1.3,1.5-3.1,2.3-5.2,2.3c-1.3,0-2.5-0.3-3.3-1
			c-0.5-0.4-1-0.9-1.4-1.6v8.7h-4.3v-23.3h4.2v2.5c0.5-0.7,1-1.3,1.5-1.7c1-0.7,2.1-1.1,3.5-1.1
			C229.7,169.9,231.4,170.6,232.7,172.1z M229.4,175.2c-0.6-1-1.6-1.5-2.9-1.5c-1.6,0-2.7,0.8-3.3,2.3c-0.3,0.8-0.5,1.8-0.5,3
			c0,1.9,0.5,3.3,1.6,4.1c0.6,0.5,1.4,0.7,2.2,0.7c1.2,0,2.2-0.5,2.8-1.4c0.6-0.9,1-2.2,1-3.8C230.3,177.3,230,176.2,229.4,175.2z"
			/>
		<path d="M248.8,170.6c1.2,0.5,2.1,1.3,2.9,2.5c0.7,1,1.1,2.1,1.3,3.5c0.1,0.8,0.2,1.9,0.1,3.3h-12.2c0.1,1.7,0.7,2.9,1.7,3.5
			c0.7,0.4,1.5,0.6,2.4,0.6c1,0,1.8-0.3,2.4-0.8c0.3-0.3,0.6-0.7,0.9-1.2h4.5c-0.1,1-0.7,2-1.6,3c-1.5,1.6-3.6,2.4-6.3,2.4
			c-2.2,0-4.2-0.7-5.9-2.1c-1.7-1.4-2.6-3.6-2.6-6.7c0-2.9,0.8-5.1,2.3-6.7s3.5-2.3,6-2.3C246.3,169.8,247.6,170.1,248.8,170.6z
			 M242.2,174.4c-0.6,0.6-1,1.5-1.2,2.6h7.5c-0.1-1.2-0.5-2-1.2-2.6c-0.7-0.6-1.6-0.9-2.6-0.9C243.7,173.4,242.8,173.8,242.2,174.4z
			"/>
		<path d="M258.7,181.7c0.1,0.8,0.3,1.3,0.6,1.7c0.5,0.6,1.6,0.9,3,0.9c0.9,0,1.5-0.1,2.1-0.4s0.8-0.6,0.8-1.2
			c0-0.5-0.2-0.9-0.6-1.1c-0.4-0.3-1.9-0.7-4.6-1.3c-1.9-0.5-3.2-1.1-4-1.8c-0.8-0.7-1.2-1.7-1.2-3c0-1.5,0.6-2.9,1.8-4
			c1.2-1.1,2.9-1.7,5.1-1.7c2.1,0,3.8,0.4,5.1,1.3s2.1,2.3,2.3,4.3h-4.4c-0.1-0.6-0.2-1-0.5-1.3c-0.5-0.6-1.3-0.9-2.5-0.9
			c-1,0-1.6,0.1-2,0.4c-0.4,0.3-0.6,0.6-0.6,1c0,0.5,0.2,0.9,0.6,1.1c0.4,0.2,2,0.6,4.6,1.2c1.7,0.4,3,1,3.9,1.9
			c0.9,0.8,1.3,1.9,1.3,3.1c0,1.7-0.6,3-1.9,4.1c-1.2,1-3.1,1.6-5.7,1.6c-2.6,0-4.6-0.6-5.8-1.7c-1.3-1.1-1.9-2.5-1.9-4.2H258.7z"/>
	</g>
	<g class="st6">
		<path d="M135.7,203.4h2.9c1,0,1.7,0.3,2.3,1c0.5,0.6,0.7,1.4,0.7,2.4c0,0.8-0.1,1.5-0.4,2.1c-0.5,1.1-1.4,1.6-2.6,1.6h-2.9V203.4z
			 M138.4,209.7c0.3,0,0.6,0,0.8-0.1c0.4-0.1,0.7-0.4,0.9-0.7c0.2-0.3,0.3-0.7,0.4-1.1c0-0.3,0.1-0.5,0.1-0.8c0-0.9-0.2-1.6-0.5-2.1
			s-0.9-0.7-1.7-0.7h-1.7v5.5H138.4z"/>
		<path d="M146,205.4c0.3,0.2,0.6,0.4,0.8,0.7c0.2,0.3,0.3,0.6,0.3,0.9c0.1,0.2,0.1,0.6,0.1,1.2h-3.8c0,0.5,0.1,1,0.4,1.3
			s0.6,0.5,1.1,0.5c0.5,0,0.8-0.2,1.1-0.5c0.2-0.2,0.3-0.4,0.3-0.6h0.9c0,0.2-0.1,0.4-0.2,0.6c-0.1,0.2-0.3,0.4-0.4,0.6
			c-0.3,0.3-0.6,0.4-1,0.5c-0.2,0.1-0.4,0.1-0.7,0.1c-0.6,0-1.2-0.2-1.6-0.7c-0.4-0.5-0.7-1.1-0.7-2c0-0.8,0.2-1.5,0.7-2
			c0.5-0.5,1-0.8,1.8-0.8C145.3,205.2,145.7,205.3,146,205.4z M146.3,207.5c0-0.4-0.1-0.7-0.2-0.9c-0.2-0.4-0.6-0.6-1.2-0.6
			c-0.4,0-0.7,0.1-1,0.4c-0.3,0.3-0.4,0.7-0.4,1.1H146.3z"/>
		<path d="M148.9,208.9c0,0.3,0.1,0.5,0.2,0.7c0.2,0.3,0.6,0.4,1.2,0.4c0.3,0,0.6-0.1,0.9-0.2c0.3-0.1,0.4-0.4,0.4-0.7
			c0-0.2-0.1-0.4-0.3-0.5c-0.1-0.1-0.4-0.2-0.8-0.2l-0.7-0.2c-0.5-0.1-0.8-0.2-1-0.4c-0.4-0.2-0.6-0.6-0.6-1c0-0.5,0.2-0.9,0.5-1.2
			c0.4-0.3,0.8-0.5,1.5-0.5c0.8,0,1.4,0.2,1.7,0.7c0.2,0.3,0.3,0.6,0.3,0.9h-0.8c0-0.2-0.1-0.4-0.2-0.5c-0.2-0.2-0.6-0.3-1.1-0.3
			c-0.3,0-0.6,0.1-0.8,0.2c-0.2,0.1-0.3,0.3-0.3,0.5c0,0.2,0.1,0.4,0.3,0.5c0.1,0.1,0.3,0.2,0.6,0.2l0.6,0.1
			c0.6,0.2,1.1,0.3,1.3,0.4c0.3,0.2,0.5,0.6,0.5,1.1c0,0.5-0.2,0.9-0.5,1.2c-0.4,0.3-0.9,0.5-1.6,0.5c-0.8,0-1.3-0.2-1.7-0.5
			c-0.3-0.4-0.5-0.8-0.5-1.3H148.9z"/>
		<path d="M153.3,203.4h0.9v1h-0.9V203.4z M153.3,205.3h0.9v5.2h-0.9V205.3z"/>
		<path d="M158.5,205.5c0.2,0.1,0.3,0.3,0.5,0.5v-0.7h0.8v4.8c0,0.7-0.1,1.2-0.3,1.6c-0.4,0.7-1,1.1-2.1,1.1c-0.6,0-1-0.1-1.4-0.4
			c-0.4-0.3-0.6-0.6-0.6-1.2h0.9c0,0.2,0.1,0.4,0.3,0.5c0.2,0.2,0.5,0.3,0.9,0.3c0.7,0,1.1-0.2,1.3-0.7c0.1-0.3,0.2-0.8,0.2-1.5
			c-0.2,0.3-0.4,0.5-0.6,0.6s-0.6,0.2-1,0.2c-0.6,0-1.1-0.2-1.5-0.6c-0.4-0.4-0.6-1.1-0.6-2c0-0.9,0.2-1.6,0.6-2.1s0.9-0.7,1.5-0.7
			C157.8,205.2,158.2,205.3,158.5,205.5z M158.6,206.4c-0.3-0.3-0.6-0.5-1-0.5c-0.6,0-1,0.3-1.3,0.9c-0.1,0.3-0.2,0.7-0.2,1.2
			c0,0.6,0.1,1,0.4,1.3c0.2,0.3,0.6,0.5,1,0.5c0.6,0,1.1-0.3,1.3-0.9c0.1-0.3,0.2-0.7,0.2-1.1C159,207.2,158.9,206.8,158.6,206.4z"
			/>
		<path d="M161.1,205.3h0.8v0.7c0.2-0.3,0.5-0.5,0.8-0.7s0.6-0.2,0.9-0.2c0.7,0,1.2,0.3,1.5,0.8c0.1,0.3,0.2,0.7,0.2,1.2v3.4h-0.9
			v-3.3c0-0.3,0-0.6-0.1-0.8c-0.2-0.3-0.4-0.5-0.8-0.5c-0.2,0-0.4,0-0.5,0.1c-0.2,0.1-0.5,0.2-0.6,0.4c-0.1,0.2-0.2,0.4-0.3,0.5
			c0,0.2-0.1,0.4-0.1,0.8v2.7h-0.9V205.3z"/>
		<path d="M169.9,205.4c0.3,0.2,0.6,0.4,0.8,0.7c0.2,0.3,0.3,0.6,0.3,0.9c0.1,0.2,0.1,0.6,0.1,1.2h-3.8c0,0.5,0.1,1,0.4,1.3
			s0.6,0.5,1.1,0.5c0.5,0,0.8-0.2,1.1-0.5c0.2-0.2,0.3-0.4,0.3-0.6h0.9c0,0.2-0.1,0.4-0.2,0.6c-0.1,0.2-0.3,0.4-0.4,0.6
			c-0.3,0.3-0.6,0.4-1,0.5c-0.2,0.1-0.4,0.1-0.7,0.1c-0.6,0-1.2-0.2-1.6-0.7c-0.4-0.5-0.7-1.1-0.7-2c0-0.8,0.2-1.5,0.7-2
			c0.5-0.5,1-0.8,1.8-0.8C169.2,205.2,169.6,205.3,169.9,205.4z M170.2,207.5c0-0.4-0.1-0.7-0.2-0.9c-0.2-0.4-0.6-0.6-1.2-0.6
			c-0.4,0-0.7,0.1-1,0.4c-0.3,0.3-0.4,0.7-0.4,1.1H170.2z"/>
		<path d="M172.3,205.3h0.8v0.9c0.1-0.2,0.2-0.4,0.5-0.6c0.3-0.3,0.6-0.4,0.9-0.4c0,0,0,0,0.1,0s0.1,0,0.2,0v0.9c-0.1,0-0.1,0-0.1,0
			s-0.1,0-0.1,0c-0.4,0-0.8,0.1-1,0.4c-0.2,0.3-0.4,0.6-0.4,1v3h-0.9V205.3z"/>
		<path d="M178.5,203.4h3.1c0.8,0,1.4,0.3,1.8,0.8c0.2,0.3,0.3,0.6,0.3,1c0,0.5-0.1,0.8-0.4,1.1c-0.1,0.2-0.3,0.3-0.6,0.4
			c0.4,0.1,0.6,0.3,0.8,0.5c0.3,0.3,0.5,0.7,0.5,1.3c0,0.5-0.1,0.9-0.4,1.3c-0.4,0.6-1.1,0.8-2.1,0.8h-3.1V203.4z M181.2,206.4
			c0.4,0,0.7-0.1,1-0.2c0.4-0.2,0.5-0.5,0.5-1c0-0.5-0.2-0.8-0.6-0.9c-0.2-0.1-0.5-0.1-1-0.1h-1.8v2.2H181.2z M181.5,209.7
			c0.6,0,1-0.2,1.3-0.5c0.2-0.2,0.2-0.5,0.2-0.8c0-0.5-0.2-0.9-0.7-1.1c-0.2-0.1-0.6-0.2-1-0.2h-1.9v2.5H181.5z"/>
		<path d="M185.1,205.3h0.8v0.9c0.1-0.2,0.2-0.4,0.5-0.6c0.3-0.3,0.6-0.4,0.9-0.4c0,0,0,0,0.1,0s0.1,0,0.2,0v0.9c-0.1,0-0.1,0-0.1,0
			s-0.1,0-0.1,0c-0.4,0-0.8,0.1-1,0.4c-0.2,0.3-0.4,0.6-0.4,1v3h-0.9V205.3z"/>
		<path d="M191.2,207.4c0.2,0,0.3-0.1,0.4-0.3c0-0.1,0.1-0.2,0.1-0.3c0-0.3-0.1-0.5-0.3-0.7s-0.5-0.2-0.9-0.2c-0.5,0-0.8,0.1-1,0.4
			c-0.1,0.1-0.2,0.3-0.2,0.6h-0.8c0-0.6,0.2-1.1,0.6-1.3c0.4-0.3,0.9-0.4,1.4-0.4c0.6,0,1.1,0.1,1.5,0.4c0.4,0.2,0.6,0.6,0.6,1.1v3
			c0,0.1,0,0.2,0.1,0.2c0,0.1,0.1,0.1,0.2,0.1c0,0,0.1,0,0.1,0c0,0,0.1,0,0.2,0v0.6c-0.1,0-0.2,0.1-0.3,0.1s-0.2,0-0.3,0
			c-0.3,0-0.5-0.1-0.7-0.3c-0.1-0.1-0.1-0.3-0.2-0.5c-0.2,0.2-0.4,0.4-0.8,0.6s-0.7,0.3-1.1,0.3c-0.5,0-0.9-0.1-1.2-0.4
			s-0.5-0.7-0.5-1.1c0-0.5,0.2-0.9,0.5-1.1s0.7-0.4,1.2-0.5L191.2,207.4z M189.3,209.7c0.2,0.1,0.4,0.2,0.7,0.2
			c0.3,0,0.6-0.1,0.9-0.2c0.5-0.2,0.7-0.6,0.7-1.2v-0.7c-0.1,0.1-0.2,0.1-0.4,0.2s-0.3,0.1-0.5,0.1l-0.5,0.1c-0.3,0-0.6,0.1-0.7,0.2
			c-0.3,0.2-0.4,0.4-0.4,0.7C189,209.4,189.1,209.6,189.3,209.7z"/>
		<path d="M193.9,205.3h0.8v0.7c0.2-0.3,0.5-0.5,0.8-0.7s0.6-0.2,0.9-0.2c0.7,0,1.2,0.3,1.5,0.8c0.1,0.3,0.2,0.7,0.2,1.2v3.4h-0.9
			v-3.3c0-0.3,0-0.6-0.1-0.8c-0.2-0.3-0.4-0.5-0.8-0.5c-0.2,0-0.4,0-0.5,0.1c-0.2,0.1-0.5,0.2-0.6,0.4c-0.1,0.2-0.2,0.4-0.3,0.5
			c0,0.2-0.1,0.4-0.1,0.8v2.7h-0.9V205.3z"/>
		<path d="M202.4,205.5c0.2,0.1,0.3,0.3,0.5,0.5v-2.6h0.8v7.2h-0.8v-0.7c-0.2,0.3-0.4,0.6-0.7,0.7s-0.6,0.2-1,0.2
			c-0.6,0-1.1-0.2-1.5-0.7c-0.4-0.5-0.6-1.1-0.6-2c0-0.8,0.2-1.4,0.6-2c0.4-0.6,0.9-0.8,1.7-0.8
			C201.8,205.2,202.1,205.3,202.4,205.5z M200.4,209.4c0.2,0.4,0.6,0.6,1.1,0.6c0.4,0,0.7-0.2,1-0.5c0.3-0.4,0.4-0.9,0.4-1.5
			c0-0.7-0.1-1.1-0.4-1.5c-0.3-0.3-0.6-0.5-1-0.5c-0.4,0-0.8,0.2-1.1,0.5c-0.3,0.3-0.4,0.8-0.4,1.5C200,208.5,200.2,209,200.4,209.4
			z"/>
	</g>
	<g class="st6">
		<path d="M135.7,215.4h2.9c1,0,1.7,0.3,2.3,1c0.5,0.6,0.7,1.4,0.7,2.4c0,0.8-0.1,1.5-0.4,2.1c-0.5,1.1-1.4,1.6-2.6,1.6h-2.9V215.4z
			 M138.4,221.7c0.3,0,0.6,0,0.8-0.1c0.4-0.1,0.7-0.4,0.9-0.7c0.2-0.3,0.3-0.7,0.4-1.1c0-0.3,0.1-0.5,0.1-0.8c0-0.9-0.2-1.6-0.5-2.1
			s-0.9-0.7-1.7-0.7h-1.7v5.5H138.4z"/>
		<path d="M146,217.4c0.3,0.2,0.6,0.4,0.8,0.7c0.2,0.3,0.3,0.6,0.3,0.9c0.1,0.2,0.1,0.6,0.1,1.2h-3.8c0,0.5,0.1,1,0.4,1.3
			s0.6,0.5,1.1,0.5c0.5,0,0.8-0.2,1.1-0.5c0.2-0.2,0.3-0.4,0.3-0.6h0.9c0,0.2-0.1,0.4-0.2,0.6c-0.1,0.2-0.3,0.4-0.4,0.6
			c-0.3,0.3-0.6,0.4-1,0.5c-0.2,0.1-0.4,0.1-0.7,0.1c-0.6,0-1.2-0.2-1.6-0.7c-0.4-0.5-0.7-1.1-0.7-2c0-0.8,0.2-1.5,0.7-2
			c0.5-0.5,1-0.8,1.8-0.8C145.3,217.2,145.7,217.3,146,217.4z M146.3,219.5c0-0.4-0.1-0.7-0.2-0.9c-0.2-0.4-0.6-0.6-1.2-0.6
			c-0.4,0-0.7,0.1-1,0.4c-0.3,0.3-0.4,0.7-0.4,1.1H146.3z"/>
		<path d="M148.4,215.4h0.9v7.2h-0.9V215.4z"/>
		<path d="M150.6,215.4h0.9v1h-0.9V215.4z M150.6,217.3h0.9v5.2h-0.9V217.3z"/>
		<path d="M156.2,217.6c0.4,0.3,0.6,0.8,0.7,1.5h-0.9c-0.1-0.3-0.2-0.6-0.4-0.8c-0.2-0.2-0.5-0.3-0.9-0.3c-0.6,0-1,0.3-1.2,0.8
			c-0.2,0.4-0.2,0.8-0.2,1.3c0,0.5,0.1,1,0.3,1.3c0.2,0.4,0.6,0.5,1,0.5c0.4,0,0.7-0.1,0.9-0.3c0.2-0.2,0.4-0.5,0.4-0.9h0.9
			c-0.1,0.7-0.3,1.2-0.7,1.5c-0.4,0.3-0.9,0.5-1.5,0.5c-0.7,0-1.2-0.2-1.6-0.7c-0.4-0.5-0.6-1.1-0.6-1.9c0-0.9,0.2-1.6,0.7-2.1
			s1-0.8,1.7-0.8C155.4,217.1,155.9,217.3,156.2,217.6z"/>
		<path d="M160.6,219.4c0.2,0,0.3-0.1,0.4-0.3c0-0.1,0.1-0.2,0.1-0.3c0-0.3-0.1-0.5-0.3-0.7s-0.5-0.2-0.9-0.2c-0.5,0-0.8,0.1-1,0.4
			c-0.1,0.1-0.2,0.3-0.2,0.6h-0.8c0-0.6,0.2-1.1,0.6-1.3c0.4-0.3,0.9-0.4,1.4-0.4c0.6,0,1.1,0.1,1.5,0.4c0.4,0.2,0.6,0.6,0.6,1.1v3
			c0,0.1,0,0.2,0.1,0.2c0,0.1,0.1,0.1,0.2,0.1c0,0,0.1,0,0.1,0c0,0,0.1,0,0.2,0v0.6c-0.1,0-0.2,0.1-0.3,0.1s-0.2,0-0.3,0
			c-0.3,0-0.5-0.1-0.7-0.3c-0.1-0.1-0.1-0.3-0.2-0.5c-0.2,0.2-0.4,0.4-0.8,0.6s-0.7,0.3-1.1,0.3c-0.5,0-0.9-0.1-1.2-0.4
			s-0.5-0.7-0.5-1.1c0-0.5,0.2-0.9,0.5-1.1s0.7-0.4,1.2-0.5L160.6,219.4z M158.7,221.7c0.2,0.1,0.4,0.2,0.7,0.2
			c0.3,0,0.6-0.1,0.9-0.2c0.5-0.2,0.7-0.6,0.7-1.2v-0.7c-0.1,0.1-0.2,0.1-0.4,0.2s-0.3,0.1-0.5,0.1l-0.5,0.1c-0.3,0-0.6,0.1-0.7,0.2
			c-0.3,0.2-0.4,0.4-0.4,0.7C158.5,221.4,158.6,221.6,158.7,221.7z"/>
		<path d="M163.5,215.8h0.9v1.5h0.8v0.7h-0.8v3.4c0,0.2,0.1,0.3,0.2,0.4c0.1,0,0.2,0.1,0.3,0.1c0,0,0.1,0,0.1,0s0.1,0,0.2,0v0.7
			c-0.1,0-0.2,0.1-0.3,0.1s-0.2,0-0.4,0c-0.4,0-0.7-0.1-0.8-0.3c-0.1-0.2-0.2-0.5-0.2-0.8V218h-0.7v-0.7h0.7V215.8z"/>
		<path d="M169.4,217.4c0.3,0.2,0.6,0.4,0.8,0.7c0.2,0.3,0.3,0.6,0.3,0.9c0.1,0.2,0.1,0.6,0.1,1.2h-3.8c0,0.5,0.1,1,0.4,1.3
			s0.6,0.5,1.1,0.5c0.5,0,0.8-0.2,1.1-0.5c0.2-0.2,0.3-0.4,0.3-0.6h0.9c0,0.2-0.1,0.4-0.2,0.6c-0.1,0.2-0.3,0.4-0.4,0.6
			c-0.3,0.3-0.6,0.4-1,0.5c-0.2,0.1-0.4,0.1-0.7,0.1c-0.6,0-1.2-0.2-1.6-0.7c-0.4-0.5-0.7-1.1-0.7-2c0-0.8,0.2-1.5,0.7-2
			c0.5-0.5,1-0.8,1.8-0.8C168.7,217.2,169,217.3,169.4,217.4z M169.7,219.5c0-0.4-0.1-0.7-0.2-0.9c-0.2-0.4-0.6-0.6-1.2-0.6
			c-0.4,0-0.7,0.1-1,0.4c-0.3,0.3-0.4,0.7-0.4,1.1H169.7z"/>
		<path d="M179.6,215.4v0.9h-2.4v6.3h-1v-6.3h-2.4v-0.9H179.6z"/>
		<path d="M182.1,219.4c0.2,0,0.3-0.1,0.4-0.3c0-0.1,0.1-0.2,0.1-0.3c0-0.3-0.1-0.5-0.3-0.7s-0.5-0.2-0.9-0.2c-0.5,0-0.8,0.1-1,0.4
			c-0.1,0.1-0.2,0.3-0.2,0.6h-0.8c0-0.6,0.2-1.1,0.6-1.3c0.4-0.3,0.9-0.4,1.4-0.4c0.6,0,1.1,0.1,1.5,0.4c0.4,0.2,0.6,0.6,0.6,1.1v3
			c0,0.1,0,0.2,0.1,0.2c0,0.1,0.1,0.1,0.2,0.1c0,0,0.1,0,0.1,0c0,0,0.1,0,0.2,0v0.6c-0.1,0-0.2,0.1-0.3,0.1s-0.2,0-0.3,0
			c-0.3,0-0.5-0.1-0.7-0.3c-0.1-0.1-0.1-0.3-0.2-0.5c-0.2,0.2-0.4,0.4-0.8,0.6s-0.7,0.3-1.1,0.3c-0.5,0-0.9-0.1-1.2-0.4
			s-0.5-0.7-0.5-1.1c0-0.5,0.2-0.9,0.5-1.1s0.7-0.4,1.2-0.5L182.1,219.4z M180.2,221.7c0.2,0.1,0.4,0.2,0.7,0.2
			c0.3,0,0.6-0.1,0.9-0.2c0.5-0.2,0.7-0.6,0.7-1.2v-0.7c-0.1,0.1-0.2,0.1-0.4,0.2s-0.3,0.1-0.5,0.1l-0.5,0.1c-0.3,0-0.6,0.1-0.7,0.2
			c-0.3,0.2-0.4,0.4-0.4,0.7C180,221.4,180.1,221.6,180.2,221.7z"/>
		<path d="M185.4,220.9c0,0.3,0.1,0.5,0.2,0.7c0.2,0.3,0.6,0.4,1.2,0.4c0.3,0,0.6-0.1,0.9-0.2c0.3-0.1,0.4-0.4,0.4-0.7
			c0-0.2-0.1-0.4-0.3-0.5c-0.1-0.1-0.4-0.2-0.8-0.2l-0.7-0.2c-0.5-0.1-0.8-0.2-1-0.4c-0.4-0.2-0.6-0.6-0.6-1c0-0.5,0.2-0.9,0.5-1.2
			c0.4-0.3,0.8-0.5,1.5-0.5c0.8,0,1.4,0.2,1.7,0.7c0.2,0.3,0.3,0.6,0.3,0.9h-0.8c0-0.2-0.1-0.4-0.2-0.5c-0.2-0.2-0.6-0.3-1.1-0.3
			c-0.3,0-0.6,0.1-0.8,0.2c-0.2,0.1-0.3,0.3-0.3,0.5c0,0.2,0.1,0.4,0.3,0.5c0.1,0.1,0.3,0.2,0.6,0.2l0.6,0.1
			c0.6,0.2,1.1,0.3,1.3,0.4c0.3,0.2,0.5,0.6,0.5,1.1c0,0.5-0.2,0.9-0.5,1.2c-0.4,0.3-0.9,0.5-1.6,0.5c-0.8,0-1.3-0.2-1.7-0.5
			c-0.3-0.4-0.5-0.8-0.5-1.3H185.4z"/>
		<path d="M189.8,215.4h0.8v4.2l2.3-2.2h1.1l-2,1.9l2.1,3.3H193l-1.6-2.7l-0.7,0.7v2h-0.8V215.4z"/>
		<path d="M198.2,215.4l1.4,5.8l1.6-5.8h1l1.6,5.8l1.4-5.8h1.1l-1.9,7.2h-1l-1.7-5.9l-1.7,5.9h-1l-1.9-7.2H198.2z"/>
		<path d="M207.1,215.4h0.9v1h-0.9V215.4z M207.1,217.3h0.9v5.2h-0.9V217.3z"/>
		<path d="M209.2,217.3h0.9v0.7c0.2-0.2,0.4-0.4,0.6-0.6c0.3-0.2,0.6-0.3,1-0.3c0.6,0,1.1,0.2,1.5,0.7c0.4,0.5,0.6,1.1,0.6,1.9
			c0,1.1-0.3,2-0.9,2.4c-0.4,0.3-0.8,0.5-1.3,0.5c-0.4,0-0.7-0.1-1-0.3c-0.2-0.1-0.3-0.3-0.5-0.5v2.7h-0.9V217.3z M212.5,221.4
			c0.3-0.3,0.4-0.9,0.4-1.5c0-0.4-0.1-0.8-0.2-1.1c-0.2-0.6-0.6-0.9-1.3-0.9c-0.6,0-1,0.3-1.3,0.9c-0.1,0.3-0.2,0.7-0.2,1.2
			c0,0.4,0.1,0.7,0.2,1c0.2,0.5,0.6,0.8,1.3,0.8C211.9,221.9,212.3,221.8,212.5,221.4z"/>
		<path d="M218.1,217.4c0.3,0.2,0.6,0.4,0.8,0.7c0.2,0.3,0.3,0.6,0.3,0.9c0.1,0.2,0.1,0.6,0.1,1.2h-3.8c0,0.5,0.1,1,0.4,1.3
			s0.6,0.5,1.1,0.5c0.5,0,0.8-0.2,1.1-0.5c0.2-0.2,0.3-0.4,0.3-0.6h0.9c0,0.2-0.1,0.4-0.2,0.6c-0.1,0.2-0.3,0.4-0.4,0.6
			c-0.3,0.3-0.6,0.4-1,0.5c-0.2,0.1-0.4,0.1-0.7,0.1c-0.6,0-1.2-0.2-1.6-0.7c-0.5-0.5-0.7-1.1-0.7-2c0-0.8,0.2-1.5,0.7-2
			s1-0.8,1.8-0.8C217.4,217.2,217.7,217.3,218.1,217.4z M218.4,219.5c0-0.4-0.1-0.7-0.2-0.9c-0.2-0.4-0.6-0.6-1.2-0.6
			c-0.4,0-0.7,0.1-1,0.4c-0.3,0.3-0.4,0.7-0.4,1.1H218.4z"/>
		<path d="M220.4,217.3h0.8v0.9c0.1-0.2,0.2-0.4,0.5-0.6c0.3-0.3,0.6-0.4,0.9-0.4c0,0,0,0,0.1,0s0.1,0,0.2,0v0.9c-0.1,0-0.1,0-0.1,0
			s-0.1,0-0.1,0c-0.4,0-0.8,0.1-1,0.4c-0.2,0.3-0.4,0.6-0.4,1v3h-0.9V217.3z"/>
		<path d="M224.3,220.9c0,0.3,0.1,0.5,0.2,0.7c0.2,0.3,0.6,0.4,1.2,0.4c0.3,0,0.6-0.1,0.9-0.2c0.3-0.1,0.4-0.4,0.4-0.7
			c0-0.2-0.1-0.4-0.3-0.5c-0.1-0.1-0.4-0.2-0.8-0.2l-0.7-0.2c-0.5-0.1-0.8-0.2-1-0.4c-0.4-0.2-0.6-0.6-0.6-1c0-0.5,0.2-0.9,0.5-1.2
			s0.8-0.5,1.5-0.5c0.8,0,1.4,0.2,1.7,0.7c0.2,0.3,0.3,0.6,0.3,0.9h-0.8c0-0.2-0.1-0.4-0.2-0.5c-0.2-0.2-0.6-0.3-1.1-0.3
			c-0.3,0-0.6,0.1-0.8,0.2c-0.2,0.1-0.3,0.3-0.3,0.5c0,0.2,0.1,0.4,0.3,0.5c0.1,0.1,0.3,0.2,0.6,0.2l0.6,0.1
			c0.6,0.2,1.1,0.3,1.3,0.4c0.3,0.2,0.5,0.6,0.5,1.1c0,0.5-0.2,0.9-0.5,1.2s-0.9,0.5-1.6,0.5c-0.8,0-1.3-0.2-1.7-0.5
			c-0.3-0.4-0.5-0.8-0.5-1.3H224.3z"/>
	</g>
	<g>
		<rect x="130.3" y="138.9" class="st7" width="84.6" height="19.5"/>
		<polyline class="st8" points="130.3,138.9 265.1,138.9 260.1,152.2 214.9,152.2 		"/>
	</g>
	<g class="st6">
		<path d="M134.9,149.6v0.3c0,1,0.1,1.7,0.3,2.1c0.2,0.4,0.6,0.6,1.2,0.6c0.6,0,1-0.2,1.2-0.7c0.1-0.3,0.2-0.7,0.2-1.3v-9.1h2.7v9
			c0,1.1-0.2,2-0.6,2.6c-0.6,1.1-1.8,1.6-3.4,1.6c-1.6,0-2.7-0.4-3.3-1.3c-0.6-0.9-0.8-2.1-0.8-3.6v-0.3H134.9z"/>
		<path d="M145.8,154.5h-2.7v-13h2.7V154.5z"/>
		<path d="M156.9,141.6h3.9v13h-2.5v-8.8c0-0.3,0-0.6,0-1.1c0-0.5,0-0.8,0-1l-2.5,10.9h-2.6l-2.4-10.9c0,0.2,0,0.6,0,1
			c0,0.5,0,0.8,0,1.1v8.8h-2.5v-13h3.9l2.4,10.2L156.9,141.6z"/>
		<path d="M172.7,141.6v2.3h-3.9v10.7h-2.7v-10.7h-3.9v-2.3H172.7z"/>
		<path d="M183.9,143.9H177v2.8h6.3v2.2H177v3.3h7.2v2.3h-9.8v-13h9.5V143.9z"/>
		<path d="M187.5,142.9c1-1.1,2.4-1.6,4-1.6c2.2,0,3.7,0.7,4.7,2.1c0.6,0.8,0.8,1.6,0.9,2.4h-2.7c-0.2-0.6-0.4-1.1-0.7-1.4
			c-0.5-0.6-1.2-0.8-2.1-0.8c-1,0-1.7,0.4-2.3,1.2c-0.6,0.8-0.8,1.9-0.8,3.4s0.3,2.5,0.9,3.3s1.3,1.1,2.2,1.1c0.9,0,1.6-0.3,2.1-0.9
			c0.3-0.3,0.5-0.8,0.7-1.5h2.7c-0.2,1.4-0.8,2.6-1.8,3.4s-2.2,1.3-3.7,1.3c-1.8,0-3.3-0.6-4.3-1.8c-1.1-1.2-1.6-2.8-1.6-4.9
			C185.7,145.9,186.3,144.1,187.5,142.9z"/>
		<path d="M199.3,154.5v-13h2.7v4.9h5v-4.9h2.7v13H207v-5.8h-5v5.8H199.3z"/>
	</g>
	<g class="st6">
		<path d="M217.8,147.1c-0.1,0.5,0,0.9,0.1,1.2c0.3,0.6,0.9,0.9,1.9,0.9c0.4,0,0.8-0.1,1.2-0.2c0.7-0.2,1.2-0.7,1.3-1.3
			c0.1-0.5,0-0.8-0.2-1c-0.3-0.2-0.7-0.4-1.3-0.5l-1.1-0.3c-0.7-0.2-1.2-0.4-1.5-0.6c-0.5-0.4-0.6-0.9-0.5-1.6
			c0.2-0.8,0.6-1.4,1.2-1.9s1.5-0.7,2.4-0.7c0.9,0,1.6,0.2,2.2,0.7s0.7,1.1,0.5,2.1h-1.1c0-0.5,0-0.8-0.1-1.1
			c-0.3-0.4-0.8-0.7-1.7-0.7c-0.7,0-1.2,0.1-1.6,0.4s-0.6,0.6-0.7,1c-0.1,0.4,0,0.7,0.3,0.9c0.2,0.1,0.7,0.3,1.5,0.5l1.1,0.3
			c0.6,0.1,1,0.3,1.2,0.5c0.5,0.4,0.6,1,0.5,1.8c-0.2,1-0.7,1.6-1.5,2s-1.6,0.6-2.5,0.6c-1.1,0-1.8-0.3-2.3-0.8
			c-0.5-0.5-0.6-1.3-0.4-2.2H217.8z"/>
		<path d="M230.2,145.7h-1c0-0.4-0.1-0.7-0.2-1s-0.5-0.4-1-0.4c-0.7,0-1.2,0.3-1.7,1c-0.3,0.4-0.5,1-0.6,1.6
			c-0.1,0.6-0.1,1.2,0.1,1.6s0.5,0.6,1.1,0.6c0.4,0,0.8-0.1,1.1-0.4s0.6-0.6,0.8-1.1h1c-0.3,0.8-0.7,1.4-1.3,1.8s-1.2,0.6-1.9,0.6
			c-0.8,0-1.4-0.3-1.8-0.9s-0.4-1.3-0.3-2.2c0.2-1.1,0.7-2,1.4-2.6s1.4-0.9,2.2-0.9c0.7,0,1.2,0.2,1.6,0.5S230.3,144.9,230.2,145.7z
			"/>
		<path d="M231.7,143.6h1.1l-1.3,6.2h-1.1L231.7,143.6z M232.2,141.2h1.1l-0.3,1.2h-1.1L232.2,141.2z"/>
		<path d="M239,144.6c0.1,0.3,0.2,0.7,0.2,1.1c0,0.3-0.1,0.8-0.2,1.4h-4.6c-0.1,0.6-0.1,1.1,0.1,1.5s0.6,0.6,1.2,0.6
			c0.6,0,1-0.2,1.4-0.5c0.2-0.2,0.4-0.5,0.6-0.7h1c-0.1,0.2-0.2,0.5-0.4,0.8s-0.4,0.5-0.7,0.7c-0.4,0.3-0.8,0.5-1.3,0.6
			c-0.3,0.1-0.6,0.1-0.9,0.1c-0.8,0-1.4-0.3-1.8-0.9s-0.5-1.4-0.3-2.4c0.2-1,0.7-1.8,1.3-2.5s1.5-0.9,2.3-0.9c0.4,0,0.9,0.1,1.2,0.3
			S238.8,144.2,239,144.6z M238.1,146.2c0.1-0.5,0-0.8-0.1-1.1c-0.2-0.5-0.6-0.8-1.3-0.8c-0.5,0-0.9,0.2-1.3,0.5s-0.7,0.8-0.8,1.3
			H238.1z"/>
		<path d="M241,143.6h1l-0.2,0.9c0.4-0.4,0.7-0.6,1.1-0.8s0.8-0.2,1.2-0.2c0.9,0,1.4,0.3,1.6,0.9c0.1,0.3,0.1,0.8,0,1.5l-0.9,4h-1.1
			l0.8-4c0.1-0.4,0.1-0.7,0-0.9c-0.1-0.4-0.4-0.6-0.9-0.6c-0.2,0-0.5,0-0.6,0.1c-0.3,0.1-0.6,0.3-0.9,0.5c-0.2,0.2-0.4,0.4-0.5,0.6
			s-0.2,0.5-0.3,0.9l-0.7,3.3h-1.1L241,143.6z"/>
		<path d="M252.2,145.7h-1c0-0.4-0.1-0.7-0.2-1s-0.5-0.4-1-0.4c-0.7,0-1.2,0.3-1.7,1c-0.3,0.4-0.5,1-0.6,1.6
			c-0.1,0.6-0.1,1.2,0.1,1.6s0.5,0.6,1.1,0.6c0.4,0,0.8-0.1,1.1-0.4s0.6-0.6,0.8-1.1h1c-0.3,0.8-0.7,1.4-1.3,1.8s-1.2,0.6-1.9,0.6
			c-0.8,0-1.4-0.3-1.8-0.9s-0.4-1.3-0.3-2.2c0.2-1.1,0.7-2,1.4-2.6s1.4-0.9,2.2-0.9c0.7,0,1.2,0.2,1.6,0.5S252.3,144.9,252.2,145.7z
			"/>
		<path d="M258.3,144.6c0.1,0.3,0.2,0.7,0.2,1.1c0,0.3-0.1,0.8-0.2,1.4h-4.6c-0.1,0.6-0.1,1.1,0.1,1.5s0.6,0.6,1.2,0.6
			c0.6,0,1-0.2,1.4-0.5c0.2-0.2,0.4-0.5,0.6-0.7h1c-0.1,0.2-0.2,0.5-0.4,0.8s-0.4,0.5-0.7,0.7c-0.4,0.3-0.8,0.5-1.3,0.6
			c-0.3,0.1-0.6,0.1-0.9,0.1c-0.8,0-1.4-0.3-1.8-0.9s-0.5-1.4-0.3-2.4c0.2-1,0.7-1.8,1.3-2.5s1.5-0.9,2.3-0.9c0.4,0,0.9,0.1,1.2,0.3
			S258.2,144.2,258.3,144.6z M257.4,146.2c0.1-0.5,0-0.8-0.1-1.1c-0.2-0.5-0.6-0.8-1.3-0.8c-0.5,0-0.9,0.2-1.3,0.5s-0.7,0.8-0.8,1.3
			H257.4z"/>
	</g>
</g>
<g>
	<path class="st9" d="M50,153.8c18.7,0,33.8-15.1,33.8-33.8H50V153.8z"/>
	<g>
		<g class="st6">
			<path d="M56.1,131.4v-1.6c1.5-0.1,2.6-0.4,3.2-0.7s1.1-1.2,1.3-2.5h1.7v16.7h-2.2v-11.9H56.1z"/>
		</g>
		<g class="st6">
			<path d="M64.8,128.1h0.6v0.5c0.1-0.2,0.3-0.3,0.4-0.4c0.2-0.1,0.5-0.2,0.7-0.2c0.4,0,0.8,0.2,1.1,0.5c0.3,0.3,0.4,0.8,0.4,1.4
				c0,0.8-0.2,1.4-0.6,1.7c-0.3,0.2-0.6,0.3-0.9,0.3c-0.3,0-0.5-0.1-0.7-0.2c-0.1-0.1-0.2-0.2-0.4-0.4v1.9h-0.6V128.1z M67.2,131
				c0.2-0.2,0.3-0.6,0.3-1.1c0-0.3,0-0.5-0.1-0.8c-0.2-0.4-0.5-0.6-0.9-0.6c-0.4,0-0.7,0.2-0.9,0.6c-0.1,0.2-0.1,0.5-0.1,0.9
				c0,0.3,0,0.5,0.1,0.7c0.2,0.4,0.5,0.6,0.9,0.6C66.7,131.3,67,131.2,67.2,131z"/>
			<path d="M68.8,126.7h0.6v5h-0.6V126.7z"/>
			<path d="M72.6,128.1h0.7c-0.1,0.2-0.3,0.8-0.6,1.6c-0.2,0.6-0.4,1.1-0.6,1.5c-0.4,0.9-0.6,1.5-0.8,1.7s-0.4,0.3-0.8,0.3
				c-0.1,0-0.2,0-0.2,0c0,0-0.1,0-0.2,0v-0.6c0.1,0,0.2,0,0.2,0.1c0,0,0.1,0,0.1,0c0.1,0,0.2,0,0.3-0.1c0.1,0,0.1-0.1,0.1-0.1
				c0,0,0.1-0.1,0.1-0.3c0.1-0.2,0.1-0.3,0.2-0.4l-1.4-3.8h0.7l1,3L72.6,128.1z"/>
		</g>
	</g>
</g>
<g class="st6">
	<path class="st7" d="M303.2,224.7c0.9-1,2.1-1.5,3.6-1.5c2.3,0,3.8,1,4.7,3c0.5,1.1,0.7,2.6,0.7,4.5c0,1.8-0.2,3.3-0.7,4.5
		c-0.9,2.3-2.5,3.4-4.8,3.4c-1.1,0-2.1-0.3-3-1c-0.9-0.7-1.4-1.6-1.5-2.9h2.9c0.1,0.4,0.3,0.8,0.6,1.1s0.7,0.4,1.2,0.4
		c1,0,1.6-0.5,2-1.6c0.2-0.6,0.3-1.4,0.4-2.6c-0.3,0.3-0.6,0.6-0.9,0.8c-0.5,0.3-1.2,0.5-2,0.5c-1.2,0-2.2-0.4-3.1-1.2
		c-0.9-0.8-1.4-2-1.4-3.5C301.9,227,302.3,225.7,303.2,224.7z M308.2,230.6c0.7-0.4,1-1.2,1-2.2c0-0.8-0.2-1.5-0.6-2
		c-0.4-0.5-0.9-0.7-1.6-0.7c-0.5,0-0.9,0.1-1.3,0.4c-0.6,0.4-0.8,1.2-0.8,2.2c0,0.9,0.2,1.5,0.5,2c0.4,0.4,0.9,0.7,1.7,0.7
		C307.4,231,307.8,230.9,308.2,230.6z"/>
	<path class="st7" d="M316.3,233.7c0,0.6,0.1,1.1,0.3,1.5c0.4,0.7,1,1.1,1.9,1.1c0.6,0,1.1-0.2,1.5-0.6c0.4-0.4,0.6-1,0.6-1.7
		c0-1-0.4-1.6-1.2-2c-0.5-0.2-1.2-0.3-2.1-0.3v-2.1c0.9,0,1.6-0.1,2-0.3c0.6-0.3,1-0.9,1-1.7c0-0.6-0.2-1-0.5-1.4
		c-0.3-0.4-0.8-0.5-1.4-0.5c-0.7,0-1.2,0.2-1.5,0.7c-0.3,0.4-0.5,1-0.5,1.8h-2.7c0-0.7,0.2-1.4,0.4-2.1c0.2-0.6,0.6-1.1,1.1-1.6
		c0.4-0.3,0.8-0.6,1.4-0.8s1.2-0.3,1.9-0.3c1.4,0,2.6,0.4,3.4,1.1c0.9,0.7,1.3,1.7,1.3,3c0,0.9-0.3,1.6-0.8,2.2
		c-0.3,0.4-0.7,0.6-1,0.8c0.3,0,0.6,0.2,1.1,0.7c0.7,0.7,1.1,1.6,1.1,2.8c0,1.3-0.4,2.4-1.3,3.3c-0.9,1-2.2,1.4-3.9,1.4
		c-2.1,0-3.6-0.7-4.4-2.1c-0.4-0.7-0.7-1.7-0.7-2.9H316.3z"/>
	<path class="st7" d="M334.4,225.3c0.8,1.3,1.1,3.2,1.1,5.7c0,2.5-0.4,4.3-1.1,5.7c-0.8,1.3-2.1,2-4,2s-3.2-0.7-4-2
		c-0.8-1.3-1.1-3.2-1.1-5.7c0-2.5,0.4-4.3,1.1-5.7c0.8-1.3,2.1-2,4-2S333.6,223.9,334.4,225.3z M328.7,234.9
		c0.3,0.9,0.9,1.4,1.7,1.4s1.4-0.5,1.7-1.4c0.3-0.9,0.4-2.2,0.4-3.9c0-1.8-0.1-3.1-0.4-4c-0.3-0.9-0.8-1.3-1.7-1.3s-1.4,0.4-1.7,1.3
		s-0.4,2.2-0.4,4C328.2,232.7,328.4,234,328.7,234.9z"/>
</g>
<g class="st6">
	<path class="st4" d="M303.2,224.7c0.9-1,2.1-1.5,3.6-1.5c2.3,0,3.8,1,4.7,3c0.5,1.1,0.7,2.6,0.7,4.5c0,1.8-0.2,3.3-0.7,4.5
		c-0.9,2.3-2.5,3.4-4.8,3.4c-1.1,0-2.1-0.3-3-1c-0.9-0.7-1.4-1.6-1.5-2.9h2.9c0.1,0.4,0.3,0.8,0.6,1.1s0.7,0.4,1.2,0.4
		c1,0,1.6-0.5,2-1.6c0.2-0.6,0.3-1.4,0.4-2.6c-0.3,0.3-0.6,0.6-0.9,0.8c-0.5,0.3-1.2,0.5-2,0.5c-1.2,0-2.2-0.4-3.1-1.2
		c-0.9-0.8-1.4-2-1.4-3.5C301.9,227,302.3,225.7,303.2,224.7z M308.2,230.6c0.7-0.4,1-1.2,1-2.2c0-0.8-0.2-1.5-0.6-2
		c-0.4-0.5-0.9-0.7-1.6-0.7c-0.5,0-0.9,0.1-1.3,0.4c-0.6,0.4-0.8,1.2-0.8,2.2c0,0.9,0.2,1.5,0.5,2c0.4,0.4,0.9,0.7,1.7,0.7
		C307.4,231,307.8,230.9,308.2,230.6z"/>
	<path class="st4" d="M316.3,233.7c0,0.6,0.1,1.1,0.3,1.5c0.4,0.7,1,1.1,1.9,1.1c0.6,0,1.1-0.2,1.5-0.6c0.4-0.4,0.6-1,0.6-1.7
		c0-1-0.4-1.6-1.2-2c-0.5-0.2-1.2-0.3-2.1-0.3v-2.1c0.9,0,1.6-0.1,2-0.3c0.6-0.3,1-0.9,1-1.7c0-0.6-0.2-1-0.5-1.4
		c-0.3-0.4-0.8-0.5-1.4-0.5c-0.7,0-1.2,0.2-1.5,0.7c-0.3,0.4-0.5,1-0.5,1.8h-2.7c0-0.7,0.2-1.4,0.4-2.1c0.2-0.6,0.6-1.1,1.1-1.6
		c0.4-0.3,0.8-0.6,1.4-0.8s1.2-0.3,1.9-0.3c1.4,0,2.6,0.4,3.4,1.1c0.9,0.7,1.3,1.7,1.3,3c0,0.9-0.3,1.6-0.8,2.2
		c-0.3,0.4-0.7,0.6-1,0.8c0.3,0,0.6,0.2,1.1,0.7c0.7,0.7,1.1,1.6,1.1,2.8c0,1.3-0.4,2.4-1.3,3.3c-0.9,1-2.2,1.4-3.9,1.4
		c-2.1,0-3.6-0.7-4.4-2.1c-0.4-0.7-0.7-1.7-0.7-2.9H316.3z"/>
	<path class="st4" d="M334.4,225.3c0.8,1.3,1.1,3.2,1.1,5.7c0,2.5-0.4,4.3-1.1,5.7c-0.8,1.3-2.1,2-4,2s-3.2-0.7-4-2
		c-0.8-1.3-1.1-3.2-1.1-5.7c0-2.5,0.4-4.3,1.1-5.7c0.8-1.3,2.1-2,4-2S333.6,223.9,334.4,225.3z M328.7,234.9
		c0.3,0.9,0.9,1.4,1.7,1.4s1.4-0.5,1.7-1.4c0.3-0.9,0.4-2.2,0.4-3.9c0-1.8-0.1-3.1-0.4-4c-0.3-0.9-0.8-1.3-1.7-1.3s-1.4,0.4-1.7,1.3
		s-0.4,2.2-0.4,4C328.2,232.7,328.4,234,328.7,234.9z"/>
</g>
<g class="st6">
	<path class="st10" d="M297.1,241.4h0.5v0.6h-0.5V241.4z M297.1,242.6h0.5v3.1h-0.5V242.6z"/>
	<path class="st10" d="M298.8,244.8c0,0.2,0.1,0.3,0.1,0.4c0.1,0.2,0.4,0.3,0.7,0.3c0.2,0,0.4,0,0.5-0.1c0.2-0.1,0.2-0.2,0.2-0.4
		c0-0.1-0.1-0.2-0.2-0.3c-0.1,0-0.2-0.1-0.5-0.1l-0.4-0.1c-0.3-0.1-0.5-0.1-0.6-0.2c-0.2-0.1-0.3-0.3-0.3-0.6c0-0.3,0.1-0.5,0.3-0.7
		s0.5-0.3,0.9-0.3c0.5,0,0.8,0.1,1,0.4c0.1,0.2,0.2,0.4,0.2,0.6h-0.5c0-0.1-0.1-0.2-0.1-0.3c-0.1-0.1-0.3-0.2-0.6-0.2
		c-0.2,0-0.4,0-0.5,0.1c-0.1,0.1-0.2,0.2-0.2,0.3c0,0.1,0.1,0.2,0.2,0.3c0.1,0,0.2,0.1,0.4,0.1l0.4,0.1c0.4,0.1,0.6,0.2,0.8,0.3
		c0.2,0.1,0.3,0.3,0.3,0.6c0,0.3-0.1,0.5-0.3,0.7c-0.2,0.2-0.5,0.3-1,0.3c-0.5,0-0.8-0.1-1-0.3c-0.2-0.2-0.3-0.5-0.3-0.8H298.8z"/>
	<path class="st10" d="M304.8,243.9c0.1,0,0.2-0.1,0.2-0.2c0,0,0-0.1,0-0.2c0-0.2-0.1-0.3-0.2-0.4s-0.3-0.1-0.5-0.1
		c-0.3,0-0.5,0.1-0.6,0.2c-0.1,0.1-0.1,0.2-0.1,0.4h-0.5c0-0.4,0.1-0.7,0.4-0.8c0.2-0.2,0.5-0.2,0.8-0.2c0.4,0,0.7,0.1,0.9,0.2
		c0.2,0.1,0.3,0.4,0.3,0.7v1.8c0,0.1,0,0.1,0,0.1s0.1,0,0.1,0c0,0,0,0,0.1,0c0,0,0.1,0,0.1,0v0.4c-0.1,0-0.1,0-0.2,0s-0.1,0-0.2,0
		c-0.2,0-0.3-0.1-0.4-0.2c0-0.1-0.1-0.2-0.1-0.3c-0.1,0.1-0.3,0.3-0.5,0.4s-0.4,0.2-0.7,0.2c-0.3,0-0.5-0.1-0.7-0.3
		s-0.3-0.4-0.3-0.7c0-0.3,0.1-0.5,0.3-0.7s0.4-0.3,0.7-0.3L304.8,243.9z M303.7,245.3c0.1,0.1,0.2,0.1,0.4,0.1c0.2,0,0.4,0,0.5-0.1
		c0.3-0.1,0.4-0.4,0.4-0.7v-0.4c-0.1,0-0.1,0.1-0.2,0.1c-0.1,0-0.2,0-0.3,0.1l-0.3,0c-0.2,0-0.3,0.1-0.4,0.1
		c-0.2,0.1-0.2,0.2-0.2,0.4C303.5,245.1,303.6,245.2,303.7,245.3z"/>
	<path class="st10" d="M308.1,242.6h0.5v0.4c0.1-0.2,0.3-0.3,0.5-0.4s0.4-0.1,0.6-0.1c0.4,0,0.7,0.2,0.9,0.5
		c0.1,0.2,0.1,0.4,0.1,0.7v2h-0.5v-2c0-0.2,0-0.3-0.1-0.5c-0.1-0.2-0.3-0.3-0.5-0.3c-0.1,0-0.2,0-0.3,0c-0.1,0-0.3,0.1-0.4,0.3
		c-0.1,0.1-0.1,0.2-0.2,0.3c0,0.1,0,0.3,0,0.5v1.6h-0.5V242.6z"/>
	<path class="st10" d="M311.5,241.4h0.5v0.6h-0.5V241.4z M311.5,242.6h0.5v3.1h-0.5V242.6z"/>
	<path class="st10" d="M314.9,242.8c0.2,0.2,0.4,0.5,0.4,0.9h-0.5c0-0.2-0.1-0.4-0.2-0.5s-0.3-0.2-0.5-0.2c-0.3,0-0.6,0.2-0.7,0.5
		c-0.1,0.2-0.1,0.5-0.1,0.8c0,0.3,0.1,0.6,0.2,0.8c0.1,0.2,0.3,0.3,0.6,0.3c0.2,0,0.4-0.1,0.5-0.2c0.1-0.1,0.2-0.3,0.3-0.5h0.5
		c-0.1,0.4-0.2,0.7-0.4,0.9s-0.5,0.3-0.9,0.3c-0.4,0-0.7-0.1-1-0.5c-0.2-0.3-0.4-0.7-0.4-1.1c0-0.6,0.1-1,0.4-1.3s0.6-0.5,1-0.5
		C314.4,242.5,314.7,242.6,314.9,242.8z"/>
	<path class="st10" d="M317.7,242.7c0.2,0.1,0.4,0.2,0.5,0.4c0.1,0.2,0.2,0.3,0.2,0.6c0,0.1,0,0.4,0,0.7h-2.3c0,0.3,0.1,0.6,0.2,0.8
		c0.1,0.2,0.4,0.3,0.6,0.3c0.3,0,0.5-0.1,0.7-0.3c0.1-0.1,0.2-0.2,0.2-0.4h0.5c0,0.1-0.1,0.2-0.1,0.4c-0.1,0.1-0.2,0.3-0.3,0.3
		c-0.2,0.2-0.4,0.3-0.6,0.3c-0.1,0-0.3,0-0.4,0c-0.4,0-0.7-0.1-1-0.4c-0.3-0.3-0.4-0.7-0.4-1.2c0-0.5,0.1-0.9,0.4-1.2
		c0.3-0.3,0.6-0.5,1.1-0.5C317.3,242.5,317.5,242.6,317.7,242.7z M317.9,243.9c0-0.2-0.1-0.4-0.1-0.5c-0.1-0.3-0.4-0.4-0.7-0.4
		c-0.2,0-0.4,0.1-0.6,0.3c-0.2,0.2-0.2,0.4-0.3,0.7H317.9z"/>
	<path class="st10" d="M320.8,242.6h0.5v0.4c0.1-0.2,0.3-0.3,0.5-0.4s0.4-0.1,0.6-0.1c0.4,0,0.7,0.2,0.9,0.5
		c0.1,0.2,0.1,0.4,0.1,0.7v2h-0.5v-2c0-0.2,0-0.3-0.1-0.5c-0.1-0.2-0.3-0.3-0.5-0.3c-0.1,0-0.2,0-0.3,0c-0.1,0-0.3,0.1-0.4,0.3
		c-0.1,0.1-0.1,0.2-0.2,0.3c0,0.1,0,0.3,0,0.5v1.6h-0.5V242.6z"/>
	<path class="st10" d="M324.7,242.6v2.1c0,0.2,0,0.3,0.1,0.4c0.1,0.2,0.3,0.3,0.5,0.3c0.4,0,0.6-0.2,0.7-0.5
		c0.1-0.2,0.1-0.4,0.1-0.7v-1.5h0.5v3.1h-0.5l0-0.5c-0.1,0.1-0.2,0.2-0.2,0.3c-0.2,0.2-0.4,0.2-0.7,0.2c-0.4,0-0.7-0.1-0.9-0.4
		c-0.1-0.2-0.1-0.4-0.1-0.6v-2.1H324.7z"/>
	<path class="st10" d="M327.5,242.6h0.5v0.4c0.1-0.2,0.2-0.3,0.3-0.3c0.2-0.1,0.4-0.2,0.6-0.2c0.2,0,0.5,0.1,0.6,0.2
		c0.1,0.1,0.2,0.2,0.2,0.3c0.1-0.2,0.3-0.3,0.4-0.4s0.3-0.1,0.5-0.1c0.4,0,0.7,0.2,0.9,0.5c0.1,0.2,0.1,0.4,0.1,0.7v2.1h-0.5v-2.2
		c0-0.2-0.1-0.4-0.2-0.4s-0.2-0.1-0.4-0.1c-0.2,0-0.4,0.1-0.5,0.2s-0.2,0.4-0.2,0.7v1.8h-0.5v-2c0-0.2,0-0.4-0.1-0.5
		c-0.1-0.1-0.2-0.2-0.4-0.2c-0.2,0-0.4,0.1-0.5,0.2s-0.2,0.4-0.2,0.8v1.7h-0.5V242.6z"/>
	<path class="st10" d="M332.4,241.4h0.5v1.6c0.1-0.2,0.3-0.3,0.4-0.3c0.2-0.1,0.3-0.1,0.5-0.1c0.4,0,0.7,0.1,1,0.4s0.4,0.7,0.4,1.2
		c0,0.5-0.1,0.9-0.4,1.2s-0.6,0.5-1,0.5c-0.2,0-0.4-0.1-0.6-0.2c-0.1-0.1-0.2-0.2-0.3-0.3v0.4h-0.5V241.4z M334.4,245
		c0.1-0.2,0.2-0.5,0.2-0.9c0-0.3-0.1-0.6-0.2-0.8c-0.1-0.2-0.4-0.3-0.6-0.3c-0.2,0-0.5,0.1-0.6,0.3c-0.2,0.2-0.3,0.5-0.3,0.9
		c0,0.3,0,0.5,0.1,0.7c0.1,0.3,0.4,0.5,0.8,0.5C334.1,245.4,334.3,245.3,334.4,245z"/>
	<path class="st10" d="M337.8,242.7c0.2,0.1,0.4,0.2,0.5,0.4c0.1,0.2,0.2,0.3,0.2,0.6c0,0.1,0,0.4,0,0.7h-2.3c0,0.3,0.1,0.6,0.2,0.8
		c0.1,0.2,0.4,0.3,0.6,0.3c0.3,0,0.5-0.1,0.7-0.3c0.1-0.1,0.2-0.2,0.2-0.4h0.5c0,0.1-0.1,0.2-0.1,0.4c-0.1,0.1-0.2,0.3-0.3,0.3
		c-0.2,0.2-0.4,0.3-0.6,0.3c-0.1,0-0.3,0-0.4,0c-0.4,0-0.7-0.1-1-0.4c-0.3-0.3-0.4-0.7-0.4-1.2c0-0.5,0.1-0.9,0.4-1.2
		c0.3-0.3,0.6-0.5,1.1-0.5C337.3,242.5,337.5,242.6,337.8,242.7z M337.9,243.9c0-0.2-0.1-0.4-0.1-0.5c-0.1-0.3-0.4-0.4-0.7-0.4
		c-0.2,0-0.4,0.1-0.6,0.3c-0.2,0.2-0.2,0.4-0.3,0.7H337.9z"/>
	<path class="st10" d="M339.2,242.6h0.5v0.5c0-0.1,0.1-0.2,0.3-0.4s0.3-0.2,0.6-0.2c0,0,0,0,0,0s0.1,0,0.1,0v0.6c0,0-0.1,0-0.1,0
		s-0.1,0-0.1,0c-0.3,0-0.5,0.1-0.6,0.3s-0.2,0.4-0.2,0.6v1.8h-0.5V242.6z"/>
</g>
<polygon class="st11" points="50,216.5 49.5,250 129.2,250 "/>
<polygon class="st11" points="349.5,153.7 350,120.1 270.3,120.1 "/>
<g>
	<path class="st12" d="M200,115.4c-50.5,0-91.5-6.9-91.5-15.4V63h183v37C291.5,108.5,250.5,115.4,200,115.4z"/>
	<path class="st12" d="M108.5,40.2V100c0-8.5,41-15.4,91.5-15.4s91.5,6.9,91.5,15.4V40.2l-42.8,3.5L200,40.2L149.7,44L108.5,40.2z"
		/>
</g>
<g class="st6">
	<path class="st7" d="M57.1,241.4v0.5h-1.5v3.8H55V242h-1.5v-0.5H57.1z"/>
	<path class="st7" d="M57.6,241.4h0.6v3.8h2.2v0.5h-2.7V241.4z"/>
	<path class="st7" d="M60.9,241.4h0.6v3.8h2.2v0.5h-2.7V241.4z"/>
	<path class="st7" d="M65.8,241.4h1.9c0.4,0,0.7,0.1,0.9,0.3c0.2,0.2,0.4,0.5,0.4,0.9c0,0.3-0.1,0.6-0.3,0.9c-0.2,0.2-0.5,0.4-1,0.4
		h-1.3v1.8h-0.6V241.4z M68,242c-0.1-0.1-0.3-0.1-0.5-0.1h-1.2v1.5h1.2c0.3,0,0.5-0.1,0.6-0.2c0.2-0.1,0.2-0.3,0.2-0.6
		C68.4,242.4,68.3,242.2,68,242z"/>
	<path class="st7" d="M69.7,242.6h0.5v0.5c0-0.1,0.1-0.2,0.3-0.4s0.3-0.2,0.6-0.2c0,0,0,0,0,0s0.1,0,0.1,0v0.6c0,0-0.1,0-0.1,0
		s-0.1,0-0.1,0c-0.3,0-0.5,0.1-0.6,0.3s-0.2,0.4-0.2,0.6v1.8h-0.5V242.6z"/>
	<path class="st7" d="M73.9,242.9c0.3,0.3,0.4,0.7,0.4,1.2c0,0.5-0.1,0.9-0.4,1.3c-0.2,0.3-0.6,0.5-1.1,0.5c-0.4,0-0.8-0.1-1-0.4
		c-0.3-0.3-0.4-0.7-0.4-1.2c0-0.5,0.1-0.9,0.4-1.3c0.3-0.3,0.6-0.5,1.1-0.5C73.3,242.5,73.7,242.7,73.9,242.9z M73.6,245
		c0.1-0.3,0.2-0.6,0.2-0.9c0-0.3,0-0.5-0.1-0.7c-0.1-0.3-0.4-0.4-0.8-0.4c-0.3,0-0.6,0.1-0.7,0.4c-0.1,0.2-0.2,0.5-0.2,0.9
		c0,0.3,0.1,0.6,0.2,0.8c0.1,0.2,0.4,0.3,0.7,0.3C73.2,245.4,73.5,245.3,73.6,245z"/>
	<path class="st7" d="M75.2,241.7c0.1-0.2,0.4-0.3,0.7-0.3c0,0,0.1,0,0.1,0s0.1,0,0.1,0v0.5c-0.1,0-0.1,0-0.1,0c0,0,0,0-0.1,0
		c-0.2,0-0.3,0-0.3,0.1c0,0.1,0,0.3,0,0.6h0.5v0.4h-0.5v2.7h-0.5V243h-0.4v-0.4h0.4v-0.5C75.1,241.9,75.2,241.8,75.2,241.7z"/>
	<path class="st7" d="M78.6,242.7c0.2,0.1,0.4,0.2,0.5,0.4c0.1,0.2,0.2,0.3,0.2,0.6c0,0.1,0,0.4,0,0.7h-2.3c0,0.3,0.1,0.6,0.2,0.8
		c0.1,0.2,0.4,0.3,0.6,0.3c0.3,0,0.5-0.1,0.7-0.3c0.1-0.1,0.2-0.2,0.2-0.4h0.5c0,0.1-0.1,0.2-0.1,0.4c-0.1,0.1-0.2,0.3-0.3,0.3
		c-0.2,0.2-0.4,0.3-0.6,0.3c-0.1,0-0.3,0-0.4,0c-0.4,0-0.7-0.1-1-0.4c-0.3-0.3-0.4-0.7-0.4-1.2c0-0.5,0.1-0.9,0.4-1.2
		c0.3-0.3,0.6-0.5,1.1-0.5C78.2,242.5,78.4,242.6,78.6,242.7z M78.8,243.9c0-0.2-0.1-0.4-0.1-0.5c-0.1-0.3-0.4-0.4-0.7-0.4
		c-0.2,0-0.4,0.1-0.6,0.3c-0.2,0.2-0.2,0.4-0.3,0.7H78.8z"/>
	<path class="st7" d="M80.3,244.8c0,0.2,0.1,0.3,0.1,0.4c0.1,0.2,0.4,0.3,0.7,0.3c0.2,0,0.4,0,0.5-0.1c0.2-0.1,0.2-0.2,0.2-0.4
		c0-0.1-0.1-0.2-0.2-0.3c-0.1,0-0.2-0.1-0.5-0.1l-0.4-0.1c-0.3-0.1-0.5-0.1-0.6-0.2c-0.2-0.1-0.3-0.3-0.3-0.6c0-0.3,0.1-0.5,0.3-0.7
		s0.5-0.3,0.9-0.3c0.5,0,0.8,0.1,1,0.4c0.1,0.2,0.2,0.4,0.2,0.6h-0.5c0-0.1-0.1-0.2-0.1-0.3c-0.1-0.1-0.3-0.2-0.6-0.2
		c-0.2,0-0.4,0-0.5,0.1c-0.1,0.1-0.2,0.2-0.2,0.3c0,0.1,0.1,0.2,0.2,0.3c0.1,0,0.2,0.1,0.4,0.1l0.4,0.1c0.4,0.1,0.6,0.2,0.8,0.3
		c0.2,0.1,0.3,0.3,0.3,0.6c0,0.3-0.1,0.5-0.3,0.7c-0.2,0.2-0.5,0.3-1,0.3c-0.5,0-0.8-0.1-1-0.3c-0.2-0.2-0.3-0.5-0.3-0.8H80.3z"/>
	<path class="st7" d="M83.3,244.8c0,0.2,0.1,0.3,0.1,0.4c0.1,0.2,0.4,0.3,0.7,0.3c0.2,0,0.4,0,0.5-0.1c0.2-0.1,0.2-0.2,0.2-0.4
		c0-0.1-0.1-0.2-0.2-0.3c-0.1,0-0.2-0.1-0.5-0.1l-0.4-0.1c-0.3-0.1-0.5-0.1-0.6-0.2c-0.2-0.1-0.3-0.3-0.3-0.6c0-0.3,0.1-0.5,0.3-0.7
		s0.5-0.3,0.9-0.3c0.5,0,0.8,0.1,1,0.4c0.1,0.2,0.2,0.4,0.2,0.6h-0.5c0-0.1-0.1-0.2-0.1-0.3c-0.1-0.1-0.3-0.2-0.6-0.2
		c-0.2,0-0.4,0-0.5,0.1c-0.1,0.1-0.2,0.2-0.2,0.3c0,0.1,0.1,0.2,0.2,0.3c0.1,0,0.2,0.1,0.4,0.1l0.4,0.1c0.4,0.1,0.6,0.2,0.8,0.3
		c0.2,0.1,0.3,0.3,0.3,0.6c0,0.3-0.1,0.5-0.3,0.7c-0.2,0.2-0.5,0.3-1,0.3c-0.5,0-0.8-0.1-1-0.3c-0.2-0.2-0.3-0.5-0.3-0.8H83.3z"/>
	<path class="st7" d="M86,241.4h0.5v0.6H86V241.4z M86,242.6h0.5v3.1H86V242.6z"/>
	<path class="st7" d="M89.6,242.9c0.3,0.3,0.4,0.7,0.4,1.2c0,0.5-0.1,0.9-0.4,1.3c-0.2,0.3-0.6,0.5-1.1,0.5c-0.4,0-0.8-0.1-1-0.4
		c-0.3-0.3-0.4-0.7-0.4-1.2c0-0.5,0.1-0.9,0.4-1.3c0.3-0.3,0.6-0.5,1.1-0.5C89,242.5,89.3,242.7,89.6,242.9z M89.3,245
		c0.1-0.3,0.2-0.6,0.2-0.9c0-0.3,0-0.5-0.1-0.7c-0.1-0.3-0.4-0.4-0.8-0.4c-0.3,0-0.6,0.1-0.7,0.4c-0.1,0.2-0.2,0.5-0.2,0.9
		c0,0.3,0.1,0.6,0.2,0.8c0.1,0.2,0.4,0.3,0.7,0.3C88.9,245.4,89.2,245.3,89.3,245z"/>
	<path class="st7" d="M90.7,242.6h0.5v0.4c0.1-0.2,0.3-0.3,0.5-0.4s0.4-0.1,0.6-0.1c0.4,0,0.7,0.2,0.9,0.5c0.1,0.2,0.1,0.4,0.1,0.7
		v2h-0.5v-2c0-0.2,0-0.3-0.1-0.5c-0.1-0.2-0.3-0.3-0.5-0.3c-0.1,0-0.2,0-0.3,0c-0.1,0-0.3,0.1-0.4,0.3c-0.1,0.1-0.1,0.2-0.2,0.3
		c0,0.1,0,0.3,0,0.5v1.6h-0.5V242.6z"/>
	<path class="st7" d="M95.7,243.9c0.1,0,0.2-0.1,0.2-0.2c0,0,0-0.1,0-0.2c0-0.2-0.1-0.3-0.2-0.4c-0.1-0.1-0.3-0.1-0.5-0.1
		c-0.3,0-0.5,0.1-0.6,0.2c-0.1,0.1-0.1,0.2-0.1,0.4H94c0-0.4,0.1-0.7,0.4-0.8c0.2-0.2,0.5-0.2,0.8-0.2c0.4,0,0.7,0.1,0.9,0.2
		c0.2,0.1,0.3,0.4,0.3,0.7v1.8c0,0.1,0,0.1,0,0.1s0.1,0,0.1,0c0,0,0,0,0.1,0c0,0,0.1,0,0.1,0v0.4c-0.1,0-0.1,0-0.2,0s-0.1,0-0.2,0
		c-0.2,0-0.3-0.1-0.4-0.2c0-0.1-0.1-0.2-0.1-0.3c-0.1,0.1-0.3,0.3-0.5,0.4s-0.4,0.2-0.7,0.2c-0.3,0-0.5-0.1-0.7-0.3
		s-0.3-0.4-0.3-0.7c0-0.3,0.1-0.5,0.3-0.7s0.4-0.3,0.7-0.3L95.7,243.9z M94.6,245.3c0.1,0.1,0.2,0.1,0.4,0.1c0.2,0,0.4,0,0.5-0.1
		c0.3-0.1,0.4-0.4,0.4-0.7v-0.4c-0.1,0-0.1,0.1-0.2,0.1c-0.1,0-0.2,0-0.3,0.1l-0.3,0c-0.2,0-0.3,0.1-0.4,0.1
		c-0.2,0.1-0.2,0.2-0.2,0.4C94.4,245.1,94.5,245.2,94.6,245.3z"/>
	<path class="st7" d="M97.4,241.4h0.5v4.3h-0.5V241.4z"/>
</g>
<path class="st4" d="M291.5,100c0,8.5-41,15.4-91.5,15.4s-91.5-6.9-91.5-15.4"/>
</svg>
