<?xml version="1.0" encoding="utf-8"?>
<!-- Generator: Adobe Illustrator 19.1.0, SVG Export Plug-In . SVG Version: 6.00 Build 0)  -->
<svg version="1.1" xmlns="http://www.w3.org/2000/svg" xmlns:xlink="http://www.w3.org/1999/xlink" x="0px" y="0px"
	 viewBox="0 0 500 200" style="enable-background:new 0 0 500 200;" xml:space="preserve">
<style type="text/css">
	.st0{display:none;}
	.st1{display:inline;}
	.st2{fill:none;stroke:#010101;stroke-width:0.625;}
	.st3{fill:#010101;}
	.st4{font-family:'Helvetica';}
	.st5{font-size:9.4034px;}
	.st6{fill:none;stroke:#010101;stroke-width:0.25;}
	.st7{fill:#757576;}
	.st8{fill:none;stroke:#000000;stroke-miterlimit:10;}
	.st9{display:inline;fill:#2DB34A;}
	.st10{display:inline;fill:none;stroke:#000000;stroke-miterlimit:10;}
	.st11{display:inline;fill:#3364AF;stroke:#000000;stroke-miterlimit:10;}
	.st12{font-size:13.1102px;}
	.st13{font-size:13.1103px;}
</style>
<g id="Layer_1" class="st0">
</g>
<g id="Layer_2" class="st0">
	<g class="st1">
		<line class="st2" x1="115.2" y1="117.3" x2="108.5" y2="110.6"/>
		<text transform="matrix(0.7071 -0.7071 0.7071 0.7071 103.3435 109.1388)" class="st3 st4 st5">0</text>
		<line class="st6" x1="117.3" y1="115.2" x2="114" y2="111.8"/>
		<line class="st6" x1="119.4" y1="113.2" x2="116.2" y2="109.7"/>
		<line class="st6" x1="121.6" y1="111.1" x2="118.4" y2="107.7"/>
		<line class="st6" x1="123.8" y1="109.2" x2="120.7" y2="105.6"/>
		<line class="st6" x1="126" y1="107.2" x2="119.9" y2="100.1"/>
		<line class="st6" x1="128.3" y1="105.3" x2="125.3" y2="101.7"/>
		<line class="st6" x1="130.6" y1="103.5" x2="127.6" y2="99.8"/>
		<line class="st6" x1="132.9" y1="101.6" x2="130" y2="97.9"/>
		<line class="st6" x1="135.2" y1="99.9" x2="132.4" y2="96.1"/>
		<line class="st2" x1="137.6" y1="98.1" x2="132.1" y2="90.5"/>
		<text transform="matrix(0.809 -0.5878 0.5878 0.809 125.086 89.7595)" class="st3 st4 st5">10</text>
		<line class="st6" x1="140" y1="96.4" x2="137.3" y2="92.5"/>
		<line class="st6" x1="142.4" y1="94.7" x2="139.8" y2="90.8"/>
		<line class="st6" x1="144.9" y1="93.1" x2="142.3" y2="89.1"/>
		<line class="st6" x1="147.4" y1="91.5" x2="144.9" y2="87.5"/>
		<line class="st6" x1="149.9" y1="89.9" x2="145" y2="81.9"/>
		<line class="st6" x1="152.4" y1="88.4" x2="150" y2="84.3"/>
		<line class="st6" x1="155" y1="86.9" x2="152.6" y2="82.8"/>
		<line class="st6" x1="157.5" y1="85.4" x2="155.3" y2="81.3"/>
		<line class="st6" x1="160.1" y1="84" x2="157.9" y2="79.9"/>
		<line class="st2" x1="162.8" y1="82.7" x2="158.5" y2="74.3"/>
		<text transform="matrix(0.891 -0.454 0.454 0.891 151.7079 72.4845)" class="st3 st4 st5">20</text>
		<line class="st6" x1="165.4" y1="81.4" x2="163.3" y2="77.1"/>
		<line class="st6" x1="168.1" y1="80.1" x2="166.1" y2="75.8"/>
		<line class="st6" x1="170.8" y1="78.8" x2="168.8" y2="74.6"/>
		<line class="st6" x1="173.5" y1="77.6" x2="171.6" y2="73.3"/>
		<line class="st6" x1="176.2" y1="76.5" x2="172.6" y2="67.8"/>
		<line class="st6" x1="178.9" y1="75.4" x2="177.2" y2="71"/>
		<line class="st6" x1="181.7" y1="74.3" x2="180" y2="69.9"/>
		<line class="st6" x1="184.4" y1="73.3" x2="182.9" y2="68.9"/>
		<line class="st6" x1="187.2" y1="72.3" x2="185.7" y2="67.9"/>
		<line class="st2" x1="190" y1="71.4" x2="187.1" y2="62.4"/>
		<text transform="matrix(0.9511 -0.309 0.309 0.9511 180.7025 59.5852)" class="st3 st4 st5">30</text>
		<line class="st6" x1="192.9" y1="70.5" x2="191.5" y2="66"/>
		<line class="st6" x1="195.7" y1="69.6" x2="194.4" y2="65.1"/>
		<line class="st6" x1="198.5" y1="68.8" x2="197.3" y2="64.3"/>
		<line class="st6" x1="201.4" y1="68.1" x2="200.2" y2="63.5"/>
		<line class="st6" x1="204.2" y1="67.4" x2="202.1" y2="58.2"/>
		<line class="st6" x1="207.1" y1="66.7" x2="206.1" y2="62.1"/>
		<line class="st6" x1="210" y1="66.1" x2="209.1" y2="61.5"/>
		<line class="st6" x1="212.9" y1="65.5" x2="212" y2="60.9"/>
		<line class="st6" x1="215.8" y1="65" x2="215" y2="60.3"/>
		<line class="st2" x1="218.7" y1="64.5" x2="217.3" y2="55.2"/>
		<text transform="matrix(0.9877 -0.1564 0.1564 0.9877 211.3593 51.3812)" class="st3 st4 st5">40</text>
		<line class="st6" x1="221.7" y1="64.1" x2="221" y2="59.4"/>
		<line class="st6" x1="224.6" y1="63.7" x2="224" y2="59"/>
		<line class="st6" x1="227.5" y1="63.3" x2="227" y2="58.6"/>
		<line class="st6" x1="230.5" y1="63" x2="230" y2="58.3"/>
		<line class="st6" x1="233.4" y1="62.8" x2="232.7" y2="53.4"/>
		<line class="st6" x1="236.3" y1="62.5" x2="236" y2="57.9"/>
		<line class="st6" x1="239.3" y1="62.4" x2="239.1" y2="57.7"/>
		<line class="st6" x1="242.2" y1="62.3" x2="242.1" y2="57.6"/>
		<line class="st6" x1="245.2" y1="62.2" x2="245.1" y2="57.5"/>
		<line class="st2" x1="248.2" y1="62.2" x2="248.2" y2="52.8"/>
		<text transform="matrix(1 0 0 1 242.9219 48.0735)" class="st3 st4 st5">50</text>
		<line class="st6" x1="251.1" y1="62.2" x2="251.2" y2="57.5"/>
		<line class="st6" x1="254.1" y1="62.3" x2="254.2" y2="57.6"/>
		<line class="st6" x1="257" y1="62.4" x2="257.2" y2="57.7"/>
		<line class="st6" x1="260" y1="62.5" x2="260.3" y2="57.9"/>
		<line class="st6" x1="262.9" y1="62.8" x2="263.6" y2="53.4"/>
		<line class="st6" x1="265.9" y1="63" x2="266.3" y2="58.3"/>
		<line class="st6" x1="268.8" y1="63.3" x2="269.3" y2="58.6"/>
		<line class="st6" x1="271.7" y1="63.7" x2="272.3" y2="59"/>
		<line class="st6" x1="274.7" y1="64.1" x2="275.3" y2="59.4"/>
		<line class="st2" x1="277.6" y1="64.5" x2="279" y2="55.2"/>
		<text transform="matrix(0.9877 0.1564 -0.1564 0.9877 274.6131 49.7444)" class="st3 st4 st5">60</text>
		<line class="st6" x1="280.5" y1="65" x2="281.3" y2="60.3"/>
		<line class="st6" x1="283.4" y1="65.5" x2="284.3" y2="60.9"/>
		<line class="st6" x1="286.3" y1="66.1" x2="287.2" y2="61.5"/>
		<line class="st6" x1="289.2" y1="66.7" x2="290.2" y2="62.1"/>
		<line class="st6" x1="292.1" y1="67.4" x2="294.3" y2="58.2"/>
		<line class="st6" x1="294.9" y1="68.1" x2="296.1" y2="63.5"/>
		<line class="st6" x1="297.8" y1="68.8" x2="299" y2="64.3"/>
		<line class="st6" x1="300.6" y1="69.6" x2="301.9" y2="65.1"/>
		<line class="st6" x1="303.5" y1="70.5" x2="304.8" y2="66"/>
		<line class="st2" x1="306.3" y1="71.4" x2="309.2" y2="62.4"/>
		<text transform="matrix(0.9511 0.309 -0.309 0.9511 305.6533 56.3519)" class="st3 st4 st5">70</text>
		<line class="st6" x1="309.1" y1="72.3" x2="310.6" y2="67.9"/>
		<line class="st6" x1="311.9" y1="73.3" x2="313.5" y2="68.9"/>
		<line class="st6" x1="314.6" y1="74.3" x2="316.3" y2="69.9"/>
		<line class="st6" x1="317.4" y1="75.4" x2="319.1" y2="71"/>
		<line class="st6" x1="320.1" y1="76.5" x2="323.7" y2="67.8"/>
		<line class="st6" x1="322.8" y1="77.6" x2="324.7" y2="73.3"/>
		<line class="st6" x1="325.5" y1="78.8" x2="327.5" y2="74.6"/>
		<line class="st6" x1="328.2" y1="80.1" x2="330.2" y2="75.8"/>
		<line class="st6" x1="330.9" y1="81.4" x2="333" y2="77.1"/>
		<line class="st2" x1="333.5" y1="82.7" x2="337.8" y2="74.3"/>
		<text transform="matrix(0.891 0.454 -0.454 0.891 335.2773 67.7349)" class="st3 st4 st5">80</text>
		<line class="st6" x1="336.2" y1="84" x2="338.4" y2="79.9"/>
		<line class="st6" x1="338.8" y1="85.4" x2="341" y2="81.3"/>
		<line class="st6" x1="341.3" y1="86.9" x2="343.7" y2="82.8"/>
		<line class="st6" x1="343.9" y1="88.4" x2="346.3" y2="84.3"/>
		<line class="st6" x1="346.4" y1="89.9" x2="351.3" y2="81.9"/>
		<line class="st6" x1="348.9" y1="91.5" x2="351.4" y2="87.5"/>
		<line class="st6" x1="351.4" y1="93.1" x2="354" y2="89.1"/>
		<line class="st6" x1="353.9" y1="94.7" x2="356.5" y2="90.8"/>
		<line class="st6" x1="356.3" y1="96.4" x2="359" y2="92.5"/>
		<line class="st2" x1="358.7" y1="98.1" x2="364.2" y2="90.5"/>
		<text transform="matrix(0.809 0.5878 -0.5878 0.809 362.755 83.6113)" class="st3 st4 st5">90</text>
		<line class="st6" x1="361.1" y1="99.9" x2="363.9" y2="96.1"/>
		<line class="st6" x1="363.4" y1="101.6" x2="366.3" y2="97.9"/>
		<line class="st6" x1="365.7" y1="103.5" x2="368.7" y2="99.8"/>
		<line class="st6" x1="368" y1="105.3" x2="371" y2="101.7"/>
		<line class="st6" x1="370.3" y1="107.2" x2="376.4" y2="100.1"/>
		<line class="st6" x1="372.5" y1="109.2" x2="375.6" y2="105.6"/>
		<line class="st6" x1="374.7" y1="111.1" x2="377.9" y2="107.7"/>
		<line class="st6" x1="376.9" y1="113.2" x2="380.1" y2="109.7"/>
		<line class="st6" x1="379" y1="115.2" x2="382.3" y2="111.8"/>
		<line class="st2" x1="381.1" y1="117.3" x2="387.8" y2="110.6"/>
		<text transform="matrix(0.7071 0.7071 -0.7071 0.7071 385.5623 101.7402)" class="st3 st4 st5">100</text>
		<line class="st2" x1="367.8" y1="130.6" x2="361.2" y2="137.2"/>
		<text transform="matrix(0.7071 0.7071 -0.7071 0.7071 352.6912 142.0099)" class="st3 st4 st5">0</text>
		<line class="st6" x1="363.5" y1="126.4" x2="360.3" y2="129.8"/>
		<line class="st6" x1="359.1" y1="122.4" x2="356" y2="126"/>
		<line class="st6" x1="354.7" y1="118.7" x2="351.7" y2="122.3"/>
		<line class="st6" x1="350.2" y1="115.2" x2="347.4" y2="119"/>
		<line class="st2" x1="345.8" y1="112" x2="340.3" y2="119.6"/>
		<text transform="matrix(0.817 0.5766 -0.5766 0.817 329.5646 123.5531)" class="st3 st4 st5">.05</text>
		<line class="st6" x1="341.3" y1="108.9" x2="338.7" y2="112.8"/>
		<line class="st6" x1="336.8" y1="106.1" x2="334.4" y2="110.1"/>
		<line class="st6" x1="332.4" y1="103.5" x2="330.1" y2="107.5"/>
		<line class="st6" x1="328" y1="101" x2="325.8" y2="105.2"/>
		<line class="st2" x1="323.6" y1="98.8" x2="319.5" y2="107.2"/>
		<text transform="matrix(0.895 0.446 -0.446 0.895 311.7503 113.8389)" class="st3 st4 st5">.1</text>
		<line class="st6" x1="319.3" y1="96.7" x2="317.3" y2="100.9"/>
		<line class="st6" x1="315" y1="94.8" x2="313.2" y2="99.1"/>
		<line class="st6" x1="310.8" y1="93" x2="309" y2="97.4"/>
		<line class="st6" x1="306.6" y1="91.4" x2="305" y2="95.8"/>
		<line class="st2" x1="302.5" y1="89.9" x2="299.4" y2="98.8"/>
		<line class="st6" x1="298.4" y1="88.6" x2="297" y2="93.1"/>
		<line class="st6" x1="294.4" y1="87.4" x2="293.1" y2="91.9"/>
		<line class="st6" x1="290.4" y1="86.3" x2="289.2" y2="90.9"/>
		<line class="st6" x1="286.5" y1="85.4" x2="285.5" y2="90"/>
		<line class="st2" x1="282.7" y1="84.6" x2="280.8" y2="93.8"/>
		<text transform="matrix(0.9789 0.2043 -0.2043 0.9789 275.0449 102.1636)" class="st3 st4 st5">.2</text>
		<line class="st6" x1="279" y1="83.8" x2="278.1" y2="88.4"/>
		<line class="st6" x1="275.3" y1="83.2" x2="274.5" y2="87.8"/>
		<line class="st6" x1="271.7" y1="82.6" x2="271" y2="87.3"/>
		<line class="st6" x1="268.2" y1="82.2" x2="267.6" y2="86.8"/>
		<line class="st2" x1="264.7" y1="81.8" x2="263.8" y2="91.2"/>
		<line class="st6" x1="261.3" y1="81.5" x2="260.9" y2="86.2"/>
		<line class="st6" x1="258" y1="81.3" x2="257.7" y2="86"/>
		<line class="st6" x1="254.7" y1="81.1" x2="254.6" y2="85.8"/>
		<line class="st6" x1="251.6" y1="81" x2="251.5" y2="85.7"/>
		<line class="st2" x1="248.5" y1="81" x2="248.5" y2="90.4"/>
		<text transform="matrix(1 1.864898e-03 -1.864898e-03 1 244.5248 99.799)" class="st3 st4 st5">.3</text>
		<line class="st6" x1="245.4" y1="81" x2="245.5" y2="85.7"/>
		<line class="st6" x1="242.5" y1="81.1" x2="242.6" y2="85.8"/>
		<line class="st6" x1="239.6" y1="81.2" x2="239.8" y2="85.9"/>
		<line class="st6" x1="236.8" y1="81.4" x2="237.1" y2="86.1"/>
		<line class="st2" x1="234" y1="81.6" x2="234.8" y2="90.9"/>
		<line class="st6" x1="231.3" y1="81.8" x2="231.8" y2="86.5"/>
		<line class="st6" x1="228.7" y1="82.1" x2="229.2" y2="86.8"/>
		<line class="st6" x1="226.1" y1="82.4" x2="226.7" y2="87.1"/>
		<line class="st6" x1="223.6" y1="82.8" x2="224.3" y2="87.4"/>
		<line class="st2" x1="221.2" y1="83.1" x2="222.7" y2="92.4"/>
		<text transform="matrix(0.9872 -0.1594 0.1594 0.9872 220.3022 102.341)" class="st3 st4 st5">.4</text>
		<line class="st6" x1="218.8" y1="83.5" x2="219.6" y2="88.2"/>
		<line class="st6" x1="216.5" y1="84" x2="217.4" y2="88.6"/>
		<line class="st6" x1="214.2" y1="84.4" x2="215.2" y2="89"/>
		<line class="st6" x1="212" y1="84.9" x2="213" y2="89.5"/>
		<line class="st2" x1="209.9" y1="85.4" x2="212" y2="94.5"/>
		<line class="st6" x1="207.8" y1="85.9" x2="208.9" y2="90.4"/>
		<line class="st6" x1="205.8" y1="86.4" x2="206.9" y2="90.9"/>
		<line class="st6" x1="203.8" y1="86.9" x2="205" y2="91.4"/>
		<line class="st6" x1="201.8" y1="87.4" x2="203.1" y2="92"/>
		<line class="st2" x1="200" y1="88" x2="202.6" y2="97"/>
		<text transform="matrix(0.9586 -0.2847 0.2847 0.9586 201.5613 107.1341)" class="st3 st4 st5">.5</text>
		<line class="st6" x1="196.4" y1="89.1" x2="197.8" y2="93.6"/>
		<line class="st6" x1="192.9" y1="90.2" x2="194.5" y2="94.7"/>
		<line class="st6" x1="189.7" y1="91.4" x2="191.3" y2="95.8"/>
		<line class="st6" x1="186.6" y1="92.6" x2="188.3" y2="97"/>
		<line class="st2" x1="183.7" y1="93.7" x2="187.3" y2="102.4"/>
		<text transform="matrix(0.9246 -0.381 0.381 0.9246 187.209 112.6312)" class="st3 st4 st5">.6</text>
		<line class="st6" x1="180.9" y1="94.9" x2="182.8" y2="99.2"/>
		<line class="st6" x1="178.3" y1="96.1" x2="180.2" y2="100.4"/>
		<line class="st6" x1="175.8" y1="97.2" x2="177.8" y2="101.5"/>
		<line class="st6" x1="173.4" y1="98.4" x2="175.5" y2="102.6"/>
		<line class="st2" x1="171.2" y1="99.5" x2="175.5" y2="107.9"/>
		<text transform="matrix(0.8907 -0.4547 0.4547 0.8907 176.2538 118.0249)" class="st3 st4 st5">.7</text>
		<line class="st6" x1="166.1" y1="102.2" x2="168.4" y2="106.3"/>
		<line class="st2" x1="161.6" y1="104.8" x2="166.5" y2="112.8"/>
		<text transform="matrix(0.8595 -0.5111 0.5111 0.8595 167.8867 122.93)" class="st3 st4 st5">.8</text>
		<line class="st6" x1="157.7" y1="107.2" x2="160.3" y2="111.1"/>
		<line class="st2" x1="154.3" y1="109.4" x2="159.5" y2="117.2"/>
		<text transform="matrix(0.8322 -0.5544 0.5544 0.8322 161.4754 127.2057)" class="st3 st4 st5">.9</text>
		<line class="st6" x1="151.3" y1="111.4" x2="154" y2="115.3"/>
		<line class="st2" x1="148.7" y1="113.3" x2="154.2" y2="120.9"/>
		<text transform="matrix(0.809 -0.5878 0.5878 0.809 157.6008 130.0642)" class="st3 st4 st5">1</text>
		<line class="st6" x1="144.3" y1="116.6" x2="147.2" y2="120.3"/>
		<line class="st6" x1="140.9" y1="119.3" x2="143.9" y2="122.9"/>
		<line class="st6" x1="138.2" y1="121.5" x2="141.3" y2="125.1"/>
		<line class="st6" x1="136.2" y1="123.3" x2="139.3" y2="126.8"/>
		<line class="st2" x1="134.6" y1="124.8" x2="140.9" y2="131.7"/>
		<text transform="matrix(0.7413 -0.6711 0.6711 0.7413 142.3321 143.0956)" class="st3 st4 st5">1.5</text>
		<polyline class="st2" points="130.4,128.7 136.9,135.4 136.9,154.4 140,154.4 		"/>
		<polyline class="st2" points="128.5,130.6 135.1,137.2 135.1,158 132.4,158 		"/>
		<text transform="matrix(1 0 0 1 125.2756 160.9979)" class="st4 st5">∞</text>
		<text transform="matrix(1 0 0 1 140.1206 157.2478)" class="st4 st5">2</text>
		<text transform="matrix(1 0 0 1 373.4359 51.3811)"><tspan x="0" y="0" class="st4 st5">Percent</tspan><tspan x="-13.6" y="11.3" class="st4 st5">Transmittance</tspan></text>
		<text transform="matrix(1 0 0 1 364.5465 156.581)" class="st4 st5">Absorbance</text>
		<g>
			<path class="st7" d="M248.2,78.1c47.8,0,91.1,19.5,122.4,50.9l8.8-8.8c-33.5-33.7-79.9-54.6-131.2-54.6
				c-51.3,0-97.7,20.9-131.2,54.6l8.8,8.8C157.1,97.6,200.3,78.1,248.2,78.1z"/>
		</g>
		<path class="st8" d="M354.7,143.9"/>
		<path class="st8" d="M381.1,117.5c-34-34.2-81-55.3-133-55.3c-52,0-99,21.1-132.9,55.3"/>
		<path class="st8" d="M354.7,143.9"/>
		<path class="st8" d="M367.9,130.7c-30.6-30.8-72.9-49.8-119.7-49.8c-46.8,0-89.1,19-119.7,49.8"/>
	</g>
</g>
<g id="Layer_2_copy" class="st0">
	<path class="st9" d="M248.2,64.6c-102.2,0-185,82.8-185,185s82.8,185,185,185s185-82.8,185-185S350.3,64.6,248.2,64.6z
		 M248.2,422.1c-95.3,0-172.5-77.2-172.5-172.5S152.9,77.1,248.2,77.1s172.5,77.2,172.5,172.5S343.4,422.1,248.2,422.1z"/>
	<circle class="st10" cx="248.2" cy="249.6" r="187.5"/>
	<circle class="st10" cx="248.2" cy="249.6" r="168.8"/>
	
		<rect x="79.7" y="117.8" transform="matrix(0.7071 0.7071 -0.7071 0.7071 131.9496 -32.3631)" class="st11" width="50.7" height="50.7"/>
</g>
<g id="Layer_4">
	<line class="st2" x1="62" y1="120.2" x2="52.7" y2="110.9"/>
	<text transform="matrix(0.7071 -0.7071 0.7071 0.7071 45.5324 108.8911)" class="st3 st4 st12">0</text>
	<line class="st6" x1="65" y1="117.3" x2="60.4" y2="112.6"/>
	<line class="st6" x1="67.9" y1="114.5" x2="63.4" y2="109.7"/>
	<line class="st6" x1="71" y1="111.7" x2="66.5" y2="106.8"/>
	<line class="st6" x1="74" y1="108.9" x2="69.7" y2="104"/>
	<line class="st6" x1="77.1" y1="106.2" x2="68.6" y2="96.3"/>
	<line class="st6" x1="80.3" y1="103.6" x2="76.1" y2="98.5"/>
	<line class="st6" x1="83.5" y1="101" x2="79.4" y2="95.9"/>
	<line class="st6" x1="86.7" y1="98.4" x2="82.7" y2="93.3"/>
	<line class="st6" x1="90" y1="95.9" x2="86.1" y2="90.7"/>
	<line class="st2" x1="93.3" y1="93.5" x2="85.6" y2="82.9"/>
	<text transform="matrix(0.809 -0.5878 0.5878 0.809 75.8483 81.8749)" class="st3 st4 st12">10</text>
	<line class="st6" x1="96.7" y1="91.1" x2="92.9" y2="85.7"/>
	<line class="st6" x1="100" y1="88.8" x2="96.4" y2="83.3"/>
	<line class="st6" x1="103.5" y1="86.5" x2="99.9" y2="81"/>
	<line class="st6" x1="106.9" y1="84.2" x2="103.4" y2="78.7"/>
	<line class="st6" x1="110.4" y1="82.1" x2="103.6" y2="70.9"/>
	<line class="st6" x1="114" y1="79.9" x2="110.6" y2="74.3"/>
	<line class="st6" x1="117.5" y1="77.9" x2="114.3" y2="72.2"/>
	<line class="st6" x1="121.1" y1="75.9" x2="117.9" y2="70.1"/>
	<line class="st6" x1="124.7" y1="73.9" x2="121.7" y2="68.1"/>
	<line class="st2" x1="128.4" y1="72" x2="122.4" y2="60.3"/>
	<text transform="matrix(0.891 -0.454 0.454 0.891 112.9632 57.7886)" class="st3 st4 st12">20</text>
	<line class="st6" x1="132.1" y1="70.2" x2="129.2" y2="64.3"/>
	<line class="st6" x1="135.8" y1="68.4" x2="133" y2="62.4"/>
	<line class="st6" x1="139.5" y1="66.7" x2="136.8" y2="60.7"/>
	<line class="st6" x1="143.3" y1="65" x2="140.7" y2="59"/>
	<line class="st6" x1="147.1" y1="63.4" x2="142.1" y2="51.3"/>
	<line class="st6" x1="150.9" y1="61.8" x2="148.5" y2="55.7"/>
	<line class="st6" x1="154.7" y1="60.3" x2="152.4" y2="54.2"/>
	<line class="st6" x1="158.6" y1="58.9" x2="156.4" y2="52.8"/>
	<line class="st6" x1="162.5" y1="57.6" x2="160.4" y2="51.4"/>
	<line class="st2" x1="166.4" y1="56.3" x2="162.3" y2="43.8"/>
	<text transform="matrix(0.9511 -0.309 0.309 0.9511 153.3875 39.8048)" class="st3 st4 st12">30</text>
	<line class="st6" x1="170.3" y1="55" x2="168.4" y2="48.7"/>
	<line class="st6" x1="174.3" y1="53.8" x2="172.4" y2="47.5"/>
	<line class="st6" x1="178.2" y1="52.7" x2="176.5" y2="46.4"/>
	<line class="st6" x1="182.2" y1="51.7" x2="180.6" y2="45.3"/>
	<line class="st6" x1="186.2" y1="50.7" x2="183.2" y2="37.9"/>
	<line class="st6" x1="190.2" y1="49.7" x2="188.8" y2="43.3"/>
	<line class="st6" x1="194.3" y1="48.9" x2="192.9" y2="42.5"/>
	<line class="st6" x1="198.3" y1="48.1" x2="197.1" y2="41.6"/>
	<line class="st6" x1="202.3" y1="47.3" x2="201.2" y2="40.9"/>
	<line class="st2" x1="206.4" y1="46.6" x2="204.4" y2="33.7"/>
	<text transform="matrix(0.9877 -0.1564 0.1564 0.9877 196.1293 28.3687)" class="st3 st4 st12">40</text>
	<line class="st6" x1="210.5" y1="46" x2="209.6" y2="39.5"/>
	<line class="st6" x1="214.6" y1="45.5" x2="213.7" y2="39"/>
	<line class="st6" x1="218.7" y1="45" x2="217.9" y2="38.5"/>
	<line class="st6" x1="222.7" y1="44.6" x2="222.1" y2="38.1"/>
	<line class="st6" x1="226.9" y1="44.2" x2="225.8" y2="31.2"/>
	<line class="st6" x1="231" y1="43.9" x2="230.5" y2="37.4"/>
	<line class="st6" x1="235.1" y1="43.7" x2="234.8" y2="37.2"/>
	<line class="st6" x1="239.2" y1="43.6" x2="239" y2="37"/>
	<line class="st6" x1="243.3" y1="43.5" x2="243.2" y2="36.9"/>
	<line class="st2" x1="247.4" y1="43.4" x2="247.4" y2="30.3"/>
	<text transform="matrix(1 0 0 1 240.1329 23.7566)" class="st3 st4 st12">50</text>
	<line class="st6" x1="251.5" y1="43.5" x2="251.6" y2="36.9"/>
	<line class="st6" x1="255.7" y1="43.6" x2="255.9" y2="37"/>
	<line class="st6" x1="259.8" y1="43.7" x2="260.1" y2="37.2"/>
	<line class="st6" x1="263.9" y1="43.9" x2="264.3" y2="37.4"/>
	<line class="st6" x1="268" y1="44.2" x2="269" y2="31.2"/>
	<line class="st6" x1="272.1" y1="44.6" x2="272.7" y2="38.1"/>
	<line class="st6" x1="276.2" y1="45" x2="276.9" y2="38.5"/>
	<line class="st6" x1="280.3" y1="45.5" x2="281.1" y2="39"/>
	<line class="st6" x1="284.4" y1="46" x2="285.3" y2="39.5"/>
	<line class="st2" x1="288.4" y1="46.6" x2="290.5" y2="33.7"/>
	<text transform="matrix(0.9877 0.1564 -0.1564 0.9877 284.3173 26.0862)" class="st3 st4 st12">60</text>
	<line class="st6" x1="292.5" y1="47.3" x2="293.6" y2="40.9"/>
	<line class="st6" x1="296.6" y1="48.1" x2="297.8" y2="41.6"/>
	<line class="st6" x1="300.6" y1="48.9" x2="301.9" y2="42.5"/>
	<line class="st6" x1="304.6" y1="49.7" x2="306.1" y2="43.3"/>
	<line class="st6" x1="308.6" y1="50.7" x2="311.7" y2="37.9"/>
	<line class="st6" x1="312.6" y1="51.7" x2="314.3" y2="45.3"/>
	<line class="st6" x1="316.6" y1="52.7" x2="318.3" y2="46.4"/>
	<line class="st6" x1="320.6" y1="53.8" x2="322.4" y2="47.5"/>
	<line class="st6" x1="324.5" y1="55" x2="326.5" y2="48.7"/>
	<line class="st2" x1="328.5" y1="56.3" x2="332.5" y2="43.8"/>
	<text transform="matrix(0.9511 0.309 -0.309 0.9511 327.5933 35.2968)" class="st3 st4 st12">70</text>
	<line class="st6" x1="332.4" y1="57.6" x2="334.5" y2="51.4"/>
	<line class="st6" x1="336.2" y1="58.9" x2="338.5" y2="52.8"/>
	<line class="st6" x1="340.1" y1="60.3" x2="342.4" y2="54.2"/>
	<line class="st6" x1="343.9" y1="61.8" x2="346.4" y2="55.7"/>
	<line class="st6" x1="347.8" y1="63.4" x2="352.8" y2="51.3"/>
	<line class="st6" x1="351.6" y1="65" x2="354.2" y2="59"/>
	<line class="st6" x1="355.3" y1="66.7" x2="358" y2="60.7"/>
	<line class="st6" x1="359.1" y1="68.4" x2="361.9" y2="62.4"/>
	<line class="st6" x1="362.8" y1="70.2" x2="365.7" y2="64.3"/>
	<line class="st2" x1="366.5" y1="72" x2="372.4" y2="60.3"/>
	<text transform="matrix(0.891 0.454 -0.454 0.891 368.8937 51.1672)" class="st3 st4 st12">80</text>
	<line class="st6" x1="370.1" y1="73.9" x2="373.2" y2="68.1"/>
	<line class="st6" x1="373.7" y1="75.9" x2="376.9" y2="70.1"/>
	<line class="st6" x1="377.3" y1="77.9" x2="380.6" y2="72.2"/>
	<line class="st6" x1="380.9" y1="79.9" x2="384.2" y2="74.3"/>
	<line class="st6" x1="384.4" y1="82.1" x2="391.3" y2="70.9"/>
	<line class="st6" x1="387.9" y1="84.2" x2="391.4" y2="78.7"/>
	<line class="st6" x1="391.4" y1="86.5" x2="395" y2="81"/>
	<line class="st6" x1="394.8" y1="88.8" x2="398.5" y2="83.3"/>
	<line class="st6" x1="398.2" y1="91.1" x2="402" y2="85.7"/>
	<line class="st2" x1="401.5" y1="93.5" x2="409.3" y2="82.9"/>
	<text transform="matrix(0.809 0.5878 -0.5878 0.809 407.2033 73.3023)" class="st3 st4 st12">90</text>
	<line class="st6" x1="404.9" y1="95.9" x2="408.8" y2="90.7"/>
	<line class="st6" x1="408.1" y1="98.4" x2="412.1" y2="93.3"/>
	<line class="st6" x1="411.4" y1="101" x2="415.5" y2="95.9"/>
	<line class="st6" x1="414.6" y1="103.6" x2="418.7" y2="98.5"/>
	<line class="st6" x1="417.7" y1="106.2" x2="426.2" y2="96.3"/>
	<line class="st6" x1="420.8" y1="108.9" x2="425.2" y2="104"/>
	<line class="st6" x1="423.9" y1="111.7" x2="428.3" y2="106.8"/>
	<line class="st6" x1="426.9" y1="114.5" x2="431.4" y2="109.7"/>
	<line class="st6" x1="429.9" y1="117.3" x2="434.5" y2="112.6"/>
	<line class="st2" x1="432.8" y1="120.2" x2="442.1" y2="110.9"/>
	<text transform="matrix(0.7071 0.7071 -0.7071 0.7071 438.9999 98.5761)" class="st3 st4 st12">100</text>
	<line class="st2" x1="414.3" y1="138.8" x2="405" y2="148"/>
	<text transform="matrix(0.7071 0.7071 -0.7071 0.7071 393.1715 154.7197)" class="st3 st4 st12">0</text>
	<line class="st6" x1="408.2" y1="132.9" x2="403.8" y2="137.7"/>
	<line class="st6" x1="402.1" y1="127.4" x2="397.8" y2="132.3"/>
	<line class="st6" x1="395.9" y1="122.2" x2="391.8" y2="127.3"/>
	<line class="st6" x1="389.7" y1="117.4" x2="385.8" y2="122.6"/>
	<line class="st2" x1="383.5" y1="112.8" x2="375.9" y2="123.5"/>
	<text transform="matrix(0.817 0.5766 -0.5766 0.817 360.9308 128.9896)" class="st3 st4 st12">.05</text>
	<line class="st6" x1="377.3" y1="108.6" x2="373.7" y2="114.1"/>
	<line class="st6" x1="371.1" y1="104.6" x2="367.7" y2="110.2"/>
	<line class="st6" x1="364.9" y1="101" x2="361.6" y2="106.7"/>
	<line class="st6" x1="358.8" y1="97.6" x2="355.7" y2="103.3"/>
	<line class="st2" x1="352.7" y1="94.4" x2="346.8" y2="106.1"/>
	<text transform="matrix(0.895 0.446 -0.446 0.895 336.092 115.4443)" class="st3 st4 st12">.1</text>
	<line class="st6" x1="346.6" y1="91.5" x2="343.9" y2="97.5"/>
	<line class="st6" x1="340.7" y1="88.8" x2="338.1" y2="94.9"/>
	<line class="st6" x1="334.7" y1="86.4" x2="332.3" y2="92.5"/>
	<line class="st6" x1="328.9" y1="84.2" x2="326.6" y2="90.3"/>
	<line class="st2" x1="323.1" y1="82.1" x2="318.9" y2="94.5"/>
	<line class="st6" x1="317.5" y1="80.3" x2="315.5" y2="86.5"/>
	<line class="st6" x1="311.9" y1="78.6" x2="310.1" y2="84.9"/>
	<line class="st6" x1="306.4" y1="77.1" x2="304.7" y2="83.5"/>
	<line class="st6" x1="300.9" y1="75.8" x2="299.5" y2="82.2"/>
	<line class="st2" x1="295.6" y1="74.6" x2="292.9" y2="87.5"/>
	<text transform="matrix(0.9789 0.2043 -0.2043 0.9789 284.9186 99.1668)" class="st3 st4 st12">.2</text>
	<line class="st6" x1="290.4" y1="73.6" x2="289.2" y2="80"/>
	<line class="st6" x1="285.3" y1="72.7" x2="284.2" y2="79.2"/>
	<line class="st6" x1="280.3" y1="71.9" x2="279.3" y2="78.4"/>
	<line class="st6" x1="275.3" y1="71.3" x2="274.5" y2="77.8"/>
	<line class="st2" x1="270.5" y1="70.8" x2="269.2" y2="83.8"/>
	<line class="st6" x1="265.8" y1="70.4" x2="265.3" y2="76.9"/>
	<line class="st6" x1="261.1" y1="70" x2="260.8" y2="76.6"/>
	<line class="st6" x1="256.6" y1="69.8" x2="256.4" y2="76.4"/>
	<line class="st6" x1="252.2" y1="69.7" x2="252.1" y2="76.2"/>
	<line class="st2" x1="247.9" y1="69.6" x2="247.8" y2="82.8"/>
	<text transform="matrix(1 1.864885e-03 -1.864885e-03 1 242.4187 95.9211)" class="st3 st4 st13">.3</text>
	<line class="st6" x1="243.6" y1="69.7" x2="243.7" y2="76.2"/>
	<line class="st6" x1="239.5" y1="69.8" x2="239.7" y2="76.3"/>
	<line class="st6" x1="235.5" y1="69.9" x2="235.8" y2="76.5"/>
	<line class="st6" x1="231.5" y1="70.2" x2="232" y2="76.7"/>
	<line class="st2" x1="227.7" y1="70.5" x2="228.8" y2="83.5"/>
	<line class="st6" x1="223.9" y1="70.8" x2="224.6" y2="77.3"/>
	<line class="st6" x1="220.3" y1="71.2" x2="221" y2="77.7"/>
	<line class="st6" x1="216.7" y1="71.7" x2="217.6" y2="78.1"/>
	<line class="st6" x1="213.2" y1="72.1" x2="214.2" y2="78.6"/>
	<line class="st2" x1="209.8" y1="72.7" x2="211.9" y2="85.6"/>
	<text transform="matrix(0.9872 -0.1594 0.1594 0.9872 208.5968 99.4149)" class="st3 st4 st12">.4</text>
	<line class="st6" x1="206.5" y1="73.2" x2="207.6" y2="79.7"/>
	<line class="st6" x1="203.3" y1="73.8" x2="204.5" y2="80.2"/>
	<line class="st6" x1="200.1" y1="74.4" x2="201.4" y2="80.9"/>
	<line class="st6" x1="197.1" y1="75.1" x2="198.5" y2="81.5"/>
	<line class="st2" x1="194.1" y1="75.8" x2="197" y2="88.5"/>
	<line class="st6" x1="191.2" y1="76.4" x2="192.7" y2="82.8"/>
	<line class="st6" x1="188.3" y1="77.2" x2="190" y2="83.5"/>
	<line class="st6" x1="185.6" y1="77.9" x2="187.3" y2="84.2"/>
	<line class="st6" x1="182.9" y1="78.6" x2="184.7" y2="84.9"/>
	<line class="st2" x1="180.2" y1="79.4" x2="184" y2="92"/>
	<text transform="matrix(0.9586 -0.2847 0.2847 0.9586 182.4698 106.0976)" class="st3 st4 st12">.5</text>
	<line class="st6" x1="175.2" y1="81" x2="177.2" y2="87.2"/>
	<line class="st6" x1="170.4" y1="82.6" x2="172.6" y2="88.8"/>
	<line class="st6" x1="165.9" y1="84.2" x2="168.2" y2="90.3"/>
	<line class="st6" x1="161.6" y1="85.8" x2="164" y2="91.9"/>
	<line class="st2" x1="157.5" y1="87.4" x2="162.5" y2="99.6"/>
	<text transform="matrix(0.9246 -0.381 0.381 0.9246 162.4594 113.7615)" class="st3 st4 st12">.6</text>
	<line class="st6" x1="153.7" y1="89.1" x2="156.3" y2="95.1"/>
	<line class="st6" x1="150" y1="90.7" x2="152.7" y2="96.7"/>
	<line class="st6" x1="146.5" y1="92.3" x2="149.3" y2="98.2"/>
	<line class="st6" x1="143.3" y1="93.9" x2="146.1" y2="99.8"/>
	<line class="st2" x1="140.1" y1="95.4" x2="146.1" y2="107.1"/>
	<text transform="matrix(0.8907 -0.4547 0.4547 0.8907 147.1849 121.2828)" class="st3 st4 st12">.7</text>
	<line class="st6" x1="133" y1="99.2" x2="136.2" y2="105"/>
	<line class="st2" x1="126.8" y1="102.8" x2="133.5" y2="114.1"/>
	<text transform="matrix(0.8595 -0.5111 0.5111 0.8595 135.5196 128.1213)" class="st3 st4 st12">.8</text>
	<line class="st6" x1="121.4" y1="106.1" x2="124.9" y2="111.7"/>
	<line class="st2" x1="116.6" y1="109.2" x2="123.9" y2="120.1"/>
	<text transform="matrix(0.8322 -0.5544 0.5544 0.8322 126.5819 134.0818)" class="st3 st4 st12">.9</text>
	<line class="st6" x1="112.4" y1="112.1" x2="116.2" y2="117.5"/>
	<line class="st2" x1="108.7" y1="114.7" x2="116.4" y2="125.3"/>
	<text transform="matrix(0.809 -0.5878 0.5878 0.809 121.1799 138.0668)" class="st3 st4 st12">1</text>
	<line class="st6" x1="102.6" y1="119.3" x2="106.6" y2="124.5"/>
	<line class="st6" x1="97.9" y1="123.1" x2="102" y2="128.1"/>
	<line class="st6" x1="94.2" y1="126.2" x2="98.5" y2="131.1"/>
	<line class="st6" x1="91.3" y1="128.7" x2="95.7" y2="133.6"/>
	<line class="st2" x1="89.1" y1="130.7" x2="97.8" y2="140.4"/>
	<text transform="matrix(0.7413 -0.6711 0.6711 0.7413 99.8915 156.2349)" class="st3 st4 st12">1.5</text>
	<polyline class="st2" points="83.2,136.2 92.3,145.6 92.3,172 96.7,172 	"/>
	<polyline class="st2" points="80.6,138.8 89.8,148 89.8,177 86.1,177 	"/>
	<text transform="matrix(1 0 0 1 76.1114 181.1946)" class="st4 st12">∞</text>
	<text transform="matrix(1 0 0 1 96.8087 175.9661)" class="st4 st12">2</text>
	<text transform="matrix(1 0 0 1 425.3195 28.3685)"><tspan x="0" y="0" class="st4 st12">Percent</tspan><tspan x="-18.9" y="15.7" class="st4 st12">Transmittance</tspan></text>
	<text transform="matrix(1 0 0 1 412.9264 175.0364)" class="st4 st12">Absorbance</text>
	<g>
		<path class="st7" d="M247.4,65.7c66.7,0,127,27.1,170.6,71l12.3-12.3c-46.7-47-111.4-76.1-182.9-76.1
			c-71.5,0-136.2,29.1-182.9,76.1l12.3,12.3C120.4,92.8,180.8,65.7,247.4,65.7z"/>
	</g>
	<path class="st8" d="M395.9,157.4"/>
	<path class="st8" d="M432.8,120.5c-47.3-47.6-112.9-77.1-185.4-77.1c-72.4,0-138,29.5-185.4,77.1"/>
	<path class="st8" d="M395.9,157.4"/>
	<path class="st8" d="M414.3,139c-42.6-42.9-101.7-69.5-166.9-69.5c-65.2,0-124.3,26.6-166.9,69.4"/>
</g>
</svg>
