<?xml version="1.0" encoding="utf-8"?>
<!-- Generator: Adobe Illustrator 19.2.1, SVG Export Plug-In . SVG Version: 6.00 Build 0)  -->
<svg version="1.1" id="Layer_1" xmlns="http://www.w3.org/2000/svg" xmlns:xlink="http://www.w3.org/1999/xlink" x="0px" y="0px"
	 viewBox="0 0 401 201" style="enable-background:new 0 0 401 201;" xml:space="preserve">
<style type="text/css">
	.st0{fill:#262626;stroke:#000000;stroke-miterlimit:10;}
	.st1{enable-background:new    ;}
	.st2{fill:#FFFFFF;}
	.st3{fill:none;stroke:#FFFFFF;stroke-width:3;stroke-miterlimit:10;}
</style>
<rect x="0.5" y="0.5" class="st0" width="400" height="200"/>
<g class="st1">
	<path class="st2" d="M162.9,58.5c5.9,0,11.1,1.1,15.7,3.3c4.6,2.2,8.6,5.2,11.8,8.9c3.2,3.7,5.7,8.1,7.4,13.1
		c1.7,5,2.6,10.2,2.6,15.8c0,5.6-0.9,10.9-2.6,15.9c-1.7,5-4.2,9.3-7.4,13.1c-3.2,3.7-7.2,6.7-11.8,8.8c-4.6,2.2-9.9,3.2-15.7,3.2
		c-5.9,0-11.1-1.1-15.8-3.2c-4.6-2.2-8.6-5.1-11.8-8.8c-3.2-3.7-5.7-8.1-7.4-13.1c-1.7-5-2.6-10.3-2.6-15.9c0-5.6,0.9-10.8,2.6-15.8
		c1.7-5,4.2-9.3,7.4-13.1c3.2-3.7,7.2-6.7,11.8-8.9C151.8,59.6,157.1,58.5,162.9,58.5z M162.9,69.7c-4.2,0-7.8,0.8-10.8,2.5
		c-3,1.7-5.5,3.9-7.4,6.8c-1.9,2.8-3.3,6-4.2,9.6c-0.9,3.6-1.4,7.2-1.4,11c0,3.7,0.5,7.4,1.4,11c0.9,3.6,2.3,6.8,4.2,9.6
		c1.9,2.8,4.4,5.1,7.4,6.8c3,1.7,6.6,2.5,10.8,2.5c4.2,0,7.8-0.8,10.8-2.5c3-1.7,5.5-3.9,7.4-6.8c1.9-2.8,3.3-6,4.2-9.6
		c0.9-3.6,1.4-7.2,1.4-11c0-3.7-0.5-7.4-1.4-11c-0.9-3.6-2.3-6.8-4.2-9.6c-1.9-2.8-4.4-5.1-7.4-6.8
		C170.7,70.6,167.1,69.7,162.9,69.7z"/>
	<path class="st2" d="M213,60.4h13.7v35.7l34.9-35.7h16.9l-31.3,31.3l33.5,47.1h-17.1l-25.7-37.4l-11.2,11.1v26.3H213V60.4z"/>
</g>
<rect x="15.5" y="15.5" class="st3" width="370" height="170"/>
</svg>
