<?xml version="1.0" encoding="utf-8"?>
<!-- Generator: Adobe Illustrator 19.2.0, SVG Export Plug-In . SVG Version: 6.00 Build 0)  -->
<svg version="1.1" id="Layer_1" xmlns="http://www.w3.org/2000/svg" xmlns:xlink="http://www.w3.org/1999/xlink" x="0px" y="0px"
	 viewBox="0 0 353 103" style="enable-background:new 0 0 353 103;" xml:space="preserve">
<style type="text/css">
	.st0{fill:#5A4439;}
	.st1{fill:#473428;stroke:#000000;stroke-width:2;stroke-miterlimit:10;}
	.st2{fill:none;stroke:#000000;stroke-width:2;stroke-miterlimit:10;}
</style>
<g>
	<path class="st0" d="M303.1,26.6c0,0.4,0.1,0.8,0.1,1.1c0,11.7-16.9,21.3-37.7,21.3s-37.7-9.5-37.7-21.3c0-0.4,0-0.8,0.1-1.1H125.6
		c0,0.4,0.1,0.8,0.1,1.1c0,11.7-16.9,21.3-37.7,21.3s-37.7-9.5-37.7-21.2c0-0.4,0-0.8,0.1-1.1h-34L5.2,54.6h343L337,26.7L303.1,26.6
		L303.1,26.6z"/>
	<rect x="1.8" y="54.6" class="st1" width="350" height="47.4"/>
</g>
<path class="st2" d="M125.6,26.8c0,11.7-16.9,21.3-37.7,21.3s-37.6-9.6-37.6-21.3 M303.2,26.8c0,11.7-16.9,21.3-37.7,21.3
	s-37.7-9.5-37.7-21.3"/>
</svg>
