<?xml version="1.0" encoding="utf-8"?>
<!-- Generator: Adobe Illustrator 19.1.0, SVG Export Plug-In . SVG Version: 6.00 Build 0)  -->
<svg version="1.1" id="Layer_1" xmlns="http://www.w3.org/2000/svg" xmlns:xlink="http://www.w3.org/1999/xlink" x="0px" y="0px"
	 viewBox="150 -200 800 600" style="enable-background:new 150 -200 800 600;" xml:space="preserve">
<style type="text/css">
	.st0{fill:#F9F1D9;stroke:#000000;stroke-miterlimit:10;}
	.st1{fill:#DCD2B0;stroke:#000000;stroke-miterlimit:10;}
	.st2{fill:#FFF4CD;stroke:#000000;stroke-miterlimit:10;}
	.st3{stroke:#000000;stroke-miterlimit:10;}
	.st4{fill:#FCF7E9;stroke:#000000;stroke-miterlimit:10;}
	.st5{fill:#ED1F24;}
	.st6{font-family:'Helvetica';}
	.st7{font-size:5.5994px;}
	.st8{fill:none;stroke:#010101;stroke-width:0.625;}
	.st9{fill:#010101;}
	.st10{fill:none;stroke:#010101;stroke-width:0.25;}
	.st11{font-size:5.5998px;}
	.st12{font-size:5.5995px;}
	.st13{font-size:5.5993px;}
	.st14{font-size:5.5996px;}
	.st15{font-size:5.6px;}
	.st16{font-size:5.599px;}
	.st17{font-size:5.5989px;}
	.st18{fill:#757576;}
	.st19{fill:none;stroke:#000000;stroke-miterlimit:10;}
</style>
<polygon class="st0" points="900,175 200,175 250,50 850,50 "/>
<rect x="200" y="175" class="st1" width="700" height="125"/>
<path class="st2" d="M838-100H262c-6.6,0-12,5.4-12,12v70.5V50h600v-67.5v-27.1V-88C850-94.6,844.6-100,838-100z"/>
<rect x="325" y="-85" class="st3" width="450" height="120"/>
<rect x="437.5" y="-70" class="st4" width="225" height="90"/>
<circle class="st5" cx="380" cy="-25" r="3.6"/>
<text transform="matrix(1 0 0 1 630.6863 -59.0247)" class="st6 st7">Percent</text>
<text transform="matrix(1 0 0 1 622.6143 -52.3187)" class="st6 st7">Transmittance</text>
<text transform="matrix(1 0 0 1 625.393 10.2844)" class="st6 st7">Absorbance</text>
<g>
	<line class="st8" x1="469.7" y1="-16.4" x2="465.7" y2="-20.3"/>
	<text transform="matrix(0.7071 -0.7071 0.7071 0.7071 462.6706 -21.2025)" class="st9 st6 st7">0</text>
	<line class="st10" x1="471" y1="-17.6" x2="469" y2="-19.6"/>
	<line class="st10" x1="472.2" y1="-18.8" x2="470.3" y2="-20.9"/>
	<line class="st10" x1="473.5" y1="-20" x2="471.6" y2="-22.1"/>
	<line class="st10" x1="474.8" y1="-21.2" x2="473" y2="-23.3"/>
	<line class="st10" x1="476.2" y1="-22.4" x2="472.5" y2="-26.6"/>
	<line class="st10" x1="477.5" y1="-23.5" x2="475.7" y2="-25.6"/>
	<line class="st10" x1="478.9" y1="-24.6" x2="477.1" y2="-26.8"/>
	<line class="st10" x1="480.3" y1="-25.7" x2="478.5" y2="-27.9"/>
	<line class="st10" x1="481.7" y1="-26.8" x2="480" y2="-29"/>
	<line class="st8" x1="483.1" y1="-27.8" x2="479.8" y2="-32.3"/>
	<text transform="matrix(0.809 -0.5878 0.5878 0.809 475.6194 -32.7408)" class="st9 st6 st7">10</text>
	<line class="st10" x1="484.5" y1="-28.8" x2="482.9" y2="-31.1"/>
	<line class="st10" x1="485.9" y1="-29.8" x2="484.4" y2="-32.1"/>
	<line class="st10" x1="487.4" y1="-30.8" x2="485.9" y2="-33.1"/>
	<line class="st10" x1="488.9" y1="-31.7" x2="487.4" y2="-34.1"/>
	<line class="st10" x1="490.4" y1="-32.6" x2="487.5" y2="-37.4"/>
	<line class="st10" x1="491.9" y1="-33.6" x2="490.5" y2="-36"/>
	<line class="st10" x1="493.4" y1="-34.4" x2="492" y2="-36.9"/>
	<line class="st10" x1="494.9" y1="-35.3" x2="493.6" y2="-37.8"/>
	<line class="st10" x1="496.5" y1="-36.1" x2="495.2" y2="-38.6"/>
	<line class="st8" x1="498.1" y1="-37" x2="495.5" y2="-42"/>
	<text transform="matrix(0.891 -0.454 0.454 0.891 491.4713 -43.0289)" class="st9 st6 st7">20</text>
	<line class="st10" x1="499.6" y1="-37.7" x2="498.4" y2="-40.2"/>
	<line class="st10" x1="501.2" y1="-38.5" x2="500" y2="-41.1"/>
	<line class="st10" x1="502.8" y1="-39.2" x2="501.7" y2="-41.8"/>
	<line class="st10" x1="504.4" y1="-39.9" x2="503.3" y2="-42.5"/>
	<line class="st10" x1="506.1" y1="-40.6" x2="503.9" y2="-45.8"/>
	<line class="st10" x1="507.7" y1="-41.3" x2="506.6" y2="-43.9"/>
	<line class="st10" x1="509.3" y1="-42" x2="508.3" y2="-44.6"/>
	<line class="st10" x1="511" y1="-42.6" x2="510" y2="-45.2"/>
	<line class="st10" x1="512.6" y1="-43.1" x2="511.7" y2="-45.8"/>
	<line class="st8" x1="514.3" y1="-43.7" x2="512.5" y2="-49"/>
	<text transform="matrix(0.9511 -0.309 0.309 0.9511 508.7371 -50.7097)" class="st9 st6 st11">30</text>
	<line class="st10" x1="516" y1="-44.2" x2="515.1" y2="-46.9"/>
	<line class="st10" x1="517.7" y1="-44.7" x2="516.9" y2="-47.4"/>
	<line class="st10" x1="519.3" y1="-45.2" x2="518.6" y2="-47.9"/>
	<line class="st10" x1="521" y1="-45.6" x2="520.4" y2="-48.4"/>
	<line class="st10" x1="522.8" y1="-46.1" x2="521.5" y2="-51.5"/>
	<line class="st10" x1="524.5" y1="-46.5" x2="523.9" y2="-49.2"/>
	<line class="st10" x1="526.2" y1="-46.8" x2="525.6" y2="-49.6"/>
	<line class="st10" x1="527.9" y1="-47.2" x2="527.4" y2="-49.9"/>
	<line class="st10" x1="529.6" y1="-47.5" x2="529.2" y2="-50.2"/>
	<line class="st8" x1="531.4" y1="-47.8" x2="530.5" y2="-53.3"/>
	<text transform="matrix(0.9877 -0.1564 0.1564 0.9877 526.9923 -55.5935)" class="st9 st6 st12">40</text>
	<line class="st10" x1="533.1" y1="-48.1" x2="532.7" y2="-50.8"/>
	<line class="st10" x1="534.9" y1="-48.3" x2="534.5" y2="-51.1"/>
	<line class="st10" x1="536.6" y1="-48.5" x2="536.3" y2="-51.3"/>
	<line class="st10" x1="538.3" y1="-48.7" x2="538.1" y2="-51.4"/>
	<line class="st10" x1="540.1" y1="-48.8" x2="539.7" y2="-54.4"/>
	<line class="st10" x1="541.9" y1="-49" x2="541.7" y2="-51.7"/>
	<line class="st10" x1="543.6" y1="-49" x2="543.5" y2="-51.8"/>
	<line class="st10" x1="545.4" y1="-49.1" x2="545.3" y2="-51.9"/>
	<line class="st10" x1="547.1" y1="-49.1" x2="547.1" y2="-52"/>
	<line class="st8" x1="548.9" y1="-49.2" x2="548.9" y2="-54.8"/>
	<text transform="matrix(1 0 0 1 545.7861 -57.564)" class="st9 st6 st7">50</text>
	<line class="st10" x1="550.6" y1="-49.1" x2="550.7" y2="-52"/>
	<line class="st10" x1="552.4" y1="-49.1" x2="552.5" y2="-51.9"/>
	<line class="st10" x1="554.2" y1="-49" x2="554.3" y2="-51.8"/>
	<line class="st10" x1="555.9" y1="-49" x2="556.1" y2="-51.7"/>
	<line class="st10" x1="557.7" y1="-48.8" x2="558.1" y2="-54.4"/>
	<line class="st10" x1="559.4" y1="-48.7" x2="559.7" y2="-51.4"/>
	<line class="st10" x1="561.2" y1="-48.5" x2="561.5" y2="-51.3"/>
	<line class="st10" x1="562.9" y1="-48.3" x2="563.3" y2="-51.1"/>
	<line class="st10" x1="564.7" y1="-48.1" x2="565.1" y2="-50.8"/>
	<line class="st8" x1="566.4" y1="-47.8" x2="567.3" y2="-53.3"/>
	<text transform="matrix(0.9877 0.1564 -0.1564 0.9877 564.6574 -56.5686)" class="st9 st6 st12">60</text>
	<line class="st10" x1="568.2" y1="-47.5" x2="568.6" y2="-50.2"/>
	<line class="st10" x1="569.9" y1="-47.2" x2="570.4" y2="-49.9"/>
	<line class="st10" x1="571.6" y1="-46.8" x2="572.2" y2="-49.6"/>
	<line class="st10" x1="573.3" y1="-46.5" x2="574" y2="-49.2"/>
	<line class="st10" x1="575" y1="-46.1" x2="576.4" y2="-51.5"/>
	<line class="st10" x1="576.7" y1="-45.6" x2="577.5" y2="-48.4"/>
	<line class="st10" x1="578.4" y1="-45.2" x2="579.2" y2="-47.9"/>
	<line class="st10" x1="580.2" y1="-44.7" x2="580.9" y2="-47.4"/>
	<line class="st10" x1="581.8" y1="-44.2" x2="582.7" y2="-46.9"/>
	<line class="st8" x1="583.5" y1="-43.7" x2="585.2" y2="-49"/>
	<text transform="matrix(0.9511 0.309 -0.309 0.9511 583.1417 -52.6336)" class="st9 st6 st11">70</text>
	<line class="st10" x1="585.2" y1="-43.1" x2="586.1" y2="-45.8"/>
	<line class="st10" x1="586.8" y1="-42.6" x2="587.8" y2="-45.2"/>
	<line class="st10" x1="588.5" y1="-42" x2="589.5" y2="-44.6"/>
	<line class="st10" x1="590.1" y1="-41.3" x2="591.2" y2="-43.9"/>
	<line class="st10" x1="591.8" y1="-40.6" x2="593.9" y2="-45.8"/>
	<line class="st10" x1="593.4" y1="-39.9" x2="594.5" y2="-42.5"/>
	<line class="st10" x1="595" y1="-39.2" x2="596.1" y2="-41.8"/>
	<line class="st10" x1="596.6" y1="-38.5" x2="597.8" y2="-41.1"/>
	<line class="st10" x1="598.2" y1="-37.7" x2="599.4" y2="-40.2"/>
	<line class="st8" x1="599.8" y1="-37" x2="602.3" y2="-42"/>
	<text transform="matrix(0.891 0.454 -0.454 0.891 600.7802 -45.8568)" class="st9 st6 st7">80</text>
	<line class="st10" x1="601.3" y1="-36.1" x2="602.6" y2="-38.6"/>
	<line class="st10" x1="602.8" y1="-35.3" x2="604.2" y2="-37.8"/>
	<line class="st10" x1="604.4" y1="-34.4" x2="605.8" y2="-36.9"/>
	<line class="st10" x1="605.9" y1="-33.6" x2="607.3" y2="-36"/>
	<line class="st10" x1="607.4" y1="-32.6" x2="610.4" y2="-37.4"/>
	<line class="st10" x1="608.9" y1="-31.7" x2="610.4" y2="-34.1"/>
	<line class="st10" x1="610.4" y1="-30.8" x2="611.9" y2="-33.1"/>
	<line class="st10" x1="611.8" y1="-29.8" x2="613.4" y2="-32.1"/>
	<line class="st10" x1="613.3" y1="-28.8" x2="614.9" y2="-31.1"/>
	<line class="st8" x1="614.7" y1="-27.8" x2="618" y2="-32.3"/>
	<text transform="matrix(0.809 0.5878 -0.5878 0.809 617.1433 -36.4023)" class="st9 st6 st7">90</text>
	<line class="st10" x1="616.2" y1="-26.8" x2="617.8" y2="-29"/>
	<line class="st10" x1="617.5" y1="-25.7" x2="619.2" y2="-27.9"/>
	<line class="st10" x1="618.9" y1="-24.6" x2="620.7" y2="-26.8"/>
	<line class="st10" x1="620.3" y1="-23.5" x2="622.1" y2="-25.6"/>
	<line class="st10" x1="621.6" y1="-22.4" x2="625.3" y2="-26.6"/>
	<line class="st10" x1="622.9" y1="-21.2" x2="624.8" y2="-23.3"/>
	<line class="st10" x1="624.3" y1="-20" x2="626.2" y2="-22.1"/>
	<line class="st10" x1="625.6" y1="-18.8" x2="627.5" y2="-20.9"/>
	<line class="st10" x1="626.8" y1="-17.6" x2="628.8" y2="-19.6"/>
	<line class="st8" x1="628.1" y1="-16.4" x2="632" y2="-20.3"/>
	<text transform="matrix(0.7071 0.7071 -0.7071 0.7071 630.724 -25.6082)" class="st9 st6 st7">100</text>
	<line class="st8" x1="620.2" y1="-8.4" x2="616.2" y2="-4.5"/>
	<text transform="matrix(0.7071 0.7071 -0.7071 0.7071 611.1498 -1.6287)" class="st9 st6 st7">0</text>
	<line class="st10" x1="617.6" y1="-10.9" x2="615.7" y2="-8.9"/>
	<line class="st10" x1="615" y1="-13.3" x2="613.1" y2="-11.2"/>
	<line class="st10" x1="612.3" y1="-15.5" x2="610.6" y2="-13.3"/>
	<line class="st10" x1="609.7" y1="-17.6" x2="608" y2="-15.3"/>
	<line class="st8" x1="607" y1="-19.5" x2="603.8" y2="-15"/>
	<text transform="matrix(0.817 0.5766 -0.5766 0.817 597.3791 -12.6187)" class="st9 st6 st13">.05</text>
	<line class="st10" x1="604.4" y1="-21.3" x2="602.8" y2="-19"/>
	<line class="st10" x1="601.7" y1="-23" x2="600.3" y2="-20.6"/>
	<line class="st10" x1="599.1" y1="-24.6" x2="597.7" y2="-22.1"/>
	<line class="st10" x1="596.5" y1="-26" x2="595.1" y2="-23.6"/>
	<line class="st8" x1="593.9" y1="-27.4" x2="591.3" y2="-22.4"/>
	<text transform="matrix(0.895 0.446 -0.446 0.895 586.7709 -18.4031)" class="st9 st6 st13">.1</text>
	<line class="st10" x1="591.3" y1="-28.6" x2="590.1" y2="-26.1"/>
	<line class="st10" x1="588.7" y1="-29.8" x2="587.6" y2="-27.2"/>
	<line class="st10" x1="586.2" y1="-30.8" x2="585.2" y2="-28.2"/>
	<line class="st10" x1="583.7" y1="-31.7" x2="582.7" y2="-29.1"/>
	<line class="st8" x1="581.2" y1="-32.6" x2="579.4" y2="-27.3"/>
	<line class="st10" x1="578.8" y1="-33.4" x2="578" y2="-30.8"/>
	<line class="st10" x1="576.4" y1="-34.1" x2="575.7" y2="-31.4"/>
	<line class="st10" x1="574.1" y1="-34.8" x2="573.4" y2="-32"/>
	<line class="st10" x1="571.7" y1="-35.3" x2="571.1" y2="-32.6"/>
	<line class="st8" x1="569.5" y1="-35.8" x2="568.3" y2="-30.3"/>
	<text transform="matrix(0.9789 0.2043 -0.2043 0.9789 564.9152 -25.3554)" class="st9 st6 st7">.2</text>
	<line class="st10" x1="567.3" y1="-36.3" x2="566.7" y2="-33.5"/>
	<line class="st10" x1="565.1" y1="-36.7" x2="564.6" y2="-33.9"/>
	<line class="st10" x1="562.9" y1="-37" x2="562.5" y2="-34.2"/>
	<line class="st10" x1="560.8" y1="-37.3" x2="560.5" y2="-34.5"/>
	<line class="st8" x1="558.8" y1="-37.5" x2="558.2" y2="-31.9"/>
	<line class="st10" x1="556.7" y1="-37.6" x2="556.5" y2="-34.9"/>
	<line class="st10" x1="554.7" y1="-37.8" x2="554.6" y2="-35"/>
	<line class="st10" x1="552.8" y1="-37.9" x2="552.7" y2="-35.1"/>
	<line class="st10" x1="550.9" y1="-37.9" x2="550.9" y2="-35.2"/>
	<line class="st8" x1="549.1" y1="-38" x2="549.1" y2="-32.3"/>
	<text transform="matrix(1 1.864882e-03 -1.864882e-03 1 546.7765 -26.7279)" class="st9 st6 st12">.3</text>
	<line class="st10" x1="547.3" y1="-37.9" x2="547.3" y2="-35.2"/>
	<line class="st10" x1="545.5" y1="-37.9" x2="545.6" y2="-35.1"/>
	<line class="st10" x1="543.8" y1="-37.9" x2="543.9" y2="-35"/>
	<line class="st10" x1="542.1" y1="-37.7" x2="542.3" y2="-35"/>
	<line class="st8" x1="540.5" y1="-37.6" x2="540.9" y2="-32"/>
	<line class="st10" x1="538.9" y1="-37.5" x2="539.2" y2="-34.7"/>
	<line class="st10" x1="537.3" y1="-37.3" x2="537.6" y2="-34.5"/>
	<line class="st10" x1="535.8" y1="-37.1" x2="536.2" y2="-34.4"/>
	<line class="st10" x1="534.3" y1="-36.9" x2="534.7" y2="-34.1"/>
	<line class="st8" x1="532.8" y1="-36.7" x2="533.7" y2="-31.2"/>
	<text transform="matrix(0.9872 -0.1594 0.1594 0.9872 532.3172 -25.2492)" class="st9 st6 st7">.4</text>
	<line class="st10" x1="531.4" y1="-36.4" x2="531.9" y2="-33.7"/>
	<line class="st10" x1="530.1" y1="-36.2" x2="530.6" y2="-33.5"/>
	<line class="st10" x1="528.7" y1="-35.9" x2="529.2" y2="-33.2"/>
	<line class="st10" x1="527.4" y1="-35.6" x2="528" y2="-32.9"/>
	<line class="st8" x1="526.1" y1="-35.3" x2="527.4" y2="-29.9"/>
	<line class="st10" x1="524.9" y1="-35.1" x2="525.5" y2="-32.3"/>
	<line class="st10" x1="523.6" y1="-34.7" x2="524.4" y2="-32"/>
	<line class="st10" x1="522.5" y1="-34.4" x2="523.2" y2="-31.7"/>
	<line class="st10" x1="521.3" y1="-34.1" x2="522.1" y2="-31.4"/>
	<line class="st8" x1="520.2" y1="-33.8" x2="521.8" y2="-28.4"/>
	<text transform="matrix(0.9586 -0.2847 0.2847 0.9586 521.158 -22.3949)" class="st9 st6 st13">.5</text>
	<line class="st10" x1="518.1" y1="-33.1" x2="518.9" y2="-30.5"/>
	<line class="st10" x1="516" y1="-32.4" x2="516.9" y2="-29.8"/>
	<line class="st10" x1="514.1" y1="-31.7" x2="515.1" y2="-29.1"/>
	<line class="st10" x1="512.2" y1="-31.1" x2="513.3" y2="-28.5"/>
	<line class="st8" x1="510.5" y1="-30.4" x2="512.6" y2="-25.2"/>
	<text transform="matrix(0.9246 -0.381 0.381 0.9246 512.6116 -19.1215)" class="st9 st6 st14">.6</text>
	<line class="st10" x1="508.9" y1="-29.7" x2="510" y2="-27.1"/>
	<line class="st10" x1="507.3" y1="-29" x2="508.4" y2="-26.4"/>
	<line class="st10" x1="505.8" y1="-28.3" x2="507" y2="-25.8"/>
	<line class="st10" x1="504.4" y1="-27.6" x2="505.6" y2="-25.1"/>
	<line class="st8" x1="503.1" y1="-27" x2="505.6" y2="-22"/>
	<text transform="matrix(0.8907 -0.4547 0.4547 0.8907 506.087 -15.9107)" class="st9 st6 st15">.7</text>
	<line class="st10" x1="500" y1="-25.3" x2="501.4" y2="-22.9"/>
	<line class="st8" x1="497.4" y1="-23.8" x2="500.2" y2="-19"/>
	<text transform="matrix(0.8595 -0.5111 0.5111 0.8595 501.1059 -12.9884)" class="st9 st6 st13">.8</text>
	<line class="st10" x1="495.1" y1="-22.4" x2="496.6" y2="-20"/>
	<line class="st8" x1="493" y1="-21.1" x2="496.1" y2="-16.4"/>
	<text transform="matrix(0.8322 -0.5544 0.5544 0.8322 497.2872 -10.4441)" class="st9 st6 st16">.9</text>
	<line class="st10" x1="491.2" y1="-19.8" x2="492.9" y2="-17.5"/>
	<line class="st8" x1="489.7" y1="-18.7" x2="492.9" y2="-14.2"/>
	<text transform="matrix(0.809 -0.5878 0.5878 0.809 494.9809 -8.7408)" class="st9 st6 st7">1</text>
	<line class="st10" x1="487" y1="-16.8" x2="488.8" y2="-14.5"/>
	<line class="st10" x1="485" y1="-15.1" x2="486.8" y2="-13"/>
	<line class="st10" x1="483.5" y1="-13.8" x2="485.3" y2="-11.7"/>
	<line class="st10" x1="482.2" y1="-12.7" x2="484.1" y2="-10.6"/>
	<line class="st8" x1="481.3" y1="-11.9" x2="485" y2="-7.7"/>
	<text transform="matrix(0.7413 -0.6711 0.6711 0.7413 485.8881 -0.9827)" class="st9 st6 st17">1.5</text>
	<polyline class="st8" points="478.8,-9.5 482.6,-5.5 482.6,5.8 484.5,5.8 	"/>
	<polyline class="st8" points="477.6,-8.4 481.6,-4.5 481.6,7.9 480,7.9 	"/>
	<text transform="matrix(1 0 0 1 475.7316 9.679)" class="st6 st7">∞</text>
	<text transform="matrix(1 0 0 1 484.5715 7.4458)" class="st6 st7">2</text>
	<g>
		<path class="st18" d="M548.9-39.6c28.5,0,54.2,11.6,72.9,30.3l5.3-5.3c-19.9-20.1-47.6-32.5-78.1-32.5s-58.2,12.4-78.1,32.5
			l5.3,5.3C494.6-28.1,520.4-39.6,548.9-39.6z"/>
	</g>
	<path class="st19" d="M612.3-0.5"/>
	<path class="st19" d="M628.1-16.2c-20.2-20.3-48.2-32.9-79.2-32.9c-30.9,0-58.9,12.6-79.2,32.9"/>
	<path class="st19" d="M612.3-0.5"/>
	<path class="st19" d="M620.2-8.3C602-26.7,576.7-38,548.9-38s-53.1,11.4-71.3,29.6"/>
</g>
</svg>
