<?xml version="1.0" encoding="utf-8"?>
<!-- Generator: Adobe Illustrator 19.2.1, SVG Export Plug-In . SVG Version: 6.00 Build 0)  -->
<svg version="1.1" id="Layer_1" xmlns="http://www.w3.org/2000/svg" xmlns:xlink="http://www.w3.org/1999/xlink" x="0px" y="0px"
	 viewBox="0 0 280 200" style="enable-background:new 0 0 280 200;" xml:space="preserve">
<style type="text/css">
	.st0{fill:#F9F1DA;stroke:#C6B997;stroke-miterlimit:10;}
	.st1{fill:#F4EFE4;stroke:#010101;stroke-width:0.5;stroke-miterlimit:10;}
	.st2{fill:#F9F1DA;stroke:#010101;stroke-miterlimit:10;}
	.st3{fill:none;stroke:#010101;stroke-width:0.5;stroke-miterlimit:10;}
	.st4{enable-background:new    ;}
</style>
<g>
	<path class="st0" d="M3.5,2.5v195h273V2.5H3.5z M98.7,129.2c-16,0-29-13-29-29s13-29,29-29s29,13,29,29
		C127.8,116.2,114.8,129.2,98.7,129.2z"/>
	<path class="st1" d="M89.8,100c0-10.1,1.7-19.8,4.9-28.8c-14.1,2-25,14.1-25,28.8c0,14.7,10.9,26.8,25,28.8
		C91.5,119.8,89.8,110.1,89.8,100z"/>
	<path class="st0" d="M176.4,51.5h-72.8c-26.8,0-48.5,21.7-48.5,48.5s21.7,48.5,48.5,48.5h72.8c26.8,0,48.5-21.7,48.5-48.5
		S203.2,51.5,176.4,51.5z M98.8,129.1c-16.1,0-29.1-13-29.1-29.1s13-29.1,29.1-29.1s29.1,13,29.1,29.1S114.8,129.1,98.8,129.1z"/>
	<circle class="st2" cx="176.4" cy="100" r="38.8"/>
	<line class="st3" x1="89.8" y1="100" x2="69.7" y2="100"/>
	<g class="st4">
		<path d="M89.3,177.6L86.4,167h0l-2.9,10.6h-1.7L78.5,165h1.7l2.5,10.4h0l2.8-10.4h1.8l2.8,10.4h0l2.5-10.4h1.7L91,177.6H89.3z"/>
		<path d="M100.8,165l4.9,12.6h-1.8l-1.4-3.8h-5.3l-1.4,3.8h-1.7L99,165H100.8z M102,172.4l-2.1-5.9h0l-2.1,5.9H102z"/>
		<path d="M109.2,177.6l-4.4-12.6h1.8l3.6,10.9h0l3.6-10.9h1.7l-4.5,12.6H109.2z"/>
		<path d="M125.5,165v1.4h-7v4h6.5v1.4h-6.5v4.3h7.1v1.4h-8.7V165H125.5z"/>
		<path d="M129.3,165v11.1h6.6v1.4h-8.3V165H129.3z"/>
		<path d="M146.1,165v1.4h-7v4h6.5v1.4h-6.5v4.3h7.1v1.4h-8.7V165H146.1z"/>
		<path d="M149.9,165l6.6,10.2h0V165h1.6v12.6h-1.8l-6.6-10.1h0v10.1h-1.6V165H149.9z"/>
		<path d="M168.4,177.4c-0.7,0.3-1.5,0.4-2.2,0.4c-0.9,0-1.8-0.2-2.5-0.5c-0.7-0.3-1.4-0.8-1.9-1.4c-0.5-0.6-0.9-1.3-1.2-2
			c-0.3-0.8-0.4-1.6-0.4-2.4c0-0.9,0.1-1.8,0.4-2.6c0.3-0.8,0.6-1.6,1.1-2.2c0.5-0.6,1.1-1.1,1.9-1.5c0.7-0.4,1.6-0.6,2.6-0.6
			c0.7,0,1.3,0.1,1.9,0.2s1.1,0.4,1.6,0.7c0.5,0.3,0.9,0.8,1.2,1.3s0.5,1.2,0.7,1.9h-1.7c-0.1-0.5-0.2-0.9-0.5-1.2
			c-0.2-0.3-0.5-0.6-0.8-0.9s-0.7-0.4-1.1-0.5s-0.9-0.2-1.3-0.2c-0.8,0-1.4,0.2-2,0.5c-0.5,0.3-1,0.7-1.3,1.2
			c-0.3,0.5-0.6,1.1-0.8,1.7s-0.2,1.3-0.2,2c0,0.7,0.1,1.3,0.3,1.9c0.2,0.6,0.5,1.1,0.8,1.6s0.8,0.8,1.3,1.1
			c0.5,0.3,1.2,0.4,1.9,0.4c0.7,0,1.2-0.1,1.7-0.3c0.5-0.2,0.9-0.5,1.3-0.9c0.3-0.4,0.6-0.8,0.8-1.3s0.3-1,0.2-1.6h-4V171h5.5v6.6
			h-1.1l-0.4-1.6C169.7,176.7,169.1,177.1,168.4,177.4z"/>
		<path d="M172.9,166.4V165h10v1.4h-4.2v11.1H177v-11.1H172.9z"/>
		<path d="M186,165v5.4h6.6V165h1.7v12.6h-1.7v-5.8H186v5.8h-1.7V165H186z"/>
	</g>
</g>
</svg>
