<?xml version="1.0" encoding="utf-8"?>
<!-- Generator: Adobe Illustrator 19.2.1, SVG Export Plug-In . SVG Version: 6.00 Build 0)  -->
<svg version="1.1" id="Layer_1" xmlns="http://www.w3.org/2000/svg" xmlns:xlink="http://www.w3.org/1999/xlink" x="0px" y="0px"
	 viewBox="0 0 400 300" style="enable-background:new 0 0 400 300;" xml:space="preserve">
<style type="text/css">
	.st0{fill:#331B0E;stroke:#000000;stroke-miterlimit:10;}
	.st1{fill:#3B1E0E;stroke:#000000;stroke-miterlimit:10;}
	.st2{fill:#2BB673;stroke:#000000;stroke-miterlimit:10;}
	.st3{fill:#67C18C;stroke:#000000;stroke-miterlimit:10;}
	.st4{fill:none;stroke:#000000;stroke-miterlimit:10;}
	.st5{fill:#FFFFFF;stroke:#A7A9AC;stroke-miterlimit:10;}
	.st6{enable-background:new    ;}
	.st7{fill:#FFFFFF;}
	.st8{fill:#FFFFFF;stroke:#000000;stroke-miterlimit:10;}
	.st9{fill:#FFFFFF;stroke:#000000;stroke-linecap:round;stroke-miterlimit:10;}
	.st10{fill:#006838;}
	.st11{fill:#589C75;stroke:#000000;stroke-linecap:round;stroke-miterlimit:10;}
	.st12{fill:#E6E7E8;}
</style>
<rect y="280" class="st0" width="400" height="20"/>
<polygon class="st1" points="400,280 0,280 35,200 365,200 "/>
<rect x="50" y="120" class="st2" width="300" height="130"/>
<polygon class="st3" points="330,80 70,80 50,120 350,120 "/>
<ellipse class="st4" cx="200" cy="100" rx="91.5" ry="15.4"/>
<rect x="124.5" y="134.7" class="st5" width="151.1" height="97"/>
<g class="st6">
	<path d="M141.9,161.7l3.8,16.5l0.8,4.6l0.8-4.5l3.3-16.6h6.3l3.4,16.5l0.9,4.6l0.9-4.4l3.8-16.7h6.1l-8.1,28.8h-5.8l-3.5-16.8
		l-1-5.6l-1,5.6l-3.5,16.8h-5.6l-8.2-28.8H141.9z"/>
	<path d="M180.6,166.7H175v-5.1h5.6V166.7z M175,169.2h5.6v21.3H175V169.2z"/>
	<path d="M203.9,171.5c1.7,1.8,2.6,4.5,2.6,8.1c0,3.8-0.8,6.6-2.5,8.6c-1.7,2-3.9,2.9-6.6,2.9c-1.7,0-3.1-0.4-4.2-1.3
		c-0.6-0.5-1.2-1.2-1.8-2.1v11.1h-5.5v-29.7h5.3v3.1c0.6-0.9,1.2-1.7,1.9-2.2c1.2-1,2.7-1.4,4.4-1.4
		C200.1,168.8,202.2,169.7,203.9,171.5z M199.7,175.5c-0.8-1.3-2-1.9-3.7-1.9c-2,0-3.4,1-4.2,2.9c-0.4,1-0.6,2.3-0.6,3.9
		c0,2.5,0.7,4.2,2,5.2c0.8,0.6,1.7,0.9,2.8,0.9c1.6,0,2.8-0.6,3.6-1.8c0.8-1.2,1.2-2.8,1.2-4.8C200.8,178.2,200.4,176.8,199.7,175.5
		z"/>
	<path d="M224.3,169.7c1.5,0.7,2.7,1.7,3.7,3.1c0.9,1.3,1.4,2.7,1.7,4.4c0.1,1,0.2,2.4,0.2,4.2h-15.5c0.1,2.1,0.8,3.6,2.2,4.5
		c0.9,0.5,1.9,0.8,3.1,0.8c1.3,0,2.3-0.3,3.1-1c0.4-0.4,0.8-0.8,1.1-1.5h5.7c-0.1,1.3-0.8,2.5-2.1,3.8c-1.9,2.1-4.6,3.1-8,3.1
		c-2.8,0-5.3-0.9-7.5-2.6s-3.2-4.6-3.2-8.5c0-3.7,1-6.5,2.9-8.5s4.5-3,7.6-3C221.2,168.7,222.9,169,224.3,169.7z M216,174.5
		c-0.8,0.8-1.3,1.9-1.5,3.3h9.6c-0.1-1.5-0.6-2.6-1.5-3.4c-0.9-0.8-2-1.1-3.3-1.1C217.9,173.3,216.8,173.7,216,174.5z"/>
	<path d="M237,183.7c0.1,1,0.4,1.7,0.8,2.1c0.7,0.7,2,1.1,3.8,1.1c1.1,0,2-0.2,2.6-0.5s1-0.8,1-1.5c0-0.6-0.3-1.1-0.8-1.4
		c-0.5-0.3-2.5-0.9-5.8-1.7c-2.4-0.6-4.1-1.3-5.1-2.2c-1-0.9-1.5-2.2-1.5-3.8c0-2,0.8-3.7,2.3-5.1s3.7-2.1,6.5-2.1
		c2.7,0,4.8,0.5,6.5,1.6c1.7,1.1,2.6,2.9,2.9,5.5h-5.6c-0.1-0.7-0.3-1.3-0.6-1.7c-0.6-0.8-1.7-1.1-3.1-1.1c-1.2,0-2.1,0.2-2.6,0.6
		s-0.8,0.8-0.8,1.3c0,0.6,0.3,1.1,0.8,1.4c0.5,0.3,2.5,0.8,5.8,1.5c2.2,0.5,3.9,1.3,5,2.4c1.1,1.1,1.6,2.4,1.6,4
		c0,2.1-0.8,3.8-2.4,5.2s-4,2-7.3,2c-3.4,0-5.8-0.7-7.4-2.1s-2.4-3.2-2.4-5.4H237z"/>
</g>
<g class="st6">
	<path d="M135.7,203.4h1.1l3.6,5.8v-5.8h0.9v7.2h-1.1l-3.6-5.8v5.8h-0.9V203.4z"/>
	<path d="M146.6,205.8c0.5,0.4,0.7,1.1,0.7,2c0,0.8-0.2,1.5-0.6,2.1s-1,0.8-1.9,0.8c-0.7,0-1.3-0.2-1.7-0.7c-0.4-0.5-0.6-1.1-0.6-2
		c0-0.9,0.2-1.6,0.7-2.1s1-0.8,1.8-0.8C145.5,205.1,146.1,205.4,146.6,205.8z M146,209.3c0.2-0.4,0.3-0.9,0.3-1.5
		c0-0.5-0.1-0.9-0.2-1.2c-0.2-0.5-0.7-0.7-1.3-0.7c-0.5,0-0.9,0.2-1.2,0.6c-0.2,0.4-0.4,0.9-0.4,1.5c0,0.6,0.1,1,0.4,1.4
		c0.2,0.4,0.6,0.6,1.1,0.6C145.4,210,145.8,209.7,146,209.3z"/>
	<path d="M148.3,205.3h0.8v0.7c0.2-0.3,0.5-0.5,0.8-0.7s0.6-0.2,0.9-0.2c0.7,0,1.2,0.3,1.5,0.8c0.1,0.3,0.2,0.7,0.2,1.2v3.4h-0.9
		v-3.3c0-0.3,0-0.6-0.1-0.8c-0.2-0.3-0.4-0.5-0.8-0.5c-0.2,0-0.4,0-0.5,0.1c-0.2,0.1-0.5,0.2-0.6,0.4c-0.1,0.2-0.2,0.4-0.3,0.5
		c0,0.2-0.1,0.4-0.1,0.8v2.7h-0.9V205.3z"/>
	<path d="M153.7,207.3h2.5v0.9h-2.5V207.3z"/>
	<path d="M157.4,203.4h1.1l3.6,5.8v-5.8h0.9v7.2h-1.1l-3.6-5.8v5.8h-0.9V203.4z"/>
	<path d="M167.3,207.4c0.2,0,0.3-0.1,0.4-0.3c0-0.1,0.1-0.2,0.1-0.3c0-0.3-0.1-0.5-0.3-0.7s-0.5-0.2-0.9-0.2c-0.5,0-0.8,0.1-1,0.4
		c-0.1,0.1-0.2,0.3-0.2,0.6h-0.8c0-0.6,0.2-1.1,0.6-1.3c0.4-0.3,0.9-0.4,1.4-0.4c0.6,0,1.1,0.1,1.5,0.4c0.4,0.2,0.6,0.6,0.6,1.1v3
		c0,0.1,0,0.2,0.1,0.2c0,0.1,0.1,0.1,0.2,0.1c0,0,0.1,0,0.1,0c0,0,0.1,0,0.2,0v0.6c-0.1,0-0.2,0.1-0.3,0.1s-0.2,0-0.3,0
		c-0.3,0-0.5-0.1-0.7-0.3c-0.1-0.1-0.1-0.3-0.2-0.5c-0.2,0.2-0.4,0.4-0.8,0.6s-0.7,0.3-1.1,0.3c-0.5,0-0.9-0.1-1.2-0.4
		s-0.5-0.7-0.5-1.1c0-0.5,0.2-0.9,0.5-1.1s0.7-0.4,1.2-0.5L167.3,207.4z M165.4,209.7c0.2,0.1,0.4,0.2,0.7,0.2
		c0.3,0,0.6-0.1,0.9-0.2c0.5-0.2,0.7-0.6,0.7-1.2v-0.7c-0.1,0.1-0.2,0.1-0.4,0.2s-0.3,0.1-0.5,0.1l-0.5,0.1c-0.3,0-0.6,0.1-0.7,0.2
		c-0.3,0.2-0.4,0.4-0.4,0.7C165.1,209.4,165.2,209.6,165.4,209.7z"/>
	<path d="M170,205.3h0.9v0.7c0.2-0.3,0.4-0.4,0.6-0.6c0.3-0.2,0.6-0.3,1-0.3c0.4,0,0.8,0.1,1,0.3c0.1,0.1,0.3,0.3,0.4,0.5
		c0.2-0.3,0.4-0.5,0.7-0.6c0.3-0.1,0.6-0.2,0.9-0.2c0.7,0,1.2,0.3,1.4,0.8c0.1,0.3,0.2,0.6,0.2,1.1v3.5h-0.9v-3.6
		c0-0.3-0.1-0.6-0.3-0.7s-0.4-0.2-0.6-0.2c-0.3,0-0.6,0.1-0.9,0.3s-0.4,0.6-0.4,1.2v3h-0.9v-3.4c0-0.4,0-0.6-0.1-0.8
		c-0.1-0.2-0.4-0.4-0.7-0.4c-0.3,0-0.6,0.1-0.9,0.4s-0.4,0.7-0.4,1.4v2.8H170V205.3z"/>
	<path d="M181.6,205.4c0.3,0.2,0.6,0.4,0.8,0.7c0.2,0.3,0.3,0.6,0.3,0.9c0.1,0.2,0.1,0.6,0.1,1.2H179c0,0.5,0.1,1,0.4,1.3
		s0.6,0.5,1.1,0.5c0.5,0,0.8-0.2,1.1-0.5c0.2-0.2,0.3-0.4,0.3-0.6h0.9c0,0.2-0.1,0.4-0.2,0.6c-0.1,0.2-0.3,0.4-0.4,0.6
		c-0.3,0.3-0.6,0.4-1,0.5c-0.2,0.1-0.4,0.1-0.7,0.1c-0.6,0-1.2-0.2-1.6-0.7c-0.4-0.5-0.7-1.1-0.7-2c0-0.8,0.2-1.5,0.7-2
		c0.5-0.5,1-0.8,1.8-0.8C180.9,205.2,181.2,205.3,181.6,205.4z M181.9,207.5c0-0.4-0.1-0.7-0.2-0.9c-0.2-0.4-0.6-0.6-1.2-0.6
		c-0.4,0-0.7,0.1-1,0.4c-0.3,0.3-0.4,0.7-0.4,1.1H181.9z"/>
	<path d="M186.8,203.4h3.1c0.8,0,1.4,0.3,1.8,0.8c0.2,0.3,0.3,0.6,0.3,1c0,0.5-0.1,0.8-0.4,1.1c-0.1,0.2-0.3,0.3-0.6,0.4
		c0.4,0.1,0.6,0.3,0.8,0.5c0.3,0.3,0.5,0.7,0.5,1.3c0,0.5-0.1,0.9-0.4,1.3c-0.4,0.6-1.1,0.8-2.1,0.8h-3.1V203.4z M189.5,206.4
		c0.4,0,0.7-0.1,1-0.2c0.4-0.2,0.5-0.5,0.5-1c0-0.5-0.2-0.8-0.6-0.9c-0.2-0.1-0.5-0.1-1-0.1h-1.8v2.2H189.5z M189.9,209.7
		c0.6,0,1-0.2,1.3-0.5c0.2-0.2,0.2-0.5,0.2-0.8c0-0.5-0.2-0.9-0.7-1.1c-0.2-0.1-0.6-0.2-1-0.2h-1.9v2.5H189.9z"/>
	<path d="M193.4,205.3h0.8v0.9c0.1-0.2,0.2-0.4,0.5-0.6c0.3-0.3,0.6-0.4,0.9-0.4c0,0,0,0,0.1,0s0.1,0,0.2,0v0.9c-0.1,0-0.1,0-0.1,0
		s-0.1,0-0.1,0c-0.4,0-0.8,0.1-1,0.4c-0.2,0.3-0.4,0.6-0.4,1v3h-0.9V205.3z"/>
	<path d="M199.5,207.4c0.2,0,0.3-0.1,0.4-0.3c0-0.1,0.1-0.2,0.1-0.3c0-0.3-0.1-0.5-0.3-0.7s-0.5-0.2-0.9-0.2c-0.5,0-0.8,0.1-1,0.4
		c-0.1,0.1-0.2,0.3-0.2,0.6h-0.8c0-0.6,0.2-1.1,0.6-1.3c0.4-0.3,0.9-0.4,1.4-0.4c0.6,0,1.1,0.1,1.5,0.4c0.4,0.2,0.6,0.6,0.6,1.1v3
		c0,0.1,0,0.2,0.1,0.2c0,0.1,0.1,0.1,0.2,0.1c0,0,0.1,0,0.1,0c0,0,0.1,0,0.2,0v0.6c-0.1,0-0.2,0.1-0.3,0.1c-0.1,0-0.2,0-0.3,0
		c-0.3,0-0.5-0.1-0.7-0.3c-0.1-0.1-0.1-0.3-0.2-0.5c-0.2,0.2-0.4,0.4-0.8,0.6s-0.7,0.3-1.1,0.3c-0.5,0-0.9-0.1-1.2-0.4
		s-0.5-0.7-0.5-1.1c0-0.5,0.2-0.9,0.5-1.1s0.7-0.4,1.2-0.5L199.5,207.4z M197.6,209.7c0.2,0.1,0.4,0.2,0.7,0.2
		c0.3,0,0.6-0.1,0.9-0.2c0.5-0.2,0.7-0.6,0.7-1.2v-0.7c-0.1,0.1-0.2,0.1-0.4,0.2s-0.3,0.1-0.5,0.1l-0.5,0.1c-0.3,0-0.6,0.1-0.7,0.2
		c-0.3,0.2-0.4,0.4-0.4,0.7C197.4,209.4,197.5,209.6,197.6,209.7z"/>
	<path d="M202.3,205.3h0.8v0.7c0.2-0.3,0.5-0.5,0.8-0.7c0.3-0.1,0.6-0.2,0.9-0.2c0.7,0,1.2,0.3,1.5,0.8c0.1,0.3,0.2,0.7,0.2,1.2v3.4
		h-0.9v-3.3c0-0.3,0-0.6-0.1-0.8c-0.2-0.3-0.4-0.5-0.8-0.5c-0.2,0-0.4,0-0.5,0.1c-0.2,0.1-0.5,0.2-0.6,0.4c-0.1,0.2-0.2,0.4-0.3,0.5
		c0,0.2-0.1,0.4-0.1,0.8v2.7h-0.9V205.3z"/>
	<path d="M210.7,205.5c0.2,0.1,0.3,0.3,0.5,0.5v-2.6h0.8v7.2h-0.8v-0.7c-0.2,0.3-0.4,0.6-0.7,0.7s-0.6,0.2-1,0.2
		c-0.6,0-1.1-0.2-1.5-0.7c-0.4-0.5-0.6-1.1-0.6-2c0-0.8,0.2-1.4,0.6-2c0.4-0.6,0.9-0.8,1.7-0.8C210.1,205.2,210.4,205.3,210.7,205.5
		z M208.7,209.4c0.2,0.4,0.6,0.6,1.1,0.6c0.4,0,0.7-0.2,1-0.5c0.3-0.4,0.4-0.9,0.4-1.5c0-0.7-0.1-1.1-0.4-1.5
		c-0.3-0.3-0.6-0.5-1-0.5c-0.4,0-0.8,0.2-1.1,0.5c-0.3,0.3-0.4,0.8-0.4,1.5C208.4,208.5,208.5,209,208.7,209.4z"/>
</g>
<g class="st6">
	<path d="M135.7,215.4h2.9c1,0,1.7,0.3,2.3,1c0.5,0.6,0.7,1.4,0.7,2.4c0,0.8-0.1,1.5-0.4,2.1c-0.5,1.1-1.4,1.6-2.6,1.6h-2.9V215.4z
		 M138.4,221.7c0.3,0,0.6,0,0.8-0.1c0.4-0.1,0.7-0.4,0.9-0.7c0.2-0.3,0.3-0.7,0.4-1.1c0-0.3,0.1-0.5,0.1-0.8c0-0.9-0.2-1.6-0.5-2.1
		s-0.9-0.7-1.7-0.7h-1.7v5.5H138.4z"/>
	<path d="M146,217.4c0.3,0.2,0.6,0.4,0.8,0.7c0.2,0.3,0.3,0.6,0.3,0.9c0.1,0.2,0.1,0.6,0.1,1.2h-3.8c0,0.5,0.1,1,0.4,1.3
		s0.6,0.5,1.1,0.5c0.5,0,0.8-0.2,1.1-0.5c0.2-0.2,0.3-0.4,0.3-0.6h0.9c0,0.2-0.1,0.4-0.2,0.6c-0.1,0.2-0.3,0.4-0.4,0.6
		c-0.3,0.3-0.6,0.4-1,0.5c-0.2,0.1-0.4,0.1-0.7,0.1c-0.6,0-1.2-0.2-1.6-0.7c-0.4-0.5-0.7-1.1-0.7-2c0-0.8,0.2-1.5,0.7-2
		c0.5-0.5,1-0.8,1.8-0.8C145.3,217.2,145.7,217.3,146,217.4z M146.3,219.5c0-0.4-0.1-0.7-0.2-0.9c-0.2-0.4-0.6-0.6-1.2-0.6
		c-0.4,0-0.7,0.1-1,0.4c-0.3,0.3-0.4,0.7-0.4,1.1H146.3z"/>
	<path d="M148.4,215.4h0.9v7.2h-0.9V215.4z"/>
	<path d="M150.6,215.4h0.9v1h-0.9V215.4z M150.6,217.3h0.9v5.2h-0.9V217.3z"/>
	<path d="M156.2,217.6c0.4,0.3,0.6,0.8,0.7,1.5h-0.9c-0.1-0.3-0.2-0.6-0.4-0.8c-0.2-0.2-0.5-0.3-0.9-0.3c-0.6,0-1,0.3-1.2,0.8
		c-0.2,0.4-0.2,0.8-0.2,1.3c0,0.5,0.1,1,0.3,1.3c0.2,0.4,0.6,0.5,1,0.5c0.4,0,0.7-0.1,0.9-0.3c0.2-0.2,0.4-0.5,0.4-0.9h0.9
		c-0.1,0.7-0.3,1.2-0.7,1.5c-0.4,0.3-0.9,0.5-1.5,0.5c-0.7,0-1.2-0.2-1.6-0.7c-0.4-0.5-0.6-1.1-0.6-1.9c0-0.9,0.2-1.6,0.7-2.1
		s1-0.8,1.7-0.8C155.4,217.1,155.9,217.3,156.2,217.6z"/>
	<path d="M160.6,219.4c0.2,0,0.3-0.1,0.4-0.3c0-0.1,0.1-0.2,0.1-0.3c0-0.3-0.1-0.5-0.3-0.7s-0.5-0.2-0.9-0.2c-0.5,0-0.8,0.1-1,0.4
		c-0.1,0.1-0.2,0.3-0.2,0.6h-0.8c0-0.6,0.2-1.1,0.6-1.3c0.4-0.3,0.9-0.4,1.4-0.4c0.6,0,1.1,0.1,1.5,0.4c0.4,0.2,0.6,0.6,0.6,1.1v3
		c0,0.1,0,0.2,0.1,0.2c0,0.1,0.1,0.1,0.2,0.1c0,0,0.1,0,0.1,0c0,0,0.1,0,0.2,0v0.6c-0.1,0-0.2,0.1-0.3,0.1s-0.2,0-0.3,0
		c-0.3,0-0.5-0.1-0.7-0.3c-0.1-0.1-0.1-0.3-0.2-0.5c-0.2,0.2-0.4,0.4-0.8,0.6s-0.7,0.3-1.1,0.3c-0.5,0-0.9-0.1-1.2-0.4
		s-0.5-0.7-0.5-1.1c0-0.5,0.2-0.9,0.5-1.1s0.7-0.4,1.2-0.5L160.6,219.4z M158.7,221.7c0.2,0.1,0.4,0.2,0.7,0.2
		c0.3,0,0.6-0.1,0.9-0.2c0.5-0.2,0.7-0.6,0.7-1.2v-0.7c-0.1,0.1-0.2,0.1-0.4,0.2s-0.3,0.1-0.5,0.1l-0.5,0.1c-0.3,0-0.6,0.1-0.7,0.2
		c-0.3,0.2-0.4,0.4-0.4,0.7C158.5,221.4,158.6,221.6,158.7,221.7z"/>
	<path d="M163.5,215.8h0.9v1.5h0.8v0.7h-0.8v3.4c0,0.2,0.1,0.3,0.2,0.4c0.1,0,0.2,0.1,0.3,0.1c0,0,0.1,0,0.1,0s0.1,0,0.2,0v0.7
		c-0.1,0-0.2,0.1-0.3,0.1s-0.2,0-0.4,0c-0.4,0-0.7-0.1-0.8-0.3c-0.1-0.2-0.2-0.5-0.2-0.8V218h-0.7v-0.7h0.7V215.8z"/>
	<path d="M169.4,217.4c0.3,0.2,0.6,0.4,0.8,0.7c0.2,0.3,0.3,0.6,0.3,0.9c0.1,0.2,0.1,0.6,0.1,1.2h-3.8c0,0.5,0.1,1,0.4,1.3
		s0.6,0.5,1.1,0.5c0.5,0,0.8-0.2,1.1-0.5c0.2-0.2,0.3-0.4,0.3-0.6h0.9c0,0.2-0.1,0.4-0.2,0.6c-0.1,0.2-0.3,0.4-0.4,0.6
		c-0.3,0.3-0.6,0.4-1,0.5c-0.2,0.1-0.4,0.1-0.7,0.1c-0.6,0-1.2-0.2-1.6-0.7c-0.4-0.5-0.7-1.1-0.7-2c0-0.8,0.2-1.5,0.7-2
		c0.5-0.5,1-0.8,1.8-0.8C168.7,217.2,169,217.3,169.4,217.4z M169.7,219.5c0-0.4-0.1-0.7-0.2-0.9c-0.2-0.4-0.6-0.6-1.2-0.6
		c-0.4,0-0.7,0.1-1,0.4c-0.3,0.3-0.4,0.7-0.4,1.1H169.7z"/>
	<path d="M179.6,215.4v0.9h-2.4v6.3h-1v-6.3h-2.4v-0.9H179.6z"/>
	<path d="M182.1,219.4c0.2,0,0.3-0.1,0.4-0.3c0-0.1,0.1-0.2,0.1-0.3c0-0.3-0.1-0.5-0.3-0.7s-0.5-0.2-0.9-0.2c-0.5,0-0.8,0.1-1,0.4
		c-0.1,0.1-0.2,0.3-0.2,0.6h-0.8c0-0.6,0.2-1.1,0.6-1.3c0.4-0.3,0.9-0.4,1.4-0.4c0.6,0,1.1,0.1,1.5,0.4c0.4,0.2,0.6,0.6,0.6,1.1v3
		c0,0.1,0,0.2,0.1,0.2c0,0.1,0.1,0.1,0.2,0.1c0,0,0.1,0,0.1,0c0,0,0.1,0,0.2,0v0.6c-0.1,0-0.2,0.1-0.3,0.1s-0.2,0-0.3,0
		c-0.3,0-0.5-0.1-0.7-0.3c-0.1-0.1-0.1-0.3-0.2-0.5c-0.2,0.2-0.4,0.4-0.8,0.6s-0.7,0.3-1.1,0.3c-0.5,0-0.9-0.1-1.2-0.4
		s-0.5-0.7-0.5-1.1c0-0.5,0.2-0.9,0.5-1.1s0.7-0.4,1.2-0.5L182.1,219.4z M180.2,221.7c0.2,0.1,0.4,0.2,0.7,0.2
		c0.3,0,0.6-0.1,0.9-0.2c0.5-0.2,0.7-0.6,0.7-1.2v-0.7c-0.1,0.1-0.2,0.1-0.4,0.2s-0.3,0.1-0.5,0.1l-0.5,0.1c-0.3,0-0.6,0.1-0.7,0.2
		c-0.3,0.2-0.4,0.4-0.4,0.7C180,221.4,180.1,221.6,180.2,221.7z"/>
	<path d="M185.4,220.9c0,0.3,0.1,0.5,0.2,0.7c0.2,0.3,0.6,0.4,1.2,0.4c0.3,0,0.6-0.1,0.9-0.2c0.3-0.1,0.4-0.4,0.4-0.7
		c0-0.2-0.1-0.4-0.3-0.5c-0.1-0.1-0.4-0.2-0.8-0.2l-0.7-0.2c-0.5-0.1-0.8-0.2-1-0.4c-0.4-0.2-0.6-0.6-0.6-1c0-0.5,0.2-0.9,0.5-1.2
		c0.4-0.3,0.8-0.5,1.5-0.5c0.8,0,1.4,0.2,1.7,0.7c0.2,0.3,0.3,0.6,0.3,0.9h-0.8c0-0.2-0.1-0.4-0.2-0.5c-0.2-0.2-0.6-0.3-1.1-0.3
		c-0.3,0-0.6,0.1-0.8,0.2c-0.2,0.1-0.3,0.3-0.3,0.5c0,0.2,0.1,0.4,0.3,0.5c0.1,0.1,0.3,0.2,0.6,0.2l0.6,0.1c0.6,0.2,1.1,0.3,1.3,0.4
		c0.3,0.2,0.5,0.6,0.5,1.1c0,0.5-0.2,0.9-0.5,1.2c-0.4,0.3-0.9,0.5-1.6,0.5c-0.8,0-1.3-0.2-1.7-0.5c-0.3-0.4-0.5-0.8-0.5-1.3H185.4z
		"/>
	<path d="M189.8,215.4h0.8v4.2l2.3-2.2h1.1l-2,1.9l2.1,3.3H193l-1.6-2.7l-0.7,0.7v2h-0.8V215.4z"/>
	<path d="M198.2,215.4l1.4,5.8l1.6-5.8h1l1.6,5.8l1.4-5.8h1.1l-1.9,7.2h-1l-1.7-5.9l-1.7,5.9h-1l-1.9-7.2H198.2z"/>
	<path d="M207.1,215.4h0.9v1h-0.9V215.4z M207.1,217.3h0.9v5.2h-0.9V217.3z"/>
	<path d="M209.2,217.3h0.9v0.7c0.2-0.2,0.4-0.4,0.6-0.6c0.3-0.2,0.6-0.3,1-0.3c0.6,0,1.1,0.2,1.5,0.7c0.4,0.5,0.6,1.1,0.6,1.9
		c0,1.1-0.3,2-0.9,2.4c-0.4,0.3-0.8,0.5-1.3,0.5c-0.4,0-0.7-0.1-1-0.3c-0.2-0.1-0.3-0.3-0.5-0.5v2.7h-0.9V217.3z M212.5,221.4
		c0.3-0.3,0.4-0.9,0.4-1.5c0-0.4-0.1-0.8-0.2-1.1c-0.2-0.6-0.6-0.9-1.3-0.9c-0.6,0-1,0.3-1.3,0.9c-0.1,0.3-0.2,0.7-0.2,1.2
		c0,0.4,0.1,0.7,0.2,1c0.2,0.5,0.6,0.8,1.3,0.8C211.9,221.9,212.3,221.8,212.5,221.4z"/>
	<path d="M218.1,217.4c0.3,0.2,0.6,0.4,0.8,0.7c0.2,0.3,0.3,0.6,0.3,0.9c0.1,0.2,0.1,0.6,0.1,1.2h-3.8c0,0.5,0.1,1,0.4,1.3
		s0.6,0.5,1.1,0.5c0.5,0,0.8-0.2,1.1-0.5c0.2-0.2,0.3-0.4,0.3-0.6h0.9c0,0.2-0.1,0.4-0.2,0.6c-0.1,0.2-0.3,0.4-0.4,0.6
		c-0.3,0.3-0.6,0.4-1,0.5c-0.2,0.1-0.4,0.1-0.7,0.1c-0.6,0-1.2-0.2-1.6-0.7c-0.5-0.5-0.7-1.1-0.7-2c0-0.8,0.2-1.5,0.7-2
		s1-0.8,1.8-0.8C217.4,217.2,217.7,217.3,218.1,217.4z M218.4,219.5c0-0.4-0.1-0.7-0.2-0.9c-0.2-0.4-0.6-0.6-1.2-0.6
		c-0.4,0-0.7,0.1-1,0.4c-0.3,0.3-0.4,0.7-0.4,1.1H218.4z"/>
	<path d="M220.4,217.3h0.8v0.9c0.1-0.2,0.2-0.4,0.5-0.6c0.3-0.3,0.6-0.4,0.9-0.4c0,0,0,0,0.1,0s0.1,0,0.2,0v0.9c-0.1,0-0.1,0-0.1,0
		s-0.1,0-0.1,0c-0.4,0-0.8,0.1-1,0.4c-0.2,0.3-0.4,0.6-0.4,1v3h-0.9V217.3z"/>
	<path d="M224.3,220.9c0,0.3,0.1,0.5,0.2,0.7c0.2,0.3,0.6,0.4,1.2,0.4c0.3,0,0.6-0.1,0.9-0.2c0.3-0.1,0.4-0.4,0.4-0.7
		c0-0.2-0.1-0.4-0.3-0.5c-0.1-0.1-0.4-0.2-0.8-0.2l-0.7-0.2c-0.5-0.1-0.8-0.2-1-0.4c-0.4-0.2-0.6-0.6-0.6-1c0-0.5,0.2-0.9,0.5-1.2
		s0.8-0.5,1.5-0.5c0.8,0,1.4,0.2,1.7,0.7c0.2,0.3,0.3,0.6,0.3,0.9h-0.8c0-0.2-0.1-0.4-0.2-0.5c-0.2-0.2-0.6-0.3-1.1-0.3
		c-0.3,0-0.6,0.1-0.8,0.2c-0.2,0.1-0.3,0.3-0.3,0.5c0,0.2,0.1,0.4,0.3,0.5c0.1,0.1,0.3,0.2,0.6,0.2l0.6,0.1c0.6,0.2,1.1,0.3,1.3,0.4
		c0.3,0.2,0.5,0.6,0.5,1.1c0,0.5-0.2,0.9-0.5,1.2s-0.9,0.5-1.6,0.5c-0.8,0-1.3-0.2-1.7-0.5c-0.3-0.4-0.5-0.8-0.5-1.3H224.3z"/>
</g>
<g>
	<rect x="130.3" y="138.9" class="st7" width="84.6" height="19.5"/>
	<polyline class="st8" points="130.3,138.9 265.1,138.9 260.1,152.2 214.9,152.2 	"/>
</g>
<g class="st6">
	<path d="M142,145.6c-0.2-0.9-0.7-1.5-1.5-1.9c-0.4-0.2-0.9-0.3-1.5-0.3c-1,0-1.9,0.4-2.6,1.2c-0.7,0.8-1,2-1,3.5
		c0,1.6,0.4,2.7,1.1,3.4s1.6,1,2.5,1c0.9,0,1.7-0.3,2.2-0.8c0.6-0.5,0.9-1.2,1.1-2h-3v-2.2h5.4v7h-1.8l-0.3-1.6
		c-0.5,0.6-1,1-1.4,1.3c-0.7,0.4-1.6,0.7-2.6,0.7c-1.7,0-3.1-0.6-4.2-1.8c-1.1-1.2-1.7-2.8-1.7-4.9c0-2.1,0.6-3.8,1.7-5
		s2.7-1.9,4.6-1.9c1.6,0,3,0.4,4,1.3c1,0.8,1.6,1.9,1.7,3.1H142z"/>
	<path d="M156.9,143.9H150v2.8h6.3v2.2H150v3.3h7.2v2.3h-9.8v-13h9.5V143.9z"/>
	<path d="M159.2,141.6h2.8l5.1,9v-9h2.5v13H167l-5.3-9.2v9.2h-2.5V141.6z"/>
	<path d="M181.9,143.9H175v2.8h6.3v2.2H175v3.3h7.2v2.3h-9.8v-13h9.5V143.9z"/>
	<path d="M192.6,141.9c0.5,0.2,0.9,0.5,1.2,0.9c0.3,0.3,0.5,0.7,0.7,1.1c0.2,0.4,0.2,0.9,0.2,1.4c0,0.6-0.2,1.2-0.5,1.8
		c-0.3,0.6-0.8,1-1.5,1.3c0.6,0.2,1,0.6,1.3,1c0.2,0.4,0.4,1.1,0.4,2v0.9c0,0.6,0,1,0.1,1.2c0.1,0.3,0.2,0.6,0.5,0.7v0.3h-3
		c-0.1-0.3-0.1-0.5-0.2-0.7c-0.1-0.4-0.1-0.7-0.1-1.1l0-1.2c0-0.8-0.2-1.4-0.4-1.7s-0.8-0.4-1.5-0.4H187v5.1h-2.6v-13h6.2
		C191.4,141.6,192.1,141.7,192.6,141.9z M187,143.8v3.5h2.9c0.6,0,1-0.1,1.3-0.2c0.5-0.2,0.8-0.7,0.8-1.5c0-0.8-0.2-1.3-0.7-1.6
		c-0.3-0.2-0.7-0.2-1.3-0.2H187z"/>
	<path d="M199.8,154.5h-2.7v-13h2.7V154.5z"/>
	<path d="M203.5,142.9c1-1.1,2.4-1.6,4-1.6c2.2,0,3.7,0.7,4.7,2.1c0.6,0.8,0.8,1.6,0.9,2.4h-2.7c-0.2-0.6-0.4-1.1-0.7-1.4
		c-0.5-0.6-1.2-0.8-2.1-0.8c-1,0-1.7,0.4-2.3,1.2c-0.6,0.8-0.8,1.9-0.8,3.4s0.3,2.5,0.9,3.3c0.6,0.7,1.3,1.1,2.2,1.1
		c0.9,0,1.6-0.3,2.1-0.9c0.3-0.3,0.5-0.8,0.7-1.5h2.7c-0.2,1.4-0.8,2.6-1.8,3.4c-1,0.9-2.2,1.3-3.7,1.3c-1.8,0-3.3-0.6-4.3-1.8
		c-1.1-1.2-1.6-2.8-1.6-4.9C201.7,145.9,202.3,144.1,203.5,142.9z"/>
</g>
<g class="st6">
	<path d="M217.8,147.1c-0.1,0.5,0,0.9,0.1,1.2c0.3,0.6,0.9,0.9,1.9,0.9c0.4,0,0.8-0.1,1.2-0.2c0.7-0.2,1.2-0.7,1.3-1.3
		c0.1-0.5,0-0.8-0.2-1c-0.3-0.2-0.7-0.4-1.3-0.5l-1.1-0.3c-0.7-0.2-1.2-0.4-1.5-0.6c-0.5-0.4-0.6-0.9-0.5-1.6
		c0.2-0.8,0.6-1.4,1.2-1.9s1.5-0.7,2.4-0.7c0.9,0,1.6,0.2,2.2,0.7s0.7,1.1,0.5,2.1h-1.1c0-0.5,0-0.8-0.1-1.1
		c-0.3-0.4-0.8-0.7-1.7-0.7c-0.7,0-1.2,0.1-1.6,0.4s-0.6,0.6-0.7,1c-0.1,0.4,0,0.7,0.3,0.9c0.2,0.1,0.7,0.3,1.5,0.5l1.1,0.3
		c0.6,0.1,1,0.3,1.2,0.5c0.5,0.4,0.6,1,0.5,1.8c-0.2,1-0.7,1.6-1.5,2s-1.6,0.6-2.5,0.6c-1.1,0-1.8-0.3-2.3-0.8
		c-0.5-0.5-0.6-1.3-0.4-2.2H217.8z"/>
	<path d="M230.2,145.7h-1c0-0.4-0.1-0.7-0.2-1s-0.5-0.4-1-0.4c-0.7,0-1.2,0.3-1.7,1c-0.3,0.4-0.5,1-0.6,1.6
		c-0.1,0.6-0.1,1.2,0.1,1.6s0.5,0.6,1.1,0.6c0.4,0,0.8-0.1,1.1-0.4s0.6-0.6,0.8-1.1h1c-0.3,0.8-0.7,1.4-1.3,1.8s-1.2,0.6-1.9,0.6
		c-0.8,0-1.4-0.3-1.8-0.9s-0.4-1.3-0.3-2.2c0.2-1.1,0.7-2,1.4-2.6s1.4-0.9,2.2-0.9c0.7,0,1.2,0.2,1.6,0.5S230.3,144.9,230.2,145.7z"
		/>
	<path d="M231.7,143.6h1.1l-1.3,6.2h-1.1L231.7,143.6z M232.2,141.2h1.1l-0.3,1.2h-1.1L232.2,141.2z"/>
	<path d="M239,144.6c0.1,0.3,0.2,0.7,0.2,1.1c0,0.3-0.1,0.8-0.2,1.4h-4.6c-0.1,0.6-0.1,1.1,0.1,1.5s0.6,0.6,1.2,0.6
		c0.6,0,1-0.2,1.4-0.5c0.2-0.2,0.4-0.5,0.6-0.7h1c-0.1,0.2-0.2,0.5-0.4,0.8s-0.4,0.5-0.7,0.7c-0.4,0.3-0.8,0.5-1.3,0.6
		c-0.3,0.1-0.6,0.1-0.9,0.1c-0.8,0-1.4-0.3-1.8-0.9s-0.5-1.4-0.3-2.4c0.2-1,0.7-1.8,1.3-2.5s1.5-0.9,2.3-0.9c0.4,0,0.9,0.1,1.2,0.3
		S238.8,144.2,239,144.6z M238.1,146.2c0.1-0.5,0-0.8-0.1-1.1c-0.2-0.5-0.6-0.8-1.3-0.8c-0.5,0-0.9,0.2-1.3,0.5s-0.7,0.8-0.8,1.3
		H238.1z"/>
	<path d="M241,143.6h1l-0.2,0.9c0.4-0.4,0.7-0.6,1.1-0.8s0.8-0.2,1.2-0.2c0.9,0,1.4,0.3,1.6,0.9c0.1,0.3,0.1,0.8,0,1.5l-0.9,4h-1.1
		l0.8-4c0.1-0.4,0.1-0.7,0-0.9c-0.1-0.4-0.4-0.6-0.9-0.6c-0.2,0-0.5,0-0.6,0.1c-0.3,0.1-0.6,0.3-0.9,0.5c-0.2,0.2-0.4,0.4-0.5,0.6
		s-0.2,0.5-0.3,0.9l-0.7,3.3h-1.1L241,143.6z"/>
	<path d="M252.2,145.7h-1c0-0.4-0.1-0.7-0.2-1s-0.5-0.4-1-0.4c-0.7,0-1.2,0.3-1.7,1c-0.3,0.4-0.5,1-0.6,1.6
		c-0.1,0.6-0.1,1.2,0.1,1.6s0.5,0.6,1.1,0.6c0.4,0,0.8-0.1,1.1-0.4s0.6-0.6,0.8-1.1h1c-0.3,0.8-0.7,1.4-1.3,1.8s-1.2,0.6-1.9,0.6
		c-0.8,0-1.4-0.3-1.8-0.9s-0.4-1.3-0.3-2.2c0.2-1.1,0.7-2,1.4-2.6s1.4-0.9,2.2-0.9c0.7,0,1.2,0.2,1.6,0.5S252.3,144.9,252.2,145.7z"
		/>
	<path d="M258.3,144.6c0.1,0.3,0.2,0.7,0.2,1.1c0,0.3-0.1,0.8-0.2,1.4h-4.6c-0.1,0.6-0.1,1.1,0.1,1.5s0.6,0.6,1.2,0.6
		c0.6,0,1-0.2,1.4-0.5c0.2-0.2,0.4-0.5,0.6-0.7h1c-0.1,0.2-0.2,0.5-0.4,0.8s-0.4,0.5-0.7,0.7c-0.4,0.3-0.8,0.5-1.3,0.6
		c-0.3,0.1-0.6,0.1-0.9,0.1c-0.8,0-1.4-0.3-1.8-0.9s-0.5-1.4-0.3-2.4c0.2-1,0.7-1.8,1.3-2.5s1.5-0.9,2.3-0.9c0.4,0,0.9,0.1,1.2,0.3
		S258.2,144.2,258.3,144.6z M257.4,146.2c0.1-0.5,0-0.8-0.1-1.1c-0.2-0.5-0.6-0.8-1.3-0.8c-0.5,0-0.9,0.2-1.3,0.5s-0.7,0.8-0.8,1.3
		H257.4z"/>
</g>
<path class="st9" d="M50,153.8c18.7,0,33.8-15.1,33.8-33.8H50V153.8z"/>
<g>
	<g class="st6">
		<path d="M56.1,131.4v-1.6c1.5-0.1,2.6-0.4,3.2-0.7s1.1-1.2,1.3-2.5h1.7v16.7h-2.2v-11.9H56.1z"/>
	</g>
	<g class="st6">
		<path d="M64.8,128.1h0.6v0.5c0.1-0.2,0.3-0.3,0.4-0.4c0.2-0.1,0.5-0.2,0.7-0.2c0.4,0,0.8,0.2,1.1,0.5c0.3,0.3,0.4,0.8,0.4,1.4
			c0,0.8-0.2,1.4-0.6,1.7c-0.3,0.2-0.6,0.3-0.9,0.3c-0.3,0-0.5-0.1-0.7-0.2c-0.1-0.1-0.2-0.2-0.4-0.4v1.9h-0.6V128.1z M67.2,131
			c0.2-0.2,0.3-0.6,0.3-1.1c0-0.3,0-0.5-0.1-0.8c-0.2-0.4-0.5-0.6-0.9-0.6c-0.4,0-0.7,0.2-0.9,0.6c-0.1,0.2-0.1,0.5-0.1,0.9
			c0,0.3,0,0.5,0.1,0.7c0.2,0.4,0.5,0.6,0.9,0.6C66.7,131.3,67,131.2,67.2,131z"/>
		<path d="M68.8,126.7h0.6v5h-0.6V126.7z"/>
		<path d="M72.6,128.1h0.7c-0.1,0.2-0.3,0.8-0.6,1.6c-0.2,0.6-0.4,1.1-0.6,1.5c-0.4,0.9-0.6,1.5-0.8,1.7s-0.4,0.3-0.8,0.3
			c-0.1,0-0.2,0-0.2,0c0,0-0.1,0-0.2,0v-0.6c0.1,0,0.2,0,0.2,0.1c0,0,0.1,0,0.1,0c0.1,0,0.2,0,0.3-0.1c0.1,0,0.1-0.1,0.1-0.1
			c0,0,0.1-0.1,0.1-0.3c0.1-0.2,0.1-0.3,0.2-0.4l-1.4-3.8h0.7l1,3L72.6,128.1z"/>
	</g>
</g>
<g class="st6">
	<path class="st7" d="M302.6,235.3c0.4-1,1.4-2,3-3.1c1.3-1,2.2-1.7,2.6-2.1c0.6-0.6,0.9-1.4,0.9-2.1c0-0.6-0.2-1.2-0.5-1.6
		c-0.3-0.4-0.8-0.6-1.5-0.6c-0.9,0-1.5,0.3-1.8,1c-0.2,0.4-0.3,1-0.3,1.8h-2.8c0-1.3,0.3-2.3,0.7-3.1c0.8-1.5,2.2-2.2,4.2-2.2
		c1.6,0,2.8,0.4,3.8,1.3c0.9,0.9,1.4,2,1.4,3.5c0,1.1-0.3,2.1-1,2.9c-0.4,0.6-1.1,1.2-2.1,1.9l-1.2,0.8c-0.7,0.5-1.2,0.9-1.5,1.1
		c-0.3,0.2-0.5,0.5-0.7,0.8h6.5v2.6h-10.2C301.9,237.2,302.1,236.2,302.6,235.3z"/>
	<path class="st7" d="M314,231.9c0.4-0.7,0.9-1.2,1.7-1.5c-0.7-0.5-1.2-1-1.4-1.6c-0.2-0.6-0.3-1.1-0.3-1.6c0-1.1,0.4-2,1.2-2.8
		c0.8-0.8,2-1.1,3.5-1.1c1.5,0,2.6,0.4,3.5,1.1c0.8,0.8,1.2,1.7,1.2,2.8c0,0.5-0.1,1-0.3,1.6c-0.2,0.6-0.7,1-1.4,1.5
		c0.7,0.4,1.3,1,1.7,1.6c0.4,0.7,0.6,1.4,0.6,2.3c0,1.3-0.5,2.3-1.4,3.2c-0.9,0.9-2.2,1.3-3.9,1.3c-1.7,0-2.9-0.4-3.8-1.3
		c-0.9-0.9-1.3-1.9-1.3-3.2C313.5,233.3,313.7,232.5,314,231.9z M317.1,235.6c0.4,0.4,0.9,0.6,1.6,0.6s1.2-0.2,1.6-0.6
		c0.4-0.4,0.6-1,0.6-1.7c0-0.8-0.2-1.3-0.6-1.7c-0.4-0.4-0.9-0.6-1.6-0.6s-1.2,0.2-1.6,0.6c-0.4,0.4-0.6,1-0.6,1.7
		C316.5,234.7,316.7,235.2,317.1,235.6z M317.3,228.9c0.3,0.3,0.8,0.5,1.4,0.5c0.6,0,1.1-0.2,1.4-0.5c0.3-0.3,0.5-0.8,0.5-1.3
		c0-0.6-0.2-1-0.5-1.4c-0.3-0.3-0.8-0.5-1.4-0.5c-0.6,0-1,0.2-1.4,0.5c-0.3,0.3-0.5,0.8-0.5,1.4
		C316.8,228.1,316.9,228.5,317.3,228.9z"/>
	<path class="st7" d="M334.4,225.3c0.8,1.3,1.1,3.2,1.1,5.7c0,2.5-0.4,4.3-1.1,5.7c-0.8,1.3-2.1,2-4,2s-3.2-0.7-4-2
		c-0.8-1.3-1.1-3.2-1.1-5.7c0-2.5,0.4-4.3,1.1-5.7c0.8-1.3,2.1-2,4-2S333.6,223.9,334.4,225.3z M328.7,234.9
		c0.3,0.9,0.9,1.4,1.7,1.4s1.4-0.5,1.7-1.4c0.3-0.9,0.4-2.2,0.4-3.9c0-1.8-0.1-3.1-0.4-4c-0.3-0.9-0.8-1.3-1.7-1.3s-1.4,0.4-1.7,1.3
		s-0.4,2.2-0.4,4C328.2,232.7,328.4,234,328.7,234.9z"/>
</g>
<g class="st6">
	<path class="st4" d="M302.6,235.3c0.4-1,1.4-2,3-3.1c1.3-1,2.2-1.7,2.6-2.1c0.6-0.6,0.9-1.4,0.9-2.1c0-0.6-0.2-1.2-0.5-1.6
		c-0.3-0.4-0.8-0.6-1.5-0.6c-0.9,0-1.5,0.3-1.8,1c-0.2,0.4-0.3,1-0.3,1.8h-2.8c0-1.3,0.3-2.3,0.7-3.1c0.8-1.5,2.2-2.2,4.2-2.2
		c1.6,0,2.8,0.4,3.8,1.3c0.9,0.9,1.4,2,1.4,3.5c0,1.1-0.3,2.1-1,2.9c-0.4,0.6-1.1,1.2-2.1,1.9l-1.2,0.8c-0.7,0.5-1.2,0.9-1.5,1.1
		c-0.3,0.2-0.5,0.5-0.7,0.8h6.5v2.6h-10.2C301.9,237.2,302.1,236.2,302.6,235.3z"/>
	<path class="st4" d="M314,231.9c0.4-0.7,0.9-1.2,1.7-1.5c-0.7-0.5-1.2-1-1.4-1.6c-0.2-0.6-0.3-1.1-0.3-1.6c0-1.1,0.4-2,1.2-2.8
		c0.8-0.8,2-1.1,3.5-1.1c1.5,0,2.6,0.4,3.5,1.1c0.8,0.8,1.2,1.7,1.2,2.8c0,0.5-0.1,1-0.3,1.6c-0.2,0.6-0.7,1-1.4,1.5
		c0.7,0.4,1.3,1,1.7,1.6c0.4,0.7,0.6,1.4,0.6,2.3c0,1.3-0.5,2.3-1.4,3.2c-0.9,0.9-2.2,1.3-3.9,1.3c-1.7,0-2.9-0.4-3.8-1.3
		c-0.9-0.9-1.3-1.9-1.3-3.2C313.5,233.3,313.7,232.5,314,231.9z M317.1,235.6c0.4,0.4,0.9,0.6,1.6,0.6s1.2-0.2,1.6-0.6
		c0.4-0.4,0.6-1,0.6-1.7c0-0.8-0.2-1.3-0.6-1.7c-0.4-0.4-0.9-0.6-1.6-0.6s-1.2,0.2-1.6,0.6c-0.4,0.4-0.6,1-0.6,1.7
		C316.5,234.7,316.7,235.2,317.1,235.6z M317.3,228.9c0.3,0.3,0.8,0.5,1.4,0.5c0.6,0,1.1-0.2,1.4-0.5c0.3-0.3,0.5-0.8,0.5-1.3
		c0-0.6-0.2-1-0.5-1.4c-0.3-0.3-0.8-0.5-1.4-0.5c-0.6,0-1,0.2-1.4,0.5c-0.3,0.3-0.5,0.8-0.5,1.4
		C316.8,228.1,316.9,228.5,317.3,228.9z"/>
	<path class="st4" d="M334.4,225.3c0.8,1.3,1.1,3.2,1.1,5.7c0,2.5-0.4,4.3-1.1,5.7c-0.8,1.3-2.1,2-4,2s-3.2-0.7-4-2
		c-0.8-1.3-1.1-3.2-1.1-5.7c0-2.5,0.4-4.3,1.1-5.7c0.8-1.3,2.1-2,4-2S333.6,223.9,334.4,225.3z M328.7,234.9
		c0.3,0.9,0.9,1.4,1.7,1.4s1.4-0.5,1.7-1.4c0.3-0.9,0.4-2.2,0.4-3.9c0-1.8-0.1-3.1-0.4-4c-0.3-0.9-0.8-1.3-1.7-1.3s-1.4,0.4-1.7,1.3
		s-0.4,2.2-0.4,4C328.2,232.7,328.4,234,328.7,234.9z"/>
</g>
<g class="st6">
	<path class="st10" d="M297.1,241.4h0.5v0.6h-0.5V241.4z M297.1,242.6h0.5v3.1h-0.5V242.6z"/>
	<path class="st10" d="M298.8,244.8c0,0.2,0.1,0.3,0.1,0.4c0.1,0.2,0.4,0.3,0.7,0.3c0.2,0,0.4,0,0.5-0.1c0.2-0.1,0.2-0.2,0.2-0.4
		c0-0.1-0.1-0.2-0.2-0.3c-0.1,0-0.2-0.1-0.5-0.1l-0.4-0.1c-0.3-0.1-0.5-0.1-0.6-0.2c-0.2-0.1-0.3-0.3-0.3-0.6c0-0.3,0.1-0.5,0.3-0.7
		s0.5-0.3,0.9-0.3c0.5,0,0.8,0.1,1,0.4c0.1,0.2,0.2,0.4,0.2,0.6h-0.5c0-0.1-0.1-0.2-0.1-0.3c-0.1-0.1-0.3-0.2-0.6-0.2
		c-0.2,0-0.4,0-0.5,0.1c-0.1,0.1-0.2,0.2-0.2,0.3c0,0.1,0.1,0.2,0.2,0.3c0.1,0,0.2,0.1,0.4,0.1l0.4,0.1c0.4,0.1,0.6,0.2,0.8,0.3
		c0.2,0.1,0.3,0.3,0.3,0.6c0,0.3-0.1,0.5-0.3,0.7c-0.2,0.2-0.5,0.3-1,0.3c-0.5,0-0.8-0.1-1-0.3c-0.2-0.2-0.3-0.5-0.3-0.8H298.8z"/>
	<path class="st10" d="M304.8,243.9c0.1,0,0.2-0.1,0.2-0.2c0,0,0-0.1,0-0.2c0-0.2-0.1-0.3-0.2-0.4s-0.3-0.1-0.5-0.1
		c-0.3,0-0.5,0.1-0.6,0.2c-0.1,0.1-0.1,0.2-0.1,0.4h-0.5c0-0.4,0.1-0.7,0.4-0.8c0.2-0.2,0.5-0.2,0.8-0.2c0.4,0,0.7,0.1,0.9,0.2
		c0.2,0.1,0.3,0.4,0.3,0.7v1.8c0,0.1,0,0.1,0,0.1s0.1,0,0.1,0c0,0,0,0,0.1,0c0,0,0.1,0,0.1,0v0.4c-0.1,0-0.1,0-0.2,0s-0.1,0-0.2,0
		c-0.2,0-0.3-0.1-0.4-0.2c0-0.1-0.1-0.2-0.1-0.3c-0.1,0.1-0.3,0.3-0.5,0.4s-0.4,0.2-0.7,0.2c-0.3,0-0.5-0.1-0.7-0.3
		s-0.3-0.4-0.3-0.7c0-0.3,0.1-0.5,0.3-0.7s0.4-0.3,0.7-0.3L304.8,243.9z M303.7,245.3c0.1,0.1,0.2,0.1,0.4,0.1c0.2,0,0.4,0,0.5-0.1
		c0.3-0.1,0.4-0.4,0.4-0.7v-0.4c-0.1,0-0.1,0.1-0.2,0.1c-0.1,0-0.2,0-0.3,0.1l-0.3,0c-0.2,0-0.3,0.1-0.4,0.1
		c-0.2,0.1-0.2,0.2-0.2,0.4C303.5,245.1,303.6,245.2,303.7,245.3z"/>
	<path class="st10" d="M308.1,242.6h0.5v0.4c0.1-0.2,0.3-0.3,0.5-0.4s0.4-0.1,0.6-0.1c0.4,0,0.7,0.2,0.9,0.5
		c0.1,0.2,0.1,0.4,0.1,0.7v2h-0.5v-2c0-0.2,0-0.3-0.1-0.5c-0.1-0.2-0.3-0.3-0.5-0.3c-0.1,0-0.2,0-0.3,0c-0.1,0-0.3,0.1-0.4,0.3
		c-0.1,0.1-0.1,0.2-0.2,0.3c0,0.1,0,0.3,0,0.5v1.6h-0.5V242.6z"/>
	<path class="st10" d="M311.5,241.4h0.5v0.6h-0.5V241.4z M311.5,242.6h0.5v3.1h-0.5V242.6z"/>
	<path class="st10" d="M314.9,242.8c0.2,0.2,0.4,0.5,0.4,0.9h-0.5c0-0.2-0.1-0.4-0.2-0.5s-0.3-0.2-0.5-0.2c-0.3,0-0.6,0.2-0.7,0.5
		c-0.1,0.2-0.1,0.5-0.1,0.8c0,0.3,0.1,0.6,0.2,0.8c0.1,0.2,0.3,0.3,0.6,0.3c0.2,0,0.4-0.1,0.5-0.2c0.1-0.1,0.2-0.3,0.3-0.5h0.5
		c-0.1,0.4-0.2,0.7-0.4,0.9s-0.5,0.3-0.9,0.3c-0.4,0-0.7-0.1-1-0.5c-0.2-0.3-0.4-0.7-0.4-1.1c0-0.6,0.1-1,0.4-1.3s0.6-0.5,1-0.5
		C314.4,242.5,314.7,242.6,314.9,242.8z"/>
	<path class="st10" d="M317.7,242.7c0.2,0.1,0.4,0.2,0.5,0.4c0.1,0.2,0.2,0.3,0.2,0.6c0,0.1,0,0.4,0,0.7h-2.3c0,0.3,0.1,0.6,0.2,0.8
		c0.1,0.2,0.4,0.3,0.6,0.3c0.3,0,0.5-0.1,0.7-0.3c0.1-0.1,0.2-0.2,0.2-0.4h0.5c0,0.1-0.1,0.2-0.1,0.4c-0.1,0.1-0.2,0.3-0.3,0.3
		c-0.2,0.2-0.4,0.3-0.6,0.3c-0.1,0-0.3,0-0.4,0c-0.4,0-0.7-0.1-1-0.4c-0.3-0.3-0.4-0.7-0.4-1.2c0-0.5,0.1-0.9,0.4-1.2
		c0.3-0.3,0.6-0.5,1.1-0.5C317.3,242.5,317.5,242.6,317.7,242.7z M317.9,243.9c0-0.2-0.1-0.4-0.1-0.5c-0.1-0.3-0.4-0.4-0.7-0.4
		c-0.2,0-0.4,0.1-0.6,0.3c-0.2,0.2-0.2,0.4-0.3,0.7H317.9z"/>
	<path class="st10" d="M320.8,242.6h0.5v0.4c0.1-0.2,0.3-0.3,0.5-0.4s0.4-0.1,0.6-0.1c0.4,0,0.7,0.2,0.9,0.5
		c0.1,0.2,0.1,0.4,0.1,0.7v2h-0.5v-2c0-0.2,0-0.3-0.1-0.5c-0.1-0.2-0.3-0.3-0.5-0.3c-0.1,0-0.2,0-0.3,0c-0.1,0-0.3,0.1-0.4,0.3
		c-0.1,0.1-0.1,0.2-0.2,0.3c0,0.1,0,0.3,0,0.5v1.6h-0.5V242.6z"/>
	<path class="st10" d="M324.7,242.6v2.1c0,0.2,0,0.3,0.1,0.4c0.1,0.2,0.3,0.3,0.5,0.3c0.4,0,0.6-0.2,0.7-0.5
		c0.1-0.2,0.1-0.4,0.1-0.7v-1.5h0.5v3.1h-0.5l0-0.5c-0.1,0.1-0.2,0.2-0.2,0.3c-0.2,0.2-0.4,0.2-0.7,0.2c-0.4,0-0.7-0.1-0.9-0.4
		c-0.1-0.2-0.1-0.4-0.1-0.6v-2.1H324.7z"/>
	<path class="st10" d="M327.5,242.6h0.5v0.4c0.1-0.2,0.2-0.3,0.3-0.3c0.2-0.1,0.4-0.2,0.6-0.2c0.2,0,0.5,0.1,0.6,0.2
		c0.1,0.1,0.2,0.2,0.2,0.3c0.1-0.2,0.3-0.3,0.4-0.4s0.3-0.1,0.5-0.1c0.4,0,0.7,0.2,0.9,0.5c0.1,0.2,0.1,0.4,0.1,0.7v2.1h-0.5v-2.2
		c0-0.2-0.1-0.4-0.2-0.4s-0.2-0.1-0.4-0.1c-0.2,0-0.4,0.1-0.5,0.2s-0.2,0.4-0.2,0.7v1.8h-0.5v-2c0-0.2,0-0.4-0.1-0.5
		c-0.1-0.1-0.2-0.2-0.4-0.2c-0.2,0-0.4,0.1-0.5,0.2s-0.2,0.4-0.2,0.8v1.7h-0.5V242.6z"/>
	<path class="st10" d="M332.4,241.4h0.5v1.6c0.1-0.2,0.3-0.3,0.4-0.3c0.2-0.1,0.3-0.1,0.5-0.1c0.4,0,0.7,0.1,1,0.4s0.4,0.7,0.4,1.2
		c0,0.5-0.1,0.9-0.4,1.2s-0.6,0.5-1,0.5c-0.2,0-0.4-0.1-0.6-0.2c-0.1-0.1-0.2-0.2-0.3-0.3v0.4h-0.5V241.4z M334.4,245
		c0.1-0.2,0.2-0.5,0.2-0.9c0-0.3-0.1-0.6-0.2-0.8c-0.1-0.2-0.4-0.3-0.6-0.3c-0.2,0-0.5,0.1-0.6,0.3c-0.2,0.2-0.3,0.5-0.3,0.9
		c0,0.3,0,0.5,0.1,0.7c0.1,0.3,0.4,0.5,0.8,0.5C334.1,245.4,334.3,245.3,334.4,245z"/>
	<path class="st10" d="M337.8,242.7c0.2,0.1,0.4,0.2,0.5,0.4c0.1,0.2,0.2,0.3,0.2,0.6c0,0.1,0,0.4,0,0.7h-2.3c0,0.3,0.1,0.6,0.2,0.8
		c0.1,0.2,0.4,0.3,0.6,0.3c0.3,0,0.5-0.1,0.7-0.3c0.1-0.1,0.2-0.2,0.2-0.4h0.5c0,0.1-0.1,0.2-0.1,0.4c-0.1,0.1-0.2,0.3-0.3,0.3
		c-0.2,0.2-0.4,0.3-0.6,0.3c-0.1,0-0.3,0-0.4,0c-0.4,0-0.7-0.1-1-0.4c-0.3-0.3-0.4-0.7-0.4-1.2c0-0.5,0.1-0.9,0.4-1.2
		c0.3-0.3,0.6-0.5,1.1-0.5C337.3,242.5,337.5,242.6,337.8,242.7z M337.9,243.9c0-0.2-0.1-0.4-0.1-0.5c-0.1-0.3-0.4-0.4-0.7-0.4
		c-0.2,0-0.4,0.1-0.6,0.3c-0.2,0.2-0.2,0.4-0.3,0.7H337.9z"/>
	<path class="st10" d="M339.2,242.6h0.5v0.5c0-0.1,0.1-0.2,0.3-0.4s0.3-0.2,0.6-0.2c0,0,0,0,0,0s0.1,0,0.1,0v0.6c0,0-0.1,0-0.1,0
		s-0.1,0-0.1,0c-0.3,0-0.5,0.1-0.6,0.3s-0.2,0.4-0.2,0.6v1.8h-0.5V242.6z"/>
</g>
<polygon class="st11" points="50,216.5 49.5,250 129.2,250 "/>
<polygon class="st11" points="349.5,153.7 350,120.1 270.3,120.1 "/>
<path class="st12" d="M200,115.4c-50.5,0-91.5-6.9-91.5-15.4V63h183v37C291.5,108.5,250.5,115.4,200,115.4z"/>
<path class="st12" d="M108.5,40.2V100c0-8.5,41-15.4,91.5-15.4s91.5,6.9,91.5,15.4V40.2l-42.8,3.5L200,40.2L149.7,44L108.5,40.2z"/>
<g class="st6">
	<path class="st7" d="M57.1,241.4v0.5h-1.5v3.8H55V242h-1.5v-0.5H57.1z"/>
	<path class="st7" d="M57.6,241.4h0.6v3.8h2.2v0.5h-2.7V241.4z"/>
	<path class="st7" d="M60.9,241.4h0.6v3.8h2.2v0.5h-2.7V241.4z"/>
	<path class="st7" d="M65.8,241.4h1.9c0.4,0,0.7,0.1,0.9,0.3c0.2,0.2,0.4,0.5,0.4,0.9c0,0.3-0.1,0.6-0.3,0.9c-0.2,0.2-0.5,0.4-1,0.4
		h-1.3v1.8h-0.6V241.4z M68,242c-0.1-0.1-0.3-0.1-0.5-0.1h-1.2v1.5h1.2c0.3,0,0.5-0.1,0.6-0.2c0.2-0.1,0.2-0.3,0.2-0.6
		C68.4,242.4,68.3,242.2,68,242z"/>
	<path class="st7" d="M69.7,242.6h0.5v0.5c0-0.1,0.1-0.2,0.3-0.4s0.3-0.2,0.6-0.2c0,0,0,0,0,0s0.1,0,0.1,0v0.6c0,0-0.1,0-0.1,0
		s-0.1,0-0.1,0c-0.3,0-0.5,0.1-0.6,0.3s-0.2,0.4-0.2,0.6v1.8h-0.5V242.6z"/>
	<path class="st7" d="M73.9,242.9c0.3,0.3,0.4,0.7,0.4,1.2c0,0.5-0.1,0.9-0.4,1.3c-0.2,0.3-0.6,0.5-1.1,0.5c-0.4,0-0.8-0.1-1-0.4
		c-0.3-0.3-0.4-0.7-0.4-1.2c0-0.5,0.1-0.9,0.4-1.3c0.3-0.3,0.6-0.5,1.1-0.5C73.3,242.5,73.7,242.7,73.9,242.9z M73.6,245
		c0.1-0.3,0.2-0.6,0.2-0.9c0-0.3,0-0.5-0.1-0.7c-0.1-0.3-0.4-0.4-0.8-0.4c-0.3,0-0.6,0.1-0.7,0.4c-0.1,0.2-0.2,0.5-0.2,0.9
		c0,0.3,0.1,0.6,0.2,0.8c0.1,0.2,0.4,0.3,0.7,0.3C73.2,245.4,73.5,245.3,73.6,245z"/>
	<path class="st7" d="M75.2,241.7c0.1-0.2,0.4-0.3,0.7-0.3c0,0,0.1,0,0.1,0s0.1,0,0.1,0v0.5c-0.1,0-0.1,0-0.1,0c0,0,0,0-0.1,0
		c-0.2,0-0.3,0-0.3,0.1c0,0.1,0,0.3,0,0.6h0.5v0.4h-0.5v2.7h-0.5V243h-0.4v-0.4h0.4v-0.5C75.1,241.9,75.2,241.8,75.2,241.7z"/>
	<path class="st7" d="M78.6,242.7c0.2,0.1,0.4,0.2,0.5,0.4c0.1,0.2,0.2,0.3,0.2,0.6c0,0.1,0,0.4,0,0.7h-2.3c0,0.3,0.1,0.6,0.2,0.8
		c0.1,0.2,0.4,0.3,0.6,0.3c0.3,0,0.5-0.1,0.7-0.3c0.1-0.1,0.2-0.2,0.2-0.4h0.5c0,0.1-0.1,0.2-0.1,0.4c-0.1,0.1-0.2,0.3-0.3,0.3
		c-0.2,0.2-0.4,0.3-0.6,0.3c-0.1,0-0.3,0-0.4,0c-0.4,0-0.7-0.1-1-0.4c-0.3-0.3-0.4-0.7-0.4-1.2c0-0.5,0.1-0.9,0.4-1.2
		c0.3-0.3,0.6-0.5,1.1-0.5C78.2,242.5,78.4,242.6,78.6,242.7z M78.8,243.9c0-0.2-0.1-0.4-0.1-0.5c-0.1-0.3-0.4-0.4-0.7-0.4
		c-0.2,0-0.4,0.1-0.6,0.3c-0.2,0.2-0.2,0.4-0.3,0.7H78.8z"/>
	<path class="st7" d="M80.3,244.8c0,0.2,0.1,0.3,0.1,0.4c0.1,0.2,0.4,0.3,0.7,0.3c0.2,0,0.4,0,0.5-0.1c0.2-0.1,0.2-0.2,0.2-0.4
		c0-0.1-0.1-0.2-0.2-0.3c-0.1,0-0.2-0.1-0.5-0.1l-0.4-0.1c-0.3-0.1-0.5-0.1-0.6-0.2c-0.2-0.1-0.3-0.3-0.3-0.6c0-0.3,0.1-0.5,0.3-0.7
		s0.5-0.3,0.9-0.3c0.5,0,0.8,0.1,1,0.4c0.1,0.2,0.2,0.4,0.2,0.6h-0.5c0-0.1-0.1-0.2-0.1-0.3c-0.1-0.1-0.3-0.2-0.6-0.2
		c-0.2,0-0.4,0-0.5,0.1c-0.1,0.1-0.2,0.2-0.2,0.3c0,0.1,0.1,0.2,0.2,0.3c0.1,0,0.2,0.1,0.4,0.1l0.4,0.1c0.4,0.1,0.6,0.2,0.8,0.3
		c0.2,0.1,0.3,0.3,0.3,0.6c0,0.3-0.1,0.5-0.3,0.7c-0.2,0.2-0.5,0.3-1,0.3c-0.5,0-0.8-0.1-1-0.3c-0.2-0.2-0.3-0.5-0.3-0.8H80.3z"/>
	<path class="st7" d="M83.3,244.8c0,0.2,0.1,0.3,0.1,0.4c0.1,0.2,0.4,0.3,0.7,0.3c0.2,0,0.4,0,0.5-0.1c0.2-0.1,0.2-0.2,0.2-0.4
		c0-0.1-0.1-0.2-0.2-0.3c-0.1,0-0.2-0.1-0.5-0.1l-0.4-0.1c-0.3-0.1-0.5-0.1-0.6-0.2c-0.2-0.1-0.3-0.3-0.3-0.6c0-0.3,0.1-0.5,0.3-0.7
		s0.5-0.3,0.9-0.3c0.5,0,0.8,0.1,1,0.4c0.1,0.2,0.2,0.4,0.2,0.6h-0.5c0-0.1-0.1-0.2-0.1-0.3c-0.1-0.1-0.3-0.2-0.6-0.2
		c-0.2,0-0.4,0-0.5,0.1c-0.1,0.1-0.2,0.2-0.2,0.3c0,0.1,0.1,0.2,0.2,0.3c0.1,0,0.2,0.1,0.4,0.1l0.4,0.1c0.4,0.1,0.6,0.2,0.8,0.3
		c0.2,0.1,0.3,0.3,0.3,0.6c0,0.3-0.1,0.5-0.3,0.7c-0.2,0.2-0.5,0.3-1,0.3c-0.5,0-0.8-0.1-1-0.3c-0.2-0.2-0.3-0.5-0.3-0.8H83.3z"/>
	<path class="st7" d="M86,241.4h0.5v0.6H86V241.4z M86,242.6h0.5v3.1H86V242.6z"/>
	<path class="st7" d="M89.6,242.9c0.3,0.3,0.4,0.7,0.4,1.2c0,0.5-0.1,0.9-0.4,1.3c-0.2,0.3-0.6,0.5-1.1,0.5c-0.4,0-0.8-0.1-1-0.4
		c-0.3-0.3-0.4-0.7-0.4-1.2c0-0.5,0.1-0.9,0.4-1.3c0.3-0.3,0.6-0.5,1.1-0.5C89,242.5,89.3,242.7,89.6,242.9z M89.3,245
		c0.1-0.3,0.2-0.6,0.2-0.9c0-0.3,0-0.5-0.1-0.7c-0.1-0.3-0.4-0.4-0.8-0.4c-0.3,0-0.6,0.1-0.7,0.4c-0.1,0.2-0.2,0.5-0.2,0.9
		c0,0.3,0.1,0.6,0.2,0.8c0.1,0.2,0.4,0.3,0.7,0.3C88.9,245.4,89.2,245.3,89.3,245z"/>
	<path class="st7" d="M90.7,242.6h0.5v0.4c0.1-0.2,0.3-0.3,0.5-0.4s0.4-0.1,0.6-0.1c0.4,0,0.7,0.2,0.9,0.5c0.1,0.2,0.1,0.4,0.1,0.7
		v2h-0.5v-2c0-0.2,0-0.3-0.1-0.5c-0.1-0.2-0.3-0.3-0.5-0.3c-0.1,0-0.2,0-0.3,0c-0.1,0-0.3,0.1-0.4,0.3c-0.1,0.1-0.1,0.2-0.2,0.3
		c0,0.1,0,0.3,0,0.5v1.6h-0.5V242.6z"/>
	<path class="st7" d="M95.7,243.9c0.1,0,0.2-0.1,0.2-0.2c0,0,0-0.1,0-0.2c0-0.2-0.1-0.3-0.2-0.4c-0.1-0.1-0.3-0.1-0.5-0.1
		c-0.3,0-0.5,0.1-0.6,0.2c-0.1,0.1-0.1,0.2-0.1,0.4H94c0-0.4,0.1-0.7,0.4-0.8c0.2-0.2,0.5-0.2,0.8-0.2c0.4,0,0.7,0.1,0.9,0.2
		c0.2,0.1,0.3,0.4,0.3,0.7v1.8c0,0.1,0,0.1,0,0.1s0.1,0,0.1,0c0,0,0,0,0.1,0c0,0,0.1,0,0.1,0v0.4c-0.1,0-0.1,0-0.2,0s-0.1,0-0.2,0
		c-0.2,0-0.3-0.1-0.4-0.2c0-0.1-0.1-0.2-0.1-0.3c-0.1,0.1-0.3,0.3-0.5,0.4s-0.4,0.2-0.7,0.2c-0.3,0-0.5-0.1-0.7-0.3
		s-0.3-0.4-0.3-0.7c0-0.3,0.1-0.5,0.3-0.7s0.4-0.3,0.7-0.3L95.7,243.9z M94.6,245.3c0.1,0.1,0.2,0.1,0.4,0.1c0.2,0,0.4,0,0.5-0.1
		c0.3-0.1,0.4-0.4,0.4-0.7v-0.4c-0.1,0-0.1,0.1-0.2,0.1c-0.1,0-0.2,0-0.3,0.1l-0.3,0c-0.2,0-0.3,0.1-0.4,0.1
		c-0.2,0.1-0.2,0.2-0.2,0.4C94.4,245.1,94.5,245.2,94.6,245.3z"/>
	<path class="st7" d="M97.4,241.4h0.5v4.3h-0.5V241.4z"/>
</g>
<path class="st4" d="M291.5,100c0,8.5-41,15.4-91.5,15.4s-91.5-6.9-91.5-15.4"/>
</svg>
