<?xml version="1.0" encoding="utf-8"?>
<!-- Generator: Adobe Illustrator 19.2.1, SVG Export Plug-In . SVG Version: 6.00 Build 0)  -->
<svg version="1.1" id="Layer_1" xmlns="http://www.w3.org/2000/svg" xmlns:xlink="http://www.w3.org/1999/xlink" x="0px" y="0px"
	 viewBox="0 0 401 176" style="enable-background:new 0 0 401 176;" xml:space="preserve">
<style type="text/css">
	.st0{fill:none;}
	.st1{fill:#131313;}
	.st2{fill:#202020;}
	.st3{fill:#ABCDEC;stroke:#000000;stroke-miterlimit:10;}
	.st4{fill:#F9F1DA;stroke:#010101;stroke-miterlimit:10;}
	.st5{fill:#FFF4CE;stroke:#010101;stroke-miterlimit:10;}
	.st6{fill:#010101;stroke:#010101;stroke-miterlimit:10;}
	.st7{fill:#FCF7EA;stroke:#010101;stroke-miterlimit:10;}
	.st8{fill:#EC2527;}
	.st9{fill:none;stroke:#020202;stroke-width:0.5;}
	.st10{fill:#767677;}
	.st11{fill:none;stroke:#010101;stroke-width:0.5;stroke-miterlimit:10;}
	.st12{fill:url(#SVGID_1_);}
	.st13{fill:#5B453A;stroke:#010101;stroke-width:0.5;stroke-miterlimit:10;}
	.st14{fill:#5B453A;}
	.st15{fill:#483529;stroke:#010101;stroke-width:0.5;stroke-miterlimit:10;}
	.st16{opacity:0.4;fill:#F3EA22;enable-background:new    ;}
	.st17{fill:#FFFFFF;stroke:#010101;stroke-width:0.5;stroke-miterlimit:1;}
	.st18{opacity:0.4;fill:#F7F18C;enable-background:new    ;}
	.st19{fill:#DDD3B1;stroke:#010101;stroke-miterlimit:10;}
	.st20{fill:none;stroke:#020202;stroke-width:0.25;}
	.st21{fill:none;stroke:#010101;stroke-width:0.25;stroke-miterlimit:10;}
	.st22{fill:url(#SVGID_2_);stroke:#000000;stroke-width:5;stroke-miterlimit:10;}
	.st23{enable-background:new    ;}
	.st24{fill:#FFFFFF;}
	.st25{fill:url(#SVGID_3_);}
	.st26{fill:#5B453A;stroke:#010101;stroke-miterlimit:10;}
	.st27{fill:#483529;stroke:#010101;stroke-miterlimit:10;}
	.st28{fill:none;stroke:#010101;stroke-miterlimit:10;}
	.st29{fill:#FFFFFF;stroke:#010101;stroke-miterlimit:1;}
	.st30{display:none;}
	.st31{display:inline;fill:#FFFFFF;}
	.st32{font-family:'HelveticaNeue';}
	.st33{font-size:30px;}
	.st34{display:inline;}
</style>
<pattern  y="176" width="1128.4" height="3272.4" patternUnits="userSpaceOnUse" id="New_Pattern_Swatch_30" viewBox="0 -3272.4 1128.4 3272.4" style="overflow:visible;">
	<g>
		<rect y="-3272.4" class="st0" width="1128.4" height="3272.4"/>
		<g>
			<g>
				<g>
					<g>
						<rect y="-3272.4" class="st1" width="78.5" height="3272.4"/>
						<rect x="70.5" y="-3272.4" class="st2" width="88.9" height="3272.4"/>
					</g>
				</g>
				<g>
					<g>
						<g>
							<rect x="141.1" y="-3272.4" class="st1" width="78.5" height="3272.4"/>
							<rect x="211.6" y="-3272.4" class="st2" width="86.5" height="3272.4"/>
						</g>
					</g>
				</g>
			</g>
			<g>
				<g>
					<g>
						<rect x="282.1" y="-3272.4" class="st1" width="78.5" height="3272.4"/>
						<rect x="352.6" y="-3272.4" class="st2" width="88.9" height="3272.4"/>
					</g>
				</g>
				<g>
					<g>
						<g>
							<rect x="423.2" y="-3272.4" class="st1" width="78.5" height="3272.4"/>
							<rect x="493.7" y="-3272.4" class="st2" width="89.8" height="3272.4"/>
						</g>
					</g>
				</g>
			</g>
			<g>
				<g>
					<g>
						<rect x="564.2" y="-3272.4" class="st1" width="78.5" height="3272.4"/>
						<rect x="634.7" y="-3272.4" class="st2" width="88.9" height="3272.4"/>
					</g>
				</g>
				<g>
					<g>
						<g>
							<rect x="705.3" y="-3272.4" class="st1" width="78.5" height="3272.4"/>
							<rect x="775.8" y="-3272.4" class="st2" width="86.5" height="3272.4"/>
						</g>
					</g>
				</g>
			</g>
			<g>
				<g>
					<g>
						<rect x="846.3" y="-3272.4" class="st1" width="78.5" height="3272.4"/>
						<rect x="916.8" y="-3272.4" class="st2" width="88.9" height="3272.4"/>
					</g>
				</g>
				<g>
					<g>
						<g>
							<rect x="987.4" y="-3272.4" class="st1" width="78.5" height="3272.4"/>
							<rect x="1057.9" y="-3272.4" class="st2" width="70.5" height="3272.4"/>
						</g>
					</g>
				</g>
			</g>
		</g>
	</g>
</pattern>
<path class="st3" d="M350,175.5H50c-27.5,0-50-22.5-50-50v-75c0-27.5,22.5-50,50-50h300c27.5,0,50,22.5,50,50v75
	C400,153,377.5,175.5,350,175.5z"/>
<polygon class="st4" points="349.3,176 333,135.3 67,135.3 50.7,176 "/>
<g>
	<g>
		<path class="st5" d="M327.7,68.7H72.3c-2.9,0-5.3,2.4-5.3,5.3v31.3v29.9h266v-29.9v-12V74.1C333,71.1,330.7,68.7,327.7,68.7z"/>
		<rect x="100.2" y="75.4" class="st6" width="199.6" height="53.2"/>
		<rect x="151.3" y="82" class="st7" width="99.8" height="39.9"/>
		<circle class="st8" cx="124.6" cy="102" r="1.6"/>
	</g>
	<g>
		<line class="st9" x1="159.6" y1="105.8" x2="157.5" y2="103.8"/>
		<line class="st9" x1="166.6" y1="99.8" x2="164.9" y2="97.5"/>
		<line class="st9" x1="174.5" y1="95" x2="173.1" y2="92.4"/>
		<line class="st9" x1="183" y1="91.5" x2="182" y2="88.7"/>
		<line class="st9" x1="191.9" y1="89.4" x2="191.5" y2="86.5"/>
		<line class="st9" x1="201.1" y1="88.6" x2="201.1" y2="85.7"/>
		<line class="st9" x1="210.3" y1="89.4" x2="210.7" y2="86.5"/>
		<line class="st9" x1="219.2" y1="91.5" x2="220.1" y2="88.7"/>
		<line class="st9" x1="227.8" y1="95" x2="229.1" y2="92.4"/>
		<line class="st9" x1="235.6" y1="99.8" x2="237.3" y2="97.5"/>
		<line class="st9" x1="242.6" y1="105.8" x2="244.6" y2="103.8"/>
		<line class="st9" x1="238.5" y1="110" x2="236.4" y2="112.1"/>
		<line class="st9" x1="231.5" y1="104.2" x2="229.9" y2="106.6"/>
		<line class="st9" x1="224.7" y1="100.1" x2="223.3" y2="102.7"/>
		<line class="st9" x1="218" y1="97.3" x2="217.1" y2="100.1"/>
		<line class="st9" x1="211.9" y1="95.7" x2="211.3" y2="98.5"/>
		<line class="st9" x1="206.3" y1="94.8" x2="206" y2="97.7"/>
		<line class="st9" x1="201.2" y1="94.5" x2="201.2" y2="97.5"/>
		<line class="st9" x1="196.7" y1="94.7" x2="196.9" y2="97.6"/>
		<line class="st9" x1="192.7" y1="95.2" x2="193.1" y2="98.1"/>
		<line class="st9" x1="189.2" y1="95.9" x2="189.8" y2="98.7"/>
		<line class="st9" x1="186.1" y1="96.7" x2="186.9" y2="99.5"/>
		<line class="st9" x1="181" y1="98.5" x2="182.1" y2="101.2"/>
		<line class="st9" x1="177.1" y1="100.3" x2="178.4" y2="102.9"/>
		<line class="st9" x1="174.1" y1="101.9" x2="175.6" y2="104.5"/>
		<line class="st9" x1="171.8" y1="103.4" x2="173.4" y2="105.8"/>
		<line class="st9" x1="170.1" y1="104.6" x2="171.8" y2="107"/>
		<line class="st9" x1="165.7" y1="108.2" x2="167.6" y2="110.4"/>
		<polyline class="st9" points="164.4,109.4 166.4,111.5 166.4,117.4 167.4,117.4 		"/>
		<polyline class="st9" points="163.8,110 165.9,112.1 165.9,118.5 165,118.5 		"/>
		<g>
			<path class="st10" d="M201.1,93.7c14.9,0,28.4,6.1,38.2,15.9l2.8-2.8c-10.4-10.5-24.9-17-40.9-17s-30.5,6.5-40.9,17l2.8,2.8
				C172.7,99.7,186.2,93.7,201.1,93.7z"/>
		</g>
		<path class="st11" d="M234.3,114.1"/>
		<path class="st11" d="M242.6,105.9c-10.6-10.6-25.2-17.2-41.5-17.2c-16.2,0-30.9,6.6-41.5,17.2"/>
		<path class="st11" d="M234.3,114.1"/>
		<path class="st11" d="M238.5,110.1c-9.5-9.6-22.8-15.6-37.4-15.6s-27.8,6-37.4,15.5"/>
	</g>
</g>
<path class="st3" d="M350,0.5H50C22.5,0.5,0,23,0,50.5v75c0,27.5,22.5,50,50,50h300c27.5,0,50-22.5,50-50v-75
	C400,23,377.5,0.5,350,0.5z M200.9,163.1c-33.1,0-60-26.9-60-60s26.9-60,60-60s60,26.9,60,60S234.1,163.1,200.9,163.1z"/>
<g>
	<g id="Layer_1_copy_2_">
		
			<linearGradient id="SVGID_1_" gradientUnits="userSpaceOnUse" x1="38.9" y1="122.1343" x2="38.9" y2="126.6343" gradientTransform="matrix(1 0 0 1 0 -47)">
			<stop  offset="0" style="stop-color:#7C5F52"/>
			<stop  offset="1" style="stop-color:#2A1B12"/>
		</linearGradient>
		<rect x="25.1" y="75.1" class="st12" width="27.6" height="4.5"/>
		<path class="st13" d="M53.3,74.8h-29l-2,5.1h33L53.3,74.8z M30.4,79.4c-2,0-3.6-0.9-3.6-2s1.6-2,3.6-2s3.6,0.9,3.6,2
			S32.4,79.4,30.4,79.4z M47.2,79.4c-2,0-3.6-0.9-3.6-2s1.6-2,3.6-2s3.6,0.9,3.6,2C50.7,78.5,49.1,79.4,47.2,79.4z"/>
		<g>
			<path class="st14" d="M50.7,77.3L50.7,77.3c0,1.2-1.6,2.1-3.6,2.1s-3.6-0.9-3.6-2v-0.1H34v0.1c0,1.1-1.6,2-3.6,2s-3.6-0.9-3.6-2
				v-0.1h-3.5l-1.1,2.6h33l-1.1-2.6H50.7L50.7,77.3z"/>
			<rect x="22.3" y="79.9" class="st15" width="33" height="4.5"/>
		</g>
		<path class="st11" d="M53.3,74.8h-29l-2,5.1h33L53.3,74.8z M30.4,79.4c-2,0-3.6-0.9-3.6-2s1.6-2,3.6-2s3.6,0.9,3.6,2
			S32.4,79.4,30.4,79.4z M47.2,79.4c-2,0-3.6-0.9-3.6-2s1.6-2,3.6-2s3.6,0.9,3.6,2C50.7,78.5,49.1,79.4,47.2,79.4z"/>
	</g>
	<g>
		<path class="st16" d="M28.1,67.5v22.1c0,1.6,1.1,2.8,2.3,2.8c1.3,0,2.3-1.3,2.3-2.8V67.5H28.1z"/>
		<path class="st11" d="M28.1,67.5v22.1c0,1.6,1.1,2.8,2.3,2.8c1.3,0,2.3-1.3,2.3-2.8V67.5H28.1z"/>
		<path class="st17" d="M33.1,68.7c0,0,0.2-4.6,0.5-4.6h-6.5c0.4,0,0.5,4.6,0.5,4.6H33.1z"/>
	</g>
	<g>
		<path class="st18" d="M44.8,67.5v22c0,1.6,1.1,2.8,2.3,2.8s2.3-1.3,2.3-2.8v-22H44.8z"/>
		<path class="st11" d="M44.8,67.5v22c0,1.6,1.1,2.8,2.3,2.8s2.3-1.3,2.3-2.8v-22H44.8z"/>
		<path class="st17" d="M49.9,68.8c0,0,0.2-4.6,0.5-4.6h-6.5c0.4,0,0.5,4.6,0.5,4.6H49.9z"/>
	</g>
	<g>
		<path class="st14" d="M50.7,77.2L50.7,77.2c0,1.2-1.6,2.1-3.6,2.1s-3.6-0.9-3.6-2v-0.1H34v0.1c0,1.1-1.6,2-3.6,2s-3.6-0.9-3.6-2
			v-0.1h-3.2l-1.1,2.6h32.4l-1.1-2.6H50.7L50.7,77.2z"/>
		<rect x="22.3" y="79.9" class="st15" width="33" height="4.5"/>
	</g>
	<path class="st11" d="M34,77.3c0,1.1-1.6,2-3.6,2s-3.5-0.9-3.5-2 M50.7,77.3c0,1.1-1.6,2-3.6,2s-3.6-0.9-3.6-2"/>
</g>
<g>
	<g>
		<polygon class="st4" points="122.2,136.6 19.4,136.6 26.7,118.3 114.9,118.3 		"/>
		<rect x="19.4" y="136.6" class="st19" width="102.8" height="18.4"/>
		<path class="st5" d="M113.1,96.2H28.5c-1,0-1.8,0.8-1.8,1.8v10.4v9.9h88.1v-9.9v-4V98C114.9,97,114.1,96.2,113.1,96.2z"/>
		<rect x="37.7" y="98.5" class="st6" width="66.1" height="17.6"/>
		<rect x="54.7" y="100.7" class="st7" width="33.1" height="13.2"/>
		<circle class="st8" cx="45.8" cy="107.3" r="0.5"/>
	</g>
	<g>
		<line class="st20" x1="57.4" y1="108.5" x2="56.7" y2="107.9"/>
		<line class="st20" x1="59.7" y1="106.6" x2="59.2" y2="105.8"/>
		<line class="st20" x1="62.3" y1="105" x2="61.9" y2="104.1"/>
		<line class="st20" x1="65.2" y1="103.8" x2="64.8" y2="102.9"/>
		<line class="st20" x1="68.1" y1="103.1" x2="68" y2="102.1"/>
		<line class="st20" x1="71.2" y1="102.8" x2="71.2" y2="101.9"/>
		<line class="st20" x1="74.2" y1="103.1" x2="74.3" y2="102.1"/>
		<line class="st20" x1="77.2" y1="103.8" x2="77.5" y2="102.9"/>
		<line class="st20" x1="80" y1="105" x2="80.4" y2="104.1"/>
		<line class="st20" x1="82.6" y1="106.6" x2="83.1" y2="105.8"/>
		<line class="st20" x1="84.9" y1="108.5" x2="85.6" y2="107.9"/>
		<line class="st20" x1="83.5" y1="109.9" x2="82.8" y2="110.6"/>
		<line class="st20" x1="81.2" y1="108" x2="80.7" y2="108.8"/>
		<line class="st20" x1="79" y1="106.6" x2="78.5" y2="107.5"/>
		<line class="st20" x1="76.8" y1="105.7" x2="76.4" y2="106.6"/>
		<line class="st20" x1="74.7" y1="105.2" x2="74.5" y2="106.1"/>
		<line class="st20" x1="72.9" y1="104.9" x2="72.8" y2="105.8"/>
		<line class="st20" x1="71.2" y1="104.8" x2="71.2" y2="105.8"/>
		<line class="st20" x1="69.7" y1="104.9" x2="69.8" y2="105.8"/>
		<line class="st20" x1="68.4" y1="105" x2="68.5" y2="106"/>
		<line class="st20" x1="67.2" y1="105.3" x2="67.4" y2="106.2"/>
		<line class="st20" x1="66.2" y1="105.5" x2="66.5" y2="106.5"/>
		<line class="st20" x1="64.5" y1="106.1" x2="64.9" y2="107"/>
		<line class="st20" x1="63.2" y1="106.7" x2="63.6" y2="107.6"/>
		<line class="st20" x1="62.2" y1="107.3" x2="62.7" y2="108.1"/>
		<line class="st20" x1="61.5" y1="107.7" x2="62" y2="108.5"/>
		<line class="st20" x1="60.9" y1="108.1" x2="61.4" y2="108.9"/>
		<line class="st20" x1="59.4" y1="109.3" x2="60.1" y2="110"/>
		<polyline class="st20" points="59,109.7 59.7,110.4 59.7,112.4 60,112.4 		"/>
		<polyline class="st20" points="58.8,109.9 59.5,110.6 59.5,112.8 59.2,112.8 		"/>
		<g>
			<path class="st10" d="M71.2,104.5c4.9,0,9.4,2,12.6,5.3l0.9-0.9c-3.5-3.5-8.3-5.6-13.6-5.6s-10.1,2.2-13.6,5.6l0.9,0.9
				C61.7,106.5,66.2,104.5,71.2,104.5z"/>
		</g>
		<path class="st21" d="M82.2,111.3"/>
		<path class="st21" d="M84.9,108.6c-3.5-3.5-8.4-5.7-13.7-5.7c-5.4,0-10.2,2.2-13.7,5.7"/>
		<path class="st21" d="M82.2,111.3"/>
		<path class="st21" d="M83.5,109.9c-3.2-3.2-7.5-5.2-12.4-5.2s-9.2,2-12.4,5.1"/>
	</g>
</g>
<pattern  id="SVGID_2_" xlink:href="#New_Pattern_Swatch_30" patternTransform="matrix(0.7071 0.7071 0.7071 -0.7071 -2127.8381 -17214.002)">
</pattern>
<path class="st22" d="M350.5,0.5h-300c-27.5,0-50,22.5-50,50v75c0,27.5,22.5,50,50,50h300c27.5,0,50-22.5,50-50v-75
	C400.5,23,378,0.5,350.5,0.5z M70.5,163.5c-33.1,0-60-26.9-60-60s26.9-60,60-60s60,26.9,60,60S103.6,163.5,70.5,163.5z M200.5,163.5
	c-33.1,0-60-26.9-60-60s26.9-60,60-60s60,26.9,60,60S233.6,163.5,200.5,163.5z M330.5,163.5c-33.1,0-60-26.9-60-60s26.9-60,60-60
	s60,26.9,60,60S363.6,163.5,330.5,163.5z"/>
<g class="st23">
	<path class="st24" d="M121.7,13.1h-12.3v-2.4h15.7v2.4l-13.3,16.6h13.7v2.4h-17v-2.4L121.7,13.1z"/>
	<path class="st24" d="M127.6,21.2c0.3-1,0.8-1.9,1.4-2.6c0.6-0.7,1.4-1.3,2.4-1.7c0.9-0.4,2-0.6,3.2-0.6c1.2,0,2.3,0.2,3.3,0.6
		c0.9,0.4,1.7,1,2.4,1.7c0.6,0.7,1.1,1.6,1.4,2.6c0.3,1,0.5,2.1,0.5,3.2c0,1.1-0.2,2.2-0.5,3.2c-0.3,1-0.8,1.8-1.4,2.6
		c-0.6,0.7-1.4,1.3-2.4,1.7c-0.9,0.4-2,0.6-3.3,0.6c-1.2,0-2.3-0.2-3.2-0.6c-0.9-0.4-1.7-1-2.4-1.7c-0.6-0.7-1.1-1.6-1.4-2.6
		c-0.3-1-0.5-2-0.5-3.2C127.1,23.3,127.3,22.2,127.6,21.2z M130.2,26.9c0.2,0.7,0.6,1.3,1,1.8c0.4,0.5,1,0.9,1.5,1.1
		c0.6,0.3,1.2,0.4,1.9,0.4c0.7,0,1.3-0.1,1.9-0.4c0.6-0.3,1.1-0.6,1.5-1.1c0.4-0.5,0.8-1.1,1-1.8c0.2-0.7,0.4-1.6,0.4-2.5
		c0-0.9-0.1-1.8-0.4-2.5c-0.3-0.7-0.6-1.3-1-1.8s-1-0.9-1.5-1.1c-0.6-0.3-1.2-0.4-1.9-0.4c-0.7,0-1.3,0.1-1.9,0.4
		c-0.6,0.3-1.1,0.6-1.5,1.1s-0.8,1.1-1,1.8c-0.2,0.7-0.4,1.6-0.4,2.5C129.8,25.4,129.9,26.2,130.2,26.9z"/>
	<path class="st24" d="M144.8,21.2c0.3-1,0.8-1.9,1.4-2.6c0.6-0.7,1.4-1.3,2.4-1.7c0.9-0.4,2-0.6,3.2-0.6c1.2,0,2.3,0.2,3.3,0.6
		c0.9,0.4,1.7,1,2.4,1.7c0.6,0.7,1.1,1.6,1.4,2.6c0.3,1,0.5,2.1,0.5,3.2c0,1.1-0.2,2.2-0.5,3.2c-0.3,1-0.8,1.8-1.4,2.6
		c-0.6,0.7-1.4,1.3-2.4,1.7c-0.9,0.4-2,0.6-3.3,0.6c-1.2,0-2.3-0.2-3.2-0.6c-0.9-0.4-1.7-1-2.4-1.7c-0.6-0.7-1.1-1.6-1.4-2.6
		c-0.3-1-0.5-2-0.5-3.2C144.3,23.3,144.5,22.2,144.8,21.2z M147.4,26.9c0.2,0.7,0.6,1.3,1,1.8c0.4,0.5,1,0.9,1.5,1.1
		c0.6,0.3,1.2,0.4,1.9,0.4c0.7,0,1.3-0.1,1.9-0.4c0.6-0.3,1.1-0.6,1.5-1.1c0.4-0.5,0.8-1.1,1-1.8c0.2-0.7,0.4-1.6,0.4-2.5
		c0-0.9-0.1-1.8-0.4-2.5c-0.3-0.7-0.6-1.3-1-1.8s-1-0.9-1.5-1.1c-0.6-0.3-1.2-0.4-1.9-0.4c-0.7,0-1.3,0.1-1.9,0.4
		c-0.6,0.3-1.1,0.6-1.5,1.1s-0.8,1.1-1,1.8c-0.2,0.7-0.4,1.6-0.4,2.5C147,25.4,147.2,26.2,147.4,26.9z"/>
	<path class="st24" d="M164.8,16.7v2.3h0.1c1.2-1.8,2.8-2.6,5-2.6c1,0,1.8,0.2,2.6,0.6c0.8,0.4,1.3,1.1,1.6,2
		c0.5-0.8,1.2-1.5,2.1-1.9c0.8-0.5,1.8-0.7,2.8-0.7c0.8,0,1.5,0.1,2.1,0.3s1.2,0.4,1.6,0.8c0.4,0.4,0.8,0.8,1,1.4
		c0.2,0.6,0.4,1.3,0.4,2.1v11.4h-2.5V22c0-0.5,0-0.9-0.1-1.3c-0.1-0.4-0.2-0.8-0.5-1.1c-0.2-0.3-0.5-0.6-0.9-0.7
		c-0.4-0.2-0.9-0.3-1.5-0.3c-1.3,0-2.2,0.4-3,1.1c-0.7,0.7-1.1,1.7-1.1,2.9v9.7H172V22c0-0.5,0-1-0.1-1.4c-0.1-0.4-0.2-0.8-0.5-1.1
		c-0.2-0.3-0.5-0.6-0.9-0.7c-0.4-0.2-0.8-0.3-1.4-0.3c-0.7,0-1.4,0.2-1.9,0.5c-0.5,0.3-1,0.7-1.3,1.1s-0.6,0.9-0.7,1.3
		c-0.1,0.5-0.2,0.8-0.2,1.1v9.7h-2.6V16.7H164.8z"/>
	<path class="st24" d="M209.7,13.8c-1.1-0.8-2.4-1.1-3.9-1.1c-1.3,0-2.4,0.2-3.3,0.7c-0.9,0.5-1.7,1.1-2.3,1.9
		c-0.6,0.8-1,1.7-1.3,2.8c-0.3,1-0.4,2.1-0.4,3.2c0,1.2,0.1,2.4,0.4,3.5c0.3,1.1,0.7,2,1.3,2.8c0.6,0.8,1.3,1.5,2.3,1.9
		c0.9,0.5,2,0.7,3.3,0.7c0.9,0,1.8-0.2,2.5-0.5c0.7-0.3,1.4-0.7,1.9-1.3c0.5-0.6,0.9-1.2,1.2-2c0.3-0.8,0.5-1.6,0.5-2.5h2.8
		c-0.3,2.7-1.2,4.8-2.8,6.3s-3.7,2.2-6.5,2.2c-1.7,0-3.1-0.3-4.3-0.9c-1.2-0.6-2.3-1.4-3.1-2.4c-0.8-1-1.4-2.2-1.8-3.5
		c-0.4-1.4-0.6-2.8-0.6-4.4c0-1.6,0.2-3,0.7-4.4c0.4-1.4,1.1-2.6,1.9-3.6c0.9-1,1.9-1.8,3.2-2.4c1.3-0.6,2.7-0.9,4.4-0.9
		c1.1,0,2.2,0.1,3.2,0.4c1,0.3,1.9,0.7,2.7,1.3c0.8,0.6,1.4,1.3,2,2.2c0.5,0.9,0.9,1.9,1,3h-2.8C211.5,15.7,210.8,14.5,209.7,13.8z"
		/>
	<path class="st24" d="M217.6,21.2c0.3-1,0.8-1.9,1.4-2.6c0.6-0.7,1.4-1.3,2.4-1.7c0.9-0.4,2-0.6,3.2-0.6c1.2,0,2.3,0.2,3.3,0.6
		c0.9,0.4,1.7,1,2.4,1.7c0.6,0.7,1.1,1.6,1.4,2.6c0.3,1,0.5,2.1,0.5,3.2c0,1.1-0.2,2.2-0.5,3.2c-0.3,1-0.8,1.8-1.4,2.6
		c-0.6,0.7-1.4,1.3-2.4,1.7c-0.9,0.4-2,0.6-3.3,0.6c-1.2,0-2.3-0.2-3.2-0.6c-0.9-0.4-1.7-1-2.4-1.7c-0.6-0.7-1.1-1.6-1.4-2.6
		c-0.3-1-0.5-2-0.5-3.2C217.2,23.3,217.3,22.2,217.6,21.2z M220.2,26.9c0.2,0.7,0.6,1.3,1,1.8c0.4,0.5,1,0.9,1.5,1.1
		c0.6,0.3,1.2,0.4,1.9,0.4c0.7,0,1.3-0.1,1.9-0.4c0.6-0.3,1.1-0.6,1.5-1.1c0.4-0.5,0.8-1.1,1-1.8c0.2-0.7,0.4-1.6,0.4-2.5
		c0-0.9-0.1-1.8-0.4-2.5c-0.3-0.7-0.6-1.3-1-1.8c-0.4-0.5-1-0.9-1.5-1.1c-0.6-0.3-1.2-0.4-1.9-0.4c-0.7,0-1.3,0.1-1.9,0.4
		c-0.6,0.3-1.1,0.6-1.5,1.1c-0.4,0.5-0.8,1.1-1,1.8c-0.3,0.7-0.4,1.6-0.4,2.5C219.9,25.4,220,26.2,220.2,26.9z"/>
	<path class="st24" d="M237.6,16.7v2.5h0.1c1.1-1.9,2.7-2.8,5-2.8c1,0,1.9,0.1,2.5,0.4c0.7,0.3,1.2,0.7,1.7,1.2
		c0.4,0.5,0.7,1.1,0.9,1.8c0.2,0.7,0.3,1.5,0.3,2.3v10.2h-2.5V21.7c0-1-0.3-1.7-0.8-2.3c-0.6-0.6-1.3-0.8-2.3-0.8
		c-0.8,0-1.5,0.1-2,0.4s-1,0.6-1.4,1c-0.4,0.4-0.7,1-0.9,1.5c-0.2,0.6-0.3,1.2-0.3,1.9v8.8h-2.5V16.7H237.6z"/>
	<path class="st24" d="M258.5,16.7v2.2h-3.1v9.6c0,0.3,0,0.5,0.1,0.7c0,0.2,0.1,0.3,0.3,0.4c0.1,0.1,0.3,0.2,0.6,0.2
		c0.2,0,0.6,0,1,0h1.2v2.2h-2c-0.7,0-1.2,0-1.7-0.1c-0.5-0.1-0.9-0.3-1.1-0.5s-0.5-0.6-0.6-1c-0.1-0.4-0.2-1-0.2-1.7v-9.9h-2.6v-2.2
		h2.6V12h2.5v4.7H258.5z"/>
	<path class="st24" d="M263.7,16.7v3.3h0.1c0.6-1.3,1.4-2.2,2.3-2.8c0.9-0.6,2-0.9,3.4-0.8V19c-1,0-1.9,0.1-2.6,0.4
		s-1.3,0.7-1.7,1.2c-0.4,0.5-0.8,1.2-1,2s-0.3,1.7-0.3,2.7v6.9h-2.5V16.7H263.7z"/>
	<path class="st24" d="M270.4,21.2c0.3-1,0.8-1.9,1.4-2.6c0.6-0.7,1.4-1.3,2.4-1.7c0.9-0.4,2-0.6,3.2-0.6c1.2,0,2.3,0.2,3.3,0.6
		c0.9,0.4,1.7,1,2.4,1.7c0.6,0.7,1.1,1.6,1.4,2.6c0.3,1,0.5,2.1,0.5,3.2c0,1.1-0.2,2.2-0.5,3.2c-0.3,1-0.8,1.8-1.4,2.6
		c-0.6,0.7-1.4,1.3-2.4,1.7c-0.9,0.4-2,0.6-3.3,0.6c-1.2,0-2.3-0.2-3.2-0.6c-0.9-0.4-1.7-1-2.4-1.7c-0.6-0.7-1.1-1.6-1.4-2.6
		c-0.3-1-0.5-2-0.5-3.2C270,23.3,270.1,22.2,270.4,21.2z M273,26.9c0.2,0.7,0.6,1.3,1,1.8c0.4,0.5,1,0.9,1.5,1.1
		c0.6,0.3,1.2,0.4,1.9,0.4c0.7,0,1.3-0.1,1.9-0.4c0.6-0.3,1.1-0.6,1.5-1.1c0.4-0.5,0.8-1.1,1-1.8c0.2-0.7,0.4-1.6,0.4-2.5
		c0-0.9-0.1-1.8-0.4-2.5c-0.3-0.7-0.6-1.3-1-1.8c-0.4-0.5-1-0.9-1.5-1.1c-0.6-0.3-1.2-0.4-1.9-0.4c-0.7,0-1.3,0.1-1.9,0.4
		c-0.6,0.3-1.1,0.6-1.5,1.1c-0.4,0.5-0.8,1.1-1,1.8c-0.3,0.7-0.4,1.6-0.4,2.5C272.7,25.4,272.8,26.2,273,26.9z"/>
	<path class="st24" d="M290.7,10.7v21.4h-2.5V10.7H290.7z"/>
</g>
<g>
	<g id="Layer_1_copy_1_">
		
			<linearGradient id="SVGID_3_" gradientUnits="userSpaceOnUse" x1="330.95" y1="141.8291" x2="330.95" y2="155.6791" gradientTransform="matrix(1 0 0 1 0 -47)">
			<stop  offset="0" style="stop-color:#7C5F52"/>
			<stop  offset="1" style="stop-color:#2A1B12"/>
		</linearGradient>
		<rect x="288.4" y="94.8" class="st25" width="85.1" height="13.9"/>
		<path class="st26" d="M375,93.9h-89.2l-6.2,15.6h101.6L375,93.9z M304.7,107.9c-6,0-10.9-2.8-10.9-6.2c0-3.4,4.9-6.2,10.9-6.2
			s10.9,2.8,10.9,6.2S310.7,107.9,304.7,107.9z M356.3,107.9c-6,0-10.9-2.8-10.9-6.2c0-3.4,4.9-6.2,10.9-6.2s10.9,2.8,10.9,6.2
			C367.2,105.1,362.3,107.9,356.3,107.9z"/>
		<g>
			<path class="st14" d="M367.2,101.4c0,0.1,0,0.2,0,0.3c0,3.4-4.9,6.2-10.9,6.2s-10.9-2.8-10.9-6.2c0-0.1,0-0.2,0-0.3h-29.7
				c0,0.1,0,0.2,0,0.3c0,3.4-4.9,6.2-10.9,6.2s-10.9-2.8-10.9-6.2c0-0.1,0-0.2,0-0.3H283l-3.3,8.1h101.6l-3.3-8.1H367.2L367.2,101.4
				z"/>
			<rect x="279.7" y="109.5" class="st27" width="101.6" height="13.8"/>
		</g>
		<path class="st28" d="M375,93.9h-89.2l-6.2,15.6h101.6L375,93.9z M304.7,107.9c-6,0-10.9-2.8-10.9-6.2c0-3.4,4.9-6.2,10.9-6.2
			s10.9,2.8,10.9,6.2S310.7,107.9,304.7,107.9z M356.3,107.9c-6,0-10.9-2.8-10.9-6.2c0-3.4,4.9-6.2,10.9-6.2s10.9,2.8,10.9,6.2
			C367.2,105.1,362.3,107.9,356.3,107.9z"/>
	</g>
	<g>
		<path class="st16" d="M297.5,71.3v68.1c0,4.8,3.3,8.7,7.2,8.7c3.9,0,7.2-3.9,7.2-8.7V71.3H297.5z"/>
		<path class="st28" d="M297.5,71.3v68.1c0,4.8,3.3,8.7,7.2,8.7c3.9,0,7.2-3.9,7.2-8.7V71.3H297.5z"/>
		<path class="st29" d="M313.1,75.1c0,0,0.5-14.3,1.6-14.3h-20c1.2,0,1.6,14.3,1.6,14.3H313.1z"/>
	</g>
	<g>
		<path class="st18" d="M349.2,71.4v67.8c0,4.8,3.2,8.6,7.1,8.6s7.1-3.9,7.1-8.6V71.4H349.2z"/>
		<path class="st28" d="M349.2,71.4v67.8c0,4.8,3.2,8.6,7.1,8.6s7.1-3.9,7.1-8.6V71.4H349.2z"/>
		<path class="st29" d="M364.7,75.2c0,0,0.5-14.2,1.6-14.2h-20c1.2,0,1.6,14.2,1.6,14.2H364.7z"/>
	</g>
	<g>
		<path class="st14" d="M367.1,101.3c0,0.1,0,0.2,0,0.3c0,3.4-4.9,6.2-10.9,6.2s-10.9-2.8-10.9-6.2c0-0.1,0-0.2,0-0.3h-29.7
			c0,0.1,0,0.2,0,0.3c0,3.4-4.9,6.2-10.9,6.2s-10.9-2.8-10.9-6.2c0-0.1,0-0.2,0-0.3h-9.9l-3.3,8.1h99.6l-3.3-8.1H367.1L367.1,101.3z
			"/>
		<rect x="279.7" y="109.5" class="st27" width="101.6" height="13.8"/>
	</g>
	<path class="st28" d="M315.6,101.4c0,3.4-4.9,6.2-10.9,6.2s-10.9-2.8-10.9-6.2 M367.2,101.4c0,3.4-4.9,6.2-10.9,6.2
		s-10.9-2.8-10.9-6.2"/>
</g>
<g id="Layer_1_copy" class="st30">
	<text transform="matrix(1 0 0 1 107.7116 32.1665)" class="st31 st32 st33">Zoom Control</text>
	<g class="st34">
		<polygon class="st4" points="105.4,111 35.6,111 40.6,98.5 100.4,98.5 		"/>
		<rect x="35.6" y="111" class="st19" width="69.8" height="12.5"/>
		<path class="st5" d="M99.2,83.6H41.8c-0.7,0-1.2,0.5-1.2,1.2v7v6.7h59.8v-6.7v-2.7v-4.3C100.4,84.1,99.9,83.6,99.2,83.6z"/>
		<rect x="48.1" y="85.1" class="st6" width="44.9" height="12"/>
		<rect x="59.5" y="86.5" class="st7" width="22.4" height="9"/>
		<circle class="st8" cx="53.5" cy="91" r="0.4"/>
	</g>
</g>
</svg>
