<?xml version="1.0" encoding="utf-8"?>
<!-- Generator: Adobe Illustrator 19.2.1, SVG Export Plug-In . SVG Version: 6.00 Build 0)  -->
<svg version="1.1" id="Layer_1" xmlns="http://www.w3.org/2000/svg" xmlns:xlink="http://www.w3.org/1999/xlink" x="0px" y="0px"
	 viewBox="0 0 841.2 219.3" style="enable-background:new 0 0 841.2 219.3;" xml:space="preserve">
<style type="text/css">
	.st0{display:none;}
	.st1{display:inline;fill:none;stroke:#010101;stroke-width:5;}
	.st2{display:inline;fill:none;stroke:#010101;}
	.st3{display:inline;fill:none;stroke:#010101;stroke-width:2;}
	.st4{display:inline;}
	.st5{enable-background:new    ;}
	.st6{fill:#010101;}
	.st7{display:inline;fill:#010101;}
	.st8{font-family:'Helvetica';}
	.st9{font-size:16.9412px;}
	.st10{fill:none;stroke:#000000;stroke-width:5;stroke-linecap:round;stroke-miterlimit:10;}
	.st11{fill:none;stroke:#000000;stroke-width:5;stroke-linecap:round;}
	.st12{fill:none;stroke:#010101;stroke-width:5;}
	.st13{opacity:0.5;fill:#FFFFFF;stroke:#000000;stroke-width:5;stroke-linecap:round;enable-background:new    ;}
	.st14{opacity:0.25;fill:#FFFFFF;stroke:#010101;stroke-width:5;enable-background:new    ;}
	.st15{fill:none;stroke:#000000;}
	.st16{fill:none;stroke:#000000;stroke-width:2;}
</style>
<g class="st0">
	<line class="st1" x1="367.7" y1="-256.3" x2="367.7" y2="484.9"/>
	<line class="st1" x1="473.5" y1="-256.3" x2="473.5" y2="484.9"/>
	<line class="st2" x1="383.5" y1="478.5" x2="425.9" y2="478.5"/>
	<line class="st2" x1="383.5" y1="472.2" x2="425.9" y2="472.2"/>
	<line class="st2" x1="383.5" y1="465.8" x2="425.9" y2="465.8"/>
	<line class="st2" x1="383.5" y1="459.5" x2="425.9" y2="459.5"/>
	<line class="st3" x1="372.9" y1="453.1" x2="468.2" y2="453.1"/>
	<line class="st2" x1="383.5" y1="446.8" x2="425.9" y2="446.8"/>
	<line class="st2" x1="383.5" y1="440.4" x2="425.9" y2="440.4"/>
	<line class="st2" x1="383.5" y1="434.1" x2="425.9" y2="434.1"/>
	<line class="st2" x1="383.5" y1="427.7" x2="425.9" y2="427.7"/>
	<line class="st3" x1="372.9" y1="421.3" x2="468.2" y2="421.3"/>
	<text transform="matrix(1 0 0 1 449.4065 418.1211)" class="st7 st8 st9">10</text>
	<line class="st2" x1="383.5" y1="415" x2="425.9" y2="415"/>
	<line class="st2" x1="383.5" y1="408.6" x2="425.9" y2="408.6"/>
	<line class="st2" x1="383.5" y1="402.3" x2="425.9" y2="402.3"/>
	<line class="st2" x1="383.5" y1="395.9" x2="425.9" y2="395.9"/>
	<line class="st3" x1="372.9" y1="389.6" x2="468.2" y2="389.6"/>
	<line class="st2" x1="383.5" y1="383.2" x2="425.9" y2="383.2"/>
	<line class="st2" x1="383.5" y1="376.9" x2="425.9" y2="376.9"/>
	<line class="st2" x1="383.5" y1="370.5" x2="425.9" y2="370.5"/>
	<line class="st2" x1="383.5" y1="364.2" x2="425.9" y2="364.2"/>
	<line class="st3" x1="372.9" y1="357.8" x2="468.2" y2="357.8"/>
	<text transform="matrix(1 0 0 1 449.4065 354.5918)" class="st7 st8 st9">20</text>
	<line class="st2" x1="383.5" y1="351.5" x2="425.9" y2="351.5"/>
	<line class="st2" x1="383.5" y1="345.1" x2="425.9" y2="345.1"/>
	<line class="st2" x1="383.5" y1="338.8" x2="425.9" y2="338.8"/>
	<line class="st2" x1="383.5" y1="332.4" x2="425.9" y2="332.4"/>
	<line class="st3" x1="372.9" y1="326.1" x2="468.2" y2="326.1"/>
	<line class="st2" x1="383.5" y1="319.7" x2="425.9" y2="319.7"/>
	<line class="st2" x1="383.5" y1="313.3" x2="425.9" y2="313.3"/>
	<line class="st2" x1="383.5" y1="307" x2="425.9" y2="307"/>
	<line class="st2" x1="383.5" y1="300.6" x2="425.9" y2="300.6"/>
	<line class="st3" x1="372.9" y1="294.3" x2="468.2" y2="294.3"/>
	<text transform="matrix(1 0 0 1 449.4065 291.0625)" class="st7 st8 st9">30</text>
	<line class="st2" x1="383.5" y1="287.9" x2="425.9" y2="287.9"/>
	<line class="st2" x1="383.5" y1="281.6" x2="425.9" y2="281.6"/>
	<line class="st2" x1="383.5" y1="275.2" x2="425.9" y2="275.2"/>
	<line class="st2" x1="383.5" y1="268.9" x2="425.9" y2="268.9"/>
	<line class="st3" x1="372.9" y1="262.5" x2="468.2" y2="262.5"/>
	<line class="st2" x1="383.5" y1="256.2" x2="425.9" y2="256.2"/>
	<line class="st2" x1="383.5" y1="249.8" x2="425.9" y2="249.8"/>
	<line class="st2" x1="383.5" y1="243.5" x2="425.9" y2="243.5"/>
	<line class="st2" x1="383.5" y1="237.1" x2="425.9" y2="237.1"/>
	<line class="st3" x1="372.9" y1="230.8" x2="468.2" y2="230.8"/>
	<text transform="matrix(1 0 0 1 449.4065 227.5332)" class="st7 st8 st9">40</text>
	<line class="st2" x1="383.5" y1="224.4" x2="425.9" y2="224.4"/>
	<line class="st2" x1="383.5" y1="218.1" x2="425.9" y2="218.1"/>
	<line class="st2" x1="383.5" y1="211.7" x2="425.9" y2="211.7"/>
	<line class="st2" x1="383.5" y1="205.3" x2="425.9" y2="205.3"/>
	<line class="st3" x1="372.9" y1="199" x2="468.2" y2="199"/>
	<line class="st2" x1="383.5" y1="192.6" x2="425.9" y2="192.6"/>
	<line class="st2" x1="383.5" y1="186.3" x2="425.9" y2="186.3"/>
	<line class="st2" x1="383.5" y1="179.9" x2="425.9" y2="179.9"/>
	<line class="st2" x1="383.5" y1="173.6" x2="425.9" y2="173.6"/>
	<line class="st3" x1="372.9" y1="167.2" x2="468.2" y2="167.2"/>
	<text transform="matrix(1 0 0 1 449.4065 164.0038)" class="st7 st8 st9">50</text>
	<line class="st2" x1="383.5" y1="160.9" x2="425.9" y2="160.9"/>
	<line class="st2" x1="383.5" y1="154.5" x2="425.9" y2="154.5"/>
	<line class="st2" x1="383.5" y1="148.2" x2="425.9" y2="148.2"/>
	<line class="st2" x1="383.5" y1="141.8" x2="425.9" y2="141.8"/>
	<line class="st3" x1="372.9" y1="135.5" x2="468.2" y2="135.5"/>
	<line class="st2" x1="383.5" y1="129.1" x2="425.9" y2="129.1"/>
	<line class="st2" x1="383.5" y1="122.8" x2="425.9" y2="122.8"/>
	<line class="st2" x1="383.5" y1="116.4" x2="425.9" y2="116.4"/>
	<line class="st2" x1="383.5" y1="110.1" x2="425.9" y2="110.1"/>
	<line class="st3" x1="372.9" y1="103.7" x2="468.2" y2="103.7"/>
	<text transform="matrix(1 0 0 1 449.4065 100.4745)" class="st7 st8 st9">60</text>
	<line class="st2" x1="383.5" y1="97.3" x2="425.9" y2="97.3"/>
	<line class="st2" x1="383.5" y1="91" x2="425.9" y2="91"/>
	<line class="st2" x1="383.5" y1="84.6" x2="425.9" y2="84.6"/>
	<line class="st2" x1="383.5" y1="78.3" x2="425.9" y2="78.3"/>
	<line class="st3" x1="372.9" y1="71.9" x2="468.2" y2="71.9"/>
	<line class="st2" x1="383.5" y1="65.6" x2="425.9" y2="65.6"/>
	<line class="st2" x1="383.5" y1="59.2" x2="425.9" y2="59.2"/>
	<line class="st2" x1="383.5" y1="52.9" x2="425.9" y2="52.9"/>
	<line class="st2" x1="383.5" y1="46.5" x2="425.9" y2="46.5"/>
	<line class="st3" x1="372.9" y1="40.2" x2="468.2" y2="40.2"/>
	<text transform="matrix(1 0 0 1 449.4065 36.9448)" class="st7 st8 st9">70</text>
	<line class="st2" x1="383.5" y1="33.8" x2="425.9" y2="33.8"/>
	<line class="st2" x1="383.5" y1="27.5" x2="425.9" y2="27.5"/>
	<line class="st2" x1="383.5" y1="21.1" x2="425.9" y2="21.1"/>
	<line class="st2" x1="383.5" y1="14.8" x2="425.9" y2="14.8"/>
	<line class="st3" x1="372.9" y1="8.4" x2="468.2" y2="8.4"/>
	<line class="st2" x1="383.5" y1="2.1" x2="425.9" y2="2.1"/>
	<line class="st2" x1="383.5" y1="-4.3" x2="425.9" y2="-4.3"/>
	<line class="st2" x1="383.5" y1="-10.7" x2="425.9" y2="-10.7"/>
	<line class="st2" x1="383.5" y1="-17" x2="425.9" y2="-17"/>
	<line class="st3" x1="372.9" y1="-23.4" x2="468.2" y2="-23.4"/>
	<text transform="matrix(1 0 0 1 449.4065 -26.5845)" class="st7 st8 st9">80</text>
	<line class="st2" x1="383.5" y1="-29.7" x2="425.9" y2="-29.7"/>
	<line class="st2" x1="383.5" y1="-36.1" x2="425.9" y2="-36.1"/>
	<line class="st2" x1="383.5" y1="-42.4" x2="425.9" y2="-42.4"/>
	<line class="st2" x1="383.5" y1="-48.8" x2="425.9" y2="-48.8"/>
	<line class="st3" x1="372.9" y1="-55.1" x2="468.2" y2="-55.1"/>
	<line class="st2" x1="383.5" y1="-61.5" x2="425.9" y2="-61.5"/>
	<line class="st2" x1="383.5" y1="-67.8" x2="425.9" y2="-67.8"/>
	<line class="st2" x1="383.5" y1="-74.2" x2="425.9" y2="-74.2"/>
	<line class="st2" x1="383.5" y1="-80.5" x2="425.9" y2="-80.5"/>
	<line class="st3" x1="372.9" y1="-86.9" x2="468.2" y2="-86.9"/>
	<text transform="matrix(1 0 0 1 449.4065 -90.1143)" class="st7 st8 st9">90</text>
	<line class="st2" x1="383.5" y1="-93.2" x2="425.9" y2="-93.2"/>
	<line class="st2" x1="383.5" y1="-99.6" x2="425.9" y2="-99.6"/>
	<line class="st2" x1="383.5" y1="-105.9" x2="425.9" y2="-105.9"/>
	<line class="st2" x1="383.5" y1="-112.3" x2="425.9" y2="-112.3"/>
	<line class="st3" x1="372.9" y1="-118.7" x2="468.2" y2="-118.7"/>
	<line class="st2" x1="383.5" y1="-125" x2="425.9" y2="-125"/>
	<line class="st2" x1="383.5" y1="-131.4" x2="425.9" y2="-131.4"/>
	<line class="st2" x1="383.5" y1="-137.7" x2="425.9" y2="-137.7"/>
	<line class="st2" x1="383.5" y1="-144.1" x2="425.9" y2="-144.1"/>
	<line class="st3" x1="372.9" y1="-150.4" x2="468.2" y2="-150.4"/>
	<text transform="matrix(1 0 0 1 439.9846 -153.6436)" class="st7 st8 st9">100</text>
</g>
<line class="st10" x1="795.8" y1="162.6" x2="795.8" y2="56.8"/>
<polygon class="st11" points="838.7,6.8 838.7,212.6 795.8,162.6 795.8,56.8 "/>
<polygon class="st12" points="2.5,200.6 2.7,56.8 795.8,56.8 795.8,162.6 54.6,162.6 "/>
<polygon class="st13" points="838.7,6.8 838.7,212.6 795.8,162.6 795.8,56.8 "/>
<polygon class="st14" points="2.5,200.6 2.7,56.8 795.8,56.8 795.8,162.6 54.6,162.6 "/>
<line class="st15" x1="53" y1="162.8" x2="794.2" y2="162.8"/>
<line class="st15" x1="53" y1="56.9" x2="794.2" y2="56.9"/>
<line class="st15" x1="787.8" y1="146.9" x2="787.8" y2="104.6"/>
<line class="st15" x1="781.5" y1="146.9" x2="781.5" y2="104.6"/>
<line class="st15" x1="775.1" y1="146.9" x2="775.1" y2="104.6"/>
<line class="st15" x1="768.8" y1="146.9" x2="768.8" y2="104.6"/>
<line class="st16" x1="762.4" y1="157.5" x2="762.4" y2="62.2"/>
<line class="st15" x1="756.1" y1="146.9" x2="756.1" y2="104.6"/>
<line class="st15" x1="749.7" y1="146.9" x2="749.7" y2="104.6"/>
<line class="st15" x1="743.4" y1="146.9" x2="743.4" y2="104.6"/>
<line class="st15" x1="737" y1="146.9" x2="737" y2="104.6"/>
<line class="st16" x1="730.6" y1="157.5" x2="730.6" y2="62.2"/>
<text transform="matrix(4.489659e-11 -1 1 4.489659e-11 727.4768 71.5872)" class="st8 st9">1</text>
<line class="st15" x1="724.3" y1="146.9" x2="724.3" y2="104.6"/>
<line class="st15" x1="717.9" y1="146.9" x2="717.9" y2="104.6"/>
<line class="st15" x1="711.6" y1="146.9" x2="711.6" y2="104.6"/>
<line class="st15" x1="705.2" y1="146.9" x2="705.2" y2="104.6"/>
<line class="st16" x1="698.9" y1="157.5" x2="698.9" y2="62.2"/>
<line class="st15" x1="692.5" y1="146.9" x2="692.5" y2="104.6"/>
<line class="st15" x1="686.2" y1="146.9" x2="686.2" y2="104.6"/>
<line class="st15" x1="679.8" y1="146.9" x2="679.8" y2="104.6"/>
<line class="st15" x1="673.5" y1="146.9" x2="673.5" y2="104.6"/>
<line class="st16" x1="667.1" y1="157.5" x2="667.1" y2="62.2"/>
<text transform="matrix(4.489659e-11 -1 1 4.489659e-11 663.9475 71.5872)" class="st8 st9">2</text>
<line class="st15" x1="660.8" y1="146.9" x2="660.8" y2="104.6"/>
<line class="st15" x1="654.4" y1="146.9" x2="654.4" y2="104.6"/>
<line class="st15" x1="648.1" y1="146.9" x2="648.1" y2="104.6"/>
<line class="st15" x1="641.7" y1="146.9" x2="641.7" y2="104.6"/>
<line class="st16" x1="635.4" y1="157.5" x2="635.4" y2="62.2"/>
<line class="st15" x1="629" y1="146.9" x2="629" y2="104.6"/>
<line class="st15" x1="622.6" y1="146.9" x2="622.6" y2="104.6"/>
<line class="st15" x1="616.3" y1="146.9" x2="616.3" y2="104.6"/>
<line class="st15" x1="609.9" y1="146.9" x2="609.9" y2="104.6"/>
<line class="st16" x1="603.6" y1="157.5" x2="603.6" y2="62.2"/>
<text transform="matrix(4.489659e-11 -1 1 4.489659e-11 600.4182 71.5872)" class="st8 st9">3</text>
<line class="st15" x1="597.2" y1="146.9" x2="597.2" y2="104.6"/>
<line class="st15" x1="590.9" y1="146.9" x2="590.9" y2="104.6"/>
<line class="st15" x1="584.5" y1="146.9" x2="584.5" y2="104.6"/>
<line class="st15" x1="578.2" y1="146.9" x2="578.2" y2="104.6"/>
<line class="st16" x1="571.8" y1="157.5" x2="571.8" y2="62.2"/>
<line class="st15" x1="565.5" y1="146.9" x2="565.5" y2="104.6"/>
<line class="st15" x1="559.1" y1="146.9" x2="559.1" y2="104.6"/>
<line class="st15" x1="552.8" y1="146.9" x2="552.8" y2="104.6"/>
<line class="st15" x1="546.4" y1="146.9" x2="546.4" y2="104.6"/>
<line class="st16" x1="540.1" y1="157.5" x2="540.1" y2="62.2"/>
<text transform="matrix(4.489659e-11 -1 1 4.489659e-11 536.889 71.5872)" class="st8 st9">4</text>
<line class="st15" x1="533.7" y1="146.9" x2="533.7" y2="104.6"/>
<line class="st15" x1="527.4" y1="146.9" x2="527.4" y2="104.6"/>
<line class="st15" x1="521" y1="146.9" x2="521" y2="104.6"/>
<line class="st15" x1="514.6" y1="146.9" x2="514.6" y2="104.6"/>
<line class="st16" x1="508.3" y1="157.5" x2="508.3" y2="62.2"/>
<line class="st15" x1="501.9" y1="146.9" x2="501.9" y2="104.6"/>
<line class="st15" x1="495.6" y1="146.9" x2="495.6" y2="104.6"/>
<line class="st15" x1="489.2" y1="146.9" x2="489.2" y2="104.6"/>
<line class="st15" x1="482.9" y1="146.9" x2="482.9" y2="104.6"/>
<line class="st16" x1="476.5" y1="157.5" x2="476.5" y2="62.2"/>
<text transform="matrix(4.489659e-11 -1 1 4.489659e-11 473.3596 71.5872)" class="st8 st9">5</text>
<line class="st15" x1="470.2" y1="146.9" x2="470.2" y2="104.6"/>
<line class="st15" x1="463.8" y1="146.9" x2="463.8" y2="104.6"/>
<line class="st15" x1="457.5" y1="146.9" x2="457.5" y2="104.6"/>
<line class="st15" x1="451.1" y1="146.9" x2="451.1" y2="104.6"/>
<line class="st16" x1="444.8" y1="157.5" x2="444.8" y2="62.2"/>
<line class="st15" x1="438.4" y1="146.9" x2="438.4" y2="104.6"/>
<line class="st15" x1="432.1" y1="146.9" x2="432.1" y2="104.6"/>
<line class="st15" x1="425.7" y1="146.9" x2="425.7" y2="104.6"/>
<line class="st15" x1="419.4" y1="146.9" x2="419.4" y2="104.6"/>
<line class="st16" x1="413" y1="157.5" x2="413" y2="62.2"/>
<text transform="matrix(4.489659e-11 -1 1 4.489659e-11 409.8303 71.5872)" class="st8 st9">6</text>
<line class="st15" x1="406.6" y1="146.9" x2="406.6" y2="104.6"/>
<line class="st15" x1="400.3" y1="146.9" x2="400.3" y2="104.6"/>
<line class="st15" x1="393.9" y1="146.9" x2="393.9" y2="104.6"/>
<line class="st15" x1="387.6" y1="146.9" x2="387.6" y2="104.6"/>
<line class="st16" x1="381.2" y1="157.5" x2="381.2" y2="62.2"/>
<line class="st15" x1="374.9" y1="146.9" x2="374.9" y2="104.6"/>
<line class="st15" x1="368.5" y1="146.9" x2="368.5" y2="104.6"/>
<line class="st15" x1="362.2" y1="146.9" x2="362.2" y2="104.6"/>
<line class="st15" x1="355.8" y1="146.9" x2="355.8" y2="104.6"/>
<line class="st16" x1="349.5" y1="157.5" x2="349.5" y2="62.2"/>
<text transform="matrix(4.489659e-11 -1 1 4.489659e-11 346.3005 71.5872)" class="st8 st9">7</text>
<line class="st15" x1="343.1" y1="146.9" x2="343.1" y2="104.6"/>
<line class="st15" x1="336.8" y1="146.9" x2="336.8" y2="104.6"/>
<line class="st15" x1="330.4" y1="146.9" x2="330.4" y2="104.6"/>
<line class="st15" x1="324.1" y1="146.9" x2="324.1" y2="104.6"/>
<line class="st16" x1="317.7" y1="157.5" x2="317.7" y2="62.2"/>
<line class="st15" x1="311.4" y1="146.9" x2="311.4" y2="104.6"/>
<line class="st15" x1="305" y1="146.9" x2="305" y2="104.6"/>
<line class="st15" x1="298.6" y1="146.9" x2="298.6" y2="104.6"/>
<line class="st15" x1="292.3" y1="146.9" x2="292.3" y2="104.6"/>
<line class="st16" x1="285.9" y1="157.5" x2="285.9" y2="62.2"/>
<text transform="matrix(4.489659e-11 -1 1 4.489659e-11 282.7712 71.5872)" class="st8 st9">8</text>
<line class="st15" x1="279.6" y1="146.9" x2="279.6" y2="104.6"/>
<line class="st15" x1="273.2" y1="146.9" x2="273.2" y2="104.6"/>
<line class="st15" x1="266.9" y1="146.9" x2="266.9" y2="104.6"/>
<line class="st15" x1="260.5" y1="146.9" x2="260.5" y2="104.6"/>
<line class="st16" x1="254.2" y1="157.5" x2="254.2" y2="62.2"/>
<line class="st15" x1="247.8" y1="146.9" x2="247.8" y2="104.6"/>
<line class="st15" x1="241.5" y1="146.9" x2="241.5" y2="104.6"/>
<line class="st15" x1="235.1" y1="146.9" x2="235.1" y2="104.6"/>
<line class="st15" x1="228.8" y1="146.9" x2="228.8" y2="104.6"/>
<line class="st16" x1="222.4" y1="157.5" x2="222.4" y2="62.2"/>
<text transform="matrix(4.489659e-11 -1 1 4.489659e-11 219.2415 71.5872)" class="st8 st9">9</text>
<line class="st15" x1="216.1" y1="146.9" x2="216.1" y2="104.6"/>
<line class="st15" x1="209.7" y1="146.9" x2="209.7" y2="104.6"/>
<line class="st15" x1="203.4" y1="146.9" x2="203.4" y2="104.6"/>
<line class="st15" x1="197" y1="146.9" x2="197" y2="104.6"/>
<line class="st16" x1="190.6" y1="157.5" x2="190.6" y2="62.2"/>
<line class="st15" x1="184.3" y1="146.9" x2="184.3" y2="104.6"/>
<line class="st15" x1="177.9" y1="146.9" x2="177.9" y2="104.6"/>
<line class="st15" x1="171.6" y1="146.9" x2="171.6" y2="104.6"/>
<line class="st15" x1="165.2" y1="146.9" x2="165.2" y2="104.6"/>
<line class="st16" x1="158.9" y1="157.5" x2="158.9" y2="62.2"/>
<text transform="matrix(4.489659e-11 -1 1 4.489659e-11 155.7121 81.0091)" class="st8 st9">10</text>
</svg>
