<?xml version="1.0" encoding="utf-8"?>
<!-- Generator: Adobe Illustrator 19.2.0, SVG Export Plug-In . SVG Version: 6.00 Build 0)  -->
<svg version="1.1" id="Layer_1" xmlns="http://www.w3.org/2000/svg" xmlns:xlink="http://www.w3.org/1999/xlink" x="0px" y="0px"
	 viewBox="0 0 219.4 841.2" style="enable-background:new 0 0 219.4 841.2;" xml:space="preserve">
<style type="text/css">
	.st0{display:none;}
	.st1{display:inline;fill:none;stroke:#010101;stroke-width:5;}
	.st2{display:inline;fill:none;stroke:#010101;}
	.st3{display:inline;fill:none;stroke:#010101;stroke-width:2;}
	.st4{display:inline;fill:#010101;}
	.st5{font-family:'Helvetica';}
	.st6{font-size:16.9412px;}
	.st7{fill:none;stroke:#000000;stroke-width:5;stroke-linecap:round;stroke-miterlimit:10;}
	.st8{fill:none;stroke:#000000;stroke-width:5;stroke-linecap:round;}
	.st9{fill:none;stroke:#010101;stroke-width:5;}
	.st10{opacity:0.5;fill:#FFFFFF;stroke:#000000;stroke-width:5;stroke-linecap:round;}
	.st11{opacity:0.25;fill:#FFFFFF;stroke:#010101;stroke-width:5;}
</style>
<g class="st0">
	<line class="st1" x1="56.8" y1="54.6" x2="56.8" y2="795.8"/>
	<line class="st1" x1="162.6" y1="54.6" x2="162.6" y2="795.8"/>
	<line class="st2" x1="72.6" y1="789.4" x2="115" y2="789.4"/>
	<line class="st2" x1="72.6" y1="783.1" x2="115" y2="783.1"/>
	<line class="st2" x1="72.6" y1="776.7" x2="115" y2="776.7"/>
	<line class="st2" x1="72.6" y1="770.4" x2="115" y2="770.4"/>
	<line class="st3" x1="62" y1="764" x2="157.3" y2="764"/>
	<line class="st2" x1="72.6" y1="757.7" x2="115" y2="757.7"/>
	<line class="st2" x1="72.6" y1="751.3" x2="115" y2="751.3"/>
	<line class="st2" x1="72.6" y1="745" x2="115" y2="745"/>
	<line class="st2" x1="72.6" y1="738.6" x2="115" y2="738.6"/>
	<line class="st3" x1="62" y1="732.2" x2="157.3" y2="732.2"/>
	<text transform="matrix(1 0 0 1 138.4996 729.0681)" class="st4 st5 st6">10</text>
	<line class="st2" x1="72.6" y1="725.9" x2="115" y2="725.9"/>
	<line class="st2" x1="72.6" y1="719.5" x2="115" y2="719.5"/>
	<line class="st2" x1="72.6" y1="713.2" x2="115" y2="713.2"/>
	<line class="st2" x1="72.6" y1="706.8" x2="115" y2="706.8"/>
	<line class="st3" x1="62" y1="700.5" x2="157.3" y2="700.5"/>
	<line class="st2" x1="72.6" y1="694.1" x2="115" y2="694.1"/>
	<line class="st2" x1="72.6" y1="687.8" x2="115" y2="687.8"/>
	<line class="st2" x1="72.6" y1="681.4" x2="115" y2="681.4"/>
	<line class="st2" x1="72.6" y1="675.1" x2="115" y2="675.1"/>
	<line class="st3" x1="62" y1="668.7" x2="157.3" y2="668.7"/>
	<text transform="matrix(1 0 0 1 138.4996 665.5388)" class="st4 st5 st6">20</text>
	<line class="st2" x1="72.6" y1="662.4" x2="115" y2="662.4"/>
	<line class="st2" x1="72.6" y1="656" x2="115" y2="656"/>
	<line class="st2" x1="72.6" y1="649.7" x2="115" y2="649.7"/>
	<line class="st2" x1="72.6" y1="643.3" x2="115" y2="643.3"/>
	<line class="st3" x1="62" y1="637" x2="157.3" y2="637"/>
	<line class="st2" x1="72.6" y1="630.6" x2="115" y2="630.6"/>
	<line class="st2" x1="72.6" y1="624.2" x2="115" y2="624.2"/>
	<line class="st2" x1="72.6" y1="617.9" x2="115" y2="617.9"/>
	<line class="st2" x1="72.6" y1="611.5" x2="115" y2="611.5"/>
	<line class="st3" x1="62" y1="605.2" x2="157.3" y2="605.2"/>
	<text transform="matrix(1 0 0 1 138.4996 602.0095)" class="st4 st5 st6">30</text>
	<line class="st2" x1="72.6" y1="598.8" x2="115" y2="598.8"/>
	<line class="st2" x1="72.6" y1="592.5" x2="115" y2="592.5"/>
	<line class="st2" x1="72.6" y1="586.1" x2="115" y2="586.1"/>
	<line class="st2" x1="72.6" y1="579.8" x2="115" y2="579.8"/>
	<line class="st3" x1="62" y1="573.4" x2="157.3" y2="573.4"/>
	<line class="st2" x1="72.6" y1="567.1" x2="115" y2="567.1"/>
	<line class="st2" x1="72.6" y1="560.7" x2="115" y2="560.7"/>
	<line class="st2" x1="72.6" y1="554.4" x2="115" y2="554.4"/>
	<line class="st2" x1="72.6" y1="548" x2="115" y2="548"/>
	<line class="st3" x1="62" y1="541.7" x2="157.3" y2="541.7"/>
	<text transform="matrix(1 0 0 1 138.4996 538.4802)" class="st4 st5 st6">40</text>
	<line class="st2" x1="72.6" y1="535.3" x2="115" y2="535.3"/>
	<line class="st2" x1="72.6" y1="529" x2="115" y2="529"/>
	<line class="st2" x1="72.6" y1="522.6" x2="115" y2="522.6"/>
	<line class="st2" x1="72.6" y1="516.2" x2="115" y2="516.2"/>
	<line class="st3" x1="62" y1="509.9" x2="157.3" y2="509.9"/>
	<line class="st2" x1="72.6" y1="503.5" x2="115" y2="503.5"/>
	<line class="st2" x1="72.6" y1="497.2" x2="115" y2="497.2"/>
	<line class="st2" x1="72.6" y1="490.8" x2="115" y2="490.8"/>
	<line class="st2" x1="72.6" y1="484.5" x2="115" y2="484.5"/>
	<line class="st3" x1="62" y1="478.1" x2="157.3" y2="478.1"/>
	<text transform="matrix(1 0 0 1 138.4996 474.9508)" class="st4 st5 st6">50</text>
	<line class="st2" x1="72.6" y1="471.8" x2="115" y2="471.8"/>
	<line class="st2" x1="72.6" y1="465.4" x2="115" y2="465.4"/>
	<line class="st2" x1="72.6" y1="459.1" x2="115" y2="459.1"/>
	<line class="st2" x1="72.6" y1="452.7" x2="115" y2="452.7"/>
	<line class="st3" x1="62" y1="446.4" x2="157.3" y2="446.4"/>
	<line class="st2" x1="72.6" y1="440" x2="115" y2="440"/>
	<line class="st2" x1="72.6" y1="433.7" x2="115" y2="433.7"/>
	<line class="st2" x1="72.6" y1="427.3" x2="115" y2="427.3"/>
	<line class="st2" x1="72.6" y1="421" x2="115" y2="421"/>
	<line class="st3" x1="62" y1="414.6" x2="157.3" y2="414.6"/>
	<text transform="matrix(1 0 0 1 138.4996 411.4215)" class="st4 st5 st6">60</text>
	<line class="st2" x1="72.6" y1="408.2" x2="115" y2="408.2"/>
	<line class="st2" x1="72.6" y1="401.9" x2="115" y2="401.9"/>
	<line class="st2" x1="72.6" y1="395.5" x2="115" y2="395.5"/>
	<line class="st2" x1="72.6" y1="389.2" x2="115" y2="389.2"/>
	<line class="st3" x1="62" y1="382.8" x2="157.3" y2="382.8"/>
	<line class="st2" x1="72.6" y1="376.5" x2="115" y2="376.5"/>
	<line class="st2" x1="72.6" y1="370.1" x2="115" y2="370.1"/>
	<line class="st2" x1="72.6" y1="363.8" x2="115" y2="363.8"/>
	<line class="st2" x1="72.6" y1="357.4" x2="115" y2="357.4"/>
	<line class="st3" x1="62" y1="351.1" x2="157.3" y2="351.1"/>
	<text transform="matrix(1 0 0 1 138.4996 347.8918)" class="st4 st5 st6">70</text>
	<line class="st2" x1="72.6" y1="344.7" x2="115" y2="344.7"/>
	<line class="st2" x1="72.6" y1="338.4" x2="115" y2="338.4"/>
	<line class="st2" x1="72.6" y1="332" x2="115" y2="332"/>
	<line class="st2" x1="72.6" y1="325.7" x2="115" y2="325.7"/>
	<line class="st3" x1="62" y1="319.3" x2="157.3" y2="319.3"/>
	<line class="st2" x1="72.6" y1="313" x2="115" y2="313"/>
	<line class="st2" x1="72.6" y1="306.6" x2="115" y2="306.6"/>
	<line class="st2" x1="72.6" y1="300.2" x2="115" y2="300.2"/>
	<line class="st2" x1="72.6" y1="293.9" x2="115" y2="293.9"/>
	<line class="st3" x1="62" y1="287.5" x2="157.3" y2="287.5"/>
	<text transform="matrix(1 0 0 1 138.4996 284.3625)" class="st4 st5 st6">80</text>
	<line class="st2" x1="72.6" y1="281.2" x2="115" y2="281.2"/>
	<line class="st2" x1="72.6" y1="274.8" x2="115" y2="274.8"/>
	<line class="st2" x1="72.6" y1="268.5" x2="115" y2="268.5"/>
	<line class="st2" x1="72.6" y1="262.1" x2="115" y2="262.1"/>
	<line class="st3" x1="62" y1="255.8" x2="157.3" y2="255.8"/>
	<line class="st2" x1="72.6" y1="249.4" x2="115" y2="249.4"/>
	<line class="st2" x1="72.6" y1="243.1" x2="115" y2="243.1"/>
	<line class="st2" x1="72.6" y1="236.7" x2="115" y2="236.7"/>
	<line class="st2" x1="72.6" y1="230.4" x2="115" y2="230.4"/>
	<line class="st3" x1="62" y1="224" x2="157.3" y2="224"/>
	<text transform="matrix(1 0 0 1 138.4996 220.8327)" class="st4 st5 st6">90</text>
	<line class="st2" x1="72.6" y1="217.7" x2="115" y2="217.7"/>
	<line class="st2" x1="72.6" y1="211.3" x2="115" y2="211.3"/>
	<line class="st2" x1="72.6" y1="205" x2="115" y2="205"/>
	<line class="st2" x1="72.6" y1="198.6" x2="115" y2="198.6"/>
	<line class="st3" x1="62" y1="192.2" x2="157.3" y2="192.2"/>
	<line class="st2" x1="72.6" y1="185.9" x2="115" y2="185.9"/>
	<line class="st2" x1="72.6" y1="179.5" x2="115" y2="179.5"/>
	<line class="st2" x1="72.6" y1="173.2" x2="115" y2="173.2"/>
	<line class="st2" x1="72.6" y1="166.8" x2="115" y2="166.8"/>
	<line class="st3" x1="62" y1="160.5" x2="157.3" y2="160.5"/>
	<text transform="matrix(1 0 0 1 129.0778 157.3034)" class="st4 st5 st6">100</text>
</g>
<line class="st7" x1="56.8" y1="795.8" x2="162.6" y2="795.8"/>
<polygon class="st8" points="212.6,838.7 6.8,838.7 56.8,795.8 162.6,795.8 "/>
<polygon class="st9" points="18.8,2.5 162.6,2.7 162.6,795.8 56.8,795.8 56.8,54.6 "/>
<polygon class="st10" points="212.6,838.7 6.8,838.7 56.8,795.8 162.6,795.8 "/>
<polygon class="st11" points="18.8,2.5 162.6,2.7 162.6,795.8 56.8,795.8 56.8,54.6 "/>
</svg>
