<?xml version="1.0" encoding="utf-8"?>
<!-- Generator: Adobe Illustrator 19.2.0, SVG Export Plug-In . SVG Version: 6.00 Build 0)  -->
<svg version="1.1" id="Layer_1" xmlns="http://www.w3.org/2000/svg" xmlns:xlink="http://www.w3.org/1999/xlink" x="0px" y="0px"
	 viewBox="0 0 101 93.2" style="enable-background:new 0 0 101 93.2;" xml:space="preserve">
<style type="text/css">
	.st0{display:none;}
	.st1{display:inline;}
	.st2{fill:#ED1C24;stroke:#FFFFFF;stroke-miterlimit:10;}
	.st3{fill:#D61F30;}
	.st4{fill:#ED1C24;}
	.st5{display:none;fill:#FFFFFF;}
</style>
<g id="Layer_1_1_" class="st0">
	<g class="st1">
		<g>
			<g id="favorite">
				<path class="st2" d="M50.5,92.5l-7-7c-26-23-43-38.5-43-57.5c0-15.5,12-27.5,27.5-27.5c8.5,0,17,4,22.5,10.5
					C56,4.5,64.5,0.5,73,0.5c15.5,0,27.5,12,27.5,27.5c0,19-17,34.5-43,57.5L50.5,92.5z"/>
			</g>
		</g>
		<g>
			<g id="favorite_1_">
				<path class="st3" d="M50.5,87.9l-6.3-6.3C20.8,60.9,5.5,46.9,5.5,29.8C5.5,15.9,16.3,5,30.3,5c7.7,0,15.3,3.6,20.2,9.4
					C55.4,8.6,63.1,5,70.7,5c13.9,0,24.8,10.8,24.8,24.8c0,17.1-15.3,31-38.7,51.8L50.5,87.9z"/>
			</g>
		</g>
	</g>
</g>
<g id="Layer_1_copy_2">
</g>
<path class="st4" d="M44,77.5l11-7.8l-11.7-12L54.1,52L42,40.7l13-10l-13.8-9.3L50.5,11C45,4.5,36.5,0.5,28,0.5
	C12.5,0.5,0.5,12.5,0.5,28c0,19,17,34.5,43,57.5l7,7L44,77.5z"/>
<path class="st3" d="M44,77.5l11-7.8l-11.7-12L54.1,52L42,40.7l13-10l-13.8-9.3l7.7-8.6C44,8,37.1,5.1,30.2,5.1
	c-14,0-24.8,10.8-24.8,24.8c0,17.1,15.3,31,38.7,51.8l2.8,2.8L44,77.5z"/>
<polygon class="st5" points="50.5,92.5 44,77.5 55,69.7 43.3,57.7 54.1,52 42,40.7 55,30.7 41.2,21.5 50.5,11 44.3,-17.2 
	143.7,-12.5 120.3,78.2 90.3,112.5 46.3,113.5 "/>
</svg>
