<?xml version="1.0" encoding="utf-8"?>
<!-- Generator: Adobe Illustrator 19.2.1, SVG Export Plug-In . SVG Version: 6.00 Build 0)  -->
<svg version="1.1" id="Layer_1" xmlns="http://www.w3.org/2000/svg" xmlns:xlink="http://www.w3.org/1999/xlink" x="0px" y="0px"
	 viewBox="0 0 162 92" style="enable-background:new 0 0 162 92;" xml:space="preserve">
<style type="text/css">
	.st0{fill:none;}
	.st1{fill:#131313;}
	.st2{fill:#202020;}
	.st3{fill:url(#SVGID_1_);stroke:#FFFFFF;stroke-width:2;stroke-miterlimit:10;}
	.st4{fill:#FFFFFF;}
</style>
<pattern  y="92" width="443.9" height="1287.3" patternUnits="userSpaceOnUse" id="New_Pattern_Swatch_61" viewBox="0 -1287.3 443.9 1287.3" style="overflow:visible;">
	<g>
		<rect y="-1287.3" class="st0" width="443.9" height="1287.3"/>
		<g>
			<g>
				<g>
					<g>
						<rect y="-1287.3" class="st1" width="30.9" height="1287.3"/>
						<rect x="27.7" y="-1287.3" class="st2" width="35" height="1287.3"/>
					</g>
				</g>
				<g>
					<g>
						<g>
							<rect x="55.5" y="-1287.3" class="st1" width="30.9" height="1287.3"/>
							<rect x="83.2" y="-1287.3" class="st2" width="34" height="1287.3"/>
						</g>
					</g>
				</g>
			</g>
			<g>
				<g>
					<g>
						<rect x="111" y="-1287.3" class="st1" width="30.9" height="1287.3"/>
						<rect x="138.7" y="-1287.3" class="st2" width="35" height="1287.3"/>
					</g>
				</g>
				<g>
					<g>
						<g>
							<rect x="166.5" y="-1287.3" class="st1" width="30.9" height="1287.3"/>
							<rect x="194.2" y="-1287.3" class="st2" width="35.3" height="1287.3"/>
						</g>
					</g>
				</g>
			</g>
			<g>
				<g>
					<g>
						<rect x="221.9" y="-1287.3" class="st1" width="30.9" height="1287.3"/>
						<rect x="249.7" y="-1287.3" class="st2" width="35" height="1287.3"/>
					</g>
				</g>
				<g>
					<g>
						<g>
							<rect x="277.4" y="-1287.3" class="st1" width="30.9" height="1287.3"/>
							<rect x="305.2" y="-1287.3" class="st2" width="34" height="1287.3"/>
						</g>
					</g>
				</g>
			</g>
			<g>
				<g>
					<g>
						<rect x="332.9" y="-1287.3" class="st1" width="30.9" height="1287.3"/>
						<rect x="360.7" y="-1287.3" class="st2" width="35" height="1287.3"/>
					</g>
				</g>
				<g>
					<g>
						<g>
							<rect x="388.4" y="-1287.3" class="st1" width="30.9" height="1287.3"/>
							<rect x="416.1" y="-1287.3" class="st2" width="27.7" height="1287.3"/>
						</g>
					</g>
				</g>
			</g>
		</g>
	</g>
</pattern>
<pattern  id="SVGID_1_" xlink:href="#New_Pattern_Swatch_61" patternTransform="matrix(0.866 0.5 0.5 -0.866 -1435.0944 -16488.7031)">
</pattern>
<path class="st3" d="M148.6,91H13.4C6.6,91,1,85.4,1,78.6V13.4C1,6.6,6.6,1,13.4,1h135.1c6.9,0,12.4,5.6,12.4,12.4v65.1
	C161,85.4,155.4,91,148.6,91z"/>
<g>
	<path class="st4" d="M20.7,60.8v5.5h75.9v-5.5h3.8v10H16.8v-10C16.8,60.8,20.7,60.8,20.7,60.8z"/>
</g>
<g>
	<path class="st4" d="M109,60.8v5.5h32.4v-5.5h3.8v10h-40v-10C105.2,60.8,109,60.8,109,60.8z"/>
</g>
</svg>
