<?xml version="1.0" encoding="utf-8"?>
<!-- Generator: Adobe Illustrator 19.2.0, SVG Export Plug-In . SVG Version: 6.00 Build 0)  -->
<svg version="1.1" id="Layer_1" xmlns="http://www.w3.org/2000/svg" xmlns:xlink="http://www.w3.org/1999/xlink" x="0px" y="0px"
	 viewBox="0 0 106.9 741.2" style="enable-background:new 0 0 106.9 741.2;" xml:space="preserve">
<style type="text/css">
	.st0{fill:none;stroke:#000000;}
	.st1{fill:none;stroke:#000000;stroke-width:2;}
	.st2{font-family:'Helvetica';}
	.st3{font-size:16.9412px;}
</style>
<line class="st0" x1="0.5" y1="0" x2="0.5" y2="741.2"/>
<line class="st0" x1="106.4" y1="0" x2="106.4" y2="741.2"/>
<line class="st0" x1="16.4" y1="728.5" x2="58.7" y2="728.5"/>
<line class="st0" x1="16.4" y1="715.8" x2="58.7" y2="715.8"/>
<line class="st0" x1="16.4" y1="703.1" x2="58.7" y2="703.1"/>
<line class="st0" x1="16.4" y1="690.4" x2="58.7" y2="690.4"/>
<line class="st1" x1="5.8" y1="677.6" x2="101.1" y2="677.6"/>
<line class="st0" x1="16.4" y1="664.9" x2="58.7" y2="664.9"/>
<line class="st0" x1="16.4" y1="652.2" x2="58.7" y2="652.2"/>
<line class="st0" x1="16.4" y1="639.5" x2="58.7" y2="639.5"/>
<line class="st0" x1="16.4" y1="626.8" x2="58.7" y2="626.8"/>
<line class="st1" x1="5.8" y1="614.1" x2="101.1" y2="614.1"/>
<text transform="matrix(1 0 0 1 82.2444 610.9407)" class="st2 st3">10</text>
<line class="st0" x1="16.4" y1="601.4" x2="58.7" y2="601.4"/>
<line class="st0" x1="16.4" y1="588.7" x2="58.7" y2="588.7"/>
<line class="st0" x1="16.4" y1="576" x2="58.7" y2="576"/>
<line class="st0" x1="16.4" y1="563.3" x2="58.7" y2="563.3"/>
<line class="st1" x1="5.8" y1="550.6" x2="101.1" y2="550.6"/>
<line class="st0" x1="16.4" y1="537.9" x2="58.7" y2="537.9"/>
<line class="st0" x1="16.4" y1="525.2" x2="58.7" y2="525.2"/>
<line class="st0" x1="16.4" y1="512.5" x2="58.7" y2="512.5"/>
<line class="st0" x1="16.4" y1="499.8" x2="58.7" y2="499.8"/>
<line class="st1" x1="5.8" y1="487.1" x2="101.1" y2="487.1"/>
<text transform="matrix(1 0 0 1 82.2444 483.8821)" class="st2 st3">20</text>
<line class="st0" x1="16.4" y1="474.4" x2="58.7" y2="474.4"/>
<line class="st0" x1="16.4" y1="461.6" x2="58.7" y2="461.6"/>
<line class="st0" x1="16.4" y1="448.9" x2="58.7" y2="448.9"/>
<line class="st0" x1="16.4" y1="436.2" x2="58.7" y2="436.2"/>
<line class="st1" x1="5.8" y1="423.5" x2="101.1" y2="423.5"/>
<line class="st0" x1="16.4" y1="410.8" x2="58.7" y2="410.8"/>
<line class="st0" x1="16.4" y1="398.1" x2="58.7" y2="398.1"/>
<line class="st0" x1="16.4" y1="385.4" x2="58.7" y2="385.4"/>
<line class="st0" x1="16.4" y1="372.7" x2="58.7" y2="372.7"/>
<line class="st1" x1="5.8" y1="360" x2="101.1" y2="360"/>
<text transform="matrix(1 0 0 1 82.2444 356.8235)" class="st2 st3">30</text>
<line class="st0" x1="16.4" y1="347.3" x2="58.7" y2="347.3"/>
<line class="st0" x1="16.4" y1="334.6" x2="58.7" y2="334.6"/>
<line class="st0" x1="16.4" y1="321.9" x2="58.7" y2="321.9"/>
<line class="st0" x1="16.4" y1="309.2" x2="58.7" y2="309.2"/>
<line class="st1" x1="5.8" y1="296.5" x2="101.1" y2="296.5"/>
<line class="st0" x1="16.4" y1="283.8" x2="58.7" y2="283.8"/>
<line class="st0" x1="16.4" y1="271.1" x2="58.7" y2="271.1"/>
<line class="st0" x1="16.4" y1="258.4" x2="58.7" y2="258.4"/>
<line class="st0" x1="16.4" y1="245.6" x2="58.7" y2="245.6"/>
<line class="st1" x1="5.8" y1="232.9" x2="101.1" y2="232.9"/>
<text transform="matrix(1 0 0 1 82.2444 229.7644)" class="st2 st3">40</text>
<line class="st0" x1="16.4" y1="220.2" x2="58.7" y2="220.2"/>
<line class="st0" x1="16.4" y1="207.5" x2="58.7" y2="207.5"/>
<line class="st0" x1="16.4" y1="194.8" x2="58.7" y2="194.8"/>
<line class="st0" x1="16.4" y1="182.1" x2="58.7" y2="182.1"/>
<line class="st1" x1="5.8" y1="169.4" x2="101.1" y2="169.4"/>
<line class="st0" x1="16.4" y1="156.7" x2="58.7" y2="156.7"/>
<line class="st0" x1="16.4" y1="144" x2="58.7" y2="144"/>
<line class="st0" x1="16.4" y1="131.3" x2="58.7" y2="131.3"/>
<line class="st0" x1="16.4" y1="118.6" x2="58.7" y2="118.6"/>
<line class="st1" x1="5.8" y1="105.9" x2="101.1" y2="105.9"/>
<text transform="matrix(1 0 0 1 82.2444 102.7053)" class="st2 st3">50</text>
</svg>
