<?xml version="1.0" encoding="utf-8"?>
<!-- Generator: Adobe Illustrator 19.2.1, SVG Export Plug-In . SVG Version: 6.00 Build 0)  -->
<svg version="1.1" id="Layer_1" xmlns="http://www.w3.org/2000/svg" xmlns:xlink="http://www.w3.org/1999/xlink" x="0px" y="0px"
	 viewBox="0 0 151.4 20.7" style="enable-background:new 0 0 151.4 20.7;" xml:space="preserve">
<style type="text/css">
	.st0{fill:url(#svg_9_1_);fill-opacity:0.76;}
	.st1{fill:url(#svg_7_1_);fill-opacity:0.76;}
	.st2{fill:url(#svg_6_1_);fill-opacity:0.8;}
	.st3{fill:url(#svg_5_1_);fill-opacity:0.8;}
	.st4{fill:url(#svg_4_1_);fill-opacity:0.8;}
	.st5{fill:url(#svg_2_1_);fill-opacity:0.8;}
</style>
<symbol  id="svg_17" viewBox="-4.8 -39 9.6 78">
	<g>
		<title>Layer 1</title>
		
			<linearGradient id="svg_9_1_" gradientUnits="userSpaceOnUse" x1="28823.6934" y1="-32590.9414" x2="28824.1895" y2="-32590.9336" gradientTransform="matrix(9.5 0 0 78 -273829.9062 2542092.5)">
			<stop  offset="0" style="stop-color:#0000FF"/>
			<stop  offset="1" style="stop-color:#A8A8FF;stop-opacity:0.9961"/>
		</linearGradient>
		<path id="svg_9_2_" class="st0" d="M-4.8-39c3.2,0,6.3,0,9.5,0L4.5-19H4.2L2.5,14L0.2,39h-1.5L-3,14l-1.4-33h-0.3L-4.8-39L-4.8-39
			z"/>
		
			<linearGradient id="svg_7_1_" gradientUnits="userSpaceOnUse" x1="28823.6934" y1="-31379.9883" x2="28824.1895" y2="-31379.9805" gradientTransform="matrix(9.5 0 0 20 -273829.9062 627570.625)">
			<stop  offset="0" style="stop-color:#0000FF"/>
			<stop  offset="1" style="stop-color:#A8A8FF;stop-opacity:0.9961"/>
		</linearGradient>
		<polygon id="svg_7_2_" class="st1" points="-4.8,-39 4.8,-39 4.8,-19 -4.8,-19 		"/>
		
			<linearGradient id="svg_6_1_" gradientUnits="userSpaceOnUse" x1="-104.3535" y1="-31379.9805" x2="-103.3535" y2="-31379.9805" gradientTransform="matrix(1 0 0 20 107.6035 627570.625)">
			<stop  offset="0" style="stop-color:#0000FF"/>
			<stop  offset="1" style="stop-color:#5B5BFF;stop-opacity:0.9961"/>
		</linearGradient>
		<polygon id="svg_6_2_" class="st2" points="3.2,-39 4.2,-39 4.2,-19 3.2,-19 		"/>
		
			<linearGradient id="svg_5_1_" gradientUnits="userSpaceOnUse" x1="-104.3535" y1="-31379.9805" x2="-103.3535" y2="-31379.9805" gradientTransform="matrix(1 0 0 20 99.6035 627570.625)">
			<stop  offset="0" style="stop-color:#0000FF"/>
			<stop  offset="1" style="stop-color:#5B5BFF;stop-opacity:0.9961"/>
		</linearGradient>
		<polygon id="svg_5_2_" class="st3" points="-4.8,-39 -3.8,-39 -3.8,-19 -4.8,-19 		"/>
		
			<linearGradient id="svg_4_1_" gradientUnits="userSpaceOnUse" x1="-104.3535" y1="-31379.9805" x2="-103.3535" y2="-31379.9805" gradientTransform="matrix(1 0 0 20 105.6035 627570.625)">
			<stop  offset="0" style="stop-color:#0000FF"/>
			<stop  offset="1" style="stop-color:#5B5BFF;stop-opacity:0.9961"/>
		</linearGradient>
		<polygon id="svg_4_2_" class="st4" points="1.2,-39 2.2,-39 2.2,-19 1.2,-19 		"/>
		
			<linearGradient id="svg_2_1_" gradientUnits="userSpaceOnUse" x1="-104.3533" y1="-31379.9805" x2="-103.3533" y2="-31379.9805" gradientTransform="matrix(1 0 0 20 101.6533 627570.625)">
			<stop  offset="0" style="stop-color:#0000FF"/>
			<stop  offset="1" style="stop-color:#5B5BFF;stop-opacity:0.9961"/>
		</linearGradient>
		<polygon id="svg_2_2_" class="st5" points="-2.7,-39 -1.7,-39 -1.7,-19 -2.7,-19 		"/>
	</g>
</symbol>
<g>
	
		<use xlink:href="#svg_17"  width="9.6" height="78" id="svg_18" x="-4.8" y="-39" transform="matrix(9.665339e-11 -2.1528 1.9413 8.715775e-11 75.7107 10.3334)" style="overflow:visible;"/>
	<title>Layer 1</title>
</g>
</svg>
