<?xml version="1.0" encoding="utf-8"?>
<!-- Generator: Adobe Illustrator 19.2.1, SVG Export Plug-In . SVG Version: 6.00 Build 0)  -->
<svg version="1.1" id="Layer_1" xmlns="http://www.w3.org/2000/svg" xmlns:xlink="http://www.w3.org/1999/xlink" x="0px" y="0px"
	 viewBox="0 0 101.2 87.6" style="enable-background:new 0 0 101.2 87.6;" xml:space="preserve">
<style type="text/css">
	.st0{fill:none;}
	.st1{fill:#131313;}
	.st2{fill:#202020;}
	.st3{fill:url(#SVGID_1_);}
	.st4{fill:none;stroke:#000000;stroke-miterlimit:10;}
	.st5{fill:none;stroke:#58595B;stroke-width:3;stroke-miterlimit:10;}
	.st6{enable-background:new    ;}
	.st7{fill:#59595B;}
</style>
<pattern  y="87.6" width="240" height="696" patternUnits="userSpaceOnUse" id="New_Pattern_Swatch_58" viewBox="0 -696 240 696" style="overflow:visible;">
	<g>
		<rect y="-696" class="st0" width="240" height="696"/>
		<g>
			<g>
				<g>
					<g>
						<rect y="-696" class="st1" width="16.7" height="696"/>
						<rect x="15" y="-696" class="st2" width="18.9" height="696"/>
					</g>
				</g>
				<g>
					<g>
						<g>
							<rect x="30" y="-696" class="st1" width="16.7" height="696"/>
							<rect x="45" y="-696" class="st2" width="18.4" height="696"/>
						</g>
					</g>
				</g>
			</g>
			<g>
				<g>
					<g>
						<rect x="60" y="-696" class="st1" width="16.7" height="696"/>
						<rect x="75" y="-696" class="st2" width="18.9" height="696"/>
					</g>
				</g>
				<g>
					<g>
						<g>
							<rect x="90" y="-696" class="st1" width="16.7" height="696"/>
							<rect x="105" y="-696" class="st2" width="19.1" height="696"/>
						</g>
					</g>
				</g>
			</g>
			<g>
				<g>
					<g>
						<rect x="120" y="-696" class="st1" width="16.7" height="696"/>
						<rect x="135" y="-696" class="st2" width="18.9" height="696"/>
					</g>
				</g>
				<g>
					<g>
						<g>
							<rect x="150" y="-696" class="st1" width="16.7" height="696"/>
							<rect x="165" y="-696" class="st2" width="18.4" height="696"/>
						</g>
					</g>
				</g>
			</g>
			<g>
				<g>
					<g>
						<rect x="180" y="-696" class="st1" width="16.7" height="696"/>
						<rect x="195" y="-696" class="st2" width="18.9" height="696"/>
					</g>
				</g>
				<g>
					<g>
						<g>
							<rect x="210" y="-696" class="st1" width="16.7" height="696"/>
							<rect x="225" y="-696" class="st2" width="15" height="696"/>
						</g>
					</g>
				</g>
			</g>
		</g>
	</g>
</pattern>
<g>
	
		<pattern  id="SVGID_1_" xlink:href="#New_Pattern_Swatch_58" patternTransform="matrix(0.6124 0.6124 0.6124 -0.6124 -12039.9131 -20722.4551)">
	</pattern>
	<polygon class="st3" points="25.6,87.1 0.6,43.8 25.6,0.5 75.6,0.5 100.6,43.8 75.6,87.1 	"/>
	<polygon class="st4" points="25.6,87.1 0.6,43.8 25.6,0.5 75.6,0.5 100.6,43.8 75.6,87.1 	"/>
</g>
<polygon class="st5" points="30.6,78.4 10.6,43.8 30.6,9.2 70.6,9.2 90.6,43.8 70.6,78.4 "/>
<g class="st6">
	<path class="st7" d="M68.7,44.2c-0.5,0.8-1.1,1.5-1.7,2.3c-0.6,0.7-1.2,1.4-1.9,2c-0.7,0.6-1.5,1-2.4,1.4c-0.9,0.4-1.9,0.5-3,0.5
		c-1.3,0-2.6-0.2-3.8-0.7c-1.2-0.5-2.4-1-3.6-1.7c-1.1-0.7-2.4-1.3-3.7-1.8c-1.3-0.5-2.8-0.8-4.5-0.8c-0.8,0-1.5,0.2-2.1,0.5
		c-0.6,0.3-1.1,0.7-1.6,1.1c-0.5,0.5-0.9,1-1.3,1.5c-0.4,0.6-0.7,1.1-1,1.7l-2.6-6c0.4-0.8,0.8-1.5,1.4-2.3c0.5-0.7,1.2-1.4,1.9-2
		c0.7-0.6,1.5-1,2.5-1.4c0.9-0.4,2-0.5,3.2-0.5c1.2,0,2.5,0.2,3.9,0.7c1.3,0.5,2.7,1,4.1,1.6c1.3,0.6,2.7,1.1,3.9,1.7
		s2.4,0.9,3.4,0.9c0.7,0,1.4-0.2,2-0.5c0.6-0.3,1.1-0.7,1.6-1.1c0.5-0.5,1-1,1.4-1.5c0.4-0.6,0.9-1.1,1.3-1.7L68.7,44.2z"/>
</g>
</svg>
