<?xml version="1.0" encoding="utf-8"?>
<!-- Generator: Adobe Illustrator 19.2.1, SVG Export Plug-In . SVG Version: 6.00 Build 0)  -->
<svg version="1.1" id="Layer_1" xmlns="http://www.w3.org/2000/svg" xmlns:xlink="http://www.w3.org/1999/xlink" x="0px" y="0px"
	 viewBox="0 0 147 74.8" style="enable-background:new 0 0 147 74.8;" xml:space="preserve">
<style type="text/css">
	.st0{stroke:#FFFFFF;stroke-width:3;stroke-miterlimit:10;}
	.st1{enable-background:new    ;}
	.st2{fill:#FFFFFF;}
</style>
<path class="st0" d="M144.3,33.3l-16-27.7c-1.4-2.5-4.2-4.1-7.1-4.1H95.5h-6.1H80H63.7h-6.1h-9.5H25.6c-2.9,0-5.7,1.6-7.1,4.1
	l-16,27.7c-1.4,2.5-1.4,5.7,0,8.2l16,27.7c1.4,2.5,4.2,4.1,7.1,4.1h22.5h9.4h6.1h16.3h9.4h6.1h25.7c2.9,0,5.7-1.6,7.1-4.1l16-27.7
	C145.8,38.9,145.8,35.8,144.3,33.3z"/>
<g class="st1">
	<path class="st2" d="M33.2,19.7c-1.1-0.8-2.5-1.2-4.2-1.2c-0.7,0-1.4,0.1-2,0.2c-0.7,0.1-1.3,0.4-1.8,0.7c-0.5,0.3-0.9,0.8-1.2,1.3
		s-0.5,1.2-0.5,2c0,0.8,0.2,1.4,0.7,1.9s1.1,0.9,1.8,1.2c0.8,0.3,1.6,0.6,2.6,0.7c0.9,0.2,1.9,0.4,2.9,0.6c1,0.2,2,0.5,2.9,0.8
		s1.8,0.7,2.6,1.3c0.8,0.5,1.4,1.2,1.8,2c0.5,0.8,0.7,1.8,0.7,3.1c0,1.3-0.3,2.4-0.9,3.4s-1.3,1.7-2.3,2.3c-0.9,0.6-2,1-3.1,1.3
		s-2.3,0.4-3.4,0.4c-1.4,0-2.7-0.2-3.9-0.5c-1.2-0.3-2.3-0.9-3.3-1.6c-0.9-0.7-1.7-1.6-2.2-2.7c-0.5-1.1-0.8-2.4-0.8-3.9h3.1
		c0,1,0.2,1.9,0.6,2.7c0.4,0.8,0.9,1.4,1.6,1.9s1.4,0.8,2.3,1.1c0.9,0.2,1.8,0.3,2.7,0.3c0.7,0,1.5-0.1,2.2-0.2
		c0.8-0.1,1.4-0.4,2-0.7s1.1-0.8,1.5-1.4c0.4-0.6,0.6-1.3,0.6-2.2c0-0.9-0.2-1.6-0.7-2.1c-0.5-0.5-1.1-1-1.8-1.3
		c-0.8-0.3-1.6-0.6-2.6-0.8c-0.9-0.2-1.9-0.4-2.9-0.6c-1-0.2-2-0.5-2.9-0.8c-0.9-0.3-1.8-0.7-2.6-1.1c-0.8-0.5-1.4-1.1-1.8-1.8
		c-0.5-0.8-0.7-1.7-0.7-2.8c0-1.2,0.3-2.3,0.8-3.2c0.5-0.9,1.2-1.7,2-2.3c0.8-0.6,1.8-1,2.9-1.3c1.1-0.3,2.2-0.4,3.3-0.4
		c1.3,0,2.5,0.2,3.5,0.5c1.1,0.3,2,0.8,2.9,1.4c0.8,0.6,1.5,1.5,1.9,2.4c0.5,1,0.7,2.2,0.8,3.5h-3.1C35,21.8,34.3,20.5,33.2,19.7z"
		/>
	<path class="st2" d="M54.9,41.1v-2.8h-0.1c-0.6,1.1-1.4,1.9-2.4,2.4s-2.1,0.8-3.4,0.8c-1.2,0-2.2-0.2-3-0.5
		c-0.8-0.3-1.4-0.8-1.9-1.3c-0.5-0.6-0.8-1.3-1-2.1c-0.2-0.8-0.3-1.7-0.3-2.7V23.2h3v12.2c0,1.1,0.3,2,1,2.6c0.6,0.6,1.5,1,2.7,1
		c0.9,0,1.7-0.1,2.3-0.4c0.7-0.3,1.2-0.7,1.6-1.2c0.4-0.5,0.8-1.1,1-1.8c0.2-0.7,0.3-1.4,0.3-2.2V23.2h3v18H54.9z"/>
	<path class="st2" d="M65.2,16.3v9.3h0.1c0.5-1,1.2-1.7,2.3-2.2c1-0.5,2.2-0.7,3.4-0.7c1.4,0,2.6,0.3,3.6,0.8c1,0.5,1.9,1.2,2.6,2.1
		s1.2,1.9,1.5,3c0.3,1.1,0.5,2.3,0.5,3.6c0,1.3-0.2,2.5-0.5,3.6c-0.3,1.1-0.8,2.1-1.5,3c-0.7,0.8-1.5,1.5-2.6,2
		c-1,0.5-2.2,0.7-3.6,0.7c-0.4,0-0.9,0-1.5-0.1c-0.5-0.1-1.1-0.2-1.6-0.5c-0.5-0.2-1-0.5-1.5-0.9c-0.5-0.4-0.9-0.8-1.2-1.3h-0.1v2.4
		h-3V16.3H65.2z M75.8,29.6c-0.2-0.8-0.6-1.5-1-2.1s-1-1.1-1.7-1.5c-0.7-0.4-1.5-0.6-2.5-0.6c-1,0-1.8,0.2-2.5,0.6
		c-0.7,0.4-1.3,0.9-1.7,1.5c-0.4,0.6-0.8,1.4-1,2.2c-0.2,0.8-0.3,1.6-0.3,2.5c0,0.9,0.1,1.7,0.3,2.6c0.2,0.8,0.5,1.5,1,2.2
		c0.5,0.6,1,1.1,1.8,1.5c0.7,0.4,1.6,0.6,2.6,0.6c1,0,1.9-0.2,2.6-0.6c0.7-0.4,1.2-0.9,1.6-1.6c0.4-0.6,0.7-1.4,0.9-2.2
		c0.2-0.8,0.3-1.7,0.3-2.6C76.1,31.2,76,30.4,75.8,29.6z"/>
	<path class="st2" d="M85.5,23.2v2.6h0.1c1.3-2,3.3-3.1,5.8-3.1c1.1,0,2.1,0.2,3,0.7c0.9,0.5,1.5,1.2,1.9,2.4c0.6-1,1.4-1.7,2.4-2.3
		c1-0.5,2.1-0.8,3.2-0.8c0.9,0,1.7,0.1,2.4,0.3c0.7,0.2,1.4,0.5,1.9,0.9c0.5,0.4,0.9,1,1.2,1.6c0.3,0.7,0.4,1.5,0.4,2.4v13.2h-3
		V29.4c0-0.6,0-1.1-0.1-1.6c-0.1-0.5-0.3-0.9-0.5-1.3c-0.3-0.4-0.6-0.6-1.1-0.9c-0.5-0.2-1-0.3-1.8-0.3c-1.5,0-2.6,0.4-3.4,1.2
		c-0.8,0.8-1.2,1.9-1.2,3.3v11.2h-3V29.4c0-0.6-0.1-1.1-0.2-1.6c-0.1-0.5-0.3-0.9-0.5-1.3c-0.3-0.4-0.6-0.6-1-0.8
		c-0.4-0.2-1-0.3-1.6-0.3c-0.9,0-1.6,0.2-2.2,0.5c-0.6,0.3-1.1,0.8-1.5,1.2s-0.7,1-0.8,1.5c-0.2,0.5-0.3,1-0.3,1.3v11.2h-3v-18H85.5
		z"/>
	<path class="st2" d="M112.5,20v-3.6h3V20H112.5z M115.5,23.2v18h-3v-18H115.5z"/>
	<path class="st2" d="M127.7,23.2v2.6h-3.6v11.1c0,0.3,0,0.6,0.1,0.8s0.2,0.4,0.3,0.5c0.2,0.1,0.4,0.2,0.7,0.2s0.7,0.1,1.1,0.1h1.4
		v2.6h-2.3c-0.8,0-1.4-0.1-2-0.2s-1-0.3-1.3-0.6c-0.3-0.3-0.6-0.7-0.7-1.2c-0.2-0.5-0.2-1.2-0.2-2V25.8h-3.1v-2.6h3.1v-5.4h3v5.4
		H127.7z"/>
</g>
<g class="st1">
	<path class="st2" d="M54,60.4c-0.3-0.6-0.5-1.1-0.7-1.7c-0.2-0.6-0.4-1.2-0.5-1.8c-0.1-0.6-0.2-1.2-0.2-1.9c0-1.2,0.2-2.4,0.6-3.6
		s1-2.3,1.8-3.3h1c-0.7,1.1-1.2,2.3-1.5,3.4c-0.3,1.1-0.4,2.3-0.4,3.5c0,1.3,0.2,2.5,0.5,3.6c0.3,1.1,0.8,2.3,1.5,3.4h-1
		C54.6,61.5,54.3,61,54,60.4z"/>
	<path class="st2" d="M64.4,48.4v1.2h-6V53H64v1.2h-5.6v3.7h6v1.2H57V48.4H64.4z"/>
	<path class="st2" d="M67.1,51.4v1.2h0c0.5-0.9,1.4-1.4,2.5-1.4c0.5,0,0.9,0.1,1.3,0.2c0.3,0.1,0.6,0.3,0.8,0.6s0.4,0.5,0.4,0.9
		c0.1,0.3,0.1,0.7,0.1,1.1v5.1h-1.3v-5.2c0-0.5-0.1-0.9-0.4-1.1c-0.3-0.3-0.7-0.4-1.2-0.4c-0.4,0-0.7,0.1-1,0.2S68,52.8,67.8,53
		c-0.2,0.2-0.3,0.5-0.4,0.8s-0.1,0.6-0.1,1v4.4h-1.3v-7.8H67.1z"/>
	<path class="st2" d="M77.6,51.4v1.1H76v4.8c0,0.2,0,0.3,0,0.4c0,0.1,0.1,0.2,0.1,0.2c0.1,0,0.2,0.1,0.3,0.1s0.3,0,0.5,0h0.6v1.1h-1
		c-0.3,0-0.6,0-0.8-0.1s-0.4-0.1-0.6-0.2c-0.1-0.1-0.3-0.3-0.3-0.5c-0.1-0.2-0.1-0.5-0.1-0.9v-4.9h-1.3v-1.1h1.3v-2.3H76v2.3H77.6z"
		/>
	<path class="st2" d="M84.5,58.6c-0.6,0.4-1.3,0.7-2.2,0.7c-0.6,0-1.2-0.1-1.6-0.3c-0.5-0.2-0.8-0.5-1.1-0.8
		c-0.3-0.4-0.5-0.8-0.7-1.3c-0.2-0.5-0.2-1-0.3-1.6c0-0.6,0.1-1.1,0.3-1.6c0.2-0.5,0.4-0.9,0.8-1.3s0.7-0.6,1.2-0.8
		c0.4-0.2,0.9-0.3,1.5-0.3c0.7,0,1.3,0.1,1.7,0.4s0.8,0.6,1.1,1.1s0.5,0.9,0.6,1.4c0.1,0.5,0.1,1,0.1,1.5h-5.8c0,0.3,0,0.7,0.1,1
		s0.2,0.6,0.4,0.8c0.2,0.2,0.5,0.4,0.8,0.6c0.3,0.1,0.7,0.2,1.1,0.2c0.5,0,1-0.1,1.3-0.4c0.3-0.2,0.6-0.6,0.7-1.1h1.3
		C85.4,57.6,85.1,58.2,84.5,58.6z M84.2,53.7c-0.1-0.3-0.3-0.5-0.5-0.7c-0.2-0.2-0.4-0.3-0.7-0.5c-0.3-0.1-0.6-0.2-0.9-0.2
		c-0.3,0-0.6,0.1-0.9,0.2c-0.3,0.1-0.5,0.3-0.7,0.5c-0.2,0.2-0.3,0.4-0.5,0.7c-0.1,0.3-0.2,0.5-0.2,0.8h4.5
		C84.4,54.2,84.3,53.9,84.2,53.7z"/>
	<path class="st2" d="M88.2,51.4V53h0c0.3-0.6,0.7-1.1,1.1-1.4c0.5-0.3,1-0.4,1.7-0.4v1.3c-0.5,0-0.9,0.1-1.3,0.2
		c-0.4,0.1-0.7,0.3-0.9,0.6c-0.2,0.3-0.4,0.6-0.5,1c-0.1,0.4-0.1,0.8-0.1,1.3v3.5H87v-7.8H88.2z"/>
	<path class="st2" d="M92.5,58.7c0.3-1.1,0.5-2.3,0.5-3.5c0-1.3-0.2-2.5-0.5-3.6s-0.8-2.3-1.5-3.4h1c0.4,0.6,0.7,1.1,1,1.7
		c0.3,0.6,0.5,1.1,0.7,1.7s0.4,1.2,0.5,1.8s0.2,1.2,0.2,1.9c0,1.2-0.2,2.4-0.6,3.6c-0.4,1.2-1,2.3-1.8,3.3h-1
		C91.7,61,92.2,59.8,92.5,58.7z"/>
</g>
</svg>
