<?xml version="1.0" encoding="utf-8"?>
<!-- Generator: Adobe Illustrator 19.2.1, SVG Export Plug-In . SVG Version: 6.00 Build 0)  -->
<svg version="1.1" id="Layer_1" xmlns="http://www.w3.org/2000/svg" xmlns:xlink="http://www.w3.org/1999/xlink" x="0px" y="0px"
	 viewBox="0 0 90.3 118.7" style="enable-background:new 0 0 90.3 118.7;" xml:space="preserve">
<style type="text/css">
	.st0{fill:#CDCCCC;stroke:#010101;stroke-miterlimit:10;}
	.st1{fill:none;stroke:#010101;stroke-width:0.4214;stroke-miterlimit:10;}
	.st2{fill:none;stroke:#010101;stroke-width:0.3477;stroke-miterlimit:3.864;}
	.st3{fill:none;stroke:#010101;stroke-width:0.3901;stroke-miterlimit:3.864;}
	.st4{fill:none;stroke:#010101;stroke-width:0.4214;stroke-miterlimit:3.864;}
	.st5{fill:#010101;}
	.st6{font-family:'HelveticaNeue';}
	.st7{font-size:4px;}
	.st8{font-size:6px;}
	.st9{fill:#C8C8C8;}
	.st10{fill:none;stroke:#010101;stroke-width:0.4438;stroke-miterlimit:10;}
	.st11{fill:none;stroke:#010101;stroke-width:0.4438;stroke-linecap:round;stroke-linejoin:round;stroke-miterlimit:10;}
	.st12{fill:none;stroke:#010101;stroke-width:0.317;stroke-miterlimit:3.864;}
	.st13{fill:none;}
	.st14{fill:none;stroke:#010101;stroke-width:0.1902;stroke-miterlimit:10;}
	.st15{fill:none;stroke:#010101;stroke-width:0.1642;stroke-miterlimit:10;}
	.st16{fill:none;stroke:#010101;stroke-width:0.317;stroke-linecap:round;stroke-linejoin:round;stroke-miterlimit:10;}
	.st17{fill:none;stroke:#010101;stroke-width:0.317;stroke-miterlimit:10;}
	.st18{fill:none;stroke:#010101;stroke-width:0.2616;stroke-miterlimit:3.864;}
	.st19{fill:none;stroke:#010101;stroke-width:0.2935;stroke-miterlimit:3.864;}
	.st20{fill:none;stroke:#010101;stroke-width:0.7486;stroke-miterlimit:10;}
</style>
<g id="Body">
	<g>
		<path class="st0" d="M87.3,56l-74.6,0.1l-0.2,6.2l1.2,2.5V63v54.2c0,0-6.5-8.7-7-9.9c0.2-0.1-6.2-43.8-6.2-43.8s0-28.6,0-28.8
			c0-1.8,2.3-2.4,2.3-2.4l10-1.7l1.8-1.6c0.1-1.6-1-8.1-1-8.1V1.2h2.2l12.4,32.4l59.1-0.5V56z"/>
		<g>
			<path class="st1" d="M65.2,56.7"/>
			<line class="st2" x1="62.7" y1="54" x2="62.7" y2="50.8"/>
			<line class="st2" x1="60.7" y1="54" x2="60.7" y2="50.8"/>
			<line class="st2" x1="58.7" y1="54" x2="58.7" y2="50.8"/>
			<line class="st2" x1="56.7" y1="54" x2="56.7" y2="50.8"/>
			<line class="st3" x1="54.7" y1="54" x2="54.7" y2="49.2"/>
			<line class="st2" x1="52.7" y1="54" x2="52.7" y2="50.8"/>
			<line class="st2" x1="50.7" y1="54" x2="50.7" y2="50.8"/>
			<line class="st2" x1="48.7" y1="54" x2="48.7" y2="50.8"/>
			<line class="st2" x1="46.7" y1="54" x2="46.7" y2="50.8"/>
			<line class="st4" x1="44.7" y1="54" x2="44.7" y2="47.6"/>
			<line class="st4" x1="64.7" y1="54" x2="64.7" y2="47.6"/>
			<line class="st2" x1="62.7" y1="54" x2="62.7" y2="50.8"/>
			<line class="st2" x1="60.7" y1="54" x2="60.7" y2="50.8"/>
			<line class="st2" x1="58.7" y1="54" x2="58.7" y2="50.8"/>
			<line class="st2" x1="56.7" y1="54" x2="56.7" y2="50.8"/>
			<line class="st3" x1="54.7" y1="54" x2="54.7" y2="49.2"/>
			<line class="st2" x1="52.7" y1="54" x2="52.7" y2="50.8"/>
			<line class="st2" x1="50.7" y1="54" x2="50.7" y2="50.8"/>
			<line class="st2" x1="48.7" y1="54" x2="48.7" y2="50.8"/>
			<line class="st2" x1="46.7" y1="54" x2="46.7" y2="50.8"/>
			<line class="st4" x1="64.7" y1="54" x2="64.7" y2="47.6"/>
			<text transform="matrix(1 0 0 1 61.5989 50.4498)" class="st5 st6 st7">1</text>
			<line class="st2" x1="82.7" y1="54" x2="82.7" y2="50.8"/>
			<line class="st2" x1="80.7" y1="54" x2="80.7" y2="50.8"/>
			<line class="st2" x1="78.7" y1="54" x2="78.7" y2="50.8"/>
			<line class="st2" x1="76.7" y1="54" x2="76.7" y2="50.8"/>
			<line class="st3" x1="74.7" y1="54" x2="74.7" y2="49.2"/>
			<line class="st2" x1="72.7" y1="54" x2="72.7" y2="50.8"/>
			<line class="st2" x1="70.7" y1="54" x2="70.7" y2="50.8"/>
			<line class="st2" x1="68.7" y1="54" x2="68.7" y2="50.8"/>
			<line class="st2" x1="66.7" y1="54" x2="66.7" y2="50.8"/>
			<line class="st4" x1="84.7" y1="54" x2="84.7" y2="47.6"/>
			<line class="st2" x1="82.7" y1="54" x2="82.7" y2="50.8"/>
			<line class="st2" x1="80.7" y1="54" x2="80.7" y2="50.8"/>
			<line class="st2" x1="78.7" y1="54" x2="78.7" y2="50.8"/>
			<line class="st2" x1="76.7" y1="54" x2="76.7" y2="50.8"/>
			<line class="st3" x1="74.7" y1="54" x2="74.7" y2="49.2"/>
			<line class="st2" x1="72.7" y1="54" x2="72.7" y2="50.8"/>
			<line class="st2" x1="70.7" y1="54" x2="70.7" y2="50.8"/>
			<line class="st2" x1="68.7" y1="54" x2="68.7" y2="50.8"/>
			<line class="st2" x1="66.7" y1="54" x2="66.7" y2="50.8"/>
			<line class="st4" x1="84.7" y1="54" x2="84.7" y2="47.6"/>
			<text transform="matrix(1 0 0 1 81.5989 50.4498)" class="st5 st6 st7">2</text>
			<text transform="matrix(1 0 0 1 43.1667 46.5799)" class="st5 st6 st8">0</text>
		</g>
	</g>
</g>
<g id="Front">
	<g id="ViewFinder">
		<path class="st9" d="M14.5,57"/>
		<path class="st10" d="M14.5,57"/>
		<path class="st9" d="M90,34.7"/>
		<path class="st9" d="M89.8,57.1"/>
		<path class="st11" d="M90,34.7"/>
		<path class="st11" d="M89.8,57.1"/>
		<path class="st12" d="M28.7,38.1"/>
		<path class="st12" d="M37.5,38.1"/>
		<path class="st12" d="M41.8,38.1"/>
		<path class="st12" d="M46.3,38.1"/>
		<path class="st12" d="M50.6,38.1"/>
		<path class="st12" d="M63.9,38.1"/>
		<path class="st12" d="M68.2,38.1"/>
		<path class="st12" d="M77,38.1"/>
		<path class="st12" d="M90.3,38.1"/>
		<path class="st12" d="M35.2,38.1"/>
		<path class="st12" d="M39.7,38.1"/>
		<path class="st12" d="M44,38.1"/>
		<path class="st12" d="M48.5,38.1"/>
		<path class="st12" d="M52.8,38.1"/>
		<path class="st12" d="M61.6,38.1"/>
		<path class="st12" d="M66.1,38.1"/>
		<g>
			<rect x="51.8" y="27.8" class="st9" width="2.7" height="2.3"/>
			<rect x="51.8" y="27.8" class="st10" width="2.7" height="2.3"/>
			<rect x="47.9" y="22.1" class="st9" width="10.1" height="5.6"/>
			<rect x="47.9" y="22.1" class="st10" width="10.1" height="5.6"/>
			<line class="st13" x1="49.2" y1="22.2" x2="49.2" y2="27.8"/>
			<line class="st14" x1="49.2" y1="22.2" x2="49.2" y2="27.8"/>
			<line class="st13" x1="50.1" y1="22.2" x2="50.1" y2="27.8"/>
			<line class="st14" x1="50.1" y1="22.2" x2="50.1" y2="27.8"/>
			<line class="st13" x1="51.1" y1="22.1" x2="51.1" y2="27.7"/>
			<line class="st14" x1="51.1" y1="22.1" x2="51.1" y2="27.7"/>
			<line class="st13" x1="52" y1="22.2" x2="52" y2="27.8"/>
			<line class="st14" x1="52" y1="22.2" x2="52" y2="27.8"/>
			<line class="st13" x1="57.8" y1="27.6" x2="57.8" y2="22"/>
			<line class="st15" x1="57.8" y1="27.6" x2="57.8" y2="22"/>
			<line class="st13" x1="57.1" y1="27.7" x2="57.1" y2="22.1"/>
			<line class="st15" x1="57.1" y1="27.7" x2="57.1" y2="22.1"/>
			<line class="st13" x1="56.3" y1="27.7" x2="56.3" y2="22.1"/>
			<line class="st15" x1="56.3" y1="27.7" x2="56.3" y2="22.1"/>
			<line class="st13" x1="55.3" y1="27.7" x2="55.3" y2="22.1"/>
			<line class="st15" x1="55.3" y1="27.7" x2="55.3" y2="22.1"/>
			<line class="st13" x1="54.1" y1="27.8" x2="54.1" y2="22.3"/>
			<line class="st15" x1="54.1" y1="27.8" x2="54.1" y2="22.3"/>
			<line class="st13" x1="53" y1="27.6" x2="53" y2="22.1"/>
			<line class="st15" x1="53" y1="27.6" x2="53" y2="22.1"/>
		</g>
		<path class="st16" d="M89.5,61"/>
		<path class="st16" d="M14.8,61"/>
		<path class="st17" d="M89.7,54.3"/>
		<path class="st17" d="M14.7,54.4"/>
		<path class="st0" d="M12.8,30.6v-4.1c0.1-1.4,0.8-5.7,0.8-5.7V1.2c0,0-1.3,1.3-2.5,2.9L4.7,32v2.7c0,8.2,4.9,10.4,10.9,10.4v10.8
			l-0.1,6l-1.7,2.9v52.4l8.9-11.3c0.2,0,7.5-44.4,7.5-44.4h59.5v-31L12.8,30.6L12.8,30.6z M66.9,54.1H37.1c-4.4,0-8-3.6-8-8
			s3.6-8,8-8h29.8c4.4,0,8,3.6,8,8C74.8,50.5,71.3,54.1,66.9,54.1z"/>
		<g>
			<line class="st18" x1="60.9" y1="58.1" x2="60.9" y2="56.5"/>
			<line class="st18" x1="59.1" y1="58.1" x2="59.1" y2="56.5"/>
			<line class="st18" x1="57.2" y1="58.1" x2="57.2" y2="56.5"/>
			<line class="st18" x1="55.4" y1="58.1" x2="55.4" y2="56.5"/>
			<line class="st19" x1="53.6" y1="58.1" x2="53.6" y2="55.7"/>
			<line class="st18" x1="51.9" y1="58.1" x2="51.9" y2="56.5"/>
			<line class="st18" x1="50.1" y1="58.1" x2="50.1" y2="56.5"/>
			<line class="st18" x1="48.3" y1="58.1" x2="48.3" y2="56.5"/>
			<line class="st18" x1="46.5" y1="58.1" x2="46.5" y2="56.5"/>
			<line class="st12" x1="62.7" y1="58.1" x2="62.7" y2="54.9"/>
			<line class="st12" x1="44.7" y1="58.1" x2="44.7" y2="54.9"/>
		</g>
		<path class="st20" d="M70.9,58.9H32.7c-5,0-9-3.7-9-8.1v-9c0-4.5,4.1-8.1,9-8.1h38.2c5,0,9,3.7,9,8.1v9
			C80,55.2,75.9,58.9,70.9,58.9z"/>
	</g>
</g>
</svg>
