<?xml version="1.0" encoding="utf-8"?>
<!-- Generator: Adobe Illustrator 19.2.1, SVG Export Plug-In . SVG Version: 6.00 Build 0)  -->
<svg version="1.1" id="Layer_1" xmlns="http://www.w3.org/2000/svg" xmlns:xlink="http://www.w3.org/1999/xlink" x="0px" y="0px"
	 viewBox="0 0 301.5 154.8" style="enable-background:new 0 0 301.5 154.8;" xml:space="preserve">
<style type="text/css">
	.st0{fill:#2DB674;stroke:#010101;stroke-miterlimit:10;}
	.st1{fill:#FFFFFF;stroke:#A8AAAD;stroke-miterlimit:10;}
	.st2{fill:#010101;}
	.st3{font-family:'Helvetica-Bold';}
	.st4{font-size:40px;}
	.st5{font-family:'Helvetica';}
	.st6{font-size:10px;}
	.st7{fill:#FFFFFF;}
	.st8{fill:#FFFFFF;stroke:#010101;stroke-miterlimit:10;}
	.st9{font-size:18px;}
	.st10{font-family:'Helvetica-Oblique';}
	.st11{font-size:12px;}
	.st12{fill:#FFFFFF;stroke:#010101;stroke-linecap:round;stroke-miterlimit:10;}
	.st13{font-size:24px;}
	.st14{font-size:7px;}
	.st15{font-size:21px;}
	.st16{fill:none;stroke:#010101;stroke-miterlimit:10;}
	.st17{fill:#046938;}
	.st18{font-size:6px;}
	.st19{fill:#589D76;stroke:#010101;stroke-linecap:round;stroke-miterlimit:10;}
</style>
<rect x="1" y="0.5" class="st0" width="300" height="153.8"/>
<g>
	<rect x="75.2" y="29.5" class="st1" width="151.1" height="97"/>
	<text transform="matrix(1 0 0 1 85.6286 85.3471)" class="st2 st3 st4">Wipes</text>
	<text transform="matrix(1 0 0 1 85.6286 105.3474)" class="st2 st5 st6">Non-Name Brand</text>
	<text transform="matrix(1 0 0 1 85.6286 117.3468)" class="st2 st5 st6">Delicate Task Wipers</text>
	<g>
		<rect x="81" y="33.7" class="st7" width="84.6" height="19.5"/>
		<polyline class="st8" points="81,33.7 215.8,33.7 210.8,47 165.6,47 		"/>
	</g>
	<text transform="matrix(1 0 0 1 82.6188 49.3475)" class="st2 st3 st9">GENERIC</text>
	<text transform="matrix(1 0 0 1 166.2692 44.6795)" class="st2 st10 st11">Science</text>
</g>
<g>
	<path class="st12" d="M1,34.3c18.7,0,33.8-15.1,33.8-33.8H1V34.3z"/>
	<g>
		<text transform="matrix(1 0 0 1 4.8337 23.7503)" class="st2 st5 st13">1</text>
		<text transform="matrix(1 0 0 1 15.4509 12.228)" class="st2 st5 st14">ply</text>
	</g>
</g>
<g>
	<text transform="matrix(1 0 0 1 252.239 138.7505)" class="st7 st3 st15">280</text>
	<g>
		<text transform="matrix(1 0 0 1 252.239 138.7505)" class="st16 st3 st15">280</text>
		<text transform="matrix(1 0 0 1 247.7468 146.2504)" class="st17 st5 st18">is a nice number</text>
	</g>
</g>
<polygon class="st19" points="300.5,34.2 301,0.6 221.3,0.6 "/>
<g>
	<polygon class="st19" points="1,120.8 0.5,154.3 80.2,154.3 	"/>
	<text transform="matrix(1 0 0 1 4.4958 150.0011)" class="st7 st5 st18">TLL Professional</text>
</g>
</svg>
