<?xml version="1.0" encoding="utf-8"?>
<!-- Generator: Adobe Illustrator 19.2.0, SVG Export Plug-In . SVG Version: 6.00 Build 0)  -->
<svg version="1.1" id="Layer_1" xmlns="http://www.w3.org/2000/svg" xmlns:xlink="http://www.w3.org/1999/xlink" x="0px" y="0px"
	 viewBox="0 0 116.4 88.5" style="enable-background:new 0 0 116.4 88.5;" xml:space="preserve">
<style type="text/css">
	.st0{fill:#EC2227;}
	.st1{fill:#D61F31;}
	.st2{fill:#EB2629;}
	.st3{fill:#D61F32;}
</style>
<g>
	<path class="st0" d="M49.8,74.5l9.9-9.2L46.6,54.9l10-7.1l-13.5-9.6l11.6-11.6l-14.9-7.4l7.9-11.5C41.3,2,32.4-0.9,23.9,0.2
		C8.6,2.3-1.8,15.7,0.3,31.1c2.5,18.8,21.4,32,50.1,51.4l7.9,6L49.8,74.5z"/>
	<path class="st1" d="M49.8,74.5l9.9-9.2L46.6,54.9l10-7.1l-13.5-9.6l11.6-11.6l-14.9-7.4l6.5-9.5c-5.5-4.1-12.7-6.1-19.5-5.2
		C12.8,6.3,3.5,18.5,5.4,32.3c2.2,17,19.2,28.7,45.1,46.3l3.1,2.4L49.8,74.5z"/>
</g>
<g>
	<path class="st2" d="M92.5,0.2C84.1-0.9,75.1,2,68.8,7.7l-10.6,9.2l12.5,10.9L56.5,36L67,48.8l-11.5,4.2l10,13.4l-11.9,6.3
		l4.5,15.7l7.9-6c28.8-19.4,47.7-32.6,50.1-51.4C118.2,15.7,107.9,2.3,92.5,0.2z"/>
	<path class="st3" d="M89.7,4.5c-7.6-1-15.6,1.6-21.3,6.8c-0.4-0.7-0.9-1.3-1.4-1.9l-8.8,7.5l12.4,10.9L56.5,36L67,48.8l-11.5,4.2
		l10,13.4l-11.9,6.3l2.1,7.2l3,3.9l7.1-5.4c25.9-17.5,42.9-29.4,45.1-46.3C112.8,18.4,103.5,6.3,89.7,4.5z"/>
</g>
</svg>
