<?xml version="1.0" encoding="utf-8"?>
<!-- Generator: Adobe Illustrator 19.2.1, SVG Export Plug-In . SVG Version: 6.00 Build 0)  -->
<svg version="1.1" id="Layer_1" xmlns="http://www.w3.org/2000/svg" xmlns:xlink="http://www.w3.org/1999/xlink" x="0px" y="0px"
	 viewBox="0 0 201.9 101" style="enable-background:new 0 0 201.9 101;" xml:space="preserve">
<style type="text/css">
	.st0{fill:none;}
	.st1{fill:#131313;}
	.st2{fill:#202020;}
	.st3{fill:url(#SVGID_1_);stroke:#000000;stroke-miterlimit:10;}
</style>
<pattern  y="101" width="354.5" height="1028" patternUnits="userSpaceOnUse" id="New_Pattern_Swatch_44" viewBox="0 -1028 354.5 1028" style="overflow:visible;">
	<g>
		<rect x="0" y="-1028" class="st0" width="354.5" height="1028"/>
		<g>
			<g>
				<g>
					<g>
						<rect x="0" y="-1028" class="st1" width="24.7" height="1028"/>
						<rect x="22.2" y="-1028" class="st2" width="27.9" height="1028"/>
					</g>
				</g>
				<g>
					<g>
						<g>
							<rect x="44.3" y="-1028" class="st1" width="24.7" height="1028"/>
							<rect x="66.5" y="-1028" class="st2" width="27.2" height="1028"/>
						</g>
					</g>
				</g>
			</g>
			<g>
				<g>
					<g>
						<rect x="88.6" y="-1028" class="st1" width="24.7" height="1028"/>
						<rect x="110.8" y="-1028" class="st2" width="27.9" height="1028"/>
					</g>
				</g>
				<g>
					<g>
						<g>
							<rect x="132.9" y="-1028" class="st1" width="24.7" height="1028"/>
							<rect x="155.1" y="-1028" class="st2" width="28.2" height="1028"/>
						</g>
					</g>
				</g>
			</g>
			<g>
				<g>
					<g>
						<rect x="177.2" y="-1028" class="st1" width="24.7" height="1028"/>
						<rect x="199.4" y="-1028" class="st2" width="27.9" height="1028"/>
					</g>
				</g>
				<g>
					<g>
						<g>
							<rect x="221.6" y="-1028" class="st1" width="24.7" height="1028"/>
							<rect x="243.7" y="-1028" class="st2" width="27.2" height="1028"/>
						</g>
					</g>
				</g>
			</g>
			<g>
				<g>
					<g>
						<rect x="265.9" y="-1028" class="st1" width="24.7" height="1028"/>
						<rect x="288" y="-1028" class="st2" width="27.9" height="1028"/>
					</g>
				</g>
				<g>
					<g>
						<g>
							<rect x="310.2" y="-1028" class="st1" width="24.7" height="1028"/>
							<rect x="332.3" y="-1028" class="st2" width="22.2" height="1028"/>
						</g>
					</g>
				</g>
			</g>
		</g>
	</g>
</pattern>
<pattern  id="SVGID_1_" xlink:href="#New_Pattern_Swatch_44" patternTransform="matrix(0.7071 0.7071 -0.7071 0.7071 -8077.3037 2445.1626)">
</pattern>
<path class="st3" d="M199.9,44.8L177.6,6.2c-2-3.5-5.8-5.7-9.9-5.7h-35.9h-8.6h-13.1H87.3h-8.5H65.6H34.2c-4.1,0-7.9,2.2-9.9,5.7
	L2,44.8c-2,3.5-2,7.9,0,11.4l22.3,38.6c2,3.5,5.8,5.7,9.9,5.7h31.4h13.1h8.5H110h13.1h8.6h35.9c4.1,0,7.9-2.2,9.9-5.7l22.3-38.6
	C201.9,52.7,201.9,48.3,199.9,44.8z"/>
</svg>
