<?xml version="1.0" encoding="utf-8"?>
<!-- Generator: Adobe Illustrator 19.2.0, SVG Export Plug-In . SVG Version: 6.00 Build 0)  -->
<svg version="1.1" id="Layer_1" xmlns="http://www.w3.org/2000/svg" xmlns:xlink="http://www.w3.org/1999/xlink" x="0px" y="0px"
	 viewBox="0 0 106.9 741.2" style="enable-background:new 0 0 106.9 741.2;" xml:space="preserve">
<style type="text/css">
	.st0{fill:none;stroke:#000000;}
	.st1{fill:none;stroke:#000000;stroke-width:2;}
	.st2{font-family:'Helvetica';}
	.st3{font-size:16.9412px;}
</style>
<line class="st0" x1="0.5" y1="0" x2="0.5" y2="741.2"/>
<line class="st0" x1="106.4" y1="0" x2="106.4" y2="741.2"/>
<line class="st0" x1="16.4" y1="734.8" x2="58.7" y2="734.8"/>
<line class="st0" x1="16.4" y1="728.5" x2="58.7" y2="728.5"/>
<line class="st0" x1="16.4" y1="722.1" x2="58.7" y2="722.1"/>
<line class="st0" x1="16.4" y1="715.8" x2="58.7" y2="715.8"/>
<line class="st1" x1="5.8" y1="709.4" x2="101.1" y2="709.4"/>
<line class="st0" x1="16.4" y1="703.1" x2="58.7" y2="703.1"/>
<line class="st0" x1="16.4" y1="696.7" x2="58.7" y2="696.7"/>
<line class="st0" x1="16.4" y1="690.4" x2="58.7" y2="690.4"/>
<line class="st0" x1="16.4" y1="684" x2="58.7" y2="684"/>
<line class="st1" x1="5.8" y1="677.6" x2="101.1" y2="677.6"/>
<text transform="matrix(1 0 0 1 82.2444 674.47)" class="st2 st3">10</text>
<line class="st0" x1="16.4" y1="671.3" x2="58.7" y2="671.3"/>
<line class="st0" x1="16.4" y1="664.9" x2="58.7" y2="664.9"/>
<line class="st0" x1="16.4" y1="658.6" x2="58.7" y2="658.6"/>
<line class="st0" x1="16.4" y1="652.2" x2="58.7" y2="652.2"/>
<line class="st1" x1="5.8" y1="645.9" x2="101.1" y2="645.9"/>
<line class="st0" x1="16.4" y1="639.5" x2="58.7" y2="639.5"/>
<line class="st0" x1="16.4" y1="633.2" x2="58.7" y2="633.2"/>
<line class="st0" x1="16.4" y1="626.8" x2="58.7" y2="626.8"/>
<line class="st0" x1="16.4" y1="620.5" x2="58.7" y2="620.5"/>
<line class="st1" x1="5.8" y1="614.1" x2="101.1" y2="614.1"/>
<text transform="matrix(1 0 0 1 82.2444 610.9407)" class="st2 st3">20</text>
<line class="st0" x1="16.4" y1="607.8" x2="58.7" y2="607.8"/>
<line class="st0" x1="16.4" y1="601.4" x2="58.7" y2="601.4"/>
<line class="st0" x1="16.4" y1="595.1" x2="58.7" y2="595.1"/>
<line class="st0" x1="16.4" y1="588.7" x2="58.7" y2="588.7"/>
<line class="st1" x1="5.8" y1="582.4" x2="101.1" y2="582.4"/>
<line class="st0" x1="16.4" y1="576" x2="58.7" y2="576"/>
<line class="st0" x1="16.4" y1="569.6" x2="58.7" y2="569.6"/>
<line class="st0" x1="16.4" y1="563.3" x2="58.7" y2="563.3"/>
<line class="st0" x1="16.4" y1="556.9" x2="58.7" y2="556.9"/>
<line class="st1" x1="5.8" y1="550.6" x2="101.1" y2="550.6"/>
<text transform="matrix(1 0 0 1 82.2444 547.4114)" class="st2 st3">30</text>
<line class="st0" x1="16.4" y1="544.2" x2="58.7" y2="544.2"/>
<line class="st0" x1="16.4" y1="537.9" x2="58.7" y2="537.9"/>
<line class="st0" x1="16.4" y1="531.5" x2="58.7" y2="531.5"/>
<line class="st0" x1="16.4" y1="525.2" x2="58.7" y2="525.2"/>
<line class="st1" x1="5.8" y1="518.8" x2="101.1" y2="518.8"/>
<line class="st0" x1="16.4" y1="512.5" x2="58.7" y2="512.5"/>
<line class="st0" x1="16.4" y1="506.1" x2="58.7" y2="506.1"/>
<line class="st0" x1="16.4" y1="499.8" x2="58.7" y2="499.8"/>
<line class="st0" x1="16.4" y1="493.4" x2="58.7" y2="493.4"/>
<line class="st1" x1="5.8" y1="487.1" x2="101.1" y2="487.1"/>
<text transform="matrix(1 0 0 1 82.2444 483.8821)" class="st2 st3">40</text>
<line class="st0" x1="16.4" y1="480.7" x2="58.7" y2="480.7"/>
<line class="st0" x1="16.4" y1="474.4" x2="58.7" y2="474.4"/>
<line class="st0" x1="16.4" y1="468" x2="58.7" y2="468"/>
<line class="st0" x1="16.4" y1="461.6" x2="58.7" y2="461.6"/>
<line class="st1" x1="5.8" y1="455.3" x2="101.1" y2="455.3"/>
<line class="st0" x1="16.4" y1="448.9" x2="58.7" y2="448.9"/>
<line class="st0" x1="16.4" y1="442.6" x2="58.7" y2="442.6"/>
<line class="st0" x1="16.4" y1="436.2" x2="58.7" y2="436.2"/>
<line class="st0" x1="16.4" y1="429.9" x2="58.7" y2="429.9"/>
<line class="st1" x1="5.8" y1="423.5" x2="101.1" y2="423.5"/>
<text transform="matrix(1 0 0 1 82.2444 420.3528)" class="st2 st3">50</text>
<line class="st0" x1="16.4" y1="417.2" x2="58.7" y2="417.2"/>
<line class="st0" x1="16.4" y1="410.8" x2="58.7" y2="410.8"/>
<line class="st0" x1="16.4" y1="404.5" x2="58.7" y2="404.5"/>
<line class="st0" x1="16.4" y1="398.1" x2="58.7" y2="398.1"/>
<line class="st1" x1="5.8" y1="391.8" x2="101.1" y2="391.8"/>
<line class="st0" x1="16.4" y1="385.4" x2="58.7" y2="385.4"/>
<line class="st0" x1="16.4" y1="379.1" x2="58.7" y2="379.1"/>
<line class="st0" x1="16.4" y1="372.7" x2="58.7" y2="372.7"/>
<line class="st0" x1="16.4" y1="366.4" x2="58.7" y2="366.4"/>
<line class="st1" x1="5.8" y1="360" x2="101.1" y2="360"/>
<text transform="matrix(1 0 0 1 82.2444 356.8235)" class="st2 st3">60</text>
<line class="st0" x1="16.4" y1="353.6" x2="58.7" y2="353.6"/>
<line class="st0" x1="16.4" y1="347.3" x2="58.7" y2="347.3"/>
<line class="st0" x1="16.4" y1="340.9" x2="58.7" y2="340.9"/>
<line class="st0" x1="16.4" y1="334.6" x2="58.7" y2="334.6"/>
<line class="st1" x1="5.8" y1="328.2" x2="101.1" y2="328.2"/>
<line class="st0" x1="16.4" y1="321.9" x2="58.7" y2="321.9"/>
<line class="st0" x1="16.4" y1="315.5" x2="58.7" y2="315.5"/>
<line class="st0" x1="16.4" y1="309.2" x2="58.7" y2="309.2"/>
<line class="st0" x1="16.4" y1="302.8" x2="58.7" y2="302.8"/>
<line class="st1" x1="5.8" y1="296.5" x2="101.1" y2="296.5"/>
<text transform="matrix(1 0 0 1 82.2444 293.2937)" class="st2 st3">70</text>
<line class="st0" x1="16.4" y1="290.1" x2="58.7" y2="290.1"/>
<line class="st0" x1="16.4" y1="283.8" x2="58.7" y2="283.8"/>
<line class="st0" x1="16.4" y1="277.4" x2="58.7" y2="277.4"/>
<line class="st0" x1="16.4" y1="271.1" x2="58.7" y2="271.1"/>
<line class="st1" x1="5.8" y1="264.7" x2="101.1" y2="264.7"/>
<line class="st0" x1="16.4" y1="258.4" x2="58.7" y2="258.4"/>
<line class="st0" x1="16.4" y1="252" x2="58.7" y2="252"/>
<line class="st0" x1="16.4" y1="245.6" x2="58.7" y2="245.6"/>
<line class="st0" x1="16.4" y1="239.3" x2="58.7" y2="239.3"/>
<line class="st1" x1="5.8" y1="232.9" x2="101.1" y2="232.9"/>
<text transform="matrix(1 0 0 1 82.2444 229.7644)" class="st2 st3">80</text>
<line class="st0" x1="16.4" y1="226.6" x2="58.7" y2="226.6"/>
<line class="st0" x1="16.4" y1="220.2" x2="58.7" y2="220.2"/>
<line class="st0" x1="16.4" y1="213.9" x2="58.7" y2="213.9"/>
<line class="st0" x1="16.4" y1="207.5" x2="58.7" y2="207.5"/>
<line class="st1" x1="5.8" y1="201.2" x2="101.1" y2="201.2"/>
<line class="st0" x1="16.4" y1="194.8" x2="58.7" y2="194.8"/>
<line class="st0" x1="16.4" y1="188.5" x2="58.7" y2="188.5"/>
<line class="st0" x1="16.4" y1="182.1" x2="58.7" y2="182.1"/>
<line class="st0" x1="16.4" y1="175.8" x2="58.7" y2="175.8"/>
<line class="st1" x1="5.8" y1="169.4" x2="101.1" y2="169.4"/>
<text transform="matrix(1 0 0 1 82.2444 166.2346)" class="st2 st3">90</text>
<line class="st0" x1="16.4" y1="163.1" x2="58.7" y2="163.1"/>
<line class="st0" x1="16.4" y1="156.7" x2="58.7" y2="156.7"/>
<line class="st0" x1="16.4" y1="150.4" x2="58.7" y2="150.4"/>
<line class="st0" x1="16.4" y1="144" x2="58.7" y2="144"/>
<line class="st1" x1="5.8" y1="137.6" x2="101.1" y2="137.6"/>
<line class="st0" x1="16.4" y1="131.3" x2="58.7" y2="131.3"/>
<line class="st0" x1="16.4" y1="124.9" x2="58.7" y2="124.9"/>
<line class="st0" x1="16.4" y1="118.6" x2="58.7" y2="118.6"/>
<line class="st0" x1="16.4" y1="112.2" x2="58.7" y2="112.2"/>
<line class="st1" x1="5.8" y1="105.9" x2="101.1" y2="105.9"/>
<text transform="matrix(1 0 0 1 72.8225 102.7053)" class="st2 st3">100</text>
</svg>
