<?xml version="1.0" encoding="utf-8"?>
<!-- Generator: Adobe Illustrator 19.2.1, SVG Export Plug-In . SVG Version: 6.00 Build 0)  -->
<svg version="1.1" id="Layer_1" xmlns="http://www.w3.org/2000/svg" xmlns:xlink="http://www.w3.org/1999/xlink" x="0px" y="0px"
	 viewBox="0 0 57.8 240.2" style="enable-background:new 0 0 57.8 240.2;" xml:space="preserve">
<style type="text/css">
	.st0{fill:#626361;stroke:#505150;stroke-miterlimit:10;}
	.st1{fill:#E9E7DE;stroke:#808080;stroke-miterlimit:10;}
	.st2{fill:none;stroke:#606161;stroke-miterlimit:10;}
	.st3{opacity:0.35;fill:#F6BE71;stroke:#606161;stroke-miterlimit:10;enable-background:new    ;}
	.st4{fill:#4274B0;}
	.st5{fill:#5D89C7;}
	.st6{fill:#263D8F;}
	.st7{fill:none;stroke:#808080;stroke-miterlimit:10;}
	.st8{fill:#FFFFFF;}
	.st9{font-family:'HelveticaNeue-Bold';}
	.st10{font-size:8px;}
	.st11{font-size:2.9995px;}
	.st12{fill:none;stroke:#FFFFFF;stroke-width:0.25;stroke-miterlimit:10;}
	.st13{font-size:2.3219px;}
	.st14{fill:#545554;}
	.st15{fill:none;stroke:#505150;stroke-miterlimit:10;}
</style>
<rect x="0.5" y="97.9" class="st0" width="56.8" height="35.8"/>
<path class="st1" d="M34,2.8c0-1.3-2.2-2.3-5-2.3s-5,1-5,2.3L23.2,17h11.4L34,2.8z"/>
<path class="st1" d="M29.1,16.2c-6.4,0-11.6,1.1-11.6,2.5v7.8h23.3v-7.8C40.7,17.4,35.5,16.2,29.1,16.2z"/>
<path class="st2" d="M38.3,133.7H19.5v90.6c0.6,0.4,1.3,0.7,1.9,1v11.3c7.5,7.2,15,0,15,0v-11.4c1.2-0.5,1.9-0.9,1.9-0.9L38.3,133.7
	z"/>
<path class="st1" d="M28.9,25.5c-8.1,0-14.7,1.1-14.7,2.5v69.8h29.4V28.1C43.6,26.7,37,25.5,28.9,25.5z"/>
<path class="st3" d="M38.3,133.7H19.5v90.6c0.6,0.4,1.3,0.7,1.9,1v11.3c7.5,7.2,15,0,15,0v-11.4c1.2-0.5,1.9-0.9,1.9-0.9L38.3,133.7
	z"/>
<path class="st4" d="M29.1,82.5c-8.1,0-14.7-0.6-14.7-1.4V97h29.4V81.1C43.8,81.9,37.2,82.5,29.1,82.5z"/>
<path class="st5" d="M29.1,83.4c-8.1,0-14.7-0.6-14.7-1.4v15.9h29.4V82C43.8,82.8,37.2,83.4,29.1,83.4z"/>
<path class="st6" d="M43.7,44.9c0-0.4-6.6-0.8-14.7-0.8s-14.7,0.3-14.7,0.8h-0.1v20.9c0-0.4,6.6-0.8,14.7-0.8s14.7,0.3,14.7,0.8h0.2
	L43.7,44.9L43.7,44.9z"/>
<path class="st7" d="M28.9,25.5c-8.1,0-14.7,1.1-14.7,2.5v69.8h29.4V28.1C43.6,26.7,37,25.5,28.9,25.5z"/>
<g>
	<text transform="matrix(1 0 0 1 16.1217 54.2939)" class="st8 st9 st10">precin</text>
	<text transform="matrix(1 0 0 1 39.6364 50.0688)" class="st8 st9 st11">®</text>
</g>
<g>
	<polygon class="st12" points="40.2,59.3 36,57.6 36,61 	"/>
	<text transform="matrix(1 0 0 1 23.9494 60.0957)" class="st8 st9 st13">pH meter</text>
	<polygon class="st12" points="18,59.3 22.2,61 22.2,57.6 	"/>
</g>
<polygon class="st14" points="34.6,133.7 22.2,133.7 22.2,103.5 20.2,97.9 36.6,97.9 34.6,103.5 "/>
<rect x="0.5" y="97.9" class="st15" width="56.8" height="35.8"/>
</svg>
