<?xml version="1.0" encoding="utf-8"?>
<!-- Generator: Adobe Illustrator 19.2.1, SVG Export Plug-In . SVG Version: 6.00 Build 0)  -->
<svg version="1.1" id="Layer_1" xmlns="http://www.w3.org/2000/svg" xmlns:xlink="http://www.w3.org/1999/xlink" x="0px" y="0px"
	 viewBox="0 0 204.9 104" style="enable-background:new 0 0 204.9 104;" xml:space="preserve">
<style type="text/css">
	.st0{fill:none;}
	.st1{fill:#196627;}
	.st2{fill:#207233;}
	.st3{fill:url(#SVGID_1_);stroke:#000000;stroke-width:4;stroke-miterlimit:10;}
</style>
<pattern  x="1.5" y="102.5" width="20" height="63" patternUnits="userSpaceOnUse" id="New_Pattern_Swatch_4" viewBox="0 -63 20 63" style="overflow:visible;">
	<g>
		<rect y="-63" class="st0" width="20" height="63"/>
		<rect x="5" y="-63" class="st1" width="15" height="63"/>
		<rect y="-63" class="st2" width="10" height="63"/>
	</g>
</pattern>
<pattern  id="SVGID_1_" xlink:href="#New_Pattern_Swatch_4" patternTransform="matrix(0.9369 0.5409 0.5409 -0.9369 -887.3494 -15316.876)">
</pattern>
<path class="st3" d="M201.4,46.3L179.1,7.7c-2-3.5-5.8-5.7-9.9-5.7h-35.9h-8.6h-13.1H88.8h-8.5H67.1H35.7c-4.1,0-7.9,2.2-9.9,5.7
	L3.5,46.3c-2,3.5-2,7.9,0,11.4l22.3,38.6c2,3.5,5.8,5.7,9.9,5.7h31.4h13.1h8.5h22.8h13.1h8.6h35.9c4.1,0,7.9-2.2,9.9-5.7l22.3-38.6
	C203.4,54.2,203.4,49.8,201.4,46.3z"/>
</svg>
