<?xml version="1.0" encoding="utf-8"?>
<!-- Generator: Adobe Illustrator 19.2.1, SVG Export Plug-In . SVG Version: 6.00 Build 0)  -->
<svg version="1.1" id="Layer_1" xmlns="http://www.w3.org/2000/svg" xmlns:xlink="http://www.w3.org/1999/xlink" x="0px" y="0px"
	 viewBox="0 0 191.7 363.7" style="enable-background:new 0 0 191.7 363.7;" xml:space="preserve">
<style type="text/css">
	.st0{opacity:0.5;fill:#DED620;}
	.st1{fill:none;stroke:#686868;stroke-miterlimit:10;}
	.st2{fill:#DED620;}
	.st3{fill:#303030;}
	.st4{font-family:'HelveticaNeue';}
	.st5{font-size:42.3192px;}
</style>
<g>
	<path class="st0" d="M7.3,112.5v200.7c0,27.5,22.5,50,50,50h36.9H131c27.5,0,50-22.5,50-50V112.5H7.3z"/>
	<path class="st1" d="M174,92.2c-3.1-3.6-1.8-8.9-1.8-14.1c0,0,0,0,0,0l1.2-0.2c4.2,0,7.7-3.5,7.7-7.7s-3.4-7.7-7.7-7.7H131H94.2
		H57.3H15c-4.2,0-7.7,3.5-7.7,7.7s3.4,7.7,7.7,7.7l1.2,0.2c0,0,0,0,0,0c0,5.1,1.3,10.5-1.8,14.1l-1.8,4.5c-3,6.4-5.2,8.4-5.2,15.8
		v200.7c0,27.5,22.5,50,50,50h36.9H131c27.5,0,50-22.5,50-50V112.5c0-7.5-2.2-9.4-5.2-15.8L174,92.2z"/>
	<g>
		<rect x="25.2" y="165.8" class="st2" width="141.3" height="68.1"/>
		<text transform="matrix(1 0 0 1 48.6955 213.7533)" class="st3 st4 st5">pH 7</text>
	</g>
</g>
</svg>
