<?xml version="1.0" encoding="utf-8"?>
<!-- Generator: Adobe Illustrator 19.2.1, SVG Export Plug-In . SVG Version: 6.00 Build 0)  -->
<svg version="1.1" id="Layer_1" xmlns="http://www.w3.org/2000/svg" xmlns:xlink="http://www.w3.org/1999/xlink" x="0px" y="0px"
	 viewBox="0 0 191.7 363.7" style="enable-background:new 0 0 191.7 363.7;" xml:space="preserve">
<style type="text/css">
	.st0{fill:none;stroke:#686868;stroke-miterlimit:10;}
	.st1{fill:#FFFFFF;stroke:#686868;stroke-miterlimit:10;}
	.st2{font-family:'HelveticaNeue-Medium';}
	.st3{font-size:24px;}
</style>
<g>
	<path class="st0" d="M174,186.6c-3.1-3.6-1.8-8.9-1.8-14.1l0,0l1.2-0.2c4.2,0,7.7-3.5,7.7-7.7s-3.4-7.7-7.7-7.7H131H94.2H57.3H15
		c-4.2,0-7.7,3.5-7.7,7.7c0,4.2,3.4,7.7,7.7,7.7l1.2,0.2l0,0c0,5.1,1.3,10.5-1.8,14.1l-1.8,4.5c-3,6.4-5.2,8.4-5.2,15.8v106.4
		c0,27.5,22.5,50,50,50h36.9H131c27.5,0,50-22.5,50-50V206.9c0-7.5-2.2-9.4-5.2-15.8L174,186.6z"/>
</g>
<rect x="20.2" y="233" class="st1" width="148" height="67"/>
<text transform="matrix(1 0 0 1 59.3043 274.525)" class="st2 st3">Waste</text>
</svg>
