<?xml version="1.0" encoding="utf-8"?>
<!-- Generator: Adobe Illustrator 19.2.1, SVG Export Plug-In . SVG Version: 6.00 Build 0)  -->
<svg version="1.1" id="Layer_1" xmlns="http://www.w3.org/2000/svg" xmlns:xlink="http://www.w3.org/1999/xlink" x="0px" y="0px"
	 viewBox="0 0 244.7 445" style="enable-background:new 0 0 244.7 445;" xml:space="preserve">
<style type="text/css">
	.st0{fill:#DBD8D1;}
	.st1{fill:#868586;stroke:#7D7D7D;stroke-miterlimit:10;}
	.st2{fill:#B1AD8A;}
	.st3{fill:none;stroke:#2A4A90;stroke-miterlimit:10;}
	.st4{fill:#415C9E;stroke:#294A90;stroke-miterlimit:10;}
	.st5{fill:#8C8C8C;stroke:#294A90;stroke-miterlimit:10;}
	.st6{fill:#2A4A90;}
	.st7{font-family:'HelveticaNeue-Medium';}
	.st8{font-size:7.4351px;}
	.st9{fill:#D1D3D4;}
	.st10{font-family:'HelveticaNeue-Bold';}
	.st11{font-size:14.0007px;}
	.st12{fill:none;stroke:#D1D3D4;stroke-miterlimit:10;}
	.st13{font-size:10px;}
	.st14{fill:#414042;}
	.st15{font-size:17px;}
	.st16{display:none;fill:#414042;}
	.st17{display:none;enable-background:new    ;}
	.st18{font-family:'DigitalDismay';}
	.st19{font-size:40.1011px;}
	.st20{font-size:21.0911px;}
	.st21{font-size:17.2644px;}
	.st22{display:none;}
	.st23{font-size:5.8895px;}
	.st24{font-size:9px;}
</style>
<path class="st0" d="M0,32.3c0,0,122.3-72.6,244.7,0c0,61.7,0,412.7,0,412.7H0V32.3z"/>
<path class="st1" d="M238,365c0,0-115.6,53.3-231.3,0c0-45.3,0-303.3,0-303.3H238V365z"/>
<rect x="65" y="131.3" class="st2" width="114.8" height="104.8"/>
<g>
	<g>
		<line class="st3" x1="6.7" y1="305.3" x2="238" y2="305.3"/>
		<circle class="st4" cx="199.7" cy="305.3" r="14.8"/>
		<circle class="st5" cx="149.1" cy="305.3" r="14.8"/>
		<circle class="st5" cx="98.5" cy="305.3" r="14.8"/>
		<circle class="st5" cx="47.9" cy="305.3" r="14.8"/>
	</g>
	<text transform="matrix(1 0 0 1 36.1701 284.5816)" class="st6 st7 st8">pH/mV</text>
	<text transform="matrix(1 0 0 1 77.9314 284.582)" class="st9 st7 st8">Standardize</text>
	<text transform="matrix(1 0 0 1 138.979 284.5823)" class="st9 st7 st8">Setup</text>
	<text transform="matrix(1 0 0 1 190.589 284.5823)" class="st9 st7 st8">Enter</text>
</g>
<g>
	<text transform="matrix(1 0 0 1 88.1768 103.2804)" class="st9 st10 st11">TLL Scientific</text>
	<g>
		<polygon class="st9" points="80.4,94.7 79.4,93.7 72.8,100.4 69.9,97.5 69,98.5 72.8,102.3 72.8,102.3 72.8,102.3 		"/>
		<polygon class="st12" points="70.1,105.9 65.5,98 70.1,90.1 79.3,90.1 83.8,98 79.3,105.9 		"/>
	</g>
</g>
<g>
	<polygon class="st9" points="97.2,345.9 122.3,370.7 147.5,345.9 	"/>
	<text transform="matrix(1 0 0 1 103.7853 343.418)" class="st9 st7 st13">PRECIN</text>
	<text transform="matrix(1 0 0 1 96.6877 359.7884)" class="st14 st7 st15">BASIC</text>
</g>
<path class="st16" d="M86.2,135.9v16h16v-16H86.2z M98.6,147.6c-0.2,0.4-0.5,0.8-0.9,1.1s-0.9,0.6-1.5,0.7c-0.6,0.2-1.2,0.3-2,0.3
	c-0.6,0-1.2-0.1-1.8-0.2c-0.6-0.2-1.1-0.4-1.5-0.7s-0.8-0.7-1.1-1.2c-0.3-0.5-0.4-1.1-0.4-1.8h2.4c0,0.4,0.1,0.7,0.2,1
	s0.3,0.5,0.5,0.6c0.2,0.2,0.5,0.3,0.8,0.4c0.3,0.1,0.6,0.1,0.9,0.1c0.2,0,0.5,0,0.7-0.1c0.2,0,0.5-0.1,0.7-0.2
	c0.2-0.1,0.4-0.2,0.5-0.4s0.2-0.4,0.2-0.7s-0.1-0.5-0.3-0.7c-0.2-0.2-0.4-0.3-0.8-0.5c-0.3-0.1-0.7-0.2-1.1-0.3s-0.8-0.2-1.2-0.3
	c-0.4-0.1-0.8-0.2-1.2-0.4c-0.4-0.2-0.8-0.3-1.1-0.6c-0.3-0.2-0.6-0.5-0.8-0.9c-0.2-0.4-0.3-0.8-0.3-1.3c0-0.6,0.1-1.1,0.4-1.5
	c0.2-0.4,0.6-0.8,1-1.1s0.8-0.5,1.3-0.6s1-0.2,1.5-0.2c0.6,0,1.1,0.1,1.7,0.2c0.5,0.1,1,0.3,1.4,0.6s0.7,0.7,1,1.1
	c0.2,0.5,0.4,1,0.4,1.6h-2.4c0-0.3-0.1-0.6-0.2-0.8s-0.3-0.4-0.5-0.5s-0.4-0.2-0.7-0.3c-0.3-0.1-0.5-0.1-0.8-0.1
	c-0.2,0-0.4,0-0.6,0.1c-0.2,0-0.4,0.1-0.5,0.2c-0.2,0.1-0.3,0.2-0.4,0.4s-0.2,0.4-0.2,0.6c0,0.2,0,0.4,0.1,0.5s0.2,0.3,0.5,0.4
	c0.2,0.1,0.6,0.2,1,0.3s1,0.3,1.7,0.4c0.2,0,0.5,0.1,0.9,0.2c0.4,0.1,0.7,0.3,1.1,0.5s0.7,0.6,0.9,1c0.3,0.4,0.4,0.9,0.4,1.5
	C98.9,146.7,98.8,147.2,98.6,147.6z"/>
<text transform="matrix(1 0 0 1 87.1006 197.2175)" class="st17 st18 st19">6.75</text>
<text transform="matrix(1 0 0 1 119.3654 151.3982)" class="st17 st18 st20">21.8</text>
<text transform="matrix(1 0 0 1 163.3654 150.2913)" class="st17 st7 st21">C</text>
<path class="st22" d="M162.6,135.4c-1.4,0-2.5,1.1-2.5,2.5s1.1,2.5,2.5,2.5s2.5-1.1,2.5-2.5C165.1,136.6,164,135.4,162.6,135.4z
	 M162.6,139.1c-0.6,0-1.1-0.5-1.1-1.1s0.5-1.1,1.1-1.1s1.1,0.5,1.1,1.1S163.3,139.1,162.6,139.1z"/>
<text transform="matrix(1 0 0 1 71.0549 218.3108)" class="st17 st10 st23">Measuring</text>
<text transform="matrix(1 0 0 1 78.1535 225.1851)" class="st17 st10 st23">4   7</text>
<text transform="matrix(1 0 0 1 142.3 166.3108)" class="st17 st10 st24">pH</text>
</svg>
