<?xml version="1.0" encoding="utf-8"?>
<!-- Generator: Adobe Illustrator 19.2.1, SVG Export Plug-In . SVG Version: 6.00 Build 0)  -->
<svg version="1.1" id="Layer_1" xmlns="http://www.w3.org/2000/svg" xmlns:xlink="http://www.w3.org/1999/xlink" x="0px" y="0px"
	 viewBox="0 0 132 223.9" style="enable-background:new 0 0 132 223.9;" xml:space="preserve">
<style type="text/css">
	.st0{stroke:#303030;stroke-width:2;}
	.st1{stroke:#303030;}
	.st2{fill:#181818;stroke:#303030;}
</style>
<path class="st0" d="M110.6,223.9H21.9c-11.8,0-21.4-9.6-21.4-21.4V21.9c0-11.8,9.6-21.4,21.4-21.4h88.7c11.8,0,21.4,9.6,21.4,21.4
	v180.6C132,214.3,122.4,223.9,110.6,223.9z"/>
<path class="st1" d="M76.6,27.8H57.3c-0.8,0-1.4-0.6-1.4-1.4v-2.1c0-0.8,0.6-1.4,1.4-1.4h19.3c0.8,0,1.4,0.6,1.4,1.4v2.1
	C78,27.2,77.4,27.8,76.6,27.8z"/>
<circle class="st1" cx="67" cy="12.9" r="3"/>
<circle class="st1" cx="66" cy="203" r="10"/>
<rect x="10" y="38.4" class="st2" width="111.9" height="147.1"/>
</svg>
