<?xml version="1.0" encoding="utf-8"?>
<!-- Generator: Adobe Illustrator 19.2.1, SVG Export Plug-In . SVG Version: 6.00 Build 0)  -->
<svg version="1.1" id="Layer_1" xmlns="http://www.w3.org/2000/svg" xmlns:xlink="http://www.w3.org/1999/xlink" x="0px" y="0px"
	 viewBox="0 0 445 93.3" style="enable-background:new 0 0 445 93.3;" xml:space="preserve">
<style type="text/css">
	.st0{fill:#2E3E95;stroke:#020202;stroke-width:3.9705;stroke-linecap:round;stroke-linejoin:round;}
	.st1{fill:#E7E5E4;stroke:#020202;stroke-width:3.9705;stroke-linecap:round;stroke-linejoin:round;}
	.st2{fill:url(#rect6600_2_);stroke:#020202;stroke-width:3.9705;stroke-linecap:round;stroke-linejoin:round;}
	.st3{fill:url(#rect6602_2_);stroke:#020202;stroke-width:3.9705;stroke-linecap:round;stroke-linejoin:round;}
	.st4{fill:url(#rect6604_2_);stroke:#020202;stroke-width:3.9705;stroke-linecap:round;stroke-linejoin:round;}
	.st5{fill:url(#rect6606_2_);stroke:#020202;stroke-width:3.9705;stroke-linecap:round;stroke-linejoin:round;}
	.st6{fill:url(#rect6608_2_);stroke:#020202;stroke-width:3.9705;stroke-linecap:round;stroke-linejoin:round;}
	.st7{fill:url(#rect6610_2_);stroke:#020202;stroke-width:3.9705;stroke-linecap:round;stroke-linejoin:round;}
	.st8{fill:url(#rect6612_2_);stroke:#020202;stroke-width:3.9705;stroke-linecap:round;stroke-linejoin:round;}
	.st9{fill:url(#rect6614_2_);stroke:#020202;stroke-width:3.9705;stroke-linecap:round;stroke-linejoin:round;}
	.st10{fill:url(#rect1307_2_);stroke:#020202;stroke-width:3.9705;stroke-linecap:round;stroke-linejoin:round;}
	.st11{fill:url(#rect2182_2_);stroke:#020202;stroke-width:3.9705;stroke-linecap:round;stroke-linejoin:round;}
	.st12{fill:url(#rect2184_2_);stroke:#020202;stroke-width:3.9705;stroke-linecap:round;stroke-linejoin:round;}
	.st13{fill:url(#rect2186_2_);stroke:#020202;stroke-width:3.9705;stroke-linecap:round;stroke-linejoin:round;}
	.st14{fill:url(#rect3061_3_);stroke:#020202;stroke-width:3.9705;stroke-linecap:round;stroke-linejoin:round;}
	.st15{fill:none;stroke:#908F8E;stroke-width:2;stroke-linecap:round;stroke-linejoin:round;}
	.st16{fill:url(#rect11166_21_);}
	.st17{fill:url(#rect11166_22_);}
	.st18{fill:url(#rect11166_23_);}
	.st19{fill:url(#rect11166_24_);}
	.st20{fill:url(#rect11166_25_);}
	.st21{fill:url(#rect11166_26_);}
	.st22{fill:url(#rect11166_27_);}
	.st23{fill:url(#rect11166_28_);}
	.st24{fill:url(#rect11166_29_);}
	.st25{fill:url(#rect11166_30_);}
	.st26{fill:url(#rect11166_31_);}
	.st27{fill:url(#rect11166_32_);}
	.st28{fill:url(#rect11166_33_);}
	.st29{fill:url(#rect11166_34_);}
	.st30{fill:url(#rect11166_35_);}
	.st31{fill:url(#rect11166_36_);}
	.st32{fill:url(#rect11166_37_);}
	.st33{fill:url(#rect11166_38_);}
	.st34{fill:url(#rect11166_39_);}
	.st35{fill:url(#rect11166_40_);}
	.st36{fill:none;stroke:#020202;stroke-width:3.9705;stroke-linecap:round;stroke-linejoin:round;}
</style>
<g>
	<g>
		<path id="rect7551_1_" class="st0" d="M2,56.3l0-14.4l0-14.4l4.3-8.2l7.9-4.6l0,27.9l0,27.9L6,65.3L2,56.3z"/>
		<g id="g7540_1_">
			<path id="rect6598_1_" class="st1" d="M15.5,55.3l0-25.7l41.5,0l0,25.7L15.5,55.3L15.5,55.3z"/>
			
				<linearGradient id="rect6600_2_" gradientUnits="userSpaceOnUse" x1="189.3635" y1="-220.7976" x2="190.016" y2="-220.7976" gradientTransform="matrix(-2.313759e-05 -3.2538 11.2185 -5.844534e-05 2496.343 670.0854)">
				<stop  offset="0" style="stop-color:#E7E5E4"/>
				<stop  offset="1" style="stop-color:#B9BBBA;stop-opacity:0.7374"/>
			</linearGradient>
			<path id="rect6600_1_" class="st2" d="M15.8,53.9l0-2l7,0l0,2L15.8,53.9z"/>
			
				<linearGradient id="rect6602_2_" gradientUnits="userSpaceOnUse" x1="188.8118" y1="-220.7974" x2="189.4634" y2="-220.7974" gradientTransform="matrix(-2.313759e-05 -3.2538 11.2185 -5.844534e-05 2496.3403 665.2957)">
				<stop  offset="0" style="stop-color:#E7E5E4"/>
				<stop  offset="1" style="stop-color:#B9BBBA;stop-opacity:0.7374"/>
			</linearGradient>
			<path id="rect6602_1_" class="st3" d="M15.8,50.9l0-2l7,0l0,2L15.8,50.9z"/>
			
				<linearGradient id="rect6604_2_" gradientUnits="userSpaceOnUse" x1="188.2702" y1="-220.8224" x2="188.9217" y2="-220.8224" gradientTransform="matrix(1.102933e-05 -3.2539 11.2185 -5.844534e-05 2496.6155 660.5428)">
				<stop  offset="0" style="stop-color:#E7E5E4"/>
				<stop  offset="1" style="stop-color:#B9BBBA;stop-opacity:0.7374"/>
			</linearGradient>
			<path id="rect6604_1_" class="st4" d="M15.8,47.9l0-2l7,0l0,2L15.8,47.9z"/>
			
				<linearGradient id="rect6606_2_" gradientUnits="userSpaceOnUse" x1="187.7169" y1="-220.8222" x2="188.3689" y2="-220.8222" gradientTransform="matrix(1.102933e-05 -3.2539 11.2185 -5.844534e-05 2496.6128 655.7531)">
				<stop  offset="0" style="stop-color:#E7E5E4"/>
				<stop  offset="1" style="stop-color:#B9BBBA;stop-opacity:0.7374"/>
			</linearGradient>
			<path id="rect6606_1_" class="st5" d="M15.8,44.9l0-2l7,0l0,2L15.8,44.9z"/>
			
				<linearGradient id="rect6608_2_" gradientUnits="userSpaceOnUse" x1="187.1594" y1="-220.7973" x2="187.8101" y2="-220.7973" gradientTransform="matrix(-2.313759e-05 -3.2538 11.2185 -5.844534e-05 2496.3398 650.9291)">
				<stop  offset="0" style="stop-color:#E7E5E4"/>
				<stop  offset="1" style="stop-color:#B9BBBA;stop-opacity:0.7374"/>
			</linearGradient>
			<path id="rect6608_1_" class="st6" d="M15.8,41.9l0-2l7,0l0,2L15.8,41.9z"/>
			
				<linearGradient id="rect6610_2_" gradientUnits="userSpaceOnUse" x1="186.6159" y1="-220.8225" x2="187.2666" y2="-220.8225" gradientTransform="matrix(1.102933e-05 -3.2539 11.2185 -5.844534e-05 2496.615 646.1762)">
				<stop  offset="0" style="stop-color:#E7E5E4"/>
				<stop  offset="1" style="stop-color:#B9BBBA;stop-opacity:0.7374"/>
			</linearGradient>
			<path id="rect6610_1_" class="st7" d="M15.8,38.9l0-2l7,0l0,2L15.8,38.9z"/>
			
				<linearGradient id="rect6612_2_" gradientUnits="userSpaceOnUse" x1="186.0641" y1="-220.8222" x2="186.7151" y2="-220.8222" gradientTransform="matrix(1.102933e-05 -3.2539 11.2185 -5.844534e-05 2496.6123 641.3865)">
				<stop  offset="0" style="stop-color:#E7E5E4"/>
				<stop  offset="1" style="stop-color:#B9BBBA;stop-opacity:0.7374"/>
			</linearGradient>
			<path id="rect6612_1_" class="st8" d="M15.8,35.9l0-2l7,0l0,2L15.8,35.9z"/>
			
				<linearGradient id="rect6614_2_" gradientUnits="userSpaceOnUse" x1="185.5114" y1="-220.822" x2="186.1631" y2="-220.822" gradientTransform="matrix(1.102933e-05 -3.2539 11.2185 -5.844534e-05 2496.6096 636.5967)">
				<stop  offset="0" style="stop-color:#E7E5E4"/>
				<stop  offset="1" style="stop-color:#B9BBBA;stop-opacity:0.7374"/>
			</linearGradient>
			<path id="rect6614_1_" class="st9" d="M15.8,32.9l0-2l7,0l0,2L15.8,32.9L15.8,32.9z"/>
		</g>
		<title>Layer 1</title>
	</g>
	<g>
		
			<linearGradient id="rect1307_2_" gradientUnits="userSpaceOnUse" x1="-65.6444" y1="-372.2044" x2="-67.0303" y2="-372.2044" gradientTransform="matrix(3.356985e-05 -19.703 -62.7448 2.145451e-05 -22926.6738 -1260.4421)">
			<stop  offset="0" style="stop-color:#E7E5E4"/>
			<stop  offset="1" style="stop-color:#898683"/>
		</linearGradient>
		<polygon id="rect1307_1_" class="st10" points="411.4,37.9 411.4,28 443,28 443,37.9 		"/>
		
			<linearGradient id="rect2182_2_" gradientUnits="userSpaceOnUse" x1="-77.1435" y1="-375.1024" x2="-77.9815" y2="-375.1024" gradientTransform="matrix(-5.654191e-06 -36.899 -168.9544 -4.973088e-06 -63001.3008 -2813.5764)">
			<stop  offset="0" style="stop-color:#E7E5E4"/>
			<stop  offset="1" style="stop-color:#898683"/>
		</linearGradient>
		<polygon id="rect2182_1_" class="st11" points="331.4,42.3 331.4,23.7 416.4,23.7 416.4,42.3 		"/>
		
			<linearGradient id="rect2184_2_" gradientUnits="userSpaceOnUse" x1="-82.041" y1="-372.4528" x2="-82.7616" y2="-372.1197" gradientTransform="matrix(3.555189e-05 -58.882 -40.9284 -2.948645e-05 -14916.7861 -4799.3804)">
			<stop  offset="0" style="stop-color:#E7E5E4"/>
			<stop  offset="1" style="stop-color:#898683"/>
		</linearGradient>
		<polygon id="rect2184_1_" class="st12" points="316.3,47.8 316.3,18.2 336.9,18.2 336.9,47.8 		"/>
		
			<linearGradient id="rect2186_2_" gradientUnits="userSpaceOnUse" x1="-83.3213" y1="-375.3456" x2="-83.9566" y2="-375.3456" gradientTransform="matrix(2.311151e-05 -69.5071 -122.7106 1.850312e-05 -45772.3555 -5758.416)">
			<stop  offset="0" style="stop-color:#E7E5E4"/>
			<stop  offset="1" style="stop-color:#898683"/>
		</linearGradient>
		<polygon id="rect2186_1_" class="st13" points="255.7,50.5 255.7,15.5 317.4,15.5 317.4,50.5 		"/>
		
			<linearGradient id="rect3061_3_" gradientUnits="userSpaceOnUse" x1="-87.8451" y1="-376.3444" x2="-88.2897" y2="-376.3444" gradientTransform="matrix(5.018578e-05 -213.2016 -422.9696 -2.268797e-05 -159029.5 -18708.6328)">
			<stop  offset="0" style="stop-color:#E7E5E4"/>
			<stop  offset="1" style="stop-color:#898683"/>
		</linearGradient>
		<path id="rect3061_2_" class="st14" d="M46.6,71.5c0.1,10.7-1.7,7.3,2.5,13.7c0.5,1.9,14.3,9.4,13.6,4.7
			C58.4,68.5,73.1,56,83,56.8l176.2-6.3l0-35L64.7,2L46.3,6.2l0,27.3C46.3,33.5,46.5,60.8,46.6,71.5z"/>
		<line class="st15" x1="57.3" y1="88.3" x2="57.3" y2="5.5"/>
		
			<linearGradient id="rect11166_21_" gradientUnits="userSpaceOnUse" x1="-84.9969" y1="-383.593" x2="-85.0104" y2="-383.101" gradientTransform="matrix(18.055 -96.6137 -14.1411 -2.6427 -3793.0562 -9195.3271)">
			<stop  offset="0" style="stop-color:#E7E5E4"/>
			<stop  offset="1" style="stop-color:#AEAEAE"/>
		</linearGradient>
		<path id="rect11166_1_" class="st16" d="M85,55.5L94.2,5l7.1,0.6l-9.1,49.9L85,55.5z"/>
		
			<linearGradient id="rect11166_22_" gradientUnits="userSpaceOnUse" x1="-84.9835" y1="-384.0822" x2="-84.9972" y2="-383.5834" gradientTransform="matrix(18.055 -96.6137 -14.1411 -2.6427 -3793.0562 -9195.3271)">
			<stop  offset="0" style="stop-color:#E7E5E4"/>
			<stop  offset="1" style="stop-color:#AEAEAE"/>
		</linearGradient>
		<path id="rect11166_2_" class="st17" d="M92.1,55.5L101.2,5l7.1,0.6l-9,49.9L92.1,55.5z"/>
		
			<linearGradient id="rect11166_23_" gradientUnits="userSpaceOnUse" x1="-84.9704" y1="-384.5618" x2="-84.9839" y2="-384.07" gradientTransform="matrix(18.055 -96.6137 -14.1411 -2.6427 -3793.0562 -9195.3271)">
			<stop  offset="0" style="stop-color:#E7E5E4"/>
			<stop  offset="1" style="stop-color:#AEAEAE"/>
		</linearGradient>
		<path id="rect11166_4_" class="st18" d="M99.3,55.5L108.3,5l7.1,0.6l-9.1,49.9L99.3,55.5z"/>
		
			<linearGradient id="rect11166_24_" gradientUnits="userSpaceOnUse" x1="-84.9573" y1="-385.0432" x2="-84.9707" y2="-384.5512" gradientTransform="matrix(18.055 -96.6137 -14.1411 -2.6427 -3793.0562 -9195.3271)">
			<stop  offset="0" style="stop-color:#E7E5E4"/>
			<stop  offset="1" style="stop-color:#AEAEAE"/>
		</linearGradient>
		<path id="rect11166_3_" class="st19" d="M106.2,55.5L115.4,5l7.1,0.6l-9.1,49.9L106.2,55.5z"/>
		
			<linearGradient id="rect11166_25_" gradientUnits="userSpaceOnUse" x1="-84.9444" y1="-385.513" x2="-84.9578" y2="-385.0219" gradientTransform="matrix(18.055 -96.6137 -14.1411 -2.6427 -3793.0562 -9195.3271)">
			<stop  offset="0" style="stop-color:#E7E5E4"/>
			<stop  offset="1" style="stop-color:#AEAEAE"/>
		</linearGradient>
		<path id="rect11166_8_" class="st20" d="M113.1,55.5L122.3,5l7.1,0.6l-9.1,49.9L113.1,55.5z"/>
		
			<linearGradient id="rect11166_26_" gradientUnits="userSpaceOnUse" x1="-84.9387" y1="-385.9954" x2="-84.9522" y2="-385.5037" gradientTransform="matrix(18.055 -96.6137 -14.1411 -2.6427 -3793.0562 -9195.3271)">
			<stop  offset="0" style="stop-color:#E7E5E4"/>
			<stop  offset="1" style="stop-color:#AEAEAE"/>
		</linearGradient>
		<path id="rect11166_7_" class="st21" d="M120.2,55.5l8.9-49l7.1,0.6l-8.8,48.5L120.2,55.5z"/>
		
			<linearGradient id="rect11166_27_" gradientUnits="userSpaceOnUse" x1="-84.9283" y1="-386.4826" x2="-84.9417" y2="-385.9919" gradientTransform="matrix(18.055 -96.6137 -14.1411 -2.6427 -3793.0562 -9195.3271)">
			<stop  offset="0" style="stop-color:#E7E5E4"/>
			<stop  offset="1" style="stop-color:#AEAEAE"/>
		</linearGradient>
		<path id="rect11166_6_" class="st22" d="M127.3,55.5L136.1,7l7.1,0.4l-8.7,48.1L127.3,55.5z"/>
		
			<linearGradient id="rect11166_28_" gradientUnits="userSpaceOnUse" x1="-84.9119" y1="-386.9689" x2="-84.9256" y2="-386.471" gradientTransform="matrix(18.055 -96.6137 -14.1411 -2.6427 -3793.0562 -9195.3271)">
			<stop  offset="0" style="stop-color:#E7E5E4"/>
			<stop  offset="1" style="stop-color:#AEAEAE"/>
		</linearGradient>
		<path id="rect11166_5_" class="st23" d="M134.4,54.9L143.1,7l7,0.9l-8.4,46.7L134.4,54.9z"/>
		
			<linearGradient id="rect11166_29_" gradientUnits="userSpaceOnUse" x1="-84.9024" y1="-387.4377" x2="-84.9154" y2="-386.9611" gradientTransform="matrix(18.055 -96.6137 -14.1411 -2.6427 -3793.0562 -9195.3271)">
			<stop  offset="0" style="stop-color:#E7E5E4"/>
			<stop  offset="1" style="stop-color:#AEAEAE"/>
		</linearGradient>
		<path id="rect11166_12_" class="st24" d="M141.7,54.6l8.4-46.7l6.9,0.4l-8.6,46L141.7,54.6z"/>
		
			<linearGradient id="rect11166_30_" gradientUnits="userSpaceOnUse" x1="-84.8877" y1="-387.924" x2="-84.9015" y2="-387.4232" gradientTransform="matrix(18.055 -96.6137 -14.1411 -2.6427 -3793.0562 -9195.3271)">
			<stop  offset="0" style="stop-color:#E7E5E4"/>
			<stop  offset="1" style="stop-color:#AEAEAE"/>
		</linearGradient>
		<path id="rect11166_11_" class="st25" d="M148.4,54.4L157,7.9l7,1l-8.2,45.3L148.4,54.4z"/>
		
			<linearGradient id="rect11166_31_" gradientUnits="userSpaceOnUse" x1="-84.8783" y1="-388.4084" x2="-84.8915" y2="-387.9211" gradientTransform="matrix(18.055 -96.6137 -14.1411 -2.6427 -3793.0562 -9195.3271)">
			<stop  offset="0" style="stop-color:#E7E5E4"/>
			<stop  offset="1" style="stop-color:#AEAEAE"/>
		</linearGradient>
		<path id="rect11166_10_" class="st26" d="M155.8,54.2L164,8.9l7,0.5l-8.2,44.5L155.8,54.2z"/>
		
			<linearGradient id="rect11166_32_" gradientUnits="userSpaceOnUse" x1="-84.8661" y1="-388.8918" x2="-84.8793" y2="-388.406" gradientTransform="matrix(18.055 -96.6137 -14.1411 -2.6427 -3793.0562 -9195.3271)">
			<stop  offset="0" style="stop-color:#E7E5E4"/>
			<stop  offset="1" style="stop-color:#AEAEAE"/>
		</linearGradient>
		<path id="rect11166_9_" class="st27" d="M162.9,53.9L171,9.4l6.9,0.7L170,53.6L162.9,53.9z"/>
		
			<linearGradient id="rect11166_33_" gradientUnits="userSpaceOnUse" x1="-84.8554" y1="-389.3733" x2="-84.8686" y2="-388.8899" gradientTransform="matrix(18.055 -96.6137 -14.1411 -2.6427 -3793.0562 -9195.3271)">
			<stop  offset="0" style="stop-color:#E7E5E4"/>
			<stop  offset="1" style="stop-color:#AEAEAE"/>
		</linearGradient>
		<path id="rect11166_16_" class="st28" d="M170,53.6l7.9-43.6l6.8,0.2l-7.7,43.1L170,53.6z"/>
		
			<linearGradient id="rect11166_34_" gradientUnits="userSpaceOnUse" x1="-84.8421" y1="-389.8605" x2="-84.8558" y2="-389.3594" gradientTransform="matrix(18.055 -96.6137 -14.1411 -2.6427 -3793.0562 -9195.3271)">
			<stop  offset="0" style="stop-color:#E7E5E4"/>
			<stop  offset="1" style="stop-color:#AEAEAE"/>
		</linearGradient>
		<path id="rect11166_15_" class="st29" d="M177.1,53.4l7.7-43.1l7.2,0.6l-7.7,42.2L177.1,53.4z"/>
		
			<linearGradient id="rect11166_35_" gradientUnits="userSpaceOnUse" x1="-84.8307" y1="-390.3605" x2="-84.8445" y2="-389.8571" gradientTransform="matrix(18.055 -96.6137 -14.1411 -2.6427 -3793.0562 -9195.3271)">
			<stop  offset="0" style="stop-color:#E7E5E4"/>
			<stop  offset="1" style="stop-color:#AEAEAE"/>
		</linearGradient>
		<path id="rect11166_14_" class="st30" d="M184.3,53.2l7.7-42.2l6.8,0.3l-7.1,41.6L184.3,53.2z"/>
		
			<linearGradient id="rect11166_36_" gradientUnits="userSpaceOnUse" x1="-84.8179" y1="-390.8284" x2="-84.8316" y2="-390.3287" gradientTransform="matrix(18.055 -96.6137 -14.1411 -2.6427 -3793.0562 -9195.3271)">
			<stop  offset="0" style="stop-color:#E7E5E4"/>
			<stop  offset="1" style="stop-color:#AEAEAE"/>
		</linearGradient>
		<path id="rect11166_13_" class="st31" d="M191.7,52.9l7.1-41.6l6.9,0.1l-7.2,41.2L191.7,52.9z"/>
		
			<linearGradient id="rect11166_37_" gradientUnits="userSpaceOnUse" x1="-84.8047" y1="-391.2874" x2="-84.8181" y2="-390.8026" gradientTransform="matrix(18.055 -96.6137 -14.1411 -2.6427 -3793.0562 -9195.3271)">
			<stop  offset="0" style="stop-color:#E7E5E4"/>
			<stop  offset="1" style="stop-color:#AEAEAE"/>
		</linearGradient>
		<path id="rect11166_20_" class="st32" d="M198.5,52.6l7.2-41.2l6.9,0.8l-7.4,40.2L198.5,52.6z"/>
		
			<linearGradient id="rect11166_38_" gradientUnits="userSpaceOnUse" x1="-84.7949" y1="-391.7658" x2="-84.808" y2="-391.2865" gradientTransform="matrix(18.055 -96.6137 -14.1411 -2.6427 -3793.0562 -9195.3271)">
			<stop  offset="0" style="stop-color:#E7E5E4"/>
			<stop  offset="1" style="stop-color:#AEAEAE"/>
		</linearGradient>
		<path id="rect11166_19_" class="st33" d="M205.3,52.4l7.4-40.2l6.9,0.5L212,52.1L205.3,52.4z"/>
		
			<linearGradient id="rect11166_39_" gradientUnits="userSpaceOnUse" x1="-84.7823" y1="-392.2582" x2="-84.7963" y2="-391.7436" gradientTransform="matrix(18.055 -96.6137 -14.1411 -2.6427 -3793.0562 -9195.3271)">
			<stop  offset="0" style="stop-color:#E7E5E4"/>
			<stop  offset="1" style="stop-color:#AEAEAE"/>
		</linearGradient>
		<path id="rect11166_18_" class="st34" d="M212,52.1l7.5-39.3l7.1,0.5l-7.1,38.8L212,52.1z"/>
		
			<linearGradient id="rect11166_40_" gradientUnits="userSpaceOnUse" x1="-84.7715" y1="-392.7365" x2="-84.7848" y2="-392.2552" gradientTransform="matrix(18.055 -96.6137 -14.1411 -2.6427 -3793.0562 -9195.3271)">
			<stop  offset="0" style="stop-color:#E7E5E4"/>
			<stop  offset="1" style="stop-color:#AEAEAE"/>
		</linearGradient>
		<path id="rect11166_17_" class="st35" d="M219.5,52.1l7.1-38.8l6.9,0.5l-7.1,37.9L219.5,52.1z"/>
		<path id="rect3061_1_" class="st36" d="M46.6,71.5c0.1,10.7-1.7,7.3,2.5,13.7c0.5,1.9,14.3,9.4,13.6,4.7
			C58.4,68.5,73.1,56,82.5,56.8l176.2-6.3l0.5-35L64.7,2L46.3,6.2l0,27.3C46.3,33.5,46.5,60.8,46.6,71.5z"/>
	</g>
</g>
</svg>
