<?xml version="1.0" encoding="utf-8"?>
<!-- Generator: Adobe Illustrator 19.2.1, SVG Export Plug-In . SVG Version: 6.00 Build 0)  -->
<svg version="1.1" id="Layer_1" xmlns="http://www.w3.org/2000/svg" xmlns:xlink="http://www.w3.org/1999/xlink" x="0px" y="0px"
	 viewBox="0 0 81.2 75.5" style="enable-background:new 0 0 81.2 75.5;" xml:space="preserve">
<style type="text/css">
	.st0{fill:#FFF3CD;stroke:#000000;stroke-miterlimit:10;}
	.st1{fill:#FBF6E9;stroke:#000000;stroke-miterlimit:10;}
	.st2{fill:none;stroke:#010101;stroke-width:0.25;}
	.st3{fill:#767576;}
	.st4{fill:none;stroke:#000000;stroke-width:0.25;stroke-miterlimit:10;}
	.st5{fill:none;stroke:#FF0000;stroke-width:0.25;stroke-miterlimit:10;}
	.st6{fill:#DCD2B0;stroke:#000000;stroke-miterlimit:10;}
	.st7{fill:#F8F0D9;stroke:#000000;stroke-miterlimit:10;}
	.st8{stroke:#000000;stroke-miterlimit:10;}
	.st9{fill:#EB2426;}
	.st10{fill:#BFBFBF;stroke:#000000;stroke-width:0.5;stroke-miterlimit:10;}
	.st11{fill:#696969;stroke:#000000;stroke-width:0.5;stroke-miterlimit:10;}
	.st12{fill:#CEC9C0;stroke:#010101;stroke-width:0.25;stroke-miterlimit:10;}
	.st13{fill:#F9F1DA;}
	.st14{fill:#C6B997;stroke:#C6B997;stroke-width:0.25;stroke-miterlimit:10;}
	.st15{fill:#F9F1DA;stroke:#C6B997;stroke-width:0.25;stroke-miterlimit:10;}
	.st16{fill:#F9F1DA;stroke:#010101;stroke-width:0.25;stroke-miterlimit:10;}
	.st17{fill:none;stroke:#010101;stroke-width:0.25;stroke-miterlimit:10;}
	.st18{fill:#353434;stroke:#000000;stroke-width:0.25;stroke-miterlimit:10;}
	.st19{fill:#BFBFBF;stroke:#000000;stroke-width:0.25;stroke-miterlimit:10;}
	.st20{fill:#696969;stroke:#000000;stroke-width:0.25;stroke-miterlimit:10;}
	.st21{fill:#0C0D0D;stroke:#000000;stroke-width:0.5;stroke-miterlimit:10;}
	.st22{fill:#282827;stroke:#000000;stroke-width:0.5;stroke-miterlimit:10;}
	.st23{fill:none;stroke:#000000;stroke-width:2;stroke-miterlimit:10;}
	.st24{fill:none;stroke:#777777;stroke-miterlimit:10;}
	.st25{fill:none;stroke:#999999;stroke-width:3;stroke-miterlimit:10;}
</style>
<path class="st0" d="M38.3,7.6V68c0,0.7,0.6,1.3,1.3,1.3H47h7.1v-63H47h-2.8h-4.6C38.9,6.3,38.3,6.9,38.3,7.6z"/>
<rect x="41.4" y="25.7" class="st1" width="9.4" height="23.6"/>
<line class="st2" x1="47.1" y1="47.4" x2="46.6" y2="47.9"/>
<line class="st2" x1="45.7" y1="45.7" x2="45.1" y2="46.1"/>
<line class="st2" x1="44.5" y1="43.8" x2="43.9" y2="44.2"/>
<line class="st2" x1="43.7" y1="41.8" x2="43" y2="42"/>
<line class="st2" x1="43.2" y1="39.7" x2="42.5" y2="39.8"/>
<line class="st2" x1="43" y1="37.5" x2="42.3" y2="37.5"/>
<line class="st2" x1="43.2" y1="35.4" x2="42.5" y2="35.3"/>
<line class="st2" x1="43.7" y1="33.3" x2="43" y2="33"/>
<line class="st2" x1="44.5" y1="31.2" x2="43.9" y2="30.9"/>
<line class="st2" x1="45.7" y1="29.4" x2="45.1" y2="29"/>
<line class="st2" x1="47.1" y1="27.7" x2="46.6" y2="27.2"/>
<line class="st2" x1="48.1" y1="28.7" x2="48.5" y2="29.2"/>
<line class="st2" x1="46.7" y1="30.3" x2="47.2" y2="30.7"/>
<line class="st2" x1="45.7" y1="32" x2="46.3" y2="32.3"/>
<line class="st2" x1="45.1" y1="33.5" x2="45.7" y2="33.8"/>
<line class="st2" x1="44.7" y1="35" x2="45.3" y2="35.1"/>
<line class="st2" x1="44.5" y1="36.3" x2="45.1" y2="36.4"/>
<line class="st2" x1="44.4" y1="37.5" x2="45.1" y2="37.5"/>
<line class="st2" x1="44.4" y1="38.6" x2="45.1" y2="38.5"/>
<line class="st2" x1="44.6" y1="39.5" x2="45.2" y2="39.4"/>
<line class="st2" x1="44.7" y1="40.4" x2="45.4" y2="40.2"/>
<line class="st2" x1="44.9" y1="41.1" x2="45.6" y2="40.9"/>
<line class="st2" x1="45.3" y1="42.3" x2="46" y2="42"/>
<line class="st2" x1="45.8" y1="43.2" x2="46.4" y2="42.9"/>
<line class="st2" x1="46.2" y1="43.9" x2="46.7" y2="43.6"/>
<line class="st2" x1="46.5" y1="44.5" x2="47.1" y2="44.1"/>
<line class="st2" x1="46.8" y1="44.9" x2="47.3" y2="44.5"/>
<line class="st2" x1="47.6" y1="45.9" x2="48.1" y2="45.5"/>
<polyline class="st2" points="47.9,46.2 48.4,45.8 49.8,45.8 49.8,45.5 "/>
<polyline class="st2" points="48.1,46.4 48.5,45.9 50.1,45.9 50.1,46.1 "/>
<path class="st3" d="M44.2,37.5c0-3.5,1.4-6.7,3.8-9l-0.7-0.7c-2.5,2.5-4,5.9-4,9.7s1.5,7.2,4,9.7l0.7-0.7
	C45.6,44.3,44.2,41.1,44.2,37.5z"/>
<path class="st4" d="M49,29.7"/>
<path class="st4" d="M47.1,27.7c-2.5,2.5-4.1,6-4.1,9.8s1.6,7.3,4.1,9.8"/>
<path class="st4" d="M49,29.7"/>
<path class="st4" d="M48.1,28.7c-2.3,2.3-3.7,5.4-3.7,8.8c0,3.4,1.4,6.6,3.7,8.8"/>
<line class="st5" x1="51.8" y1="41.5" x2="43.3" y2="47.4"/>
<rect x="67.1" y="1" class="st6" width="13.1" height="73.5"/>
<polygon class="st7" points="67.1,1.1 67.1,74.5 54,69.3 54,6.3 "/>
<g>
	<path class="st8" d="M39.9,61.4h12.6V14.2H39.9V61.4z M50.9,25.7v23.6h-9.4V25.7H50.9z"/>
	<circle class="st9" cx="46.2" cy="55.6" r="0.4"/>
</g>
<g>
	<g>
		<path class="st10" d="M73.6,48.2c2.5,0,4.5,2,4.5,4.5s-2,4.5-4.5,4.5s-4.5-2-4.5-4.5S71.1,48.2,73.6,48.2z"/>
		<circle class="st11" cx="70.7" cy="52.7" r="1.1"/>
	</g>
	<g>
		<path class="st10" d="M73.6,18.4c2.5,0,4.5,2,4.5,4.5s-2,4.5-4.5,4.5s-4.5-2-4.5-4.5S71.1,18.4,73.6,18.4z"/>
		<circle class="st11" cx="70.7" cy="22.9" r="1.1"/>
	</g>
</g>
<g>
	<g>
		<path class="st12" d="M56.2,13.3v13c1.2,1,2.6,1.6,4.2,1.6c1.7,0,3.2-0.7,4.4-1.9V13.2L56.2,13.3L56.2,13.3z"/>
		<g>
			<line class="st2" x1="58.2" y1="27.5" x2="58.4" y2="26.6"/>
			<line class="st2" x1="58.4" y1="27.6" x2="58.5" y2="27.2"/>
			<line class="st2" x1="58.7" y1="27.7" x2="58.9" y2="26.8"/>
			<line class="st2" x1="59" y1="27.7" x2="59.1" y2="27.3"/>
			<line class="st2" x1="59.3" y1="27.8" x2="59.4" y2="26.9"/>
			<line class="st2" x1="59.6" y1="27.8" x2="59.6" y2="27.4"/>
			<line class="st2" x1="59.8" y1="27.9" x2="59.9" y2="27"/>
			<line class="st2" x1="60.1" y1="27.9" x2="60.1" y2="27.5"/>
			<line class="st2" x1="60.4" y1="27.9" x2="60.4" y2="27"/>
			<line class="st2" x1="60.7" y1="27.9" x2="60.6" y2="27.5"/>
			<line class="st2" x1="60.9" y1="27.9" x2="60.9" y2="27"/>
			<line class="st2" x1="61.2" y1="27.8" x2="61.2" y2="27.4"/>
			<line class="st2" x1="61.5" y1="27.8" x2="61.4" y2="26.9"/>
			<line class="st2" x1="61.8" y1="27.7" x2="61.7" y2="27.3"/>
			<line class="st2" x1="62" y1="27.7" x2="61.9" y2="26.8"/>
			<line class="st2" x1="62.3" y1="27.6" x2="62.2" y2="27.2"/>
			<line class="st2" x1="62.6" y1="27.5" x2="62.4" y2="26.6"/>
		</g>
		<path class="st13" d="M55.7,32.5h9.7V12.8h-9.7C55.7,12.8,55.7,32.5,55.7,32.5z M62.7,27c0,1.6-1.1,2.9-2.4,2.9s-2.4-1.3-2.4-2.9
			s1.1-2.9,2.4-2.9C61.7,24.1,62.7,25.4,62.7,27z"/>
		<path class="st12" d="M60.4,27.9c-0.8,0-1.6-0.2-2.3-0.5c0.2,1.4,1.1,2.5,2.3,2.5c1.2,0,2.2-1.1,2.3-2.5
			C62,27.7,61.2,27.9,60.4,27.9z"/>
		<path class="st14" d="M57.1,19.2v7.3c0,2.7,1.8,4.8,4,4.8s3.9-2.2,3.9-4.8v-7.3c0-2.7-1.8-4.8-4-4.8S57.1,16.6,57.1,19.2z
			 M63.4,27c0,1.6-1.1,2.9-2.4,2.9s-2.4-1.3-2.4-2.9c0-1.6,1.1-2.9,2.4-2.9C62.3,24.1,63.4,25.4,63.4,27z"/>
		<path class="st15" d="M56.4,19.2v7.3c0,2.7,1.8,4.8,4,4.8s3.9-2.2,3.9-4.8v-7.3c0-2.7-1.8-4.8-4-4.8S56.4,16.6,56.4,19.2z
			 M62.7,27c0,1.6-1.1,2.9-2.4,2.9s-2.4-1.3-2.4-2.9c0-1.6,1.1-2.9,2.4-2.9C61.7,24.1,62.7,25.4,62.7,27z"/>
		<path class="st16" d="M57.2,19.2c0-2.1,1.4-3.9,3.2-3.9c1.7,0,3.2,1.7,3.2,3.9c0,2.1-1.4,3.9-3.2,3.9
			C58.6,23.1,57.2,21.4,57.2,19.2z"/>
		<line class="st17" x1="60.4" y1="27.9" x2="60.4" y2="29.9"/>
		<path class="st18" d="M60.4,15.3c1.8,0,3.2,1.8,3.2,3.9c0,2.2-1.4,3.9-3.2,3.9c-1.8,0-3.2-1.8-3.2-3.9
			C57.2,17.1,58.6,15.3,60.4,15.3z"/>
		<path class="st19" d="M60,15.3c1.8,0,3.2,1.8,3.2,3.9c0,2.2-1.4,3.9-3.2,3.9c-1.8,0-3.2-1.8-3.2-3.9S58.2,15.3,60,15.3z"/>
		<path class="st20" d="M57.1,19.2c0-0.6,0.4-1,0.8-1c0.4,0,0.8,0.4,0.8,1c0,0.5-0.4,1-0.8,1C57.5,20.2,57.1,19.8,57.1,19.2z"/>
	</g>
</g>
<g>
	<g>
		<path class="st21" d="M64.2,48.8L64.2,48.8h-1v11.4h1h0.2c0.5-0.1,0.8-0.5,0.8-1.1V50C65.2,49.3,64.7,48.8,64.2,48.8z"/>
		<path class="st22" d="M63.2,48.8l-6.6,0.9c-0.5,0.1-0.8,0.6-0.8,1.1v7.3c0,0.6,0.4,1.1,0.8,1.1l6.6,0.9c0.5,0.1,1-0.5,1-1.1v-9.1
			C64.2,49.3,63.7,48.8,63.2,48.8z M61.6,54.5c0,1.3-0.7,2.3-1.6,2.3c-0.9,0-1.6-1-1.6-2.3s0.7-2.3,1.6-2.3
			C60.9,52.2,61.6,53.3,61.6,54.5z"/>
	</g>
	<g>
		<path class="st21" d="M63.3,48.8L63.3,48.8h-0.9v11.4h0.9h0.2c0.4-0.1,0.7-0.5,0.7-1.1V50C64.2,49.3,63.8,48.8,63.3,48.8z"/>
		<path class="st22" d="M63.3,50v9.1c0,0.7-0.4,1.2-0.9,1.1l-5.9-0.9c-0.4-0.1-0.7-0.6-0.7-1.1v-7.3c0-0.6,0.3-1.1,0.7-1.1l5.9-0.9
			C62.9,48.8,63.3,49.3,63.3,50z"/>
	</g>
</g>
<circle class="st23" cx="32.7" cy="37.7" r="4.6"/>
<circle class="st24" cx="30.3" cy="31.3" r="4.6"/>
<circle class="st24" cx="22.6" cy="28.9" r="4.6"/>
<circle class="st25" cx="11.6" cy="23.7" r="10.1"/>
<path class="st23" d="M32.7,42.3c-2.5,0-4.6-2.1-4.6-4.6c0-2.5,2.1-4.6,4.6-4.6"/>
<path class="st24" d="M18,28.9c0-2.5,2.1-4.6,4.6-4.6s4.6,2.1,4.6,4.6"/>
<path class="st23" d="M67.1,1.1L54,6.3h-7h-2.8h-4.6c-0.7,0-1.3,0.6-1.3,1.3V68c0,0.7,0.6,1.3,1.3,1.3H47h7l13.1,5.2h13.1V1H67.1
	V1.1z"/>
</svg>
