<?xml version="1.0" encoding="utf-8"?>
<!-- Generator: Adobe Illustrator 19.2.1, SVG Export Plug-In . SVG Version: 6.00 Build 0)  -->
<svg version="1.1" xmlns="http://www.w3.org/2000/svg" xmlns:xlink="http://www.w3.org/1999/xlink" x="0px" y="0px"
	 viewBox="0 0 345 118.7" style="enable-background:new 0 0 345 118.7;" xml:space="preserve">
<style type="text/css">
	.st0{display:none;}
	.st1{display:inline;fill:#CCCCCC;stroke:#000000;stroke-width:0.8;stroke-miterlimit:10;}
	.st2{fill:#CCCCCC;stroke:#000000;stroke-miterlimit:10;}
	.st3{fill:none;stroke:#000000;stroke-width:0.4214;stroke-miterlimit:10;}
	.st4{fill:none;stroke:#000000;stroke-width:0.3477;stroke-miterlimit:3.864;}
	.st5{fill:none;stroke:#000000;stroke-width:0.3901;stroke-miterlimit:3.864;}
	.st6{fill:none;stroke:#000000;stroke-width:0.4214;stroke-miterlimit:3.864;}
	.st7{font-family:'HelveticaNeue';}
	.st8{font-size:4px;}
	.st9{font-size:6px;}
	.st10{display:inline;}
	.st11{fill:#C8C8C8;}
	.st12{fill:none;stroke:#000000;stroke-width:0.4438;stroke-miterlimit:10;}
	.st13{fill:none;stroke:#000000;stroke-width:0.4438;stroke-linecap:round;stroke-linejoin:round;stroke-miterlimit:10;}
	.st14{fill:none;stroke:#000000;stroke-width:0.317;stroke-miterlimit:3.864;}
	.st15{fill:none;}
	.st16{fill:none;stroke:#000000;stroke-width:0.1902;stroke-miterlimit:10;}
	.st17{fill:none;stroke:#000000;stroke-width:0.1642;stroke-miterlimit:10;}
	.st18{fill:none;stroke:#000000;stroke-width:0.317;stroke-linecap:round;stroke-linejoin:round;stroke-miterlimit:10;}
	.st19{fill:none;stroke:#000000;stroke-width:0.317;stroke-miterlimit:10;}
	.st20{fill:none;stroke:#000000;stroke-width:0.2616;stroke-miterlimit:3.864;}
	.st21{fill:none;stroke:#000000;stroke-width:0.2935;stroke-miterlimit:3.864;}
	.st22{fill:none;stroke:#000000;stroke-width:0.7486;stroke-miterlimit:10;}
</style>
<g id="Back" class="st0">
	<path class="st1" d="M87.9,41.5h256.7c0.7,6.6-11.1,5.8-11.1,5.8H297H87.3"/>
</g>
<g id="Body">
	<g>
		<path class="st2" d="M344.5,56L12.7,56.1l-0.2,6.2l1.2,2.5V63v54.2c0,0-6.5-8.7-7-9.9c0.2-0.1-6.2-43.8-6.2-43.8s0-28.6,0-28.8
			c0-1.8,2.3-2.4,2.3-2.4l10-1.7l1.8-1.6c0.1-1.6-1-8.1-1-8.1V1.2h2.2l12.4,32.4l316.3-0.5V56z"/>
		<g>
			<path class="st3" d="M65.2,56.7"/>
			<line class="st4" x1="62.7" y1="54" x2="62.7" y2="50.8"/>
			<line class="st4" x1="60.7" y1="54" x2="60.7" y2="50.8"/>
			<line class="st4" x1="58.7" y1="54" x2="58.7" y2="50.8"/>
			<line class="st4" x1="56.7" y1="54" x2="56.7" y2="50.8"/>
			<line class="st5" x1="54.7" y1="54" x2="54.7" y2="49.2"/>
			<line class="st4" x1="52.7" y1="54" x2="52.7" y2="50.8"/>
			<line class="st4" x1="50.7" y1="54" x2="50.7" y2="50.8"/>
			<line class="st4" x1="48.7" y1="54" x2="48.7" y2="50.8"/>
			<line class="st4" x1="46.7" y1="54" x2="46.7" y2="50.8"/>
			<line class="st6" x1="44.7" y1="54" x2="44.7" y2="47.6"/>
			<line class="st6" x1="64.7" y1="54" x2="64.7" y2="47.6"/>
			<line class="st4" x1="62.7" y1="54" x2="62.7" y2="50.8"/>
			<line class="st4" x1="60.7" y1="54" x2="60.7" y2="50.8"/>
			<line class="st4" x1="58.7" y1="54" x2="58.7" y2="50.8"/>
			<line class="st4" x1="56.7" y1="54" x2="56.7" y2="50.8"/>
			<line class="st5" x1="54.7" y1="54" x2="54.7" y2="49.2"/>
			<line class="st4" x1="52.7" y1="54" x2="52.7" y2="50.8"/>
			<line class="st4" x1="50.7" y1="54" x2="50.7" y2="50.8"/>
			<line class="st4" x1="48.7" y1="54" x2="48.7" y2="50.8"/>
			<line class="st4" x1="46.7" y1="54" x2="46.7" y2="50.8"/>
			<line class="st6" x1="64.7" y1="54" x2="64.7" y2="47.6"/>
			<text transform="matrix(1 0 0 1 61.5989 50.4427)" class="st7 st8">1</text>
			<line class="st4" x1="82.7" y1="54" x2="82.7" y2="50.8"/>
			<line class="st4" x1="80.7" y1="54" x2="80.7" y2="50.8"/>
			<line class="st4" x1="78.7" y1="54" x2="78.7" y2="50.8"/>
			<line class="st4" x1="76.7" y1="54" x2="76.7" y2="50.8"/>
			<line class="st5" x1="74.7" y1="54" x2="74.7" y2="49.2"/>
			<line class="st4" x1="72.7" y1="54" x2="72.7" y2="50.8"/>
			<line class="st4" x1="70.7" y1="54" x2="70.7" y2="50.8"/>
			<line class="st4" x1="68.7" y1="54" x2="68.7" y2="50.8"/>
			<line class="st4" x1="66.7" y1="54" x2="66.7" y2="50.8"/>
			<line class="st6" x1="84.7" y1="54" x2="84.7" y2="47.6"/>
			<line class="st4" x1="82.7" y1="54" x2="82.7" y2="50.8"/>
			<line class="st4" x1="80.7" y1="54" x2="80.7" y2="50.8"/>
			<line class="st4" x1="78.7" y1="54" x2="78.7" y2="50.8"/>
			<line class="st4" x1="76.7" y1="54" x2="76.7" y2="50.8"/>
			<line class="st5" x1="74.7" y1="54" x2="74.7" y2="49.2"/>
			<line class="st4" x1="72.7" y1="54" x2="72.7" y2="50.8"/>
			<line class="st4" x1="70.7" y1="54" x2="70.7" y2="50.8"/>
			<line class="st4" x1="68.7" y1="54" x2="68.7" y2="50.8"/>
			<line class="st4" x1="66.7" y1="54" x2="66.7" y2="50.8"/>
			<line class="st6" x1="84.7" y1="54" x2="84.7" y2="47.6"/>
			<text transform="matrix(1 0 0 1 81.5989 50.4427)" class="st7 st8">2</text>
			<line class="st4" x1="102.7" y1="54" x2="102.7" y2="50.8"/>
			<line class="st4" x1="100.7" y1="54" x2="100.7" y2="50.8"/>
			<line class="st4" x1="98.7" y1="54" x2="98.7" y2="50.8"/>
			<line class="st4" x1="96.7" y1="54" x2="96.7" y2="50.8"/>
			<line class="st5" x1="94.7" y1="54" x2="94.7" y2="49.2"/>
			<line class="st4" x1="92.7" y1="54" x2="92.7" y2="50.8"/>
			<line class="st4" x1="90.7" y1="54" x2="90.7" y2="50.8"/>
			<line class="st4" x1="88.7" y1="54" x2="88.7" y2="50.8"/>
			<line class="st4" x1="86.7" y1="54" x2="86.7" y2="50.8"/>
			<line class="st6" x1="104.7" y1="54" x2="104.7" y2="47.6"/>
			<line class="st4" x1="102.7" y1="54" x2="102.7" y2="50.8"/>
			<line class="st4" x1="100.7" y1="54" x2="100.7" y2="50.8"/>
			<line class="st4" x1="98.7" y1="54" x2="98.7" y2="50.8"/>
			<line class="st4" x1="96.7" y1="54" x2="96.7" y2="50.8"/>
			<line class="st5" x1="94.7" y1="54" x2="94.7" y2="49.2"/>
			<line class="st4" x1="92.7" y1="54" x2="92.7" y2="50.8"/>
			<line class="st4" x1="90.7" y1="54" x2="90.7" y2="50.8"/>
			<line class="st4" x1="88.7" y1="54" x2="88.7" y2="50.8"/>
			<line class="st4" x1="86.7" y1="54" x2="86.7" y2="50.8"/>
			<line class="st6" x1="104.7" y1="54" x2="104.7" y2="47.6"/>
			<text transform="matrix(1 0 0 1 101.5989 50.4427)" class="st7 st8">3</text>
			<line class="st4" x1="122.7" y1="54" x2="122.7" y2="50.8"/>
			<line class="st4" x1="120.7" y1="54" x2="120.7" y2="50.8"/>
			<line class="st4" x1="118.7" y1="54" x2="118.7" y2="50.8"/>
			<line class="st4" x1="116.7" y1="54" x2="116.7" y2="50.8"/>
			<line class="st5" x1="114.7" y1="54" x2="114.7" y2="49.2"/>
			<line class="st4" x1="112.7" y1="54" x2="112.7" y2="50.8"/>
			<line class="st4" x1="110.7" y1="54" x2="110.7" y2="50.8"/>
			<line class="st4" x1="108.7" y1="54" x2="108.7" y2="50.8"/>
			<line class="st4" x1="106.7" y1="54" x2="106.7" y2="50.8"/>
			<line class="st6" x1="124.7" y1="54" x2="124.7" y2="47.6"/>
			<line class="st4" x1="122.7" y1="54" x2="122.7" y2="50.8"/>
			<line class="st4" x1="120.7" y1="54" x2="120.7" y2="50.8"/>
			<line class="st4" x1="118.7" y1="54" x2="118.7" y2="50.8"/>
			<line class="st4" x1="116.7" y1="54" x2="116.7" y2="50.8"/>
			<line class="st5" x1="114.7" y1="54" x2="114.7" y2="49.2"/>
			<line class="st4" x1="112.7" y1="54" x2="112.7" y2="50.8"/>
			<line class="st4" x1="110.7" y1="54" x2="110.7" y2="50.8"/>
			<line class="st4" x1="108.7" y1="54" x2="108.7" y2="50.8"/>
			<line class="st4" x1="106.7" y1="54" x2="106.7" y2="50.8"/>
			<line class="st6" x1="124.7" y1="54" x2="124.7" y2="47.6"/>
			<text transform="matrix(1 0 0 1 121.5989 50.4427)" class="st7 st8">4</text>
			<line class="st4" x1="142.7" y1="54" x2="142.7" y2="50.8"/>
			<line class="st4" x1="140.7" y1="54" x2="140.7" y2="50.8"/>
			<line class="st4" x1="138.7" y1="54" x2="138.7" y2="50.8"/>
			<line class="st4" x1="136.7" y1="54" x2="136.7" y2="50.8"/>
			<line class="st5" x1="134.7" y1="54" x2="134.7" y2="49.2"/>
			<line class="st4" x1="132.7" y1="54" x2="132.7" y2="50.8"/>
			<line class="st4" x1="130.7" y1="54" x2="130.7" y2="50.8"/>
			<line class="st4" x1="128.7" y1="54" x2="128.7" y2="50.8"/>
			<line class="st4" x1="126.7" y1="54" x2="126.7" y2="50.8"/>
			<line class="st6" x1="144.7" y1="54" x2="144.7" y2="47.6"/>
			<line class="st4" x1="142.7" y1="54" x2="142.7" y2="50.8"/>
			<line class="st4" x1="140.7" y1="54" x2="140.7" y2="50.8"/>
			<line class="st4" x1="138.7" y1="54" x2="138.7" y2="50.8"/>
			<line class="st4" x1="136.7" y1="54" x2="136.7" y2="50.8"/>
			<line class="st5" x1="134.7" y1="54" x2="134.7" y2="49.2"/>
			<line class="st4" x1="132.7" y1="54" x2="132.7" y2="50.8"/>
			<line class="st4" x1="130.7" y1="54" x2="130.7" y2="50.8"/>
			<line class="st4" x1="128.7" y1="54" x2="128.7" y2="50.8"/>
			<line class="st4" x1="126.7" y1="54" x2="126.7" y2="50.8"/>
			<line class="st6" x1="144.7" y1="54" x2="144.7" y2="47.6"/>
			<text transform="matrix(1 0 0 1 141.5989 50.4427)" class="st7 st8">5</text>
			<line class="st4" x1="162.7" y1="54" x2="162.7" y2="50.8"/>
			<line class="st4" x1="160.7" y1="54" x2="160.7" y2="50.8"/>
			<line class="st4" x1="158.7" y1="54" x2="158.7" y2="50.8"/>
			<line class="st4" x1="156.7" y1="54" x2="156.7" y2="50.8"/>
			<line class="st5" x1="154.7" y1="54" x2="154.7" y2="49.2"/>
			<line class="st4" x1="152.7" y1="54" x2="152.7" y2="50.8"/>
			<line class="st4" x1="150.7" y1="54" x2="150.7" y2="50.8"/>
			<line class="st4" x1="148.7" y1="54" x2="148.7" y2="50.8"/>
			<line class="st4" x1="146.7" y1="54" x2="146.7" y2="50.8"/>
			<line class="st6" x1="164.7" y1="54" x2="164.7" y2="47.6"/>
			<line class="st4" x1="162.7" y1="54" x2="162.7" y2="50.8"/>
			<line class="st4" x1="160.7" y1="54" x2="160.7" y2="50.8"/>
			<line class="st4" x1="158.7" y1="54" x2="158.7" y2="50.8"/>
			<line class="st4" x1="156.7" y1="54" x2="156.7" y2="50.8"/>
			<line class="st5" x1="154.7" y1="54" x2="154.7" y2="49.2"/>
			<line class="st4" x1="152.7" y1="54" x2="152.7" y2="50.8"/>
			<line class="st4" x1="150.7" y1="54" x2="150.7" y2="50.8"/>
			<line class="st4" x1="148.7" y1="54" x2="148.7" y2="50.8"/>
			<line class="st4" x1="146.7" y1="54" x2="146.7" y2="50.8"/>
			<line class="st6" x1="164.7" y1="54" x2="164.7" y2="47.6"/>
			<text transform="matrix(1 0 0 1 161.5989 50.4427)" class="st7 st8">6</text>
			<line class="st4" x1="182.7" y1="54" x2="182.7" y2="50.8"/>
			<line class="st4" x1="180.7" y1="54" x2="180.7" y2="50.8"/>
			<line class="st4" x1="178.7" y1="54" x2="178.7" y2="50.8"/>
			<line class="st4" x1="176.7" y1="54" x2="176.7" y2="50.8"/>
			<line class="st5" x1="174.7" y1="54" x2="174.7" y2="49.2"/>
			<line class="st4" x1="172.7" y1="54" x2="172.7" y2="50.8"/>
			<line class="st4" x1="170.7" y1="54" x2="170.7" y2="50.8"/>
			<line class="st4" x1="168.7" y1="54" x2="168.7" y2="50.8"/>
			<line class="st4" x1="166.7" y1="54" x2="166.7" y2="50.8"/>
			<line class="st6" x1="184.7" y1="54" x2="184.7" y2="47.6"/>
			<line class="st4" x1="182.7" y1="54" x2="182.7" y2="50.8"/>
			<line class="st4" x1="180.7" y1="54" x2="180.7" y2="50.8"/>
			<line class="st4" x1="178.7" y1="54" x2="178.7" y2="50.8"/>
			<line class="st4" x1="176.7" y1="54" x2="176.7" y2="50.8"/>
			<line class="st5" x1="174.7" y1="54" x2="174.7" y2="49.2"/>
			<line class="st4" x1="172.7" y1="54" x2="172.7" y2="50.8"/>
			<line class="st4" x1="170.7" y1="54" x2="170.7" y2="50.8"/>
			<line class="st4" x1="168.7" y1="54" x2="168.7" y2="50.8"/>
			<line class="st4" x1="166.7" y1="54" x2="166.7" y2="50.8"/>
			<line class="st6" x1="184.7" y1="54" x2="184.7" y2="47.6"/>
			<text transform="matrix(1 0 0 1 181.5989 50.4427)" class="st7 st8">7</text>
			<line class="st4" x1="202.7" y1="54" x2="202.7" y2="50.8"/>
			<line class="st4" x1="200.7" y1="54" x2="200.7" y2="50.8"/>
			<line class="st4" x1="198.7" y1="54" x2="198.7" y2="50.8"/>
			<line class="st4" x1="196.7" y1="54" x2="196.7" y2="50.8"/>
			<line class="st5" x1="194.7" y1="54" x2="194.7" y2="49.2"/>
			<line class="st4" x1="192.7" y1="54" x2="192.7" y2="50.8"/>
			<line class="st4" x1="190.7" y1="54" x2="190.7" y2="50.8"/>
			<line class="st4" x1="188.7" y1="54" x2="188.7" y2="50.8"/>
			<line class="st4" x1="186.7" y1="54" x2="186.7" y2="50.8"/>
			<line class="st6" x1="204.7" y1="54" x2="204.7" y2="47.6"/>
			<line class="st4" x1="202.7" y1="54" x2="202.7" y2="50.8"/>
			<line class="st4" x1="200.7" y1="54" x2="200.7" y2="50.8"/>
			<line class="st4" x1="198.7" y1="54" x2="198.7" y2="50.8"/>
			<line class="st4" x1="196.7" y1="54" x2="196.7" y2="50.8"/>
			<line class="st5" x1="194.7" y1="54" x2="194.7" y2="49.2"/>
			<line class="st4" x1="192.7" y1="54" x2="192.7" y2="50.8"/>
			<line class="st4" x1="190.7" y1="54" x2="190.7" y2="50.8"/>
			<line class="st4" x1="188.7" y1="54" x2="188.7" y2="50.8"/>
			<line class="st4" x1="186.7" y1="54" x2="186.7" y2="50.8"/>
			<line class="st6" x1="204.7" y1="54" x2="204.7" y2="47.6"/>
			<text transform="matrix(1 0 0 1 201.5989 50.4427)" class="st7 st8">8</text>
			<line class="st4" x1="222.7" y1="54" x2="222.7" y2="50.8"/>
			<line class="st4" x1="220.7" y1="54" x2="220.7" y2="50.8"/>
			<line class="st4" x1="218.7" y1="54" x2="218.7" y2="50.8"/>
			<line class="st4" x1="216.7" y1="54" x2="216.7" y2="50.8"/>
			<line class="st5" x1="214.7" y1="54" x2="214.7" y2="49.2"/>
			<line class="st4" x1="212.7" y1="54" x2="212.7" y2="50.8"/>
			<line class="st4" x1="210.7" y1="54" x2="210.7" y2="50.8"/>
			<line class="st4" x1="208.7" y1="54" x2="208.7" y2="50.8"/>
			<line class="st4" x1="206.7" y1="54" x2="206.7" y2="50.8"/>
			<line class="st6" x1="224.7" y1="54" x2="224.7" y2="47.6"/>
			<line class="st4" x1="222.7" y1="54" x2="222.7" y2="50.8"/>
			<line class="st4" x1="220.7" y1="54" x2="220.7" y2="50.8"/>
			<line class="st4" x1="218.7" y1="54" x2="218.7" y2="50.8"/>
			<line class="st4" x1="216.7" y1="54" x2="216.7" y2="50.8"/>
			<line class="st5" x1="214.7" y1="54" x2="214.7" y2="49.2"/>
			<line class="st4" x1="212.7" y1="54" x2="212.7" y2="50.8"/>
			<line class="st4" x1="210.7" y1="54" x2="210.7" y2="50.8"/>
			<line class="st4" x1="208.7" y1="54" x2="208.7" y2="50.8"/>
			<line class="st4" x1="206.7" y1="54" x2="206.7" y2="50.8"/>
			<line class="st6" x1="224.7" y1="54" x2="224.7" y2="47.6"/>
			<text transform="matrix(1 0 0 1 221.5989 50.4427)" class="st7 st8">9</text>
			<line class="st4" x1="242.7" y1="54" x2="242.7" y2="50.8"/>
			<line class="st4" x1="240.7" y1="54" x2="240.7" y2="50.8"/>
			<line class="st4" x1="238.7" y1="54" x2="238.7" y2="50.8"/>
			<line class="st4" x1="236.7" y1="54" x2="236.7" y2="50.8"/>
			<line class="st5" x1="234.7" y1="54" x2="234.7" y2="49.2"/>
			<line class="st4" x1="232.7" y1="54" x2="232.7" y2="50.8"/>
			<line class="st4" x1="230.7" y1="54" x2="230.7" y2="50.8"/>
			<line class="st4" x1="228.7" y1="54" x2="228.7" y2="50.8"/>
			<line class="st4" x1="226.7" y1="54" x2="226.7" y2="50.8"/>
			<line class="st6" x1="244.7" y1="54" x2="244.7" y2="47.6"/>
			<line class="st4" x1="242.7" y1="54" x2="242.7" y2="50.8"/>
			<line class="st4" x1="240.7" y1="54" x2="240.7" y2="50.8"/>
			<line class="st4" x1="238.7" y1="54" x2="238.7" y2="50.8"/>
			<line class="st4" x1="236.7" y1="54" x2="236.7" y2="50.8"/>
			<line class="st5" x1="234.7" y1="54" x2="234.7" y2="49.2"/>
			<line class="st4" x1="232.7" y1="54" x2="232.7" y2="50.8"/>
			<line class="st4" x1="230.7" y1="54" x2="230.7" y2="50.8"/>
			<line class="st4" x1="228.7" y1="54" x2="228.7" y2="50.8"/>
			<line class="st6" x1="244.7" y1="54" x2="244.7" y2="47.6"/>
			<text transform="matrix(1 0 0 1 239.2654 50.4427)" class="st7 st8">10</text>
			<line class="st4" x1="262.7" y1="54" x2="262.7" y2="50.8"/>
			<line class="st4" x1="260.7" y1="54" x2="260.7" y2="50.8"/>
			<line class="st4" x1="258.7" y1="54" x2="258.7" y2="50.8"/>
			<line class="st4" x1="256.7" y1="54" x2="256.7" y2="50.8"/>
			<line class="st5" x1="254.7" y1="54" x2="254.7" y2="49.2"/>
			<line class="st4" x1="252.7" y1="54" x2="252.7" y2="50.8"/>
			<line class="st4" x1="250.7" y1="54" x2="250.7" y2="50.8"/>
			<line class="st4" x1="248.7" y1="54" x2="248.7" y2="50.8"/>
			<line class="st4" x1="246.7" y1="54" x2="246.7" y2="50.8"/>
			<line class="st6" x1="264.7" y1="54" x2="264.7" y2="47.6"/>
			<line class="st4" x1="262.7" y1="54" x2="262.7" y2="50.8"/>
			<line class="st4" x1="260.7" y1="54" x2="260.7" y2="50.8"/>
			<line class="st4" x1="258.7" y1="54" x2="258.7" y2="50.8"/>
			<line class="st4" x1="256.7" y1="54" x2="256.7" y2="50.8"/>
			<line class="st5" x1="254.7" y1="54" x2="254.7" y2="49.2"/>
			<line class="st4" x1="252.7" y1="54" x2="252.7" y2="50.8"/>
			<line class="st4" x1="250.7" y1="54" x2="250.7" y2="50.8"/>
			<line class="st4" x1="248.7" y1="54" x2="248.7" y2="50.8"/>
			<line class="st4" x1="246.7" y1="54" x2="246.7" y2="50.8"/>
			<line class="st6" x1="264.7" y1="54" x2="264.7" y2="47.6"/>
			<text transform="matrix(1 0 0 1 259.4866 50.4427)" class="st7 st8">11</text>
			<line class="st4" x1="282.7" y1="54" x2="282.7" y2="50.8"/>
			<line class="st4" x1="280.7" y1="54" x2="280.7" y2="50.8"/>
			<line class="st4" x1="278.7" y1="54" x2="278.7" y2="50.8"/>
			<line class="st4" x1="276.7" y1="54" x2="276.7" y2="50.8"/>
			<line class="st5" x1="274.7" y1="54" x2="274.7" y2="49.2"/>
			<line class="st4" x1="272.7" y1="54" x2="272.7" y2="50.8"/>
			<line class="st4" x1="270.7" y1="54" x2="270.7" y2="50.8"/>
			<line class="st4" x1="268.7" y1="54" x2="268.7" y2="50.8"/>
			<line class="st4" x1="266.7" y1="54" x2="266.7" y2="50.8"/>
			<line class="st6" x1="284.7" y1="54" x2="284.7" y2="47.6"/>
			<line class="st4" x1="282.7" y1="54" x2="282.7" y2="50.8"/>
			<line class="st4" x1="280.7" y1="54" x2="280.7" y2="50.8"/>
			<line class="st4" x1="278.7" y1="54" x2="278.7" y2="50.8"/>
			<line class="st4" x1="276.7" y1="54" x2="276.7" y2="50.8"/>
			<line class="st5" x1="274.7" y1="54" x2="274.7" y2="49.2"/>
			<line class="st4" x1="272.7" y1="54" x2="272.7" y2="50.8"/>
			<line class="st4" x1="270.7" y1="54" x2="270.7" y2="50.8"/>
			<line class="st4" x1="268.7" y1="54" x2="268.7" y2="50.8"/>
			<line class="st4" x1="266.7" y1="54" x2="266.7" y2="50.8"/>
			<line class="st6" x1="284.7" y1="54" x2="284.7" y2="47.6"/>
			<text transform="matrix(1 0 0 1 279.4866 50.4427)" class="st7 st8">12</text>
			<line class="st5" x1="294.7" y1="54" x2="294.7" y2="49.2"/>
			<line class="st4" x1="292.7" y1="54" x2="292.7" y2="50.8"/>
			<line class="st4" x1="290.7" y1="54" x2="290.7" y2="50.8"/>
			<line class="st4" x1="288.7" y1="54" x2="288.7" y2="50.8"/>
			<line class="st4" x1="286.7" y1="54" x2="286.7" y2="50.8"/>
			<line class="st5" x1="294.7" y1="54" x2="294.7" y2="49.2"/>
			<line class="st4" x1="292.7" y1="54" x2="292.7" y2="50.8"/>
			<line class="st4" x1="290.7" y1="54" x2="290.7" y2="50.8"/>
			<line class="st4" x1="288.7" y1="54" x2="288.7" y2="50.8"/>
			<line class="st4" x1="286.7" y1="54" x2="286.7" y2="50.8"/>
			<text transform="matrix(1 0 0 1 43.1667 46.5728)" class="st7 st9">0</text>
			<text transform="matrix(1 0 0 1 298.167 54.018)" class="st7 st9">cm</text>
		</g>
	</g>
</g>
<g id="Front" class="st0">
	<g id="ViewFinder" class="st10">
		<path class="st11" d="M14.5,57"/>
		<path class="st12" d="M14.5,57"/>
		<path class="st11" d="M90,34.7"/>
		<path class="st11" d="M89.8,57.1"/>
		<path class="st13" d="M90,34.7"/>
		<path class="st13" d="M89.8,57.1"/>
		<path class="st14" d="M28.7,38.1"/>
		<path class="st14" d="M37.5,38.1"/>
		<path class="st14" d="M41.8,38.1"/>
		<path class="st14" d="M46.3,38.1"/>
		<path class="st14" d="M50.6,38.1"/>
		<path class="st14" d="M63.9,38.1"/>
		<path class="st14" d="M68.2,38.1"/>
		<path class="st14" d="M77,38.1"/>
		<path class="st14" d="M90.3,38.1"/>
		<path class="st14" d="M35.2,38.1"/>
		<path class="st14" d="M39.7,38.1"/>
		<path class="st14" d="M44,38.1"/>
		<path class="st14" d="M48.5,38.1"/>
		<path class="st14" d="M52.8,38.1"/>
		<path class="st14" d="M61.6,38.1"/>
		<path class="st14" d="M66.1,38.1"/>
		<path class="st14" d="M92.5,37.5"/>
		<g>
			<rect x="51.8" y="27.8" class="st11" width="2.7" height="2.3"/>
			<rect x="51.8" y="27.8" class="st12" width="2.7" height="2.3"/>
			<rect x="47.9" y="22.1" class="st11" width="10.1" height="5.6"/>
			<rect x="47.9" y="22.1" class="st12" width="10.1" height="5.6"/>
			<line class="st15" x1="49.2" y1="22.2" x2="49.2" y2="27.8"/>
			<line class="st16" x1="49.2" y1="22.2" x2="49.2" y2="27.8"/>
			<line class="st15" x1="50.1" y1="22.2" x2="50.1" y2="27.8"/>
			<line class="st16" x1="50.1" y1="22.2" x2="50.1" y2="27.8"/>
			<line class="st15" x1="51.1" y1="22.1" x2="51.1" y2="27.7"/>
			<line class="st16" x1="51.1" y1="22.1" x2="51.1" y2="27.7"/>
			<line class="st15" x1="52" y1="22.2" x2="52" y2="27.8"/>
			<line class="st16" x1="52" y1="22.2" x2="52" y2="27.8"/>
			<line class="st15" x1="57.8" y1="27.6" x2="57.8" y2="22"/>
			<line class="st17" x1="57.8" y1="27.6" x2="57.8" y2="22"/>
			<line class="st15" x1="57.1" y1="27.7" x2="57.1" y2="22.1"/>
			<line class="st17" x1="57.1" y1="27.7" x2="57.1" y2="22.1"/>
			<line class="st15" x1="56.3" y1="27.7" x2="56.3" y2="22.1"/>
			<line class="st17" x1="56.3" y1="27.7" x2="56.3" y2="22.1"/>
			<line class="st15" x1="55.3" y1="27.7" x2="55.3" y2="22.1"/>
			<line class="st17" x1="55.3" y1="27.7" x2="55.3" y2="22.1"/>
			<line class="st15" x1="54.1" y1="27.8" x2="54.1" y2="22.3"/>
			<line class="st17" x1="54.1" y1="27.8" x2="54.1" y2="22.3"/>
			<line class="st15" x1="53" y1="27.6" x2="53" y2="22.1"/>
			<line class="st17" x1="53" y1="27.6" x2="53" y2="22.1"/>
		</g>
		<path class="st18" d="M89.5,61"/>
		<path class="st18" d="M14.8,61"/>
		<path class="st19" d="M89.7,54.3"/>
		<path class="st19" d="M14.7,54.4"/>
		<path class="st2" d="M12.8,30.6v-4.1c0.1-1.4,0.8-5.7,0.8-5.7V1.2c0,0-1.3,1.3-2.5,2.9L4.7,32v2.7c0,8.2,4.9,10.4,10.9,10.4v10.8
			l-0.1,6l-1.7,2.9v52.4l8.9-11.3c0.2,0,7.5-44.4,7.5-44.4h59.5v-31L12.8,30.6L12.8,30.6z M66.9,54.1H37.1c-4.4,0-8-3.6-8-8
			s3.6-8,8-8h29.8c4.4,0,8,3.6,8,8C74.8,50.5,71.3,54.1,66.9,54.1z"/>
		<g>
			<line class="st20" x1="60.9" y1="58.1" x2="60.9" y2="56.5"/>
			<line class="st20" x1="59.1" y1="58.1" x2="59.1" y2="56.5"/>
			<line class="st20" x1="57.2" y1="58.1" x2="57.2" y2="56.5"/>
			<line class="st20" x1="55.4" y1="58.1" x2="55.4" y2="56.5"/>
			<line class="st21" x1="53.6" y1="58.1" x2="53.6" y2="55.7"/>
			<line class="st20" x1="51.9" y1="58.1" x2="51.9" y2="56.5"/>
			<line class="st20" x1="50.1" y1="58.1" x2="50.1" y2="56.5"/>
			<line class="st20" x1="48.3" y1="58.1" x2="48.3" y2="56.5"/>
			<line class="st20" x1="46.5" y1="58.1" x2="46.5" y2="56.5"/>
			<line class="st14" x1="62.7" y1="58.1" x2="62.7" y2="54.9"/>
			<line class="st14" x1="44.7" y1="58.1" x2="44.7" y2="54.9"/>
		</g>
		<path class="st22" d="M70.9,58.9H32.7c-5,0-9-3.7-9-8.1v-9c0-4.5,4.1-8.1,9-8.1h38.2c5,0,9,3.7,9,8.1v9
			C80,55.2,75.9,58.9,70.9,58.9z"/>
	</g>
</g>
</svg>
