<?xml version="1.0" encoding="utf-8"?>
<!-- Generator: Adobe Illustrator 19.2.1, SVG Export Plug-In . SVG Version: 6.00 Build 0)  -->
<svg version="1.1" id="Layer_1" xmlns="http://www.w3.org/2000/svg" xmlns:xlink="http://www.w3.org/1999/xlink" x="0px" y="0px"
	 viewBox="0 0 362 362" style="enable-background:new 0 0 362 362;" xml:space="preserve">
<style type="text/css">
	.st0{fill:#4C4C4C;stroke:#000000;stroke-width:2;stroke-miterlimit:10;}
	.st1{fill:#5E5E5E;stroke:#000000;stroke-width:2;stroke-miterlimit:10;}
	.st2{fill:#777777;stroke:#000000;stroke-width:2;stroke-miterlimit:10;}
	.st3{fill:#FFFFFF;stroke:#000000;stroke-width:3;stroke-miterlimit:10;}
	.st4{fill:none;stroke:#000000;stroke-miterlimit:10;}
	.st5{fill:none;stroke:#000000;stroke-width:3;stroke-miterlimit:10;}
	.st6{font-family:'HelveticaNeue';}
	.st7{font-size:48px;}
	.st8{fill:#010101;}
	.st9{fill:#707070;}
</style>
<g>
	<g>
		
			<rect x="46.2" y="42.8" transform="matrix(0.7071 -0.7071 0.7071 0.7071 -27.7053 61.4707)" class="st0" width="28.3" height="42.8"/>
		
			<rect x="8.2" y="23.7" transform="matrix(0.7071 -0.7071 0.7071 0.7071 -18.1004 37.8004)" class="st1" width="56.7" height="34"/>
	</g>
	<g>
		
			<rect x="287.8" y="43" transform="matrix(0.7071 0.7071 -0.7071 0.7071 133.9324 -194.6433)" class="st0" width="28.3" height="42.8"/>
		
			<rect x="297" y="23.6" transform="matrix(0.7071 0.7071 -0.7071 0.7071 123.9866 -218.1723)" class="st1" width="56.7" height="34"/>
	</g>
	<circle class="st2" cx="181" cy="181" r="180"/>
	<g id="Layer_3">
		<circle class="st3" cx="181" cy="181" r="150"/>
	</g>
	<g id="Layer_1_1_">
		<line class="st4" x1="165.6" y1="327.5" x2="166.9" y2="315.3"/>
		<line class="st4" x1="196.4" y1="34.5" x2="195.1" y2="46.7"/>
		<line class="st4" x1="150.4" y1="325.1" x2="152.9" y2="313"/>
		<line class="st4" x1="211.6" y1="36.9" x2="209.1" y2="49"/>
		<line class="st4" x1="135.5" y1="321.1" x2="139.3" y2="309.4"/>
		<line class="st4" x1="226.5" y1="40.9" x2="222.7" y2="52.6"/>
		<line class="st4" x1="121.1" y1="315.6" x2="126.1" y2="304.3"/>
		<line class="st4" x1="240.9" y1="46.4" x2="235.9" y2="57.7"/>
		<line class="st4" x1="94.4" y1="300.2" x2="101.6" y2="290.2"/>
		<line class="st4" x1="267.6" y1="61.8" x2="260.4" y2="71.8"/>
		<line class="st4" x1="82.4" y1="290.5" x2="90.7" y2="281.3"/>
		<line class="st4" x1="279.6" y1="71.5" x2="271.3" y2="80.7"/>
		<line class="st4" x1="71.5" y1="279.6" x2="80.7" y2="271.3"/>
		<line class="st4" x1="290.5" y1="82.4" x2="281.3" y2="90.7"/>
		<line class="st4" x1="61.8" y1="267.6" x2="71.8" y2="260.4"/>
		<line class="st4" x1="300.2" y1="94.4" x2="290.2" y2="101.6"/>
		<line class="st4" x1="46.4" y1="240.9" x2="57.7" y2="235.9"/>
		<line class="st4" x1="315.6" y1="121.1" x2="304.3" y2="126.1"/>
		<line class="st4" x1="40.9" y1="226.5" x2="52.6" y2="222.7"/>
		<line class="st4" x1="321.1" y1="135.5" x2="309.4" y2="139.3"/>
		<line class="st4" x1="36.9" y1="211.6" x2="49" y2="209.1"/>
		<line class="st4" x1="325.1" y1="150.4" x2="313" y2="152.9"/>
		<line class="st4" x1="34.5" y1="196.4" x2="46.7" y2="195.1"/>
		<line class="st4" x1="327.5" y1="165.6" x2="315.3" y2="166.9"/>
		<line class="st4" x1="34.5" y1="165.6" x2="46.7" y2="166.9"/>
		<line class="st4" x1="327.5" y1="196.4" x2="315.3" y2="195.1"/>
		<line class="st4" x1="36.9" y1="150.4" x2="49" y2="152.9"/>
		<line class="st4" x1="325.1" y1="211.6" x2="313" y2="209.1"/>
		<line class="st4" x1="40.9" y1="135.5" x2="52.6" y2="139.3"/>
		<line class="st4" x1="321.1" y1="226.5" x2="309.4" y2="222.7"/>
		<line class="st4" x1="46.4" y1="121.1" x2="57.7" y2="126.1"/>
		<line class="st4" x1="315.6" y1="240.9" x2="304.3" y2="235.9"/>
		<line class="st4" x1="61.8" y1="94.4" x2="71.8" y2="101.6"/>
		<line class="st4" x1="300.2" y1="267.6" x2="290.2" y2="260.4"/>
		<line class="st4" x1="71.5" y1="82.4" x2="80.7" y2="90.7"/>
		<line class="st4" x1="290.5" y1="279.6" x2="281.3" y2="271.3"/>
		<line class="st4" x1="82.4" y1="71.5" x2="90.7" y2="80.7"/>
		<line class="st4" x1="279.6" y1="290.5" x2="271.3" y2="281.3"/>
		<line class="st4" x1="94.4" y1="61.8" x2="101.6" y2="71.8"/>
		<line class="st4" x1="267.6" y1="300.2" x2="260.4" y2="290.2"/>
		<g>
			<line class="st5" x1="181" y1="33.7" x2="181" y2="46"/>
			<line class="st5" x1="181" y1="328.3" x2="181" y2="316"/>
			<line class="st5" x1="254.7" y1="53.4" x2="248.5" y2="64.1"/>
			<line class="st5" x1="107.3" y1="308.6" x2="113.5" y2="297.9"/>
			<line class="st5" x1="308.6" y1="107.3" x2="297.9" y2="113.5"/>
			<line class="st5" x1="53.4" y1="254.7" x2="64.1" y2="248.5"/>
			<line class="st5" x1="328.3" y1="181" x2="316" y2="181"/>
			<line class="st5" x1="33.7" y1="181" x2="46" y2="181"/>
			<line class="st5" x1="308.6" y1="254.7" x2="297.9" y2="248.5"/>
			<line class="st5" x1="53.4" y1="107.3" x2="64.1" y2="113.5"/>
			<line class="st5" x1="254.7" y1="308.6" x2="248.5" y2="297.9"/>
			<line class="st5" x1="107.3" y1="53.4" x2="113.5" y2="64.1"/>
		</g>
		<line class="st4" x1="121.1" y1="46.4" x2="126.1" y2="57.7"/>
		<line class="st4" x1="240.9" y1="315.6" x2="235.9" y2="304.3"/>
		<line class="st4" x1="135.5" y1="40.9" x2="139.3" y2="52.6"/>
		<line class="st4" x1="226.5" y1="321.1" x2="222.7" y2="309.4"/>
		<line class="st4" x1="150.4" y1="36.9" x2="152.9" y2="49"/>
		<line class="st4" x1="211.6" y1="325.1" x2="209.1" y2="313"/>
		<line class="st4" x1="165.6" y1="34.5" x2="166.9" y2="46.7"/>
		<line class="st4" x1="196.4" y1="327.5" x2="195.1" y2="315.3"/>
	</g>
	<g id="Layer_2">
		<text transform="matrix(1 0 0 1 154.312 86.5501)" class="st6 st7">12</text>
		<text transform="matrix(1 0 0 1 99.4027 105.1482)" class="st6 st7">11</text>
		<text transform="matrix(1 0 0 1 63.9797 143.783)" class="st6 st7">10</text>
		<text transform="matrix(1 0 0 1 50.7421 196.3976)" class="st6 st7">9</text>
		<text transform="matrix(1 0 0 1 67.3311 251.577)" class="st6 st7">8</text>
		<text transform="matrix(1 0 0 1 110.2433 294.1949)" class="st6 st7">7</text>
		<text transform="matrix(1 0 0 1 167.6555 309.9496)" class="st6 st7">6</text>
		<text transform="matrix(1 0 0 1 227.5713 294.1949)" class="st6 st7">5</text>
		<text transform="matrix(1 0 0 1 266.2233 251.5774)" class="st6 st7">4</text>
		<text transform="matrix(1 0 0 1 284.569 196.3983)" class="st6 st7">3</text>
		<text transform="matrix(1 0 0 1 267.9797 143.7831)" class="st6 st7">2</text>
		<text transform="matrix(1 0 0 1 227.5714 105.1483)" class="st6 st7">1</text>
	</g>
	<g>
		<polygon class="st8" points="175.1,181.4 177.5,98.2 181,92.3 184.6,98.2 187,181.4 181,187.3 		"/>
		<circle class="st9" cx="181" cy="181.4" r="2.9"/>
		<polygon points="181.2,175.4 234.7,177.8 240.6,181.4 234.7,184.9 181.2,187.3 175.3,181.4 		"/>
		<circle class="st9" cx="181.2" cy="181.4" r="2.9"/>
	</g>
</g>
</svg>
