<?xml version="1.0" encoding="utf-8"?>
<!-- Generator: Adobe Illustrator 19.2.1, SVG Export Plug-In . SVG Version: 6.00 Build 0)  -->
<svg version="1.1" id="Layer_1" xmlns="http://www.w3.org/2000/svg" xmlns:xlink="http://www.w3.org/1999/xlink" x="0px" y="0px"
	 viewBox="0 0 193.9 393.5" style="enable-background:new 0 0 193.9 393.5;" xml:space="preserve">
<style type="text/css">
	.st0{opacity:0.5;fill:#FFFFFF;enable-background:new    ;}
	.st1{opacity:0.25;fill:#FFFFFF;enable-background:new    ;}
	.st2{fill:#3463AF;stroke:#000000;stroke-miterlimit:10;}
	.st3{fill:#FFFFFF;stroke:#000000;stroke-miterlimit:10;}
	.st4{fill:none;stroke:#000000;stroke-miterlimit:10;}
	.st5{font-family:'HelveticaNeue-Medium';}
	.st6{font-size:18px;}
</style>
<rect x="113.1" y="162.7" class="st0" width="15.4" height="212.6"/>
<path class="st1" d="M176.7,393H65.6c-9.2,0-16.8-7.5-16.8-16.8V195.4c0-9.2,38.4-32.6,47.6-32.6h49.3c9.2,0,47.6,23.4,47.6,32.6
	v180.9C193.4,385.5,185.9,393,176.7,393z"/>
<rect x="96.5" y="114.2" class="st2" width="49.3" height="48.6"/>
<path class="st2" d="M128.6,37.6c-0.1-20.5-16.7-37.1-37.2-37.1c-7.6,0-14.7,2.4-20.6,6.3L25,33.2L0.6,54.5l0.6,1L31.8,45l45.8-26.4
	c3.9-2.8,8.6-4.5,13.8-4.5c13.1,0,23.6,10.6,23.6,23.6v76.5h13.5L128.6,37.6L128.6,37.6z"/>
<rect x="55.9" y="255.1" class="st3" width="130.5" height="60"/>
<path class="st1" d="M48.8,222.1v154.1c0,9.2,7.5,16.8,16.8,16.8h111.1c9.2,0,16.8-7.5,16.8-16.8V222.1H48.8z"/>
<path class="st4" d="M176.7,393H65.6c-9.2,0-16.8-7.5-16.8-16.8V195.4c0-9.2,38.4-32.6,47.6-32.6h49.3c9.2,0,47.6,23.4,47.6,32.6
	v180.9C193.4,385.5,185.9,393,176.7,393z"/>
<text transform="matrix(1 0 0 1 80.8035 290.8817)" class="st5 st6">RO Water</text>
</svg>
