<?xml version="1.0" encoding="utf-8"?>
<!-- Generator: Adobe Illustrator 19.2.1, SVG Export Plug-In . SVG Version: 6.00 Build 0)  -->
<svg version="1.1" id="Layer_1" xmlns="http://www.w3.org/2000/svg" xmlns:xlink="http://www.w3.org/1999/xlink" x="0px" y="0px"
	 viewBox="0 0 301.5 200.5" style="enable-background:new 0 0 301.5 200.5;" xml:space="preserve">
<style type="text/css">
	.st0{fill:#E7E7E7;}
	.st1{fill:#2BB673;stroke:#000000;stroke-miterlimit:10;}
	.st2{fill:#FFFFFF;stroke:#A7A9AC;stroke-miterlimit:10;}
	.st3{font-family:'Helvetica-Bold';}
	.st4{font-size:40px;}
	.st5{font-family:'Helvetica';}
	.st6{font-size:10px;}
	.st7{fill:#FFFFFF;}
	.st8{fill:#FFFFFF;stroke:#000000;stroke-miterlimit:10;}
	.st9{font-size:18px;}
	.st10{font-family:'Helvetica-Oblique';}
	.st11{font-size:12px;}
	.st12{fill:#FFFFFF;stroke:#000000;stroke-linecap:round;stroke-miterlimit:10;}
	.st13{font-size:24px;}
	.st14{font-size:7px;}
	.st15{font-size:21px;}
	.st16{fill:none;stroke:#000000;stroke-miterlimit:10;}
	.st17{fill:#006838;}
	.st18{font-size:6px;}
	.st19{fill:#589C75;stroke:#000000;stroke-linecap:round;stroke-miterlimit:10;}
</style>
<polygon class="st0" points="190.7,3.1 148.7,0 105.3,3.3 69.7,0 69.7,19.7 69.7,32.7 69.7,51.7 69.7,88.5 69.7,104.6 69.7,120.5 
	69.7,140.2 106.7,137.1 148.7,140.2 192.1,136.9 227.7,140.2 227.7,120.5 227.7,104.6 227.7,88.5 227.7,51.7 227.7,32.7 227.7,19.7 
	227.7,0 "/>
<rect x="1" y="70" class="st1" width="300" height="130"/>
<g>
	<rect x="75.5" y="84.7" class="st2" width="151.1" height="97"/>
	<text transform="matrix(1 0 0 1 85.9278 140.523)" class="st3 st4">Wipes</text>
	<text transform="matrix(1 0 0 1 85.9279 160.5232)" class="st5 st6">Non-Name Brand</text>
	<text transform="matrix(1 0 0 1 85.9279 172.5232)" class="st5 st6">Delicate Task Wipers</text>
	<g>
		<rect x="81.3" y="88.9" class="st7" width="84.6" height="19.5"/>
		<polyline class="st8" points="81.3,88.9 216.1,88.9 211.1,102.2 165.9,102.2 		"/>
	</g>
	<text transform="matrix(1 0 0 1 82.9178 104.5235)" class="st3 st9">GENERIC</text>
	<text transform="matrix(1 0 0 1 166.5702 99.8565)" class="st10 st11">Science</text>
</g>
<g>
	<path class="st12" d="M1,103.8c18.7,0,33.8-15.1,33.8-33.8H1V103.8z"/>
	<g>
		<text transform="matrix(1 0 0 1 4.8338 93.25)" class="st5 st13">1</text>
		<text transform="matrix(1 0 0 1 15.4499 81.7274)" class="st5 st14">ply</text>
	</g>
</g>
<text transform="matrix(1 0 0 1 252.2389 188.25)" class="st7 st3 st15">280</text>
<text transform="matrix(1 0 0 1 252.2389 188.25)" class="st16 st3 st15">280</text>
<text transform="matrix(1 0 0 1 247.7468 195.75)" class="st17 st5 st18">is a nice number</text>
<polygon class="st19" points="1,166.5 0.5,200 80.2,200 "/>
<polygon class="st19" points="300.5,103.7 301,70.1 221.3,70.1 "/>
<text transform="matrix(1 0 0 1 4.4958 195.7506)" class="st7 st5 st18">TLL Professional</text>
</svg>
