<?xml version="1.0" encoding="utf-8"?>
<!-- Generator: Adobe Illustrator 19.2.1, SVG Export Plug-In . SVG Version: 6.00 Build 0)  -->
<svg version="1.1" id="Layer_1" xmlns="http://www.w3.org/2000/svg" xmlns:xlink="http://www.w3.org/1999/xlink" x="0px" y="0px"
	 viewBox="0 0 37.7 306.6" style="enable-background:new 0 0 37.7 306.6;" xml:space="preserve">
<style type="text/css">
	.st0{fill:none;stroke:#000000;stroke-width:2.2003;stroke-miterlimit:10;}
</style>
<g>
	<path class="st0" d="M1.1,193.2c0-3.4,9-5.5,14.7-5.5c5.7,0,10.9,2.1,14.7,5.5c3.8,3.4,6.1,8.1,6.1,13.3c0,5.2-2.3,9.9-6.1,13.3
		c-3.8,3.4-9,5.5-14.7,5.5c-5.7,0-14.7-1.9-14.7-5.5"/>
	<path class="st0" d="M1.1,220.1c0-3.4,9-5.5,14.7-5.5c5.7,0,10.9,2.1,14.7,5.5c3.8,3.4,6.1,8.1,6.1,13.3c0,5.2-2.3,9.9-6.1,13.3
		c-3.8,3.4-9,5.5-14.7,5.5c-5.7,0-14.7-1.9-14.7-5.5"/>
	<path class="st0" d="M1.1,246.6c0-3.4,9-5.5,14.7-5.5c5.7,0,10.9,2.1,14.7,5.5c3.8,3.4,6.1,8.1,6.1,13.3c0,5.2-2.3,9.9-6.1,13.3
		c-3.8,3.4-9,5.5-14.7,5.5c-5.7,0-14.7-1.9-14.7-5.5"/>
	<path class="st0" d="M1.1,273.5c0-3.4,9-5.5,14.7-5.5c5.7,0,10.9,2.1,14.7,5.5c3.8,3.4,6.1,8.1,6.1,13.3c0,5.2-2.3,9.9-6.1,13.3
		c-3.8,3.4-9,5.5-14.7,5.5"/>
	<path class="st0" d="M1.1,86.4c0-3.4,9-5.5,14.7-5.5c5.7,0,10.9,2.1,14.7,5.5c3.8,3.4,6.1,8.1,6.1,13.3c0,5.2-2.3,9.9-6.1,13.3
		c-3.8,3.4-9,5.5-14.7,5.5c-5.7,0-14.7-1.9-14.7-5.5"/>
	<path class="st0" d="M1.1,113.4c0-3.4,9-5.5,14.7-5.5c5.7,0,10.9,2.1,14.7,5.5c3.8,3.4,6.1,8.1,6.1,13.3c0,5.2-2.3,9.9-6.1,13.3
		c-3.8,3.4-9,5.5-14.7,5.5c-5.7,0-14.7-1.9-14.7-5.5"/>
	<path class="st0" d="M1.1,139.8c0-3.4,9-5.5,14.7-5.5c5.7,0,10.9,2.1,14.7,5.5c3.8,3.4,6.1,8.1,6.1,13.3c0,5.2-2.3,9.9-6.1,13.3
		c-3.8,3.4-9,5.5-14.7,5.5c-5.7,0-14.7-1.9-14.7-5.5"/>
	<path class="st0" d="M1.1,166.7c0-3.4,9-5.5,14.7-5.5c5.7,0,10.9,2.1,14.7,5.5c3.8,3.4,6.1,8.1,6.1,13.3c0,5.2-2.3,9.9-6.1,13.3
		c-3.8,3.4-9,5.5-14.7,5.5c-5.7,0-14.7-1.9-14.7-5.5"/>
	<path class="st0" d="M15.8,1.1c5.7,0,10.9,2.1,14.7,5.5c3.8,3.4,6.1,8.1,6.1,13.3c0,5.2-2.3,9.9-6.1,13.3c-3.8,3.4-9,5.5-14.7,5.5
		c-5.7,0-14.7-1.9-14.7-5.5"/>
	<path class="st0" d="M1.1,33.1c0-3.4,9-5.5,14.7-5.5c5.7,0,10.9,2.1,14.7,5.5c3.8,3.4,6.1,8.1,6.1,13.3c0,5.2-2.3,9.9-6.1,13.3
		c-3.8,3.4-9,5.5-14.7,5.5c-5.7,0-14.7-1.9-14.7-5.5"/>
	<path class="st0" d="M1.1,60c0-3.4,9-5.5,14.7-5.5c5.7,0,10.9,2.1,14.7,5.5c3.8,3.4,6.1,8.1,6.1,13.3c0,5.2-2.3,9.9-6.1,13.3
		c-3.8,3.4-9,5.5-14.7,5.5C10.1,92,1.1,90,1.1,86.5"/>
</g>
</svg>
