<?xml version="1.0" encoding="utf-8"?>
<!-- Generator: Adobe Illustrator 15.1.0, SVG Export Plug-In . SVG Version: 6.00 Build 0)  -->
<!DOCTYPE svg PUBLIC "-//W3C//DTD SVG 1.1//EN" "http://www.w3.org/Graphics/SVG/1.1/DTD/svg11.dtd">
<svg version="1.1"
	 id="svg2" inkscape:version="0.45" sodipodi:version="0.32" sodipodi:docbase="/home/cburnett/wikipedia/images/chemistry" sodipodi:docname="Conical flask.svg" inkscape:output_extension="org.inkscape.output.svg.inkscape" sodipodi:modified="true" xmlns:rdf="http://www.w3.org/1999/02/22-rdf-syntax-ns#" xmlns:dc="http://purl.org/dc/elements/1.1/" xmlns:cc="http://web.resource.org/cc/" xmlns:svg="http://www.w3.org/2000/svg" xmlns:sodipodi="http://sodipodi.sourceforge.net/DTD/sodipodi-0.dtd" xmlns:inkscape="http://www.inkscape.org/namespaces/inkscape"
	 xmlns="http://www.w3.org/2000/svg" xmlns:xlink="http://www.w3.org/1999/xlink" x="0px" y="0px" width="317px" height="370.957px"
	 viewBox="0 0 317 370.957" enable-background="new 0 0 317 370.957" xml:space="preserve">
<sodipodi:namedview  width="300px" height="475px" bordercolor="#666666" pagecolor="#ffffff" objecttolerance="10" id="base" gridtolerance="10000" inkscape:grid-points="true" guidetolerance="10" inkscape:cx="175.18656" inkscape:pageopacity="0.0" inkscape:pageshadow="2" inkscape:zoom="1.4" inkscape:cy="212.51272" inkscape:document-units="px" gridspacingx="1px" inkscape:current-layer="layer1" showgrid="true" gridspacingy="1px" inkscape:window-width="746" inkscape:window-height="965" inkscape:window-x="0" inkscape:window-y="31" borderopacity="1.0">
	</sodipodi:namedview>
<g id="layer1" inkscape:groupmode="layer" inkscape:label="Layer 1">
	<path id="path3151" fill="none" stroke="#000000" stroke-width="3" stroke-linecap="round" d="M301.161,329.912h-78.242"/>
	<path id="path3153" sodipodi:nodetypes="cc" fill="none" stroke="#000000" stroke-width="3" stroke-linecap="round" d="
		M265.048,257.695h-30.092"/>
	<path id="path3157" sodipodi:nodetypes="cccccccccc" fill="none" stroke="#000000" stroke-width="3" d="M120.602,11.312
		c6.018,4.248,6.018,4.248,6.018,8.496v63.718c0,29.736-120.373,254.88-120.373,254.88c-6.019,16.99,12.037,21.238,30.094,21.238
		h240.747c18.057,0,36.111-4.248,30.094-21.238c0,0-120.373-225.144-120.373-254.88V19.808c0-4.248,0-4.248,6.021-8.496"/>
</g>
<g>
	<line fill="none" stroke="#C929E5" stroke-width="3" x1="22.789" y1="359.072" x2="34.802" y2="359.812"/>
	<line fill="none" stroke="#C929E5" stroke-width="3" x1="34.802" y1="359.812" x2="283.287" y2="359.441"/>
	<line fill="none" stroke="#C929E5" stroke-width="3" x1="283.287" y1="359.441" x2="294.154" y2="357.451"/>
	<line fill="none" stroke="#C929E5" stroke-width="3" x1="294.154" y1="357.451" x2="302.391" y2="353.023"/>
	<line fill="none" stroke="#C929E5" stroke-width="3" x1="302.391" y1="353.023" x2="305.693" y2="348.459"/>
	<line fill="none" stroke="#C929E5" stroke-width="3" x1="305.693" y1="348.459" x2="305.693" y2="346.693"/>
	<line fill="none" stroke="#C929E5" stroke-width="3" x1="305.693" y1="346.693" x2="305.693" y2="343.004"/>
	<line fill="none" stroke="#C929E5" stroke-width="3" x1="305.693" y1="343.004" x2="304.518" y2="339.314"/>
	<line fill="none" stroke="#C929E5" stroke-width="3" x1="106.412" y1="136.818" x2="204.863" y2="134.829"/>
	<line fill="none" stroke="#C929E5" stroke-width="3" x1="26.512" y1="359.072" x2="20.923" y2="358.445"/>
	<line fill="none" stroke="#C929E5" stroke-width="3" x1="22.789" y1="359.072" x2="19.146" y2="357.451"/>
	<line fill="none" stroke="#C929E5" stroke-width="3" x1="19.146" y1="357.451" x2="16.438" y2="356.443"/>
	<line fill="none" stroke="#C929E5" stroke-width="3" x1="16.438" y1="356.443" x2="14.037" y2="355.236"/>
	<line fill="none" stroke="#C929E5" stroke-width="3" x1="16.438" y1="356.443" x2="11.031" y2="353.023"/>
	<line fill="none" stroke="#C929E5" stroke-width="3" x1="14.037" y1="355.236" x2="9.15" y2="350.742"/>
	<line fill="none" stroke="#C929E5" stroke-width="3" x1="11.031" y1="353.023" x2="7.429" y2="348.459"/>
	<line fill="none" stroke="#C929E5" stroke-width="3" x1="9.15" y1="350.742" x2="7.435" y2="344.85"/>
	<line fill="none" stroke="#C929E5" stroke-width="3" x1="7.429" y1="348.459" x2="7.429" y2="341.158"/>
	<line fill="none" stroke="#C929E5" stroke-width="3" x1="7.509" y1="343.004" x2="9.23" y2="337.02"/>
	<line fill="none" stroke="#C929E5" stroke-width="3" x1="8.371" y1="338.934" x2="106.412" y2="136.818"/>
	<line fill="none" stroke="#C929E5" stroke-width="3" x1="305.105" y1="341.158" x2="203.236" y2="134.859"/>
</g>
<path opacity="0.72" fill="#C541E5" stroke="#C929E5" enable-background="new    " d="M300.361,331.069
	c-1.688-3.155-3.748-6.187-5.729-9.237c0.553-1.095,0.715-2.41,0.488-3.729c-0.881-5.17-3.697-9.66-6.17-14.193
	c-1.049-1.924-2.736-2.608-4.391-2.457c-0.73-1.752-1.459-3.502-2.201-5.231c-1.109-2.596-1.123-5.454-2.729-7.926
	c-1.744-2.683-3.539-5.263-5.012-8.063c-3.195-6.093-6.037-12.562-8.287-18.937c-0.498-1.413-1.604-2.261-2.893-2.631
	c0.047-0.394,0.045-0.785-0.021-1.16c-0.27-1.513-1.982-3.058-3.404-4.582c-0.027-0.067-0.055-0.138-0.084-0.203
	c0.418-2.535-0.443-5.149-3.105-7.43c-0.074-0.062-0.158-0.117-0.24-0.177c-0.602-1.485-1.229-2.965-1.998-4.389
	c-2.961-5.482-4.398-11.271-7.119-16.885c-2.855-5.906-6.055-11.693-9.303-17.452c-3.205-5.679-4.842-11.677-7.627-17.499
	c-2.816-5.893-5.891-11.717-9.203-17.426c-1.686-2.903-3.4-5.807-4.854-8.801c-1.332-2.742-1.658-5.766-2.934-8.527
	c-1.705-3.697-3.221-9.871-6.855-13.467c0.361-1.768-0.297-3.596-2.535-4.553c-5.838-2.496-11.674-2.281-17.9-1.854
	c-8.186,0.562-16.396,0.438-24.574,1.106c-8.339,0.687-16.453,1.273-24.835,1.035c-8.857-0.252-17.684-0.781-26.545-0.306
	c-3.518,0.188-5.11,3.28-4.773,5.978c-2.025,2.787-3.312,6.449-4.625,9.205c-2.529,5.312-4.716,10.648-7.466,15.906
	c-2.532,4.844-4.828,9.499-6.927,14.479c-0.771,1.836-2.758,5.084-4.167,8.442c-1.522,0.365-2.896,1.424-3.531,3.327
	c-1.631,4.874-3.176,9.929-6.714,13.794c-1.521,1.662-1.643,3.611-0.975,5.238c-1.943,3.792-4.1,7.488-6.475,11.105
	c-0.699,1.063-0.92,2.11-0.805,3.067c-2.488,5.188-5.725,10.052-7.7,15.459c-0.56,1.531-1.022,3.214-1.544,4.89
	c-2.005,1.066-2.787,3.48-2.348,5.604c-0.514,0.842-1.108,1.622-1.822,2.301c-0.688,0.654-1.117,1.365-1.342,2.088
	c-0.695,0.973-1.01,2.202-0.947,3.412c-3.884,6.643-7.543,13.422-11.415,20.062c-5.165,8.861-9.577,17.854-13.632,27.271
	c-3.057,7.096-6.212,14.139-10.205,20.729c-1.842,2.019-3.189,4.021-4.078,6.644c-0.652,1.923-0.186,3.472,0.836,4.522
	c-0.558,1.115-1.058,2.158-1.262,2.977c-1.127,4.508,0.798,8.526,4.725,10.812c1.105,0.646,2.188,0.816,3.172,0.662
	c1.455,0.934,3.105,1.687,4.783,2.33c8.069,3.104,18.491,2.479,27.19,2.713c10.356,0.277,20.432,0.164,30.771-0.207
	c4.48-0.16,8.969,0.086,13.455-0.078c0.553-0.021,1.105-0.069,1.662-0.125c0.707,1.152,2.08,1.988,4.131,1.938
	c2.604-0.062,5.346-0.474,7.938-0.146c2.111,0.269,3.82-0.48,4.89-1.61c0.042-0.002,0.082-0.001,0.125-0.004
	c0.17-0.013,0.343-0.028,0.511-0.042c0.629,0.273,1.373,0.439,2.242,0.447c7.725,0.061,15.801,0.877,23.34-0.82
	c0.047,0.002,0.092,0.008,0.139,0.009c10.048,0.291,19.979,1.276,30.046,1.146c10.754-0.144,21.248,1.061,31.961-0.057
	c10.641-1.104,20.881,0.016,31.502-0.338c10.191-0.338,20.377-0.797,30.578-0.869c0.176,0.131,0.357,0.258,0.562,0.377
	c3.879,2.24,9.082,1.159,13.463,1.231c7.295,0.123,13.334,0.591,20.145-2.056c5.223-2.028,8.463-6.334,9.168-10.995
	C305.762,341.116,303.129,336.253,300.361,331.069z"/>
</svg>
