<?xml version="1.0" encoding="utf-8"?>
<!-- Generator: Adobe Illustrator 15.1.0, SVG Export Plug-In . SVG Version: 6.00 Build 0)  -->
<!DOCTYPE svg PUBLIC "-//W3C//DTD SVG 1.1//EN" "http://www.w3.org/Graphics/SVG/1.1/DTD/svg11.dtd">
<svg version="1.1"
	 id="svg2" inkscape:version="0.45" sodipodi:version="0.32" sodipodi:docbase="/home/cburnett/wikipedia/images/chemistry" sodipodi:docname="Conical flask.svg" inkscape:output_extension="org.inkscape.output.svg.inkscape" sodipodi:modified="true" xmlns:rdf="http://www.w3.org/1999/02/22-rdf-syntax-ns#" xmlns:dc="http://purl.org/dc/elements/1.1/" xmlns:cc="http://web.resource.org/cc/" xmlns:svg="http://www.w3.org/2000/svg" xmlns:sodipodi="http://sodipodi.sourceforge.net/DTD/sodipodi-0.dtd" xmlns:inkscape="http://www.inkscape.org/namespaces/inkscape"
	 xmlns="http://www.w3.org/2000/svg" xmlns:xlink="http://www.w3.org/1999/xlink" x="0px" y="0px" width="317px" height="370.957px"
	 viewBox="0 0 317 370.957" enable-background="new 0 0 317 370.957" xml:space="preserve">
<sodipodi:namedview  width="300px" height="475px" bordercolor="#666666" pagecolor="#ffffff" id="base" objecttolerance="10" gridtolerance="10000" inkscape:grid-points="true" guidetolerance="10" inkscape:cx="175.18656" inkscape:pageopacity="0.0" inkscape:pageshadow="2" inkscape:zoom="1.4" inkscape:cy="212.51272" inkscape:document-units="px" gridspacingx="1px" inkscape:current-layer="layer1" showgrid="true" gridspacingy="1px" inkscape:window-width="746" inkscape:window-height="965" inkscape:window-x="0" inkscape:window-y="31" borderopacity="1.0">
	</sodipodi:namedview>
<g id="layer1" inkscape:groupmode="layer" inkscape:label="Layer 1">
	<path id="path3151" fill="none" stroke="#000000" stroke-width="3" stroke-linecap="round" d="M301.161,329.912h-78.242"/>
	<path id="path3153" sodipodi:nodetypes="cc" fill="none" stroke="#000000" stroke-width="3" stroke-linecap="round" d="
		M265.048,257.695h-30.092"/>
	<path id="path3157" sodipodi:nodetypes="cccccccccc" fill="none" stroke="#000000" stroke-width="3" d="M120.602,11.312
		c6.018,4.248,6.018,4.248,6.018,8.496v63.718c0,29.736-120.373,254.88-120.373,254.88c-6.019,16.99,12.037,21.238,30.094,21.238
		h240.747c18.057,0,36.111-4.248,30.094-21.238c0,0-120.373-225.144-120.373-254.88V19.808c0-4.248,0-4.248,6.02-8.496"/>
</g>
<g>
	<line fill="none" stroke="#68EAEA" stroke-width="3" x1="22.941" y1="358.904" x2="34.955" y2="359.645"/>
	<line fill="none" stroke="#68EAEA" stroke-width="3" x1="34.955" y1="359.645" x2="283.439" y2="359.273"/>
	<line fill="none" stroke="#68EAEA" stroke-width="3" x1="283.439" y1="359.273" x2="294.307" y2="357.282"/>
	<line fill="none" stroke="#68EAEA" stroke-width="3" x1="294.307" y1="357.282" x2="302.543" y2="352.856"/>
	<line fill="none" stroke="#68EAEA" stroke-width="3" x1="302.543" y1="352.856" x2="305.846" y2="348.29"/>
	<line fill="none" stroke="#68EAEA" stroke-width="3" x1="305.846" y1="348.29" x2="305.846" y2="346.526"/>
	<line fill="none" stroke="#68EAEA" stroke-width="3" x1="305.846" y1="346.526" x2="305.846" y2="342.836"/>
	<line fill="none" stroke="#68EAEA" stroke-width="3" x1="305.846" y1="342.836" x2="304.67" y2="339.146"/>
	<line fill="none" stroke="#68EAEA" stroke-width="3" x1="106.564" y1="136.65" x2="205.016" y2="134.66"/>
	<line fill="none" stroke="#68EAEA" stroke-width="3" x1="26.665" y1="358.904" x2="21.076" y2="358.278"/>
	<line fill="none" stroke="#68EAEA" stroke-width="3" x1="22.941" y1="358.904" x2="19.299" y2="357.282"/>
	<line fill="none" stroke="#68EAEA" stroke-width="3" x1="19.299" y1="357.282" x2="16.591" y2="356.275"/>
	<line fill="none" stroke="#68EAEA" stroke-width="3" x1="16.591" y1="356.275" x2="14.189" y2="355.069"/>
	<line fill="none" stroke="#68EAEA" stroke-width="3" x1="16.591" y1="356.275" x2="11.184" y2="352.856"/>
	<line fill="none" stroke="#68EAEA" stroke-width="3" x1="14.189" y1="355.069" x2="9.303" y2="350.573"/>
	<line fill="none" stroke="#68EAEA" stroke-width="3" x1="11.184" y1="352.856" x2="7.582" y2="348.29"/>
	<line fill="none" stroke="#68EAEA" stroke-width="3" x1="9.303" y1="350.573" x2="7.588" y2="344.681"/>
	<line fill="none" stroke="#68EAEA" stroke-width="3" x1="7.582" y1="348.29" x2="7.582" y2="340.99"/>
	<line fill="none" stroke="#68EAEA" stroke-width="3" x1="7.662" y1="342.836" x2="9.383" y2="336.851"/>
	<line fill="none" stroke="#68EAEA" stroke-width="3" x1="8.523" y1="338.766" x2="106.564" y2="136.65"/>
	<line fill="none" stroke="#68EAEA" stroke-width="3" x1="305.258" y1="340.99" x2="203.389" y2="134.691"/>
</g>
<path opacity="0.72" fill="#61D8CA" enable-background="new    " d="M300.516,331.728c-1.689-3.155-3.748-6.186-5.73-9.237
	c0.553-1.094,0.715-2.41,0.49-3.729c-0.881-5.17-3.699-9.66-6.17-14.193c-1.049-1.925-2.738-2.609-4.391-2.457
	c-0.73-1.752-1.459-3.502-2.201-5.232c-1.109-2.596-1.123-5.454-2.73-7.926c-1.744-2.682-3.539-5.262-5.01-8.063
	c-3.197-6.093-6.037-12.562-8.287-18.937c-0.498-1.413-1.604-2.26-2.893-2.631c0.047-0.393,0.045-0.785-0.021-1.16
	c-0.27-1.512-1.984-3.057-3.406-4.582c-0.027-0.068-0.053-0.137-0.084-0.203c0.418-2.535-0.443-5.15-3.104-7.43
	c-0.074-0.062-0.158-0.117-0.24-0.176c-0.602-1.486-1.229-2.965-1.998-4.389c-2.961-5.482-4.4-11.271-7.121-16.885
	c-2.855-5.906-6.053-11.693-9.301-17.452c-3.205-5.679-4.842-11.677-7.627-17.499c-2.818-5.893-5.891-11.717-9.203-17.426
	c-1.686-2.903-3.402-5.807-4.854-8.801c-1.332-2.742-1.658-5.765-2.934-8.527c-1.705-3.697-3.221-9.871-6.855-13.467
	c0.361-1.768-0.297-3.596-2.535-4.553c-5.838-2.496-11.674-2.281-17.902-1.854c-8.184,0.561-16.395,0.438-24.574,1.107
	c-8.339,0.686-16.452,1.273-24.835,1.035c-8.858-0.252-17.683-0.781-26.545-0.306c-3.517,0.188-5.11,3.28-4.774,5.978
	c-2.024,2.787-3.312,6.448-4.625,9.205c-2.529,5.311-4.715,10.648-7.465,15.906c-2.533,4.844-4.828,9.499-6.927,14.479
	c-0.772,1.836-2.757,5.084-4.167,8.443c-1.523,0.365-2.895,1.424-3.531,3.327c-1.631,4.874-3.176,9.929-6.714,13.794
	c-1.522,1.662-1.642,3.611-0.974,5.238c-1.944,3.792-4.1,7.488-6.475,11.105c-0.699,1.064-0.92,2.111-0.805,3.068
	c-2.488,5.188-5.725,10.051-7.7,15.459c-0.56,1.531-1.022,3.214-1.544,4.889c-2.005,1.067-2.787,3.481-2.347,5.604
	c-0.515,0.842-1.109,1.622-1.823,2.301c-0.688,0.654-1.117,1.365-1.342,2.087c-0.695,0.973-1.01,2.203-0.947,3.413
	c-3.884,6.642-7.543,13.422-11.415,20.063c-5.165,8.86-9.577,17.854-13.632,27.271c-3.057,7.096-6.212,14.139-10.205,20.729
	c-1.842,2.018-3.189,4.021-4.078,6.643c-0.652,1.923-0.185,3.472,0.836,4.522c-0.558,1.116-1.058,2.158-1.262,2.977
	c-1.127,4.507,0.798,8.526,4.725,10.813c1.105,0.646,2.188,0.816,3.172,0.662c1.455,0.933,3.105,1.686,4.783,2.33
	c8.069,3.103,18.491,2.479,27.19,2.712c10.356,0.278,20.432,0.165,30.771-0.206c4.48-0.16,8.969,0.086,13.455-0.079
	c0.553-0.021,1.106-0.069,1.662-0.124c0.707,1.151,2.08,1.988,4.131,1.938c2.603-0.062,5.346-0.474,7.938-0.145
	c2.111,0.268,3.82-0.481,4.889-1.611c0.042-0.002,0.082-0.001,0.125-0.004c0.17-0.012,0.342-0.028,0.51-0.042
	c0.629,0.273,1.373,0.44,2.243,0.448c7.724,0.06,15.8,0.876,23.339-0.821c0.047,0.002,0.092,0.008,0.139,0.009
	c10.048,0.291,19.98,1.276,30.047,1.146c10.754-0.144,21.248,1.06,31.961-0.057c10.641-1.105,20.881,0.015,31.502-0.338
	c10.191-0.338,20.377-0.797,30.578-0.869c0.176,0.13,0.357,0.258,0.562,0.377c3.879,2.24,9.082,1.159,13.463,1.231
	c7.295,0.123,13.334,0.591,20.145-2.056c5.223-2.028,8.463-6.333,9.168-10.995C305.916,341.775,303.283,336.912,300.516,331.728z"/>
</svg>
