<?xml version="1.0" encoding="utf-8"?>
<!-- Generator: Adobe Illustrator 15.1.0, SVG Export Plug-In . SVG Version: 6.00 Build 0)  -->
<!DOCTYPE svg PUBLIC "-//W3C//DTD SVG 1.1//EN" "http://www.w3.org/Graphics/SVG/1.1/DTD/svg11.dtd">
<svg version="1.1"
	 id="svg2" xmlns:rdf="http://www.w3.org/1999/02/22-rdf-syntax-ns#" xmlns:svg="http://www.w3.org/2000/svg" xmlns:sodipodi="http://sodipodi.sourceforge.net/DTD/sodipodi-0.dtd" xmlns:dc="http://purl.org/dc/elements/1.1/" xmlns:cc="http://web.resource.org/cc/" xmlns:inkscape="http://www.inkscape.org/namespaces/inkscape" sodipodi:modified="true" sodipodi:docbase="/home/cburnett/wikipedia/images/chemistry" inkscape:output_extension="org.inkscape.output.svg.inkscape" sodipodi:docname="Conical flask.svg" sodipodi:version="0.32" inkscape:version="0.45"
	 xmlns="http://www.w3.org/2000/svg" xmlns:xlink="http://www.w3.org/1999/xlink" x="0px" y="0px" width="300px" height="350px"
	 viewBox="0 0 300 350" enable-background="new 0 0 300 350" xml:space="preserve">
<sodipodi:namedview  inkscape:cy="212.51272" borderopacity="1.0" height="475px" objecttolerance="10" guidetolerance="10" id="base" inkscape:grid-points="true" inkscape:window-y="31" pagecolor="#ffffff" inkscape:window-width="746" bordercolor="#666666" inkscape:window-height="965" inkscape:window-x="0" inkscape:document-units="px" gridspacingx="1px" inkscape:pageshadow="2" inkscape:zoom="1.4" inkscape:current-layer="layer1" inkscape:cx="175.18656" gridtolerance="10000" inkscape:pageopacity="0.0" showgrid="true" gridspacingy="1px" width="300px">
	</sodipodi:namedview>
<g>
	<g>
		<g>
			<g>
				<defs>
					<rect id="SVGID_1_" x="0.5" y="-1.022" width="300" height="363.834"/>
				</defs>
				<clipPath id="SVGID_2_">
					<use xlink:href="#SVGID_1_"  overflow="visible"/>
				</clipPath>
				<path clip-path="url(#SVGID_2_)" fill="#A9D0F5" d="M185.693-2.005c-5.824,4.256-5.824,4.256-5.824,8.512v63.835
					c0,29.791,116.484,255.348,116.484,255.348c5.823,17.021-11.646,21.278-29.119,21.278H34.261
					c-17.474,0-34.946-4.257-29.121-21.278c0,0,116.486-225.558,116.486-255.348V6.506c0-4.255,0-4.255-5.824-8.512H-10.225v387.458
					h318.617V-2.005H185.693z"/>
			</g>
		</g>
	</g>
</g>
<g>
	<g>
		<rect x="0.5" y="0.47" fill="none" width="300" height="363.834"/>
		<path fill="none" stroke="#000000" stroke-width="2" d="M185.693-0.513c-5.824,4.256-5.824,4.256-5.824,8.512v63.835
			c0,29.791,116.484,255.348,116.484,255.348c5.823,17.021-11.646,21.277-29.119,21.277H34.262
			c-17.475,0-34.947-4.256-29.121-21.277c0,0,116.485-225.558,116.485-255.348V7.998c0-4.255,0-4.255-5.823-8.512"/>
	</g>
</g>
</svg>
