<?xml version="1.0" encoding="utf-8"?>
<!-- Generator: Adobe Illustrator 15.1.0, SVG Export Plug-In . SVG Version: 6.00 Build 0)  -->
<!DOCTYPE svg PUBLIC "-//W3C//DTD SVG 1.1//EN" "http://www.w3.org/Graphics/SVG/1.1/DTD/svg11.dtd">
<svg version="1.1" id="Layer_1" xmlns="http://www.w3.org/2000/svg" xmlns:xlink="http://www.w3.org/1999/xlink" x="0px" y="0px"
	 width="278.5px" height="280px" viewBox="-0.44 -14.65 278.5 280" enable-background="new -0.44 -14.65 278.5 280"
	 xml:space="preserve">
<g id="Layer_1_1_" display="none">
	<g display="inline">
		
			<image overflow="visible" opacity="0.75" enable-background="new    " width="1196" height="1037" xlink:href="F1470FEC.png"  transform="matrix(0.2384 0 0 0.2384 2.874 -8.501)">
		</image>
		<g>
			<path fill="#FFFFFF" d="M253.374,0h-192c-6.627,0-12,5.373-12,12v75.443l-37.5,21.65l37.5,21.65V204c0,6.627,5.373,12,12,12h192
				c6.627,0,12-5.373,12-12V12C265.374,5.373,260.001,0,253.374,0z"/>
			<path fill="none" stroke="#000000" stroke-miterlimit="10" d="M253.374,0h-192c-6.627,0-12,5.373-12,12v75.443l-37.5,21.65
				l37.5,21.65V204c0,6.627,5.373,12,12,12h192c6.627,0,12-5.373,12-12V12C265.374,5.373,260.001,0,253.374,0z"/>
		</g>
	</g>
</g>
<image overflow="visible" enable-background="new    " width="306" height="252" xlink:href="F1470FED.png"  transform="matrix(-4.371136e-08 -1 1 -4.371136e-08 22.0596 285.3491)">
</image>
<g>
	<path fill="#FFFFFF" d="M29.21,60.682v75.993c0,38.737,31.406,70.146,70.147,70.146h8.5l29.496,51.088l29.496-51.088h8.5
		c38.738,0,70.146-31.408,70.146-70.146V60.682c0-38.737-31.408-70.146-70.146-70.146H99.357
		C60.616-9.465,29.21,21.943,29.21,60.682z"/>
	<path fill="none" stroke="#000000" stroke-width="5" stroke-miterlimit="10" d="M29.21,60.682v75.993
		c0,38.737,31.406,70.146,70.147,70.146h8.5l29.496,51.088l29.496-51.088h8.5c38.738,0,70.146-31.408,70.146-70.146V60.682
		c0-38.737-31.408-70.146-70.146-70.146H99.357C60.616-9.465,29.21,21.943,29.21,60.682z"/>
</g>
</svg>
