<?xml version="1.0" encoding="utf-8"?>
<!-- Generator: Adobe Illustrator 15.1.0, SVG Export Plug-In . SVG Version: 6.00 Build 0)  -->
<!DOCTYPE svg PUBLIC "-//W3C//DTD SVG 1.1//EN" "http://www.w3.org/Graphics/SVG/1.1/DTD/svg11.dtd">
<svg version="1.1" id="Layer_1" xmlns="http://www.w3.org/2000/svg" xmlns:xlink="http://www.w3.org/1999/xlink" x="0px" y="0px"
	 width="72px" height="72px" viewBox="0 0 72 72" enable-background="new 0 0 72 72" xml:space="preserve">
<pattern  width="7.2" height="18" patternUnits="userSpaceOnUse" id="New_Pattern_Swatch_2" viewBox="0 -18 7.2 18" overflow="visible">
	<g>
		<polygon fill="none" points="0,0 7.2,0 7.2,-18 0,-18 		"/>
		<polygon fill="#58595B" points="3.6,0 0,0 0,-18 3.6,-18 		"/>
		<polygon fill="#6D6E71" points="7.2,0 3.6,0 3.6,-18 7.2,-18 		"/>
	</g>
</pattern>
<pattern  id="SVGID_1_" xlink:href="#New_Pattern_Swatch_2" patternTransform="matrix(0.7071 -0.7071 0.7071 0.7071 3342.8711 -8129.8481)">
</pattern>
<path fill="url(#SVGID_1_)" d="M72,60c0,6.627-5.373,12-12,12H12C5.373,72,0,66.627,0,60V12C0,5.373,5.373,0,12,0h48
	c6.627,0,12,5.373,12,12V60z"/>
<polygon stroke="#FFFFFF" stroke-miterlimit="10" points="67.208,29.82 32.138,29.82 32.138,20.211 4.792,35.999 32.138,51.788 
	32.138,41.148 67.208,41.148 "/>
</svg>
