<?xml version="1.0" encoding="utf-8"?>
<!-- Generator: Adobe Illustrator 15.1.0, SVG Export Plug-In . SVG Version: 6.00 Build 0)  -->
<!DOCTYPE svg PUBLIC "-//W3C//DTD SVG 1.1//EN" "http://www.w3.org/Graphics/SVG/1.1/DTD/svg11.dtd">
<svg version="1.1" xmlns="http://www.w3.org/2000/svg" xmlns:xlink="http://www.w3.org/1999/xlink" x="0px" y="0px" width="246px"
	 height="815px" viewBox="0 0 246 815" enable-background="new 0 0 246 815" xml:space="preserve">
<g id="Layer_1">
	<title>Layer 1</title>
	<g>
		
			<linearGradient id="rect1307_1_" gradientUnits="userSpaceOnUse" x1="-208.1943" y1="235.2349" x2="-210.9525" y2="235.2349" gradientTransform="matrix(19.703 0 0 -62.7448 4253.2544 15530.8828)">
			<stop  offset="0" style="stop-color:#E7E5E4"/>
			<stop  offset="1" style="stop-color:#898683"/>
		</linearGradient>
		
			<rect id="rect1307" x="141.369" y="739.79" fill="url(#rect1307_1_)" stroke="#000000" stroke-width="3.9705" stroke-linecap="round" stroke-linejoin="round" width="19.703" height="62.745"/>
		
			<linearGradient id="rect2182_1_" gradientUnits="userSpaceOnUse" x1="-217.8901" y1="235.0869" x2="-219.5563" y2="235.0869" gradientTransform="matrix(36.899 0 0 -168.9544 8191.167 40384.0938)">
			<stop  offset="0" style="stop-color:#E7E5E4"/>
			<stop  offset="1" style="stop-color:#898683"/>
		</linearGradient>
		
			<rect id="rect2182" x="132.771" y="580.69" fill="url(#rect2182_1_)" stroke="#000000" stroke-width="3.9705" stroke-linecap="round" stroke-linejoin="round" width="36.897" height="168.953"/>
		
			<linearGradient id="rect2184_1_" gradientUnits="userSpaceOnUse" x1="-221.9844" y1="235.3335" x2="-223.4147" y2="235.9946" gradientTransform="matrix(58.882 0 0 -40.9284 13225.248 10203.9629)">
			<stop  offset="0" style="stop-color:#E7E5E4"/>
			<stop  offset="1" style="stop-color:#898683"/>
		</linearGradient>
		
			<rect id="rect2184" x="121.779" y="550.639" fill="url(#rect2184_1_)" stroke="#000000" stroke-width="3.9705" stroke-linecap="round" stroke-linejoin="round" width="58.882" height="40.93"/>
		
			<linearGradient id="rect2186_1_" gradientUnits="userSpaceOnUse" x1="-223.1021" y1="235.1196" x2="-224.3665" y2="235.1196" gradientTransform="matrix(69.5071 0 0 -122.7106 15658.4023 29343.1094)">
			<stop  offset="0" style="stop-color:#E7E5E4"/>
			<stop  offset="1" style="stop-color:#898683"/>
		</linearGradient>
		
			<rect id="rect2186" x="116.467" y="430.084" fill="url(#rect2186_1_)" stroke="#000000" stroke-width="3.9705" stroke-linecap="round" stroke-linejoin="round" width="69.508" height="122.711"/>
		
			<linearGradient id="rect3061_2_" gradientUnits="userSpaceOnUse" x1="-226.8218" y1="235.0361" x2="-227.7052" y2="235.0361" gradientTransform="matrix(213.2016 0 0 -422.9696 48535.6172 99638.2188)">
			<stop  offset="0" style="stop-color:#E7E5E4"/>
			<stop  offset="1" style="stop-color:#898683"/>
		</linearGradient>
		
			<path id="rect3061" fill="url(#rect3061_2_)" stroke="#000000" stroke-width="3.9705" stroke-linecap="round" stroke-linejoin="round" d="
			M74.684,14.362C53.419,14.577,60.257,10.898,47.5,19.35c-3.808,0.922-18.613,28.341-9.333,26.977
			c42.365-8.487,67.292,20.8,65.763,40.418l12.537,350.361h69.508l26.859-386.773L204.5,13.746h-54.333
			C150.167,13.746,95.824,14.148,74.684,14.362z"/>
		
			<line fill="none" stroke="#8E8E8E" stroke-width="2" stroke-linecap="round" stroke-linejoin="round" x1="41.167" y1="35.667" x2="205.834" y2="35.667"/>
		
			<linearGradient id="rect11166_21_" gradientUnits="userSpaceOnUse" x1="-224.563" y1="232.5093" x2="-224.5897" y2="233.4874" gradientTransform="matrix(96.6136 18.055 2.6427 -14.1411 21238.0312 7456.5605)">
			<stop  offset="0" style="stop-color:#E7E5E4"/>
			<stop  offset="1" style="stop-color:#ADADAD"/>
		</linearGradient>
		<path id="rect11166_1_" fill="url(#rect11166_21_)" d="M106.428,90.823L206.833,109l-1.148,14.02l-99.257-18.055V90.823z"/>
		
			<linearGradient id="rect11166_22_" gradientUnits="userSpaceOnUse" x1="-224.5361" y1="231.5391" x2="-224.5633" y2="232.5309" gradientTransform="matrix(96.6136 18.055 2.6427 -14.1411 21238.0312 7456.5605)">
			<stop  offset="0" style="stop-color:#E7E5E4"/>
			<stop  offset="1" style="stop-color:#ADADAD"/>
		</linearGradient>
		<path id="rect11166_2_" fill="url(#rect11166_22_)" d="M106.428,104.823L206.833,123l-1.148,14.02l-99.257-17.854V104.823z"/>
		
			<linearGradient id="rect11166_23_" gradientUnits="userSpaceOnUse" x1="-224.5103" y1="230.5825" x2="-224.537" y2="231.5602" gradientTransform="matrix(96.6136 18.055 2.6427 -14.1411 21238.0312 7456.5605)">
			<stop  offset="0" style="stop-color:#E7E5E4"/>
			<stop  offset="1" style="stop-color:#ADADAD"/>
		</linearGradient>
		<path id="rect11166_4_" fill="url(#rect11166_23_)" d="M106.428,119.167l100.405,18.03l-1.148,14.02l-99.257-18.055V119.167z"/>
		
			<linearGradient id="rect11166_24_" gradientUnits="userSpaceOnUse" x1="-224.4839" y1="229.626" x2="-224.5106" y2="230.6036" gradientTransform="matrix(96.6136 18.055 2.6427 -14.1411 21238.0312 7456.5605)">
			<stop  offset="0" style="stop-color:#E7E5E4"/>
			<stop  offset="1" style="stop-color:#ADADAD"/>
		</linearGradient>
		<path id="rect11166_3_" fill="url(#rect11166_24_)" d="M106.428,133.02l100.405,18.177l-1.148,14.02l-99.257-18.055V133.02z"/>
		
			<linearGradient id="rect11166_25_" gradientUnits="userSpaceOnUse" x1="-224.4585" y1="228.6895" x2="-224.4852" y2="229.6676" gradientTransform="matrix(96.6136 18.055 2.6427 -14.1411 21238.0312 7456.5605)">
			<stop  offset="0" style="stop-color:#E7E5E4"/>
			<stop  offset="1" style="stop-color:#ADADAD"/>
		</linearGradient>
		<path id="rect11166_8_" fill="url(#rect11166_25_)" d="M106.428,146.723L206.833,164.9l-1.148,14.02l-99.257-18.055V146.723z"/>
		
			<linearGradient id="rect11166_26_" gradientUnits="userSpaceOnUse" x1="-224.4473" y1="227.7329" x2="-224.474" y2="228.7106" gradientTransform="matrix(96.6136 18.055 2.6427 -14.1411 21238.0312 7456.5605)">
			<stop  offset="0" style="stop-color:#E7E5E4"/>
			<stop  offset="1" style="stop-color:#ADADAD"/>
		</linearGradient>
		<path id="rect11166_7_" fill="url(#rect11166_26_)" d="M106.428,160.723l97.515,17.653l-1.133,14.021l-96.382-17.532V160.723z"/>
		
			<linearGradient id="rect11166_27_" gradientUnits="userSpaceOnUse" x1="-224.4268" y1="226.7622" x2="-224.4534" y2="227.7379" gradientTransform="matrix(96.6136 18.055 2.6427 -14.1411 21238.0312 7456.5605)">
			<stop  offset="0" style="stop-color:#E7E5E4"/>
			<stop  offset="1" style="stop-color:#ADADAD"/>
		</linearGradient>
		<path id="rect11166_6_" fill="url(#rect11166_27_)" d="M106.428,174.92l96.382,17.477l-0.816,14.048l-95.565-17.384V174.92z"/>
		
			<linearGradient id="rect11166_28_" gradientUnits="userSpaceOnUse" x1="-224.394" y1="225.7964" x2="-224.4211" y2="226.7867" gradientTransform="matrix(96.6136 18.055 2.6427 -14.1411 21238.0312 7456.5605)">
			<stop  offset="0" style="stop-color:#E7E5E4"/>
			<stop  offset="1" style="stop-color:#ADADAD"/>
		</linearGradient>
		<path id="rect11166_5_" fill="url(#rect11166_28_)" d="M107.586,188.92l95.224,17.44l-1.777,13.917l-92.891-16.766L107.586,188.92
			z"/>
		
			<linearGradient id="rect11166_29_" gradientUnits="userSpaceOnUse" x1="-224.375" y1="224.8633" x2="-224.4009" y2="225.8112" gradientTransform="matrix(96.6136 18.055 2.6427 -14.1411 21238.0312 7456.5605)">
			<stop  offset="0" style="stop-color:#E7E5E4"/>
			<stop  offset="1" style="stop-color:#ADADAD"/>
		</linearGradient>
		<path id="rect11166_12_" fill="url(#rect11166_29_)" d="M108.141,203.511l92.891,16.766l-0.889,13.705l-91.526-17.158
			L108.141,203.511z"/>
		
			<linearGradient id="rect11166_30_" gradientUnits="userSpaceOnUse" x1="-224.3457" y1="223.896" x2="-224.373" y2="224.8932" gradientTransform="matrix(96.6136 18.055 2.6427 -14.1411 21238.0312 7456.5605)">
			<stop  offset="0" style="stop-color:#E7E5E4"/>
			<stop  offset="1" style="stop-color:#ADADAD"/>
		</linearGradient>
		<path id="rect11166_11_" fill="url(#rect11166_30_)" d="M108.617,216.823l92.415,17.158l-1.895,13.852l-90.028-16.328
			L108.617,216.823z"/>
		
			<linearGradient id="rect11166_31_" gradientUnits="userSpaceOnUse" x1="-224.3267" y1="222.9346" x2="-224.3532" y2="223.9034" gradientTransform="matrix(96.6136 18.055 2.6427 -14.1411 21238.0312 7456.5605)">
			<stop  offset="0" style="stop-color:#E7E5E4"/>
			<stop  offset="1" style="stop-color:#ADADAD"/>
		</linearGradient>
		<path id="rect11166_10_" fill="url(#rect11166_31_)" d="M109.11,231.505l90.028,16.328l-0.991,14.001l-88.436-16.22
			L109.11,231.505z"/>
		
			<linearGradient id="rect11166_32_" gradientUnits="userSpaceOnUse" x1="-224.3022" y1="221.9727" x2="-224.3287" y2="222.9386" gradientTransform="matrix(96.6136 18.055 2.6427 -14.1411 21238.0312 7456.5605)">
			<stop  offset="0" style="stop-color:#E7E5E4"/>
			<stop  offset="1" style="stop-color:#ADADAD"/>
		</linearGradient>
		<path id="rect11166_9_" fill="url(#rect11166_32_)" d="M109.711,245.615l88.436,16.22l-1.403,13.755l-86.62-15.764
			L109.711,245.615z"/>
		
			<linearGradient id="rect11166_33_" gradientUnits="userSpaceOnUse" x1="-224.2817" y1="221.0166" x2="-224.308" y2="221.9772" gradientTransform="matrix(96.6136 18.055 2.6427 -14.1411 21238.0312 7456.5605)">
			<stop  offset="0" style="stop-color:#E7E5E4"/>
			<stop  offset="1" style="stop-color:#ADADAD"/>
		</linearGradient>
		<path id="rect11166_16_" fill="url(#rect11166_33_)" d="M110.123,259.826l86.62,15.764l-0.497,13.591l-85.619-15.264
			L110.123,259.826z"/>
		
			<linearGradient id="rect11166_34_" gradientUnits="userSpaceOnUse" x1="-224.2549" y1="220.0459" x2="-224.2821" y2="221.0421" gradientTransform="matrix(96.6136 18.055 2.6427 -14.1411 21238.0312 7456.5605)">
			<stop  offset="0" style="stop-color:#E7E5E4"/>
			<stop  offset="1" style="stop-color:#ADADAD"/>
		</linearGradient>
		<path id="rect11166_15_" fill="url(#rect11166_34_)" d="M110.627,273.917l85.619,15.264l-1.258,14.232l-83.991-15.232
			L110.627,273.917z"/>
		
			<linearGradient id="rect11166_35_" gradientUnits="userSpaceOnUse" x1="-224.2324" y1="219.0532" x2="-224.2598" y2="220.0538" gradientTransform="matrix(96.6136 18.055 2.6427 -14.1411 21238.0312 7456.5605)">
			<stop  offset="0" style="stop-color:#E7E5E4"/>
			<stop  offset="1" style="stop-color:#ADADAD"/>
		</linearGradient>
		<path id="rect11166_14_" fill="url(#rect11166_35_)" d="M110.998,288.181l83.991,15.232l-0.674,13.597l-82.652-14.177
			L110.998,288.181z"/>
		
			<linearGradient id="rect11166_36_" gradientUnits="userSpaceOnUse" x1="-224.2075" y1="218.123" x2="-224.2347" y2="219.1168" gradientTransform="matrix(96.6136 18.055 2.6427 -14.1411 21238.0312 7456.5605)">
			<stop  offset="0" style="stop-color:#E7E5E4"/>
			<stop  offset="1" style="stop-color:#ADADAD"/>
		</linearGradient>
		<path id="rect11166_13_" fill="url(#rect11166_36_)" d="M111.662,302.833l82.652,14.177l-0.275,13.765l-81.887-14.239
			L111.662,302.833z"/>
		
			<linearGradient id="rect11166_37_" gradientUnits="userSpaceOnUse" x1="-224.1812" y1="217.209" x2="-224.2075" y2="218.173" gradientTransform="matrix(96.6136 18.055 2.6427 -14.1411 21238.0312 7456.5605)">
			<stop  offset="0" style="stop-color:#E7E5E4"/>
			<stop  offset="1" style="stop-color:#ADADAD"/>
		</linearGradient>
		<path id="rect11166_20_" fill="url(#rect11166_37_)" d="M112.152,316.537l81.887,14.239l-1.589,13.816l-79.911-14.662
			L112.152,316.537z"/>
		
			<linearGradient id="rect11166_38_" gradientUnits="userSpaceOnUse" x1="-224.1611" y1="216.2598" x2="-224.1872" y2="217.2125" gradientTransform="matrix(96.6136 18.055 2.6427 -14.1411 21238.0312 7456.5605)">
			<stop  offset="0" style="stop-color:#E7E5E4"/>
			<stop  offset="1" style="stop-color:#ADADAD"/>
		</linearGradient>
		<path id="rect11166_19_" fill="url(#rect11166_38_)" d="M112.539,329.93l79.911,14.662l-1.003,13.705l-78.21-14.963
			L112.539,329.93z"/>
		
			<linearGradient id="rect11166_39_" gradientUnits="userSpaceOnUse" x1="-224.1362" y1="215.2817" x2="-224.1642" y2="216.3053" gradientTransform="matrix(96.6136 18.055 2.6427 -14.1411 21238.0312 7456.5605)">
			<stop  offset="0" style="stop-color:#E7E5E4"/>
			<stop  offset="1" style="stop-color:#ADADAD"/>
		</linearGradient>
		<path id="rect11166_18_" fill="url(#rect11166_39_)" d="M113.237,343.333l78.21,14.963l-0.98,14.128l-77.229-14.171V343.333z"/>
		
			<linearGradient id="rect11166_40_" gradientUnits="userSpaceOnUse" x1="-224.1152" y1="214.3301" x2="-224.1414" y2="215.2858" gradientTransform="matrix(96.6136 18.055 2.6427 -14.1411 21238.0312 7456.5605)">
			<stop  offset="0" style="stop-color:#E7E5E4"/>
			<stop  offset="1" style="stop-color:#ADADAD"/>
		</linearGradient>
		<path id="rect11166_17_" fill="url(#rect11166_40_)" d="M113.237,358.253l77.229,14.171l-0.955,13.754l-75.374-14.16
			L113.237,358.253z"/>
		<path id="rect3061_1_" fill="none" stroke="#000000" stroke-width="3.9705" stroke-linecap="round" stroke-linejoin="round" d="
			M74.684,14.362C53.419,14.577,60.257,10.898,47.5,19.35c-3.808,0.922-18.613,28.341-9.333,26.977
			c42.365-8.487,67.292,20.8,65.763,39.499l12.537,350.362l69.508,0.919l26.859-386.773L204.5,13.746h-54.333
			C150.167,13.746,95.824,14.148,74.684,14.362z"/>
	</g>
</g>
<g id="Layer_2" display="none">
	
		<linearGradient id="rect11166_41_" gradientUnits="userSpaceOnUse" x1="-224.6182" y1="234.6138" x2="-224.6182" y2="239.7693" gradientTransform="matrix(93.5602 0 0 -14.3859 21166.6465 3460.0215)">
		<stop  offset="0" style="stop-color:#E7E5E4"/>
		<stop  offset="1" style="stop-color:#898683"/>
	</linearGradient>
	<path id="rect11166" display="inline" fill="url(#rect11166_41_)" d="M104.504,57.462h93.561v14.386h-93.561V57.462z"/>
	
		<linearGradient id="rect12922_1_" gradientUnits="userSpaceOnUse" x1="-224.6182" y1="234.6143" x2="-224.6182" y2="239.7673" gradientTransform="matrix(93.5602 0 0 -14.3859 21166.6465 3474.084)">
		<stop  offset="0" style="stop-color:#E7E5E4"/>
		<stop  offset="1" style="stop-color:#898683"/>
	</linearGradient>
	<path id="rect12922" display="inline" fill="url(#rect12922_1_)" d="M104.504,71.527h93.561v14.386h-93.561V71.527z"/>
	
		<linearGradient id="rect12926_1_" gradientUnits="userSpaceOnUse" x1="-224.6182" y1="234.6128" x2="-224.6182" y2="239.7683" gradientTransform="matrix(93.5602 0 0 -14.3859 21166.6465 3488.5059)">
		<stop  offset="0" style="stop-color:#E7E5E4"/>
		<stop  offset="1" style="stop-color:#898683"/>
	</linearGradient>
	<path id="rect12926" display="inline" fill="url(#rect12926_1_)" d="M104.504,85.951h93.561v14.386h-93.561V85.951z"/>
	
		<linearGradient id="rect12928_1_" gradientUnits="userSpaceOnUse" x1="-224.6182" y1="234.6128" x2="-224.6182" y2="239.7683" gradientTransform="matrix(93.5602 0 0 -14.3859 21166.6465 3502.5684)">
		<stop  offset="0" style="stop-color:#E7E5E4"/>
		<stop  offset="1" style="stop-color:#898683"/>
	</linearGradient>
	<path id="rect12928" display="inline" fill="url(#rect12928_1_)" d="M104.504,100.015h93.561v14.386h-93.561V100.015z"/>
	
		<linearGradient id="rect12934_1_" gradientUnits="userSpaceOnUse" x1="-224.6182" y1="234.6133" x2="-224.6182" y2="239.7689" gradientTransform="matrix(93.5602 0 0 -14.3859 21166.6465 3517.3965)">
		<stop  offset="0" style="stop-color:#E7E5E4"/>
		<stop  offset="1" style="stop-color:#898683"/>
	</linearGradient>
	<path id="rect12934" display="inline" fill="url(#rect12934_1_)" d="M104.504,114.839h93.561v14.386h-93.561V114.839z"/>
	
		<linearGradient id="rect12936_1_" gradientUnits="userSpaceOnUse" x1="-224.6182" y1="234.6147" x2="-224.6182" y2="239.7703" gradientTransform="matrix(93.5602 0 0 -14.3859 21166.6465 3531.4512)">
		<stop  offset="0" style="stop-color:#E7E5E4"/>
		<stop  offset="1" style="stop-color:#898683"/>
	</linearGradient>
	<path id="rect12936" display="inline" fill="url(#rect12936_1_)" d="M104.504,128.904h93.561v14.386h-93.561V128.904z"/>
	
		<linearGradient id="rect12942_1_" gradientUnits="userSpaceOnUse" x1="-225.6611" y1="234.6128" x2="-225.6611" y2="239.7734" gradientTransform="matrix(122.7798 0 0 -14.3859 27872.5508 3545.1621)">
		<stop  offset="0" style="stop-color:#E7E5E4"/>
		<stop  offset="1" style="stop-color:#898683"/>
	</linearGradient>
	<path id="rect12942" display="inline" fill="url(#rect12942_1_)" d="M104.504,142.602h122.779v14.386H104.504V142.602z"/>
	
		<linearGradient id="rect12944_1_" gradientUnits="userSpaceOnUse" x1="-222.5156" y1="234.6138" x2="-222.5156" y2="239.7693" gradientTransform="matrix(63.2168 0 0 -14.3859 14202.8203 3559.2246)">
		<stop  offset="0" style="stop-color:#E7E5E4"/>
		<stop  offset="1" style="stop-color:#898683"/>
	</linearGradient>
	<path id="rect12944" display="inline" fill="url(#rect12944_1_)" d="M104.504,156.667h63.217
		c-5.312,2.377-10.674,4.702-9.41,14.386h-53.807V156.667z"/>
	
		<linearGradient id="path12959_1_" gradientUnits="userSpaceOnUse" x1="-221.3608" y1="234.6138" x2="-221.3608" y2="239.7693" gradientTransform="matrix(53.6643 0 0 -14.3859 12010.5225 3574.0996)">
		<stop  offset="0" style="stop-color:#E7E5E4"/>
		<stop  offset="1" style="stop-color:#898683"/>
	</linearGradient>
	<path id="path12959" display="inline" fill="url(#path12959_1_)" d="M104.504,171.55h53.664v14.386h-53.664V171.55z"/>
	
		<linearGradient id="path12977_1_" gradientUnits="userSpaceOnUse" x1="-221.3608" y1="234.6147" x2="-221.3608" y2="239.7703" gradientTransform="matrix(53.6643 0 0 -14.3859 12010.5225 3588.209)">
		<stop  offset="0" style="stop-color:#E7E5E4"/>
		<stop  offset="1" style="stop-color:#898683"/>
	</linearGradient>
	<path id="path12977" display="inline" fill="url(#path12977_1_)" d="M104.504,185.646h53.664v14.387h-53.664V185.646z"/>
	
		<linearGradient id="path12981_1_" gradientUnits="userSpaceOnUse" x1="-221.3608" y1="234.6138" x2="-221.3608" y2="239.7693" gradientTransform="matrix(53.6643 0 0 -14.3859 12010.5225 3603.0684)">
		<stop  offset="0" style="stop-color:#E7E5E4"/>
		<stop  offset="1" style="stop-color:#898683"/>
	</linearGradient>
	<path id="path12981" display="inline" fill="url(#path12981_1_)" d="M104.504,200.514h53.664v14.385h-53.664V200.514z"/>
	
		<linearGradient id="path12983_1_" gradientUnits="userSpaceOnUse" x1="-221.3608" y1="234.6138" x2="-221.3608" y2="239.7708" gradientTransform="matrix(53.6643 0 0 -14.3859 12010.5225 3617.1621)">
		<stop  offset="0" style="stop-color:#E7E5E4"/>
		<stop  offset="1" style="stop-color:#898683"/>
	</linearGradient>
	<path id="path12983" display="inline" fill="url(#path12983_1_)" d="M104.504,214.609h53.664v14.387h-53.664V214.609z"/>
	
		<linearGradient id="path12989_1_" gradientUnits="userSpaceOnUse" x1="-221.3608" y1="234.6147" x2="-221.3608" y2="239.7703" gradientTransform="matrix(53.6643 0 0 -14.3859 12010.5225 3632.4121)">
		<stop  offset="0" style="stop-color:#E7E5E4"/>
		<stop  offset="1" style="stop-color:#898683"/>
	</linearGradient>
	<path id="path12989" display="inline" fill="url(#path12989_1_)" d="M104.504,229.861h53.664v14.385h-53.664V229.861z"/>
	
		<linearGradient id="path12991_1_" gradientUnits="userSpaceOnUse" x1="-221.3608" y1="234.6138" x2="-221.3608" y2="239.7708" gradientTransform="matrix(53.6643 0 0 -14.3859 12010.5225 3646.5215)">
		<stop  offset="0" style="stop-color:#E7E5E4"/>
		<stop  offset="1" style="stop-color:#898683"/>
	</linearGradient>
	<path id="path12991" display="inline" fill="url(#path12991_1_)" d="M104.504,243.957h53.664v14.387h-53.664V243.957z"/>
	
		<linearGradient id="path12993_1_" gradientUnits="userSpaceOnUse" x1="-221.3608" y1="234.6123" x2="-221.3608" y2="239.7678" gradientTransform="matrix(53.6643 0 0 -14.3859 12010.5225 3661.3809)">
		<stop  offset="0" style="stop-color:#E7E5E4"/>
		<stop  offset="1" style="stop-color:#898683"/>
	</linearGradient>
	<path id="path12993" display="inline" fill="url(#path12993_1_)" d="M104.504,258.824h53.664v14.386h-53.664V258.824z"/>
	
		<linearGradient id="path12995_1_" gradientUnits="userSpaceOnUse" x1="-221.3608" y1="234.6138" x2="-221.3608" y2="239.7693" gradientTransform="matrix(53.6643 0 0 -14.3859 12010.5225 3675.4668)">
		<stop  offset="0" style="stop-color:#E7E5E4"/>
		<stop  offset="1" style="stop-color:#898683"/>
	</linearGradient>
	<path id="path12995" display="inline" fill="url(#path12995_1_)" d="M104.504,272.921h53.664v14.386h-53.664V272.921z"/>
	
		<linearGradient id="path13005_1_" gradientUnits="userSpaceOnUse" x1="-221.3608" y1="234.6143" x2="-221.3608" y2="239.7673" gradientTransform="matrix(53.6643 0 0 -14.3859 12010.5225 3690.8652)">
		<stop  offset="0" style="stop-color:#E7E5E4"/>
		<stop  offset="1" style="stop-color:#898683"/>
	</linearGradient>
	<path id="path13005" display="inline" fill="url(#path13005_1_)" d="M104.504,288.3h53.664v14.386h-53.664V288.3z"/>
	
		<linearGradient id="path13007_1_" gradientUnits="userSpaceOnUse" x1="-221.3608" y1="234.6128" x2="-221.3608" y2="239.7735" gradientTransform="matrix(53.6643 0 0 -14.3859 12010.5225 3704.959)">
		<stop  offset="0" style="stop-color:#E7E5E4"/>
		<stop  offset="1" style="stop-color:#898683"/>
	</linearGradient>
	<path id="path13007" display="inline" fill="url(#path13007_1_)" d="M104.504,302.396h53.664v14.387h-53.664V302.396z"/>
	
		<linearGradient id="path13009_1_" gradientUnits="userSpaceOnUse" x1="-221.3608" y1="234.6128" x2="-221.3608" y2="239.7683" gradientTransform="matrix(53.6643 0 0 -14.3859 12010.5225 3719.8184)">
		<stop  offset="0" style="stop-color:#E7E5E4"/>
		<stop  offset="1" style="stop-color:#898683"/>
	</linearGradient>
	<path id="path13009" display="inline" fill="url(#path13009_1_)" d="M104.504,317.264h53.664v14.386h-53.664V317.264z"/>
	
		<linearGradient id="path13011_1_" gradientUnits="userSpaceOnUse" x1="-221.3608" y1="234.6147" x2="-221.3608" y2="239.7667" gradientTransform="matrix(53.6643 0 0 -14.3859 12010.5225 3733.9121)">
		<stop  offset="0" style="stop-color:#E7E5E4"/>
		<stop  offset="1" style="stop-color:#898683"/>
	</linearGradient>
	<path id="path13011" display="inline" fill="url(#path13011_1_)" d="M104.504,331.359h53.664v14.387h-53.664V331.359z"/>
	
		<linearGradient id="path13021_1_" gradientUnits="userSpaceOnUse" x1="-221.3608" y1="234.6138" x2="-221.3608" y2="239.7708" gradientTransform="matrix(53.6643 0 0 -14.3859 12010.5225 3749.8496)">
		<stop  offset="0" style="stop-color:#E7E5E4"/>
		<stop  offset="1" style="stop-color:#898683"/>
	</linearGradient>
	<path id="path13021" display="inline" fill="url(#path13021_1_)" d="M104.504,347.301h53.664v14.387h-53.664V347.301z"/>
	
		<linearGradient id="path13023_1_" gradientUnits="userSpaceOnUse" x1="-221.3608" y1="234.6108" x2="-221.3608" y2="239.7765" gradientTransform="matrix(53.6643 0 0 -14.3859 12010.5225 3763.9434)">
		<stop  offset="0" style="stop-color:#E7E5E4"/>
		<stop  offset="1" style="stop-color:#898683"/>
	</linearGradient>
	<path id="path13023" display="inline" fill="url(#path13023_1_)" d="M104.504,361.397h53.664v14.387h-53.664V361.397z"/>
	
		<linearGradient id="path13025_1_" gradientUnits="userSpaceOnUse" x1="-221.3608" y1="234.6138" x2="-221.3608" y2="239.7719" gradientTransform="matrix(53.6643 0 0 -14.386 12010.5225 3778.8271)">
		<stop  offset="0" style="stop-color:#E7E5E4"/>
		<stop  offset="1" style="stop-color:#898683"/>
	</linearGradient>
	<path id="path13025" display="inline" fill="url(#path13025_1_)" d="M104.504,376.264h53.664v14.389h-53.664V376.264z"/>
	
		<linearGradient id="path13027_1_" gradientUnits="userSpaceOnUse" x1="-221.3608" y1="234.6128" x2="-221.3608" y2="239.7683" gradientTransform="matrix(53.6643 0 0 -14.3859 12010.5225 3792.9277)">
		<stop  offset="0" style="stop-color:#E7E5E4"/>
		<stop  offset="1" style="stop-color:#898683"/>
	</linearGradient>
	<path id="path13027" display="inline" fill="url(#path13027_1_)" d="M104.504,390.361h53.664v14.386h-53.664V390.361z"/>
	
		<linearGradient id="path13037_1_" gradientUnits="userSpaceOnUse" x1="-221.3608" y1="234.6128" x2="-221.3608" y2="239.7683" gradientTransform="matrix(53.6643 0 0 -14.386 12010.5225 3808.1865)">
		<stop  offset="0" style="stop-color:#E7E5E4"/>
		<stop  offset="1" style="stop-color:#898683"/>
	</linearGradient>
	<path id="path13037" display="inline" fill="url(#path13037_1_)" d="M104.504,405.612h53.664v14.386h-53.664V405.612z"/>
	
		<linearGradient id="path13039_1_" gradientUnits="userSpaceOnUse" x1="-221.3608" y1="234.6138" x2="-221.3608" y2="239.7693" gradientTransform="matrix(53.6643 0 0 -14.3859 12010.5225 3822.2559)">
		<stop  offset="0" style="stop-color:#E7E5E4"/>
		<stop  offset="1" style="stop-color:#898683"/>
	</linearGradient>
	<path id="path13039" display="inline" fill="url(#path13039_1_)" d="M104.504,419.709h53.664v14.386h-53.664V419.709z"/>
</g>
</svg>
