<?xml version="1.0" encoding="utf-8"?>
<!-- Generator: Adobe Illustrator 19.2.1, SVG Export Plug-In . SVG Version: 6.00 Build 0)  -->
<svg version="1.1" id="Layer_1" xmlns="http://www.w3.org/2000/svg" xmlns:xlink="http://www.w3.org/1999/xlink" x="0px" y="0px"
	 viewBox="0 0 246 815" style="enable-background:new 0 0 246 815;" xml:space="preserve">
<style type="text/css">
	.st0{fill:url(#rect1307_1_);stroke:#000000;stroke-width:3.9705;stroke-linecap:round;stroke-linejoin:round;}
	.st1{fill:url(#rect2182_1_);stroke:#000000;stroke-width:3.9705;stroke-linecap:round;stroke-linejoin:round;}
	.st2{fill:url(#rect2184_1_);stroke:#000000;stroke-width:3.9705;stroke-linecap:round;stroke-linejoin:round;}
	.st3{fill:url(#rect2186_1_);stroke:#000000;stroke-width:3.9705;stroke-linecap:round;stroke-linejoin:round;}
	.st4{fill:url(#rect3061_2_);stroke:#000000;stroke-width:3.9705;stroke-linecap:round;stroke-linejoin:round;}
	.st5{stroke:#000000;stroke-width:3.9705;stroke-linecap:round;stroke-linejoin:round;}
	.st6{fill:url(#rect11166_1_);}
	.st7{fill:url(#rect12922_1_);}
	.st8{fill:url(#rect12926_1_);}
	.st9{fill:url(#rect12928_1_);}
	.st10{fill:url(#rect12934_1_);}
	.st11{fill:url(#rect12936_1_);}
	.st12{fill:url(#rect12942_1_);}
	.st13{fill:url(#rect12944_1_);}
	.st14{fill:url(#path12959_1_);}
	.st15{fill:url(#path12977_1_);}
	.st16{fill:url(#path12981_1_);}
	.st17{fill:url(#path12983_1_);}
	.st18{fill:url(#path12989_1_);}
	.st19{fill:url(#path12991_1_);}
	.st20{fill:url(#path12993_1_);}
	.st21{fill:url(#path12995_1_);}
	.st22{fill:url(#path13005_1_);}
	.st23{fill:url(#path13007_1_);}
	.st24{fill:url(#path13009_1_);}
	.st25{fill:url(#path13011_1_);}
	.st26{fill:url(#path13021_1_);}
	.st27{fill:url(#path13023_1_);}
	.st28{fill:url(#path13025_1_);}
	.st29{fill:url(#path13027_1_);}
	.st30{fill:url(#path13037_1_);}
	.st31{fill:url(#path13039_1_);}
	.st32{fill:none;stroke:#000000;stroke-width:3.9705;stroke-linecap:round;stroke-linejoin:round;}
</style>
<g>
	
		<linearGradient id="rect1307_1_" gradientUnits="userSpaceOnUse" x1="-448.3071" y1="192.4134" x2="-451.0653" y2="192.4134" gradientTransform="matrix(19.703 0 0 -62.7448 8984.1992 12844.1025)">
		<stop  offset="0" style="stop-color:#E7E5E4"/>
		<stop  offset="1" style="stop-color:#898683"/>
	</linearGradient>
	<rect id="rect1307" x="141.4" y="739.8" class="st0" width="19.7" height="62.7"/>
	
		<linearGradient id="rect2182_1_" gradientUnits="userSpaceOnUse" x1="-469.3686" y1="191.5248" x2="-471.0348" y2="191.5248" gradientTransform="matrix(36.899 0 0 -168.9544 17470.459 33024.1328)">
		<stop  offset="0" style="stop-color:#E7E5E4"/>
		<stop  offset="1" style="stop-color:#898683"/>
	</linearGradient>
	<rect id="rect2182" x="132.8" y="580.7" class="st1" width="36.9" height="169"/>
	
		<linearGradient id="rect2184_1_" gradientUnits="userSpaceOnUse" x1="-478.3238" y1="193.1422" x2="-479.7541" y2="193.8033" gradientTransform="matrix(58.882 0 0 -40.9284 28319.0332 8477.1182)">
		<stop  offset="0" style="stop-color:#E7E5E4"/>
		<stop  offset="1" style="stop-color:#898683"/>
	</linearGradient>
	<rect id="rect2184" x="121.8" y="550.6" class="st2" width="58.9" height="40.9"/>
	
		<linearGradient id="rect2186_1_" gradientUnits="userSpaceOnUse" x1="-480.6893" y1="191.7228" x2="-481.9537" y2="191.7228" gradientTransform="matrix(69.5071 0 0 -122.7106 33562.5508 24017.8555)">
		<stop  offset="0" style="stop-color:#E7E5E4"/>
		<stop  offset="1" style="stop-color:#898683"/>
	</linearGradient>
	<rect id="rect2186" x="116.5" y="430.1" class="st3" width="69.5" height="122.7"/>
	
		<linearGradient id="rect3061_2_" gradientUnits="userSpaceOnUse" x1="-489.0263" y1="191.2099" x2="-490.0857" y2="191.2099" gradientTransform="matrix(213.2016 0 0 -422.9696 104446.8906 81101.6016)">
		<stop  offset="0" style="stop-color:#E7E5E4"/>
		<stop  offset="1" style="stop-color:#898683"/>
	</linearGradient>
	<path id="rect3061" class="st4" d="M83.9,14.2c-21.3,0.2-43,1.9-65.4,5.7c-3.8,0.9-4.5,10,4.8,8.6c42.4-8.5,82.3-2.4,80.8,17.2
		v391.4h125V40.8h-60.8V14.6C168.1,14.6,105,14,83.9,14.2z"/>
	<path id="rect6596" class="st5" d="M199.1,57.8h28.6v84.6h-28.6V57.8z"/>
	
		<linearGradient id="rect11166_1_" gradientUnits="userSpaceOnUse" x1="-483.9831" y1="195.7573" x2="-483.9831" y2="200.9129" gradientTransform="matrix(93.5602 0 0 -14.3859 45432.8398 2901.0439)">
		<stop  offset="0" style="stop-color:#E7E5E4"/>
		<stop  offset="1" style="stop-color:#898683"/>
	</linearGradient>
	<path id="rect11166" class="st6" d="M104.5,57.5h93.6v14.4h-93.6C104.5,71.8,104.5,57.5,104.5,57.5z"/>
	
		<linearGradient id="rect12922_1_" gradientUnits="userSpaceOnUse" x1="-483.9831" y1="195.7573" x2="-483.9831" y2="200.9129" gradientTransform="matrix(93.5602 0 0 -14.3859 45432.8398 2915.1064)">
		<stop  offset="0" style="stop-color:#E7E5E4"/>
		<stop  offset="1" style="stop-color:#898683"/>
	</linearGradient>
	<path id="rect12922" class="st7" d="M104.5,71.5h93.6v14.4h-93.6C104.5,85.9,104.5,71.5,104.5,71.5z"/>
	
		<linearGradient id="rect12926_1_" gradientUnits="userSpaceOnUse" x1="-483.9831" y1="195.7563" x2="-483.9831" y2="200.9143" gradientTransform="matrix(93.5602 0 0 -14.3859 45432.8398 2929.5283)">
		<stop  offset="0" style="stop-color:#E7E5E4"/>
		<stop  offset="1" style="stop-color:#898683"/>
	</linearGradient>
	<path id="rect12926" class="st8" d="M104.5,86h93.6v14.4h-93.6C104.5,100.3,104.5,86,104.5,86z"/>
	
		<linearGradient id="rect12928_1_" gradientUnits="userSpaceOnUse" x1="-483.9831" y1="195.7563" x2="-483.9831" y2="200.9119" gradientTransform="matrix(93.5602 0 0 -14.3859 45432.8398 2943.5908)">
		<stop  offset="0" style="stop-color:#E7E5E4"/>
		<stop  offset="1" style="stop-color:#898683"/>
	</linearGradient>
	<path id="rect12928" class="st9" d="M104.5,100h93.6v14.4h-93.6C104.5,114.4,104.5,100,104.5,100z"/>
	
		<linearGradient id="rect12934_1_" gradientUnits="userSpaceOnUse" x1="-483.9831" y1="195.7573" x2="-483.9831" y2="200.9129" gradientTransform="matrix(93.5602 0 0 -14.3859 45432.8398 2958.4189)">
		<stop  offset="0" style="stop-color:#E7E5E4"/>
		<stop  offset="1" style="stop-color:#898683"/>
	</linearGradient>
	<path id="rect12934" class="st10" d="M104.5,114.8h93.6v14.4h-93.6C104.5,129.2,104.5,114.8,104.5,114.8z"/>
	
		<linearGradient id="rect12936_1_" gradientUnits="userSpaceOnUse" x1="-483.9831" y1="195.7573" x2="-483.9831" y2="200.918" gradientTransform="matrix(93.5602 0 0 -14.3859 45432.8398 2972.4736)">
		<stop  offset="0" style="stop-color:#E7E5E4"/>
		<stop  offset="1" style="stop-color:#898683"/>
	</linearGradient>
	<path id="rect12936" class="st11" d="M104.5,128.9h93.6v14.4h-93.6C104.5,143.3,104.5,128.9,104.5,128.9z"/>
	
		<linearGradient id="rect12942_1_" gradientUnits="userSpaceOnUse" x1="-486.2476" y1="195.7554" x2="-486.2476" y2="200.9211" gradientTransform="matrix(122.7798 0 0 -14.3859 59867.2812 2986.1846)">
		<stop  offset="0" style="stop-color:#E7E5E4"/>
		<stop  offset="1" style="stop-color:#898683"/>
	</linearGradient>
	<path id="rect12942" class="st12" d="M104.5,142.6h122.8V157H104.5V142.6z"/>
	
		<linearGradient id="rect12944_1_" gradientUnits="userSpaceOnUse" x1="-479.4146" y1="195.7573" x2="-479.4146" y2="200.9129" gradientTransform="matrix(63.2168 0 0 -14.3859 30443.1738 3000.2471)">
		<stop  offset="0" style="stop-color:#E7E5E4"/>
		<stop  offset="1" style="stop-color:#898683"/>
	</linearGradient>
	<path id="rect12944" class="st13" d="M104.5,156.7h63.2c-5.3,2.4-10.7,4.7-9.4,14.4h-53.8C104.5,171.1,104.5,156.7,104.5,156.7z"/>
	
		<linearGradient id="path12959_1_" gradientUnits="userSpaceOnUse" x1="-476.9066" y1="195.7573" x2="-476.9066" y2="200.9129" gradientTransform="matrix(53.6643 0 0 -14.3859 25724.1914 3015.1221)">
		<stop  offset="0" style="stop-color:#E7E5E4"/>
		<stop  offset="1" style="stop-color:#898683"/>
	</linearGradient>
	<path id="path12959" class="st14" d="M104.5,171.6h53.7v14.4h-53.7V171.6z"/>
	
		<linearGradient id="path12977_1_" gradientUnits="userSpaceOnUse" x1="-476.9066" y1="195.7593" x2="-476.9066" y2="200.9149" gradientTransform="matrix(53.6643 0 0 -14.3859 25724.1914 3029.2314)">
		<stop  offset="0" style="stop-color:#E7E5E4"/>
		<stop  offset="1" style="stop-color:#898683"/>
	</linearGradient>
	<path id="path12977" class="st15" d="M104.5,185.6h53.7V200h-53.7V185.6z"/>
	
		<linearGradient id="path12981_1_" gradientUnits="userSpaceOnUse" x1="-476.9066" y1="195.7563" x2="-476.9066" y2="200.9144" gradientTransform="matrix(53.6643 0 0 -14.3859 25724.1914 3044.0908)">
		<stop  offset="0" style="stop-color:#E7E5E4"/>
		<stop  offset="1" style="stop-color:#898683"/>
	</linearGradient>
	<path id="path12981" class="st16" d="M104.5,200.5h53.7v14.4h-53.7V200.5z"/>
	
		<linearGradient id="path12983_1_" gradientUnits="userSpaceOnUse" x1="-476.9066" y1="195.7573" x2="-476.9066" y2="200.9143" gradientTransform="matrix(53.6643 0 0 -14.3859 25724.1914 3058.1846)">
		<stop  offset="0" style="stop-color:#E7E5E4"/>
		<stop  offset="1" style="stop-color:#898683"/>
	</linearGradient>
	<path id="path12983" class="st17" d="M104.5,214.6h53.7V229h-53.7V214.6z"/>
	
		<linearGradient id="path12989_1_" gradientUnits="userSpaceOnUse" x1="-476.9066" y1="195.7583" x2="-476.9066" y2="200.9139" gradientTransform="matrix(53.6643 0 0 -14.3859 25724.1914 3073.4346)">
		<stop  offset="0" style="stop-color:#E7E5E4"/>
		<stop  offset="1" style="stop-color:#898683"/>
	</linearGradient>
	<path id="path12989" class="st18" d="M104.5,229.9h53.7v14.4h-53.7V229.9z"/>
	
		<linearGradient id="path12991_1_" gradientUnits="userSpaceOnUse" x1="-476.9066" y1="195.7573" x2="-476.9066" y2="200.9143" gradientTransform="matrix(53.6643 0 0 -14.3859 25724.1914 3087.5439)">
		<stop  offset="0" style="stop-color:#E7E5E4"/>
		<stop  offset="1" style="stop-color:#898683"/>
	</linearGradient>
	<path id="path12991" class="st19" d="M104.5,244h53.7v14.4h-53.7V244z"/>
	
		<linearGradient id="path12993_1_" gradientUnits="userSpaceOnUse" x1="-476.9066" y1="195.7563" x2="-476.9066" y2="200.9119" gradientTransform="matrix(53.6643 0 0 -14.3859 25724.1914 3102.4033)">
		<stop  offset="0" style="stop-color:#E7E5E4"/>
		<stop  offset="1" style="stop-color:#898683"/>
	</linearGradient>
	<path id="path12993" class="st20" d="M104.5,258.8h53.7v14.4h-53.7V258.8z"/>
	
		<linearGradient id="path12995_1_" gradientUnits="userSpaceOnUse" x1="-476.9066" y1="195.7573" x2="-476.9066" y2="200.9129" gradientTransform="matrix(53.6643 0 0 -14.3859 25724.1914 3116.4893)">
		<stop  offset="0" style="stop-color:#E7E5E4"/>
		<stop  offset="1" style="stop-color:#898683"/>
	</linearGradient>
	<path id="path12995" class="st21" d="M104.5,272.9h53.7v14.4h-53.7V272.9z"/>
	
		<linearGradient id="path13005_1_" gradientUnits="userSpaceOnUse" x1="-476.9066" y1="195.7583" x2="-476.9066" y2="200.9139" gradientTransform="matrix(53.6643 0 0 -14.3859 25724.1914 3131.8877)">
		<stop  offset="0" style="stop-color:#E7E5E4"/>
		<stop  offset="1" style="stop-color:#898683"/>
	</linearGradient>
	<path id="path13005" class="st22" d="M104.5,288.3h53.7v14.4h-53.7V288.3z"/>
	
		<linearGradient id="path13007_1_" gradientUnits="userSpaceOnUse" x1="-476.9066" y1="195.7583" x2="-476.9066" y2="200.9164" gradientTransform="matrix(53.6643 0 0 -14.3859 25724.1914 3145.9814)">
		<stop  offset="0" style="stop-color:#E7E5E4"/>
		<stop  offset="1" style="stop-color:#898683"/>
	</linearGradient>
	<path id="path13007" class="st23" d="M104.5,302.4h53.7v14.4h-53.7V302.4z"/>
	
		<linearGradient id="path13009_1_" gradientUnits="userSpaceOnUse" x1="-476.9066" y1="195.7563" x2="-476.9066" y2="200.9119" gradientTransform="matrix(53.6643 0 0 -14.3859 25724.1914 3160.8408)">
		<stop  offset="0" style="stop-color:#E7E5E4"/>
		<stop  offset="1" style="stop-color:#898683"/>
	</linearGradient>
	<path id="path13009" class="st24" d="M104.5,317.3h53.7v14.4h-53.7V317.3z"/>
	
		<linearGradient id="path13011_1_" gradientUnits="userSpaceOnUse" x1="-476.9066" y1="195.7583" x2="-476.9066" y2="200.9103" gradientTransform="matrix(53.6643 0 0 -14.3859 25724.1914 3174.9346)">
		<stop  offset="0" style="stop-color:#E7E5E4"/>
		<stop  offset="1" style="stop-color:#898683"/>
	</linearGradient>
	<path id="path13011" class="st25" d="M104.5,331.4h53.7v14.4h-53.7V331.4z"/>
	
		<linearGradient id="path13021_1_" gradientUnits="userSpaceOnUse" x1="-476.9066" y1="195.7573" x2="-476.9066" y2="200.9143" gradientTransform="matrix(53.6643 0 0 -14.3859 25724.1914 3190.8721)">
		<stop  offset="0" style="stop-color:#E7E5E4"/>
		<stop  offset="1" style="stop-color:#898683"/>
	</linearGradient>
	<path id="path13021" class="st26" d="M104.5,347.3h53.7v14.4h-53.7V347.3z"/>
	
		<linearGradient id="path13023_1_" gradientUnits="userSpaceOnUse" x1="-476.9066" y1="195.7534" x2="-476.9066" y2="200.9241" gradientTransform="matrix(53.6643 0 0 -14.3859 25724.1914 3204.9658)">
		<stop  offset="0" style="stop-color:#E7E5E4"/>
		<stop  offset="1" style="stop-color:#898683"/>
	</linearGradient>
	<path id="path13023" class="st27" d="M104.5,361.4h53.7v14.4h-53.7V361.4z"/>
	
		<linearGradient id="path13025_1_" gradientUnits="userSpaceOnUse" x1="-476.9066" y1="195.7592" x2="-476.9066" y2="200.9147" gradientTransform="matrix(53.6643 0 0 -14.386 25724.1914 3219.8438)">
		<stop  offset="0" style="stop-color:#E7E5E4"/>
		<stop  offset="1" style="stop-color:#898683"/>
	</linearGradient>
	<path id="path13025" class="st28" d="M104.5,376.3h53.7v14.4h-53.7V376.3z"/>
	
		<linearGradient id="path13027_1_" gradientUnits="userSpaceOnUse" x1="-476.9066" y1="195.7563" x2="-476.9066" y2="200.9119" gradientTransform="matrix(53.6643 0 0 -14.3859 25724.1914 3233.9502)">
		<stop  offset="0" style="stop-color:#E7E5E4"/>
		<stop  offset="1" style="stop-color:#898683"/>
	</linearGradient>
	<path id="path13027" class="st29" d="M104.5,390.4h53.7v14.4h-53.7V390.4z"/>
	
		<linearGradient id="path13037_1_" gradientUnits="userSpaceOnUse" x1="-476.9066" y1="195.7562" x2="-476.9066" y2="200.9118" gradientTransform="matrix(53.6643 0 0 -14.386 25724.1914 3249.2031)">
		<stop  offset="0" style="stop-color:#E7E5E4"/>
		<stop  offset="1" style="stop-color:#898683"/>
	</linearGradient>
	<path id="path13037" class="st30" d="M104.5,405.6h53.7V420h-53.7V405.6z"/>
	
		<linearGradient id="path13039_1_" gradientUnits="userSpaceOnUse" x1="-476.9066" y1="195.7573" x2="-476.9066" y2="200.9129" gradientTransform="matrix(53.6643 0 0 -14.3859 25724.1914 3263.2783)">
		<stop  offset="0" style="stop-color:#E7E5E4"/>
		<stop  offset="1" style="stop-color:#898683"/>
	</linearGradient>
	<path id="path13039" class="st31" d="M104.5,419.7h53.7v14.4h-53.7V419.7z"/>
	<title>Layer 1</title>
	<path id="rect3061_1_" class="st32" d="M83.9,14.2c-21.3,0.2-43,1.9-65.4,5.7c-3.8,0.9-4.5,10,4.8,8.6c42.4-8.5,82.3-2.4,80.8,17.2
		v391.4h125V40.8h-60.8V14.6C168.1,14.6,105,14,83.9,14.2z"/>
</g>
</svg>
