<?xml version="1.0" encoding="utf-8"?>
<!-- Generator: Adobe Illustrator 15.1.0, SVG Export Plug-In . SVG Version: 6.00 Build 0)  -->
<!DOCTYPE svg PUBLIC "-//W3C//DTD SVG 1.1//EN" "http://www.w3.org/Graphics/SVG/1.1/DTD/svg11.dtd">
<svg version="1.1" id="Layer_1" xmlns="http://www.w3.org/2000/svg" xmlns:xlink="http://www.w3.org/1999/xlink" x="0px" y="0px"
	 width="72px" height="72px" viewBox="0 0 72 72" enable-background="new 0 0 72 72" xml:space="preserve">
<pattern  x="-359.5" y="342.5" width="7.2" height="18" patternUnits="userSpaceOnUse" id="SVGID_2_" viewBox="0 -18 7.2 18" overflow="visible">
	<g>
		<polygon fill="none" points="0,0 7.2,0 7.2,-18 0,-18 		"/>
		<g>
			<polygon fill="none" points="0,-18 7.2,-18 7.2,0 0,0 			"/>
			<g>
				<polygon fill="none" points="0,0 7.2,0 7.2,-18 0,-18 				"/>
				<polygon fill="#58595B" points="3.6,0 0,0 0,-18 3.6,-18 				"/>
				<polygon fill="#6D6E71" points="7.2,0 3.6,0 3.6,-18 7.2,-18 				"/>
			</g>
		</g>
	</g>
</pattern>
<pattern  id="SVGID_1_" xlink:href="#SVGID_2_" patternTransform="matrix(-0.7071 0.7071 -0.7071 -0.7071 -30062.1543 -4012.0537)">
</pattern>
<path fill="url(#SVGID_1_)" d="M0,12C0,5.373,5.373,0,12,0h48c6.627,0,12,5.373,12,12v48c0,6.627-5.373,12-12,12H12
	C5.373,72,0,66.627,0,60V12z"/>
<polygon stroke="#FFFFFF" stroke-miterlimit="10" points="4.792,42.18 39.861,42.18 39.861,51.789 67.208,36.001 39.861,20.212 
	39.861,30.852 4.792,30.852 "/>
</svg>
