<?xml version="1.0" encoding="utf-8"?>
<!-- Generator: Adobe Illustrator 19.2.1, SVG Export Plug-In . SVG Version: 6.00 Build 0)  -->
<svg version="1.1" id="Layer_1" xmlns="http://www.w3.org/2000/svg" xmlns:xlink="http://www.w3.org/1999/xlink" x="0px" y="0px"
	 viewBox="0 0 400 600" style="enable-background:new 0 0 400 600;" xml:space="preserve">
<style type="text/css">
	.st0{fill:none;}
	.st1{fill:#00833D;}
	.st2{fill:#009345;}
	.st3{fill:url(#SVGID_1_);}
	.st4{opacity:0.75;fill:#FFFFFF;enable-background:new    ;}
	.st5{font-family:'Helvetica';}
	.st6{font-size:57.5657px;}
	.st7{fill:#2E3B96;stroke:#010101;stroke-width:3.9705;stroke-linecap:round;stroke-linejoin:round;}
	.st8{fill:#E7E5E4;stroke:#010101;stroke-width:3.9705;stroke-linecap:round;stroke-linejoin:round;}
	.st9{fill:url(#rect6600_2_);stroke:#010101;stroke-width:3.9705;stroke-linecap:round;stroke-linejoin:round;}
	.st10{fill:url(#rect6602_2_);stroke:#010101;stroke-width:3.9705;stroke-linecap:round;stroke-linejoin:round;}
	.st11{fill:url(#rect6604_2_);stroke:#010101;stroke-width:3.9705;stroke-linecap:round;stroke-linejoin:round;}
	.st12{fill:url(#rect6606_2_);stroke:#010101;stroke-width:3.9705;stroke-linecap:round;stroke-linejoin:round;}
	.st13{fill:url(#rect6608_2_);stroke:#010101;stroke-width:3.9705;stroke-linecap:round;stroke-linejoin:round;}
	.st14{fill:url(#rect6610_2_);stroke:#010101;stroke-width:3.9705;stroke-linecap:round;stroke-linejoin:round;}
	.st15{fill:url(#rect6612_2_);stroke:#010101;stroke-width:3.9705;stroke-linecap:round;stroke-linejoin:round;}
	.st16{fill:url(#rect6614_2_);stroke:#010101;stroke-width:3.9705;stroke-linecap:round;stroke-linejoin:round;}
	.st17{fill:url(#rect1307_2_);stroke:#010101;stroke-width:3.9705;stroke-linecap:round;stroke-linejoin:round;}
	.st18{fill:url(#rect2182_2_);stroke:#010101;stroke-width:3.9705;stroke-linecap:round;stroke-linejoin:round;}
	.st19{fill:url(#rect2184_2_);stroke:#010101;stroke-width:3.9705;stroke-linecap:round;stroke-linejoin:round;}
	.st20{fill:url(#rect2186_2_);stroke:#010101;stroke-width:3.9705;stroke-linecap:round;stroke-linejoin:round;}
	.st21{fill:url(#rect3061_3_);stroke:#010101;stroke-width:3.9705;stroke-linecap:round;stroke-linejoin:round;}
	.st22{fill:none;stroke:#8F8F8E;stroke-width:2;stroke-linecap:round;stroke-linejoin:round;}
	.st23{fill:url(#rect11166_21_);}
	.st24{fill:url(#rect11166_22_);}
	.st25{fill:url(#rect11166_23_);}
	.st26{fill:url(#rect11166_24_);}
	.st27{fill:url(#rect11166_25_);}
	.st28{fill:url(#rect11166_26_);}
	.st29{fill:url(#rect11166_27_);}
	.st30{fill:url(#rect11166_28_);}
	.st31{fill:url(#rect11166_29_);}
	.st32{fill:url(#rect11166_30_);}
	.st33{fill:url(#rect11166_31_);}
	.st34{fill:url(#rect11166_32_);}
	.st35{fill:url(#rect11166_33_);}
	.st36{fill:url(#rect11166_34_);}
	.st37{fill:url(#rect11166_35_);}
	.st38{fill:url(#rect11166_36_);}
	.st39{fill:url(#rect11166_37_);}
	.st40{fill:url(#rect11166_38_);}
	.st41{fill:url(#rect11166_39_);}
	.st42{fill:url(#rect11166_40_);}
	.st43{fill:none;stroke:#010101;stroke-width:3.9705;stroke-linecap:round;stroke-linejoin:round;}
</style>
<pattern  y="600" width="2138.5" height="2131.1" patternUnits="userSpaceOnUse" id="New_Pattern_Swatch_54" viewBox="0 -2131.1 2138.5 2131.1" style="overflow:visible;">
	<g>
		<rect x="0" y="-2131.1" class="st0" width="2138.5" height="2131.1"/>
		<g>
			<g>
				<rect x="0" y="-2131.1" class="st1" width="133.7" height="133.7"/>
				<rect x="133.7" y="-2131.1" class="st2" width="133.7" height="133.7"/>
				<rect x="133.7" y="-1997.5" class="st1" width="133.7" height="133.7"/>
				<rect x="0" y="-1997.5" class="st2" width="133.7" height="133.7"/>
			</g>
			<g>
				<rect x="267.3" y="-2131.1" class="st1" width="133.7" height="133.7"/>
				<rect x="401" y="-2131.1" class="st2" width="133.7" height="133.7"/>
				<rect x="401" y="-1997.5" class="st1" width="133.7" height="133.7"/>
				<rect x="267.3" y="-1997.5" class="st2" width="133.7" height="133.7"/>
			</g>
			<g>
				<rect x="0" y="-1863.8" class="st1" width="133.7" height="133.7"/>
				<rect x="133.7" y="-1863.8" class="st2" width="133.7" height="133.7"/>
				<rect x="133.7" y="-1730.2" class="st1" width="133.7" height="133.7"/>
				<rect x="0" y="-1730.2" class="st2" width="133.7" height="133.7"/>
			</g>
			<g>
				<rect x="267.3" y="-1863.8" class="st1" width="133.7" height="133.7"/>
				<rect x="401" y="-1863.8" class="st2" width="133.7" height="133.7"/>
				<rect x="401" y="-1730.2" class="st1" width="133.7" height="133.7"/>
				<rect x="267.3" y="-1730.2" class="st2" width="133.7" height="133.7"/>
			</g>
			<g>
				<rect x="534.6" y="-2131.1" class="st1" width="133.7" height="133.7"/>
				<rect x="668.3" y="-2131.1" class="st2" width="133.7" height="133.7"/>
				<rect x="668.3" y="-1997.5" class="st1" width="133.7" height="133.7"/>
				<rect x="534.6" y="-1997.5" class="st2" width="133.7" height="133.7"/>
			</g>
			<g>
				<rect x="801.9" y="-2131.1" class="st1" width="133.7" height="133.7"/>
				<rect x="935.6" y="-2131.1" class="st2" width="133.7" height="133.7"/>
				<rect x="935.6" y="-1997.5" class="st1" width="133.7" height="133.7"/>
				<rect x="801.9" y="-1997.5" class="st2" width="133.7" height="133.7"/>
			</g>
			<g>
				<rect x="534.6" y="-1863.8" class="st1" width="133.7" height="133.7"/>
				<rect x="668.3" y="-1863.8" class="st2" width="133.7" height="133.7"/>
				<rect x="668.3" y="-1730.2" class="st1" width="133.7" height="133.7"/>
				<rect x="534.6" y="-1730.2" class="st2" width="133.7" height="133.7"/>
			</g>
			<g>
				<rect x="801.9" y="-1863.8" class="st1" width="133.7" height="133.7"/>
				<rect x="935.6" y="-1863.8" class="st2" width="133.7" height="133.7"/>
				<rect x="935.6" y="-1730.2" class="st1" width="133.7" height="133.7"/>
				<rect x="801.9" y="-1730.2" class="st2" width="133.7" height="133.7"/>
			</g>
			<g>
				<rect x="0" y="-1599.9" class="st1" width="133.7" height="133.7"/>
				<rect x="133.7" y="-1599.9" class="st2" width="133.7" height="133.7"/>
				<rect x="133.7" y="-1466.3" class="st1" width="133.7" height="133.7"/>
				<rect x="0" y="-1466.3" class="st2" width="133.7" height="133.7"/>
			</g>
			<g>
				<rect x="267.3" y="-1599.9" class="st1" width="133.7" height="133.7"/>
				<rect x="401" y="-1599.9" class="st2" width="133.7" height="133.7"/>
				<rect x="401" y="-1466.3" class="st1" width="133.7" height="133.7"/>
				<rect x="267.3" y="-1466.3" class="st2" width="133.7" height="133.7"/>
			</g>
			<g>
				<rect x="0" y="-1332.6" class="st1" width="133.7" height="133.7"/>
				<rect x="133.7" y="-1332.6" class="st2" width="133.7" height="133.7"/>
				<rect x="133.7" y="-1199" class="st1" width="133.7" height="133.7"/>
				<rect x="0" y="-1199" class="st2" width="133.7" height="133.7"/>
			</g>
			<g>
				<rect x="267.3" y="-1332.6" class="st1" width="133.7" height="133.7"/>
				<rect x="401" y="-1332.6" class="st2" width="133.7" height="133.7"/>
				<rect x="401" y="-1199" class="st1" width="133.7" height="133.7"/>
				<rect x="267.3" y="-1199" class="st2" width="133.7" height="133.7"/>
			</g>
			<g>
				<rect x="534.6" y="-1599.9" class="st1" width="133.7" height="133.7"/>
				<rect x="668.3" y="-1599.9" class="st2" width="133.7" height="133.7"/>
				<rect x="668.3" y="-1466.3" class="st1" width="133.7" height="133.7"/>
				<rect x="534.6" y="-1466.3" class="st2" width="133.7" height="133.7"/>
			</g>
			<g>
				<rect x="801.9" y="-1599.9" class="st1" width="133.7" height="133.7"/>
				<rect x="935.6" y="-1599.9" class="st2" width="133.7" height="133.7"/>
				<rect x="935.6" y="-1466.3" class="st1" width="133.7" height="133.7"/>
				<rect x="801.9" y="-1466.3" class="st2" width="133.7" height="133.7"/>
			</g>
			<g>
				<rect x="534.6" y="-1332.6" class="st1" width="133.7" height="133.7"/>
				<rect x="668.3" y="-1332.6" class="st2" width="133.7" height="133.7"/>
				<rect x="668.3" y="-1199" class="st1" width="133.7" height="133.7"/>
				<rect x="534.6" y="-1199" class="st2" width="133.7" height="133.7"/>
			</g>
			<g>
				<rect x="801.9" y="-1332.6" class="st1" width="133.7" height="133.7"/>
				<rect x="935.6" y="-1332.6" class="st2" width="133.7" height="133.7"/>
				<rect x="935.6" y="-1199" class="st1" width="133.7" height="133.7"/>
				<rect x="801.9" y="-1199" class="st2" width="133.7" height="133.7"/>
			</g>
		</g>
		<g>
			<g>
				<rect x="1069.2" y="-2131.1" class="st1" width="133.7" height="133.7"/>
				<rect x="1202.9" y="-2131.1" class="st2" width="133.7" height="133.7"/>
				<rect x="1202.9" y="-1997.5" class="st1" width="133.7" height="133.7"/>
				<rect x="1069.2" y="-1997.5" class="st2" width="133.7" height="133.7"/>
			</g>
			<g>
				<rect x="1336.5" y="-2131.1" class="st1" width="133.7" height="133.7"/>
				<rect x="1470.2" y="-2131.1" class="st2" width="133.7" height="133.7"/>
				<rect x="1470.2" y="-1997.5" class="st1" width="133.7" height="133.7"/>
				<rect x="1336.5" y="-1997.5" class="st2" width="133.7" height="133.7"/>
			</g>
			<g>
				<rect x="1069.2" y="-1863.8" class="st1" width="133.7" height="133.7"/>
				<rect x="1202.9" y="-1863.8" class="st2" width="133.7" height="133.7"/>
				<rect x="1202.9" y="-1730.2" class="st1" width="133.7" height="133.7"/>
				<rect x="1069.2" y="-1730.2" class="st2" width="133.7" height="133.7"/>
			</g>
			<g>
				<rect x="1336.5" y="-1863.8" class="st1" width="133.7" height="133.7"/>
				<rect x="1470.2" y="-1863.8" class="st2" width="133.7" height="133.7"/>
				<rect x="1470.2" y="-1730.2" class="st1" width="133.7" height="133.7"/>
				<rect x="1336.5" y="-1730.2" class="st2" width="133.7" height="133.7"/>
			</g>
			<g>
				<rect x="1603.9" y="-2131.1" class="st1" width="133.7" height="133.7"/>
				<rect x="1737.5" y="-2131.1" class="st2" width="133.7" height="133.7"/>
				<rect x="1737.5" y="-1997.5" class="st1" width="133.7" height="133.7"/>
				<rect x="1603.9" y="-1997.5" class="st2" width="133.7" height="133.7"/>
			</g>
			<g>
				<rect x="1871.2" y="-2131.1" class="st1" width="133.7" height="133.7"/>
				<rect x="2004.8" y="-2131.1" class="st2" width="133.7" height="133.7"/>
				<rect x="2004.8" y="-1997.5" class="st1" width="133.7" height="133.7"/>
				<rect x="1871.2" y="-1997.5" class="st2" width="133.7" height="133.7"/>
			</g>
			<g>
				<rect x="1603.9" y="-1863.8" class="st1" width="133.7" height="133.7"/>
				<rect x="1737.5" y="-1863.8" class="st2" width="133.7" height="133.7"/>
				<rect x="1737.5" y="-1730.2" class="st1" width="133.7" height="133.7"/>
				<rect x="1603.9" y="-1730.2" class="st2" width="133.7" height="133.7"/>
			</g>
			<g>
				<rect x="1871.2" y="-1863.8" class="st1" width="133.7" height="133.7"/>
				<rect x="2004.8" y="-1863.8" class="st2" width="133.7" height="133.7"/>
				<rect x="2004.8" y="-1730.2" class="st1" width="133.7" height="133.7"/>
				<rect x="1871.2" y="-1730.2" class="st2" width="133.7" height="133.7"/>
			</g>
			<g>
				<rect x="1069.2" y="-1599.9" class="st1" width="133.7" height="133.7"/>
				<rect x="1202.9" y="-1599.9" class="st2" width="133.7" height="133.7"/>
				<rect x="1202.9" y="-1466.3" class="st1" width="133.7" height="133.7"/>
				<rect x="1069.2" y="-1466.3" class="st2" width="133.7" height="133.7"/>
			</g>
			<g>
				<rect x="1336.5" y="-1599.9" class="st1" width="133.7" height="133.7"/>
				<rect x="1470.2" y="-1599.9" class="st2" width="133.7" height="133.7"/>
				<rect x="1470.2" y="-1466.3" class="st1" width="133.7" height="133.7"/>
				<rect x="1336.5" y="-1466.3" class="st2" width="133.7" height="133.7"/>
			</g>
			<g>
				<rect x="1069.2" y="-1332.6" class="st1" width="133.7" height="133.7"/>
				<rect x="1202.9" y="-1332.6" class="st2" width="133.7" height="133.7"/>
				<rect x="1202.9" y="-1199" class="st1" width="133.7" height="133.7"/>
				<rect x="1069.2" y="-1199" class="st2" width="133.7" height="133.7"/>
			</g>
			<g>
				<rect x="1336.5" y="-1332.6" class="st1" width="133.7" height="133.7"/>
				<rect x="1470.2" y="-1332.6" class="st2" width="133.7" height="133.7"/>
				<rect x="1470.2" y="-1199" class="st1" width="133.7" height="133.7"/>
				<rect x="1336.5" y="-1199" class="st2" width="133.7" height="133.7"/>
			</g>
			<g>
				<rect x="1603.9" y="-1599.9" class="st1" width="133.7" height="133.7"/>
				<rect x="1737.5" y="-1599.9" class="st2" width="133.7" height="133.7"/>
				<rect x="1737.5" y="-1466.3" class="st1" width="133.7" height="133.7"/>
				<rect x="1603.9" y="-1466.3" class="st2" width="133.7" height="133.7"/>
			</g>
			<g>
				<rect x="1871.2" y="-1599.9" class="st1" width="133.7" height="133.7"/>
				<rect x="2004.8" y="-1599.9" class="st2" width="133.7" height="133.7"/>
				<rect x="2004.8" y="-1466.3" class="st1" width="133.7" height="133.7"/>
				<rect x="1871.2" y="-1466.3" class="st2" width="133.7" height="133.7"/>
			</g>
			<g>
				<rect x="1603.9" y="-1332.6" class="st1" width="133.7" height="133.7"/>
				<rect x="1737.5" y="-1332.6" class="st2" width="133.7" height="133.7"/>
				<rect x="1737.5" y="-1199" class="st1" width="133.7" height="133.7"/>
				<rect x="1603.9" y="-1199" class="st2" width="133.7" height="133.7"/>
			</g>
			<g>
				<rect x="1871.2" y="-1332.6" class="st1" width="133.7" height="133.7"/>
				<rect x="2004.8" y="-1332.6" class="st2" width="133.7" height="133.7"/>
				<rect x="2004.8" y="-1199" class="st1" width="133.7" height="133.7"/>
				<rect x="1871.2" y="-1199" class="st2" width="133.7" height="133.7"/>
			</g>
		</g>
		<g>
			<g>
				<rect x="0" y="-1065.8" class="st1" width="133.7" height="133.7"/>
				<rect x="133.7" y="-1065.8" class="st2" width="133.7" height="133.7"/>
				<rect x="133.7" y="-932.2" class="st1" width="133.7" height="133.7"/>
				<rect x="0" y="-932.2" class="st2" width="133.7" height="133.7"/>
			</g>
			<g>
				<rect x="267.3" y="-1065.8" class="st1" width="133.7" height="133.7"/>
				<rect x="401" y="-1065.8" class="st2" width="133.7" height="133.7"/>
				<rect x="401" y="-932.2" class="st1" width="133.7" height="133.7"/>
				<rect x="267.3" y="-932.2" class="st2" width="133.7" height="133.7"/>
			</g>
			<g>
				<rect x="0" y="-798.5" class="st1" width="133.7" height="133.7"/>
				<rect x="133.7" y="-798.5" class="st2" width="133.7" height="133.7"/>
				<rect x="133.7" y="-664.8" class="st1" width="133.7" height="133.7"/>
				<rect x="0" y="-664.8" class="st2" width="133.7" height="133.7"/>
			</g>
			<g>
				<rect x="267.3" y="-798.5" class="st1" width="133.7" height="133.7"/>
				<rect x="401" y="-798.5" class="st2" width="133.7" height="133.7"/>
				<rect x="401" y="-664.8" class="st1" width="133.7" height="133.7"/>
				<rect x="267.3" y="-664.8" class="st2" width="133.7" height="133.7"/>
			</g>
			<g>
				<rect x="534.6" y="-1065.8" class="st1" width="133.7" height="133.7"/>
				<rect x="668.3" y="-1065.8" class="st2" width="133.7" height="133.7"/>
				<rect x="668.3" y="-932.2" class="st1" width="133.7" height="133.7"/>
				<rect x="534.6" y="-932.2" class="st2" width="133.7" height="133.7"/>
			</g>
			<g>
				<rect x="801.9" y="-1065.8" class="st1" width="133.7" height="133.7"/>
				<rect x="935.6" y="-1065.8" class="st2" width="133.7" height="133.7"/>
				<rect x="935.6" y="-932.2" class="st1" width="133.7" height="133.7"/>
				<rect x="801.9" y="-932.2" class="st2" width="133.7" height="133.7"/>
			</g>
			<g>
				<rect x="534.6" y="-798.5" class="st1" width="133.7" height="133.7"/>
				<rect x="668.3" y="-798.5" class="st2" width="133.7" height="133.7"/>
				<rect x="668.3" y="-664.8" class="st1" width="133.7" height="133.7"/>
				<rect x="534.6" y="-664.8" class="st2" width="133.7" height="133.7"/>
			</g>
			<g>
				<rect x="801.9" y="-798.5" class="st1" width="133.7" height="133.7"/>
				<rect x="935.6" y="-798.5" class="st2" width="133.7" height="133.7"/>
				<rect x="935.6" y="-664.8" class="st1" width="133.7" height="133.7"/>
				<rect x="801.9" y="-664.8" class="st2" width="133.7" height="133.7"/>
			</g>
			<g>
				<rect x="0" y="-534.6" class="st1" width="133.7" height="133.7"/>
				<rect x="133.7" y="-534.6" class="st2" width="133.7" height="133.7"/>
				<rect x="133.7" y="-401" class="st1" width="133.7" height="133.7"/>
				<rect x="0" y="-401" class="st2" width="133.7" height="133.7"/>
			</g>
			<g>
				<rect x="267.3" y="-534.6" class="st1" width="133.7" height="133.7"/>
				<rect x="401" y="-534.6" class="st2" width="133.7" height="133.7"/>
				<rect x="401" y="-401" class="st1" width="133.7" height="133.7"/>
				<rect x="267.3" y="-401" class="st2" width="133.7" height="133.7"/>
			</g>
			<g>
				<rect x="0" y="-267.3" class="st1" width="133.7" height="133.7"/>
				<rect x="133.7" y="-267.3" class="st2" width="133.7" height="133.7"/>
				<rect x="133.7" y="-133.7" class="st1" width="133.7" height="133.7"/>
				<rect x="0" y="-133.7" class="st2" width="133.7" height="133.7"/>
			</g>
			<g>
				<rect x="267.3" y="-267.3" class="st1" width="133.7" height="133.7"/>
				<rect x="401" y="-267.3" class="st2" width="133.7" height="133.7"/>
				<rect x="401" y="-133.7" class="st1" width="133.7" height="133.7"/>
				<rect x="267.3" y="-133.7" class="st2" width="133.7" height="133.7"/>
			</g>
			<g>
				<rect x="534.6" y="-534.6" class="st1" width="133.7" height="133.7"/>
				<rect x="668.3" y="-534.6" class="st2" width="133.7" height="133.7"/>
				<rect x="668.3" y="-401" class="st1" width="133.7" height="133.7"/>
				<rect x="534.6" y="-401" class="st2" width="133.7" height="133.7"/>
			</g>
			<g>
				<rect x="801.9" y="-534.6" class="st1" width="133.7" height="133.7"/>
				<rect x="935.6" y="-534.6" class="st2" width="133.7" height="133.7"/>
				<rect x="935.6" y="-401" class="st1" width="133.7" height="133.7"/>
				<rect x="801.9" y="-401" class="st2" width="133.7" height="133.7"/>
			</g>
			<g>
				<rect x="534.6" y="-267.3" class="st1" width="133.7" height="133.7"/>
				<rect x="668.3" y="-267.3" class="st2" width="133.7" height="133.7"/>
				<rect x="668.3" y="-133.7" class="st1" width="133.7" height="133.7"/>
				<rect x="534.6" y="-133.7" class="st2" width="133.7" height="133.7"/>
			</g>
			<g>
				<rect x="801.9" y="-267.3" class="st1" width="133.7" height="133.7"/>
				<rect x="935.6" y="-267.3" class="st2" width="133.7" height="133.7"/>
				<rect x="935.6" y="-133.7" class="st1" width="133.7" height="133.7"/>
				<rect x="801.9" y="-133.7" class="st2" width="133.7" height="133.7"/>
			</g>
		</g>
		<g>
			<g>
				<rect x="1069.2" y="-1065.8" class="st1" width="133.7" height="133.7"/>
				<rect x="1202.9" y="-1065.8" class="st2" width="133.7" height="133.7"/>
				<rect x="1202.9" y="-932.2" class="st1" width="133.7" height="133.7"/>
				<rect x="1069.2" y="-932.2" class="st2" width="133.7" height="133.7"/>
			</g>
			<g>
				<rect x="1336.5" y="-1065.8" class="st1" width="133.7" height="133.7"/>
				<rect x="1470.2" y="-1065.8" class="st2" width="133.7" height="133.7"/>
				<rect x="1470.2" y="-932.2" class="st1" width="133.7" height="133.7"/>
				<rect x="1336.5" y="-932.2" class="st2" width="133.7" height="133.7"/>
			</g>
			<g>
				<rect x="1069.2" y="-798.5" class="st1" width="133.7" height="133.7"/>
				<rect x="1202.9" y="-798.5" class="st2" width="133.7" height="133.7"/>
				<rect x="1202.9" y="-664.8" class="st1" width="133.7" height="133.7"/>
				<rect x="1069.2" y="-664.8" class="st2" width="133.7" height="133.7"/>
			</g>
			<g>
				<rect x="1336.5" y="-798.5" class="st1" width="133.7" height="133.7"/>
				<rect x="1470.2" y="-798.5" class="st2" width="133.7" height="133.7"/>
				<rect x="1470.2" y="-664.8" class="st1" width="133.7" height="133.7"/>
				<rect x="1336.5" y="-664.8" class="st2" width="133.7" height="133.7"/>
			</g>
			<g>
				<rect x="1603.9" y="-1065.8" class="st1" width="133.7" height="133.7"/>
				<rect x="1737.5" y="-1065.8" class="st2" width="133.7" height="133.7"/>
				<rect x="1737.5" y="-932.2" class="st1" width="133.7" height="133.7"/>
				<rect x="1603.9" y="-932.2" class="st2" width="133.7" height="133.7"/>
			</g>
			<g>
				<rect x="1871.2" y="-1065.8" class="st1" width="133.7" height="133.7"/>
				<rect x="2004.8" y="-1065.8" class="st2" width="133.7" height="133.7"/>
				<rect x="2004.8" y="-932.2" class="st1" width="133.7" height="133.7"/>
				<rect x="1871.2" y="-932.2" class="st2" width="133.7" height="133.7"/>
			</g>
			<g>
				<rect x="1603.9" y="-798.5" class="st1" width="133.7" height="133.7"/>
				<rect x="1737.5" y="-798.5" class="st2" width="133.7" height="133.7"/>
				<rect x="1737.5" y="-664.8" class="st1" width="133.7" height="133.7"/>
				<rect x="1603.9" y="-664.8" class="st2" width="133.7" height="133.7"/>
			</g>
			<g>
				<rect x="1871.2" y="-798.5" class="st1" width="133.7" height="133.7"/>
				<rect x="2004.8" y="-798.5" class="st2" width="133.7" height="133.7"/>
				<rect x="2004.8" y="-664.8" class="st1" width="133.7" height="133.7"/>
				<rect x="1871.2" y="-664.8" class="st2" width="133.7" height="133.7"/>
			</g>
			<g>
				<rect x="1069.2" y="-534.6" class="st1" width="133.7" height="133.7"/>
				<rect x="1202.9" y="-534.6" class="st2" width="133.7" height="133.7"/>
				<rect x="1202.9" y="-401" class="st1" width="133.7" height="133.7"/>
				<rect x="1069.2" y="-401" class="st2" width="133.7" height="133.7"/>
			</g>
			<g>
				<rect x="1336.5" y="-534.6" class="st1" width="133.7" height="133.7"/>
				<rect x="1470.2" y="-534.6" class="st2" width="133.7" height="133.7"/>
				<rect x="1470.2" y="-401" class="st1" width="133.7" height="133.7"/>
				<rect x="1336.5" y="-401" class="st2" width="133.7" height="133.7"/>
			</g>
			<g>
				<rect x="1069.2" y="-267.3" class="st1" width="133.7" height="133.7"/>
				<rect x="1202.9" y="-267.3" class="st2" width="133.7" height="133.7"/>
				<rect x="1202.9" y="-133.7" class="st1" width="133.7" height="133.7"/>
				<rect x="1069.2" y="-133.7" class="st2" width="133.7" height="133.7"/>
			</g>
			<g>
				<rect x="1336.5" y="-267.3" class="st1" width="133.7" height="133.7"/>
				<rect x="1470.2" y="-267.3" class="st2" width="133.7" height="133.7"/>
				<rect x="1470.2" y="-133.7" class="st1" width="133.7" height="133.7"/>
				<rect x="1336.5" y="-133.7" class="st2" width="133.7" height="133.7"/>
			</g>
			<g>
				<rect x="1603.9" y="-534.6" class="st1" width="133.7" height="133.7"/>
				<rect x="1737.5" y="-534.6" class="st2" width="133.7" height="133.7"/>
				<rect x="1737.5" y="-401" class="st1" width="133.7" height="133.7"/>
				<rect x="1603.9" y="-401" class="st2" width="133.7" height="133.7"/>
			</g>
			<g>
				<rect x="1871.2" y="-534.6" class="st1" width="133.7" height="133.7"/>
				<rect x="2004.8" y="-534.6" class="st2" width="133.7" height="133.7"/>
				<rect x="2004.8" y="-401" class="st1" width="133.7" height="133.7"/>
				<rect x="1871.2" y="-401" class="st2" width="133.7" height="133.7"/>
			</g>
			<g>
				<rect x="1603.9" y="-267.3" class="st1" width="133.7" height="133.7"/>
				<rect x="1737.5" y="-267.3" class="st2" width="133.7" height="133.7"/>
				<rect x="1737.5" y="-133.7" class="st1" width="133.7" height="133.7"/>
				<rect x="1603.9" y="-133.7" class="st2" width="133.7" height="133.7"/>
			</g>
			<g>
				<rect x="1871.2" y="-267.3" class="st1" width="133.7" height="133.7"/>
				<rect x="2004.8" y="-267.3" class="st2" width="133.7" height="133.7"/>
				<rect x="2004.8" y="-133.7" class="st1" width="133.7" height="133.7"/>
				<rect x="1871.2" y="-133.7" class="st2" width="133.7" height="133.7"/>
			</g>
		</g>
	</g>
</pattern>
<pattern  id="SVGID_1_" xlink:href="#New_Pattern_Swatch_54" patternTransform="matrix(0.9397 -0.342 0.342 0.9397 1597.9905 11686.6885)">
</pattern>
<rect class="st3" width="400" height="600"/>
<path class="st4" d="M367.3,526.6c0,26.9-21.8,48.6-48.6,48.6H81.3c-26.9,0-48.6-21.8-48.6-48.6l0,0c0-26.9,21.8-48.6,48.6-48.6
	h237.3C345.5,478,367.3,499.7,367.3,526.6L367.3,526.6z"/>
<text transform="matrix(1 0 0 1 67.2036 546.5166)" class="st5 st6">Reference</text>
<g>
	<g>
		<path id="rect7551_1_" class="st7" d="M117.8,30.9l13.5-4.9l13.5-4.9l9.1,1.3l7,5.8l-26.2,9.5l-26.2,9.5l2.3-9.5L117.8,30.9z"/>
		<g id="g7540_1_">
			<path id="rect6598_1_" class="st8" d="M123.4,43.2l24.1-8.8l14.2,39l-24.1,8.8L123.4,43.2L123.4,43.2z"/>
			
				<linearGradient id="rect6600_2_" gradientUnits="userSpaceOnUse" x1="216.5301" y1="79.9327" x2="217.1826" y2="79.9327" gradientTransform="matrix(3.0576 -1.1129 3.837 10.5419 -842.7595 -555.3229)">
				<stop  offset="0" style="stop-color:#E7E5E4"/>
				<stop  offset="1" style="stop-color:#B8BABA;stop-opacity:0.7374"/>
			</linearGradient>
			<path id="rect6600_1_" class="st9" d="M124.9,43l1.9-0.7l2.4,6.6l-1.9,0.7L124.9,43z"/>
			
				<linearGradient id="rect6602_2_" gradientUnits="userSpaceOnUse" x1="215.9784" y1="79.9329" x2="216.63" y2="79.9329" gradientTransform="matrix(3.0576 -1.1129 3.837 10.5419 -838.2595 -556.9635)">
				<stop  offset="0" style="stop-color:#E7E5E4"/>
				<stop  offset="1" style="stop-color:#B8BABA;stop-opacity:0.7374"/>
			</linearGradient>
			<path id="rect6602_1_" class="st10" d="M127.7,42l1.9-0.7l2.4,6.6l-1.9,0.7L127.7,42z"/>
			
				<linearGradient id="rect6604_2_" gradientUnits="userSpaceOnUse" x1="215.4371" y1="79.9079" x2="216.0886" y2="79.9079" gradientTransform="matrix(3.0577 -1.1129 3.837 10.5419 -833.7031 -558.3307)">
				<stop  offset="0" style="stop-color:#E7E5E4"/>
				<stop  offset="1" style="stop-color:#B8BABA;stop-opacity:0.7374"/>
			</linearGradient>
			<path id="rect6604_1_" class="st11" d="M130.5,41l1.9-0.7l2.4,6.6l-1.9,0.7L130.5,41z"/>
			
				<linearGradient id="rect6606_2_" gradientUnits="userSpaceOnUse" x1="214.8838" y1="79.9081" x2="215.5358" y2="79.9081" gradientTransform="matrix(3.0577 -1.1129 3.837 10.5419 -829.2031 -559.9713)">
				<stop  offset="0" style="stop-color:#E7E5E4"/>
				<stop  offset="1" style="stop-color:#B8BABA;stop-opacity:0.7374"/>
			</linearGradient>
			<path id="rect6606_1_" class="st12" d="M133.3,40l1.9-0.7l2.4,6.6l-1.9,0.7L133.3,40z"/>
			
				<linearGradient id="rect6608_2_" gradientUnits="userSpaceOnUse" x1="214.326" y1="79.9329" x2="214.9767" y2="79.9329" gradientTransform="matrix(3.0576 -1.1129 3.837 10.5419 -824.7595 -561.8776)">
				<stop  offset="0" style="stop-color:#E7E5E4"/>
				<stop  offset="1" style="stop-color:#B8BABA;stop-opacity:0.7374"/>
			</linearGradient>
			<path id="rect6608_1_" class="st13" d="M136.1,38.9l1.9-0.7l2.4,6.6l-1.9,0.7L136.1,38.9z"/>
			
				<linearGradient id="rect6610_2_" gradientUnits="userSpaceOnUse" x1="213.7828" y1="79.9078" x2="214.4335" y2="79.9078" gradientTransform="matrix(3.0577 -1.1129 3.837 10.5419 -820.2031 -563.2448)">
				<stop  offset="0" style="stop-color:#E7E5E4"/>
				<stop  offset="1" style="stop-color:#B8BABA;stop-opacity:0.7374"/>
			</linearGradient>
			<path id="rect6610_1_" class="st14" d="M138.9,37.9l1.9-0.7l2.4,6.6l-1.9,0.7L138.9,37.9z"/>
			
				<linearGradient id="rect6612_2_" gradientUnits="userSpaceOnUse" x1="213.231" y1="79.9081" x2="213.882" y2="79.9081" gradientTransform="matrix(3.0577 -1.1129 3.837 10.5419 -815.7031 -564.8854)">
				<stop  offset="0" style="stop-color:#E7E5E4"/>
				<stop  offset="1" style="stop-color:#B8BABA;stop-opacity:0.7374"/>
			</linearGradient>
			<path id="rect6612_1_" class="st15" d="M141.7,36.9l1.9-0.7l2.4,6.6l-1.9,0.7L141.7,36.9z"/>
			
				<linearGradient id="rect6614_2_" gradientUnits="userSpaceOnUse" x1="212.6783" y1="79.9083" x2="213.33" y2="79.9083" gradientTransform="matrix(3.0577 -1.1129 3.837 10.5419 -811.2031 -566.526)">
				<stop  offset="0" style="stop-color:#E7E5E4"/>
				<stop  offset="1" style="stop-color:#B8BABA;stop-opacity:0.7374"/>
			</linearGradient>
			<path id="rect6614_1_" class="st16" d="M144.6,35.9l1.9-0.7l2.4,6.6l-1.9,0.7L144.6,35.9L144.6,35.9z"/>
		</g>
		<title>Layer 1</title>
	</g>
	<g>
		
			<linearGradient id="rect1307_2_" gradientUnits="userSpaceOnUse" x1="-28.3312" y1="-67.8371" x2="-29.7171" y2="-67.8371" gradientTransform="matrix(18.5148 -6.7388 -21.46 -58.9608 -645.9988 -3768.2021)">
			<stop  offset="0" style="stop-color:#E7E5E4"/>
			<stop  offset="1" style="stop-color:#898683"/>
		</linearGradient>
		<polygon id="rect1307_1_" class="st17" points="275.2,409.3 284.5,405.9 295.3,435.6 286,439 		"/>
		
			<linearGradient id="rect2182_2_" gradientUnits="userSpaceOnUse" x1="-38.8949" y1="-71.0819" x2="-39.7329" y2="-71.0819" gradientTransform="matrix(34.6737 -12.6202 -57.7858 -158.7652 -2491.8855 -11403.8389)">
			<stop  offset="0" style="stop-color:#E7E5E4"/>
			<stop  offset="1" style="stop-color:#898683"/>
		</linearGradient>
		<polygon id="rect2182_1_" class="st18" points="243.7,335.6 261.2,329.3 290.2,409.1 272.8,415.5 		"/>
		
			<linearGradient id="rect2184_2_" gradientUnits="userSpaceOnUse" x1="-43.3923" y1="-67.7915" x2="-44.1129" y2="-67.4584" gradientTransform="matrix(55.331 -20.1388 -13.9983 -38.4601 1704.4512 -3153.2996)">
			<stop  offset="0" style="stop-color:#E7E5E4"/>
			<stop  offset="1" style="stop-color:#898683"/>
		</linearGradient>
		<polygon id="rect2184_1_" class="st19" points="233.4,323.3 261.2,313.2 268.2,332.5 240.4,342.6 		"/>
		
			<linearGradient id="rect2186_2_" gradientUnits="userSpaceOnUse" x1="-44.5699" y1="-71.2479" x2="-45.2052" y2="-71.2479" gradientTransform="matrix(65.3153 -23.7728 -41.9695 -115.3102 157.9268 -8984.9043)">
			<stop  offset="0" style="stop-color:#E7E5E4"/>
			<stop  offset="1" style="stop-color:#898683"/>
		</linearGradient>
		<polygon id="rect2186_1_" class="st20" points="210.1,267.2 243,255.3 264.1,313.3 231.2,325.2 		"/>
		
			<linearGradient id="rect3061_3_" gradientUnits="userSpaceOnUse" x1="-48.7102" y1="-72.4469" x2="-49.1548" y2="-72.4469" gradientTransform="matrix(200.344 -72.9192 -144.6641 -397.4614 -518.2231 -32186.6309)">
			<stop  offset="0" style="stop-color:#E7E5E4"/>
			<stop  offset="1" style="stop-color:#898683"/>
		</linearGradient>
		<path id="rect3061_2_" class="st21" d="M118.8,77.9c-10,3.8-7.4,0.8-12,7c-1.6,1.1-3.9,16.6,0.2,14.4c18.6-11.3,35.4-1.7,38,7.8
			l66.2,163.4l32.9-12L190.3,71.2l-10.2-15.9l-25.7,9.3C154.4,64.7,128.8,74.2,118.8,77.9z"/>
		<line class="st22" x1="106.7" y1="93.8" x2="184.5" y2="65.4"/>
		
			<linearGradient id="rect11166_21_" gradientUnits="userSpaceOnUse" x1="-46.1367" y1="-77.9172" x2="-46.1502" y2="-77.4253" gradientTransform="matrix(96.9623 -16.0777 -2.3532 -14.1921 4464.9092 -1736.5973)">
			<stop  offset="0" style="stop-color:#E7E5E4"/>
			<stop  offset="1" style="stop-color:#ADADAD"/>
		</linearGradient>
		<path id="rect11166_1_" class="st23" d="M147,108.6l50.6-8.7l1.9,6.8l-50,8.5L147,108.6z"/>
		
			<linearGradient id="rect11166_22_" gradientUnits="userSpaceOnUse" x1="-46.1233" y1="-78.4064" x2="-46.137" y2="-77.9077" gradientTransform="matrix(96.9623 -16.0777 -2.3532 -14.1921 4464.9092 -1736.5973)">
			<stop  offset="0" style="stop-color:#E7E5E4"/>
			<stop  offset="1" style="stop-color:#ADADAD"/>
		</linearGradient>
		<path id="rect11166_2_" class="st24" d="M149.4,115.2l50.6-8.7l1.9,6.8l-50,8.6L149.4,115.2z"/>
		
			<linearGradient id="rect11166_23_" gradientUnits="userSpaceOnUse" x1="-46.1102" y1="-78.886" x2="-46.1237" y2="-78.3942" gradientTransform="matrix(96.9623 -16.0777 -2.3532 -14.1921 4464.9092 -1736.5973)">
			<stop  offset="0" style="stop-color:#E7E5E4"/>
			<stop  offset="1" style="stop-color:#ADADAD"/>
		</linearGradient>
		<path id="rect11166_4_" class="st25" d="M151.9,122l50.6-8.8l1.9,6.8l-50,8.5L151.9,122z"/>
		
			<linearGradient id="rect11166_24_" gradientUnits="userSpaceOnUse" x1="-46.0971" y1="-79.3674" x2="-46.1105" y2="-78.8754" gradientTransform="matrix(96.9623 -16.0777 -2.3532 -14.1921 4464.9092 -1736.5973)">
			<stop  offset="0" style="stop-color:#E7E5E4"/>
			<stop  offset="1" style="stop-color:#ADADAD"/>
		</linearGradient>
		<path id="rect11166_3_" class="st26" d="M154.3,128.6l50.6-8.7l1.9,6.8l-50,8.5L154.3,128.6z"/>
		
			<linearGradient id="rect11166_25_" gradientUnits="userSpaceOnUse" x1="-46.0843" y1="-79.8372" x2="-46.0977" y2="-79.346" gradientTransform="matrix(96.9623 -16.0777 -2.3532 -14.1921 4464.9092 -1736.5973)">
			<stop  offset="0" style="stop-color:#E7E5E4"/>
			<stop  offset="1" style="stop-color:#ADADAD"/>
		</linearGradient>
		<path id="rect11166_8_" class="st27" d="M156.6,135l50.6-8.7l1.9,6.8l-50,8.5L156.6,135z"/>
		
			<linearGradient id="rect11166_26_" gradientUnits="userSpaceOnUse" x1="-46.0785" y1="-80.3196" x2="-46.092" y2="-79.8279" gradientTransform="matrix(96.9623 -16.0777 -2.3532 -14.1921 4464.9092 -1736.5973)">
			<stop  offset="0" style="stop-color:#E7E5E4"/>
			<stop  offset="1" style="stop-color:#ADADAD"/>
		</linearGradient>
		<path id="rect11166_7_" class="st28" d="M159,141.6l49.1-8.4l1.9,6.8l-48.6,8.3L159,141.6z"/>
		
			<linearGradient id="rect11166_27_" gradientUnits="userSpaceOnUse" x1="-46.0682" y1="-80.8068" x2="-46.0816" y2="-80.3161" gradientTransform="matrix(96.9623 -16.0777 -2.3532 -14.1921 4464.9092 -1736.5973)">
			<stop  offset="0" style="stop-color:#E7E5E4"/>
			<stop  offset="1" style="stop-color:#ADADAD"/>
		</linearGradient>
		<path id="rect11166_6_" class="st29" d="M161.5,148.4L210,140l2,6.8l-48.2,8.2L161.5,148.4z"/>
		
			<linearGradient id="rect11166_28_" gradientUnits="userSpaceOnUse" x1="-46.0518" y1="-81.2931" x2="-46.0655" y2="-80.7952" gradientTransform="matrix(96.9623 -16.0777 -2.3532 -14.1921 4464.9092 -1736.5973)">
			<stop  offset="0" style="stop-color:#E7E5E4"/>
			<stop  offset="1" style="stop-color:#ADADAD"/>
		</linearGradient>
		<path id="rect11166_5_" class="st30" d="M164.4,154.8l48-8.1l1.6,6.9l-46.8,8.1L164.4,154.8z"/>
		
			<linearGradient id="rect11166_29_" gradientUnits="userSpaceOnUse" x1="-46.0423" y1="-81.7619" x2="-46.0552" y2="-81.2853" gradientTransform="matrix(96.9623 -16.0777 -2.3532 -14.1921 4464.9092 -1736.5973)">
			<stop  offset="0" style="stop-color:#E7E5E4"/>
			<stop  offset="1" style="stop-color:#ADADAD"/>
		</linearGradient>
		<path id="rect11166_12_" class="st31" d="M167.2,161.6l46.8-8.1l1.9,6.6l-46.2,7.6L167.2,161.6z"/>
		
			<linearGradient id="rect11166_30_" gradientUnits="userSpaceOnUse" x1="-46.0276" y1="-82.2482" x2="-46.0414" y2="-81.7474" gradientTransform="matrix(96.9623 -16.0777 -2.3532 -14.1921 4464.9092 -1736.5973)">
			<stop  offset="0" style="stop-color:#E7E5E4"/>
			<stop  offset="1" style="stop-color:#ADADAD"/>
		</linearGradient>
		<path id="rect11166_11_" class="st32" d="M169.7,167.8l46.6-7.8l1.5,6.9l-45.4,7.8L169.7,167.8z"/>
		
			<linearGradient id="rect11166_31_" gradientUnits="userSpaceOnUse" x1="-46.0182" y1="-82.7326" x2="-46.0314" y2="-82.2453" gradientTransform="matrix(96.9623 -16.0777 -2.3532 -14.1921 4464.9092 -1736.5973)">
			<stop  offset="0" style="stop-color:#E7E5E4"/>
			<stop  offset="1" style="stop-color:#ADADAD"/>
		</linearGradient>
		<path id="rect11166_10_" class="st33" d="M172.5,174.6l45.4-7.8l1.9,6.8l-44.6,7.5L172.5,174.6z"/>
		
			<linearGradient id="rect11166_32_" gradientUnits="userSpaceOnUse" x1="-46.006" y1="-83.216" x2="-46.0191" y2="-82.7303" gradientTransform="matrix(96.9623 -16.0777 -2.3532 -14.1921 4464.9092 -1736.5973)">
			<stop  offset="0" style="stop-color:#E7E5E4"/>
			<stop  offset="1" style="stop-color:#ADADAD"/>
		</linearGradient>
		<path id="rect11166_9_" class="st34" d="M175.2,181.2l44.6-7.5l1.7,6.7l-43.7,7.4L175.2,181.2z"/>
		
			<linearGradient id="rect11166_33_" gradientUnits="userSpaceOnUse" x1="-45.9953" y1="-83.6975" x2="-46.0085" y2="-83.2141" gradientTransform="matrix(96.9623 -16.0777 -2.3532 -14.1921 4464.9092 -1736.5973)">
			<stop  offset="0" style="stop-color:#E7E5E4"/>
			<stop  offset="1" style="stop-color:#ADADAD"/>
		</linearGradient>
		<path id="rect11166_16_" class="st35" d="M177.8,187.8l43.7-7.4l2.1,6.5l-43.1,7.5L177.8,187.8z"/>
		
			<linearGradient id="rect11166_34_" gradientUnits="userSpaceOnUse" x1="-45.9819" y1="-84.1848" x2="-45.9956" y2="-83.6836" gradientTransform="matrix(96.9623 -16.0777 -2.3532 -14.1921 4464.9092 -1736.5973)">
			<stop  offset="0" style="stop-color:#E7E5E4"/>
			<stop  offset="1" style="stop-color:#ADADAD"/>
		</linearGradient>
		<path id="rect11166_15_" class="st36" d="M180.5,194.4l43.1-7.5l1.9,6.9l-42.3,7.3L180.5,194.4z"/>
		
			<linearGradient id="rect11166_35_" gradientUnits="userSpaceOnUse" x1="-45.9705" y1="-84.6848" x2="-45.9843" y2="-84.1813" gradientTransform="matrix(96.9623 -16.0777 -2.3532 -14.1921 4464.9092 -1736.5973)">
			<stop  offset="0" style="stop-color:#E7E5E4"/>
			<stop  offset="1" style="stop-color:#ADADAD"/>
		</linearGradient>
		<path id="rect11166_14_" class="st37" d="M183.1,201.1l42.3-7.3l2,6.5l-41.5,7.5L183.1,201.1z"/>
		
			<linearGradient id="rect11166_36_" gradientUnits="userSpaceOnUse" x1="-45.9578" y1="-85.1526" x2="-45.9715" y2="-84.6529" gradientTransform="matrix(96.9623 -16.0777 -2.3532 -14.1921 4464.9092 -1736.5973)">
			<stop  offset="0" style="stop-color:#E7E5E4"/>
			<stop  offset="1" style="stop-color:#ADADAD"/>
		</linearGradient>
		<path id="rect11166_13_" class="st38" d="M185.9,207.9l41.5-7.5l2.2,6.6l-41.2,7.4L185.9,207.9z"/>
		
			<linearGradient id="rect11166_37_" gradientUnits="userSpaceOnUse" x1="-45.9446" y1="-85.6116" x2="-45.9579" y2="-85.1268" gradientTransform="matrix(96.9623 -16.0777 -2.3532 -14.1921 4464.9092 -1736.5973)">
			<stop  offset="0" style="stop-color:#E7E5E4"/>
			<stop  offset="1" style="stop-color:#ADADAD"/>
		</linearGradient>
		<path id="rect11166_20_" class="st39" d="M188.5,214.3l41.2-7.4l1.6,6.8l-40.3,6.8L188.5,214.3z"/>
		
			<linearGradient id="rect11166_38_" gradientUnits="userSpaceOnUse" x1="-45.9347" y1="-86.0901" x2="-45.9478" y2="-85.6107" gradientTransform="matrix(96.9623 -16.0777 -2.3532 -14.1921 4464.9092 -1736.5973)">
			<stop  offset="0" style="stop-color:#E7E5E4"/>
			<stop  offset="1" style="stop-color:#ADADAD"/>
		</linearGradient>
		<path id="rect11166_19_" class="st40" d="M191,220.6l40.3-6.8l1.9,6.6l-39.5,6.4L191,220.6z"/>
		
			<linearGradient id="rect11166_39_" gradientUnits="userSpaceOnUse" x1="-45.9221" y1="-86.5825" x2="-45.9361" y2="-86.0678" gradientTransform="matrix(96.9623 -16.0777 -2.3532 -14.1921 4464.9092 -1736.5973)">
			<stop  offset="0" style="stop-color:#E7E5E4"/>
			<stop  offset="1" style="stop-color:#ADADAD"/>
		</linearGradient>
		<path id="rect11166_18_" class="st41" d="M193.7,226.8l39.5-6.4l2,6.8l-38.9,6.6L193.7,226.8z"/>
		
			<linearGradient id="rect11166_40_" gradientUnits="userSpaceOnUse" x1="-45.9114" y1="-87.0608" x2="-45.9247" y2="-86.5795" gradientTransform="matrix(96.9623 -16.0777 -2.3532 -14.1921 4464.9092 -1736.5973)">
			<stop  offset="0" style="stop-color:#E7E5E4"/>
			<stop  offset="1" style="stop-color:#ADADAD"/>
		</linearGradient>
		<path id="rect11166_17_" class="st42" d="M196.2,233.8l38.9-6.6l1.9,6.7l-38.1,6.3L196.2,233.8z"/>
		<path id="rect3061_1_" class="st43" d="M118.8,77.9c-10,3.8-7.4,0.8-12,7c-1.6,1.1-3.9,16.6,0.2,14.4c18.6-11.3,35.4-1.7,37.9,7.4
			l66.2,163.4l33-11.5L190.3,71.2l-10.2-15.9l-25.7,9.3C154.4,64.7,128.8,74.2,118.8,77.9z"/>
	</g>
</g>
</svg>
