<?xml version="1.0" encoding="utf-8"?>
<!-- Generator: Adobe Illustrator 19.2.1, SVG Export Plug-In . SVG Version: 6.00 Build 0)  -->
<svg version="1.1" id="Layer_1" xmlns="http://www.w3.org/2000/svg" xmlns:xlink="http://www.w3.org/1999/xlink" x="0px" y="0px"
	 viewBox="0 0 400 600" style="enable-background:new 0 0 400 600;" xml:space="preserve">
<style type="text/css">
	.st0{fill:none;}
	.st1{fill:#00833D;}
	.st2{fill:#009345;}
	.st3{fill:url(#SVGID_1_);}
	.st4{opacity:0.75;fill:#FFFFFF;enable-background:new    ;}
	.st5{font-family:'Helvetica';}
	.st6{font-size:57.5657px;}
	.st7{fill:#2E3B96;stroke:#010101;stroke-width:3.9705;stroke-linecap:round;stroke-linejoin:round;}
	.st8{fill:#E7E5E4;stroke:#010101;stroke-width:3.9705;stroke-linecap:round;stroke-linejoin:round;}
	.st9{fill:url(#rect6600_1_);stroke:#010101;stroke-width:3.9705;stroke-linecap:round;stroke-linejoin:round;}
	.st10{fill:url(#rect6602_1_);stroke:#010101;stroke-width:3.9705;stroke-linecap:round;stroke-linejoin:round;}
	.st11{fill:url(#rect6604_1_);stroke:#010101;stroke-width:3.9705;stroke-linecap:round;stroke-linejoin:round;}
	.st12{fill:url(#rect6606_1_);stroke:#010101;stroke-width:3.9705;stroke-linecap:round;stroke-linejoin:round;}
	.st13{fill:url(#rect6608_1_);stroke:#010101;stroke-width:3.9705;stroke-linecap:round;stroke-linejoin:round;}
	.st14{fill:url(#rect6610_1_);stroke:#010101;stroke-width:3.9705;stroke-linecap:round;stroke-linejoin:round;}
	.st15{fill:url(#rect6612_1_);stroke:#010101;stroke-width:3.9705;stroke-linecap:round;stroke-linejoin:round;}
	.st16{fill:url(#rect6614_1_);stroke:#010101;stroke-width:3.9705;stroke-linecap:round;stroke-linejoin:round;}
	.st17{fill:#ECEAEB;stroke:#010101;stroke-width:3.9705;stroke-linecap:round;stroke-linejoin:round;}
	.st18{fill:url(#rect1307_1_);stroke:#010101;stroke-width:3.9705;stroke-linecap:round;stroke-linejoin:round;}
	.st19{fill:url(#rect2182_1_);stroke:#010101;stroke-width:3.9705;stroke-linecap:round;stroke-linejoin:round;}
	.st20{fill:url(#rect2184_1_);stroke:#010101;stroke-width:3.9705;stroke-linecap:round;stroke-linejoin:round;}
	.st21{fill:url(#rect2186_1_);stroke:#010101;stroke-width:3.9705;stroke-linecap:round;stroke-linejoin:round;}
	.st22{fill:url(#rect3061_2_);stroke:#010101;stroke-width:3.9705;stroke-linecap:round;stroke-linejoin:round;}
	.st23{stroke:#010101;stroke-width:2;stroke-linecap:round;stroke-linejoin:round;}
	.st24{fill:url(#rect11166_1_);}
	.st25{fill:url(#rect12922_1_);}
	.st26{fill:url(#rect12926_1_);}
	.st27{fill:url(#rect12928_1_);}
	.st28{fill:url(#rect12934_1_);}
	.st29{fill:url(#rect12936_1_);}
	.st30{fill:url(#rect12942_1_);}
	.st31{fill:url(#rect12944_1_);}
	.st32{fill:url(#path12959_1_);}
	.st33{fill:url(#path12977_1_);}
	.st34{fill:url(#path12981_1_);}
	.st35{fill:url(#path12983_1_);}
	.st36{fill:url(#path12989_1_);}
	.st37{fill:url(#path12991_1_);}
	.st38{fill:url(#path12993_1_);}
	.st39{fill:url(#path12995_1_);}
	.st40{fill:url(#path13005_1_);}
	.st41{fill:url(#path13007_1_);}
	.st42{fill:url(#path13009_1_);}
	.st43{fill:url(#path13011_1_);}
	.st44{fill:url(#path13021_1_);}
	.st45{fill:url(#path13023_1_);}
	.st46{fill:url(#path13025_1_);}
	.st47{fill:url(#path13027_1_);}
	.st48{fill:url(#path13037_1_);}
	.st49{fill:url(#path13039_1_);}
	.st50{fill:#FFFFFF;}
	.st51{font-size:10.8819px;}
	.st52{fill:none;stroke:#010101;stroke-width:3.9705;stroke-linecap:round;stroke-linejoin:round;}
	.st53{display:none;}
	.st54{display:inline;}
	.st55{fill:#C49A6C;}
	.st56{fill:#A97C50;}
</style>
<pattern  y="600" width="2138.5" height="2131.1" patternUnits="userSpaceOnUse" id="New_Pattern_Swatch_53" viewBox="0 -2131.1 2138.5 2131.1" style="overflow:visible;">
	<g>
		<rect x="0" y="-2131.1" class="st0" width="2138.5" height="2131.1"/>
		<g>
			<g>
				<rect x="0" y="-2131.1" class="st1" width="133.7" height="133.7"/>
				<rect x="133.7" y="-2131.1" class="st2" width="133.7" height="133.7"/>
				<rect x="133.7" y="-1997.5" class="st1" width="133.7" height="133.7"/>
				<rect x="0" y="-1997.5" class="st2" width="133.7" height="133.7"/>
			</g>
			<g>
				<rect x="267.3" y="-2131.1" class="st1" width="133.7" height="133.7"/>
				<rect x="401" y="-2131.1" class="st2" width="133.7" height="133.7"/>
				<rect x="401" y="-1997.5" class="st1" width="133.7" height="133.7"/>
				<rect x="267.3" y="-1997.5" class="st2" width="133.7" height="133.7"/>
			</g>
			<g>
				<rect x="0" y="-1863.8" class="st1" width="133.7" height="133.7"/>
				<rect x="133.7" y="-1863.8" class="st2" width="133.7" height="133.7"/>
				<rect x="133.7" y="-1730.2" class="st1" width="133.7" height="133.7"/>
				<rect x="0" y="-1730.2" class="st2" width="133.7" height="133.7"/>
			</g>
			<g>
				<rect x="267.3" y="-1863.8" class="st1" width="133.7" height="133.7"/>
				<rect x="401" y="-1863.8" class="st2" width="133.7" height="133.7"/>
				<rect x="401" y="-1730.2" class="st1" width="133.7" height="133.7"/>
				<rect x="267.3" y="-1730.2" class="st2" width="133.7" height="133.7"/>
			</g>
			<g>
				<rect x="534.6" y="-2131.1" class="st1" width="133.7" height="133.7"/>
				<rect x="668.3" y="-2131.1" class="st2" width="133.7" height="133.7"/>
				<rect x="668.3" y="-1997.5" class="st1" width="133.7" height="133.7"/>
				<rect x="534.6" y="-1997.5" class="st2" width="133.7" height="133.7"/>
			</g>
			<g>
				<rect x="801.9" y="-2131.1" class="st1" width="133.7" height="133.7"/>
				<rect x="935.6" y="-2131.1" class="st2" width="133.7" height="133.7"/>
				<rect x="935.6" y="-1997.5" class="st1" width="133.7" height="133.7"/>
				<rect x="801.9" y="-1997.5" class="st2" width="133.7" height="133.7"/>
			</g>
			<g>
				<rect x="534.6" y="-1863.8" class="st1" width="133.7" height="133.7"/>
				<rect x="668.3" y="-1863.8" class="st2" width="133.7" height="133.7"/>
				<rect x="668.3" y="-1730.2" class="st1" width="133.7" height="133.7"/>
				<rect x="534.6" y="-1730.2" class="st2" width="133.7" height="133.7"/>
			</g>
			<g>
				<rect x="801.9" y="-1863.8" class="st1" width="133.7" height="133.7"/>
				<rect x="935.6" y="-1863.8" class="st2" width="133.7" height="133.7"/>
				<rect x="935.6" y="-1730.2" class="st1" width="133.7" height="133.7"/>
				<rect x="801.9" y="-1730.2" class="st2" width="133.7" height="133.7"/>
			</g>
			<g>
				<rect x="0" y="-1599.9" class="st1" width="133.7" height="133.7"/>
				<rect x="133.7" y="-1599.9" class="st2" width="133.7" height="133.7"/>
				<rect x="133.7" y="-1466.3" class="st1" width="133.7" height="133.7"/>
				<rect x="0" y="-1466.3" class="st2" width="133.7" height="133.7"/>
			</g>
			<g>
				<rect x="267.3" y="-1599.9" class="st1" width="133.7" height="133.7"/>
				<rect x="401" y="-1599.9" class="st2" width="133.7" height="133.7"/>
				<rect x="401" y="-1466.3" class="st1" width="133.7" height="133.7"/>
				<rect x="267.3" y="-1466.3" class="st2" width="133.7" height="133.7"/>
			</g>
			<g>
				<rect x="0" y="-1332.6" class="st1" width="133.7" height="133.7"/>
				<rect x="133.7" y="-1332.6" class="st2" width="133.7" height="133.7"/>
				<rect x="133.7" y="-1199" class="st1" width="133.7" height="133.7"/>
				<rect x="0" y="-1199" class="st2" width="133.7" height="133.7"/>
			</g>
			<g>
				<rect x="267.3" y="-1332.6" class="st1" width="133.7" height="133.7"/>
				<rect x="401" y="-1332.6" class="st2" width="133.7" height="133.7"/>
				<rect x="401" y="-1199" class="st1" width="133.7" height="133.7"/>
				<rect x="267.3" y="-1199" class="st2" width="133.7" height="133.7"/>
			</g>
			<g>
				<rect x="534.6" y="-1599.9" class="st1" width="133.7" height="133.7"/>
				<rect x="668.3" y="-1599.9" class="st2" width="133.7" height="133.7"/>
				<rect x="668.3" y="-1466.3" class="st1" width="133.7" height="133.7"/>
				<rect x="534.6" y="-1466.3" class="st2" width="133.7" height="133.7"/>
			</g>
			<g>
				<rect x="801.9" y="-1599.9" class="st1" width="133.7" height="133.7"/>
				<rect x="935.6" y="-1599.9" class="st2" width="133.7" height="133.7"/>
				<rect x="935.6" y="-1466.3" class="st1" width="133.7" height="133.7"/>
				<rect x="801.9" y="-1466.3" class="st2" width="133.7" height="133.7"/>
			</g>
			<g>
				<rect x="534.6" y="-1332.6" class="st1" width="133.7" height="133.7"/>
				<rect x="668.3" y="-1332.6" class="st2" width="133.7" height="133.7"/>
				<rect x="668.3" y="-1199" class="st1" width="133.7" height="133.7"/>
				<rect x="534.6" y="-1199" class="st2" width="133.7" height="133.7"/>
			</g>
			<g>
				<rect x="801.9" y="-1332.6" class="st1" width="133.7" height="133.7"/>
				<rect x="935.6" y="-1332.6" class="st2" width="133.7" height="133.7"/>
				<rect x="935.6" y="-1199" class="st1" width="133.7" height="133.7"/>
				<rect x="801.9" y="-1199" class="st2" width="133.7" height="133.7"/>
			</g>
		</g>
		<g>
			<g>
				<rect x="1069.2" y="-2131.1" class="st1" width="133.7" height="133.7"/>
				<rect x="1202.9" y="-2131.1" class="st2" width="133.7" height="133.7"/>
				<rect x="1202.9" y="-1997.5" class="st1" width="133.7" height="133.7"/>
				<rect x="1069.2" y="-1997.5" class="st2" width="133.7" height="133.7"/>
			</g>
			<g>
				<rect x="1336.5" y="-2131.1" class="st1" width="133.7" height="133.7"/>
				<rect x="1470.2" y="-2131.1" class="st2" width="133.7" height="133.7"/>
				<rect x="1470.2" y="-1997.5" class="st1" width="133.7" height="133.7"/>
				<rect x="1336.5" y="-1997.5" class="st2" width="133.7" height="133.7"/>
			</g>
			<g>
				<rect x="1069.2" y="-1863.8" class="st1" width="133.7" height="133.7"/>
				<rect x="1202.9" y="-1863.8" class="st2" width="133.7" height="133.7"/>
				<rect x="1202.9" y="-1730.2" class="st1" width="133.7" height="133.7"/>
				<rect x="1069.2" y="-1730.2" class="st2" width="133.7" height="133.7"/>
			</g>
			<g>
				<rect x="1336.5" y="-1863.8" class="st1" width="133.7" height="133.7"/>
				<rect x="1470.2" y="-1863.8" class="st2" width="133.7" height="133.7"/>
				<rect x="1470.2" y="-1730.2" class="st1" width="133.7" height="133.7"/>
				<rect x="1336.5" y="-1730.2" class="st2" width="133.7" height="133.7"/>
			</g>
			<g>
				<rect x="1603.9" y="-2131.1" class="st1" width="133.7" height="133.7"/>
				<rect x="1737.5" y="-2131.1" class="st2" width="133.7" height="133.7"/>
				<rect x="1737.5" y="-1997.5" class="st1" width="133.7" height="133.7"/>
				<rect x="1603.9" y="-1997.5" class="st2" width="133.7" height="133.7"/>
			</g>
			<g>
				<rect x="1871.2" y="-2131.1" class="st1" width="133.7" height="133.7"/>
				<rect x="2004.8" y="-2131.1" class="st2" width="133.7" height="133.7"/>
				<rect x="2004.8" y="-1997.5" class="st1" width="133.7" height="133.7"/>
				<rect x="1871.2" y="-1997.5" class="st2" width="133.7" height="133.7"/>
			</g>
			<g>
				<rect x="1603.9" y="-1863.8" class="st1" width="133.7" height="133.7"/>
				<rect x="1737.5" y="-1863.8" class="st2" width="133.7" height="133.7"/>
				<rect x="1737.5" y="-1730.2" class="st1" width="133.7" height="133.7"/>
				<rect x="1603.9" y="-1730.2" class="st2" width="133.7" height="133.7"/>
			</g>
			<g>
				<rect x="1871.2" y="-1863.8" class="st1" width="133.7" height="133.7"/>
				<rect x="2004.8" y="-1863.8" class="st2" width="133.7" height="133.7"/>
				<rect x="2004.8" y="-1730.2" class="st1" width="133.7" height="133.7"/>
				<rect x="1871.2" y="-1730.2" class="st2" width="133.7" height="133.7"/>
			</g>
			<g>
				<rect x="1069.2" y="-1599.9" class="st1" width="133.7" height="133.7"/>
				<rect x="1202.9" y="-1599.9" class="st2" width="133.7" height="133.7"/>
				<rect x="1202.9" y="-1466.3" class="st1" width="133.7" height="133.7"/>
				<rect x="1069.2" y="-1466.3" class="st2" width="133.7" height="133.7"/>
			</g>
			<g>
				<rect x="1336.5" y="-1599.9" class="st1" width="133.7" height="133.7"/>
				<rect x="1470.2" y="-1599.9" class="st2" width="133.7" height="133.7"/>
				<rect x="1470.2" y="-1466.3" class="st1" width="133.7" height="133.7"/>
				<rect x="1336.5" y="-1466.3" class="st2" width="133.7" height="133.7"/>
			</g>
			<g>
				<rect x="1069.2" y="-1332.6" class="st1" width="133.7" height="133.7"/>
				<rect x="1202.9" y="-1332.6" class="st2" width="133.7" height="133.7"/>
				<rect x="1202.9" y="-1199" class="st1" width="133.7" height="133.7"/>
				<rect x="1069.2" y="-1199" class="st2" width="133.7" height="133.7"/>
			</g>
			<g>
				<rect x="1336.5" y="-1332.6" class="st1" width="133.7" height="133.7"/>
				<rect x="1470.2" y="-1332.6" class="st2" width="133.7" height="133.7"/>
				<rect x="1470.2" y="-1199" class="st1" width="133.7" height="133.7"/>
				<rect x="1336.5" y="-1199" class="st2" width="133.7" height="133.7"/>
			</g>
			<g>
				<rect x="1603.9" y="-1599.9" class="st1" width="133.7" height="133.7"/>
				<rect x="1737.5" y="-1599.9" class="st2" width="133.7" height="133.7"/>
				<rect x="1737.5" y="-1466.3" class="st1" width="133.7" height="133.7"/>
				<rect x="1603.9" y="-1466.3" class="st2" width="133.7" height="133.7"/>
			</g>
			<g>
				<rect x="1871.2" y="-1599.9" class="st1" width="133.7" height="133.7"/>
				<rect x="2004.8" y="-1599.9" class="st2" width="133.7" height="133.7"/>
				<rect x="2004.8" y="-1466.3" class="st1" width="133.7" height="133.7"/>
				<rect x="1871.2" y="-1466.3" class="st2" width="133.7" height="133.7"/>
			</g>
			<g>
				<rect x="1603.9" y="-1332.6" class="st1" width="133.7" height="133.7"/>
				<rect x="1737.5" y="-1332.6" class="st2" width="133.7" height="133.7"/>
				<rect x="1737.5" y="-1199" class="st1" width="133.7" height="133.7"/>
				<rect x="1603.9" y="-1199" class="st2" width="133.7" height="133.7"/>
			</g>
			<g>
				<rect x="1871.2" y="-1332.6" class="st1" width="133.7" height="133.7"/>
				<rect x="2004.8" y="-1332.6" class="st2" width="133.7" height="133.7"/>
				<rect x="2004.8" y="-1199" class="st1" width="133.7" height="133.7"/>
				<rect x="1871.2" y="-1199" class="st2" width="133.7" height="133.7"/>
			</g>
		</g>
		<g>
			<g>
				<rect x="0" y="-1065.8" class="st1" width="133.7" height="133.7"/>
				<rect x="133.7" y="-1065.8" class="st2" width="133.7" height="133.7"/>
				<rect x="133.7" y="-932.2" class="st1" width="133.7" height="133.7"/>
				<rect x="0" y="-932.2" class="st2" width="133.7" height="133.7"/>
			</g>
			<g>
				<rect x="267.3" y="-1065.8" class="st1" width="133.7" height="133.7"/>
				<rect x="401" y="-1065.8" class="st2" width="133.7" height="133.7"/>
				<rect x="401" y="-932.2" class="st1" width="133.7" height="133.7"/>
				<rect x="267.3" y="-932.2" class="st2" width="133.7" height="133.7"/>
			</g>
			<g>
				<rect x="0" y="-798.5" class="st1" width="133.7" height="133.7"/>
				<rect x="133.7" y="-798.5" class="st2" width="133.7" height="133.7"/>
				<rect x="133.7" y="-664.8" class="st1" width="133.7" height="133.7"/>
				<rect x="0" y="-664.8" class="st2" width="133.7" height="133.7"/>
			</g>
			<g>
				<rect x="267.3" y="-798.5" class="st1" width="133.7" height="133.7"/>
				<rect x="401" y="-798.5" class="st2" width="133.7" height="133.7"/>
				<rect x="401" y="-664.8" class="st1" width="133.7" height="133.7"/>
				<rect x="267.3" y="-664.8" class="st2" width="133.7" height="133.7"/>
			</g>
			<g>
				<rect x="534.6" y="-1065.8" class="st1" width="133.7" height="133.7"/>
				<rect x="668.3" y="-1065.8" class="st2" width="133.7" height="133.7"/>
				<rect x="668.3" y="-932.2" class="st1" width="133.7" height="133.7"/>
				<rect x="534.6" y="-932.2" class="st2" width="133.7" height="133.7"/>
			</g>
			<g>
				<rect x="801.9" y="-1065.8" class="st1" width="133.7" height="133.7"/>
				<rect x="935.6" y="-1065.8" class="st2" width="133.7" height="133.7"/>
				<rect x="935.6" y="-932.2" class="st1" width="133.7" height="133.7"/>
				<rect x="801.9" y="-932.2" class="st2" width="133.7" height="133.7"/>
			</g>
			<g>
				<rect x="534.6" y="-798.5" class="st1" width="133.7" height="133.7"/>
				<rect x="668.3" y="-798.5" class="st2" width="133.7" height="133.7"/>
				<rect x="668.3" y="-664.8" class="st1" width="133.7" height="133.7"/>
				<rect x="534.6" y="-664.8" class="st2" width="133.7" height="133.7"/>
			</g>
			<g>
				<rect x="801.9" y="-798.5" class="st1" width="133.7" height="133.7"/>
				<rect x="935.6" y="-798.5" class="st2" width="133.7" height="133.7"/>
				<rect x="935.6" y="-664.8" class="st1" width="133.7" height="133.7"/>
				<rect x="801.9" y="-664.8" class="st2" width="133.7" height="133.7"/>
			</g>
			<g>
				<rect x="0" y="-534.6" class="st1" width="133.7" height="133.7"/>
				<rect x="133.7" y="-534.6" class="st2" width="133.7" height="133.7"/>
				<rect x="133.7" y="-401" class="st1" width="133.7" height="133.7"/>
				<rect x="0" y="-401" class="st2" width="133.7" height="133.7"/>
			</g>
			<g>
				<rect x="267.3" y="-534.6" class="st1" width="133.7" height="133.7"/>
				<rect x="401" y="-534.6" class="st2" width="133.7" height="133.7"/>
				<rect x="401" y="-401" class="st1" width="133.7" height="133.7"/>
				<rect x="267.3" y="-401" class="st2" width="133.7" height="133.7"/>
			</g>
			<g>
				<rect x="0" y="-267.3" class="st1" width="133.7" height="133.7"/>
				<rect x="133.7" y="-267.3" class="st2" width="133.7" height="133.7"/>
				<rect x="133.7" y="-133.7" class="st1" width="133.7" height="133.7"/>
				<rect x="0" y="-133.7" class="st2" width="133.7" height="133.7"/>
			</g>
			<g>
				<rect x="267.3" y="-267.3" class="st1" width="133.7" height="133.7"/>
				<rect x="401" y="-267.3" class="st2" width="133.7" height="133.7"/>
				<rect x="401" y="-133.7" class="st1" width="133.7" height="133.7"/>
				<rect x="267.3" y="-133.7" class="st2" width="133.7" height="133.7"/>
			</g>
			<g>
				<rect x="534.6" y="-534.6" class="st1" width="133.7" height="133.7"/>
				<rect x="668.3" y="-534.6" class="st2" width="133.7" height="133.7"/>
				<rect x="668.3" y="-401" class="st1" width="133.7" height="133.7"/>
				<rect x="534.6" y="-401" class="st2" width="133.7" height="133.7"/>
			</g>
			<g>
				<rect x="801.9" y="-534.6" class="st1" width="133.7" height="133.7"/>
				<rect x="935.6" y="-534.6" class="st2" width="133.7" height="133.7"/>
				<rect x="935.6" y="-401" class="st1" width="133.7" height="133.7"/>
				<rect x="801.9" y="-401" class="st2" width="133.7" height="133.7"/>
			</g>
			<g>
				<rect x="534.6" y="-267.3" class="st1" width="133.7" height="133.7"/>
				<rect x="668.3" y="-267.3" class="st2" width="133.7" height="133.7"/>
				<rect x="668.3" y="-133.7" class="st1" width="133.7" height="133.7"/>
				<rect x="534.6" y="-133.7" class="st2" width="133.7" height="133.7"/>
			</g>
			<g>
				<rect x="801.9" y="-267.3" class="st1" width="133.7" height="133.7"/>
				<rect x="935.6" y="-267.3" class="st2" width="133.7" height="133.7"/>
				<rect x="935.6" y="-133.7" class="st1" width="133.7" height="133.7"/>
				<rect x="801.9" y="-133.7" class="st2" width="133.7" height="133.7"/>
			</g>
		</g>
		<g>
			<g>
				<rect x="1069.2" y="-1065.8" class="st1" width="133.7" height="133.7"/>
				<rect x="1202.9" y="-1065.8" class="st2" width="133.7" height="133.7"/>
				<rect x="1202.9" y="-932.2" class="st1" width="133.7" height="133.7"/>
				<rect x="1069.2" y="-932.2" class="st2" width="133.7" height="133.7"/>
			</g>
			<g>
				<rect x="1336.5" y="-1065.8" class="st1" width="133.7" height="133.7"/>
				<rect x="1470.2" y="-1065.8" class="st2" width="133.7" height="133.7"/>
				<rect x="1470.2" y="-932.2" class="st1" width="133.7" height="133.7"/>
				<rect x="1336.5" y="-932.2" class="st2" width="133.7" height="133.7"/>
			</g>
			<g>
				<rect x="1069.2" y="-798.5" class="st1" width="133.7" height="133.7"/>
				<rect x="1202.9" y="-798.5" class="st2" width="133.7" height="133.7"/>
				<rect x="1202.9" y="-664.8" class="st1" width="133.7" height="133.7"/>
				<rect x="1069.2" y="-664.8" class="st2" width="133.7" height="133.7"/>
			</g>
			<g>
				<rect x="1336.5" y="-798.5" class="st1" width="133.7" height="133.7"/>
				<rect x="1470.2" y="-798.5" class="st2" width="133.7" height="133.7"/>
				<rect x="1470.2" y="-664.8" class="st1" width="133.7" height="133.7"/>
				<rect x="1336.5" y="-664.8" class="st2" width="133.7" height="133.7"/>
			</g>
			<g>
				<rect x="1603.9" y="-1065.8" class="st1" width="133.7" height="133.7"/>
				<rect x="1737.5" y="-1065.8" class="st2" width="133.7" height="133.7"/>
				<rect x="1737.5" y="-932.2" class="st1" width="133.7" height="133.7"/>
				<rect x="1603.9" y="-932.2" class="st2" width="133.7" height="133.7"/>
			</g>
			<g>
				<rect x="1871.2" y="-1065.8" class="st1" width="133.7" height="133.7"/>
				<rect x="2004.8" y="-1065.8" class="st2" width="133.7" height="133.7"/>
				<rect x="2004.8" y="-932.2" class="st1" width="133.7" height="133.7"/>
				<rect x="1871.2" y="-932.2" class="st2" width="133.7" height="133.7"/>
			</g>
			<g>
				<rect x="1603.9" y="-798.5" class="st1" width="133.7" height="133.7"/>
				<rect x="1737.5" y="-798.5" class="st2" width="133.7" height="133.7"/>
				<rect x="1737.5" y="-664.8" class="st1" width="133.7" height="133.7"/>
				<rect x="1603.9" y="-664.8" class="st2" width="133.7" height="133.7"/>
			</g>
			<g>
				<rect x="1871.2" y="-798.5" class="st1" width="133.7" height="133.7"/>
				<rect x="2004.8" y="-798.5" class="st2" width="133.7" height="133.7"/>
				<rect x="2004.8" y="-664.8" class="st1" width="133.7" height="133.7"/>
				<rect x="1871.2" y="-664.8" class="st2" width="133.7" height="133.7"/>
			</g>
			<g>
				<rect x="1069.2" y="-534.6" class="st1" width="133.7" height="133.7"/>
				<rect x="1202.9" y="-534.6" class="st2" width="133.7" height="133.7"/>
				<rect x="1202.9" y="-401" class="st1" width="133.7" height="133.7"/>
				<rect x="1069.2" y="-401" class="st2" width="133.7" height="133.7"/>
			</g>
			<g>
				<rect x="1336.5" y="-534.6" class="st1" width="133.7" height="133.7"/>
				<rect x="1470.2" y="-534.6" class="st2" width="133.7" height="133.7"/>
				<rect x="1470.2" y="-401" class="st1" width="133.7" height="133.7"/>
				<rect x="1336.5" y="-401" class="st2" width="133.7" height="133.7"/>
			</g>
			<g>
				<rect x="1069.2" y="-267.3" class="st1" width="133.7" height="133.7"/>
				<rect x="1202.9" y="-267.3" class="st2" width="133.7" height="133.7"/>
				<rect x="1202.9" y="-133.7" class="st1" width="133.7" height="133.7"/>
				<rect x="1069.2" y="-133.7" class="st2" width="133.7" height="133.7"/>
			</g>
			<g>
				<rect x="1336.5" y="-267.3" class="st1" width="133.7" height="133.7"/>
				<rect x="1470.2" y="-267.3" class="st2" width="133.7" height="133.7"/>
				<rect x="1470.2" y="-133.7" class="st1" width="133.7" height="133.7"/>
				<rect x="1336.5" y="-133.7" class="st2" width="133.7" height="133.7"/>
			</g>
			<g>
				<rect x="1603.9" y="-534.6" class="st1" width="133.7" height="133.7"/>
				<rect x="1737.5" y="-534.6" class="st2" width="133.7" height="133.7"/>
				<rect x="1737.5" y="-401" class="st1" width="133.7" height="133.7"/>
				<rect x="1603.9" y="-401" class="st2" width="133.7" height="133.7"/>
			</g>
			<g>
				<rect x="1871.2" y="-534.6" class="st1" width="133.7" height="133.7"/>
				<rect x="2004.8" y="-534.6" class="st2" width="133.7" height="133.7"/>
				<rect x="2004.8" y="-401" class="st1" width="133.7" height="133.7"/>
				<rect x="1871.2" y="-401" class="st2" width="133.7" height="133.7"/>
			</g>
			<g>
				<rect x="1603.9" y="-267.3" class="st1" width="133.7" height="133.7"/>
				<rect x="1737.5" y="-267.3" class="st2" width="133.7" height="133.7"/>
				<rect x="1737.5" y="-133.7" class="st1" width="133.7" height="133.7"/>
				<rect x="1603.9" y="-133.7" class="st2" width="133.7" height="133.7"/>
			</g>
			<g>
				<rect x="1871.2" y="-267.3" class="st1" width="133.7" height="133.7"/>
				<rect x="2004.8" y="-267.3" class="st2" width="133.7" height="133.7"/>
				<rect x="2004.8" y="-133.7" class="st1" width="133.7" height="133.7"/>
				<rect x="1871.2" y="-133.7" class="st2" width="133.7" height="133.7"/>
			</g>
		</g>
	</g>
</pattern>
<pattern  id="SVGID_1_" xlink:href="#New_Pattern_Swatch_53" patternTransform="matrix(0.9659 -0.2588 0.2588 0.9659 1653.8777 -1787.0432)">
</pattern>
<rect class="st3" width="400" height="600"/>
<path class="st4" d="M367.3,526.6c0,26.9-21.8,48.6-48.6,48.6H81.3c-26.9,0-48.6-21.8-48.6-48.6l0,0c0-26.9,21.8-48.6,48.6-48.6
	h237.3C345.5,478,367.3,499.7,367.3,526.6L367.3,526.6z"/>
<text transform="matrix(1 0 0 1 76.8164 546.5166)" class="st5 st6">Research</text>
<g>
	<g>
		<path id="rect7551" class="st7" d="M125.1,30.4l13.6-5l13.6-5l9.2,1.3l7.1,5.9l-26.4,9.6l-26.4,9.6l2.3-9.5L125.1,30.4z"/>
		<g id="g7540">
			<path id="rect6598" class="st8" d="M130.7,42.8L155,34l14.3,39.3L145,82.1L130.7,42.8L130.7,42.8z"/>
			
				<linearGradient id="rect6600_1_" gradientUnits="userSpaceOnUse" x1="191.5213" y1="77.6907" x2="192.1784" y2="77.6907" gradientTransform="matrix(3.0576 -1.1129 3.837 10.5419 -750.3492 -559.8854)">
				<stop  offset="0" style="stop-color:#E7E5E4"/>
				<stop  offset="1" style="stop-color:#B8BABA;stop-opacity:0.7374"/>
			</linearGradient>
			<path id="rect6600" class="st9" d="M132.2,42.6l1.9-0.7l2.4,6.6l-1.9,0.7L132.2,42.6z"/>
			
				<linearGradient id="rect6602_1_" gradientUnits="userSpaceOnUse" x1="190.9764" y1="77.6909" x2="191.6336" y2="77.6909" gradientTransform="matrix(3.0576 -1.1129 3.837 10.5419 -745.8492 -561.526)">
				<stop  offset="0" style="stop-color:#E7E5E4"/>
				<stop  offset="1" style="stop-color:#B8BABA;stop-opacity:0.7374"/>
			</linearGradient>
			<path id="rect6602" class="st10" d="M135,41.6l1.9-0.7l2.4,6.6l-1.9,0.7L135,41.6z"/>
			
				<linearGradient id="rect6604_1_" gradientUnits="userSpaceOnUse" x1="190.4429" y1="77.6659" x2="191.0989" y2="77.6659" gradientTransform="matrix(3.0577 -1.1129 3.837 10.5419 -741.2928 -562.8932)">
				<stop  offset="0" style="stop-color:#E7E5E4"/>
				<stop  offset="1" style="stop-color:#B8BABA;stop-opacity:0.7374"/>
			</linearGradient>
			<path id="rect6604" class="st11" d="M137.9,40.6l1.9-0.7l2.4,6.6l-1.9,0.7L137.9,40.6z"/>
			
				<linearGradient id="rect6606_1_" gradientUnits="userSpaceOnUse" x1="189.897" y1="77.6662" x2="190.554" y2="77.6662" gradientTransform="matrix(3.0577 -1.1129 3.837 10.5419 -736.7928 -564.5338)">
				<stop  offset="0" style="stop-color:#E7E5E4"/>
				<stop  offset="1" style="stop-color:#B8BABA;stop-opacity:0.7374"/>
			</linearGradient>
			<path id="rect6606" class="st12" d="M140.7,39.5l1.9-0.7l2.4,6.6l-1.9,0.7L140.7,39.5z"/>
			
				<linearGradient id="rect6608_1_" gradientUnits="userSpaceOnUse" x1="189.3446" y1="77.6909" x2="190.0008" y2="77.6909" gradientTransform="matrix(3.0576 -1.1129 3.837 10.5419 -732.3492 -566.4401)">
				<stop  offset="0" style="stop-color:#E7E5E4"/>
				<stop  offset="1" style="stop-color:#B8BABA;stop-opacity:0.7374"/>
			</linearGradient>
			<path id="rect6608" class="st13" d="M143.5,38.5l1.9-0.7l2.4,6.6l-1.9,0.7L143.5,38.5z"/>
			
				<linearGradient id="rect6610_1_" gradientUnits="userSpaceOnUse" x1="188.8091" y1="77.666" x2="189.4654" y2="77.666" gradientTransform="matrix(3.0577 -1.1129 3.837 10.5419 -727.7928 -567.8073)">
				<stop  offset="0" style="stop-color:#E7E5E4"/>
				<stop  offset="1" style="stop-color:#B8BABA;stop-opacity:0.7374"/>
			</linearGradient>
			<path id="rect6610" class="st14" d="M146.4,37.5l1.9-0.7l2.4,6.6l-1.9,0.7L146.4,37.5z"/>
			
				<linearGradient id="rect6612_1_" gradientUnits="userSpaceOnUse" x1="188.2637" y1="77.6662" x2="188.9203" y2="77.6662" gradientTransform="matrix(3.0577 -1.1129 3.837 10.5419 -723.2928 -569.4479)">
				<stop  offset="0" style="stop-color:#E7E5E4"/>
				<stop  offset="1" style="stop-color:#B8BABA;stop-opacity:0.7374"/>
			</linearGradient>
			<path id="rect6612" class="st15" d="M149.2,36.4l1.9-0.7l2.4,6.6l-1.9,0.7L149.2,36.4z"/>
			
				<linearGradient id="rect6614_1_" gradientUnits="userSpaceOnUse" x1="187.7188" y1="77.6664" x2="188.3741" y2="77.6664" gradientTransform="matrix(3.0577 -1.1129 3.837 10.5419 -718.7928 -571.0885)">
				<stop  offset="0" style="stop-color:#E7E5E4"/>
				<stop  offset="1" style="stop-color:#B8BABA;stop-opacity:0.7374"/>
			</linearGradient>
			<path id="rect6614" class="st16" d="M152,35.4l1.9-0.7l2.4,6.6l-1.9,0.7L152,35.4L152,35.4z"/>
		</g>
		<title>Layer 1</title>
	</g>
	<g>
		<path id="rect6594" class="st17" d="M175.7,67.1l17.1-6.2l2.9,8l-17.1,6.2L175.7,67.1L175.7,67.1z"/>
		
			<linearGradient id="rect1307_1_" gradientUnits="userSpaceOnUse" x1="432.7767" y1="-70.8098" x2="431.3895" y2="-70.8098" gradientTransform="matrix(18.5148 -6.7388 -21.46 -58.9608 -9240.8115 -835.6398)">
			<stop  offset="0" style="stop-color:#E7E5E4"/>
			<stop  offset="1" style="stop-color:#898683"/>
		</linearGradient>
		<polygon id="rect1307" class="st18" points="281.5,409.8 290.8,406.4 301.6,436.1 292.3,439.5 		"/>
		
			<linearGradient id="rect2182_1_" gradientUnits="userSpaceOnUse" x1="424.0279" y1="-75.4853" x2="423.1883" y2="-75.4853" gradientTransform="matrix(34.6737 -12.6202 -57.7858 -158.7652 -18791.3848 -6260.3384)">
			<stop  offset="0" style="stop-color:#E7E5E4"/>
			<stop  offset="1" style="stop-color:#898683"/>
		</linearGradient>
		<polygon id="rect2182" class="st19" points="250,335.9 267.4,329.6 296.6,409.6 279.1,416 		"/>
		
			<linearGradient id="rect2184_1_" gradientUnits="userSpaceOnUse" x1="420.3082" y1="-69.5427" x2="419.5873" y2="-69.2095" gradientTransform="matrix(55.331 -20.1388 -13.9983 -38.4601 -23970.8008 6118.0132)">
			<stop  offset="0" style="stop-color:#E7E5E4"/>
			<stop  offset="1" style="stop-color:#898683"/>
		</linearGradient>
		<polygon id="rect2184" class="st20" points="239.6,323.6 267.5,313.4 274.5,332.8 246.6,343 		"/>
		
			<linearGradient id="rect2186_1_" gradientUnits="userSpaceOnUse" x1="419.3285" y1="-75.3302" x2="418.6902" y2="-75.3302" gradientTransform="matrix(65.3153 -23.7728 -41.9695 -115.3102 -30306.8223 1572.7208)">
			<stop  offset="0" style="stop-color:#E7E5E4"/>
			<stop  offset="1" style="stop-color:#898683"/>
		</linearGradient>
		<polygon id="rect2186" class="st21" points="216.3,267.4 249.2,255.4 270.4,313.5 237.4,325.5 		"/>
		
			<linearGradient id="rect3061_2_" gradientUnits="userSpaceOnUse" x1="415.9514" y1="-77.3574" x2="415.417" y2="-77.3574" gradientTransform="matrix(200.344 -72.9192 -144.6641 -397.4614 -94310.4844 -257.1316)">
			<stop  offset="0" style="stop-color:#E7E5E4"/>
			<stop  offset="1" style="stop-color:#898683"/>
		</linearGradient>
		<path id="rect3061" class="st22" d="M129.1,76c-10,3.8-20,8.3-30,14c-1.6,1.1-0.4,5.5,3.8,3.2c18.6-11.3,38.6-15.3,41.2-5.8
			l67.5,185.4l59.2-21.6L202.5,63.6l-28.8,10.5l-4.5-12.4C169.1,61.6,139.1,72.2,129.1,76z"/>
		<path id="rect5718" class="st17" d="M169.9,60.7l29.9-6l1.6,4.3l-28,10.2L169.9,60.7z"/>
		<path id="rect6596" class="st23" d="M191.2,76.8l13.6-4.9l14.6,40.1l-13.6,4.9L191.2,76.8z"/>
		
			<linearGradient id="rect11166_1_" gradientUnits="userSpaceOnUse" x1="417.9613" y1="-72.5848" x2="417.9613" y2="-69.9919" gradientTransform="matrix(87.9178 -31.9995 -4.9203 -13.5183 -36930.1328 12491.1865)">
			<stop  offset="0" style="stop-color:#E7E5E4"/>
			<stop  offset="1" style="stop-color:#898683"/>
		</linearGradient>
		<path id="rect11166" class="st24" d="M146.3,92.9l44.3-16.1l2.5,6.8l-44.3,16.1L146.3,92.9z"/>
		
			<linearGradient id="rect12922_1_" gradientUnits="userSpaceOnUse" x1="417.9614" y1="-72.0984" x2="417.9614" y2="-69.498" gradientTransform="matrix(87.9178 -31.9995 -4.9203 -13.5183 -36925.3203 12504.4365)">
			<stop  offset="0" style="stop-color:#E7E5E4"/>
			<stop  offset="1" style="stop-color:#898683"/>
		</linearGradient>
		<path id="rect12922" class="st25" d="M148.8,99.6l44.3-16.1l2.5,6.8l-44.3,16.1L148.8,99.6z"/>
		
			<linearGradient id="rect12926_1_" gradientUnits="userSpaceOnUse" x1="417.962" y1="-71.6014" x2="417.962" y2="-69.006" gradientTransform="matrix(87.9178 -31.9995 -4.9203 -13.5183 -36920.4453 12517.999)">
			<stop  offset="0" style="stop-color:#E7E5E4"/>
			<stop  offset="1" style="stop-color:#898683"/>
		</linearGradient>
		<path id="rect12926" class="st26" d="M151.3,106.4l44.3-16.1l2.5,6.8l-44.3,16.1L151.3,106.4z"/>
		
			<linearGradient id="rect12928_1_" gradientUnits="userSpaceOnUse" x1="417.9619" y1="-71.118" x2="417.9619" y2="-68.5251" gradientTransform="matrix(87.9178 -31.9995 -4.9203 -13.5183 -36915.6328 12531.1865)">
			<stop  offset="0" style="stop-color:#E7E5E4"/>
			<stop  offset="1" style="stop-color:#898683"/>
		</linearGradient>
		<path id="rect12928" class="st27" d="M153.7,113.1L198,97l2.5,6.8l-44.3,16.1L153.7,113.1z"/>
		
			<linearGradient id="rect12934_1_" gradientUnits="userSpaceOnUse" x1="417.9613" y1="-70.6082" x2="417.9613" y2="-68.0053" gradientTransform="matrix(87.9178 -31.9995 -4.9203 -13.5183 -36910.5078 12545.124)">
			<stop  offset="0" style="stop-color:#E7E5E4"/>
			<stop  offset="1" style="stop-color:#898683"/>
		</linearGradient>
		<path id="rect12934" class="st28" d="M156.2,120.1l44.3-16.1l2.5,6.8l-44.3,16.1L156.2,120.1z"/>
		
			<linearGradient id="rect12936_1_" gradientUnits="userSpaceOnUse" x1="417.9618" y1="-70.1259" x2="417.9618" y2="-67.5253" gradientTransform="matrix(87.9178 -31.9995 -4.9203 -13.5183 -36905.7578 12558.3115)">
			<stop  offset="0" style="stop-color:#E7E5E4"/>
			<stop  offset="1" style="stop-color:#898683"/>
		</linearGradient>
		<path id="rect12936" class="st29" d="M158.7,126.8l44.3-16.1l2.5,6.8l-44.3,16.1L158.7,126.8z"/>
		
			<linearGradient id="rect12942_1_" gradientUnits="userSpaceOnUse" x1="416.9547" y1="-69.6454" x2="416.9547" y2="-67.0435" gradientTransform="matrix(115.3753 -41.9932 -4.9203 -13.5183 -48254.1133 16703.4277)">
			<stop  offset="0" style="stop-color:#E7E5E4"/>
			<stop  offset="1" style="stop-color:#898683"/>
		</linearGradient>
		<path id="rect12942" class="st30" d="M161,133.3l58.2-21.2l2.5,6.8l-58.2,21.2L161,133.3z"/>
		
			<linearGradient id="rect12944_1_" gradientUnits="userSpaceOnUse" x1="419.9735" y1="-69.1307" x2="419.9735" y2="-66.5251" gradientTransform="matrix(59.4044 -21.6214 -4.9203 -13.5183 -25105.2559 8293.375)">
			<stop  offset="0" style="stop-color:#E7E5E4"/>
			<stop  offset="1" style="stop-color:#898683"/>
		</linearGradient>
		<path id="rect12944" class="st31" d="M163.5,139.9l29.9-10.9c-2.1,2-4.2,4.1-2,8.4l-25.5,9.3L163.5,139.9z"/>
		
			<linearGradient id="path12959_1_" gradientUnits="userSpaceOnUse" x1="421.0921" y1="-68.6561" x2="421.0921" y2="-66.0607" gradientTransform="matrix(50.4279 -18.3543 -4.9203 -13.5183 -21389.1484 6956.0474)">
			<stop  offset="0" style="stop-color:#E7E5E4"/>
			<stop  offset="1" style="stop-color:#898683"/>
		</linearGradient>
		<path id="path12959" class="st32" d="M166,147l25.4-9.3l2.5,6.8l-25.4,9.3L166,147z"/>
		
			<linearGradient id="path12977_1_" gradientUnits="userSpaceOnUse" x1="421.0923" y1="-68.1707" x2="421.0923" y2="-65.5777" gradientTransform="matrix(50.4279 -18.3543 -4.9203 -13.5183 -21384.3359 6969.2974)">
			<stop  offset="0" style="stop-color:#E7E5E4"/>
			<stop  offset="1" style="stop-color:#898683"/>
		</linearGradient>
		<path id="path12977" class="st33" d="M168.4,153.6l25.4-9.3l2.5,6.8l-25.4,9.3L168.4,153.6z"/>
		
			<linearGradient id="path12981_1_" gradientUnits="userSpaceOnUse" x1="421.0921" y1="-67.66" x2="421.0921" y2="-65.0582" gradientTransform="matrix(50.4279 -18.3543 -4.9203 -13.5183 -21379.2422 6983.2661)">
			<stop  offset="0" style="stop-color:#E7E5E4"/>
			<stop  offset="1" style="stop-color:#898683"/>
		</linearGradient>
		<path id="path12981" class="st34" d="M171,160.7l25.4-9.3l2.5,6.8l-25.4,9.3L171,160.7z"/>
		
			<linearGradient id="path12983_1_" gradientUnits="userSpaceOnUse" x1="421.0923" y1="-67.1736" x2="421.0923" y2="-64.5764" gradientTransform="matrix(50.4279 -18.3543 -4.9203 -13.5183 -21374.4297 6996.5161)">
			<stop  offset="0" style="stop-color:#E7E5E4"/>
			<stop  offset="1" style="stop-color:#898683"/>
		</linearGradient>
		<path id="path12983" class="st35" d="M173.4,167.4l25.4-9.3l2.5,6.8l-25.4,9.3L173.4,167.4z"/>
		
			<linearGradient id="path12989_1_" gradientUnits="userSpaceOnUse" x1="421.0923" y1="-66.6473" x2="421.0923" y2="-64.0468" gradientTransform="matrix(50.4279 -18.3543 -4.9203 -13.5183 -21369.2109 7010.8599)">
			<stop  offset="0" style="stop-color:#E7E5E4"/>
			<stop  offset="1" style="stop-color:#898683"/>
		</linearGradient>
		<path id="path12989" class="st36" d="M176.1,174.6l25.4-9.3l2.5,6.8l-25.4,9.3L176.1,174.6z"/>
		
			<linearGradient id="path12991_1_" gradientUnits="userSpaceOnUse" x1="421.0925" y1="-66.1609" x2="421.0925" y2="-63.5623" gradientTransform="matrix(50.4279 -18.3543 -4.9203 -13.5183 -21364.3984 7024.1099)">
			<stop  offset="0" style="stop-color:#E7E5E4"/>
			<stop  offset="1" style="stop-color:#898683"/>
		</linearGradient>
		<path id="path12991" class="st37" d="M178.5,181.3l25.4-9.3l2.5,6.8l-25.4,9.3L178.5,181.3z"/>
		
			<linearGradient id="path12993_1_" gradientUnits="userSpaceOnUse" x1="421.0923" y1="-65.6512" x2="421.0923" y2="-63.0482" gradientTransform="matrix(50.4279 -18.3543 -4.9203 -13.5183 -21359.3047 7038.0786)">
			<stop  offset="0" style="stop-color:#E7E5E4"/>
			<stop  offset="1" style="stop-color:#898683"/>
		</linearGradient>
		<path id="path12993" class="st38" d="M181.1,188.3l25.4-9.3l2.5,6.8l-25.4,9.3L181.1,188.3z"/>
		
			<linearGradient id="path12995_1_" gradientUnits="userSpaceOnUse" x1="421.0923" y1="-65.1668" x2="421.0923" y2="-62.5638" gradientTransform="matrix(50.4279 -18.3543 -4.9203 -13.5183 -21354.4922 7051.2974)">
			<stop  offset="0" style="stop-color:#E7E5E4"/>
			<stop  offset="1" style="stop-color:#898683"/>
		</linearGradient>
		<path id="path12995" class="st39" d="M183.5,195l25.4-9.3l2.5,6.8l-25.4,9.3L183.5,195z"/>
		
			<linearGradient id="path13005_1_" gradientUnits="userSpaceOnUse" x1="421.0926" y1="-64.6355" x2="421.0926" y2="-62.0352" gradientTransform="matrix(50.4279 -18.3543 -4.9203 -13.5183 -21349.2422 7065.7661)">
			<stop  offset="0" style="stop-color:#E7E5E4"/>
			<stop  offset="1" style="stop-color:#898683"/>
		</linearGradient>
		<path id="path13005" class="st40" d="M186.1,202.3l25.4-9.3l2.5,6.8l-25.4,9.3L186.1,202.3z"/>
		
			<linearGradient id="path13007_1_" gradientUnits="userSpaceOnUse" x1="421.0922" y1="-64.1473" x2="421.0922" y2="-61.5443" gradientTransform="matrix(50.4279 -18.3543 -4.9203 -13.5183 -21344.3984 7079.0161)">
			<stop  offset="0" style="stop-color:#E7E5E4"/>
			<stop  offset="1" style="stop-color:#898683"/>
		</linearGradient>
		<path id="path13007" class="st41" d="M188.6,209l25.4-9.3l2.5,6.8l-25.4,9.3L188.6,209z"/>
		
			<linearGradient id="path13009_1_" gradientUnits="userSpaceOnUse" x1="421.092" y1="-63.6326" x2="421.092" y2="-61.0399" gradientTransform="matrix(50.4279 -18.3543 -4.9203 -13.5183 -21339.3047 7092.9849)">
			<stop  offset="0" style="stop-color:#E7E5E4"/>
			<stop  offset="1" style="stop-color:#898683"/>
		</linearGradient>
		<path id="path13009" class="st42" d="M191.1,216l25.4-9.3l2.5,6.8l-25.4,9.3L191.1,216z"/>
		
			<linearGradient id="path13011_1_" gradientUnits="userSpaceOnUse" x1="421.0922" y1="-63.1483" x2="421.0922" y2="-60.5495" gradientTransform="matrix(50.4279 -18.3543 -4.9203 -13.5183 -21334.4922 7106.2349)">
			<stop  offset="0" style="stop-color:#E7E5E4"/>
			<stop  offset="1" style="stop-color:#898683"/>
		</linearGradient>
		<path id="path13011" class="st43" d="M193.6,222.7l25.4-9.3l2.5,6.8l-25.4,9.3L193.6,222.7z"/>
		
			<linearGradient id="path13021_1_" gradientUnits="userSpaceOnUse" x1="421.0924" y1="-62.6014" x2="421.0924" y2="-59.9977" gradientTransform="matrix(50.4279 -18.3543 -4.9203 -13.5183 -21329.0547 7121.2036)">
			<stop  offset="0" style="stop-color:#E7E5E4"/>
			<stop  offset="1" style="stop-color:#898683"/>
		</linearGradient>
		<path id="path13021" class="st44" d="M196.3,230.2l25.4-9.3l2.5,6.8l-25.4,9.3L196.3,230.2z"/>
		
			<linearGradient id="path13023_1_" gradientUnits="userSpaceOnUse" x1="421.0926" y1="-62.1151" x2="421.0926" y2="-59.507" gradientTransform="matrix(50.4279 -18.3543 -4.9203 -13.5183 -21324.2422 7134.4536)">
			<stop  offset="0" style="stop-color:#E7E5E4"/>
			<stop  offset="1" style="stop-color:#898683"/>
		</linearGradient>
		<path id="path13023" class="st45" d="M198.8,236.9l25.4-9.3l2.5,6.8l-25.4,9.3L198.8,236.9z"/>
		
			<linearGradient id="path13025_1_" gradientUnits="userSpaceOnUse" x1="421.0872" y1="-61.5976" x2="421.0872" y2="-58.9996" gradientTransform="matrix(50.4279 -18.3543 -4.9203 -13.5184 -21318.8672 7148.3711)">
			<stop  offset="0" style="stop-color:#E7E5E4"/>
			<stop  offset="1" style="stop-color:#898683"/>
		</linearGradient>
		<path id="path13025" class="st46" d="M201.3,243.9l25.4-9.3l2.5,6.8l-25.4,9.3L201.3,243.9z"/>
		
			<linearGradient id="path13027_1_" gradientUnits="userSpaceOnUse" x1="421.092" y1="-61.1131" x2="421.092" y2="-58.5201" gradientTransform="matrix(50.4279 -18.3543 -4.9203 -13.5183 -21314.3047 7161.6724)">
			<stop  offset="0" style="stop-color:#E7E5E4"/>
			<stop  offset="1" style="stop-color:#898683"/>
		</linearGradient>
		<path id="path13027" class="st47" d="M203.7,250.6l25.4-9.3l2.5,6.8l-25.4,9.3L203.7,250.6z"/>
		
			<linearGradient id="path13037_1_" gradientUnits="userSpaceOnUse" x1="421.0872" y1="-60.5888" x2="421.0872" y2="-57.9882" gradientTransform="matrix(50.4279 -18.3543 -4.9203 -13.5184 -21308.8359 7175.9336)">
			<stop  offset="0" style="stop-color:#E7E5E4"/>
			<stop  offset="1" style="stop-color:#898683"/>
		</linearGradient>
		<path id="path13037" class="st48" d="M206.4,257.9l25.4-9.3l2.5,6.8l-25.4,9.3L206.4,257.9z"/>
		
			<linearGradient id="path13039_1_" gradientUnits="userSpaceOnUse" x1="421.0921" y1="-60.1024" x2="421.0921" y2="-57.507" gradientTransform="matrix(50.4279 -18.3543 -4.9203 -13.5183 -21304.2734 7189.2349)">
			<stop  offset="0" style="stop-color:#E7E5E4"/>
			<stop  offset="1" style="stop-color:#898683"/>
		</linearGradient>
		<path id="path13039" class="st49" d="M208.8,264.5l25.4-9.3l2.5,6.8l-25.4,9.3L208.8,264.5z"/>
		<title>Layer 1</title>
		<text transform="matrix(0.9397 -0.342 0.342 0.9397 198.0615 84.0382)" class="st50 st5 st51">0</text>
		<text transform="matrix(0.9397 -0.342 0.342 0.9397 201.5762 93.6959)" class="st50 st5 st51">0</text>
		<text transform="matrix(0.9397 -0.342 0.342 0.9397 205.0918 103.3536)" class="st50 st5 st51">0</text>
		<text transform="matrix(0.9397 -0.342 0.342 0.9397 208.6065 113.0106)" class="st50 st5 st51">0</text>
		<path id="rect3061_1_" class="st52" d="M129.1,76c-10,3.8-20,8.3-30,14c-1.6,1.1-0.4,5.5,3.8,3.2c18.6-11.3,38.6-15.3,41.2-5.8
			l67.5,185.4l59.2-21.6L202.5,63.6l-28.8,10.5l-4.5-12.4C169.1,61.6,139.1,72.2,129.1,76z"/>
	</g>
</g>
<g id="Layer_2" class="st53">
	<g class="st54">
		<rect x="2.7" class="st55" width="60" height="60"/>
		<rect x="32.7" class="st56" width="30" height="30"/>
		<rect x="2.7" y="30" class="st56" width="30" height="30"/>
	</g>
</g>
</svg>
