<?xml version="1.0" encoding="utf-8"?>
<!-- Generator: Adobe Illustrator 15.1.0, SVG Export Plug-In . SVG Version: 6.00 Build 0)  -->
<!DOCTYPE svg PUBLIC "-//W3C//DTD SVG 1.1//EN" "http://www.w3.org/Graphics/SVG/1.1/DTD/svg11.dtd">
<svg version="1.1" id="Layer_1" xmlns="http://www.w3.org/2000/svg" xmlns:xlink="http://www.w3.org/1999/xlink" x="0px" y="0px"
	 width="67px" height="151px" viewBox="0 0 67 151" enable-background="new 0 0 67 151" xml:space="preserve">
<path id="rect6594" fill="#ECEAEB" stroke="#000000" stroke-width="3.9705" stroke-linecap="round" stroke-linejoin="round" d="
	M10.053,19.583h36.123v16.916H10.053V19.583z"/>
<path id="rect5718" fill="#ECEAEB" stroke="#000000" stroke-width="3.9705" stroke-linecap="round" stroke-linejoin="round" d="
	M3.549,3.658l59.902,9.054v9.054H4.389L3.549,3.658z"/>
<g>
	<g>
		
			<linearGradient id="SVGID_1_" gradientUnits="userSpaceOnUse" x1="266.0381" y1="-1982.271" x2="207.4341" y2="-1982.271" gradientTransform="matrix(1 0 0 -1 -215 -1893)">
			<stop  offset="0" style="stop-color:#E7E5E4"/>
			<stop  offset="1" style="stop-color:#898683"/>
		</linearGradient>
		<rect x="6.903" y="31.202" fill="url(#SVGID_1_)" width="55.318" height="116.14"/>
	</g>
	<g>
		
			<rect x="6.903" y="31.202" fill="none" stroke="#000000" stroke-width="3.9705" stroke-linecap="round" stroke-linejoin="round" width="55.318" height="116.14"/>
	</g>
</g>
<path id="rect6596" fill="#ECFFFF" stroke="#000000" stroke-width="3.9705" stroke-linecap="round" stroke-linejoin="round" d="
	M32.303,48.166h28.63v84.562h-28.63V48.166z"/>
<linearGradient id="rect11166_1_" gradientUnits="userSpaceOnUse" x1="-1704.9585" y1="640.6396" x2="-1704.9585" y2="635.4789" gradientTransform="matrix(93.5602 0 0 14.3859 159536.4219 -9140.8906)">
	<stop  offset="0" style="stop-color:#E7E5E4"/>
	<stop  offset="1" style="stop-color:#898683"/>
</linearGradient>
<path id="rect11166" fill="url(#rect11166_1_)" d="M8.653,47.815h22.885v14.386H8.653V47.815z"/>
<linearGradient id="rect12926_1_" gradientUnits="userSpaceOnUse" x1="-1704.9585" y1="640.6367" x2="-1704.9585" y2="635.4761" gradientTransform="matrix(93.5602 0 0 14.3859 159536.4219 -9112.4062)">
	<stop  offset="0" style="stop-color:#E7E5E4"/>
	<stop  offset="1" style="stop-color:#898683"/>
</linearGradient>
<path id="rect12926" fill="url(#rect12926_1_)" d="M8.653,76.305h22.885v14.385H8.653V76.305z"/>
<linearGradient id="rect12928_1_" gradientUnits="userSpaceOnUse" x1="-1704.9585" y1="640.6396" x2="-1704.9585" y2="635.4789" gradientTransform="matrix(93.5602 0 0 14.3859 159536.4219 -9098.3438)">
	<stop  offset="0" style="stop-color:#E7E5E4"/>
	<stop  offset="1" style="stop-color:#898683"/>
</linearGradient>
<path id="rect12928" fill="url(#rect12928_1_)" d="M8.653,90.369h22.885v14.385H8.653V90.369z"/>
<linearGradient id="rect12934_1_" gradientUnits="userSpaceOnUse" x1="-1704.9585" y1="640.5693" x2="-1704.9585" y2="635.4086" gradientTransform="matrix(93.5602 0 0 14.3859 159536.4219 -9083.5156)">
	<stop  offset="0" style="stop-color:#E7E5E4"/>
	<stop  offset="1" style="stop-color:#898683"/>
</linearGradient>
<path id="rect12934" fill="url(#rect12934_1_)" d="M8.653,104.191h22.885v14.387H8.653V104.191z"/>
<linearGradient id="rect12936_1_" gradientUnits="userSpaceOnUse" x1="-1704.9585" y1="640.5654" x2="-1704.9585" y2="635.4097" gradientTransform="matrix(93.5602 0 0 14.3859 159536.4219 -9069.4531)">
	<stop  offset="0" style="stop-color:#E7E5E4"/>
	<stop  offset="1" style="stop-color:#898683"/>
</linearGradient>
<path id="rect12936" fill="url(#rect12936_1_)" d="M8.653,118.258h22.885v14.387H8.653V118.258z"/>
<linearGradient id="rect12942_1_" gradientUnits="userSpaceOnUse" x1="-1711.6929" y1="640.418" x2="-1711.6929" y2="635.6704" gradientTransform="matrix(122.7798 0 0 14.3859 210195.8438 -9055.75)">
	<stop  offset="0" style="stop-color:#E7E5E4"/>
	<stop  offset="1" style="stop-color:#898683"/>
</linearGradient>
<path id="rect12942" fill="url(#rect12942_1_)" d="M8.653,131.955h51.75v13.273H8.653V131.955z"/>
<title>Layer 1</title>
<linearGradient id="rect12922_1_" gradientUnits="userSpaceOnUse" x1="-1704.9585" y1="640.7139" x2="-1704.9585" y2="635.3493" gradientTransform="matrix(93.5602 0 0 14.3859 159536.4219 -9126.8281)">
	<stop  offset="0" style="stop-color:#E7E5E4"/>
	<stop  offset="1" style="stop-color:#898683"/>
</linearGradient>
<path id="rect12922" fill="url(#rect12922_1_)" d="M8.653,61.88h22.885v14.974H8.653V61.88z"/>
<rect x="32.303" y="48.166" width="28.099" height="83.789"/>
<rect x="30.5" y="47.815" width="29.902" height="84.14"/>
<rect x="28.417" y="45.125" width="32.517" height="92.211"/>
</svg>
