<?xml version="1.0" encoding="utf-8"?>
<!-- Generator: Adobe Illustrator 15.1.0, SVG Export Plug-In . SVG Version: 6.00 Build 0)  -->
<!DOCTYPE svg PUBLIC "-//W3C//DTD SVG 1.1//EN" "http://www.w3.org/Graphics/SVG/1.1/DTD/svg11.dtd">
<svg version="1.1" id="Layer_1" xmlns="http://www.w3.org/2000/svg" xmlns:xlink="http://www.w3.org/1999/xlink" x="0px" y="0px"
	 width="35px" height="168.75px" viewBox="273.5 148.5 35 168.75" enable-background="new 273.5 148.5 35 168.75"
	 xml:space="preserve">
<symbol  id="svg_17" viewBox="-4.75 -39 9.5 78">
	<g>
		<title>Layer 1</title>
		
			<linearGradient id="svg_9_2_" gradientUnits="userSpaceOnUse" x1="7237.2715" y1="-8181.9424" x2="7237.7676" y2="-8181.9346" gradientTransform="matrix(9.5 0 0 78 -68758.8984 638190.625)">
			<stop  offset="0" style="stop-color:#0000FF"/>
			<stop  offset="1" style="stop-color:#A8A8FF;stop-opacity:0.9961"/>
		</linearGradient>
		<path id="svg_9_1_" fill="url(#svg_9_2_)" fill-opacity="0.76" d="M-4.75-39c3.167,0,6.334,0,9.5,0L4.5-19H4.25l-1.8,33l-2.2,25
			h-1.5l-1.8-25l-1.42-33h-0.28V-39z"/>
		
			<linearGradient id="svg_7_2_" gradientUnits="userSpaceOnUse" x1="7237.2705" y1="-7890.2876" x2="7237.7666" y2="-7890.2798" gradientTransform="matrix(9.5 0 0 20 -68758.8984 157776.5938)">
			<stop  offset="0" style="stop-color:#0000FF"/>
			<stop  offset="1" style="stop-color:#A8A8FF;stop-opacity:0.9961"/>
		</linearGradient>
		<polygon id="svg_7_1_" fill="url(#svg_7_2_)" fill-opacity="0.76" points="-4.75,-39 4.75,-39 4.75,-19 -4.75,-19 		"/>
		
			<linearGradient id="svg_6_2_" gradientUnits="userSpaceOnUse" x1="-104.3535" y1="-7890.2798" x2="-103.3535" y2="-7890.2798" gradientTransform="matrix(1 0 0 20 107.6035 157776.5938)">
			<stop  offset="0" style="stop-color:#0000FF"/>
			<stop  offset="1" style="stop-color:#5B5BFF;stop-opacity:0.9961"/>
		</linearGradient>
		<polygon id="svg_6_1_" fill="url(#svg_6_2_)" fill-opacity="0.8" points="3.25,-39 4.25,-39 4.25,-19 3.25,-19 		"/>
		
			<linearGradient id="svg_5_2_" gradientUnits="userSpaceOnUse" x1="-104.3535" y1="-7890.2798" x2="-103.3535" y2="-7890.2798" gradientTransform="matrix(1 0 0 20 99.6035 157776.5938)">
			<stop  offset="0" style="stop-color:#0000FF"/>
			<stop  offset="1" style="stop-color:#5B5BFF;stop-opacity:0.9961"/>
		</linearGradient>
		<polygon id="svg_5_1_" fill="url(#svg_5_2_)" fill-opacity="0.8" points="-4.75,-39 -3.75,-39 -3.75,-19 -4.75,-19 		"/>
		
			<linearGradient id="svg_4_2_" gradientUnits="userSpaceOnUse" x1="-104.3535" y1="-7890.2798" x2="-103.3535" y2="-7890.2798" gradientTransform="matrix(1 0 0 20 105.6035 157776.5938)">
			<stop  offset="0" style="stop-color:#0000FF"/>
			<stop  offset="1" style="stop-color:#5B5BFF;stop-opacity:0.9961"/>
		</linearGradient>
		<polygon id="svg_4_1_" fill="url(#svg_4_2_)" fill-opacity="0.8" points="1.25,-39 2.25,-39 2.25,-19 1.25,-19 		"/>
		
			<linearGradient id="svg_2_2_" gradientUnits="userSpaceOnUse" x1="-104.3535" y1="-7890.2798" x2="-103.3535" y2="-7890.2798" gradientTransform="matrix(1 0 0 20 101.6533 157776.5938)">
			<stop  offset="0" style="stop-color:#0000FF"/>
			<stop  offset="1" style="stop-color:#5B5BFF;stop-opacity:0.9961"/>
		</linearGradient>
		<polygon id="svg_2_1_" fill="url(#svg_2_2_)" fill-opacity="0.8" points="-2.7,-39 -1.7,-39 -1.7,-19 -2.7,-19 		"/>
	</g>
</symbol>
<g>
	
		<use xlink:href="#svg_17"  width="9.5" height="78" id="svg_18" x="-4.75" y="-39" transform="matrix(2.1755 0 0 1.9617 291.834 234.7871)" overflow="visible"/>
	<title>Layer 1</title>
</g>
</svg>
