<?xml version="1.0" encoding="utf-8"?>
<!-- Generator: Adobe Illustrator 15.1.0, SVG Export Plug-In . SVG Version: 6.00 Build 0)  -->
<!DOCTYPE svg PUBLIC "-//W3C//DTD SVG 1.1//EN" "http://www.w3.org/Graphics/SVG/1.1/DTD/svg11.dtd">
<svg version="1.1" xmlns="http://www.w3.org/2000/svg" xmlns:xlink="http://www.w3.org/1999/xlink" x="0px" y="0px" width="800px"
	 height="600px" viewBox="0 0 800 600" enable-background="new 0 0 800 600" xml:space="preserve">
<symbol  id="svg_17" viewBox="-4.75 -39 9.5 78">
	<g id="g4_1_">
		<title  id="title6">Layer 1</title>
		
			<linearGradient id="svg_9_3_" gradientUnits="userSpaceOnUse" x1="14209.0605" y1="-16565.0703" x2="14209.5566" y2="-16565.0625" gradientTransform="matrix(9.5 0 0 78 -134990.9062 1292074.625)">
			<stop  offset="0" style="stop-color:#3A53A4"/>
			<stop  offset="1" style="stop-color:#AAA6D2;stop-opacity:0.9961"/>
		</linearGradient>
		<path id="svg_9_2_" fill="url(#svg_9_3_)" fill-opacity="0.76" d="M-4.75-39c3.167,0,6.334,0,9.5,0L4.5-19H4.25l-1.8,33l-2.2,25
			h-1.5l-1.8-25l-1.42-33h-0.28V-39z"/>
		
			<linearGradient id="svg_7_3_" gradientUnits="userSpaceOnUse" x1="14209.0605" y1="-15957.6885" x2="14209.5566" y2="-15957.6807" gradientTransform="matrix(9.5 0 0 20 -134990.9062 319124.5938)">
			<stop  offset="0" style="stop-color:#3A53A4"/>
			<stop  offset="1" style="stop-color:#AAA6D2;stop-opacity:0.9961"/>
		</linearGradient>
		<polygon id="svg_7_2_" fill="url(#svg_7_3_)" fill-opacity="0.76" points="-4.75,-39 4.75,-39 4.75,-19 -4.75,-19 		"/>
		
			<linearGradient id="svg_6_3_" gradientUnits="userSpaceOnUse" x1="-104.3535" y1="-15957.6797" x2="-103.3535" y2="-15957.6797" gradientTransform="matrix(1 0 0 20 107.6035 319124.5938)">
			<stop  offset="0" style="stop-color:#3A53A4"/>
			<stop  offset="1" style="stop-color:#5B63AD;stop-opacity:0.9961"/>
		</linearGradient>
		<polygon id="svg_6_2_" fill="url(#svg_6_3_)" fill-opacity="0.8" points="3.25,-39 4.25,-39 4.25,-19 3.25,-19 		"/>
		
			<linearGradient id="svg_5_3_" gradientUnits="userSpaceOnUse" x1="-104.3535" y1="-15957.6797" x2="-103.3535" y2="-15957.6797" gradientTransform="matrix(1 0 0 20 99.6035 319124.5938)">
			<stop  offset="0" style="stop-color:#3A53A4"/>
			<stop  offset="1" style="stop-color:#5B63AD;stop-opacity:0.9961"/>
		</linearGradient>
		<polygon id="svg_5_2_" fill="url(#svg_5_3_)" fill-opacity="0.8" points="-4.75,-39 -3.75,-39 -3.75,-19 -4.75,-19 		"/>
		
			<linearGradient id="svg_4_3_" gradientUnits="userSpaceOnUse" x1="-104.3535" y1="-15957.6797" x2="-103.3535" y2="-15957.6797" gradientTransform="matrix(1 0 0 20 105.6035 319124.5938)">
			<stop  offset="0" style="stop-color:#3A53A4"/>
			<stop  offset="1" style="stop-color:#5B63AD;stop-opacity:0.9961"/>
		</linearGradient>
		<polygon id="svg_4_2_" fill="url(#svg_4_3_)" fill-opacity="0.8" points="1.25,-39 2.25,-39 2.25,-19 1.25,-19 		"/>
		
			<linearGradient id="svg_2_3_" gradientUnits="userSpaceOnUse" x1="-104.3535" y1="-15957.6797" x2="-103.3535" y2="-15957.6797" gradientTransform="matrix(1 0 0 20 101.6533 319124.5938)">
			<stop  offset="0" style="stop-color:#3A53A4"/>
			<stop  offset="1" style="stop-color:#5B63AD;stop-opacity:0.9961"/>
		</linearGradient>
		<polygon id="svg_2_2_" fill="url(#svg_2_3_)" fill-opacity="0.8" points="-2.7,-39 -1.7,-39 -1.7,-19 -2.7,-19 		"/>
	</g>
</symbol>
<g id="Layer_1">
	<rect fill="#ED1C24" width="800" height="600"/>
	<title>Layer 1</title>
	<g>
		<g>
			<g>
				
					<linearGradient id="rect1307_3_" gradientUnits="userSpaceOnUse" x1="58.4565" y1="132.4106" x2="56.9306" y2="132.4106" gradientTransform="matrix(18.3429 -7.1935 -22.9081 -58.4134 2153.3359 8637.625)">
					<stop  offset="0" style="stop-color:#E7E5E4"/>
					<stop  offset="1" style="stop-color:#898683"/>
				</linearGradient>
				
					<polygon id="rect1307_1_" fill="url(#rect1307_3_)" stroke="#010101" stroke-width="3.9705" stroke-linecap="round" stroke-linejoin="round" points="
					180.929,468.434 191.073,464.456 203.74,496.756 193.597,500.733 				"/>
				
					<linearGradient id="rect2182_3_" gradientUnits="userSpaceOnUse" x1="53.8164" y1="129.3564" x2="52.8946" y2="129.3564" gradientTransform="matrix(34.3518 -13.4718 -61.6851 -157.2913 6301.6406 21499.5)">
					<stop  offset="0" style="stop-color:#E7E5E4"/>
					<stop  offset="1" style="stop-color:#898683"/>
				</linearGradient>
				
					<polygon id="rect2182_1_" fill="url(#rect2182_3_)" stroke="#010101" stroke-width="3.9705" stroke-linecap="round" stroke-linejoin="round" points="
					144.385,388.268 163.378,380.819 197.487,467.793 178.493,475.242 				"/>
				
					<linearGradient id="rect2184_3_" gradientUnits="userSpaceOnUse" x1="51.8618" y1="132.5645" x2="51.0709" y2="132.93" gradientTransform="matrix(54.8173 -21.4978 -14.9429 -38.1031 -708.2188 6545.5)">
					<stop  offset="0" style="stop-color:#E7E5E4"/>
					<stop  offset="1" style="stop-color:#898683"/>
				</linearGradient>
				
					<polygon id="rect2184_1_" fill="url(#rect2184_3_)" stroke="#010101" stroke-width="3.9705" stroke-linecap="round" stroke-linejoin="round" points="
					132.66,375.02 162.972,363.132 171.234,384.2 140.922,396.089 				"/>
				
					<linearGradient id="rect2186_3_" gradientUnits="userSpaceOnUse" x1="51.3203" y1="129.2349" x2="50.6214" y2="129.2349" gradientTransform="matrix(64.7089 -25.377 -44.8015 -114.2397 2604.9062 16404.75)">
					<stop  offset="0" style="stop-color:#E7E5E4"/>
					<stop  offset="1" style="stop-color:#898683"/>
				</linearGradient>
				
					<polygon id="rect2186_1_" fill="url(#rect2186_3_)" stroke="#010101" stroke-width="3.9705" stroke-linecap="round" stroke-linejoin="round" points="
					105.587,314.031 141.369,300 166.143,363.17 130.36,377.201 				"/>
			</g>
			<g id="g44_1_">
				
					<use xlink:href="#svg_17"  width="9.5" height="78" id="svg_18_1_" x="-4.75" y="-39" transform="matrix(1.2201 -0.4785 0.4315 1.1002 214.7202 539.6748)" overflow="visible"/>
				<title  id="title47">Layer 1</title>
			</g>
		</g>
		<g>
			
				<rect id="rect1307_2_" x="186.887" y="465.247" transform="matrix(-0.931 0.3651 -0.3651 -0.931 547.5715 861.6684)" stroke="#010101" stroke-width="3.9705" stroke-linecap="round" stroke-linejoin="round" width="10.896" height="34.695"/>
			
				<rect id="rect2182_2_" x="160.735" y="381.319" transform="matrix(-0.931 0.3651 -0.3651 -0.931 486.3372 764.112)" stroke="#010101" stroke-width="3.9705" stroke-linecap="round" stroke-linejoin="round" width="20.402" height="93.423"/>
			
				<rect id="rect2184_2_" x="135.667" y="368.295" transform="matrix(-0.931 0.3651 -0.3651 -0.931 432.0035 677.5359)" stroke="#010101" stroke-width="3.9705" stroke-linecap="round" stroke-linejoin="round" width="32.559" height="22.631"/>
			
				<rect id="rect2186_2_" x="116.648" y="304.674" transform="matrix(-0.931 0.3651 -0.3651 -0.931 385.9666 604.2297)" stroke="#010101" stroke-width="3.9705" stroke-linecap="round" stroke-linejoin="round" width="38.434" height="67.854"/>
		</g>
		<g id="g44_2_">
			<g id="svg_18_2_">
				<g id="g4_2_">
					<title  id="title6">Layer 1</title>
					<path id="svg_9_1_" fill-opacity="0.76" d="M200.727,521.044l0.341-0.133l15.972,35.625l12.982,26.645l1.83-0.717
						l-8.102-28.559l-12.043-37.168l0.305-0.119l-8.324-22.124c-3.863,1.516-7.727,3.031-11.59,4.546L200.727,521.044z"/>
					<polygon id="svg_7_1_" fill-opacity="0.76" points="200.727,521.044 212.318,516.499 203.688,494.494 192.098,499.04 					"/>
					<polygon id="svg_6_1_" fill-opacity="0.8" points="210.488,517.216 211.708,516.737 203.079,494.734 201.858,495.212 					"/>
					<polygon id="svg_5_1_" fill-opacity="0.8" points="200.727,521.044 201.947,520.566 193.317,498.562 192.098,499.04 					"/>
					<polygon id="svg_4_1_" fill-opacity="0.8" points="208.047,518.174 209.268,517.694 200.638,495.691 199.418,496.17 					"/>
					<polygon id="svg_2_1_" fill-opacity="0.8" points="203.228,520.064 204.448,519.586 195.819,497.581 194.598,498.059 					"/>
				</g>
			</g>
			<title  id="title47">Layer 1</title>
		</g>
	</g>
	<text transform="matrix(1 0 0 1 277.999 213.6299)"><tspan x="0" y="0" font-family="'HelveticaNeue-Bold'" font-size="93.7822">Mistakes</tspan><tspan x="0" y="93.782" font-family="'HelveticaNeue-Bold'" font-size="93.7822">can break</tspan><tspan x="0" y="187.563" font-family="'HelveticaNeue-Bold'" font-size="93.7822">pipettors!</tspan></text>
	<text transform="matrix(1 0 0 1 372.8477 521.0439)"><tspan x="0" y="0" font-family="'HelveticaNeue-Bold'" font-size="48">(In this simulation</tspan><tspan x="37.245" y="48" font-family="'HelveticaNeue-Bold'" font-size="48">AND in real life!)</tspan></text>
	<g>
		<g>
			<g>
				
					<path id="rect6594_1_" fill="#ECEAEB" stroke="#010101" stroke-width="3.9705" stroke-linecap="round" stroke-linejoin="round" d="
					M201.93,68.985l19.056,5.99l-2.806,8.923l-19.056-5.99L201.93,68.985z"/>
				
					<linearGradient id="rect3061_3_" gradientUnits="userSpaceOnUse" x1="49.3628" y1="127.7637" x2="48.7764" y2="127.7637" gradientTransform="matrix(203.3868 63.9431 126.8564 -403.4981 -26073.5 48570.25)">
					<stop  offset="0" style="stop-color:#E7E5E4"/>
					<stop  offset="1" style="stop-color:#898683"/>
				</linearGradient>
				
					<path id="rect3061_1_" fill="url(#rect3061_3_)" stroke="#010101" stroke-width="3.9705" stroke-linecap="round" stroke-linejoin="round" d="
					M155.396,45.633c-11.253-3.413-22.995-6.132-35.473-7.832c-2.161-0.145-4.018,4.506,1.104,5.325
					c23.754,2.549,43.819,12.362,39.76,22.458L95.872,272.059l65.936,20.73l65.715-209.022l-32.096-10.09l4.353-13.844
					C199.779,59.832,166.582,49.026,155.396,45.633z"/>
				
					<path id="rect5718_1_" fill="#ECEAEB" stroke="#010101" stroke-width="3.9705" stroke-linecap="round" stroke-linejoin="round" d="
					M201.139,59.506l30.1,14.71l-1.501,4.777l-31.155-9.794L201.139,59.506z"/>
				<path id="rect6596_1_" fill="#010101" d="M208.927,87.752L224.03,92.5l-14.024,44.606l-15.103-4.748L208.927,87.752z"/>
				
					<linearGradient id="rect11166_3_" gradientUnits="userSpaceOnUse" x1="49.9683" y1="115.2959" x2="49.9683" y2="118.1456" gradientTransform="matrix(89.2532 28.0604 4.3146 -13.7236 -4776.4375 274.7422)">
					<stop  offset="0" style="stop-color:#E7E5E4"/>
					<stop  offset="1" style="stop-color:#898683"/>
				</linearGradient>
				<path id="rect11166_1_" fill="url(#rect11166_3_)" d="M161.688,72.698l47.383,14.897l-2.386,7.588l-47.383-14.896
					L161.688,72.698z"/>
				
					<linearGradient id="rect12922_3_" gradientUnits="userSpaceOnUse" x1="49.9692" y1="115.7339" x2="49.9692" y2="118.5822" gradientTransform="matrix(89.2532 28.0604 4.3146 -13.7236 -4780.6875 288.1484)">
					<stop  offset="0" style="stop-color:#E7E5E4"/>
					<stop  offset="1" style="stop-color:#898683"/>
				</linearGradient>
				<path id="rect12922_1_" fill="url(#rect12922_3_)" d="M159.354,80.117l47.383,14.897l-2.384,7.588l-47.384-14.897
					L159.354,80.117z"/>
				
					<linearGradient id="rect12926_3_" gradientUnits="userSpaceOnUse" x1="49.9683" y1="116.1807" x2="49.9683" y2="119.0303" gradientTransform="matrix(89.2532 28.0604 4.3146 -13.7236 -4785 301.9141)">
					<stop  offset="0" style="stop-color:#E7E5E4"/>
					<stop  offset="1" style="stop-color:#898683"/>
				</linearGradient>
				<path id="rect12926_1_" fill="url(#rect12926_3_)" d="M156.963,87.726l47.383,14.897l-2.386,7.588l-47.383-14.897
					L156.963,87.726z"/>
				
					<linearGradient id="rect12928_3_" gradientUnits="userSpaceOnUse" x1="49.9683" y1="116.6162" x2="49.9683" y2="119.4684" gradientTransform="matrix(89.2532 28.0604 4.3146 -13.7236 -4789.1875 315.3281)">
					<stop  offset="0" style="stop-color:#E7E5E4"/>
					<stop  offset="1" style="stop-color:#898683"/>
				</linearGradient>
				<path id="rect12928_1_" fill="url(#rect12928_3_)" d="M154.631,95.144l47.384,14.897l-2.386,7.589l-47.384-14.897
					L154.631,95.144z"/>
				
					<linearGradient id="rect12934_3_" gradientUnits="userSpaceOnUse" x1="49.9683" y1="117.0776" x2="49.9683" y2="119.9298" gradientTransform="matrix(89.2532 28.0604 4.3146 -13.7236 -4793.625 329.4766)">
					<stop  offset="0" style="stop-color:#E7E5E4"/>
					<stop  offset="1" style="stop-color:#898683"/>
				</linearGradient>
				<path id="rect12934_1_" fill="url(#rect12934_3_)" d="M152.173,102.963l47.383,14.897l-2.386,7.589l-47.383-14.897
					L152.173,102.963z"/>
				
					<linearGradient id="rect12936_3_" gradientUnits="userSpaceOnUse" x1="49.9683" y1="117.5156" x2="49.9683" y2="120.3653" gradientTransform="matrix(89.2532 28.0604 4.3146 -13.7236 -4797.875 342.8828)">
					<stop  offset="0" style="stop-color:#E7E5E4"/>
					<stop  offset="1" style="stop-color:#898683"/>
				</linearGradient>
				<path id="rect12936_1_" fill="url(#rect12936_3_)" d="M149.839,110.383l47.383,14.897l-2.386,7.588l-47.382-14.897
					L149.839,110.383z"/>
				
					<linearGradient id="rect12942_3_" gradientUnits="userSpaceOnUse" x1="49.5601" y1="117.9434" x2="49.5601" y2="120.7958" gradientTransform="matrix(117.1276 36.8239 4.3146 -13.7236 -6140 -64.6875)">
					<stop  offset="0" style="stop-color:#E7E5E4"/>
					<stop  offset="1" style="stop-color:#898683"/>
				</linearGradient>
				<path id="rect12942_1_" fill="url(#rect12942_3_)" d="M147.568,117.608l61.285,19.268l-2.386,7.588l-61.285-19.268
					L147.568,117.608z"/>
				
					<linearGradient id="rect12944_3_" gradientUnits="userSpaceOnUse" x1="50.7856" y1="118.3799" x2="50.7856" y2="121.2295" gradientTransform="matrix(60.3066 18.9599 4.3146 -13.7236 -3416.7812 806.2266)">
					<stop  offset="0" style="stop-color:#E7E5E4"/>
					<stop  offset="1" style="stop-color:#898683"/>
				</linearGradient>
				<path id="rect12944_1_" fill="url(#rect12944_3_)" d="M145.235,125.027l32.016,10.065c-3.085,0.408-6.186,0.781-7.151,6.09
					l-27.25-8.567L145.235,125.027z"/>
				
					<linearGradient id="path12959_3_" gradientUnits="userSpaceOnUse" x1="51.2354" y1="118.8413" x2="51.2354" y2="121.691" gradientTransform="matrix(51.1939 16.0949 4.3146 -13.7236 -2983.875 957.9189)">
					<stop  offset="0" style="stop-color:#E7E5E4"/>
					<stop  offset="1" style="stop-color:#898683"/>
				</linearGradient>
				<path id="path12959_1_" fill="url(#path12959_3_)" d="M142.767,132.877l27.179,8.545l-2.386,7.589l-27.178-8.545
					L142.767,132.877z"/>
				
					<linearGradient id="path12977_3_" gradientUnits="userSpaceOnUse" x1="51.2354" y1="119.2803" x2="51.2354" y2="122.1325" gradientTransform="matrix(51.1939 16.0949 4.3146 -13.7236 -2988.125 971.374)">
					<stop  offset="0" style="stop-color:#E7E5E4"/>
					<stop  offset="1" style="stop-color:#898683"/>
				</linearGradient>
				<path id="path12977_1_" fill="url(#path12977_3_)" d="M140.43,140.314l27.178,8.545l-2.386,7.589l-27.178-8.544L140.43,140.314z
					"/>
				
					<linearGradient id="path12981_3_" gradientUnits="userSpaceOnUse" x1="51.2344" y1="119.7412" x2="51.2344" y2="122.5909" gradientTransform="matrix(51.1939 16.0949 4.3146 -13.7236 -2992.5312 985.5537)">
					<stop  offset="0" style="stop-color:#E7E5E4"/>
					<stop  offset="1" style="stop-color:#898683"/>
				</linearGradient>
				<path id="path12981_1_" fill="url(#path12981_3_)" d="M137.964,148.156l27.178,8.544l-2.385,7.588l-27.179-8.544
					L137.964,148.156z"/>
				
					<linearGradient id="path12983_3_" gradientUnits="userSpaceOnUse" x1="51.2349" y1="120.1787" x2="51.2349" y2="123.0317" gradientTransform="matrix(51.1939 16.0949 4.3146 -13.7236 -2996.7812 999.0029)">
					<stop  offset="0" style="stop-color:#E7E5E4"/>
					<stop  offset="1" style="stop-color:#898683"/>
				</linearGradient>
				<path id="path12983_1_" fill="url(#path12983_3_)" d="M135.627,155.591l27.178,8.544l-2.386,7.589l-27.178-8.545
					L135.627,155.591z"/>
				
					<linearGradient id="path12989_3_" gradientUnits="userSpaceOnUse" x1="51.2354" y1="120.6553" x2="51.2354" y2="123.5049" gradientTransform="matrix(51.1939 16.0949 4.3146 -13.7236 -3001.375 1013.5498)">
					<stop  offset="0" style="stop-color:#E7E5E4"/>
					<stop  offset="1" style="stop-color:#898683"/>
				</linearGradient>
				<path id="path12989_1_" fill="url(#path12989_3_)" d="M133.097,163.637l27.178,8.544l-2.385,7.588l-27.18-8.545L133.097,163.637
					z"/>
				
					<linearGradient id="path12991_3_" gradientUnits="userSpaceOnUse" x1="51.2349" y1="121.0913" x2="51.2349" y2="123.9443" gradientTransform="matrix(51.1939 16.0949 4.3146 -13.7236 -3005.5938 1027.0068)">
					<stop  offset="0" style="stop-color:#E7E5E4"/>
					<stop  offset="1" style="stop-color:#898683"/>
				</linearGradient>
				<path id="path12991_1_" fill="url(#path12991_3_)" d="M130.759,171.072l27.179,8.545l-2.386,7.589l-27.178-8.545
					L130.759,171.072z"/>
				
					<linearGradient id="path12993_3_" gradientUnits="userSpaceOnUse" x1="51.2349" y1="121.5522" x2="51.2349" y2="124.4019" gradientTransform="matrix(51.1939 16.0949 4.3146 -13.7236 -3010.0312 1041.1846)">
					<stop  offset="0" style="stop-color:#E7E5E4"/>
					<stop  offset="1" style="stop-color:#898683"/>
				</linearGradient>
				<path id="path12993_1_" fill="url(#path12993_3_)" d="M128.293,178.915l27.179,8.545l-2.386,7.588l-27.178-8.545
					L128.293,178.915z"/>
				
					<linearGradient id="path12995_3_" gradientUnits="userSpaceOnUse" x1="51.2354" y1="121.9902" x2="51.2354" y2="124.8424" gradientTransform="matrix(51.1939 16.0949 4.3146 -13.7236 -3014.2812 1054.6182)">
					<stop  offset="0" style="stop-color:#E7E5E4"/>
					<stop  offset="1" style="stop-color:#898683"/>
				</linearGradient>
				<path id="path12995_1_" fill="url(#path12995_3_)" d="M125.956,186.35l27.178,8.544l-2.385,7.589l-27.178-8.544L125.956,186.35z
					"/>
				
					<linearGradient id="path13005_3_" gradientUnits="userSpaceOnUse" x1="51.2354" y1="122.4712" x2="51.2354" y2="125.3195" gradientTransform="matrix(51.1939 16.0949 4.3146 -13.7236 -3018.9062 1069.3076)">
					<stop  offset="0" style="stop-color:#E7E5E4"/>
					<stop  offset="1" style="stop-color:#898683"/>
				</linearGradient>
				<path id="path13005_1_" fill="url(#path13005_3_)" d="M123.406,194.462l27.178,8.545l-2.386,7.589l-27.178-8.544
					L123.406,194.462z"/>
				
					<linearGradient id="path13007_3_" gradientUnits="userSpaceOnUse" x1="51.2354" y1="122.9077" x2="51.2354" y2="125.7613" gradientTransform="matrix(51.1939 16.0949 4.3146 -13.7236 -3023.125 1082.751)">
					<stop  offset="0" style="stop-color:#E7E5E4"/>
					<stop  offset="1" style="stop-color:#898683"/>
				</linearGradient>
				<path id="path13007_1_" fill="url(#path13007_3_)" d="M121.068,201.898l27.179,8.544l-2.386,7.591l-27.179-8.545
					L121.068,201.898z"/>
				
					<linearGradient id="path13009_3_" gradientUnits="userSpaceOnUse" x1="51.2354" y1="123.3687" x2="51.2354" y2="126.2183" gradientTransform="matrix(51.1939 16.0949 4.3146 -13.7236 -3027.5938 1096.9287)">
					<stop  offset="0" style="stop-color:#E7E5E4"/>
					<stop  offset="1" style="stop-color:#898683"/>
				</linearGradient>
				<path id="path13009_1_" fill="url(#path13009_3_)" d="M118.602,209.741l27.179,8.544l-2.385,7.588l-27.178-8.545
					L118.602,209.741z"/>
				
					<linearGradient id="path13011_3_" gradientUnits="userSpaceOnUse" x1="51.2354" y1="123.8076" x2="51.2354" y2="126.6553" gradientTransform="matrix(51.1939 16.0949 4.3146 -13.7236 -3031.8125 1110.3721)">
					<stop  offset="0" style="stop-color:#E7E5E4"/>
					<stop  offset="1" style="stop-color:#898683"/>
				</linearGradient>
				<path id="path13011_1_" fill="url(#path13011_3_)" d="M116.265,217.176l27.179,8.545l-2.385,7.589l-27.18-8.545L116.265,217.176
					z"/>
				
					<linearGradient id="path13021_3_" gradientUnits="userSpaceOnUse" x1="51.2358" y1="124.3032" x2="51.2358" y2="127.1562" gradientTransform="matrix(51.1939 16.0949 4.3146 -13.7236 -3036.625 1125.5771)">
					<stop  offset="0" style="stop-color:#E7E5E4"/>
					<stop  offset="1" style="stop-color:#898683"/>
				</linearGradient>
				<path id="path13021_1_" fill="url(#path13021_3_)" d="M113.621,225.585l27.179,8.544l-2.386,7.589l-27.178-8.545
					L113.621,225.585z"/>
				
					<linearGradient id="path13023_3_" gradientUnits="userSpaceOnUse" x1="51.2354" y1="124.7393" x2="51.2354" y2="127.5945" gradientTransform="matrix(51.1939 16.0949 4.3146 -13.7236 -3040.8125 1139.0264)">
					<stop  offset="0" style="stop-color:#E7E5E4"/>
					<stop  offset="1" style="stop-color:#898683"/>
				</linearGradient>
				<path id="path13023_1_" fill="url(#path13023_3_)" d="M111.284,233.02l27.178,8.544l-2.385,7.589l-27.179-8.545L111.284,233.02z
					"/>
				
					<linearGradient id="path13025_3_" gradientUnits="userSpaceOnUse" x1="51.2349" y1="125.2021" x2="51.2349" y2="128.0543" gradientTransform="matrix(51.1939 16.0949 4.3146 -13.7237 -3045.25 1153.2061)">
					<stop  offset="0" style="stop-color:#E7E5E4"/>
					<stop  offset="1" style="stop-color:#898683"/>
				</linearGradient>
				<path id="path13025_1_" fill="url(#path13025_3_)" d="M108.818,240.863l27.178,8.545l-2.386,7.59l-27.178-8.545L108.818,240.863
					z"/>
				
					<linearGradient id="path13027_3_" gradientUnits="userSpaceOnUse" x1="51.2354" y1="125.6426" x2="51.2354" y2="128.4922" gradientTransform="matrix(51.1939 16.0949 4.3146 -13.7236 -3049.5312 1166.6768)">
					<stop  offset="0" style="stop-color:#E7E5E4"/>
					<stop  offset="1" style="stop-color:#898683"/>
				</linearGradient>
				<path id="path13027_1_" fill="url(#path13027_3_)" d="M106.479,248.3l27.178,8.545l-2.385,7.587l-27.179-8.545L106.479,248.3z"
					/>
				
					<linearGradient id="path13037_3_" gradientUnits="userSpaceOnUse" x1="51.2349" y1="126.1138" x2="51.2349" y2="128.9659" gradientTransform="matrix(51.1939 16.0949 4.3146 -13.7237 -3054.0625 1181.2178)">
					<stop  offset="0" style="stop-color:#E7E5E4"/>
					<stop  offset="1" style="stop-color:#898683"/>
				</linearGradient>
				<path id="path13037_1_" fill="url(#path13037_3_)" d="M103.951,256.344l27.178,8.544l-2.386,7.589l-27.178-8.544
					L103.951,256.344z"/>
				
					<linearGradient id="path13039_3_" gradientUnits="userSpaceOnUse" x1="51.2349" y1="126.5513" x2="51.2349" y2="129.4035" gradientTransform="matrix(51.1939 16.0949 4.3146 -13.7236 -3058.2812 1194.6514)">
					<stop  offset="0" style="stop-color:#E7E5E4"/>
					<stop  offset="1" style="stop-color:#898683"/>
				</linearGradient>
				<path id="path13039_1_" fill="url(#path13039_3_)" d="M101.613,263.779l27.179,8.545l-2.386,7.587l-27.178-8.544
					L101.613,263.779z"/>
			</g>
			<g>
				<path id="rect6594_2_" stroke="#010101" stroke-width="3.9705" stroke-linecap="round" stroke-linejoin="round" d="
					M201.93,68.985l19.056,5.99l-2.806,8.923l-19.056-5.99L201.93,68.985z"/>
				<path id="rect3061_2_" stroke="#010101" stroke-width="3.9705" stroke-linecap="round" stroke-linejoin="round" d="
					M155.396,45.633c-11.253-3.413-22.995-6.132-35.473-7.832c-2.161-0.145-4.018,4.506,1.104,5.325
					c23.754,2.549,43.819,12.362,39.76,22.458L95.872,272.059l65.936,20.73l65.715-209.022l-32.096-10.09l4.353-13.844
					C199.779,59.832,166.582,49.026,155.396,45.633z"/>
				<path id="rect5718_2_" stroke="#010101" stroke-width="3.9705" stroke-linecap="round" stroke-linejoin="round" d="
					M201.139,59.506l30.1,14.71l-1.501,4.777l-31.155-9.794L201.139,59.506z"/>
				<path id="rect6596_2_" d="M208.927,87.752L224.03,92.5l-14.024,44.606l-15.103-4.748L208.927,87.752z"/>
				<path id="rect11166_2_" d="M161.688,72.698l47.383,14.897l-2.386,7.588l-47.383-14.896L161.688,72.698z"/>
				<path id="rect12922_2_" d="M159.354,80.117l47.383,14.897l-2.384,7.588l-47.384-14.897L159.354,80.117z"/>
				<path id="rect12926_2_" d="M156.963,87.726l47.383,14.897l-2.386,7.588l-47.383-14.897L156.963,87.726z"/>
				<path id="rect12928_2_" d="M154.631,95.144l47.384,14.897l-2.386,7.589l-47.384-14.897L154.631,95.144z"/>
				<path id="rect12934_2_" d="M152.173,102.963l47.383,14.897l-2.386,7.589l-47.383-14.897L152.173,102.963z"/>
				<path id="rect12936_2_" d="M149.839,110.383l47.383,14.897l-2.386,7.588l-47.382-14.897L149.839,110.383z"/>
				<path id="rect12942_2_" d="M147.568,117.608l61.285,19.268l-2.386,7.588l-61.285-19.268L147.568,117.608z"/>
				<path id="rect12944_2_" d="M145.235,125.027l32.016,10.065c-3.085,0.408-6.186,0.781-7.151,6.09l-27.25-8.567L145.235,125.027z"
					/>
				<path id="path12959_2_" d="M142.767,132.877l27.179,8.545l-2.386,7.589l-27.178-8.545L142.767,132.877z"/>
				<path id="path12977_2_" d="M140.43,140.314l27.178,8.545l-2.386,7.589l-27.178-8.544L140.43,140.314z"/>
				<path id="path12981_2_" d="M137.964,148.156l27.178,8.544l-2.385,7.588l-27.179-8.544L137.964,148.156z"/>
				<path id="path12983_2_" d="M135.627,155.591l27.178,8.544l-2.386,7.589l-27.178-8.545L135.627,155.591z"/>
				<path id="path12989_2_" d="M133.097,163.637l27.178,8.544l-2.385,7.588l-27.18-8.545L133.097,163.637z"/>
				<path id="path12991_2_" d="M130.759,171.072l27.179,8.545l-2.386,7.589l-27.178-8.545L130.759,171.072z"/>
				<path id="path12993_2_" d="M128.293,178.915l27.179,8.545l-2.386,7.588l-27.178-8.545L128.293,178.915z"/>
				<path id="path12995_2_" d="M125.956,186.35l27.178,8.544l-2.385,7.589l-27.178-8.544L125.956,186.35z"/>
				<path id="path13005_2_" d="M123.406,194.462l27.178,8.545l-2.386,7.589l-27.178-8.544L123.406,194.462z"/>
				<path id="path13007_2_" d="M121.068,201.898l27.179,8.544l-2.386,7.591l-27.179-8.545L121.068,201.898z"/>
				<path id="path13009_2_" d="M118.602,209.741l27.179,8.544l-2.385,7.588l-27.178-8.545L118.602,209.741z"/>
				<path id="path13011_2_" d="M116.265,217.176l27.179,8.545l-2.385,7.589l-27.18-8.545L116.265,217.176z"/>
				<path id="path13021_2_" d="M113.621,225.585l27.179,8.544l-2.386,7.589l-27.178-8.545L113.621,225.585z"/>
				<path id="path13023_2_" d="M111.284,233.02l27.178,8.544l-2.385,7.589l-27.179-8.545L111.284,233.02z"/>
				<path id="path13025_2_" d="M108.818,240.863l27.178,8.545l-2.386,7.59l-27.178-8.545L108.818,240.863z"/>
				<path id="path13027_2_" d="M106.479,248.3l27.178,8.545l-2.385,7.587l-27.179-8.545L106.479,248.3z"/>
				<path id="path13037_2_" d="M103.951,256.344l27.178,8.544l-2.386,7.589l-27.178-8.544L103.951,256.344z"/>
				<path id="path13039_2_" d="M101.613,263.779l27.179,8.545l-2.386,7.587l-27.178-8.544L101.613,263.779z"/>
			</g>
		</g>
		<g>
			<path id="rect7551_1_" stroke="#000000" stroke-width="3.9705" stroke-linecap="round" stroke-linejoin="round" d="M184.249,23.2
				l13.978,4.207l13.979,4.208l6.675,6.572l2.159,8.996L193.92,39.02l-27.119-8.162l7.585-6.334L184.249,23.2z"/>
			<g id="g7540_1_">
				<path id="rect6598_1_" stroke="#000000" stroke-width="3.9705" stroke-linecap="round" stroke-linejoin="round" d="
					M181.281,36.59l24.944,7.508l-12.128,40.297l-24.944-7.508L181.281,36.59L181.281,36.59z"/>
				<path id="rect6600_1_" stroke="#000000" stroke-width="3.9705" stroke-linecap="round" stroke-linejoin="round" d="
					M182.583,37.352l1.977,0.595l-2.052,6.814l-1.976-0.595L182.583,37.352z"/>
				<path id="rect6602_1_" stroke="#000000" stroke-width="3.9705" stroke-linecap="round" stroke-linejoin="round" d="
					M185.491,38.228l1.976,0.595l-2.051,6.814l-1.977-0.595L185.491,38.228z"/>
				<path id="rect6604_1_" stroke="#000000" stroke-width="3.9705" stroke-linecap="round" stroke-linejoin="round" d="
					M188.399,39.103l1.976,0.595l-2.051,6.814l-1.976-0.594L188.399,39.103z"/>
				<path id="rect6606_1_" stroke="#000000" stroke-width="3.9705" stroke-linecap="round" stroke-linejoin="round" d="
					M191.309,39.979l1.977,0.595l-2.051,6.815l-1.977-0.595L191.309,39.979z"/>
				<path id="rect6608_1_" stroke="#000000" stroke-width="3.9705" stroke-linecap="round" stroke-linejoin="round" d="
					M194.217,40.854l1.977,0.595l-2.052,6.815l-1.976-0.595L194.217,40.854z"/>
				<path id="rect6610_1_" stroke="#000000" stroke-width="3.9705" stroke-linecap="round" stroke-linejoin="round" d="
					M197.126,41.729l1.976,0.595l-2.05,6.815l-1.977-0.595L197.126,41.729z"/>
				<path id="rect6612_1_" stroke="#000000" stroke-width="3.9705" stroke-linecap="round" stroke-linejoin="round" d="
					M200.035,42.605l1.976,0.594l-2.051,6.815l-1.976-0.595L200.035,42.605z"/>
				<path id="rect6614_1_" stroke="#000000" stroke-width="3.9705" stroke-linecap="round" stroke-linejoin="round" d="
					M202.944,43.48l1.976,0.595l-2.051,6.814l-1.977-0.595L202.944,43.48L202.944,43.48z"/>
			</g>
			<title>Layer 1</title>
		</g>
	</g>
</g>
<g id="Layer_2" display="none">
	<g id="g44" display="inline">
		
			<use xlink:href="#svg_17"  width="9.5" height="78" id="svg_18" x="-4.75" y="-39" transform="matrix(1.2029 0 0 1.0847 134.1235 576.7402)" overflow="visible"/>
		<title  id="title47">Layer 1</title>
	</g>
	<g display="inline">
		<path id="rect7551" fill="#2E3B96" stroke="#010101" stroke-width="3.9705" stroke-linecap="round" stroke-linejoin="round" d="
			M113.765,68.325h12.724h12.725l7.223,3.808l4.062,6.967h-24.687h-24.687l4.74-7.192L113.765,68.325z"/>
		<g id="g7540">
			<path id="rect6598" fill="#E7E5E4" stroke="#010101" stroke-width="3.9705" stroke-linecap="round" stroke-linejoin="round" d="
				M114.651,80.247h22.707v36.684h-22.707V80.247L114.651,80.247z"/>
			
				<linearGradient id="rect6600_2_" gradientUnits="userSpaceOnUse" x1="215.29" y1="289.7412" x2="215.8661" y2="289.7412" gradientTransform="matrix(3.2538 0 0 11.2185 -584.627 -3166.7969)">
				<stop  offset="0" style="stop-color:#E7E5E4"/>
				<stop  offset="1" style="stop-color:#B8BABA;stop-opacity:0.7374"/>
			</linearGradient>
			
				<path id="rect6600" fill="url(#rect6600_2_)" stroke="#010101" stroke-width="3.9705" stroke-linecap="round" stroke-linejoin="round" d="
				M115.93,80.556h1.799v6.204h-1.799V80.556z"/>
			
				<linearGradient id="rect6602_2_" gradientUnits="userSpaceOnUse" x1="214.6323" y1="289.7412" x2="215.2082" y2="289.7412" gradientTransform="matrix(3.2538 0 0 11.2185 -579.8379 -3166.7969)">
				<stop  offset="0" style="stop-color:#E7E5E4"/>
				<stop  offset="1" style="stop-color:#B8BABA;stop-opacity:0.7374"/>
			</linearGradient>
			
				<path id="rect6602" fill="url(#rect6602_2_)" stroke="#010101" stroke-width="3.9705" stroke-linecap="round" stroke-linejoin="round" d="
				M118.577,80.556h1.799v6.204h-1.799V80.556z"/>
			
				<linearGradient id="rect6604_2_" gradientUnits="userSpaceOnUse" x1="213.9727" y1="289.7402" x2="214.5488" y2="289.7402" gradientTransform="matrix(3.2539 0 0 11.2185 -575.0527 -3166.7969)">
				<stop  offset="0" style="stop-color:#E7E5E4"/>
				<stop  offset="1" style="stop-color:#B8BABA;stop-opacity:0.7374"/>
			</linearGradient>
			
				<path id="rect6604" fill="url(#rect6604_2_)" stroke="#010101" stroke-width="3.9705" stroke-linecap="round" stroke-linejoin="round" d="
				M121.225,80.556h1.798v6.204h-1.798V80.556z"/>
			
				<linearGradient id="rect6606_2_" gradientUnits="userSpaceOnUse" x1="213.314" y1="289.7402" x2="213.8906" y2="289.7402" gradientTransform="matrix(3.2539 0 0 11.2185 -570.2637 -3166.7969)">
				<stop  offset="0" style="stop-color:#E7E5E4"/>
				<stop  offset="1" style="stop-color:#B8BABA;stop-opacity:0.7374"/>
			</linearGradient>
			
				<path id="rect6606" fill="url(#rect6606_2_)" stroke="#010101" stroke-width="3.9705" stroke-linecap="round" stroke-linejoin="round" d="
				M123.873,80.556h1.799v6.204h-1.799V80.556z"/>
			
				<linearGradient id="rect6608_2_" gradientUnits="userSpaceOnUse" x1="212.6582" y1="289.7412" x2="213.2346" y2="289.7412" gradientTransform="matrix(3.2538 0 0 11.2185 -565.4707 -3166.7969)">
				<stop  offset="0" style="stop-color:#E7E5E4"/>
				<stop  offset="1" style="stop-color:#B8BABA;stop-opacity:0.7374"/>
			</linearGradient>
			
				<path id="rect6608" fill="url(#rect6608_2_)" stroke="#010101" stroke-width="3.9705" stroke-linecap="round" stroke-linejoin="round" d="
				M126.521,80.556h1.799v6.204h-1.799V80.556z"/>
			
				<linearGradient id="rect6610_2_" gradientUnits="userSpaceOnUse" x1="211.9985" y1="289.7402" x2="212.5745" y2="289.7402" gradientTransform="matrix(3.2539 0 0 11.2185 -560.6855 -3166.7969)">
				<stop  offset="0" style="stop-color:#E7E5E4"/>
				<stop  offset="1" style="stop-color:#B8BABA;stop-opacity:0.7374"/>
			</linearGradient>
			
				<path id="rect6610" fill="url(#rect6610_2_)" stroke="#010101" stroke-width="3.9705" stroke-linecap="round" stroke-linejoin="round" d="
				M129.169,80.556h1.799v6.204h-1.799V80.556z"/>
			
				<linearGradient id="rect6612_2_" gradientUnits="userSpaceOnUse" x1="211.3408" y1="289.7402" x2="211.9165" y2="289.7402" gradientTransform="matrix(3.2539 0 0 11.2185 -555.8965 -3166.7969)">
				<stop  offset="0" style="stop-color:#E7E5E4"/>
				<stop  offset="1" style="stop-color:#B8BABA;stop-opacity:0.7374"/>
			</linearGradient>
			
				<path id="rect6612" fill="url(#rect6612_2_)" stroke="#010101" stroke-width="3.9705" stroke-linecap="round" stroke-linejoin="round" d="
				M131.817,80.556h1.799v6.204h-1.799V80.556z"/>
			
				<linearGradient id="rect6614_2_" gradientUnits="userSpaceOnUse" x1="210.6826" y1="289.7402" x2="211.2581" y2="289.7402" gradientTransform="matrix(3.2539 0 0 11.2185 -551.1074 -3166.7969)">
				<stop  offset="0" style="stop-color:#E7E5E4"/>
				<stop  offset="1" style="stop-color:#B8BABA;stop-opacity:0.7374"/>
			</linearGradient>
			
				<path id="rect6614" fill="url(#rect6614_2_)" stroke="#010101" stroke-width="3.9705" stroke-linecap="round" stroke-linejoin="round" d="
				M134.465,80.556h1.799v6.204h-1.799V80.556L134.465,80.556z"/>
		</g>
		<title>Layer 1</title>
	</g>
	<g display="inline">
		<path id="rect6594" fill="#ECEAEB" stroke="#010101" stroke-width="3.9705" stroke-linecap="round" stroke-linejoin="round" d="
			M148.277,106.841h19.975v9.354h-19.975V106.841z"/>
		
			<linearGradient id="rect1307_4_" gradientUnits="userSpaceOnUse" x1="54.354" y1="130.5786" x2="52.8281" y2="130.5786" gradientTransform="matrix(19.703 0 0 -62.7448 -936.8281 8710.2188)">
			<stop  offset="0" style="stop-color:#E7E5E4"/>
			<stop  offset="1" style="stop-color:#898683"/>
		</linearGradient>
		
			<rect id="rect1307" x="128.677" y="499.742" fill="url(#rect1307_4_)" stroke="#010101" stroke-width="3.9705" stroke-linecap="round" stroke-linejoin="round" width="10.895" height="34.695"/>
		
			<linearGradient id="rect2182_4_" gradientUnits="userSpaceOnUse" x1="51.6255" y1="128.6772" x2="50.7045" y2="128.6772" gradientTransform="matrix(36.899 0 0 -168.9544 -1770.8125 22199)">
			<stop  offset="0" style="stop-color:#E7E5E4"/>
			<stop  offset="1" style="stop-color:#898683"/>
		</linearGradient>
		
			<rect id="rect2182" x="123.923" y="411.768" fill="url(#rect2182_4_)" stroke="#010101" stroke-width="3.9705" stroke-linecap="round" stroke-linejoin="round" width="20.402" height="93.422"/>
		
			<linearGradient id="rect2184_4_" gradientUnits="userSpaceOnUse" x1="50.4883" y1="129.7529" x2="49.6974" y2="130.1185" gradientTransform="matrix(58.882 0 0 -40.9284 -2837 5717.625)">
			<stop  offset="0" style="stop-color:#E7E5E4"/>
			<stop  offset="1" style="stop-color:#898683"/>
		</linearGradient>
		
			<rect id="rect2184" x="117.845" y="395.152" fill="url(#rect2184_4_)" stroke="#010101" stroke-width="3.9705" stroke-linecap="round" stroke-linejoin="round" width="32.558" height="22.631"/>
		
			<linearGradient id="rect2186_4_" gradientUnits="userSpaceOnUse" x1="50.1597" y1="128.2988" x2="49.4602" y2="128.2988" gradientTransform="matrix(69.5071 0 0 -122.7106 -3352.375 16106.0625)">
			<stop  offset="0" style="stop-color:#E7E5E4"/>
			<stop  offset="1" style="stop-color:#898683"/>
		</linearGradient>
		
			<rect id="rect2186" x="114.907" y="328.492" fill="url(#rect2186_4_)" stroke="#010101" stroke-width="3.9705" stroke-linecap="round" stroke-linejoin="round" width="38.435" height="67.854"/>
		
			<linearGradient id="rect3061_4_" gradientUnits="userSpaceOnUse" x1="49.2656" y1="127.8066" x2="48.6798" y2="127.8066" gradientTransform="matrix(213.2016 0 0 -422.9696 -10350.375 54273.5)">
			<stop  offset="0" style="stop-color:#E7E5E4"/>
			<stop  offset="1" style="stop-color:#898683"/>
		</linearGradient>
		
			<path id="rect3061" fill="url(#rect3061_4_)" stroke="#010101" stroke-width="3.9705" stroke-linecap="round" stroke-linejoin="round" d="
			M96.881,98.521c-11.758,0.119-23.776,1.046-36.189,3.167c-2.105,0.51-2.482,5.504,2.649,4.75
			c23.426-4.692,45.511-1.349,44.665,9.499v216.439h69.116V113.267h-33.643V98.754C143.479,98.754,108.57,98.403,96.881,98.521z"/>
		<path id="rect5718" fill="#ECEAEB" stroke="#010101" stroke-width="3.9705" stroke-linecap="round" stroke-linejoin="round" d="
			M144.681,98.036l33.125,5.005v5.007h-32.657L144.681,98.036z"/>
		<path id="rect6596" fill="#010101" d="M160.58,122.646h15.832v46.759H160.58V122.646z"/>
		
			<linearGradient id="rect11166_4_" gradientUnits="userSpaceOnUse" x1="49.7505" y1="116.5107" x2="49.7505" y2="119.3629" gradientTransform="matrix(93.5602 0 0 -14.3859 -4518.8125 1813.7344)">
			<stop  offset="0" style="stop-color:#E7E5E4"/>
			<stop  offset="1" style="stop-color:#898683"/>
		</linearGradient>
		<path id="rect11166" fill="url(#rect11166_4_)" d="M111,122.453h49.671v7.955H111V122.453z"/>
		
			<linearGradient id="rect12922_4_" gradientUnits="userSpaceOnUse" x1="49.7505" y1="116.9482" x2="49.7505" y2="119.799" gradientTransform="matrix(93.5602 0 0 -14.3859 -4518.8125 1827.7969)">
			<stop  offset="0" style="stop-color:#E7E5E4"/>
			<stop  offset="1" style="stop-color:#898683"/>
		</linearGradient>
		<path id="rect12922" fill="url(#rect12922_4_)" d="M111,130.23h49.671v7.954H111V130.23z"/>
		
			<linearGradient id="rect12926_4_" gradientUnits="userSpaceOnUse" x1="49.7505" y1="117.396" x2="49.7505" y2="120.2456" gradientTransform="matrix(93.5602 0 0 -14.3859 -4518.8125 1842.2188)">
			<stop  offset="0" style="stop-color:#E7E5E4"/>
			<stop  offset="1" style="stop-color:#898683"/>
		</linearGradient>
		<path id="rect12926" fill="url(#rect12926_4_)" d="M111,138.206h49.671v7.954H111V138.206z"/>
		
			<linearGradient id="rect12928_4_" gradientUnits="userSpaceOnUse" x1="49.7505" y1="117.833" x2="49.7505" y2="120.6826" gradientTransform="matrix(93.5602 0 0 -14.3859 -4518.8125 1856.2812)">
			<stop  offset="0" style="stop-color:#E7E5E4"/>
			<stop  offset="1" style="stop-color:#898683"/>
		</linearGradient>
		<path id="rect12928" fill="url(#rect12928_4_)" d="M111,145.982h49.671v7.955H111V145.982z"/>
		
			<linearGradient id="rect12934_4_" gradientUnits="userSpaceOnUse" x1="49.7505" y1="118.2939" x2="49.7505" y2="121.1436" gradientTransform="matrix(93.5602 0 0 -14.3859 -4518.8125 1871.1094)">
			<stop  offset="0" style="stop-color:#E7E5E4"/>
			<stop  offset="1" style="stop-color:#898683"/>
		</linearGradient>
		<path id="rect12934" fill="url(#rect12934_4_)" d="M111,154.179h49.671v7.955H111V154.179z"/>
		
			<linearGradient id="rect12936_4_" gradientUnits="userSpaceOnUse" x1="49.7505" y1="118.7319" x2="49.7505" y2="121.5816" gradientTransform="matrix(93.5602 0 0 -14.3859 -4518.8125 1885.1641)">
			<stop  offset="0" style="stop-color:#E7E5E4"/>
			<stop  offset="1" style="stop-color:#898683"/>
		</linearGradient>
		<path id="rect12936" fill="url(#rect12936_4_)" d="M111,161.956h49.671v7.955H111V161.956z"/>
		
			<linearGradient id="rect12942_4_" gradientUnits="userSpaceOnUse" x1="49.3931" y1="119.1567" x2="49.3931" y2="122.0092" gradientTransform="matrix(122.7798 0 0 -14.3859 -5921.3125 1898.875)">
			<stop  offset="0" style="stop-color:#E7E5E4"/>
			<stop  offset="1" style="stop-color:#898683"/>
		</linearGradient>
		<path id="rect12942" fill="url(#rect12942_4_)" d="M111,169.53h64.242v7.955H111V169.53z"/>
		
			<linearGradient id="rect12944_4_" gradientUnits="userSpaceOnUse" x1="50.4634" y1="119.5933" x2="50.4634" y2="122.4454" gradientTransform="matrix(63.2168 0 0 -14.3859 -3062.3438 1912.9375)">
			<stop  offset="0" style="stop-color:#E7E5E4"/>
			<stop  offset="1" style="stop-color:#898683"/>
		</linearGradient>
		<path id="rect12944" fill="url(#rect12944_4_)" d="M111,177.308h33.562c-2.821,1.314-5.667,2.601-4.996,7.954H111V177.308z"/>
		
			<linearGradient id="path12959_4_" gradientUnits="userSpaceOnUse" x1="50.8545" y1="120.0566" x2="50.8545" y2="122.9063" gradientTransform="matrix(53.6643 0 0 -14.3859 -2603.8125 1927.8125)">
			<stop  offset="0" style="stop-color:#E7E5E4"/>
			<stop  offset="1" style="stop-color:#898683"/>
		</linearGradient>
		<path id="path12959" fill="url(#path12959_4_)" d="M111,185.537h28.49v7.955H111V185.537z"/>
		
			<linearGradient id="path12977_4_" gradientUnits="userSpaceOnUse" x1="50.8545" y1="120.4951" x2="50.8545" y2="123.3448" gradientTransform="matrix(53.6643 0 0 -14.3859 -2603.8125 1941.9219)">
			<stop  offset="0" style="stop-color:#E7E5E4"/>
			<stop  offset="1" style="stop-color:#898683"/>
		</linearGradient>
		<path id="path12977" fill="url(#path12977_4_)" d="M111,193.332h28.49v7.955H111V193.332z"/>
		
			<linearGradient id="path12981_4_" gradientUnits="userSpaceOnUse" x1="50.8545" y1="120.9565" x2="50.8545" y2="123.8062" gradientTransform="matrix(53.6643 0 0 -14.3859 -2603.8125 1956.7812)">
			<stop  offset="0" style="stop-color:#E7E5E4"/>
			<stop  offset="1" style="stop-color:#898683"/>
		</linearGradient>
		<path id="path12981" fill="url(#path12981_4_)" d="M111,201.553h28.49v7.953H111V201.553z"/>
		
			<linearGradient id="path12983_4_" gradientUnits="userSpaceOnUse" x1="50.8545" y1="121.394" x2="50.8545" y2="124.247" gradientTransform="matrix(53.6643 0 0 -14.3859 -2603.8125 1970.875)">
			<stop  offset="0" style="stop-color:#E7E5E4"/>
			<stop  offset="1" style="stop-color:#898683"/>
		</linearGradient>
		<path id="path12983" fill="url(#path12983_4_)" d="M111,209.346h28.49v7.955H111V209.346z"/>
		
			<linearGradient id="path12989_4_" gradientUnits="userSpaceOnUse" x1="50.8545" y1="121.8677" x2="50.8545" y2="124.7199" gradientTransform="matrix(53.6643 0 0 -14.3859 -2603.8125 1986.125)">
			<stop  offset="0" style="stop-color:#E7E5E4"/>
			<stop  offset="1" style="stop-color:#898683"/>
		</linearGradient>
		<path id="path12989" fill="url(#path12989_4_)" d="M111,217.779h28.49v7.955H111V217.779z"/>
		
			<linearGradient id="path12991_4_" gradientUnits="userSpaceOnUse" x1="50.8545" y1="122.3066" x2="50.8545" y2="125.1571" gradientTransform="matrix(53.6643 0 0 -14.3859 -2603.8125 2000.2344)">
			<stop  offset="0" style="stop-color:#E7E5E4"/>
			<stop  offset="1" style="stop-color:#898683"/>
		</linearGradient>
		<path id="path12991" fill="url(#path12991_4_)" d="M111,225.574h28.49v7.955H111V225.574z"/>
		
			<linearGradient id="path12993_4_" gradientUnits="userSpaceOnUse" x1="50.8545" y1="122.7671" x2="50.8545" y2="125.6192" gradientTransform="matrix(53.6643 0 0 -14.3859 -2603.8125 2015.0938)">
			<stop  offset="0" style="stop-color:#E7E5E4"/>
			<stop  offset="1" style="stop-color:#898683"/>
		</linearGradient>
		<path id="path12993" fill="url(#path12993_4_)" d="M111,233.795h28.49v7.955H111V233.795z"/>
		
			<linearGradient id="path12995_4_" gradientUnits="userSpaceOnUse" x1="50.8545" y1="123.2061" x2="50.8545" y2="126.0557" gradientTransform="matrix(53.6643 0 0 -14.3859 -2603.8125 2029.1797)">
			<stop  offset="0" style="stop-color:#E7E5E4"/>
			<stop  offset="1" style="stop-color:#898683"/>
		</linearGradient>
		<path id="path12995" fill="url(#path12995_4_)" d="M111,241.59h28.49v7.955H111V241.59z"/>
		
			<linearGradient id="path13005_4_" gradientUnits="userSpaceOnUse" x1="50.8545" y1="123.6846" x2="50.8545" y2="126.5354" gradientTransform="matrix(53.6643 0 0 -14.3859 -2603.8125 2044.5781)">
			<stop  offset="0" style="stop-color:#E7E5E4"/>
			<stop  offset="1" style="stop-color:#898683"/>
		</linearGradient>
		<path id="path13005" fill="url(#path13005_4_)" d="M111,250.094h28.49v7.955H111V250.094z"/>
		
			<linearGradient id="path13007_4_" gradientUnits="userSpaceOnUse" x1="50.8545" y1="124.1216" x2="50.8545" y2="126.9752" gradientTransform="matrix(53.6643 0 0 -14.3859 -2603.8125 2058.6719)">
			<stop  offset="0" style="stop-color:#E7E5E4"/>
			<stop  offset="1" style="stop-color:#898683"/>
		</linearGradient>
		<path id="path13007" fill="url(#path13007_4_)" d="M111,257.887h28.49v7.957H111V257.887z"/>
		
			<linearGradient id="path13009_4_" gradientUnits="userSpaceOnUse" x1="50.8545" y1="124.5835" x2="50.8545" y2="127.4356" gradientTransform="matrix(53.6643 0 0 -14.3859 -2603.8125 2073.5312)">
			<stop  offset="0" style="stop-color:#E7E5E4"/>
			<stop  offset="1" style="stop-color:#898683"/>
		</linearGradient>
		<path id="path13009" fill="url(#path13009_4_)" d="M111,266.109h28.49v7.953H111V266.109z"/>
		
			<linearGradient id="path13011_4_" gradientUnits="userSpaceOnUse" x1="50.8545" y1="125.0229" x2="50.8545" y2="127.8706" gradientTransform="matrix(53.6643 0 0 -14.3859 -2603.8125 2087.625)">
			<stop  offset="0" style="stop-color:#E7E5E4"/>
			<stop  offset="1" style="stop-color:#898683"/>
		</linearGradient>
		<path id="path13011" fill="url(#path13011_4_)" d="M111,273.902h28.49v7.955H111V273.902z"/>
		
			<linearGradient id="path13021_4_" gradientUnits="userSpaceOnUse" x1="50.8545" y1="125.5181" x2="50.8545" y2="128.3685" gradientTransform="matrix(53.6643 0 0 -14.3859 -2603.8125 2103.5625)">
			<stop  offset="0" style="stop-color:#E7E5E4"/>
			<stop  offset="1" style="stop-color:#898683"/>
		</linearGradient>
		<path id="path13021" fill="url(#path13021_4_)" d="M111,282.717h28.49v7.955H111V282.717z"/>
		
			<linearGradient id="path13023_4_" gradientUnits="userSpaceOnUse" x1="50.8545" y1="125.9536" x2="50.8545" y2="128.8114" gradientTransform="matrix(53.6643 0 0 -14.3859 -2603.8125 2117.6562)">
			<stop  offset="0" style="stop-color:#E7E5E4"/>
			<stop  offset="1" style="stop-color:#898683"/>
		</linearGradient>
		<path id="path13023" fill="url(#path13023_4_)" d="M111,290.512h28.49v7.955H111V290.512z"/>
		
			<linearGradient id="path13025_4_" gradientUnits="userSpaceOnUse" x1="50.8545" y1="126.417" x2="50.8545" y2="129.2692" gradientTransform="matrix(53.6643 0 0 -14.386 -2603.8125 2132.5234)">
			<stop  offset="0" style="stop-color:#E7E5E4"/>
			<stop  offset="1" style="stop-color:#898683"/>
		</linearGradient>
		<path id="path13025" fill="url(#path13025_4_)" d="M111,298.732h28.49v7.957H111V298.732z"/>
		
			<linearGradient id="path13027_4_" gradientUnits="userSpaceOnUse" x1="50.8545" y1="126.8555" x2="50.8545" y2="129.7051" gradientTransform="matrix(53.6643 0 0 -14.3859 -2603.8125 2146.6406)">
			<stop  offset="0" style="stop-color:#E7E5E4"/>
			<stop  offset="1" style="stop-color:#898683"/>
		</linearGradient>
		<path id="path13027" fill="url(#path13027_4_)" d="M111,306.529h28.49v7.953H111V306.529z"/>
		
			<linearGradient id="path13037_4_" gradientUnits="userSpaceOnUse" x1="50.8545" y1="127.3291" x2="50.8545" y2="130.1787" gradientTransform="matrix(53.6643 0 0 -14.386 -2603.8125 2161.8828)">
			<stop  offset="0" style="stop-color:#E7E5E4"/>
			<stop  offset="1" style="stop-color:#898683"/>
		</linearGradient>
		<path id="path13037" fill="url(#path13037_4_)" d="M111,314.961h28.49v7.955H111V314.961z"/>
		
			<linearGradient id="path13039_4_" gradientUnits="userSpaceOnUse" x1="50.8545" y1="127.7681" x2="50.8545" y2="130.6177" gradientTransform="matrix(53.6643 0 0 -14.3859 -2603.8125 2175.9688)">
			<stop  offset="0" style="stop-color:#E7E5E4"/>
			<stop  offset="1" style="stop-color:#898683"/>
		</linearGradient>
		<path id="path13039" fill="url(#path13039_4_)" d="M111,322.756h28.49v7.953H111V322.756z"/>
		<title>Layer 1</title>
	</g>
</g>
</svg>
