<?xml version="1.0" encoding="utf-8"?>
<!-- Generator: Adobe Illustrator 15.1.0, SVG Export Plug-In . SVG Version: 6.00 Build 0)  -->
<!DOCTYPE svg PUBLIC "-//W3C//DTD SVG 1.1//EN" "http://www.w3.org/Graphics/SVG/1.1/DTD/svg11.dtd">
<svg version="1.1" id="Layer_1" xmlns="http://www.w3.org/2000/svg" xmlns:xlink="http://www.w3.org/1999/xlink" x="0px" y="0px"
	 width="361.5px" height="343px" viewBox="215.25 269 361.5 343" enable-background="new 215.25 269 361.5 343"
	 xml:space="preserve">
<g id="basket">
	<polygon fill="#3D50A3" stroke="#000000" stroke-miterlimit="10" points="516.75,612 275.25,612 215.25,326.5 576.75,326.5 	"/>
	
		<linearGradient id="SVGID_1_" gradientUnits="userSpaceOnUse" x1="274.625" y1="285.8745" x2="244.6254" y2="315.874" gradientTransform="matrix(1 0 0 -1 0 613)">
		<stop  offset="0" style="stop-color:#2B338D"/>
		<stop  offset="1" style="stop-color:#5C63AD"/>
	</linearGradient>
	<polygon fill="url(#SVGID_1_)" stroke="#000000" stroke-miterlimit="10" points="215.25,326.5 275.25,269 275.25,326.5 	"/>
	
		<linearGradient id="SVGID_2_" gradientUnits="userSpaceOnUse" x1="517.376" y1="285.875" x2="547.3762" y2="315.8752" gradientTransform="matrix(1 0 0 -1 0 613)">
		<stop  offset="0" style="stop-color:#2B338D"/>
		<stop  offset="1" style="stop-color:#5C63AD"/>
	</linearGradient>
	<polygon fill="url(#SVGID_2_)" stroke="#000000" stroke-miterlimit="10" points="516.75,269 516.75,326.5 576.75,326.5 	"/>
	
		<linearGradient id="SVGID_3_" gradientUnits="userSpaceOnUse" x1="396" y1="286.5005" x2="396" y2="344.0005" gradientTransform="matrix(1 0 0 -1 0 613)">
		<stop  offset="0" style="stop-color:#2B338D"/>
		<stop  offset="1" style="stop-color:#5C63AD"/>
	</linearGradient>
	<rect x="275.25" y="269" fill="url(#SVGID_3_)" stroke="#000000" stroke-miterlimit="10" width="241.5" height="57.5"/>
</g>
<g id="text__x2B__arrow">
	
		<text transform="matrix(1 0 0 1 306.5718 401.25)" opacity="0.75" fill="#FFFFFF" enable-background="new" font-family="Helvetica, Arial, sans-serif" font-size="60" font-weight="bold">Waste</text>
	<polygon opacity="0.75" fill="#FFFFFF" enable-background="new    " points="405.5,515.812 405.5,431 386.5,431 386.5,515.812 
		363.849,515.812 396,571.5 428.15,515.812 	"/>
</g>
</svg>
