<?xml version="1.0" encoding="utf-8"?>
<!-- Generator: Adobe Illustrator 19.2.0, SVG Export Plug-In . SVG Version: 6.00 Build 0)  -->
<svg version="1.1" id="Layer_1" xmlns="http://www.w3.org/2000/svg" xmlns:xlink="http://www.w3.org/1999/xlink" x="0px" y="0px"
	 viewBox="0 0 101 93.2" style="enable-background:new 0 0 101 93.2;" xml:space="preserve">
<style type="text/css">
	.st0{display:none;}
	.st1{display:inline;}
	.st2{fill:#ED1C24;stroke:#FFFFFF;stroke-miterlimit:10;}
	.st3{fill:#D61F30;}
	.st4{fill:#EC2127;}
	.st5{fill:#D61F31;}
	.st6{display:none;fill:#FFFFFF;}
</style>
<g id="Layer_1_1_" class="st0">
	<g class="st1">
		<g>
			<g id="favorite">
				<path class="st2" d="M50.5,92.5l-7-7c-26-23-43-38.5-43-57.5c0-15.5,12-27.5,27.5-27.5c8.5,0,17,4,22.5,10.5
					C56,4.5,64.5,0.5,73,0.5c15.5,0,27.5,12,27.5,27.5c0,19-17,34.5-43,57.5L50.5,92.5z"/>
			</g>
		</g>
		<g>
			<g id="favorite_1_">
				<path class="st3" d="M50.5,87.9l-6.3-6.3C20.8,60.9,5.5,46.9,5.5,29.8C5.5,15.9,16.3,5,30.3,5c7.7,0,15.3,3.6,20.2,9.4
					C55.4,8.6,63.1,5,70.7,5c13.9,0,24.8,10.8,24.8,24.8c0,17.1-15.3,31-38.7,51.8L50.5,87.9z"/>
			</g>
		</g>
	</g>
</g>
<path class="st4" d="M73.5,0.6c-8.5,0-17,4-22.5,10.5l-9.3,10.5l13.8,9.2l-13,10l12.1,11.3l-10.8,5.7l11.7,12l-11,7.8l6.5,15l7-7
	c26-23,43-38.5,43-57.5C101,12.6,89,0.6,73.5,0.6z"/>
<path class="st5" d="M71.3,5.2c-7.7,0-15.3,3.6-20.2,9.5c-0.5-0.6-1.1-1.2-1.6-1.7l-7.7,8.6l13.7,9.2l-13,10l12.1,11.3l-10.8,5.7
	l11.7,12l-11,7.8l3,6.9L51,88l6.3-6.3C80.7,61,96,47,96,29.9C96,16,85.2,5.2,71.3,5.2z"/>
<g id="Layer_3">
	<polygon class="st6" points="50.5,92.5 44,77.5 55,69.7 43.3,57.7 54.1,52 42,40.7 55,30.7 41.2,21.5 50.5,11 44.3,-17.2 
		143.7,-12.5 120.3,78.2 90.3,112.5 46.3,113.5 	"/>
</g>
</svg>
