<?xml version="1.0" encoding="utf-8"?>
<!-- Generator: Adobe Illustrator 19.2.0, SVG Export Plug-In . SVG Version: 6.00 Build 0)  -->
<svg version="1.1" id="Layer_1" xmlns="http://www.w3.org/2000/svg" xmlns:xlink="http://www.w3.org/1999/xlink" x="0px" y="0px"
	 viewBox="0 0 204.5 180.3" style="enable-background:new 0 0 204.5 180.3;" xml:space="preserve">
<style type="text/css">
	.st0{fill:none;}
	.st1{fill:#191919;}
	.st2{fill:#262626;}
	.st3{fill:url(#SVGID_1_);stroke:#000000;stroke-miterlimit:10;}
</style>
<pattern  x="2.3" y="-9.8" width="14.6" height="38.2" patternUnits="userSpaceOnUse" id="New_Pattern_Swatch_1" viewBox="0 -38.2 14.6 38.2" style="overflow:visible;">
	<g>
		<rect y="-38.2" class="st0" width="14.6" height="38.2"/>
		<rect x="0" y="-38.2" class="st1" width="11" height="38.2"/>
		<rect x="7.3" y="-38.2" class="st2" width="7.3" height="38.2"/>
	</g>
</pattern>
<pattern  id="SVGID_1_" xlink:href="#New_Pattern_Swatch_1" patternTransform="matrix(1.6802 0.9701 -0.9701 1.6802 -2196.3745 13297.5049)">
</pattern>
<path class="st3" d="M47.2,174.1L2,95.9C0,92.4,0,88,2,84.5L47.2,6.2c2-3.5,5.8-5.7,9.9-5.7h90.3c4.1,0,7.9,2.2,9.9,5.7l45.2,78.2
	c2,3.5,2,7.9,0,11.4l-45.2,78.2c-2,3.5-5.8,5.7-9.9,5.7H57.1C53,179.8,49.2,177.7,47.2,174.1z"/>
<g>
	<rect x="250.6" y="-46.7" class="st1" width="11" height="38.2"/>
	<rect x="257.9" y="-46.7" class="st2" width="7.3" height="38.2"/>
</g>
</svg>
