<?xml version="1.0" encoding="utf-8"?>
<!-- Generator: Adobe Illustrator 19.2.1, SVG Export Plug-In . SVG Version: 6.00 Build 0)  -->
<svg version="1.1" id="Layer_1" xmlns="http://www.w3.org/2000/svg" xmlns:xlink="http://www.w3.org/1999/xlink" x="0px" y="0px"
	 viewBox="0 0 162 92" style="enable-background:new 0 0 162 92;" xml:space="preserve">
<style type="text/css">
	.st0{fill:none;}
	.st1{fill:#121212;}
	.st2{fill:#262626;}
	.st3{fill:url(#SVGID_1_);stroke:#FFFFFF;stroke-width:2;stroke-miterlimit:10;}
	.st4{fill:#FFFFFF;}
</style>
<pattern  x="1" y="1" width="24" height="38.7" patternUnits="userSpaceOnUse" id="New_Pattern_Swatch_1" viewBox="0 -38.7 24 38.7" style="overflow:visible;">
	<g>
		<rect y="-38.7" class="st0" width="24" height="38.7"/>
		<rect x="0" y="-38.7" class="st1" width="16.3" height="38.7"/>
		<rect x="11.8" y="-38.7" class="st2" width="12.2" height="38.7"/>
	</g>
</pattern>
<pattern  id="SVGID_1_" xlink:href="#New_Pattern_Swatch_1" patternTransform="matrix(0.866 0.5 -0.5 0.866 -5108.7075 2972.7065)">
</pattern>
<path class="st3" d="M148.6,91H13.4C6.6,91,1,85.4,1,78.6V13.4C1,6.6,6.6,1,13.4,1h135.1c6.9,0,12.4,5.6,12.4,12.4v65.1
	C161,85.4,155.4,91,148.6,91z"/>
<g>
	<path class="st4" d="M20.7,60.8v5.5h75.9v-5.5h3.8v10H16.8v-10H20.7z"/>
</g>
<g>
	<path class="st4" d="M109,60.8v5.5h32.4v-5.5h3.8v10h-40v-10H109z"/>
</g>
</svg>
