<?xml version="1.0" encoding="utf-8"?>
<!-- Generator: Adobe Illustrator 19.2.1, SVG Export Plug-In . SVG Version: 6.00 Build 0)  -->
<svg version="1.1" id="Layer_1" xmlns="http://www.w3.org/2000/svg" xmlns:xlink="http://www.w3.org/1999/xlink" x="0px" y="0px"
	 viewBox="0 0 400 100" style="enable-background:new 0 0 400 100;" xml:space="preserve">
<style type="text/css">
	.st0{fill:#606161;stroke:#202020;stroke-width:4;stroke-miterlimit:10;}
	.st1{fill:#303030;stroke:#202020;stroke-width:1.6157;stroke-miterlimit:10;}
	.st2{fill:none;stroke:#505050;stroke-width:5;stroke-miterlimit:10;}
</style>
<path class="st0" d="M350,98H50C23.6,98,2,76.4,2,50l0,0C2,23.6,23.6,2,50,2h300c26.4,0,48,21.6,48,48l0,0C398,76.4,376.4,98,350,98
	z"/>
<path class="st1" d="M198.2,18c-9.9,0-17.9,8.1-17.9,17.9V49v13.1c0,9.9,8.1,17.9,17.9,17.9s17.9-8.1,17.9-17.9V49V35.9
	C216.1,26.1,208,18,198.2,18z M202.7,71.2h-8.9l2.7-8.6c-1.6-0.6-2.7-2.3-2.7-4c0-2.4,1.9-4.4,4.4-4.4s4.4,1.9,4.4,4.4
	c0,1.8-1.1,3.4-2.7,4L202.7,71.2z M211.7,48.9h-27.1V37.7c0-8.4,6.1-15.3,13.6-15.3s13.6,6.9,13.6,15.3v11.2H211.7z"/>
<polygon class="st2" points="74.1,18.9 39.5,18.9 22.1,48.9 39.5,78.9 74.1,78.9 91.4,48.9 "/>
</svg>
