<?xml version="1.0" encoding="utf-8"?>
<!-- Generator: Adobe Illustrator 19.2.1, SVG Export Plug-In . SVG Version: 6.00 Build 0)  -->
<svg version="1.1" id="Layer_1" xmlns="http://www.w3.org/2000/svg" xmlns:xlink="http://www.w3.org/1999/xlink" x="0px" y="0px"
	 viewBox="0 0 201.9 101" style="enable-background:new 0 0 201.9 101;" xml:space="preserve">
<style type="text/css">
	.st0{fill:none;}
	.st1{fill:#131313;}
	.st2{fill:#202020;}
	.st3{fill:url(#SVGID_1_);stroke:#000000;stroke-miterlimit:10;}
</style>
<pattern  y="101" width="240" height="696" patternUnits="userSpaceOnUse" id="New_Pattern_Swatch_21" viewBox="0 -696 240 696" style="overflow:visible;">
	<g>
		<rect y="-696" class="st0" width="240" height="696"/>
		<g>
			<g>
				<g>
					<g>
						<rect y="-696" class="st1" width="16.7" height="696"/>
						<rect x="15" y="-696" class="st2" width="18.9" height="696"/>
					</g>
				</g>
				<g>
					<g>
						<g>
							<rect x="30" y="-696" class="st1" width="16.7" height="696"/>
							<rect x="45" y="-696" class="st2" width="18.4" height="696"/>
						</g>
					</g>
				</g>
			</g>
			<g>
				<g>
					<g>
						<rect x="60" y="-696" class="st1" width="16.7" height="696"/>
						<rect x="75" y="-696" class="st2" width="18.9" height="696"/>
					</g>
				</g>
				<g>
					<g>
						<g>
							<rect x="90" y="-696" class="st1" width="16.7" height="696"/>
							<rect x="105" y="-696" class="st2" width="19.1" height="696"/>
						</g>
					</g>
				</g>
			</g>
			<g>
				<g>
					<g>
						<rect x="120" y="-696" class="st1" width="16.7" height="696"/>
						<rect x="135" y="-696" class="st2" width="18.9" height="696"/>
					</g>
				</g>
				<g>
					<g>
						<g>
							<rect x="150" y="-696" class="st1" width="16.7" height="696"/>
							<rect x="165" y="-696" class="st2" width="18.4" height="696"/>
						</g>
					</g>
				</g>
			</g>
			<g>
				<g>
					<g>
						<rect x="180" y="-696" class="st1" width="16.7" height="696"/>
						<rect x="195" y="-696" class="st2" width="18.9" height="696"/>
					</g>
				</g>
				<g>
					<g>
						<g>
							<rect x="210" y="-696" class="st1" width="16.7" height="696"/>
							<rect x="225" y="-696" class="st2" width="15" height="696"/>
						</g>
					</g>
				</g>
			</g>
		</g>
	</g>
</pattern>
<pattern  id="SVGID_1_" xlink:href="#New_Pattern_Swatch_21" patternTransform="matrix(0.9369 0.5409 0.5409 -0.9369 -538.4019 -16664.5215)">
</pattern>
<path class="st3" d="M199.9,44.8L177.6,6.2c-2-3.5-5.8-5.7-9.9-5.7h-35.9h-8.6h-13.1H87.3h-8.5H65.6H34.2c-4.1,0-7.9,2.2-9.9,5.7
	L2,44.8c-2,3.5-2,7.9,0,11.4l22.3,38.6c2,3.5,5.8,5.7,9.9,5.7h31.4h13.1h8.5H110h13.1h8.6h35.9c4.1,0,7.9-2.2,9.9-5.7l22.3-38.6
	C201.9,52.7,201.9,48.3,199.9,44.8z"/>
</svg>
