<?xml version="1.0" encoding="utf-8"?>
<!-- Generator: Adobe Illustrator 19.2.1, SVG Export Plug-In . SVG Version: 6.00 Build 0)  -->
<svg version="1.1" id="Layer_1" xmlns="http://www.w3.org/2000/svg" xmlns:xlink="http://www.w3.org/1999/xlink" x="0px" y="0px"
	 viewBox="0 0 106 106" style="enable-background:new 0 0 106 106;" xml:space="preserve">
<style type="text/css">
	.st0{stroke:#ED1C24;stroke-width:6;stroke-miterlimit:10;}
	.st1{fill:#ED1C24;}
</style>
<circle class="st0" cx="53" cy="53" r="50"/>
<g>
	<path class="st1" d="M53,40.7L53,40.7c-1.6,0-2.9-1.3-2.9-2.9V23.6c0-1.6,1.3-2.9,2.9-2.9h0c1.6,0,2.9,1.3,2.9,2.9v14.1
		C55.9,39.4,54.6,40.7,53,40.7z"/>
	<path class="st1" d="M53,85.3L53,85.3c-1.6,0-2.9-1.3-2.9-2.9V68.3c0-1.6,1.3-2.9,2.9-2.9h0c1.6,0,2.9,1.3,2.9,2.9v14.1
		C55.9,84,54.6,85.3,53,85.3z"/>
</g>
<g>
	<path class="st1" d="M42.3,46.8L42.3,46.8c-0.8,1.4-2.6,1.9-4,1.1l-12.2-7.1c-1.4-0.8-1.9-2.6-1.1-4l0,0c0.8-1.4,2.6-1.9,4-1.1
		l12.2,7.1C42.7,43.6,43.1,45.4,42.3,46.8z"/>
	<path class="st1" d="M81,69.2L81,69.2c-0.8,1.4-2.6,1.9-4,1.1l-12.2-7.1c-1.4-0.8-1.9-2.6-1.1-4v0c0.8-1.4,2.6-1.9,4-1.1l12.2,7.1
		C81.3,66,81.8,67.8,81,69.2z"/>
</g>
<g>
	<path class="st1" d="M42.3,59.2L42.3,59.2c0.8,1.4,0.3,3.2-1.1,4L29,70.3c-1.4,0.8-3.2,0.3-4-1.1h0c-0.8-1.4-0.3-3.2,1.1-4
		l12.2-7.1C39.7,57.3,41.5,57.8,42.3,59.2z"/>
	<path class="st1" d="M81,36.8L81,36.8c0.8,1.4,0.3,3.2-1.1,4l-12.2,7.1c-1.4,0.8-3.2,0.3-4-1.1v0c-0.8-1.4-0.3-3.2,1.1-4L77,35.7
		C78.4,34.9,80.2,35.4,81,36.8z"/>
</g>
</svg>
