<?xml version="1.0" encoding="utf-8"?>
<!-- Generator: Adobe Illustrator 19.2.1, SVG Export Plug-In . SVG Version: 6.00 Build 0)  -->
<svg version="1.1" id="Layer_1" xmlns="http://www.w3.org/2000/svg" xmlns:xlink="http://www.w3.org/1999/xlink" x="0px" y="0px"
	 viewBox="0 0 264.5 264.5" style="enable-background:new 0 0 264.5 264.5;" xml:space="preserve">
<style type="text/css">
	.st0{fill:none;}
	.st1{fill:#131313;}
	.st2{fill:#202020;}
	.st3{fill:url(#SVGID_1_);stroke:#010101;stroke-width:5;stroke-miterlimit:10;}
	.st4{fill:#FFFFFF;}
</style>
<pattern  y="264.5" width="502.4" height="1456.9" patternUnits="userSpaceOnUse" id="New_Pattern_Swatch_27" viewBox="0 -1456.9 502.4 1456.9" style="overflow:visible;">
	<g>
		<rect y="-1456.9" class="st0" width="502.4" height="1456.9"/>
		<g>
			<g>
				<g>
					<g>
						<rect x="0" y="-1456.9" class="st1" width="35" height="1456.9"/>
						<rect x="31.4" y="-1456.9" class="st2" width="39.6" height="1456.9"/>
					</g>
				</g>
				<g>
					<g>
						<g>
							<rect x="62.8" y="-1456.9" class="st1" width="35" height="1456.9"/>
							<rect x="94.2" y="-1456.9" class="st2" width="38.5" height="1456.9"/>
						</g>
					</g>
				</g>
			</g>
			<g>
				<g>
					<g>
						<rect x="125.6" y="-1456.9" class="st1" width="35" height="1456.9"/>
						<rect x="157" y="-1456.9" class="st2" width="39.6" height="1456.9"/>
					</g>
				</g>
				<g>
					<g>
						<g>
							<rect x="188.4" y="-1456.9" class="st1" width="35" height="1456.9"/>
							<rect x="219.8" y="-1456.9" class="st2" width="40" height="1456.9"/>
						</g>
					</g>
				</g>
			</g>
			<g>
				<g>
					<g>
						<rect x="251.2" y="-1456.9" class="st1" width="35" height="1456.9"/>
						<rect x="282.6" y="-1456.9" class="st2" width="39.6" height="1456.9"/>
					</g>
				</g>
				<g>
					<g>
						<g>
							<rect x="314" y="-1456.9" class="st1" width="35" height="1456.9"/>
							<rect x="345.4" y="-1456.9" class="st2" width="38.5" height="1456.9"/>
						</g>
					</g>
				</g>
			</g>
			<g>
				<g>
					<g>
						<rect x="376.8" y="-1456.9" class="st1" width="35" height="1456.9"/>
						<rect x="408.2" y="-1456.9" class="st2" width="39.6" height="1456.9"/>
					</g>
				</g>
				<g>
					<g>
						<g>
							<rect x="439.6" y="-1456.9" class="st1" width="35" height="1456.9"/>
							<rect x="471" y="-1456.9" class="st2" width="31.4" height="1456.9"/>
						</g>
					</g>
				</g>
			</g>
		</g>
	</g>
</pattern>
<pattern  id="SVGID_1_" xlink:href="#New_Pattern_Swatch_27" patternTransform="matrix(0.7071 0.7071 -0.7071 0.7071 -8367.3828 2460.5645)">
</pattern>
<path class="st3" d="M212.4,262H52.1c-27.4,0-49.6-22.2-49.6-49.6V52.1c0-27.4,22.2-49.6,49.6-49.6h160.3
	c27.4,0,49.6,22.2,49.6,49.6v160.3C262,239.8,239.8,262,212.4,262z"/>
<path class="st4" d="M131.5,36.1c-24.6,0-47.2,9.1-64.2,24.6L53,46.4l-16.6,61.8l61.8-16.6L85.9,79.3c12.3-10.3,28.1-17,45.6-17
	c38.8,0,70.2,31.3,70.2,70.2s-31.3,70.2-70.2,70.2c-33.3,0-61.4-23.4-68.2-55.1H36.7c7.1,46,47.2,80.9,95.1,80.9
	c53.1,0,96.3-43.2,96.3-96.3C227.8,79.3,184.6,36.1,131.5,36.1z"/>
</svg>
