<?xml version="1.0" encoding="utf-8"?>
<!-- Generator: Adobe Illustrator 19.2.1, SVG Export Plug-In . SVG Version: 6.00 Build 0)  -->
<svg version="1.1" id="Layer_1" xmlns="http://www.w3.org/2000/svg" xmlns:xlink="http://www.w3.org/1999/xlink" x="0px" y="0px"
	 viewBox="0 0 28 78.3" style="enable-background:new 0 0 28 78.3;" xml:space="preserve">
<style type="text/css">
	.st0{opacity:0.25;fill:#FFFFFF;enable-background:new    ;}
	.st1{opacity:0.13;fill:#FFFFFF;enable-background:new    ;}
	.st2{fill:none;stroke:#424242;stroke-width:2.0185;stroke-miterlimit:10;}
	.st3{fill:#2075BC;}
	.st4{fill:#D1D2D0;stroke:#383938;stroke-width:2;stroke-miterlimit:10;}
</style>
<g id="Layer_2">
	<path class="st0" d="M7.7,70.3c0.4,2.6,0.6,4.3,0.6,4.3s3.5,6.1,9.3,0l5.7-31L24,7.4H4v36.2C4,43.6,6.6,61.8,7.7,70.3z"/>
	<ellipse class="st1" cx="14" cy="5.6" rx="13" ry="2.8"/>
	<ellipse class="st2" cx="14" cy="5.6" rx="13" ry="2.8"/>
	<path class="st3" d="M22.9,17.2v-2.1l0,0c0,1.1-4,2.1-8.9,2.1s-8.9-0.9-8.9-2.1l0,0v2.1v30.9c0,0,2.3,15.6,3.3,22.8
		c0.3,2.2,0.5,3.6,0.5,3.6s3.2,5.2,8.3,0L22.3,48L22.9,17.2L22.9,17.2z"/>
	<path class="st2" d="M4,7.4v36.2l4.3,31c0,0,3.5,6.1,9.3,0l5.7-31L24,7.4"/>
	<ellipse class="st4" cx="14" cy="3.8" rx="13" ry="2.8"/>
</g>
</svg>
