<?xml version="1.0" encoding="utf-8"?>
<!-- Generator: Adobe Illustrator 19.2.1, SVG Export Plug-In . SVG Version: 6.00 Build 0)  -->
<svg version="1.1" xmlns="http://www.w3.org/2000/svg" xmlns:xlink="http://www.w3.org/1999/xlink" x="0px" y="0px"
	 viewBox="0 0 106 106" style="enable-background:new 0 0 106 106;" xml:space="preserve">
<style type="text/css">
	.st0{stroke:#FFFFFF;stroke-width:6;stroke-miterlimit:10;}
	.st1{opacity:0.25;fill:#FFFFFF;}
	.st2{opacity:0.13;fill:#FFFFFF;}
	.st3{fill:none;stroke:#414141;stroke-width:2.0185;stroke-miterlimit:10;}
	.st4{fill:#1C75BC;}
	.st5{fill:#D1D1D0;stroke:#383838;stroke-width:2;stroke-miterlimit:10;}
</style>
<g id="Layer_1">
	<circle class="st0" cx="53" cy="53" r="50"/>
</g>
<g id="Layer_2">
	<path class="st1" d="M46.7,83.3c0.4,2.6,0.6,4.3,0.6,4.3s3.5,6.1,9.3,0l5.7-31L63,20.4H43v36.2C43,56.6,45.6,74.8,46.7,83.3z"/>
	<ellipse class="st2" cx="53" cy="18.6" rx="13" ry="2.8"/>
	<ellipse class="st3" cx="53" cy="18.6" rx="13" ry="2.8"/>
	<path class="st4" d="M61.9,30.2v-2.1h0c0,1.1-4,2.1-8.9,2.1c-4.9,0-8.9-0.9-8.9-2.1h0v2.1v30.9c0,0,2.3,15.6,3.3,22.8
		c0.3,2.2,0.5,3.6,0.5,3.6s3.2,5.2,8.3,0l5.1-26.5L61.9,30.2L61.9,30.2z"/>
	<path class="st3" d="M43,20.4v36.2l4.3,31c0,0,3.5,6.1,9.3,0l5.7-31L63,20.4"/>
	<ellipse class="st5" cx="53" cy="16.8" rx="13" ry="2.8"/>
</g>
</svg>
