<?xml version="1.0" encoding="utf-8"?>
<!-- Generator: Adobe Illustrator 19.2.1, SVG Export Plug-In . SVG Version: 6.00 Build 0)  -->
<svg version="1.1" id="Layer_1" xmlns="http://www.w3.org/2000/svg" xmlns:xlink="http://www.w3.org/1999/xlink" x="0px" y="0px"
	 viewBox="0 0 54.9 54.9" style="enable-background:new 0 0 54.9 54.9;" xml:space="preserve">
<style type="text/css">
	.st0{fill:#1C75BC;stroke:#BFBFBF;stroke-width:1.7046;stroke-miterlimit:10;}
	.st1{opacity:0.25;fill:#FFFFFF;stroke:#BFBFBF;stroke-width:1.7553;stroke-miterlimit:10;enable-background:new    ;}
	.st2{stroke:#303030;stroke-miterlimit:10;}
</style>
<circle class="st0" cx="27.4" cy="27.4" r="22.5"/>
<circle class="st1" cx="27.4" cy="27.4" r="26.5"/>
<path class="st2" d="M27.4,8.3c-6.1,0-11.1,5-11.1,11.1v8.1v8.1c0,6.1,5,11.1,11.1,11.1s11.1-5,11.1-11.1v-8.1v-8.1
	C38.5,13.3,33.5,8.3,27.4,8.3z M30.2,41.2h-5.5l1.7-5.3c-1-0.4-1.7-1.4-1.7-2.5c0-1.5,1.2-2.7,2.7-2.7s2.7,1.2,2.7,2.7
	c0,1.1-0.7,2.1-1.7,2.5L30.2,41.2z M35.8,27.4H19v-6.9c0-5.2,3.8-9.5,8.4-9.5c4.6,0,8.4,4.3,8.4,9.5V27.4z"/>
</svg>
