<?xml version="1.0" encoding="utf-8"?>
<!-- Generator: Adobe Illustrator 19.2.1, SVG Export Plug-In . SVG Version: 6.00 Build 0)  -->
<svg version="1.1" id="Layer_1" xmlns="http://www.w3.org/2000/svg" xmlns:xlink="http://www.w3.org/1999/xlink" x="0px" y="0px"
	 viewBox="0 0 100 100" style="enable-background:new 0 0 100 100;" xml:space="preserve">
<style type="text/css">
	.st0{fill:none;}
	.st1{fill:#111111;}
	.st2{fill:#202020;}
	.st3{fill:url(#SVGID_1_);}
	.st4{fill:none;stroke:#000000;stroke-miterlimit:10;}
	.st5{fill:none;stroke:#FF4A4A;stroke-width:3;stroke-miterlimit:10;}
	.st6{fill:#FF4A4A;}
</style>
<pattern  y="87.6" width="35" height="70" patternUnits="userSpaceOnUse" id="SVGID_2_" viewBox="0 0 35 70" style="overflow:hidden;">
	<polygon class="st1" points="0,0 27.5,0 27.5,70 0,70 "/>
	<polygon class="st2" points="17.5,0 35,0 35,70 17.5,70 "/>
</pattern>
<g>
	<pattern  id="SVGID_1_" xlink:href="#SVGID_2_" patternTransform="matrix(0.6124 0.6124 -0.6124 0.6124 -27076.6973 31872.8418)">
	</pattern>
	<polygon class="st3" points="25,93.3 0,50 25,6.7 75,6.7 100,50 75,93.3 	"/>
	<polygon class="st4" points="25,93.3 0,50 25,6.7 75,6.7 100,50 75,93.3 	"/>
</g>
<g>
	<polygon class="st5" points="29.4,84.4 9.4,49.8 29.4,15.2 69.4,15.2 89.4,49.8 69.4,84.4 	"/>
</g>
<polygon class="st6" points="70.1,33.7 66.3,29.9 50,46.1 33.7,29.9 29.9,33.7 46.1,50 29.9,66.3 33.7,70.1 50,53.9 66.3,70.1 
	70.1,66.3 53.9,50 "/>
</svg>
