<?xml version="1.0" encoding="utf-8"?>
<!-- Generator: Adobe Illustrator 19.1.0, SVG Export Plug-In . SVG Version: 6.00 Build 0)  -->
<svg version="1.1" id="Layer_1" xmlns="http://www.w3.org/2000/svg" xmlns:xlink="http://www.w3.org/1999/xlink" x="0px" y="0px"
	 viewBox="48.5 48.5 303 303.5" style="enable-background:new 48.5 48.5 303 303.5;" xml:space="preserve">
<style type="text/css">
	.st0{fill:#FFFFFF;stroke:#000000;stroke-width:3;stroke-miterlimit:10;}
	.st1{fill:none;stroke:#000000;stroke-miterlimit:10;}
	.st2{fill:none;stroke:#000000;stroke-width:3;stroke-miterlimit:10;}
	.st3{font-family:'HelveticaNeue';}
	.st4{font-size:48px;}
</style>
<g id="Layer_3">
	<circle class="st0" cx="200" cy="200" r="150"/>
</g>
<g id="Layer_1_1_">
	<line class="st1" x1="184.6" y1="346.5" x2="185.9" y2="334.3"/>
	<line class="st1" x1="215.4" y1="53.5" x2="214.1" y2="65.7"/>
	<line class="st1" x1="169.4" y1="344.1" x2="171.9" y2="332"/>
	<line class="st1" x1="230.6" y1="55.9" x2="228.1" y2="68"/>
	<line class="st1" x1="154.5" y1="340.1" x2="158.3" y2="328.4"/>
	<line class="st1" x1="245.5" y1="59.9" x2="241.7" y2="71.6"/>
	<line class="st1" x1="140.1" y1="334.6" x2="145.1" y2="323.3"/>
	<line class="st1" x1="259.9" y1="65.4" x2="254.9" y2="76.7"/>
	<line class="st1" x1="113.4" y1="319.2" x2="120.6" y2="309.2"/>
	<line class="st1" x1="286.6" y1="80.8" x2="279.4" y2="90.8"/>
	<line class="st1" x1="101.4" y1="309.5" x2="109.7" y2="300.3"/>
	<line class="st1" x1="298.6" y1="90.5" x2="290.3" y2="99.7"/>
	<line class="st1" x1="90.5" y1="298.6" x2="99.7" y2="290.3"/>
	<line class="st1" x1="309.5" y1="101.4" x2="300.3" y2="109.7"/>
	<line class="st1" x1="80.8" y1="286.6" x2="90.8" y2="279.4"/>
	<line class="st1" x1="319.2" y1="113.4" x2="309.2" y2="120.6"/>
	<line class="st1" x1="65.4" y1="259.9" x2="76.7" y2="254.9"/>
	<line class="st1" x1="334.6" y1="140.1" x2="323.3" y2="145.1"/>
	<line class="st1" x1="59.9" y1="245.5" x2="71.6" y2="241.7"/>
	<line class="st1" x1="340.1" y1="154.5" x2="328.4" y2="158.3"/>
	<line class="st1" x1="55.9" y1="230.6" x2="68" y2="228.1"/>
	<line class="st1" x1="344.1" y1="169.4" x2="332" y2="171.9"/>
	<line class="st1" x1="53.5" y1="215.4" x2="65.7" y2="214.1"/>
	<line class="st1" x1="346.5" y1="184.6" x2="334.3" y2="185.9"/>
	<line class="st1" x1="53.5" y1="184.6" x2="65.7" y2="185.9"/>
	<line class="st1" x1="346.5" y1="215.4" x2="334.3" y2="214.1"/>
	<line class="st1" x1="55.9" y1="169.4" x2="68" y2="171.9"/>
	<line class="st1" x1="344.1" y1="230.6" x2="332" y2="228.1"/>
	<line class="st1" x1="59.9" y1="154.5" x2="71.6" y2="158.3"/>
	<line class="st1" x1="340.1" y1="245.5" x2="328.4" y2="241.7"/>
	<line class="st1" x1="65.4" y1="140.1" x2="76.7" y2="145.1"/>
	<line class="st1" x1="334.6" y1="259.9" x2="323.3" y2="254.9"/>
	<line class="st1" x1="80.8" y1="113.4" x2="90.8" y2="120.6"/>
	<line class="st1" x1="319.2" y1="286.6" x2="309.2" y2="279.4"/>
	<line class="st1" x1="90.5" y1="101.4" x2="99.7" y2="109.7"/>
	<line class="st1" x1="309.5" y1="298.6" x2="300.3" y2="290.3"/>
	<line class="st1" x1="101.4" y1="90.5" x2="109.7" y2="99.7"/>
	<line class="st1" x1="298.6" y1="309.5" x2="290.3" y2="300.3"/>
	<line class="st1" x1="113.4" y1="80.8" x2="120.6" y2="90.8"/>
	<line class="st1" x1="286.6" y1="319.2" x2="279.4" y2="309.2"/>
	<g>
		<line class="st2" x1="200" y1="52.7" x2="200" y2="65"/>
		<line class="st2" x1="200" y1="347.3" x2="200" y2="335"/>
		<line class="st2" x1="273.7" y1="72.4" x2="267.5" y2="83.1"/>
		<line class="st2" x1="126.3" y1="327.6" x2="132.5" y2="316.9"/>
		<line class="st2" x1="327.6" y1="126.3" x2="316.9" y2="132.5"/>
		<line class="st2" x1="72.4" y1="273.7" x2="83.1" y2="267.5"/>
		<line class="st2" x1="347.3" y1="200" x2="335" y2="200"/>
		<line class="st2" x1="52.7" y1="200" x2="65" y2="200"/>
		<line class="st2" x1="327.6" y1="273.7" x2="316.9" y2="267.5"/>
		<line class="st2" x1="72.4" y1="126.3" x2="83.1" y2="132.5"/>
		<line class="st2" x1="273.7" y1="327.6" x2="267.5" y2="316.9"/>
		<line class="st2" x1="126.3" y1="72.4" x2="132.5" y2="83.1"/>
	</g>
	<line class="st1" x1="140.1" y1="65.4" x2="145.1" y2="76.7"/>
	<line class="st1" x1="259.9" y1="334.6" x2="254.9" y2="323.3"/>
	<line class="st1" x1="154.5" y1="59.9" x2="158.3" y2="71.6"/>
	<line class="st1" x1="245.5" y1="340.1" x2="241.7" y2="328.4"/>
	<line class="st1" x1="169.4" y1="55.9" x2="171.9" y2="68"/>
	<line class="st1" x1="230.6" y1="344.1" x2="228.1" y2="332"/>
	<line class="st1" x1="184.6" y1="53.5" x2="185.9" y2="65.7"/>
	<line class="st1" x1="215.4" y1="346.5" x2="214.1" y2="334.3"/>
</g>
<g id="Layer_2">
	<text transform="matrix(1 0 0 1 173.312 105.5501)" class="st3 st4">12</text>
	<text transform="matrix(1 0 0 1 118.4027 124.1482)" class="st3 st4">11</text>
	<text transform="matrix(1 0 0 1 82.9797 162.783)" class="st3 st4">10</text>
	<text transform="matrix(1 0 0 1 69.7421 215.3976)" class="st3 st4">9</text>
	<text transform="matrix(1 0 0 1 86.3311 270.577)" class="st3 st4">8</text>
	<text transform="matrix(1 0 0 1 129.2433 313.1949)" class="st3 st4">7</text>
	<text transform="matrix(1 0 0 1 186.6555 328.9496)" class="st3 st4">6</text>
	<text transform="matrix(1 0 0 1 246.5713 313.1949)" class="st3 st4">5</text>
	<text transform="matrix(1 0 0 1 285.2233 270.5774)" class="st3 st4">4</text>
	<text transform="matrix(1 0 0 1 303.569 215.3983)" class="st3 st4">3</text>
	<text transform="matrix(1 0 0 1 286.9797 162.7831)" class="st3 st4">2</text>
	<text transform="matrix(1 0 0 1 246.5714 124.1483)" class="st3 st4">1</text>
</g>
</svg>
