<?xml version="1.0" encoding="utf-8"?>
<!-- Generator: Adobe Illustrator 19.1.0, SVG Export Plug-In . SVG Version: 6.00 Build 0)  -->
<svg version="1.1" id="Layer_1" xmlns="http://www.w3.org/2000/svg" xmlns:xlink="http://www.w3.org/1999/xlink" x="0px" y="0px"
	 viewBox="-74 -60 250 420" style="enable-background:new -74 -60 250 420;" xml:space="preserve">
<style type="text/css">
	.st0{fill:none;}
	.st1{fill:#0D0D0D;}
	.st2{fill:#161616;}
	.st3{fill:#3F3F3F;stroke:#000000;stroke-miterlimit:10;}
	.st4{fill:url(#SVGID_1_);stroke:#000000;stroke-miterlimit:10;}
	.st5{fill:url(#SVGID_2_);stroke:#000000;stroke-miterlimit:10;}
	.st6{fill:url(#SVGID_3_);stroke:#000000;stroke-miterlimit:10;}
	.st7{fill:url(#SVGID_4_);stroke:#000000;stroke-miterlimit:10;}
	.st8{fill:url(#SVGID_6_);}
	.st9{fill:#353535;stroke:#000000;stroke-miterlimit:10;}
</style>
<pattern  x="-74" y="360" width="66" height="182" patternUnits="userSpaceOnUse" id="SVGID_5_" viewBox="0 -182 66 182" style="overflow:visible;">
	<g>
		<polygon class="st0" points="0,0 66,0 66,-182 0,-182 		"/>
		<g>
			<polygon class="st0" points="0,-182 66,-182 66,0 0,0 			"/>
			<g>
				<polygon class="st0" points="0,0 66,0 66,-182 0,-182 				"/>
				<g>
					<polygon class="st0" points="0,-182 66,-182 66,0 0,0 					"/>
					<g>
						<polygon class="st0" points="0,0 66,0 66,-182 0,-182 						"/>
						<polygon class="st1" points="40,0 0,0 0,-182 40,-182 						"/>
						<polygon class="st2" points="66,0 33,0 33,-182 66,-182 						"/>
					</g>
				</g>
			</g>
		</g>
	</g>
</pattern>
<rect x="-74" y="220" class="st3" width="219.5" height="9.5"/>
<linearGradient id="SVGID_1_" gradientUnits="userSpaceOnUse" x1="-39.9258" y1="75.5" x2="33" y2="75.5" gradientTransform="matrix(1 0 0 -1 0 300)">
	<stop  offset="0" style="stop-color:#E6E6E6"/>
	<stop  offset="0.1" style="stop-color:#BFBFBF"/>
	<stop  offset="0.3" style="stop-color:#A6A6A6"/>
	<stop  offset="0.5" style="stop-color:#999999"/>
	<stop  offset="0.7" style="stop-color:#A6A6A6"/>
	<stop  offset="1" style="stop-color:#E6E6E6"/>
</linearGradient>
<path class="st4" d="M-3.5,215.2c-20.1,0-36.5-4.6-36.5-10.2v39c0-5.6,16.3-10.2,36.5-10.2S33,238.4,33,244v-39
	C33,210.6,16.7,215.2-3.5,215.2z"/>
<linearGradient id="SVGID_2_" gradientUnits="userSpaceOnUse" x1="73.5742" y1="75.5" x2="146.5" y2="75.5" gradientTransform="matrix(1 0 0 -1 0 300)">
	<stop  offset="0" style="stop-color:#E6E6E6"/>
	<stop  offset="0.1" style="stop-color:#BFBFBF"/>
	<stop  offset="0.3" style="stop-color:#A6A6A6"/>
	<stop  offset="0.5" style="stop-color:#999999"/>
	<stop  offset="0.7" style="stop-color:#A6A6A6"/>
	<stop  offset="1" style="stop-color:#E6E6E6"/>
</linearGradient>
<path class="st5" d="M110,215.2c-20.1,0-36.5-4.6-36.5-10.2v39c0-5.6,16.3-10.2,36.5-10.2s36.5,4.6,36.5,10.2v-39
	C146.5,210.6,130.2,215.2,110,215.2z"/>
<rect x="-74" y="92.2" class="st3" width="219.5" height="9.5"/>
<linearGradient id="SVGID_3_" gradientUnits="userSpaceOnUse" x1="-39.9258" y1="203.3" x2="33" y2="203.3" gradientTransform="matrix(1 0 0 -1 0 300)">
	<stop  offset="0" style="stop-color:#E6E6E6"/>
	<stop  offset="0.1" style="stop-color:#BFBFBF"/>
	<stop  offset="0.3" style="stop-color:#A6A6A6"/>
	<stop  offset="0.5" style="stop-color:#999999"/>
	<stop  offset="0.7" style="stop-color:#A6A6A6"/>
	<stop  offset="1" style="stop-color:#E6E6E6"/>
</linearGradient>
<path class="st6" d="M-3.5,87.4c-20.1,0-36.5-4.6-36.5-10.2v39c0-5.6,16.3-10.2,36.5-10.2S33,110.6,33,116.2v-39
	C33,82.9,16.7,87.4-3.5,87.4z"/>
<linearGradient id="SVGID_4_" gradientUnits="userSpaceOnUse" x1="73.5742" y1="203.3" x2="146.5" y2="203.3" gradientTransform="matrix(1 0 0 -1 0 300)">
	<stop  offset="0" style="stop-color:#E6E6E6"/>
	<stop  offset="0.1" style="stop-color:#BFBFBF"/>
	<stop  offset="0.3" style="stop-color:#A6A6A6"/>
	<stop  offset="0.5" style="stop-color:#999999"/>
	<stop  offset="0.7" style="stop-color:#A6A6A6"/>
	<stop  offset="1" style="stop-color:#E6E6E6"/>
</linearGradient>
<path class="st7" d="M110,87.4c-20.1,0-36.5-4.6-36.5-10.2v39c0-5.6,16.3-10.2,36.5-10.2s36.5,4.6,36.5,10.2v-39
	C146.5,82.9,130.2,87.4,110,87.4z"/>
<pattern  id="SVGID_6_" xlink:href="#SVGID_5_" patternTransform="matrix(0.7071 0.7071 -0.7071 0.7071 -17752.7012 27486.8672)">
</pattern>
<rect x="-74" y="-60" class="st8" width="250" height="420"/>
<rect x="-74" y="-60" class="st9" width="250" height="420"/>
</svg>
