<?xml version="1.0" encoding="utf-8"?>
<!-- Generator: Adobe Illustrator 19.1.0, SVG Export Plug-In . SVG Version: 6.00 Build 0)  -->
<svg version="1.1" id="Layer_1" xmlns="http://www.w3.org/2000/svg" xmlns:xlink="http://www.w3.org/1999/xlink" x="0px" y="0px"
	 viewBox="0 -150 400 600" style="enable-background:new 0 -150 400 600;" xml:space="preserve">
<style type="text/css">
	.st0{fill:none;}
	.st1{fill:#0D0D0D;}
	.st2{fill:#161616;}
	.st3{fill:url(#SVGID_1_);stroke:#000000;stroke-width:5;stroke-miterlimit:10;}
</style>
<pattern  y="450" width="98" height="218" patternUnits="userSpaceOnUse" id="New_Pattern_Swatch_5" viewBox="0 -218 98 218" style="overflow:visible;">
	<g>
		<polygon class="st0" points="0,0 98,0 98,-218 0,-218 		"/>
		<polygon class="st1" points="69.2,0 0,0 0,-218 69.2,-218 		"/>
		<polygon class="st2" points="98,0 49,0 49,-218 98,-218 		"/>
	</g>
</pattern>
<pattern  id="SVGID_1_" xlink:href="#New_Pattern_Swatch_5" patternTransform="matrix(0.7071 0.7071 0.7071 -0.7071 -3898.0835 -12934.0312)">
</pattern>
<path class="st3" d="M350-150H50c-27.5,0-50,22.5-50,50v400c0,27.5,22.5,50,50,50h1.9L24.6,450L200,350h150c27.5,0,50-22.5,50-50
	v-400C400-127.5,377.5-150,350-150z"/>
</svg>
