<?xml version="1.0" encoding="utf-8"?>
<!-- Generator: Adobe Illustrator 19.2.0, SVG Export Plug-In . SVG Version: 6.00 Build 0)  -->
<svg version="1.1" id="Layer_1" xmlns="http://www.w3.org/2000/svg" xmlns:xlink="http://www.w3.org/1999/xlink" x="0px" y="0px"
	 viewBox="0 0 519.7 371.2" style="enable-background:new 0 0 519.7 371.2;" xml:space="preserve">
<style type="text/css">
	.st0{fill:#333333;stroke:#010101;stroke-width:4;stroke-miterlimit:10;}
	.st1{fill:#FFFFFF;}
	.st2{font-family:'HelveticaNeue';}
	.st3{font-size:89.8013px;}
	.st4{fill:#019547;stroke:#010101;stroke-width:4;stroke-miterlimit:10;}
</style>
<g>
	<g>
		<path class="st0" d="M467.7,369.2H242.9c-27.5,0-50-22.5-50-50v-93.8c0-27.5,22.5-50,50-50h224.8c27.5,0,50,22.5,50,50v93.8
			C517.7,346.7,495.2,369.2,467.7,369.2z"/>
		<text transform="matrix(1 0 0 1 210.6282 303.3163)" class="st1 st2 st3">Rotate!</text>
	</g>
	<path class="st4" d="M190.1,190.2c0.1-0.1,0.1-0.1,0.1-0.1c30.8-30.8,46.5-70.7,47.5-111h25.6L220,4l-43.3,75H200
		c-0.8,30.7-13,61.1-36.5,84.6c-23.4,23.4-53.9,35.5-84.6,36.5v-23.3L4,220l75,43.3l0-25.6C119.3,236.8,159.3,221,190.1,190.2
		C190,190.2,190.1,190.2,190.1,190.2z"/>
</g>
</svg>
