<?xml version="1.0" encoding="utf-8"?>
<!-- Generator: Adobe Illustrator 19.1.0, SVG Export Plug-In . SVG Version: 6.00 Build 0)  -->
<svg version="1.1" xmlns="http://www.w3.org/2000/svg" xmlns:xlink="http://www.w3.org/1999/xlink" x="0px" y="0px"
	 viewBox="0 0 461.5 273.1" style="enable-background:new 0 0 461.5 273.1;" xml:space="preserve">
<style type="text/css">
	.st0{fill:#333333;stroke:#000000;stroke-width:4;stroke-miterlimit:10;}
	.st1{fill:#009444;stroke:#000000;stroke-width:4;stroke-miterlimit:10;}
	.st2{fill:#FFFFFF;}
	.st3{font-family:'HelveticaNeue';}
	.st4{font-size:89.8013px;}
	.st5{display:none;}
	.st6{display:inline;fill:#00A651;stroke:#000000;stroke-miterlimit:10;}
</style>
<g id="Layer_1">
	<g>
		<path class="st0" d="M409.5,228.7H184.8c-27.5,0-50-22.5-50-50V84.9c0-27.5,22.5-50,50-50h224.8c27.5,0,50,22.5,50,50v93.8
			C459.5,206.2,437,228.7,409.5,228.7z"/>
		<path class="st1" d="M113.3,117.7c0-44.9-18.2-85.5-47.6-114.9L39.2,29.3C61.8,52,75.8,83.2,75.8,117.7
			c0,33.1-12.9,63.2-33.9,85.6l-16.6-16.6L2.8,270.3l83.7-22.4l-18.1-18.1C96.2,200.7,113.3,161.2,113.3,117.7z"/>
		<text transform="matrix(1 0 0 1 152.49 162.8791)" class="st2 st3 st4">Rotate!</text>
	</g>
</g>
<g id="Layer_2" class="st5">
	<path class="st6" d="M178-25.9c-89.7,0-162.5,72.8-162.5,162.5S88.3,299.1,178,299.1s162.5-72.8,162.5-162.5S267.8-25.9,178-25.9z
		 M178,261.6c-69,0-125-56-125-125s56-125,125-125s125,56,125,125S247.1,261.6,178,261.6z"/>
</g>
</svg>
