<?xml version="1.0" encoding="utf-8"?>
<!-- Generator: Adobe Illustrator 19.1.0, SVG Export Plug-In . SVG Version: 6.00 Build 0)  -->
<svg version="1.1" id="Layer_1" xmlns="http://www.w3.org/2000/svg" xmlns:xlink="http://www.w3.org/1999/xlink" x="0px" y="0px"
	 viewBox="0 0 456.1 311.1" style="enable-background:new 0 0 456.1 311.1;" xml:space="preserve">
<style type="text/css">
	.st0{fill:#333333;stroke:#000000;stroke-width:4;stroke-miterlimit:10;}
	.st1{fill:#FFFFFF;}
	.st2{font-family:'HelveticaNeue';}
	.st3{font-size:89.8013px;}
	.st4{fill:#009444;stroke:#000000;stroke-width:4;stroke-miterlimit:10;}
</style>
<g>
	<path class="st0" d="M276.8,252.5H52c-27.5,0-50-22.5-50-50v-93.8c0-27.5,22.5-50,50-50h224.8c27.5,0,50,22.5,50,50v93.8
		C326.8,230,304.3,252.5,276.8,252.5z"/>
	<text transform="matrix(1 0 0 1 19.7241 186.6235)" class="st1 st2 st3">Rotate!</text>
	<path class="st4" d="M342.8,155.6c0,0.1,0,0.1,0,0.2c0,43.5,17.1,82.9,44.9,112.1l-18.1,18.1l83.7,22.4l-22.4-83.7l-16.5,16.5
		c-21.1-22.3-34-52.4-34-85.6c0-33.1,13-63.2,34-85.6l16.5,16.5l22.4-83.7l-83.7,22.4l18.1,18.1c-27.8,29.2-44.9,68.6-44.9,112.1
		C342.8,155.5,342.8,155.5,342.8,155.6z"/>
</g>
</svg>
