<?xml version="1.0" encoding="utf-8"?>
<!-- Generator: Adobe Illustrator 19.2.0, SVG Export Plug-In . SVG Version: 6.00 Build 0)  -->
<svg version="1.1" id="Layer_1" xmlns="http://www.w3.org/2000/svg" xmlns:xlink="http://www.w3.org/1999/xlink" x="0px" y="0px"
	 viewBox="0 0 328.8 325.9" style="enable-background:new 0 0 328.8 325.9;" xml:space="preserve">
<style type="text/css">
	.st0{fill:#333333;stroke:#010101;stroke-width:4;stroke-miterlimit:10;}
	.st1{fill:#FFFFFF;}
	.st2{font-family:'HelveticaNeue';}
	.st3{font-size:89.8013px;}
	.st4{fill:#019547;stroke:#010101;stroke-width:4;stroke-miterlimit:10;}
</style>
<g>
	<path class="st0" d="M276.8,195.8H52c-27.5,0-50-22.5-50-50V52C2,24.5,24.5,2,52,2h224.8c27.5,0,50,22.5,50,50v93.8
		C326.8,173.3,304.3,195.8,276.8,195.8z"/>
	<text transform="matrix(1 0 0 1 19.7344 129.9235)" class="st1 st2 st3">Rotate!</text>
</g>
<path class="st4" d="M164.5,212.6c-0.1,0-0.1,0-0.2,0c-43.5,0-82.9,17.1-112.1,44.9l-18.1-18.1l-22.4,83.7l83.7-22.4l-16.5-16.5
	c22.3-21.1,52.4-34,85.6-34c33.1,0,63.2,13,85.6,34l-16.5,16.5l83.6,22.4l-22.4-83.7l-18.1,18.1C247.4,229.7,208,212.6,164.5,212.6
	C164.6,212.6,164.5,212.6,164.5,212.6z"/>
</svg>
