<?xml version="1.0" encoding="utf-8"?>
<!-- Generator: Adobe Illustrator 19.2.1, SVG Export Plug-In . SVG Version: 6.00 Build 0)  -->
<svg version="1.1" id="Layer_1" xmlns="http://www.w3.org/2000/svg" xmlns:xlink="http://www.w3.org/1999/xlink" x="0px" y="0px"
	 viewBox="0 0 101.2 87.6" style="enable-background:new 0 0 101.2 87.6;" xml:space="preserve">
<style type="text/css">
	.st0{fill:none;}
	.st1{fill:#131313;}
	.st2{fill:#202020;}
	.st3{fill:url(#SVGID_1_);}
	.st4{fill:none;stroke:#000000;stroke-miterlimit:10;}
	.st5{fill:none;stroke:#58595B;stroke-width:3;stroke-miterlimit:10;}
	.st6{opacity:0.25;fill:#FFFFFF;stroke:#010101;stroke-width:0.25;enable-background:new    ;}
	.st7{fill:#134241;}
	.st8{fill:#5F9EA0;}
	.st9{fill:none;stroke:#000000;stroke-width:0.25;stroke-linecap:round;stroke-miterlimit:10;}
	.st10{fill:none;stroke:#000000;stroke-width:0.25;stroke-linecap:round;}
	.st11{fill:none;stroke:#010101;stroke-width:0.25;}
	.st12{opacity:0.5;fill:#FFFFFF;stroke:#000000;stroke-width:0.25;stroke-linecap:round;enable-background:new    ;}
	.st13{fill:none;stroke:#000000;stroke-width:0.25;}
</style>
<pattern  y="87.6" width="362.8" height="1052" patternUnits="userSpaceOnUse" id="New_Pattern_Swatch_5" viewBox="0 -1052 362.8 1052" style="overflow:visible;">
	<g>
		<rect y="-1052" class="st0" width="362.8" height="1052"/>
		<g>
			<g>
				<g>
					<g>
						<rect y="-1052" class="st1" width="25.2" height="1052"/>
						<rect x="22.7" y="-1052" class="st2" width="28.6" height="1052"/>
					</g>
				</g>
				<g>
					<g>
						<g>
							<rect x="45.3" y="-1052" class="st1" width="25.2" height="1052"/>
							<rect x="68" y="-1052" class="st2" width="27.8" height="1052"/>
						</g>
					</g>
				</g>
			</g>
			<g>
				<g>
					<g>
						<rect x="90.7" y="-1052" class="st1" width="25.2" height="1052"/>
						<rect x="113.4" y="-1052" class="st2" width="28.6" height="1052"/>
					</g>
				</g>
				<g>
					<g>
						<g>
							<rect x="136" y="-1052" class="st1" width="25.2" height="1052"/>
							<rect x="158.7" y="-1052" class="st2" width="28.9" height="1052"/>
						</g>
					</g>
				</g>
			</g>
			<g>
				<g>
					<g>
						<rect x="181.4" y="-1052" class="st1" width="25.2" height="1052"/>
						<rect x="204.1" y="-1052" class="st2" width="28.6" height="1052"/>
					</g>
				</g>
				<g>
					<g>
						<g>
							<rect x="226.7" y="-1052" class="st1" width="25.2" height="1052"/>
							<rect x="249.4" y="-1052" class="st2" width="27.8" height="1052"/>
						</g>
					</g>
				</g>
			</g>
			<g>
				<g>
					<g>
						<rect x="272.1" y="-1052" class="st1" width="25.2" height="1052"/>
						<rect x="294.7" y="-1052" class="st2" width="28.6" height="1052"/>
					</g>
				</g>
				<g>
					<g>
						<g>
							<rect x="317.4" y="-1052" class="st1" width="25.2" height="1052"/>
							<rect x="340.1" y="-1052" class="st2" width="22.7" height="1052"/>
						</g>
					</g>
				</g>
			</g>
		</g>
	</g>
</pattern>
<pattern  id="SVGID_1_" xlink:href="#New_Pattern_Swatch_5" patternTransform="matrix(0.6124 0.6124 -0.6124 0.6124 -52577.2109 71877.1094)">
</pattern>
<polygon class="st3" points="25.6,87.1 0.6,43.8 25.6,0.5 75.6,0.5 100.6,43.8 75.6,87.1 "/>
<polygon class="st4" points="25.6,87.1 0.6,43.8 25.6,0.5 75.6,0.5 100.6,43.8 75.6,87.1 "/>
<g>
	<polygon class="st5" points="30.6,78.4 10.6,43.8 30.6,9.2 70.6,9.2 90.6,43.8 70.6,78.4 	"/>
</g>
<g>
	<polygon class="st6" points="38.3,13.5 57.8,13.5 57.8,68.3 43.4,68.3 43.4,20.1 	"/>
	<g>
		<g>
			<rect x="43.4" y="36.4" class="st7" width="14.3" height="2"/>
			<path class="st8" d="M43.4,36.4v2h7.2C47.8,38.4,45.3,37.6,43.4,36.4L43.4,36.4z"/>
			<path class="st8" d="M50.6,38.4h7.2v-2h-0.1C55.9,37.6,53.4,38.4,50.6,38.4z"/>
		</g>
		<rect x="43.4" y="38.4" class="st8" width="14.3" height="29.9"/>
		<line class="st9" x1="43.4" y1="68.3" x2="57.8" y2="68.3"/>
		<polygon class="st10" points="64.5,74.1 36.7,74.1 43.4,68.3 57.8,68.3 		"/>
		<polygon class="st11" points="38.3,13.5 57.8,13.5 57.8,68.3 43.4,68.3 43.4,20.1 		"/>
		<polygon class="st12" points="64.5,74.1 36.7,74.1 43.4,68.3 57.8,68.3 		"/>
		<line class="st13" x1="43.4" y1="20.1" x2="43.4" y2="67.8"/>
		<line class="st13" x1="57.8" y1="17.2" x2="57.8" y2="67.8"/>
		<line class="st13" x1="44.1" y1="64.2" x2="57.1" y2="64.2"/>
		<line class="st13" x1="44.1" y1="59.9" x2="57.1" y2="59.9"/>
		<line class="st13" x1="44.1" y1="55.6" x2="57.1" y2="55.6"/>
		<line class="st13" x1="44.1" y1="51.3" x2="57.1" y2="51.3"/>
		<line class="st13" x1="44.1" y1="47" x2="57.1" y2="47"/>
		<line class="st13" x1="44.1" y1="42.7" x2="57.1" y2="42.7"/>
		<line class="st13" x1="44.1" y1="38.4" x2="57.1" y2="38.4"/>
		<line class="st13" x1="44.1" y1="34.1" x2="57.1" y2="34.1"/>
		<line class="st13" x1="44.1" y1="29.8" x2="57.1" y2="29.8"/>
		<line class="st13" x1="44.1" y1="25.5" x2="57.1" y2="25.5"/>
	</g>
</g>
</svg>
