<?xml version="1.0" encoding="utf-8"?>
<!-- Generator: Adobe Illustrator 19.2.1, SVG Export Plug-In . SVG Version: 6.00 Build 0)  -->
<svg version="1.1" id="Layer_1" xmlns="http://www.w3.org/2000/svg" xmlns:xlink="http://www.w3.org/1999/xlink" x="0px" y="0px"
	 viewBox="0 0 101.2 87.6" style="enable-background:new 0 0 101.2 87.6;" xml:space="preserve">
<style type="text/css">
	.st0{fill:none;}
	.st1{fill:#131313;}
	.st2{fill:#202020;}
	.st3{fill:url(#SVGID_1_);}
	.st4{fill:none;stroke:#000000;stroke-miterlimit:10;}
	.st5{fill:none;stroke:#58595B;stroke-width:3;stroke-miterlimit:10;}
	.st6{fill:#CCCBCB;stroke:#000000;stroke-miterlimit:10;}
	.st7{fill:none;stroke:#000000;stroke-width:0.4214;stroke-miterlimit:10;}
	.st8{fill:none;stroke:#000000;stroke-width:0.3477;stroke-miterlimit:3.864;}
	.st9{fill:none;stroke:#000000;stroke-width:0.3901;stroke-miterlimit:3.864;}
	.st10{fill:none;stroke:#000000;stroke-width:0.4214;stroke-miterlimit:3.864;}
	.st11{font-family:'HelveticaNeue';}
	.st12{font-size:2.4187px;}
	.st13{font-size:3.6281px;}
	.st14{fill:#C7C7C7;}
	.st15{fill:none;stroke:#000000;stroke-width:0.4438;stroke-miterlimit:10;}
	.st16{fill:none;stroke:#000000;stroke-width:0.4438;stroke-linecap:round;stroke-linejoin:round;stroke-miterlimit:10;}
	.st17{fill:none;stroke:#000000;stroke-width:0.317;stroke-miterlimit:3.864;}
	.st18{fill:none;stroke:#000000;stroke-width:0.1902;stroke-miterlimit:10;}
	.st19{fill:none;stroke:#000000;stroke-width:0.1642;stroke-miterlimit:10;}
	.st20{fill:none;stroke:#000000;stroke-width:0.317;stroke-linecap:round;stroke-linejoin:round;stroke-miterlimit:10;}
	.st21{fill:none;stroke:#000000;stroke-width:0.317;stroke-miterlimit:10;}
	.st22{fill:none;stroke:#000000;stroke-width:0.2616;stroke-miterlimit:3.864;}
	.st23{fill:none;stroke:#000000;stroke-width:0.2935;stroke-miterlimit:3.864;}
	.st24{fill:none;stroke:#000000;stroke-width:0.7486;stroke-miterlimit:10;}
</style>
<pattern  y="87.6" width="362.8" height="1052" patternUnits="userSpaceOnUse" id="New_Pattern_Swatch_5" viewBox="0 -1052 362.8 1052" style="overflow:visible;">
	<g>
		<rect y="-1052" class="st0" width="362.8" height="1052"/>
		<g>
			<g>
				<g>
					<g>
						<rect y="-1052" class="st1" width="25.2" height="1052"/>
						<rect x="22.7" y="-1052" class="st2" width="28.6" height="1052"/>
					</g>
				</g>
				<g>
					<g>
						<g>
							<rect x="45.3" y="-1052" class="st1" width="25.2" height="1052"/>
							<rect x="68" y="-1052" class="st2" width="27.8" height="1052"/>
						</g>
					</g>
				</g>
			</g>
			<g>
				<g>
					<g>
						<rect x="90.7" y="-1052" class="st1" width="25.2" height="1052"/>
						<rect x="113.4" y="-1052" class="st2" width="28.6" height="1052"/>
					</g>
				</g>
				<g>
					<g>
						<g>
							<rect x="136" y="-1052" class="st1" width="25.2" height="1052"/>
							<rect x="158.7" y="-1052" class="st2" width="28.9" height="1052"/>
						</g>
					</g>
				</g>
			</g>
			<g>
				<g>
					<g>
						<rect x="181.4" y="-1052" class="st1" width="25.2" height="1052"/>
						<rect x="204.1" y="-1052" class="st2" width="28.6" height="1052"/>
					</g>
				</g>
				<g>
					<g>
						<g>
							<rect x="226.7" y="-1052" class="st1" width="25.2" height="1052"/>
							<rect x="249.4" y="-1052" class="st2" width="27.8" height="1052"/>
						</g>
					</g>
				</g>
			</g>
			<g>
				<g>
					<g>
						<rect x="272.1" y="-1052" class="st1" width="25.2" height="1052"/>
						<rect x="294.7" y="-1052" class="st2" width="28.6" height="1052"/>
					</g>
				</g>
				<g>
					<g>
						<g>
							<rect x="317.4" y="-1052" class="st1" width="25.2" height="1052"/>
							<rect x="340.1" y="-1052" class="st2" width="22.7" height="1052"/>
						</g>
					</g>
				</g>
			</g>
		</g>
	</g>
</pattern>
<pattern  id="SVGID_1_" xlink:href="#New_Pattern_Swatch_5" patternTransform="matrix(0.6124 0.6124 -0.6124 0.6124 -52577.2109 71877.1094)">
</pattern>
<polygon class="st3" points="25.6,87.1 0.6,43.8 25.6,0.5 75.6,0.5 100.6,43.8 75.6,87.1 "/>
<polygon class="st4" points="25.6,87.1 0.6,43.8 25.6,0.5 75.6,0.5 100.6,43.8 75.6,87.1 "/>
<g>
	<polygon class="st5" points="30.6,78.4 10.6,43.8 30.6,9.2 70.6,9.2 90.6,43.8 70.6,78.4 	"/>
</g>
<g>
	<g id="Body">
		<g>
			<path class="st6" d="M75.9,41.9L30.8,42l-0.1,3.7l0.7,1.5v-1.1v32.8c0,0-3.9-5.3-4.2-6c0.1-0.1-3.7-26.5-3.7-26.5s0-17.3,0-17.4
				c0-1.1,1.4-1.5,1.4-1.5l6-1l1.1-1c0.1-1-0.6-4.9-0.6-4.9V8.7h1.3l7.5,19.6L75.9,28V41.9z"/>
			<g>
				<path class="st7" d="M62.6,42.3"/>
				<line class="st8" x1="61.1" y1="40.7" x2="61.1" y2="38.7"/>
				<line class="st8" x1="59.9" y1="40.7" x2="59.9" y2="38.7"/>
				<line class="st8" x1="58.6" y1="40.7" x2="58.6" y2="38.7"/>
				<line class="st8" x1="57.4" y1="40.7" x2="57.4" y2="38.7"/>
				<line class="st9" x1="56.2" y1="40.7" x2="56.2" y2="37.8"/>
				<line class="st8" x1="55" y1="40.7" x2="55" y2="38.7"/>
				<line class="st8" x1="53.8" y1="40.7" x2="53.8" y2="38.7"/>
				<line class="st8" x1="52.6" y1="40.7" x2="52.6" y2="38.7"/>
				<line class="st8" x1="51.4" y1="40.7" x2="51.4" y2="38.7"/>
				<line class="st10" x1="50.2" y1="40.7" x2="50.2" y2="36.8"/>
				<line class="st10" x1="62.3" y1="40.7" x2="62.3" y2="36.8"/>
				<line class="st8" x1="61.1" y1="40.7" x2="61.1" y2="38.7"/>
				<line class="st8" x1="59.9" y1="40.7" x2="59.9" y2="38.7"/>
				<line class="st8" x1="58.6" y1="40.7" x2="58.6" y2="38.7"/>
				<line class="st8" x1="57.4" y1="40.7" x2="57.4" y2="38.7"/>
				<line class="st9" x1="56.2" y1="40.7" x2="56.2" y2="37.8"/>
				<line class="st8" x1="55" y1="40.7" x2="55" y2="38.7"/>
				<line class="st8" x1="53.8" y1="40.7" x2="53.8" y2="38.7"/>
				<line class="st8" x1="52.6" y1="40.7" x2="52.6" y2="38.7"/>
				<line class="st8" x1="51.4" y1="40.7" x2="51.4" y2="38.7"/>
				<line class="st10" x1="62.3" y1="40.7" x2="62.3" y2="36.8"/>
				<text transform="matrix(1 0 0 1 60.3953 38.505)" class="st11 st12">1</text>
				<line class="st8" x1="73.2" y1="40.7" x2="73.2" y2="38.7"/>
				<line class="st8" x1="71.9" y1="40.7" x2="71.9" y2="38.7"/>
				<line class="st8" x1="70.7" y1="40.7" x2="70.7" y2="38.7"/>
				<line class="st8" x1="69.5" y1="40.7" x2="69.5" y2="38.7"/>
				<line class="st9" x1="68.3" y1="40.7" x2="68.3" y2="37.8"/>
				<line class="st8" x1="67.1" y1="40.7" x2="67.1" y2="38.7"/>
				<line class="st8" x1="65.9" y1="40.7" x2="65.9" y2="38.7"/>
				<line class="st8" x1="64.7" y1="40.7" x2="64.7" y2="38.7"/>
				<line class="st8" x1="63.5" y1="40.7" x2="63.5" y2="38.7"/>
				<line class="st10" x1="74.4" y1="40.7" x2="74.4" y2="36.8"/>
				<line class="st8" x1="73.2" y1="40.7" x2="73.2" y2="38.7"/>
				<line class="st8" x1="71.9" y1="40.7" x2="71.9" y2="38.7"/>
				<line class="st8" x1="70.7" y1="40.7" x2="70.7" y2="38.7"/>
				<line class="st8" x1="69.5" y1="40.7" x2="69.5" y2="38.7"/>
				<line class="st9" x1="68.3" y1="40.7" x2="68.3" y2="37.8"/>
				<line class="st8" x1="67.1" y1="40.7" x2="67.1" y2="38.7"/>
				<line class="st8" x1="65.9" y1="40.7" x2="65.9" y2="38.7"/>
				<line class="st8" x1="64.7" y1="40.7" x2="64.7" y2="38.7"/>
				<line class="st8" x1="63.5" y1="40.7" x2="63.5" y2="38.7"/>
				<line class="st10" x1="74.4" y1="40.7" x2="74.4" y2="36.8"/>
				<text transform="matrix(1 0 0 1 72.4891 38.505)" class="st11 st12">2</text>
				<text transform="matrix(1 0 0 1 49.2498 36.1642)" class="st11 st13">0</text>
			</g>
		</g>
	</g>
	<g id="Front">
		<g id="ViewFinder">
			<path class="st14" d="M31.9,42.5"/>
			<path class="st15" d="M31.9,42.5"/>
			<path class="st14" d="M77.6,29"/>
			<path class="st14" d="M77.4,42.5"/>
			<path class="st16" d="M77.6,29"/>
			<path class="st16" d="M77.4,42.5"/>
			<path class="st17" d="M40.5,31"/>
			<path class="st17" d="M45.8,31"/>
			<path class="st17" d="M48.4,31"/>
			<path class="st17" d="M51.1,31"/>
			<path class="st17" d="M53.7,31"/>
			<path class="st17" d="M61.8,31"/>
			<path class="st17" d="M64.4,31"/>
			<path class="st17" d="M69.7,31"/>
			<path class="st17" d="M77.8,31"/>
			<path class="st17" d="M44.4,31"/>
			<path class="st17" d="M47.2,31"/>
			<path class="st17" d="M49.8,31"/>
			<path class="st17" d="M52.5,31"/>
			<path class="st17" d="M55.1,31"/>
			<path class="st17" d="M60.4,31"/>
			<path class="st17" d="M63.1,31"/>
			<g>
				<rect x="54.5" y="24.8" class="st14" width="1.6" height="1.4"/>
				<rect x="54.5" y="24.8" class="st15" width="1.6" height="1.4"/>
				<rect x="52.1" y="21.4" class="st14" width="6.1" height="3.4"/>
				<rect x="52.1" y="21.4" class="st15" width="6.1" height="3.4"/>
				<line class="st0" x1="52.9" y1="21.4" x2="52.9" y2="24.8"/>
				<line class="st18" x1="52.9" y1="21.4" x2="52.9" y2="24.8"/>
				<line class="st0" x1="53.4" y1="21.4" x2="53.4" y2="24.8"/>
				<line class="st18" x1="53.4" y1="21.4" x2="53.4" y2="24.8"/>
				<line class="st0" x1="54" y1="21.4" x2="54" y2="24.8"/>
				<line class="st18" x1="54" y1="21.4" x2="54" y2="24.8"/>
				<line class="st0" x1="54.6" y1="21.4" x2="54.6" y2="24.8"/>
				<line class="st18" x1="54.6" y1="21.4" x2="54.6" y2="24.8"/>
				<line class="st0" x1="58.1" y1="24.7" x2="58.1" y2="21.3"/>
				<line class="st19" x1="58.1" y1="24.7" x2="58.1" y2="21.3"/>
				<line class="st0" x1="57.7" y1="24.8" x2="57.7" y2="21.4"/>
				<line class="st19" x1="57.7" y1="24.8" x2="57.7" y2="21.4"/>
				<line class="st0" x1="57.2" y1="24.8" x2="57.2" y2="21.4"/>
				<line class="st19" x1="57.2" y1="24.8" x2="57.2" y2="21.4"/>
				<line class="st0" x1="56.6" y1="24.8" x2="56.6" y2="21.4"/>
				<line class="st19" x1="56.6" y1="24.8" x2="56.6" y2="21.4"/>
				<line class="st0" x1="55.9" y1="24.8" x2="55.9" y2="21.5"/>
				<line class="st19" x1="55.9" y1="24.8" x2="55.9" y2="21.5"/>
				<line class="st0" x1="55.2" y1="24.7" x2="55.2" y2="21.4"/>
				<line class="st19" x1="55.2" y1="24.7" x2="55.2" y2="21.4"/>
			</g>
			<path class="st20" d="M77.3,44.9"/>
			<path class="st20" d="M32.1,44.9"/>
			<path class="st21" d="M77.4,40.8"/>
			<path class="st21" d="M32,40.9"/>
			<path class="st6" d="M30.9,26.5V24c0.1-0.8,0.5-3.4,0.5-3.4V8.7c0,0-0.8,0.8-1.5,1.8L26,27.4V29c0,5,3,6.3,6.6,6.3v6.5l-0.1,3.6
				l-1,1.8v31.7l5.4-6.8c0.1,0,4.5-26.8,4.5-26.8h36V26.4L30.9,26.5L30.9,26.5z M63.6,40.7h-18c-2.7,0-4.8-2.2-4.8-4.8
				s2.2-4.8,4.8-4.8h18c2.7,0,4.8,2.2,4.8,4.8S66.3,40.7,63.6,40.7z"/>
			<g>
				<line class="st22" x1="60" y1="43.1" x2="60" y2="42.2"/>
				<line class="st22" x1="58.9" y1="43.1" x2="58.9" y2="42.2"/>
				<line class="st22" x1="57.7" y1="43.1" x2="57.7" y2="42.2"/>
				<line class="st22" x1="56.6" y1="43.1" x2="56.6" y2="42.2"/>
				<line class="st23" x1="55.6" y1="43.1" x2="55.6" y2="41.7"/>
				<line class="st22" x1="54.5" y1="43.1" x2="54.5" y2="42.2"/>
				<line class="st22" x1="53.4" y1="43.1" x2="53.4" y2="42.2"/>
				<line class="st22" x1="52.4" y1="43.1" x2="52.4" y2="42.2"/>
				<line class="st22" x1="51.3" y1="43.1" x2="51.3" y2="42.2"/>
				<line class="st17" x1="61.1" y1="43.1" x2="61.1" y2="41.2"/>
				<line class="st17" x1="50.2" y1="43.1" x2="50.2" y2="41.2"/>
			</g>
			<path class="st24" d="M66,43.6H42.9c-3,0-5.4-2.2-5.4-4.9v-5.4c0-2.7,2.5-4.9,5.4-4.9H66c3,0,5.4,2.2,5.4,4.9v5.4
				C71.5,41.4,69,43.6,66,43.6z"/>
		</g>
	</g>
</g>
</svg>
