<?xml version="1.0" encoding="utf-8"?>
<!-- Generator: Adobe Illustrator 19.2.1, SVG Export Plug-In . SVG Version: 6.00 Build 0)  -->
<svg version="1.1" id="Layer_1" xmlns="http://www.w3.org/2000/svg" xmlns:xlink="http://www.w3.org/1999/xlink" x="0px" y="0px"
	 viewBox="0 0 101.2 87.6" style="enable-background:new 0 0 101.2 87.6;" xml:space="preserve">
<style type="text/css">
	.st0{fill:none;}
	.st1{fill:#131313;}
	.st2{fill:#202020;}
	.st3{fill:url(#SVGID_1_);}
	.st4{fill:none;stroke:#000000;stroke-miterlimit:10;}
	.st5{fill:none;stroke:#58595B;stroke-width:3;stroke-miterlimit:10;}
</style>
<pattern  y="87.6" width="362.8" height="1052" patternUnits="userSpaceOnUse" id="New_Pattern_Swatch_5" viewBox="0 -1052 362.8 1052" style="overflow:visible;">
	<g>
		<rect y="-1052" class="st0" width="362.8" height="1052"/>
		<g>
			<g>
				<g>
					<g>
						<rect y="-1052" class="st1" width="25.2" height="1052"/>
						<rect x="22.7" y="-1052" class="st2" width="28.6" height="1052"/>
					</g>
				</g>
				<g>
					<g>
						<g>
							<rect x="45.3" y="-1052" class="st1" width="25.2" height="1052"/>
							<rect x="68" y="-1052" class="st2" width="27.8" height="1052"/>
						</g>
					</g>
				</g>
			</g>
			<g>
				<g>
					<g>
						<rect x="90.7" y="-1052" class="st1" width="25.2" height="1052"/>
						<rect x="113.4" y="-1052" class="st2" width="28.6" height="1052"/>
					</g>
				</g>
				<g>
					<g>
						<g>
							<rect x="136" y="-1052" class="st1" width="25.2" height="1052"/>
							<rect x="158.7" y="-1052" class="st2" width="28.9" height="1052"/>
						</g>
					</g>
				</g>
			</g>
			<g>
				<g>
					<g>
						<rect x="181.4" y="-1052" class="st1" width="25.2" height="1052"/>
						<rect x="204.1" y="-1052" class="st2" width="28.6" height="1052"/>
					</g>
				</g>
				<g>
					<g>
						<g>
							<rect x="226.7" y="-1052" class="st1" width="25.2" height="1052"/>
							<rect x="249.4" y="-1052" class="st2" width="27.8" height="1052"/>
						</g>
					</g>
				</g>
			</g>
			<g>
				<g>
					<g>
						<rect x="272.1" y="-1052" class="st1" width="25.2" height="1052"/>
						<rect x="294.7" y="-1052" class="st2" width="28.6" height="1052"/>
					</g>
				</g>
				<g>
					<g>
						<g>
							<rect x="317.4" y="-1052" class="st1" width="25.2" height="1052"/>
							<rect x="340.1" y="-1052" class="st2" width="22.7" height="1052"/>
						</g>
					</g>
				</g>
			</g>
		</g>
	</g>
</pattern>
<pattern  id="SVGID_1_" xlink:href="#New_Pattern_Swatch_5" patternTransform="matrix(0.6124 0.6124 -0.6124 0.6124 -52577.2109 71877.1094)">
</pattern>
<polygon class="st3" points="25.6,87.1 0.6,43.8 25.6,0.5 75.6,0.5 100.6,43.8 75.6,87.1 "/>
<polygon class="st4" points="25.6,87.1 0.6,43.8 25.6,0.5 75.6,0.5 100.6,43.8 75.6,87.1 "/>
<polygon class="st5" points="30.6,78.4 10.6,43.8 30.6,9.2 70.6,9.2 90.6,43.8 70.6,78.4 "/>
</svg>
