<?xml version="1.0" encoding="utf-8"?>
<!-- Generator: Adobe Illustrator 19.2.1, SVG Export Plug-In . SVG Version: 6.00 Build 0)  -->
<svg version="1.1" id="Layer_1" xmlns="http://www.w3.org/2000/svg" xmlns:xlink="http://www.w3.org/1999/xlink" x="0px" y="0px"
	 viewBox="0 0 101.2 87.6" style="enable-background:new 0 0 101.2 87.6;" xml:space="preserve">
<style type="text/css">
	.st0{fill:none;}
	.st1{fill:#111111;}
	.st2{fill:#202020;}
	.st3{fill:url(#SVGID_1_);}
	.st4{fill:none;stroke:#000000;stroke-miterlimit:10;}
	.st5{fill:none;stroke:#58595B;stroke-width:3;stroke-miterlimit:10;}
	.st6{fill:#FFFFFF;}
	.st7{font-family:'HelveticaNeue';}
	.st8{font-size:12px;}
</style>
<pattern  y="87.6" width="35" height="70" patternUnits="userSpaceOnUse" id="SVGID_2_" viewBox="0 0 35 70" style="overflow:hidden;">
	<polygon class="st1" points="0,0 17.5,0 17.5,70 0,70 "/>
	<polygon class="st2" points="17.5,0 35,0 35,70 17.5,70 "/>
</pattern>
<g>
	<g>
		
			<pattern  id="SVGID_1_" xlink:href="#SVGID_2_" patternTransform="matrix(0.6124 0.6124 0.6124 -0.6124 -18612.7031 -29991.0312)">
		</pattern>
		<polygon class="st3" points="25.6,87.1 0.6,43.8 25.6,0.5 75.6,0.5 100.6,43.8 75.6,87.1 		"/>
		<polygon class="st4" points="25.6,87.1 0.6,43.8 25.6,0.5 75.6,0.5 100.6,43.8 75.6,87.1 		"/>
	</g>
	<polygon class="st5" points="30.6,78.4 10.6,43.8 30.6,9.2 70.6,9.2 90.6,43.8 70.6,78.4 	"/>
</g>
<polygon class="st6" points="80.4,43.8 62.6,33.5 62.6,40.2 20.8,40.2 20.8,47.4 62.6,47.4 62.6,54.1 "/>
<text transform="matrix(1 0 0 1 39.1582 25.1665)" class="st6 st7 st8">Play</text>
</svg>
