<?xml version="1.0" encoding="utf-8"?>
<!-- Generator: Adobe Illustrator 19.2.1, SVG Export Plug-In . SVG Version: 6.00 Build 0)  -->
<svg version="1.1" id="Layer_1" xmlns="http://www.w3.org/2000/svg" xmlns:xlink="http://www.w3.org/1999/xlink" x="0px" y="0px"
	 viewBox="0 0 101.2 87.6" style="enable-background:new 0 0 101.2 87.6;" xml:space="preserve">
<style type="text/css">
	.st0{fill:none;}
	.st1{fill:#111111;}
	.st2{fill:#202020;}
	.st3{fill:url(#SVGID_2_);}
	.st4{fill:none;stroke:#000000;stroke-miterlimit:10;}
	.st5{fill:none;stroke:#58595B;stroke-width:3;stroke-miterlimit:10;}
	.st6{fill:#FFFFFF;}
</style>
<pattern  y="87.6" width="35" height="70" patternUnits="userSpaceOnUse" id="SVGID_1_" viewBox="0 0 35 70" style="overflow:hidden;">
	<polygon class="st1" points="0,0 27.5,0 27.5,70 0,70 "/>
	<polygon class="st2" points="17.5,0 35,0 35,70 17.5,70 "/>
</pattern>
<g>
	<g>
		<pattern  id="SVGID_2_" xlink:href="#SVGID_1_" patternTransform="matrix(0.6124 0.6124 -0.6124 0.6124 -20557.4766 21535.4668)">
		</pattern>
		<polygon class="st3" points="25.6,87.1 0.6,43.8 25.6,0.5 75.6,0.5 100.6,43.8 75.6,87.1 		"/>
		<polygon class="st4" points="25.6,87.1 0.6,43.8 25.6,0.5 75.6,0.5 100.6,43.8 75.6,87.1 		"/>
	</g>
	<polygon class="st5" points="30.6,78.4 10.6,43.8 30.6,9.2 70.6,9.2 90.6,43.8 70.6,78.4 	"/>
</g>
<path class="st6" d="M50.6,19.5c-6.2,0-11.9,2.3-16.2,6.2l-3.6-3.6l-4.2,15.6l15.6-4.2l-3.1-3.1c3.1-2.6,7.1-4.3,11.5-4.3
	c9.8,0,17.7,7.9,17.7,17.7s-7.9,17.7-17.7,17.7c-8.4,0-15.5-5.9-17.2-13.9h-6.7c1.8,11.6,11.9,20.4,24,20.4
	c13.4,0,24.3-10.9,24.3-24.3C74.9,30.4,64,19.5,50.6,19.5z"/>
</svg>
