<?xml version="1.0" encoding="utf-8"?>
<!-- Generator: Adobe Illustrator 19.2.1, SVG Export Plug-In . SVG Version: 6.00 Build 0)  -->
<svg version="1.1" id="Layer_1" xmlns="http://www.w3.org/2000/svg" xmlns:xlink="http://www.w3.org/1999/xlink" x="0px" y="0px"
	 viewBox="0 0 101.2 87.6" style="enable-background:new 0 0 101.2 87.6;" xml:space="preserve">
<style type="text/css">
	.st0{fill:none;}
	.st1{fill:#131313;}
	.st2{fill:#202020;}
	.st3{fill:url(#SVGID_1_);}
	.st4{fill:none;stroke:#000000;stroke-miterlimit:10;}
	.st5{fill:none;stroke:#58595B;stroke-width:3;stroke-miterlimit:10;}
	.st6{fill:#FFF3CD;stroke:#000000;stroke-miterlimit:10;}
	.st7{fill:#FBF6E9;stroke:#000000;stroke-miterlimit:10;}
	.st8{fill:none;stroke:#010101;stroke-width:0.25;}
	.st9{fill:#767576;}
	.st10{fill:none;stroke:#000000;stroke-width:0.25;stroke-miterlimit:10;}
	.st11{fill:none;stroke:#FF0000;stroke-width:0.25;stroke-miterlimit:10;}
	.st12{fill:#DCD2B0;stroke:#000000;stroke-miterlimit:10;}
	.st13{fill:#F8F0D9;stroke:#000000;stroke-miterlimit:10;}
	.st14{stroke:#000000;stroke-miterlimit:10;}
	.st15{fill:#EB2426;}
	.st16{fill:#BFBFBF;stroke:#000000;stroke-width:0.5;stroke-miterlimit:10;}
	.st17{fill:#696969;stroke:#000000;stroke-width:0.5;stroke-miterlimit:10;}
	.st18{fill:#CEC9C0;stroke:#010101;stroke-width:0.25;stroke-miterlimit:10;}
	.st19{fill:#F9F1DA;}
	.st20{fill:#C6B997;stroke:#C6B997;stroke-width:0.25;stroke-miterlimit:10;}
	.st21{fill:#F9F1DA;stroke:#C6B997;stroke-width:0.25;stroke-miterlimit:10;}
	.st22{fill:#F9F1DA;stroke:#010101;stroke-width:0.25;stroke-miterlimit:10;}
	.st23{fill:none;stroke:#010101;stroke-width:0.25;stroke-miterlimit:10;}
	.st24{fill:#353434;stroke:#000000;stroke-width:0.25;stroke-miterlimit:10;}
	.st25{fill:#BFBFBF;stroke:#000000;stroke-width:0.25;stroke-miterlimit:10;}
	.st26{fill:#696969;stroke:#000000;stroke-width:0.25;stroke-miterlimit:10;}
	.st27{fill:#0C0D0D;stroke:#000000;stroke-width:0.5;stroke-miterlimit:10;}
	.st28{fill:#282827;stroke:#000000;stroke-width:0.5;stroke-miterlimit:10;}
</style>
<pattern  y="87.6" width="362.8" height="1052" patternUnits="userSpaceOnUse" id="New_Pattern_Swatch_6" viewBox="0 -1052 362.8 1052" style="overflow:visible;">
	<g>
		<rect y="-1052" class="st0" width="362.8" height="1052"/>
		<g>
			<g>
				<g>
					<g>
						<rect y="-1052" class="st1" width="25.2" height="1052"/>
						<rect x="22.7" y="-1052" class="st2" width="28.6" height="1052"/>
					</g>
				</g>
				<g>
					<g>
						<g>
							<rect x="45.3" y="-1052" class="st1" width="25.2" height="1052"/>
							<rect x="68" y="-1052" class="st2" width="27.8" height="1052"/>
						</g>
					</g>
				</g>
			</g>
			<g>
				<g>
					<g>
						<rect x="90.7" y="-1052" class="st1" width="25.2" height="1052"/>
						<rect x="113.4" y="-1052" class="st2" width="28.6" height="1052"/>
					</g>
				</g>
				<g>
					<g>
						<g>
							<rect x="136" y="-1052" class="st1" width="25.2" height="1052"/>
							<rect x="158.7" y="-1052" class="st2" width="28.9" height="1052"/>
						</g>
					</g>
				</g>
			</g>
			<g>
				<g>
					<g>
						<rect x="181.4" y="-1052" class="st1" width="25.2" height="1052"/>
						<rect x="204.1" y="-1052" class="st2" width="28.6" height="1052"/>
					</g>
				</g>
				<g>
					<g>
						<g>
							<rect x="226.7" y="-1052" class="st1" width="25.2" height="1052"/>
							<rect x="249.4" y="-1052" class="st2" width="27.8" height="1052"/>
						</g>
					</g>
				</g>
			</g>
			<g>
				<g>
					<g>
						<rect x="272.1" y="-1052" class="st1" width="25.2" height="1052"/>
						<rect x="294.7" y="-1052" class="st2" width="28.6" height="1052"/>
					</g>
				</g>
				<g>
					<g>
						<g>
							<rect x="317.4" y="-1052" class="st1" width="25.2" height="1052"/>
							<rect x="340.1" y="-1052" class="st2" width="22.7" height="1052"/>
						</g>
					</g>
				</g>
			</g>
		</g>
	</g>
</pattern>
<pattern  id="SVGID_1_" xlink:href="#New_Pattern_Swatch_6" patternTransform="matrix(0.6124 0.6124 -0.6124 0.6124 -52577.2109 71877.1094)">
</pattern>
<polygon class="st3" points="25.6,87.1 0.6,43.8 25.6,0.5 75.6,0.5 100.6,43.8 75.6,87.1 "/>
<polygon class="st4" points="25.6,87.1 0.6,43.8 25.6,0.5 75.6,0.5 100.6,43.8 75.6,87.1 "/>
<polygon class="st5" points="30.6,78.4 10.6,43.8 30.6,9.2 70.6,9.2 90.6,43.8 70.6,78.4 "/>
<path class="st6" d="M80.8,20.8H20.4c-0.7,0-1.3,0.6-1.3,1.3v7.4v7.1h63v-7.1v-2.8v-4.6C82.1,21.4,81.5,20.8,80.8,20.8z"/>
<rect x="39.1" y="23.9" class="st7" width="23.6" height="9.4"/>
<line class="st8" x1="41" y1="29.6" x2="40.5" y2="29.1"/>
<line class="st8" x1="42.7" y1="28.2" x2="42.3" y2="27.6"/>
<line class="st8" x1="44.6" y1="27" x2="44.2" y2="26.4"/>
<line class="st8" x1="46.6" y1="26.2" x2="46.4" y2="25.5"/>
<line class="st8" x1="48.7" y1="25.7" x2="48.6" y2="25"/>
<line class="st8" x1="50.9" y1="25.5" x2="50.9" y2="24.8"/>
<line class="st8" x1="53" y1="25.7" x2="53.1" y2="25"/>
<line class="st8" x1="55.1" y1="26.2" x2="55.4" y2="25.5"/>
<line class="st8" x1="57.2" y1="27" x2="57.5" y2="26.4"/>
<line class="st8" x1="59" y1="28.2" x2="59.4" y2="27.6"/>
<line class="st8" x1="60.7" y1="29.6" x2="61.2" y2="29.1"/>
<line class="st8" x1="59.7" y1="30.6" x2="59.2" y2="31"/>
<line class="st8" x1="58.1" y1="29.2" x2="57.7" y2="29.7"/>
<line class="st8" x1="56.4" y1="28.2" x2="56.1" y2="28.8"/>
<line class="st8" x1="54.9" y1="27.6" x2="54.6" y2="28.2"/>
<line class="st8" x1="53.4" y1="27.2" x2="53.3" y2="27.8"/>
<line class="st8" x1="52.1" y1="27" x2="52" y2="27.6"/>
<line class="st8" x1="50.9" y1="26.9" x2="50.9" y2="27.6"/>
<line class="st8" x1="49.8" y1="26.9" x2="49.9" y2="27.6"/>
<line class="st8" x1="48.9" y1="27.1" x2="49" y2="27.7"/>
<line class="st8" x1="48" y1="27.2" x2="48.2" y2="27.9"/>
<line class="st8" x1="47.3" y1="27.4" x2="47.5" y2="28.1"/>
<line class="st8" x1="46.1" y1="27.8" x2="46.4" y2="28.5"/>
<line class="st8" x1="45.2" y1="28.3" x2="45.5" y2="28.9"/>
<line class="st8" x1="44.5" y1="28.7" x2="44.8" y2="29.2"/>
<line class="st8" x1="43.9" y1="29" x2="44.3" y2="29.6"/>
<line class="st8" x1="43.5" y1="29.3" x2="43.9" y2="29.8"/>
<line class="st8" x1="42.5" y1="30.1" x2="42.9" y2="30.6"/>
<polyline class="st8" points="42.2,30.4 42.6,30.9 42.6,32.3 42.9,32.3 "/>
<polyline class="st8" points="42,30.6 42.5,31 42.5,32.6 42.3,32.6 "/>
<path class="st9" d="M50.9,26.7c3.5,0,6.7,1.4,9,3.8l0.7-0.7c-2.5-2.5-5.9-4-9.7-4s-7.2,1.5-9.7,4l0.7,0.7
	C44.1,28.1,47.3,26.7,50.9,26.7z"/>
<path class="st10" d="M58.7,31.5"/>
<path class="st10" d="M60.7,29.6c-2.5-2.5-6-4.1-9.8-4.1s-7.3,1.6-9.8,4.1"/>
<path class="st10" d="M58.7,31.5"/>
<path class="st10" d="M59.7,30.6c-2.3-2.3-5.4-3.7-8.8-3.7c-3.4,0-6.6,1.4-8.8,3.7"/>
<line class="st11" x1="46.9" y1="34.3" x2="41" y2="25.8"/>
<rect x="13.9" y="49.6" class="st12" width="73.5" height="13.1"/>
<polygon class="st13" points="87.3,49.6 13.9,49.6 19.1,36.5 82.1,36.5 "/>
<g>
	<path class="st14" d="M27,22.4V35h47.2V22.4H27z M62.7,33.4H39.1V24h23.6C62.7,24,62.7,33.4,62.7,33.4z"/>
	<circle class="st15" cx="32.8" cy="28.7" r="0.4"/>
</g>
<g>
	<g>
		<path class="st16" d="M40.2,56.1c0,2.5-2,4.5-4.5,4.5s-4.5-2-4.5-4.5s2-4.5,4.5-4.5S40.2,53.6,40.2,56.1z"/>
		<circle class="st17" cx="35.7" cy="53.2" r="1.1"/>
	</g>
	<g>
		<path class="st16" d="M70,56.1c0,2.5-2,4.5-4.5,4.5s-4.5-2-4.5-4.5s2-4.5,4.5-4.5S70,53.6,70,56.1z"/>
		<circle class="st17" cx="65.5" cy="53.2" r="1.1"/>
	</g>
</g>
<g>
	<g>
		<path class="st18" d="M75.1,38.7h-13c-1,1.2-1.6,2.6-1.6,4.2c0,1.7,0.7,3.2,1.9,4.4h12.8L75.1,38.7L75.1,38.7z"/>
		<g>
			<line class="st8" x1="60.9" y1="40.7" x2="61.8" y2="40.9"/>
			<line class="st8" x1="60.8" y1="40.9" x2="61.2" y2="41"/>
			<line class="st8" x1="60.7" y1="41.2" x2="61.6" y2="41.4"/>
			<line class="st8" x1="60.7" y1="41.5" x2="61.1" y2="41.6"/>
			<line class="st8" x1="60.6" y1="41.8" x2="61.5" y2="41.9"/>
			<line class="st8" x1="60.6" y1="42.1" x2="61" y2="42.1"/>
			<line class="st8" x1="60.5" y1="42.3" x2="61.4" y2="42.4"/>
			<line class="st8" x1="60.5" y1="42.6" x2="60.9" y2="42.6"/>
			<line class="st8" x1="60.5" y1="42.9" x2="61.4" y2="42.9"/>
			<line class="st8" x1="60.5" y1="43.2" x2="60.9" y2="43.1"/>
			<line class="st8" x1="60.5" y1="43.4" x2="61.4" y2="43.4"/>
			<line class="st8" x1="60.6" y1="43.7" x2="61" y2="43.7"/>
			<line class="st8" x1="60.6" y1="44" x2="61.5" y2="43.9"/>
			<line class="st8" x1="60.7" y1="44.3" x2="61.1" y2="44.2"/>
			<line class="st8" x1="60.7" y1="44.5" x2="61.6" y2="44.4"/>
			<line class="st8" x1="60.8" y1="44.8" x2="61.2" y2="44.7"/>
			<line class="st8" x1="60.9" y1="45.1" x2="61.8" y2="44.9"/>
		</g>
		<path class="st19" d="M55.9,38.2v9.7h19.4v-9.7H55.9z M61.4,45.2c-1.6,0-2.9-1.1-2.9-2.4s1.3-2.4,2.9-2.4s2.9,1.1,2.9,2.4
			C64.3,44.2,63,45.2,61.4,45.2z"/>
		<path class="st18" d="M60.5,42.9c0-0.8,0.2-1.6,0.5-2.3c-1.4,0.2-2.5,1.1-2.5,2.3s1.1,2.2,2.5,2.3C60.7,44.5,60.5,43.7,60.5,42.9z
			"/>
		<path class="st20" d="M69.2,39.6h-7.3c-2.7,0-4.8,1.8-4.8,4s2.2,3.9,4.8,3.9h7.3c2.7,0,4.8-1.8,4.8-4S71.8,39.6,69.2,39.6z
			 M61.4,45.9c-1.6,0-2.9-1.1-2.9-2.4c0-1.3,1.3-2.4,2.9-2.4c1.6,0,2.9,1.1,2.9,2.4C64.3,44.8,63,45.9,61.4,45.9z"/>
		<path class="st21" d="M69.2,38.9h-7.3c-2.7,0-4.8,1.8-4.8,4s2.2,3.9,4.8,3.9h7.3c2.7,0,4.8-1.8,4.8-4S71.8,38.9,69.2,38.9z
			 M61.4,45.2c-1.6,0-2.9-1.1-2.9-2.4c0-1.3,1.3-2.4,2.9-2.4c1.6,0,2.9,1.1,2.9,2.4C64.3,44.2,63,45.2,61.4,45.2z"/>
		<path class="st22" d="M69.2,39.7c2.1,0,3.9,1.4,3.9,3.2c0,1.7-1.7,3.2-3.9,3.2c-2.1,0-3.9-1.4-3.9-3.2
			C65.3,41.1,67,39.7,69.2,39.7z"/>
		<line class="st23" x1="60.5" y1="42.9" x2="58.5" y2="42.9"/>
		<path class="st24" d="M73.1,42.9c0,1.8-1.8,3.2-3.9,3.2c-2.2,0-3.9-1.4-3.9-3.2s1.8-3.2,3.9-3.2C71.3,39.7,73.1,41.1,73.1,42.9z"
			/>
		<path class="st25" d="M73.1,42.5c0,1.8-1.8,3.2-3.9,3.2c-2.2,0-3.9-1.4-3.9-3.2s1.8-3.2,3.9-3.2C71.3,39.3,73.1,40.7,73.1,42.5z"
			/>
		<path class="st26" d="M69.2,39.6c0.6,0,1,0.4,1,0.8s-0.4,0.8-1,0.8c-0.5,0-1-0.4-1-0.8S68.6,39.6,69.2,39.6z"/>
	</g>
</g>
<g>
	<g>
		<path class="st27" d="M39.6,46.7L39.6,46.7v-1H28.2v1v0.2c0.1,0.5,0.5,0.8,1.1,0.8h9.1C39.1,47.7,39.6,47.2,39.6,46.7z"/>
		<path class="st28" d="M39.6,45.7l-0.9-6.6c-0.1-0.5-0.6-0.8-1.1-0.8h-7.3c-0.6,0-1.1,0.4-1.1,0.8l-0.9,6.6c-0.1,0.5,0.5,1,1.1,1
			h9.1C39.1,46.7,39.6,46.2,39.6,45.7z M33.9,44.1c-1.3,0-2.3-0.7-2.3-1.6c0-0.9,1-1.6,2.3-1.6s2.3,0.7,2.3,1.6
			C36.2,43.4,35.1,44.1,33.9,44.1z"/>
	</g>
	<g>
		<path class="st27" d="M39.6,45.8L39.6,45.8v-0.9H28.2v0.9V46c0.1,0.4,0.5,0.7,1.1,0.7h9.1C39.1,46.7,39.6,46.3,39.6,45.8z"/>
		<path class="st28" d="M38.4,45.8h-9.1c-0.7,0-1.2-0.4-1.1-0.9l0.9-5.9c0.1-0.4,0.6-0.7,1.1-0.7h7.3c0.6,0,1.1,0.3,1.1,0.7l0.9,5.9
			C39.6,45.4,39.1,45.8,38.4,45.8z"/>
	</g>
</g>
</svg>
