<?xml version="1.0" encoding="utf-8"?>
<!-- Generator: Adobe Illustrator 19.2.1, SVG Export Plug-In . SVG Version: 6.00 Build 0)  -->
<svg version="1.1" id="Layer_1" xmlns="http://www.w3.org/2000/svg" xmlns:xlink="http://www.w3.org/1999/xlink" x="0px" y="0px"
	 viewBox="0 0 101.2 87.6" style="enable-background:new 0 0 101.2 87.6;" xml:space="preserve">
<style type="text/css">
	.st0{fill:none;}
	.st1{fill:#131313;}
	.st2{fill:#202020;}
	.st3{fill:url(#SVGID_1_);}
	.st4{fill:none;stroke:#000000;stroke-miterlimit:10;}
	.st5{fill:none;stroke:#58595B;stroke-width:3;stroke-miterlimit:10;}
	.st6{fill:#C8C8C8;stroke:#000000;stroke-width:0.55;stroke-miterlimit:10;}
	.st7{fill:#30302F;stroke:#000000;stroke-width:2.0533;stroke-miterlimit:10;}
	.st8{opacity:0.25;fill:#FFFFFF;enable-background:new    ;}
	.st9{fill:#9F9F9E;stroke:#221F1F;stroke-width:0.55;stroke-miterlimit:10;}
	.st10{fill:#8B8A8A;}
	.st11{fill:#484849;stroke:#727273;stroke-width:8.069487e-02;stroke-miterlimit:10;}
	.st12{fill:none;stroke:#737374;stroke-width:5.500000e-02;stroke-miterlimit:10;}
	.st13{fill:#30302F;stroke:#727273;stroke-width:0.22;stroke-miterlimit:10;}
</style>
<pattern  y="87.6" width="362.8" height="1052" patternUnits="userSpaceOnUse" id="New_Pattern_Swatch_5" viewBox="0 -1052 362.8 1052" style="overflow:visible;">
	<g>
		<rect y="-1052" class="st0" width="362.8" height="1052"/>
		<g>
			<g>
				<g>
					<g>
						<rect y="-1052" class="st1" width="25.2" height="1052"/>
						<rect x="22.7" y="-1052" class="st2" width="28.6" height="1052"/>
					</g>
				</g>
				<g>
					<g>
						<g>
							<rect x="45.3" y="-1052" class="st1" width="25.2" height="1052"/>
							<rect x="68" y="-1052" class="st2" width="27.8" height="1052"/>
						</g>
					</g>
				</g>
			</g>
			<g>
				<g>
					<g>
						<rect x="90.7" y="-1052" class="st1" width="25.2" height="1052"/>
						<rect x="113.4" y="-1052" class="st2" width="28.6" height="1052"/>
					</g>
				</g>
				<g>
					<g>
						<g>
							<rect x="136" y="-1052" class="st1" width="25.2" height="1052"/>
							<rect x="158.7" y="-1052" class="st2" width="28.9" height="1052"/>
						</g>
					</g>
				</g>
			</g>
			<g>
				<g>
					<g>
						<rect x="181.4" y="-1052" class="st1" width="25.2" height="1052"/>
						<rect x="204.1" y="-1052" class="st2" width="28.6" height="1052"/>
					</g>
				</g>
				<g>
					<g>
						<g>
							<rect x="226.7" y="-1052" class="st1" width="25.2" height="1052"/>
							<rect x="249.4" y="-1052" class="st2" width="27.8" height="1052"/>
						</g>
					</g>
				</g>
			</g>
			<g>
				<g>
					<g>
						<rect x="272.1" y="-1052" class="st1" width="25.2" height="1052"/>
						<rect x="294.7" y="-1052" class="st2" width="28.6" height="1052"/>
					</g>
				</g>
				<g>
					<g>
						<g>
							<rect x="317.4" y="-1052" class="st1" width="25.2" height="1052"/>
							<rect x="340.1" y="-1052" class="st2" width="22.7" height="1052"/>
						</g>
					</g>
				</g>
			</g>
		</g>
	</g>
</pattern>
<pattern  id="SVGID_1_" xlink:href="#New_Pattern_Swatch_5" patternTransform="matrix(0.6124 0.6124 -0.6124 0.6124 -52577.2109 71877.1094)">
</pattern>
<polygon class="st3" points="25.6,87.1 0.6,43.8 25.6,0.5 75.6,0.5 100.6,43.8 75.6,87.1 "/>
<polygon class="st4" points="25.6,87.1 0.6,43.8 25.6,0.5 75.6,0.5 100.6,43.8 75.6,87.1 "/>
<g>
	<polygon class="st5" points="30.6,78.4 10.6,43.8 30.6,9.2 70.6,9.2 90.6,43.8 70.6,78.4 	"/>
</g>
<g>
	<path class="st6" d="M71.9,71.3H29.3c-3.4,0-6.2-2.8-6.2-6.2V22.5c0-3.4,2.8-6.2,6.2-6.2h42.6c3.4,0,6.2,2.8,6.2,6.2v42.6
		C78.1,68.5,75.3,71.3,71.9,71.3z"/>
	<circle class="st7" cx="50.6" cy="43.8" r="23.1"/>
	<circle class="st8" cx="50.6" cy="43.8" r="23.1"/>
	<circle class="st9" cx="50.7" cy="43.8" r="14.9"/>
	<circle class="st10" cx="50.7" cy="43.8" r="4.8"/>
	<path class="st11" d="M53.2,44.3v-0.9l-0.7-0.1c0-0.1-0.1-0.2-0.1-0.3l0.4-0.6l-0.6-0.6l-0.6,0.4c-0.1-0.1-0.2-0.1-0.3-0.1
		l-0.1-0.7h-0.9L50.2,42c-0.1,0-0.2,0.1-0.3,0.1l-0.6-0.4l-0.6,0.6l0.4,0.6C49,43,49,43.1,49,43.2l-0.7,0.1v0.9l0.7,0.1
		c0,0.1,0.1,0.2,0.1,0.3l-0.4,0.6l0.6,0.6l0.6-0.4c0.1,0.1,0.2,0.1,0.3,0.1l0.1,0.7h0.9l0.1-0.7c0.1,0,0.2-0.1,0.3-0.1l0.6,0.4
		l0.6-0.6l-0.4-0.6c0.1-0.1,0.1-0.2,0.1-0.3L53.2,44.3z"/>
	<g>
		<g>
			<line class="st12" x1="50.7" y1="38.1" x2="50.7" y2="30"/>
			<line class="st12" x1="50.7" y1="57.5" x2="50.7" y2="49.5"/>
		</g>
		<g>
			<line class="st12" x1="45" y1="43.8" x2="37" y2="43.8"/>
			<line class="st12" x1="64.5" y1="43.8" x2="56.4" y2="43.8"/>
		</g>
		<g>
			<line class="st12" x1="46.7" y1="39.8" x2="41" y2="34.1"/>
			<line class="st12" x1="60.4" y1="53.5" x2="54.7" y2="47.8"/>
		</g>
		<g>
			<line class="st12" x1="46.7" y1="47.8" x2="41" y2="53.5"/>
			<line class="st12" x1="60.4" y1="34.1" x2="54.7" y2="39.8"/>
		</g>
	</g>
	<g>
		<g>
			<g>
				<circle class="st13" cx="50.6" cy="25.2" r="2.1"/>
				<circle class="st13" cx="50.6" cy="62.4" r="2.1"/>
			</g>
			<g>
				<circle class="st13" cx="32" cy="43.8" r="2.1"/>
				<circle class="st13" cx="69.2" cy="43.8" r="2.1"/>
			</g>
		</g>
		<g>
			<g>
				
					<ellipse transform="matrix(0.7071 -0.7071 0.7071 0.7071 -10.6919 35.508)" class="st13" cx="37.5" cy="30.7" rx="2.1" ry="2.1"/>
				
					<ellipse transform="matrix(0.7071 -0.7071 0.7071 0.7071 -21.6103 61.7078)" class="st13" cx="63.7" cy="56.9" rx="2.1" ry="2.1"/>
			</g>
			<g>
				
					<ellipse transform="matrix(0.7071 -0.7071 0.7071 0.7071 -29.251 43.1487)" class="st13" cx="37.5" cy="56.9" rx="2.1" ry="2.1"/>
				
					<ellipse transform="matrix(0.7071 -0.7071 0.7071 0.7071 -3.0512 54.0671)" class="st13" cx="63.7" cy="30.7" rx="2.1" ry="2.1"/>
			</g>
		</g>
	</g>
	<g>
		<g>
			<g>
				
					<ellipse transform="matrix(0.9659 -0.2588 0.2588 0.9659 -5.1413 12.7385)" class="st13" cx="45.8" cy="25.9" rx="2.1" ry="2.1"/>
				
					<ellipse transform="matrix(0.9659 -0.2588 0.2588 0.9659 -14.0823 16.4364)" class="st13" cx="55.4" cy="61.7" rx="2.1" ry="2.1"/>
			</g>
			<g>
				
					<ellipse transform="matrix(0.9659 -0.2588 0.2588 0.9659 -11.4608 10.1169)" class="st13" cx="32.7" cy="48.6" rx="2.1" ry="2.1"/>
				<ellipse transform="matrix(0.9659 -0.2588 0.2588 0.9659 -7.7629 19.058)" class="st13" cx="68.5" cy="39" rx="2.1" ry="2.1"/>
			</g>
		</g>
		<g>
			<g>
				<ellipse transform="matrix(0.5 -0.866 0.866 0.5 -12.6404 47.1288)" class="st13" cx="34.5" cy="34.5" rx="2.1" ry="2.1"/>
				<ellipse transform="matrix(0.5 -0.866 0.866 0.5 -12.6273 84.3108)" class="st13" cx="66.7" cy="53.1" rx="2.1" ry="2.1"/>
			</g>
			<g>
				<ellipse transform="matrix(0.5 -0.866 0.866 0.5 -31.2249 65.7264)" class="st13" cx="41.3" cy="59.9" rx="2.1" ry="2.1"/>
				<ellipse transform="matrix(0.5 -0.866 0.866 0.5 5.9571 65.7132)" class="st13" cx="59.9" cy="27.7" rx="2.1" ry="2.1"/>
			</g>
		</g>
	</g>
	<g>
		<g>
			<g>
				<ellipse transform="matrix(0.866 -0.5 0.5 0.866 -8.3197 24.3606)" class="st13" cx="41.3" cy="27.7" rx="2.1" ry="2.1"/>
				<ellipse transform="matrix(0.866 -0.5 0.5 0.866 -21.9216 37.9756)" class="st13" cx="59.9" cy="59.9" rx="2.1" ry="2.1"/>
			</g>
			<g>
				<ellipse transform="matrix(0.866 -0.5 0.5 0.866 -21.9282 24.3672)" class="st13" cx="34.5" cy="53.1" rx="2.1" ry="2.1"/>
				<ellipse transform="matrix(0.866 -0.5 0.5 0.866 -8.3132 37.9691)" class="st13" cx="66.7" cy="34.5" rx="2.1" ry="2.1"/>
			</g>
		</g>
		<g>
			<g>
				
					<ellipse transform="matrix(0.2588 -0.9659 0.9659 0.2588 -13.4031 60.4241)" class="st13" cx="32.7" cy="38.9" rx="2.1" ry="2.1"/>
				
					<ellipse transform="matrix(0.2588 -0.9659 0.9659 0.2588 3.7923 102.2531)" class="st13" cx="68.5" cy="48.7" rx="2.1" ry="2.1"/>
			</g>
			<g>
				
					<ellipse transform="matrix(0.2588 -0.9659 0.9659 0.2588 -25.7199 89.9363)" class="st13" cx="45.7" cy="61.7" rx="2.1" ry="2.1"/>
				
					<ellipse transform="matrix(0.2588 -0.9659 0.9659 0.2588 16.1092 72.7408)" class="st13" cx="55.5" cy="25.9" rx="2.1" ry="2.1"/>
			</g>
		</g>
	</g>
</g>
</svg>
