<?xml version="1.0" encoding="utf-8"?>
<!-- Generator: Adobe Illustrator 19.2.1, SVG Export Plug-In . SVG Version: 6.00 Build 0)  -->
<svg version="1.1" id="Layer_1" xmlns="http://www.w3.org/2000/svg" xmlns:xlink="http://www.w3.org/1999/xlink" x="0px" y="0px"
	 viewBox="0 0 217 73" style="enable-background:new 0 0 217 73;" xml:space="preserve">
<style type="text/css">
	.st0{fill:none;}
	.st1{fill:#191919;}
	.st2{fill:#272626;}
	.st3{fill:url(#SVGID_2_);stroke:#010101;stroke-miterlimit:10;}
</style>
<pattern  y="87.6" width="35" height="70" patternUnits="userSpaceOnUse" id="SVGID_1_" viewBox="0 0 35 70" style="overflow:hidden;">
	<polygon class="st1" points="0,0 27.5,0 27.5,70 0,70 "/>
	<polygon class="st2" points="17.5,0 35,0 35,70 17.5,70 "/>
</pattern>
<pattern  id="SVGID_2_" xlink:href="#SVGID_1_" patternTransform="matrix(0.6716 0.3894 0.3877 -0.6746 -2981.4082 -13258.3271)">
</pattern>
<path class="st3" d="M215.4,32.4l-16-27.8c-1.4-2.5-4.2-4.1-7.1-4.1H94.6h-6.2h-9.4H62.7h-6.1h-9.5H24.7c-2.9,0-5.7,1.6-7.1,4.1
	l-16,27.8c-1.4,2.5-1.4,5.7,0,8.2l16,27.8c1.4,2.5,4.2,4.1,7.1,4.1h22.5h9.4h6.1H79h9.4h6.2h97.7c2.9,0,5.7-1.6,7.1-4.1l16-27.8
	C216.9,38.1,216.9,34.9,215.4,32.4z"/>
</svg>
