<?xml version="1.0" encoding="utf-8"?>
<!-- Generator: Adobe Illustrator 19.1.0, SVG Export Plug-In . SVG Version: 6.00 Build 0)  -->
<svg version="1.1" id="Layer_1" xmlns="http://www.w3.org/2000/svg" xmlns:xlink="http://www.w3.org/1999/xlink" x="0px" y="0px"
	 viewBox="350 -250 800 600" style="enable-background:new 350 -250 800 600;" xml:space="preserve">
<style type="text/css">
	.st0{fill:#FFF4CD;stroke:#000000;stroke-miterlimit:10;}
	.st1{fill:#F9F1D9;stroke:#000000;stroke-miterlimit:10;}
	.st2{fill:#DCD2B0;stroke:#000000;stroke-miterlimit:10;}
	.st3{stroke:#000000;stroke-miterlimit:10;}
	.st4{fill:#ED1F24;}
	.st5{fill:#F1EBE1;stroke:#010101;stroke-width:0.5;stroke-miterlimit:10;}
	.st6{fill:none;stroke:#010101;stroke-width:0.625;}
	.st7{enable-background:new    ;}
	.st8{fill:#010101;}
	.st9{fill:none;stroke:#010101;stroke-width:0.25;}
	.st10{fill:#F9F1DA;}
	.st11{fill:#F4EFE4;stroke:#010101;stroke-width:0.5;stroke-miterlimit:10;}
	.st12{fill:#F9F1DA;stroke:#C6B997;stroke-miterlimit:10;}
	.st13{fill:#F9F1DA;stroke:#010101;stroke-miterlimit:10;}
	.st14{fill:none;stroke:#010101;stroke-width:0.5;stroke-miterlimit:10;}
	.st15{fill:#BFBFBF;stroke:#000000;stroke-miterlimit:10;}
	.st16{fill:#696969;stroke:#000000;stroke-miterlimit:10;}
	.st17{display:none;}
	.st18{display:inline;}
	.st19{fill:#F9F1DA;stroke:#C6B997;stroke-width:2;stroke-miterlimit:10;}
	.st20{fill:#CEC9C0;stroke:#010101;stroke-width:0.5;stroke-miterlimit:10;}
	.st21{fill:#C6B997;stroke:#C6B997;stroke-width:2;stroke-miterlimit:10;}
	.st22{fill:#353434;stroke:#000000;stroke-miterlimit:10;}
</style>
<path class="st0" d="M1038-150H462c-6.6,0-12,5.4-12,12v70.5V0h600v-67.5v-27.1V-138C1050-144.6,1044.6-150,1038-150z M862.5-30
	h-225v-90h225V-30z"/>
<polygon class="st1" points="1100,125 400,125 450,0 1050,0 "/>
<rect x="400" y="125" class="st2" width="700" height="125"/>
<path class="st3" d="M525-135v120h450v-120H525z M862.5-30h-225v-90h225V-30z"/>
<circle class="st4" cx="580" cy="-75" r="3.6"/>
<g>
	<g>
		<circle class="st5" cx="186.5" cy="-13.2" r="89"/>
		<g>
			<line class="st6" x1="191" y1="-102.1" x2="190.6" y2="-93.2"/>
			
				<text transform="matrix(-5.098961e-02 0.9987 -0.9987 -5.098961e-02 188.2016 -90.3351)" class="st8" style="font-family:'Helvetica'; font-size:7.1201px;">340</text>
			<line class="st9" x1="187.6" y1="-102.2" x2="187.5" y2="-97.7"/>
			<line class="st6" x1="184.2" y1="-102.2" x2="184.4" y2="-93.3"/>
			<line class="st9" x1="180.7" y1="-102" x2="181" y2="-97.6"/>
			<line class="st6" x1="177.3" y1="-101.7" x2="178.2" y2="-92.9"/>
			
				<text transform="matrix(0.1033 0.9946 -0.9946 0.1033 176.3093 -89.6785)" class="st8" style="font-family:'Helvetica'; font-size:7.1194px;">360</text>
			<line class="st9" x1="173.9" y1="-101.3" x2="174.5" y2="-96.9"/>
			<line class="st6" x1="170.5" y1="-100.7" x2="172.1" y2="-92"/>
			<line class="st9" x1="167.1" y1="-100.1" x2="168.1" y2="-95.7"/>
			<line class="st6" x1="163.8" y1="-99.2" x2="166.1" y2="-90.6"/>
			
				<text transform="matrix(0.2551 0.9669 -0.9669 0.2551 164.6617 -87.2001)" class="st8" style="font-family:'Helvetica'; font-size:7.1195px;">380</text>
			<line class="st9" x1="160.5" y1="-98.3" x2="161.8" y2="-94"/>
			<line class="st6" x1="157.2" y1="-97.2" x2="160.1" y2="-88.8"/>
			<line class="st9" x1="154" y1="-96" x2="155.6" y2="-91.9"/>
			<line class="st6" x1="150.8" y1="-94.7" x2="154.4" y2="-86.6"/>
			
				<text transform="matrix(0.4009 0.9161 -0.9161 0.4009 153.524 -82.9646)" class="st8" style="font-family:'Helvetica'; font-size:7.1202px;">400</text>
			<line class="st9" x1="147.7" y1="-93.3" x2="149.6" y2="-89.3"/>
			<line class="st6" x1="144.6" y1="-91.7" x2="148.8" y2="-83.9"/>
			<line class="st9" x1="141.6" y1="-90" x2="143.9" y2="-86.2"/>
			<line class="st6" x1="138.7" y1="-88.3" x2="143.5" y2="-80.7"/>
			
				<text transform="matrix(0.5371 0.8435 -0.8435 0.5371 143.1775 -77.0532)" class="st8" style="font-family:'Helvetica'; font-size:7.1197px;">420</text>
			<line class="st9" x1="135.8" y1="-86.4" x2="138.4" y2="-82.7"/>
			<line class="st6" x1="133" y1="-84.3" x2="138.4" y2="-77.2"/>
			<line class="st9" x1="130.3" y1="-82.2" x2="133.1" y2="-78.8"/>
			<line class="st6" x1="127.7" y1="-80" x2="133.6" y2="-73.3"/>
			
				<text transform="matrix(0.6605 0.7509 -0.7509 0.6605 133.8626 -69.6275)" class="st8" style="font-family:'Helvetica'; font-size:7.121px;">440</text>
			<line class="st9" x1="125.2" y1="-77.7" x2="128.2" y2="-74.5"/>
			<line class="st6" x1="122.7" y1="-75.3" x2="129.1" y2="-69.1"/>
			<line class="st9" x1="120.4" y1="-72.8" x2="123.7" y2="-69.8"/>
			<line class="st6" x1="118.1" y1="-70.2" x2="125" y2="-64.5"/>
			
				<text transform="matrix(0.7682 0.6402 -0.6402 0.7682 125.8036 -60.86)" class="st8" style="font-family:'Helvetica'; font-size:7.1195px;">460</text>
			<line class="st9" x1="116" y1="-67.5" x2="119.5" y2="-64.8"/>
			<line class="st6" x1="113.9" y1="-64.7" x2="121.2" y2="-59.6"/>
			<line class="st9" x1="112" y1="-61.9" x2="115.7" y2="-59.4"/>
			<line class="st6" x1="110.2" y1="-59" x2="117.8" y2="-54.4"/>
			
				<text transform="matrix(0.8576 0.5144 -0.5144 0.8576 119.1893 -50.9513)" class="st8" style="font-family:'Helvetica'; font-size:7.1211px;">480</text>
			<line class="st9" x1="108.5" y1="-56" x2="112.4" y2="-53.8"/>
			<line class="st6" x1="106.9" y1="-52.9" x2="114.8" y2="-49"/>
			<line class="st9" x1="105.4" y1="-49.8" x2="109.4" y2="-48"/>
			<line class="st6" x1="104" y1="-46.7" x2="112.3" y2="-43.3"/>
			
				<text transform="matrix(0.9265 0.3762 -0.3762 0.9265 114.1787 -40.1461)" class="st8" style="font-family:'Helvetica'; font-size:7.1195px;">500</text>
			<line class="st9" x1="102.8" y1="-43.5" x2="107" y2="-41.9"/>
			<line class="st6" x1="101.7" y1="-40.2" x2="110.2" y2="-37.5"/>
			<line class="st9" x1="100.7" y1="-36.9" x2="105" y2="-35.7"/>
			<line class="st6" x1="99.9" y1="-33.6" x2="108.5" y2="-31.5"/>
			
				<text transform="matrix(0.9734 0.2292 -0.2292 0.9734 110.8914 -28.6975)" class="st8" style="font-family:'Helvetica'; font-size:7.1202px;">520</text>
			<line class="st9" x1="99.1" y1="-30.2" x2="103.5" y2="-29.4"/>
			<line class="st6" x1="98.5" y1="-26.8" x2="107.3" y2="-25.5"/>
			<line class="st9" x1="98.1" y1="-23.4" x2="102.5" y2="-22.9"/>
			<line class="st6" x1="97.8" y1="-20" x2="106.6" y2="-19.3"/>
			
				<text transform="matrix(0.9971 7.663230e-02 -7.663230e-02 0.9971 109.4006 -16.8777)" class="st8" style="font-family:'Helvetica'; font-size:7.1211px;">540</text>
			<line class="st9" x1="97.6" y1="-16.6" x2="102" y2="-16.4"/>
			<line class="st6" x1="97.5" y1="-13.1" x2="106.4" y2="-13.1"/>
			<line class="st9" x1="97.6" y1="-9.7" x2="102" y2="-9.9"/>
			<line class="st6" x1="97.8" y1="-6.3" x2="106.6" y2="-7"/>
			
				<text transform="matrix(0.997 -7.766832e-02 7.766832e-02 0.997 109.7502 -4.9683)" class="st8" style="font-family:'Helvetica'; font-size:7.1198px;">560</text>
			<line class="st9" x1="98.1" y1="-2.8" x2="102.5" y2="-3.4"/>
			<line class="st6" x1="98.6" y1="0.6" x2="107.4" y2="-0.8"/>
			<line class="st9" x1="99.2" y1="3.9" x2="103.5" y2="3.1"/>
			<line class="st6" x1="99.9" y1="7.3" x2="108.5" y2="5.3"/>
			
				<text transform="matrix(0.9731 -0.2302 0.2302 0.9731 111.9311 6.7417)" class="st8" style="font-family:'Helvetica'; font-size:7.1189px;">580</text>
			<line class="st9" x1="100.7" y1="10.6" x2="105" y2="9.4"/>
			<line class="st6" x1="101.7" y1="13.9" x2="110.2" y2="11.2"/>
			<line class="st9" x1="102.8" y1="17.2" x2="107" y2="15.7"/>
			<line class="st6" x1="104.1" y1="20.4" x2="112.3" y2="17"/>
			
				<text transform="matrix(0.9261 -0.3772 0.3772 0.9261 115.8853 17.9738)" class="st8" style="font-family:'Helvetica'; font-size:7.1201px;">600</text>
			<line class="st9" x1="105.4" y1="23.5" x2="109.5" y2="21.7"/>
			<line class="st6" x1="106.9" y1="26.6" x2="114.9" y2="22.7"/>
			<line class="st9" x1="108.5" y1="29.7" x2="112.4" y2="27.5"/>
			<line class="st6" x1="110.2" y1="32.7" x2="117.8" y2="28.1"/>
			
				<text transform="matrix(0.8571 -0.5152 0.5152 0.8571 121.5202 28.4705)" class="st8" style="font-family:'Helvetica'; font-size:7.1201px;">620</text>
			<line class="st9" x1="112" y1="35.6" x2="115.8" y2="33.1"/>
			<line class="st6" x1="114" y1="38.4" x2="121.2" y2="33.3"/>
			<line class="st9" x1="116" y1="41.2" x2="119.5" y2="38.5"/>
			<line class="st6" x1="118.2" y1="43.9" x2="125" y2="38.2"/>
			
				<text transform="matrix(0.7676 -0.641 0.641 0.7676 128.7009 37.9685)" class="st8" style="font-family:'Helvetica'; font-size:7.1211px;">640</text>
			<line class="st9" x1="120.4" y1="46.5" x2="123.7" y2="43.5"/>
			<line class="st6" x1="122.8" y1="49" x2="129.2" y2="42.8"/>
			<line class="st9" x1="125.2" y1="51.4" x2="128.3" y2="48.2"/>
			<line class="st6" x1="127.8" y1="53.7" x2="133.6" y2="47"/>
			
				<text transform="matrix(0.6598 -0.7515 0.7515 0.6598 137.2629 46.2544)" class="st8" style="font-family:'Helvetica'; font-size:7.1204px;">660</text>
			<line class="st9" x1="130.4" y1="55.9" x2="133.2" y2="52.5"/>
			<line class="st6" x1="133.1" y1="58" x2="138.4" y2="50.9"/>
			<line class="st9" x1="135.9" y1="60" x2="138.4" y2="56.4"/>
			<line class="st6" x1="138.8" y1="61.9" x2="143.5" y2="54.4"/>
			
				<text transform="matrix(0.5362 -0.8441 0.8441 0.5362 146.9949 53.12)" class="st8" style="font-family:'Helvetica'; font-size:7.1201px;">680</text>
			<line class="st9" x1="141.7" y1="63.7" x2="143.9" y2="59.9"/>
			<line class="st6" x1="144.7" y1="65.4" x2="148.9" y2="57.5"/>
			<line class="st9" x1="147.8" y1="67" x2="149.7" y2="62.9"/>
			<line class="st6" x1="150.9" y1="68.4" x2="154.4" y2="60.2"/>
			
				<text transform="matrix(0.4001 -0.9165 0.9165 0.4001 157.6733 58.4081)" class="st8" style="font-family:'Helvetica'; font-size:7.1201px;">700</text>
			<line class="st9" x1="154.1" y1="69.7" x2="155.7" y2="65.6"/>
			<line class="st6" x1="157.3" y1="70.9" x2="160.2" y2="62.5"/>
			<line class="st9" x1="160.6" y1="72" x2="161.9" y2="67.7"/>
			<line class="st6" x1="163.9" y1="72.9" x2="166.1" y2="64.3"/>
			
				<text transform="matrix(0.2543 -0.9671 0.9671 0.2543 169.0282 61.9889)" class="st8" style="font-family:'Helvetica'; font-size:7.1202px;">720</text>
			<line class="st9" x1="167.2" y1="73.7" x2="168.2" y2="69.4"/>
			<line class="st6" x1="170.6" y1="74.4" x2="172.2" y2="65.6"/>
			<line class="st9" x1="174" y1="74.9" x2="174.6" y2="70.5"/>
			<line class="st6" x1="177.4" y1="75.4" x2="178.3" y2="66.5"/>
			
				<text transform="matrix(0.1024 -0.9947 0.9947 0.1024 180.8121 63.7829)" class="st8" style="font-family:'Helvetica'; font-size:7.1199px;">740</text>
			<line class="st9" x1="180.8" y1="75.6" x2="181.1" y2="71.2"/>
			<line class="st6" x1="184.2" y1="75.8" x2="184.5" y2="66.9"/>
			<line class="st9" x1="187.7" y1="75.8" x2="187.6" y2="71.4"/>
			<line class="st6" x1="191.1" y1="75.7" x2="190.7" y2="66.8"/>
			
				<text transform="matrix(-5.195219e-02 -0.9986 0.9986 -5.195219e-02 192.716 63.7399)" class="st8" style="font-family:'Helvetica'; font-size:7.1193px;">760</text>
			<line class="st9" x1="194.5" y1="75.5" x2="194.1" y2="71"/>
			<line class="st6" x1="198" y1="75.1" x2="196.8" y2="66.3"/>
			<line class="st9" x1="201.4" y1="74.6" x2="200.6" y2="70.2"/>
			<line class="st6" x1="204.7" y1="73.9" x2="202.9" y2="65.2"/>
			
				<text transform="matrix(-0.2051 -0.9787 0.9787 -0.2051 204.4799 61.8643)" class="st8" style="font-family:'Helvetica'; font-size:7.1192px;">780</text>
			<line class="st9" x1="208.1" y1="73.2" x2="207" y2="68.8"/>
			<line class="st6" x1="211.4" y1="72.3" x2="208.9" y2="63.7"/>
			<line class="st9" x1="214.7" y1="71.2" x2="213.3" y2="67"/>
			<line class="st6" x1="217.9" y1="70.1" x2="214.8" y2="61.8"/>
			
				<text transform="matrix(-0.3533 -0.9355 0.9355 -0.3533 215.8155 58.1976)" class="st8" style="font-family:'Helvetica'; font-size:7.1202px;">800</text>
			<line class="st9" x1="221.1" y1="68.8" x2="219.4" y2="64.7"/>
			<line class="st6" x1="224.3" y1="67.4" x2="220.5" y2="59.3"/>
			<line class="st9" x1="227.3" y1="65.9" x2="225.3" y2="61.9"/>
			<line class="st6" x1="230.4" y1="64.3" x2="226" y2="56.5"/>
			
				<text transform="matrix(-0.493 -0.87 0.87 -0.493 226.45 52.8336)" class="st8" style="font-family:'Helvetica'; font-size:7.1205px;">820</text>
			<line class="st9" x1="233.3" y1="62.5" x2="231" y2="58.7"/>
			<line class="st6" x1="236.2" y1="60.6" x2="231.2" y2="53.3"/>
			<line class="st9" x1="239" y1="58.7" x2="236.4" y2="55.1"/>
			<line class="st6" x1="241.8" y1="56.6" x2="236.2" y2="49.6"/>
			
				<text transform="matrix(-0.621 -0.7838 0.7838 -0.621 236.1331 45.8993)" class="st8" style="font-family:'Helvetica'; font-size:7.1202px;">840</text>
			<line class="st9" x1="244.4" y1="54.4" x2="241.5" y2="51"/>
			<line class="st6" x1="247" y1="52.1" x2="240.9" y2="45.6"/>
			<line class="st9" x1="249.5" y1="49.7" x2="246.3" y2="46.6"/>
			<line class="st6" x1="251.8" y1="47.2" x2="245.3" y2="41.2"/>
			
				<text transform="matrix(-0.7342 -0.6789 0.6789 -0.7342 244.6389 37.5514)" class="st8" style="font-family:'Helvetica'; font-size:7.1205px;">860</text>
			<line class="st9" x1="254.1" y1="44.7" x2="250.7" y2="41.8"/>
			<line class="st6" x1="256.3" y1="42" x2="249.3" y2="36.5"/>
			<line class="st9" x1="258.4" y1="39.3" x2="254.8" y2="36.7"/>
			<line class="st6" x1="260.4" y1="36.5" x2="253" y2="31.5"/>
			
				<text transform="matrix(-0.83 -0.5578 0.5578 -0.83 251.7494 28.0033)" class="st8" style="font-family:'Helvetica'; font-size:7.1197px;">880</text>
			<line class="st9" x1="262.2" y1="33.6" x2="258.4" y2="31.2"/>
			<line class="st6" x1="264" y1="30.6" x2="256.2" y2="26.2"/>
			<line class="st9" x1="265.6" y1="27.6" x2="261.6" y2="25.6"/>
			<line class="st6" x1="267.1" y1="24.5" x2="259.1" y2="20.7"/>
			
				<text transform="matrix(-0.9059 -0.4235 0.4235 -0.9059 257.3103 17.4723)" class="st8" style="font-family:'Helvetica'; font-size:7.1197px;">900</text>
			<line class="st9" x1="268.5" y1="21.4" x2="264.4" y2="19.6"/>
			<line class="st6" x1="269.8" y1="18.2" x2="261.5" y2="15"/>
			<line class="st9" x1="270.9" y1="14.9" x2="266.7" y2="13.5"/>
			<line class="st6" x1="272" y1="11.6" x2="263.4" y2="9.2"/>
			
				<text transform="matrix(-0.9603 -0.279 0.279 -0.9603 261.1859 6.2062)" class="st8" style="font-family:'Helvetica'; font-size:7.1206px;">920</text>
			<line class="st9" x1="272.9" y1="8.3" x2="268.5" y2="7.3"/>
			<line class="st6" x1="273.6" y1="5" x2="264.9" y2="3.2"/>
			<line class="st9" x1="274.3" y1="1.6" x2="269.9" y2="0.9"/>
			<line class="st6" x1="274.8" y1="-1.8" x2="265.9" y2="-2.9"/>
			
				<text transform="matrix(-0.9918 -0.1279 0.1279 -0.9918 263.2746 -5.5217)" class="st8" style="font-family:'Helvetica'; font-size:7.1198px;">940</text>
			<line class="st9" x1="275.1" y1="-5.2" x2="270.7" y2="-5.6"/>
			<line class="st6" x1="275.4" y1="-8.6" x2="266.5" y2="-9.1"/>
		</g>
	</g>
	<g>
		<path class="st10" d="M11.5-110.7v195h273v-195C284.5-110.7,11.5-110.7,11.5-110.7z M106.7,16c-16,0-29-13-29-29s13-29,29-29
			s29,13,29,29C135.8,3,122.8,16,106.7,16z"/>
		<path class="st11" d="M97.8-13.2c0-10.1,1.7-19.8,4.9-28.8c-14.1,2-25,14.1-25,28.8s10.9,26.8,25,28.8
			C99.5,6.6,97.8-3.1,97.8-13.2z"/>
		<path class="st12" d="M184.4-61.7h-72.8c-26.8,0-48.5,21.7-48.5,48.5s21.7,48.5,48.5,48.5h72.8c26.8,0,48.5-21.7,48.5-48.5
			S211.2-61.7,184.4-61.7z M106.8,15.9c-16.1,0-29.1-13-29.1-29.1s13-29.1,29.1-29.1s29.1,13,29.1,29.1S122.8,15.9,106.8,15.9z"/>
		<circle class="st13" cx="184.4" cy="-13.2" r="38.8"/>
		<line class="st14" x1="97.8" y1="-13.2" x2="77.7" y2="-13.2"/>
		<text transform="matrix(1 0 0 1 86.3505 64.3773)" style="font-family:'HelveticaNeue'; font-size:17.5848px;">WAVELENGTH</text>
	</g>
	<g>
		<path class="st15" d="M223.9-13c0,21.8-17.7,39.5-39.5,39.5S144.9,8.8,144.9-13s17.7-39.5,39.5-39.5S223.9-34.8,223.9-13z"/>
		<circle class="st16" cx="184.4" cy="-38.5" r="9.9"/>
	</g>
</g>
<g class="st17">
	<g class="st18">
		<path class="st5" d="M971.7,23.3l-115.2,1.3c-5.4,8.7-8.1,19-7,30.1c2.9,32.5,44.9,60.1,94.5,61.7c50.1,1.7,77.6-23.7,60.8-56.7
			C997.8,46.2,985.8,33.6,971.7,23.3z"/>
		<g>
			<line class="st6" x1="855" y1="27.3" x2="861.7" y2="30.3"/>
			<g class="st7">
				<path class="st8" d="M865,33.3l0.4-0.7l-1.7-0.7l0.2-0.4l2.6-1.1l0.4,0.2l-0.9,1.8l0.6,0.2l-0.2,0.3l-0.6-0.2l-0.4,0.7L865,33.3
					z M865.5,32.3l0.6-1.3l-1.9,0.8L865.5,32.3z"/>
				<path class="st8" d="M867.6,32.4c-0.1-0.2-0.1-0.3,0-0.5s0.3-0.4,0.6-0.4c0.3-0.1,0.6,0,1,0.2s0.6,0.4,0.8,0.6
					c0.1,0.2,0.2,0.4,0.1,0.6c-0.1,0.2-0.2,0.3-0.4,0.4c-0.1,0-0.2,0-0.4,0c0.1,0.1,0.2,0.2,0.3,0.4c0.1,0.2,0.1,0.4,0,0.6
					c-0.1,0.3-0.3,0.4-0.7,0.5c-0.3,0.1-0.7,0-1.1-0.2s-0.6-0.4-0.8-0.6c-0.2-0.3-0.2-0.5-0.1-0.8c0.1-0.2,0.2-0.3,0.4-0.4
					c0.2-0.1,0.4-0.1,0.6-0.1C867.7,32.6,867.7,32.5,867.6,32.4z M868.5,34.4c0.2,0,0.3-0.1,0.4-0.3c0.1-0.2,0.1-0.4,0-0.5
					c-0.1-0.2-0.3-0.3-0.5-0.4c-0.2-0.1-0.4-0.1-0.6-0.1c-0.2,0-0.3,0.1-0.4,0.3c-0.1,0.1-0.1,0.3,0,0.5s0.3,0.3,0.5,0.4
					C868.1,34.4,868.3,34.4,868.5,34.4z M869.1,32.9c0.2,0,0.3-0.1,0.3-0.2c0.1-0.1,0-0.2,0-0.4c-0.1-0.1-0.2-0.3-0.5-0.4
					c-0.2-0.1-0.4-0.1-0.6-0.1c-0.1,0-0.2,0.1-0.3,0.2s-0.1,0.3,0,0.4s0.2,0.2,0.4,0.3C868.8,32.9,869,33,869.1,32.9z"/>
				<path class="st8" d="M873,33.9c0.1,0.3,0,0.7-0.2,1.1c-0.2,0.4-0.4,0.7-0.7,0.9c-0.4,0.3-0.9,0.3-1.4,0.1
					c-0.5-0.2-0.7-0.5-0.8-0.9c-0.1-0.3,0-0.7,0.2-1.1c0.2-0.3,0.4-0.6,0.6-0.8c0.4-0.3,0.9-0.4,1.5-0.2
					C872.7,33.2,873,33.5,873,33.9z M871.6,35.6c0.2-0.1,0.5-0.4,0.7-0.8c0.2-0.3,0.2-0.6,0.2-0.9s-0.2-0.5-0.5-0.6
					c-0.3-0.1-0.5-0.1-0.8,0c-0.2,0.1-0.4,0.4-0.6,0.8c-0.1,0.3-0.2,0.5-0.2,0.8s0.1,0.6,0.5,0.7C871.2,35.7,871.4,35.7,871.6,35.6z
					"/>
			</g>
			<line class="st9" x1="854" y1="29.3" x2="857.4" y2="30.7"/>
			<line class="st6" x1="853.1" y1="31.3" x2="860" y2="33.9"/>
			<line class="st9" x1="852.3" y1="33.4" x2="855.8" y2="34.6"/>
			<line class="st6" x1="851.6" y1="35.5" x2="858.7" y2="37.6"/>
			<g class="st7">
				<path class="st8" d="M861.6,39.2c0,0.2,0.1,0.4,0.3,0.6c0.1,0.1,0.2,0.1,0.4,0.2c0.3,0.1,0.5,0.1,0.7,0c0.2-0.1,0.3-0.2,0.4-0.4
					c0.1-0.2,0-0.4-0.1-0.6s-0.3-0.3-0.6-0.4c-0.2-0.1-0.3-0.1-0.5-0.1c-0.1,0-0.3,0.1-0.4,0.1l-0.4-0.2l0.8-1.6l2.1,0.6l-0.1,0.4
					l-1.7-0.5l-0.4,0.8c0.1,0,0.2,0,0.3,0c0.2,0,0.3,0,0.5,0.1c0.4,0.1,0.7,0.3,0.9,0.6c0.2,0.3,0.3,0.5,0.2,0.8s-0.3,0.5-0.6,0.7
					c-0.3,0.2-0.7,0.1-1.2,0c-0.3-0.1-0.6-0.3-0.8-0.5c-0.2-0.2-0.3-0.5-0.2-0.8L861.6,39.2z"/>
				<path class="st8" d="M867.3,38.9c0.1,0.3,0.1,0.7,0,1.1s-0.3,0.7-0.5,1c-0.3,0.3-0.8,0.4-1.3,0.2c-0.5-0.1-0.8-0.4-0.9-0.8
					c-0.1-0.3-0.1-0.7,0-1.2c0.1-0.3,0.2-0.6,0.4-0.8c0.4-0.4,0.8-0.5,1.4-0.3C866.8,38.2,867.2,38.5,867.3,38.9z M866.2,40.8
					c0.2-0.1,0.4-0.4,0.5-0.9c0.1-0.3,0.1-0.7,0.1-0.9c-0.1-0.3-0.2-0.4-0.6-0.5c-0.3-0.1-0.5,0-0.7,0.1c-0.2,0.2-0.4,0.5-0.5,0.9
					c-0.1,0.3-0.1,0.6-0.1,0.8c0.1,0.3,0.2,0.5,0.6,0.6C865.8,41,866,40.9,866.2,40.8z"/>
				<path class="st8" d="M870.5,39.9c0.1,0.3,0.1,0.7,0,1.1s-0.3,0.7-0.5,1c-0.3,0.3-0.8,0.4-1.3,0.2c-0.5-0.1-0.8-0.4-1-0.8
					c-0.1-0.3-0.1-0.7,0-1.2c0.1-0.3,0.2-0.6,0.4-0.8c0.4-0.4,0.8-0.5,1.4-0.3C870,39.2,870.4,39.5,870.5,39.9z M869.5,41.8
					c0.2-0.1,0.4-0.4,0.5-0.9c0.1-0.3,0.1-0.7,0.1-0.9c-0.1-0.3-0.2-0.4-0.6-0.5c-0.3-0.1-0.5,0-0.7,0.1c-0.2,0.2-0.4,0.5-0.5,0.9
					c-0.1,0.3-0.1,0.6-0.1,0.8c0.1,0.3,0.2,0.5,0.6,0.6C869,41.9,869.2,41.9,869.5,41.8z"/>
			</g>
			<line class="st9" x1="851" y1="37.6" x2="854.6" y2="38.6"/>
			<line class="st6" x1="850.5" y1="39.8" x2="857.7" y2="41.5"/>
			<line class="st9" x1="850" y1="42" x2="853.7" y2="42.7"/>
			<line class="st6" x1="849.7" y1="44.2" x2="857.1" y2="45.5"/>
			<g class="st7">
				<path class="st8" d="M860.3,46.6c0,0.2,0.1,0.4,0.4,0.6c0.1,0.1,0.3,0.1,0.4,0.1c0.3,0.1,0.6,0,0.7-0.1c0.2-0.1,0.3-0.3,0.3-0.5
					s-0.1-0.4-0.2-0.6c-0.2-0.2-0.4-0.3-0.6-0.3c-0.2,0-0.3,0-0.5,0c-0.1,0-0.3,0.1-0.4,0.2l-0.5-0.1l0.5-1.7l2.2,0.4V45l-1.8-0.3
					l-0.3,0.9c0.1,0,0.2-0.1,0.3-0.1c0.2,0,0.3,0,0.5,0c0.4,0.1,0.7,0.2,0.9,0.5c0.2,0.2,0.4,0.5,0.3,0.8c0,0.3-0.2,0.6-0.4,0.7
					c-0.3,0.2-0.7,0.2-1.2,0.1c-0.3-0.1-0.6-0.2-0.9-0.4c-0.2-0.2-0.4-0.4-0.4-0.8L860.3,46.6z"/>
				<path class="st8" d="M863.3,47.3c0.1-0.2,0.4-0.3,0.8-0.4l0.6-0.2c0.3-0.1,0.4-0.1,0.6-0.2s0.3-0.2,0.3-0.4c0-0.2,0-0.3-0.2-0.5
					c-0.1-0.1-0.3-0.2-0.6-0.3c-0.4-0.1-0.6,0-0.8,0.2c-0.1,0.1-0.1,0.2-0.2,0.4l-0.5-0.1c0-0.3,0.1-0.5,0.3-0.7
					c0.3-0.3,0.7-0.4,1.2-0.3s0.8,0.2,1,0.5c0.2,0.2,0.3,0.5,0.3,0.7c0,0.3-0.2,0.5-0.4,0.6c-0.1,0.1-0.4,0.2-0.8,0.3l-0.4,0.1
					c-0.2,0-0.4,0.1-0.5,0.2c-0.2,0.1-0.3,0.2-0.4,0.4l2.3,0.4v0.4l-2.9-0.5C863,47.7,863.1,47.4,863.3,47.3z"/>
				<path class="st8" d="M869.2,46.3c0.2,0.3,0.2,0.7,0.2,1.1s-0.1,0.8-0.3,1c-0.3,0.4-0.7,0.5-1.3,0.4c-0.5-0.1-0.9-0.3-1.1-0.7
					c-0.2-0.3-0.3-0.7-0.2-1.2c0-0.4,0.1-0.7,0.3-0.9c0.3-0.4,0.7-0.6,1.3-0.5C868.6,45.6,869,45.9,869.2,46.3z M868.5,48.3
					c0.2-0.2,0.3-0.5,0.3-1c0-0.4,0-0.7-0.1-0.9c-0.1-0.3-0.3-0.4-0.7-0.5c-0.3-0.1-0.5,0-0.7,0.2c-0.2,0.2-0.3,0.5-0.3,1
					c0,0.3,0,0.6,0.1,0.8c0.1,0.3,0.3,0.5,0.7,0.6C868.1,48.5,868.3,48.5,868.5,48.3z"/>
			</g>
			<line class="st9" x1="849.4" y1="46.4" x2="853.2" y2="46.9"/>
			<line class="st6" x1="849.3" y1="48.6" x2="856.9" y2="49.5"/>
			<line class="st9" x1="849.3" y1="50.9" x2="853.1" y2="51.2"/>
			<line class="st6" x1="849.4" y1="53.2" x2="857" y2="53.6"/>
			<g class="st7">
				<path class="st8" d="M860.4,54.4c0.1,0.2,0.2,0.4,0.5,0.5c0.1,0.1,0.3,0.1,0.4,0.1c0.3,0,0.6,0,0.7-0.2c0.1-0.1,0.2-0.3,0.2-0.5
					s-0.1-0.4-0.3-0.5c-0.2-0.1-0.4-0.2-0.7-0.2c-0.2,0-0.3,0-0.5,0.1c-0.1,0-0.2,0.1-0.3,0.2h-0.5l0.2-1.8l2.2,0.1v0.4l-1.8-0.1
					l-0.1,0.9c0.1-0.1,0.2-0.1,0.3-0.1c0.2,0,0.3-0.1,0.5,0c0.4,0,0.7,0.1,1,0.3c0.3,0.2,0.5,0.5,0.5,0.8s-0.1,0.6-0.3,0.8
					c-0.2,0.2-0.6,0.3-1.2,0.3c-0.4,0-0.7-0.1-1-0.3c-0.3-0.2-0.5-0.4-0.5-0.7L860.4,54.4z"/>
				<path class="st8" d="M865.1,55.5l-0.1-0.8l-1.9-0.1v-0.4l1.7-2h0.5l0.2,2.1h0.6v0.4h-0.6l0.1,0.8H865.1z M865,54.3l-0.2-1.5
					l-1.2,1.4L865,54.3z"/>
				<path class="st8" d="M869.1,52.9c0.2,0.3,0.4,0.7,0.4,1.1c0.1,0.4,0,0.8-0.1,1.1c-0.2,0.4-0.6,0.6-1.2,0.6
					c-0.5,0-0.9-0.2-1.2-0.6c-0.2-0.3-0.4-0.7-0.4-1.2c0-0.4,0-0.7,0.1-1c0.2-0.5,0.6-0.7,1.2-0.7C868.4,52.3,868.8,52.5,869.1,52.9
					z M868.8,55.1c0.1-0.2,0.2-0.5,0.1-1c0-0.4-0.1-0.7-0.3-0.9c-0.1-0.2-0.4-0.4-0.7-0.4c-0.3,0-0.5,0.1-0.7,0.3
					c-0.1,0.2-0.2,0.6-0.1,1c0,0.3,0.1,0.6,0.2,0.8c0.2,0.3,0.4,0.5,0.8,0.5C868.4,55.3,868.6,55.3,868.8,55.1z"/>
			</g>
			<line class="st9" x1="849.6" y1="55.4" x2="853.4" y2="55.5"/>
			<line class="st6" x1="849.9" y1="57.7" x2="857.5" y2="57.7"/>
			<line class="st9" x1="850.3" y1="60" x2="854.1" y2="59.8"/>
			<line class="st6" x1="850.8" y1="62.3" x2="858.5" y2="61.7"/>
			<g class="st7">
				<path class="st8" d="M862,62.2c0.1,0.2,0.3,0.4,0.6,0.5c0.1,0,0.3,0.1,0.5,0c0.3,0,0.5-0.1,0.6-0.3c0.1-0.2,0.1-0.3,0.1-0.5
					c-0.1-0.2-0.2-0.4-0.4-0.5c-0.2-0.1-0.5-0.2-0.7-0.1c-0.2,0-0.3,0.1-0.5,0.1c-0.1,0.1-0.2,0.1-0.3,0.3h-0.5l-0.2-1.8l2.2-0.1
					l0.1,0.4l-1.8,0.1l0.1,0.9c0.1-0.1,0.2-0.1,0.2-0.1c0.1-0.1,0.3-0.1,0.5-0.1c0.4,0,0.8,0,1.1,0.2c0.3,0.2,0.5,0.4,0.6,0.7
					c0.1,0.3,0.1,0.6-0.1,0.8c-0.2,0.3-0.5,0.4-1.1,0.4c-0.3,0-0.7,0-1-0.2c-0.3-0.1-0.5-0.4-0.7-0.7L862,62.2z"/>
				<path class="st8" d="M866.7,59.6c0.2,0.2,0.4,0.4,0.5,0.6h-0.5c-0.1-0.1-0.2-0.2-0.2-0.3c-0.2-0.1-0.4-0.2-0.6-0.2
					c-0.3,0-0.5,0.1-0.6,0.4c-0.1,0.2-0.1,0.5,0,0.9c0.1-0.1,0.2-0.3,0.4-0.3c0.2-0.1,0.3-0.1,0.5-0.1c0.4,0,0.7,0,1,0.2
					c0.3,0.2,0.5,0.4,0.6,0.8c0.1,0.3,0,0.6-0.1,0.8c-0.2,0.2-0.5,0.4-1,0.4c-0.4,0-0.8-0.1-1.1-0.3c-0.4-0.2-0.6-0.6-0.8-1.1
					c-0.1-0.4-0.2-0.8-0.1-1.1c0.1-0.6,0.5-0.9,1.1-0.9C866.1,59.4,866.5,59.5,866.7,59.6z M867.1,62.2c0.1-0.2,0.1-0.3,0.1-0.5
					c-0.1-0.2-0.2-0.3-0.3-0.5c-0.2-0.1-0.4-0.2-0.8-0.2c-0.2,0-0.4,0.1-0.6,0.2c-0.1,0.1-0.2,0.3-0.1,0.6c0.1,0.2,0.2,0.4,0.4,0.5
					c0.2,0.1,0.4,0.2,0.7,0.2C866.8,62.4,867,62.3,867.1,62.2z"/>
				<path class="st8" d="M870.3,59.7c0.3,0.3,0.5,0.6,0.6,1.1c0.1,0.4,0.2,0.8,0.1,1.1c-0.1,0.4-0.5,0.7-1,0.7s-1-0.1-1.3-0.4
					c-0.3-0.3-0.5-0.6-0.7-1.1c-0.1-0.4-0.2-0.7-0.1-1c0.1-0.5,0.4-0.8,1-0.8C869.4,59.2,869.9,59.3,870.3,59.7z M870.4,61.9
					c0.1-0.2,0.1-0.6-0.1-1.1c-0.1-0.4-0.3-0.7-0.5-0.9c-0.2-0.2-0.5-0.3-0.8-0.3c-0.3,0-0.5,0.2-0.6,0.4c-0.1,0.2,0,0.6,0.1,1
					c0.1,0.3,0.2,0.6,0.4,0.8c0.2,0.3,0.5,0.4,0.9,0.4C870.1,62.2,870.3,62.1,870.4,61.9z"/>
			</g>
			<line class="st9" x1="851.5" y1="64.5" x2="855.3" y2="64.2"/>
			<line class="st6" x1="852.3" y1="66.8" x2="859.9" y2="65.8"/>
			<line class="st9" x1="853.2" y1="69" x2="856.9" y2="68.4"/>
			<line class="st6" x1="854.2" y1="71.2" x2="861.7" y2="69.8"/>
			<g class="st7">
				<path class="st8" d="M865.2,69.8c0.2,0.2,0.4,0.4,0.7,0.4c0.1,0,0.3,0,0.5,0c0.3-0.1,0.5-0.2,0.6-0.4c0.1-0.2,0.1-0.4,0-0.5
					c-0.1-0.2-0.3-0.4-0.5-0.5c-0.2-0.1-0.5-0.1-0.7-0.1c-0.2,0-0.3,0.1-0.4,0.2c-0.1,0.1-0.2,0.2-0.2,0.3l-0.5,0.1l-0.6-1.8
					l2.1-0.4l0.2,0.4l-1.8,0.3l0.3,0.9c0.1-0.1,0.1-0.1,0.2-0.2c0.1-0.1,0.3-0.1,0.5-0.2c0.4-0.1,0.8,0,1.1,0.1
					c0.4,0.1,0.6,0.4,0.8,0.6c0.2,0.3,0.2,0.6,0.1,0.9c-0.1,0.3-0.5,0.5-1,0.6c-0.3,0.1-0.7,0-1-0.1c-0.3-0.1-0.6-0.3-0.8-0.6
					L865.2,69.8z"/>
				<path class="st8" d="M867.8,68.2c-0.2-0.1-0.4-0.2-0.5-0.4c-0.1-0.2-0.1-0.5,0-0.7s0.4-0.4,0.8-0.4c0.4-0.1,0.7-0.1,1.1,0.1
					c0.3,0.1,0.5,0.3,0.6,0.5s0.1,0.4,0.1,0.5s-0.1,0.2-0.2,0.3c0.2,0,0.4,0.1,0.5,0.1c0.3,0.1,0.5,0.3,0.6,0.5
					c0.1,0.3,0.2,0.5,0,0.8c-0.1,0.2-0.4,0.4-0.9,0.5c-0.4,0.1-0.8,0.1-1.2-0.1c-0.4-0.1-0.6-0.3-0.8-0.7c-0.1-0.2-0.1-0.4-0.1-0.5
					c0-0.2,0.2-0.3,0.4-0.4C868,68.3,867.9,68.2,867.8,68.2z M869.3,67.8c0.1-0.1,0.1-0.3,0-0.4s-0.2-0.2-0.4-0.3
					c-0.2-0.1-0.4-0.1-0.6,0c-0.2,0-0.4,0.1-0.5,0.3c-0.1,0.1-0.1,0.2,0,0.4c0.1,0.2,0.2,0.3,0.4,0.3c0.2,0.1,0.4,0.1,0.6,0
					C869.1,68,869.2,67.9,869.3,67.8z M870.2,69.3c0.1-0.1,0.1-0.3,0-0.5s-0.3-0.3-0.5-0.4c-0.2-0.1-0.5-0.1-0.7,0
					c-0.2,0-0.4,0.1-0.5,0.3c-0.1,0.1-0.1,0.3,0,0.5s0.2,0.3,0.4,0.4c0.2,0.1,0.5,0.1,0.8,0.1C869.9,69.5,870.1,69.5,870.2,69.3z"/>
				<path class="st8" d="M872.8,66.3c0.3,0.2,0.6,0.6,0.9,1c0.2,0.4,0.3,0.8,0.3,1.1c0,0.5-0.3,0.7-0.9,0.8c-0.5,0.1-1,0-1.4-0.3
					c-0.4-0.2-0.7-0.6-0.9-1.1c-0.2-0.4-0.3-0.7-0.3-1c0-0.5,0.2-0.9,0.8-1C871.9,65.9,872.4,66,872.8,66.3z M873.4,68.6
					c0.1-0.2,0-0.6-0.3-1.1c-0.2-0.4-0.4-0.7-0.7-0.9c-0.2-0.2-0.5-0.3-0.9-0.2c-0.3,0.1-0.5,0.2-0.5,0.5c0,0.2,0.1,0.6,0.3,1
					c0.2,0.3,0.4,0.6,0.6,0.8c0.3,0.3,0.6,0.4,1,0.3C873.2,68.9,873.4,68.8,873.4,68.6z"/>
			</g>
			<line class="st9" x1="855.3" y1="73.4" x2="859" y2="72.6"/>
			<line class="st6" x1="856.6" y1="75.6" x2="863.9" y2="73.8"/>
			<line class="st9" x1="857.9" y1="77.7" x2="861.6" y2="76.7"/>
			<line class="st6" x1="859.4" y1="79.9" x2="866.5" y2="77.6"/>
			<g class="st7">
				<path class="st8" d="M870.4,74.6c0.3,0.1,0.5,0.3,0.7,0.5l-0.5,0.2c-0.1-0.1-0.2-0.2-0.4-0.2c-0.2-0.1-0.4-0.1-0.7,0
					c-0.3,0.1-0.4,0.3-0.4,0.5s0.1,0.6,0.4,0.9c0-0.2,0.1-0.3,0.2-0.4c0.1-0.1,0.3-0.2,0.5-0.3c0.3-0.1,0.7-0.1,1,0
					c0.4,0.1,0.7,0.3,0.9,0.6c0.2,0.3,0.3,0.6,0.2,0.8c-0.1,0.3-0.3,0.5-0.7,0.6s-0.8,0.1-1.2,0s-0.8-0.5-1.2-1
					c-0.3-0.4-0.5-0.7-0.6-1c-0.2-0.6,0.1-1,0.7-1.2C869.7,74.5,870.1,74.5,870.4,74.6z M871.8,77c0-0.2,0-0.4-0.2-0.5
					c-0.1-0.2-0.3-0.3-0.5-0.4c-0.2-0.1-0.5-0.1-0.8,0c-0.2,0.1-0.4,0.2-0.4,0.3c-0.1,0.2,0,0.4,0.1,0.6s0.3,0.3,0.6,0.4
					c0.2,0.1,0.5,0.1,0.8,0C871.6,77.4,871.7,77.2,871.8,77z"/>
				<path class="st8" d="M873.7,73.8c0.4,0.2,0.7,0.5,1.1,0.9c0.3,0.4,0.5,0.8,0.6,1.1c0.1,0.5-0.1,0.8-0.7,0.9
					c-0.5,0.2-0.9,0.1-1.4-0.1c-0.4-0.2-0.8-0.5-1.1-1c-0.3-0.3-0.4-0.7-0.5-0.9c-0.1-0.5,0.1-0.9,0.6-1.1
					C872.7,73.5,873.2,73.6,873.7,73.8z M874.8,76c0-0.2-0.2-0.6-0.5-1.1c-0.3-0.3-0.5-0.6-0.8-0.8c-0.3-0.2-0.6-0.2-0.9-0.1
					s-0.4,0.3-0.4,0.5c0,0.3,0.2,0.6,0.5,1c0.2,0.3,0.5,0.5,0.7,0.7c0.4,0.2,0.7,0.3,1,0.2C874.6,76.4,874.8,76.2,874.8,76z"/>
				<path class="st8" d="M876.8,72.8c0.4,0.2,0.7,0.5,1.1,0.9c0.3,0.4,0.5,0.8,0.6,1.1c0.1,0.5-0.1,0.8-0.7,0.9
					c-0.5,0.2-0.9,0.1-1.4-0.1c-0.4-0.2-0.8-0.5-1.1-1c-0.3-0.3-0.4-0.7-0.5-0.9c-0.1-0.5,0.1-0.9,0.6-1.1
					C875.8,72.5,876.3,72.6,876.8,72.8z M877.9,75c0-0.2-0.2-0.6-0.5-1.1c-0.3-0.3-0.5-0.6-0.8-0.8c-0.3-0.2-0.6-0.2-0.9-0.1
					s-0.4,0.3-0.4,0.5c0,0.3,0.2,0.6,0.5,1c0.2,0.3,0.5,0.5,0.7,0.7c0.4,0.2,0.7,0.3,1,0.2C877.7,75.4,877.9,75.2,877.9,75z"/>
			</g>
			<line class="st9" x1="861.1" y1="81.9" x2="864.6" y2="80.7"/>
			<line class="st6" x1="862.8" y1="84" x2="869.6" y2="81.3"/>
			<line class="st9" x1="864.6" y1="86" x2="868" y2="84.6"/>
			<line class="st6" x1="866.6" y1="88" x2="873.1" y2="84.9"/>
			<g class="st7">
				<path class="st8" d="M876.2,81.4c0.3,0.1,0.6,0.2,0.8,0.4l-0.4,0.2c-0.1-0.1-0.3-0.2-0.4-0.2c-0.2-0.1-0.5,0-0.7,0.1
					c-0.2,0.1-0.4,0.3-0.3,0.6c0,0.3,0.2,0.6,0.6,0.9c0-0.2,0-0.3,0.1-0.5c0.1-0.1,0.2-0.2,0.4-0.3c0.3-0.1,0.6-0.2,1-0.1
					c0.4,0,0.7,0.2,1,0.5c0.3,0.3,0.4,0.5,0.4,0.8s-0.2,0.5-0.6,0.7c-0.3,0.2-0.7,0.2-1.2,0.1s-0.9-0.4-1.4-0.8
					c-0.4-0.4-0.6-0.7-0.8-1c-0.3-0.6-0.2-1,0.4-1.2C875.5,81.4,875.8,81.4,876.2,81.4z M878.1,83.8c0-0.2-0.1-0.4-0.3-0.5
					c-0.2-0.1-0.4-0.3-0.6-0.3c-0.2-0.1-0.5-0.1-0.8,0.1c-0.2,0.1-0.3,0.2-0.3,0.4s0.1,0.4,0.3,0.6c0.2,0.2,0.4,0.3,0.7,0.4
					c0.3,0.1,0.5,0,0.7-0.1C878,84.1,878.1,83.9,878.1,83.8z"/>
				<path class="st8" d="M879.1,83c-0.1-0.2,0-0.5,0.1-0.8l0.2-0.4c0.1-0.2,0.2-0.4,0.2-0.5c0-0.2,0-0.3-0.2-0.5
					c-0.2-0.2-0.4-0.3-0.6-0.3s-0.4,0-0.6,0.1c-0.3,0.1-0.4,0.3-0.3,0.6c0,0.1,0.2,0.3,0.3,0.5l-0.5,0.2c-0.3-0.2-0.4-0.5-0.5-0.7
					c-0.1-0.4,0.1-0.7,0.6-0.9c0.4-0.2,0.8-0.3,1.2-0.2s0.7,0.2,0.9,0.4c0.2,0.2,0.3,0.5,0.3,0.7c0,0.1-0.1,0.4-0.3,0.6l-0.2,0.3
					c-0.1,0.1-0.1,0.3-0.2,0.4c0,0.2,0,0.4,0.1,0.5l1.9-0.9l0.4,0.3l-2.4,1.2C879.3,83.5,879.2,83.2,879.1,83z"/>
				<path class="st8" d="M882.1,78.9c0.4,0.2,0.8,0.4,1.3,0.8c0.4,0.4,0.7,0.7,0.8,1.1c0.2,0.5,0,0.8-0.4,1s-0.9,0.2-1.4,0
					c-0.4-0.2-0.9-0.4-1.3-0.9c-0.3-0.3-0.6-0.6-0.7-0.9c-0.3-0.5-0.1-0.9,0.4-1.2C881,78.7,881.5,78.7,882.1,78.9z M883.6,81
					c0-0.2-0.3-0.6-0.8-1c-0.3-0.3-0.7-0.6-1-0.7c-0.3-0.2-0.6-0.2-0.9,0c-0.3,0.1-0.3,0.3-0.3,0.6c0.1,0.3,0.3,0.6,0.7,1
					c0.3,0.3,0.6,0.5,0.9,0.6c0.4,0.2,0.7,0.2,1,0.1C883.6,81.4,883.7,81.2,883.6,81z"/>
			</g>
			<line class="st9" x1="868.7" y1="89.9" x2="871.9" y2="88.3"/>
			<line class="st6" x1="870.9" y1="91.8" x2="877" y2="88.3"/>
			<line class="st9" x1="873.2" y1="93.6" x2="876.2" y2="91.8"/>
			<line class="st6" x1="875.6" y1="95.4" x2="881.3" y2="91.6"/>
			<g class="st7">
				<path class="st8" d="M883.4,87.7c0.3,0.1,0.6,0.2,0.8,0.3l-0.4,0.3c-0.2-0.1-0.3-0.1-0.4-0.2c-0.2,0-0.5,0-0.6,0.1
					c-0.2,0.1-0.3,0.4-0.2,0.6c0.1,0.3,0.4,0.5,0.8,0.9c-0.1-0.2-0.1-0.3,0-0.5c0.1-0.1,0.2-0.3,0.3-0.4c0.3-0.2,0.6-0.3,1-0.3
					s0.8,0.1,1.1,0.4c0.3,0.2,0.5,0.5,0.6,0.8s-0.1,0.6-0.4,0.8c-0.3,0.2-0.7,0.3-1.1,0.2c-0.5,0-1-0.3-1.6-0.7
					c-0.4-0.3-0.8-0.6-1-0.9c-0.4-0.5-0.4-1,0.1-1.3C882.8,87.8,883.1,87.7,883.4,87.7z M885.9,89.9c-0.1-0.2-0.2-0.3-0.4-0.5
					c-0.2-0.1-0.4-0.2-0.7-0.3c-0.3-0.1-0.5,0-0.7,0.2c-0.2,0.1-0.2,0.3-0.2,0.4c0,0.2,0.1,0.4,0.4,0.5c0.2,0.2,0.5,0.3,0.7,0.3
					c0.3,0,0.5,0,0.7-0.2C885.9,90.2,886,90,885.9,89.9z"/>
				<path class="st8" d="M888.6,88.7l-0.9-0.6l-1.3,0.9l-0.4-0.3l-0.9-2.6l0.3-0.2l2.3,1.6l0.4-0.3l0.4,0.3l-0.4,0.3l0.9,0.6
					L888.6,88.7z M887.4,87.8l-1.6-1.1l0.7,1.8L887.4,87.8z"/>
				<path class="st8" d="M888.6,84.5c0.4,0.1,0.9,0.3,1.4,0.7c0.5,0.3,0.8,0.7,1,1c0.3,0.4,0.2,0.8-0.2,1.1s-0.8,0.3-1.4,0.2
					c-0.5-0.1-1-0.4-1.5-0.7c-0.4-0.3-0.7-0.6-0.9-0.8c-0.4-0.5-0.3-0.9,0.1-1.2C887.6,84.4,888.1,84.4,888.6,84.5z M890.6,86.5
					c-0.1-0.2-0.4-0.5-1-0.9c-0.4-0.3-0.8-0.5-1.1-0.6c-0.3-0.1-0.6-0.1-0.9,0.1c-0.2,0.2-0.3,0.4-0.1,0.6c0.1,0.2,0.5,0.5,0.9,0.9
					c0.4,0.3,0.7,0.4,1,0.6c0.4,0.2,0.8,0.2,1,0C890.7,86.9,890.7,86.7,890.6,86.5z"/>
			</g>
			<line class="st9" x1="878.1" y1="97.1" x2="880.9" y2="95.1"/>
			<line class="st6" x1="880.8" y1="98.7" x2="885.9" y2="94.6"/>
			<line class="st9" x1="883.5" y1="100.3" x2="885.9" y2="98.2"/>
			<line class="st6" x1="886.3" y1="101.9" x2="890.9" y2="97.4"/>
			<g class="st7">
				<path class="st8" d="M892.1,93.3c0.3,0,0.6,0.1,0.9,0.2l-0.3,0.3c-0.2-0.1-0.3-0.1-0.5-0.1c-0.2,0-0.4,0.1-0.6,0.2
					c-0.2,0.2-0.2,0.4,0,0.6c0.2,0.2,0.5,0.5,1,0.8c-0.1-0.2-0.1-0.3-0.1-0.5c0-0.1,0.1-0.3,0.2-0.4c0.2-0.2,0.5-0.3,0.9-0.4
					c0.4,0,0.8,0.1,1.2,0.3s0.6,0.4,0.8,0.7c0.1,0.3,0.1,0.6-0.2,0.9c-0.2,0.2-0.6,0.4-1,0.4c-0.5,0-1-0.2-1.7-0.5
					c-0.5-0.3-0.9-0.5-1.2-0.8c-0.5-0.5-0.6-1-0.2-1.3C891.4,93.4,891.7,93.3,892.1,93.3z M895,95.2c-0.1-0.2-0.3-0.3-0.5-0.5
					c-0.2-0.1-0.4-0.2-0.7-0.2c-0.3,0-0.5,0.1-0.7,0.2c-0.1,0.1-0.2,0.3-0.1,0.5c0,0.2,0.2,0.3,0.5,0.5c0.3,0.1,0.5,0.2,0.8,0.2
					c0.3,0,0.5-0.1,0.7-0.2C895,95.5,895.1,95.4,895,95.2z"/>
				<path class="st8" d="M894,91.3c0.3,0,0.6,0.1,0.9,0.2l-0.3,0.3c-0.2-0.1-0.3-0.1-0.5-0.1c-0.2,0-0.4,0.1-0.6,0.2
					c-0.2,0.2-0.2,0.4,0,0.6c0.2,0.2,0.5,0.5,1,0.8c-0.1-0.2-0.1-0.3-0.1-0.5c0-0.1,0.1-0.3,0.2-0.4c0.2-0.2,0.5-0.3,0.9-0.4
					c0.4,0,0.8,0.1,1.2,0.3s0.6,0.4,0.8,0.7c0.1,0.3,0.1,0.6-0.2,0.9c-0.2,0.2-0.6,0.4-1,0.4c-0.5,0-1-0.2-1.7-0.5
					c-0.5-0.3-0.9-0.5-1.2-0.8c-0.5-0.5-0.6-0.9-0.2-1.3C893.4,91.4,893.7,91.3,894,91.3z M896.9,93.2c-0.1-0.2-0.3-0.3-0.5-0.5
					c-0.2-0.1-0.4-0.2-0.7-0.2c-0.3,0-0.5,0.1-0.7,0.2c-0.1,0.1-0.2,0.3-0.1,0.5c0,0.2,0.2,0.3,0.5,0.5c0.3,0.1,0.5,0.2,0.8,0.2
					c0.3,0,0.5-0.1,0.6-0.2C897,93.5,897,93.4,896.9,93.2z"/>
				<path class="st8" d="M896.3,89.4c0.4,0.1,1,0.3,1.5,0.6c0.6,0.3,1,0.6,1.2,0.9c0.4,0.4,0.4,0.8,0.1,1.1s-0.7,0.4-1.3,0.3
					c-0.5-0.1-1-0.3-1.6-0.6c-0.5-0.2-0.8-0.5-1.1-0.7c-0.5-0.5-0.6-0.9-0.2-1.2C895.3,89.5,895.7,89.4,896.3,89.4z M898.7,91.2
					c-0.1-0.2-0.5-0.5-1.2-0.8c-0.5-0.2-0.9-0.4-1.3-0.5s-0.6,0-0.8,0.2c-0.2,0.2-0.2,0.4,0,0.6c0.2,0.2,0.6,0.5,1.1,0.8
					c0.4,0.2,0.8,0.4,1.1,0.5c0.5,0.1,0.8,0.1,1-0.1C898.9,91.6,898.9,91.4,898.7,91.2z"/>
			</g>
			<line class="st9" x1="889.2" y1="103.3" x2="891.3" y2="101"/>
			<line class="st6" x1="892.1" y1="104.7" x2="896.1" y2="100"/>
			<line class="st9" x1="895.2" y1="106.1" x2="897" y2="103.6"/>
			<line class="st6" x1="898.3" y1="107.3" x2="901.7" y2="102.3"/>
			<g class="st7">
				<path class="st8" d="M901.8,98c0.3,0,0.7,0,0.9,0.1l-0.2,0.3c-0.2,0-0.4-0.1-0.5-0.1c-0.2,0-0.4,0.1-0.5,0.3s-0.1,0.4,0.1,0.6
					c0.2,0.2,0.6,0.5,1.1,0.7c-0.1-0.2-0.2-0.3-0.2-0.5c0-0.1,0-0.3,0.1-0.4c0.2-0.2,0.4-0.4,0.8-0.5s0.8,0,1.3,0.2
					c0.4,0.2,0.7,0.4,0.9,0.7c0.2,0.3,0.2,0.6,0,0.9c-0.2,0.3-0.5,0.4-0.9,0.5s-1.1-0.1-1.8-0.3c-0.6-0.2-1-0.4-1.4-0.7
					c-0.6-0.5-0.8-0.9-0.5-1.3C901.2,98.2,901.5,98,901.8,98z M905.1,99.6c-0.1-0.2-0.4-0.3-0.6-0.4c-0.2-0.1-0.5-0.1-0.7-0.1
					c-0.3,0-0.5,0.1-0.6,0.3s-0.1,0.3,0,0.5s0.3,0.3,0.6,0.5c0.3,0.1,0.6,0.2,0.8,0.1c0.3,0,0.5-0.1,0.6-0.3
					C905.2,100,905.2,99.8,905.1,99.6z"/>
				<path class="st8" d="M903.8,97.8c-0.2,0-0.5,0-0.8-0.1c-0.3-0.1-0.6-0.3-0.7-0.6c-0.1-0.2-0.1-0.5,0-0.8
					c0.2-0.3,0.4-0.4,0.7-0.5c0.3-0.1,0.6,0,0.9,0.1c0.3,0.1,0.5,0.2,0.6,0.4c0.1,0.1,0.1,0.2,0.1,0.3c0.2-0.1,0.3-0.1,0.5-0.2
					c0.3,0,0.6,0,0.9,0.1c0.4,0.2,0.7,0.4,0.9,0.6c0.2,0.3,0.2,0.6,0,0.9c-0.2,0.3-0.4,0.5-0.8,0.6s-0.8,0.1-1.2-0.1
					c-0.3-0.1-0.5-0.2-0.6-0.4s-0.2-0.3-0.2-0.5C904,97.7,903.9,97.8,903.8,97.8z M904.3,96.7c-0.1-0.1-0.2-0.3-0.4-0.3
					c-0.2-0.1-0.3-0.1-0.5-0.1c-0.2,0-0.3,0.1-0.5,0.3c-0.1,0.2-0.1,0.3,0,0.4s0.2,0.2,0.4,0.3c0.2,0.1,0.4,0.1,0.6,0
					c0.2-0.1,0.3-0.1,0.4-0.3C904.4,97,904.4,96.8,904.3,96.7z M906.6,97.5c-0.1-0.2-0.3-0.3-0.5-0.4c-0.3-0.1-0.5-0.1-0.8-0.1
					c-0.2,0.1-0.4,0.2-0.5,0.3c-0.1,0.2-0.1,0.3,0,0.5s0.3,0.3,0.5,0.4c0.2,0.1,0.5,0.1,0.7,0.1c0.2,0,0.4-0.1,0.5-0.3
					S906.6,97.6,906.6,97.5z"/>
				<path class="st8" d="M905,93.6c0.4,0,1,0.2,1.6,0.4s1.1,0.5,1.4,0.8c0.5,0.4,0.6,0.8,0.4,1.1c-0.2,0.3-0.6,0.5-1.2,0.5
					c-0.5,0-1.1-0.2-1.7-0.4c-0.5-0.2-0.9-0.4-1.2-0.6c-0.6-0.4-0.8-0.8-0.5-1.2C904,93.8,904.4,93.6,905,93.6z M907.8,95.2
					c-0.2-0.2-0.6-0.5-1.4-0.7c-0.5-0.2-1-0.3-1.3-0.4c-0.4-0.1-0.6,0-0.8,0.3c-0.1,0.2-0.1,0.4,0.2,0.6c0.3,0.2,0.7,0.4,1.3,0.7
					c0.5,0.2,0.8,0.3,1.2,0.3c0.5,0.1,0.8,0,0.9-0.2C908,95.6,908,95.4,907.8,95.2z"/>
			</g>
			<line class="st9" x1="901.5" y1="108.5" x2="903" y2="105.9"/>
			<line class="st6" x1="904.8" y1="109.6" x2="907.4" y2="104.4"/>
			<line class="st9" x1="908.1" y1="110.6" x2="909.3" y2="108"/>
			<line class="st6" x1="911.5" y1="111.6" x2="913.4" y2="106.2"/>
			<g class="st7">
				<path class="st8" d="M912.2,101.4l0.5,0.1c0.1,0.1,0.3,0.3,0.7,0.6c0.3,0.3,0.7,0.5,1.1,0.8c0.4,0.2,0.7,0.4,1.1,0.6
					c0.2,0.1,0.6,0.3,1,0.5l-0.1,0.4c-0.9-0.3-1.7-0.8-2.5-1.4c-0.5-0.3-0.9-0.7-1.2-1l-0.6,1.7l-0.6-0.2L912.2,101.4z"/>
				<path class="st8" d="M913.6,99.4c0.4,0,1,0.1,1.7,0.2c0.7,0.2,1.2,0.4,1.6,0.6c0.6,0.3,0.8,0.7,0.6,1.1c-0.1,0.4-0.5,0.6-1,0.6
					s-1.1,0-1.8-0.2c-0.5-0.2-1-0.3-1.4-0.5c-0.7-0.4-0.9-0.8-0.8-1.2C912.7,99.6,913,99.4,913.6,99.4z M916.7,100.7
					c-0.2-0.2-0.7-0.4-1.5-0.6c-0.5-0.1-1-0.2-1.4-0.2s-0.6,0.1-0.7,0.3s0,0.4,0.3,0.6c0.3,0.2,0.8,0.4,1.4,0.6
					c0.5,0.1,0.9,0.2,1.2,0.2c0.5,0,0.8-0.1,0.9-0.3C917,101,916.9,100.8,916.7,100.7z"/>
				<path class="st8" d="M914.4,97c0.4,0,1,0.1,1.7,0.2c0.6,0.2,1.2,0.4,1.6,0.6c0.6,0.3,0.8,0.7,0.6,1.1c-0.1,0.4-0.5,0.6-1,0.6
					s-1.1,0-1.8-0.2c-0.5-0.1-1-0.3-1.4-0.5c-0.7-0.4-0.9-0.8-0.8-1.2C913.5,97.2,913.8,97,914.4,97z M917.5,98.2
					c-0.2-0.2-0.7-0.4-1.5-0.6c-0.5-0.1-1-0.2-1.4-0.2s-0.6,0.1-0.7,0.4c-0.1,0.2,0,0.4,0.3,0.6c0.3,0.2,0.8,0.4,1.4,0.6
					c0.5,0.1,0.9,0.2,1.2,0.2c0.5,0,0.8-0.1,0.8-0.3C917.8,98.6,917.7,98.4,917.5,98.2z"/>
			</g>
			<line class="st9" x1="914.9" y1="112.5" x2="915.7" y2="109.7"/>
			<line class="st6" x1="918.3" y1="113.2" x2="919.5" y2="107.6"/>
			<line class="st9" x1="921.8" y1="113.9" x2="922.2" y2="111.1"/>
			<line class="st6" x1="925.3" y1="114.6" x2="925.7" y2="108.8"/>
			<g class="st7">
				<path class="st8" d="M923.3,104.1l0.5,0.1c0.1,0.1,0.4,0.3,0.8,0.5s0.8,0.5,1.2,0.7s0.8,0.4,1.2,0.5c0.2,0.1,0.6,0.2,1.1,0.4
					v0.4c-0.9-0.3-1.9-0.6-2.8-1.1c-0.5-0.3-1-0.6-1.4-0.9l-0.1,1.8l-0.6-0.1L923.3,104.1z"/>
				<path class="st8" d="M927.1,104.3c-0.3-0.2-0.6-0.4-0.8-0.7l-0.4-0.5c-0.2-0.2-0.3-0.4-0.4-0.5c-0.2-0.2-0.4-0.3-0.6-0.3
					c-0.3,0-0.5,0-0.7,0.1c-0.2,0.1-0.3,0.2-0.3,0.4c0,0.3,0.1,0.5,0.5,0.7c0.2,0.1,0.4,0.2,0.7,0.2v0.4c-0.4-0.1-0.8-0.2-1-0.3
					c-0.5-0.3-0.7-0.6-0.7-1s0.2-0.6,0.5-0.7c0.3-0.1,0.7-0.1,1-0.1c0.4,0.1,0.7,0.2,1,0.4c0.2,0.1,0.3,0.4,0.6,0.7l0.2,0.4
					c0.1,0.2,0.2,0.3,0.3,0.4c0.2,0.2,0.4,0.3,0.7,0.4l0.1-1.8l0.6,0.1l-0.1,2.2C927.8,104.5,927.4,104.4,927.1,104.3z"/>
				<path class="st8" d="M924.3,99.4c0.4-0.1,1-0.1,1.7,0.1c0.7,0.1,1.2,0.3,1.7,0.5c0.6,0.3,0.9,0.7,0.9,1.1s-0.3,0.6-0.8,0.7
					c-0.4,0.1-1,0.1-1.7-0.1c-0.6-0.1-1-0.2-1.4-0.4c-0.7-0.3-1.1-0.7-1.1-1.1C923.5,99.7,923.7,99.5,924.3,99.4z M927.5,100.3
					c-0.3-0.2-0.8-0.3-1.6-0.5c-0.6-0.1-1-0.1-1.4-0.1s-0.6,0.2-0.6,0.4s0.1,0.4,0.5,0.6c0.3,0.2,0.8,0.3,1.5,0.4
					c0.5,0.1,0.9,0.1,1.2,0.1c0.5,0,0.7-0.2,0.7-0.4C927.9,100.7,927.8,100.5,927.5,100.3z"/>
			</g>
			<line class="st9" x1="928.8" y1="115.1" x2="928.8" y2="112.2"/>
			<line class="st6" x1="932.3" y1="115.6" x2="931.9" y2="109.7"/>
			<line class="st9" x1="935.9" y1="115.9" x2="935.5" y2="113"/>
			<line class="st6" x1="939.4" y1="116.2" x2="938.2" y2="110.3"/>
			<g class="st7">
				<path class="st8" d="M934.6,105.7h0.5c0.2,0.1,0.5,0.3,0.9,0.5s0.9,0.4,1.3,0.6c0.5,0.2,0.9,0.3,1.2,0.4
					c0.2,0.1,0.6,0.1,1.1,0.2l0.1,0.5c-1-0.2-2-0.5-3-0.9c-0.6-0.2-1.1-0.5-1.6-0.8l0.4,1.8h-0.6L934.6,105.7z"/>
				<path class="st8" d="M939.2,104.3l-1.2-0.1l0.3,1.4h-0.6l-3.5-1.7l-0.1-0.4l3.2,0.2l-0.1-0.5h0.5l0.1,0.5l1.2,0.1L939.2,104.3z
					 M937.4,104.2l-2.2-0.2l2.5,1.2L937.4,104.2z"/>
				<path class="st8" d="M934.3,100.8c0.4-0.1,0.9-0.2,1.6-0.1c0.7,0,1.2,0.1,1.7,0.3c0.7,0.2,1,0.6,1.1,1s-0.1,0.7-0.6,0.8
					c-0.4,0.1-1,0.2-1.7,0.1c-0.6,0-1-0.1-1.5-0.2c-0.8-0.2-1.2-0.6-1.3-1.1C933.7,101.2,933.9,100.9,934.3,100.8z M937.7,101.4
					c-0.3-0.1-0.9-0.2-1.6-0.3c-0.6,0-1,0-1.3,0c-0.3,0.1-0.5,0.2-0.4,0.5c0,0.2,0.3,0.4,0.6,0.6c0.4,0.1,0.9,0.2,1.5,0.3
					c0.5,0,0.9,0,1.2,0c0.4-0.1,0.6-0.3,0.6-0.5C938.2,101.7,938,101.5,937.7,101.4z"/>
			</g>
			<line class="st9" x1="942.9" y1="116.4" x2="942.1" y2="113.4"/>
			<line class="st6" x1="946.4" y1="116.5" x2="944.4" y2="110.6"/>
			<line class="st9" x1="949.8" y1="116.5" x2="948.6" y2="113.5"/>
			<line class="st6" x1="953.2" y1="116.4" x2="950.5" y2="110.5"/>
			<g class="st7">
				<path class="st8" d="M945.9,106.1h0.5c0.2,0.1,0.5,0.2,1,0.4s0.9,0.3,1.4,0.4s0.9,0.2,1.3,0.3c0.2,0,0.6,0.1,1.2,0.1l0.2,0.5
					c-1-0.1-2-0.3-3.1-0.6c-0.6-0.2-1.2-0.4-1.7-0.6l0.8,1.8h-0.6L945.9,106.1z"/>
				<path class="st8" d="M945.1,103.8c0.2-0.2,0.5-0.2,0.8-0.3l0.2,0.4c-0.2,0-0.3,0.1-0.4,0.1c-0.2,0.1-0.2,0.3-0.1,0.5
					c0.1,0.2,0.3,0.4,0.7,0.5s0.9,0.2,1.4,0.2c-0.2-0.1-0.5-0.2-0.6-0.3s-0.3-0.3-0.3-0.4c-0.1-0.3-0.1-0.5,0.1-0.7s0.5-0.3,1-0.4
					c0.4,0,0.9,0.1,1.3,0.3c0.4,0.2,0.7,0.5,0.9,0.8c0.1,0.3,0.1,0.6-0.1,0.8s-0.8,0.4-1.6,0.4c-0.6,0-1.1,0-1.6-0.1
					c-0.9-0.2-1.4-0.5-1.7-1C944.9,104.2,944.9,104,945.1,103.8z M948.9,104c-0.3-0.1-0.5-0.1-0.8-0.1c-0.2,0-0.5,0.1-0.6,0.2
					c-0.2,0.1-0.2,0.3-0.1,0.5c0.1,0.2,0.2,0.3,0.5,0.5c0.2,0.1,0.5,0.2,0.9,0.2c0.3,0,0.5-0.1,0.7-0.2c0.1-0.1,0.2-0.3,0.1-0.5
					C949.4,104.2,949.2,104.1,948.9,104z"/>
				<path class="st8" d="M944.3,101.1c0.3-0.2,0.8-0.3,1.5-0.3c0.6,0,1.2,0,1.7,0.1c0.7,0.2,1.1,0.5,1.3,0.9
					c0.2,0.4,0.1,0.7-0.3,0.9c-0.3,0.2-0.9,0.3-1.6,0.3c-0.5,0-1,0-1.5-0.1c-0.8-0.2-1.3-0.5-1.5-0.9
					C943.8,101.6,943.9,101.3,944.3,101.1z M947.6,101.4c-0.3-0.1-0.9-0.2-1.6-0.1c-0.5,0-1,0.1-1.3,0.2c-0.3,0.1-0.4,0.3-0.3,0.6
					c0.1,0.2,0.4,0.4,0.7,0.5c0.4,0.1,0.9,0.1,1.5,0.1c0.5,0,0.9-0.1,1.1-0.2c0.4-0.1,0.5-0.3,0.4-0.6
					C948.2,101.7,948,101.5,947.6,101.4z"/>
			</g>
			<line class="st9" x1="956.6" y1="116.3" x2="955" y2="113.3"/>
			<line class="st6" x1="959.9" y1="116" x2="956.4" y2="110.1"/>
			<line class="st9" x1="963.2" y1="115.7" x2="961.3" y2="112.7"/>
			<line class="st6" x1="966.4" y1="115.2" x2="962.2" y2="109.4"/>
			<g class="st7">
				<path class="st8" d="M956.6,105.4l0.5-0.1c0.2,0.1,0.6,0.2,1,0.3c0.5,0.1,1,0.2,1.5,0.3s0.9,0.1,1.3,0.1c0.2,0,0.6,0,1.1,0
					l0.3,0.5c-0.9,0-1.9-0.1-3-0.3c-0.6-0.1-1.2-0.3-1.8-0.5l1.3,1.8l-0.5,0.2L956.6,105.4z"/>
				<path class="st8" d="M958,104.6c-0.1,0.1-0.3,0.2-0.5,0.3c-0.3,0.1-0.7,0-1-0.1c-0.4-0.1-0.7-0.4-0.9-0.7
					c-0.2-0.3-0.3-0.6-0.2-0.8s0.3-0.3,0.6-0.4c0.3,0,0.5,0,0.8,0.1c0.1,0,0.3,0.1,0.5,0.2c0-0.1,0-0.3,0.1-0.4
					c0.1-0.2,0.3-0.3,0.7-0.3c0.4-0.1,0.8,0,1.2,0.1c0.4,0.2,0.7,0.4,1,0.8c0.2,0.3,0.3,0.6,0.2,0.9s-0.3,0.4-0.8,0.5
					c-0.3,0-0.5,0-0.8,0c-0.3-0.1-0.5-0.2-0.7-0.3C958.1,104.4,958.1,104.5,958,104.6z M956.9,103.3c-0.2-0.1-0.4-0.1-0.6-0.1
					s-0.3,0.1-0.4,0.2c-0.1,0.1,0,0.3,0.1,0.5s0.3,0.3,0.5,0.4c0.2,0.1,0.4,0.1,0.6,0.1c0.2,0,0.3-0.1,0.4-0.2c0-0.1,0-0.3-0.1-0.4
					C957.3,103.6,957.1,103.4,956.9,103.3z M959.1,102.9c-0.2-0.1-0.5-0.1-0.8-0.1c-0.3,0-0.5,0.1-0.5,0.3c-0.1,0.2,0,0.3,0.1,0.5
					s0.3,0.3,0.6,0.4c0.2,0.1,0.5,0.1,0.8,0.1c0.2,0,0.4-0.1,0.5-0.3c0.1-0.1,0-0.3-0.1-0.6C959.5,103.2,959.3,103,959.1,102.9z"/>
				<path class="st8" d="M953.8,100.4c0.3-0.2,0.7-0.4,1.3-0.5s1.1-0.1,1.6,0c0.7,0.1,1.2,0.4,1.5,0.8c0.3,0.4,0.3,0.7-0.1,1
					c-0.3,0.2-0.7,0.4-1.4,0.5c-0.5,0.1-1,0.1-1.4,0.1c-0.8-0.1-1.4-0.3-1.7-0.8C953.5,101,953.5,100.7,953.8,100.4z M957.1,100.4
					c-0.3-0.1-0.9-0.1-1.6,0c-0.5,0.1-0.9,0.2-1.1,0.3c-0.3,0.1-0.3,0.3-0.1,0.6c0.2,0.2,0.4,0.4,0.8,0.5c0.4,0.1,0.9,0,1.5,0
					c0.5-0.1,0.8-0.2,1-0.3c0.3-0.2,0.4-0.4,0.2-0.7C957.7,100.6,957.4,100.5,957.1,100.4z"/>
			</g>
			<line class="st9" x1="969.5" y1="114.7" x2="967.2" y2="111.8"/>
			<line class="st6" x1="972.6" y1="114.1" x2="967.7" y2="108.4"/>
			<line class="st9" x1="975.6" y1="113.4" x2="972.9" y2="110.6"/>
			<line class="st6" x1="978.5" y1="112.7" x2="972.9" y2="107.1"/>
			<g class="st7">
				<path class="st8" d="M970.1,105c0,0.2-0.2,0.3-0.4,0.3c-0.3,0.1-0.6,0.1-1,0s-0.7-0.3-1-0.6c-0.3-0.3-0.4-0.6-0.4-0.8
					s0.2-0.4,0.5-0.5c0.3-0.1,0.5-0.1,0.8,0c0.1,0,0.3,0.1,0.5,0.2c-0.1-0.2-0.1-0.3,0-0.4c0.1-0.2,0.2-0.3,0.5-0.4
					c0.4-0.1,0.7-0.1,1.2,0c0.4,0.1,0.8,0.3,1.1,0.7c0.3,0.3,0.4,0.6,0.4,0.9s-0.2,0.5-0.6,0.6c-0.2,0.1-0.5,0.1-0.8,0
					c-0.3,0-0.5-0.1-0.8-0.3C970.1,104.8,970.1,104.9,970.1,105z M968.7,103.8c-0.2-0.1-0.4-0.1-0.6,0c-0.2,0-0.2,0.1-0.3,0.3
					c0,0.1,0,0.3,0.2,0.5c0.2,0.2,0.4,0.3,0.6,0.4c0.2,0,0.4,0,0.6,0c0.2-0.1,0.3-0.2,0.3-0.3s-0.1-0.3-0.2-0.4
					C969.1,104,968.9,103.9,968.7,103.8z M970.6,103.2c-0.2-0.1-0.5-0.1-0.7,0c-0.3,0.1-0.4,0.2-0.4,0.4s0.1,0.3,0.3,0.5
					c0.2,0.2,0.4,0.3,0.7,0.4c0.3,0.1,0.5,0.1,0.7,0c0.2-0.1,0.3-0.2,0.4-0.3c0-0.2,0-0.3-0.3-0.6
					C971.1,103.4,970.9,103.3,970.6,103.2z"/>
				<path class="st8" d="M965,101.2c0.2-0.2,0.6-0.4,1.1-0.6s1.1-0.2,1.5-0.2c0.7,0,1.2,0.3,1.6,0.7s0.4,0.7,0.2,1
					c-0.2,0.3-0.6,0.5-1.2,0.6c-0.5,0.1-0.9,0.2-1.3,0.2c-0.8,0-1.4-0.2-1.8-0.7C964.8,101.8,964.7,101.5,965,101.2z M968,100.8
					c-0.3-0.1-0.8,0-1.5,0.2c-0.5,0.1-0.8,0.3-1,0.5c-0.2,0.2-0.2,0.4,0.1,0.6c0.2,0.2,0.5,0.4,0.9,0.4s0.8,0,1.4-0.2
					c0.4-0.1,0.7-0.3,0.9-0.4c0.3-0.2,0.3-0.5,0-0.7C968.7,100.9,968.4,100.8,968,100.8z"/>
				<path class="st8" d="M962.6,98.7c0.2-0.2,0.6-0.4,1.1-0.6s1-0.2,1.5-0.2c0.7,0,1.2,0.3,1.6,0.7s0.4,0.7,0.2,1
					c-0.2,0.3-0.6,0.5-1.2,0.6c-0.5,0.1-0.9,0.2-1.3,0.2c-0.8,0-1.4-0.2-1.8-0.7C962.4,99.3,962.3,99,962.6,98.7z M965.6,98.3
					c-0.3-0.1-0.8,0-1.5,0.2c-0.5,0.1-0.8,0.3-1,0.5c-0.2,0.2-0.2,0.4,0.1,0.6c0.2,0.2,0.5,0.4,0.9,0.4s0.8,0,1.4-0.2
					c0.4-0.1,0.7-0.3,0.9-0.4c0.3-0.2,0.3-0.5,0-0.7C966.2,98.5,966,98.3,965.6,98.3z"/>
			</g>
			<line class="st9" x1="981.2" y1="111.8" x2="978.3" y2="109.1"/>
			<line class="st6" x1="983.9" y1="110.9" x2="977.7" y2="105.5"/>
			<line class="st9" x1="986.5" y1="109.8" x2="983.3" y2="107.2"/>
			<line class="st6" x1="989" y1="108.7" x2="982.2" y2="103.6"/>
			<g class="st7">
				<path class="st8" d="M979,101.7c0,0.2-0.1,0.3-0.3,0.4c-0.3,0.1-0.6,0.2-1,0.1s-0.8-0.2-1.1-0.5c-0.4-0.3-0.5-0.5-0.6-0.8
					c0-0.2,0.1-0.4,0.3-0.5c0.2-0.1,0.4-0.1,0.7-0.1c0.1,0,0.3,0.1,0.5,0.1c-0.1-0.2-0.1-0.3-0.1-0.4c0-0.2,0.1-0.4,0.4-0.5
					s0.7-0.2,1.1-0.1c0.4,0.1,0.8,0.3,1.2,0.6s0.6,0.6,0.6,0.8c0.1,0.3-0.1,0.5-0.4,0.7c-0.2,0.1-0.4,0.1-0.7,0.1
					c-0.3,0-0.5-0.1-0.8-0.2C979,101.5,979,101.6,979,101.7z M977.5,100.6c-0.2,0-0.4,0-0.6,0c-0.1,0.1-0.2,0.2-0.2,0.3
					s0.1,0.3,0.3,0.5c0.2,0.2,0.4,0.3,0.6,0.3s0.4,0,0.5-0.1c0.2-0.1,0.2-0.2,0.2-0.3s-0.1-0.3-0.3-0.4
					C977.9,100.8,977.7,100.7,977.5,100.6z M979.1,99.8c-0.2-0.1-0.5,0-0.7,0.1c-0.2,0.1-0.3,0.2-0.3,0.4s0.2,0.3,0.4,0.5
					c0.2,0.2,0.5,0.3,0.7,0.3c0.3,0.1,0.5,0,0.7-0.1c0.2-0.1,0.3-0.2,0.3-0.4s-0.1-0.3-0.4-0.6C979.6,99.9,979.3,99.8,979.1,99.8z"
					/>
				<path class="st8" d="M977.5,98.9c-0.3,0-0.8-0.1-1.3-0.2l-0.8-0.3c-0.3-0.1-0.6-0.2-0.8-0.2c-0.3,0-0.5,0-0.7,0.1
					c-0.2,0.1-0.3,0.2-0.3,0.4s0.1,0.3,0.3,0.5c0.3,0.2,0.6,0.4,1,0.4c0.2,0,0.4-0.1,0.6-0.2l0.5,0.4c-0.3,0.1-0.6,0.2-0.9,0.2
					c-0.5,0-1.1-0.2-1.6-0.6c-0.4-0.3-0.6-0.6-0.6-0.9s0.2-0.4,0.4-0.6c0.3-0.1,0.6-0.2,1-0.1c0.2,0,0.6,0.1,1.1,0.3l0.5,0.2
					c0.3,0.1,0.5,0.2,0.6,0.2c0.3,0.1,0.6,0.1,0.8,0l-2-1.6l0.4-0.2l2.5,2C978.1,98.8,977.8,98.9,977.5,98.9z"/>
				<path class="st8" d="M970.4,96c0.1-0.3,0.4-0.5,0.9-0.8c0.5-0.2,0.9-0.4,1.4-0.4c0.6,0,1.2,0.1,1.7,0.5c0.4,0.3,0.6,0.7,0.5,1
					s-0.4,0.5-0.9,0.8c-0.4,0.2-0.8,0.3-1.2,0.4c-0.7,0.1-1.3-0.1-1.9-0.5C970.4,96.7,970.2,96.3,970.4,96z M973.1,95.2
					c-0.3,0-0.8,0.1-1.3,0.4c-0.4,0.2-0.7,0.4-0.8,0.6s-0.1,0.4,0.2,0.7c0.3,0.2,0.6,0.3,0.9,0.3c0.4,0,0.8-0.1,1.2-0.4
					c0.3-0.2,0.6-0.3,0.7-0.5c0.2-0.3,0.1-0.5-0.1-0.7C973.7,95.4,973.4,95.3,973.1,95.2z"/>
			</g>
			<line class="st9" x1="991.3" y1="107.6" x2="987.8" y2="105"/>
			<line class="st6" x1="993.5" y1="106.3" x2="986.3" y2="101.4"/>
			<line class="st9" x1="995.6" y1="105" x2="991.9" y2="102.6"/>
			<line class="st6" x1="997.6" y1="103.6" x2="989.9" y2="98.9"/>
			<g class="st7">
				<path class="st8" d="M986.5,97.3c0.1,0.2,0,0.3-0.2,0.4c-0.2,0.2-0.5,0.2-0.9,0.2s-0.8-0.2-1.2-0.4s-0.6-0.5-0.7-0.7
					c-0.1-0.2,0-0.4,0.1-0.6c0.2-0.1,0.4-0.2,0.6-0.2c0.1,0,0.3,0,0.5,0.1c-0.1-0.1-0.2-0.3-0.2-0.4c-0.1-0.2,0-0.4,0.2-0.6
					c0.2-0.2,0.6-0.3,1-0.2c0.4,0,0.8,0.2,1.3,0.5c0.4,0.3,0.7,0.5,0.8,0.8s0.1,0.5-0.2,0.7c-0.2,0.1-0.4,0.2-0.6,0.2
					c-0.2,0-0.5,0-0.8-0.1C986.4,97.1,986.4,97.2,986.5,97.3z M984.7,96.4c-0.2,0-0.4,0-0.5,0.1s-0.1,0.2-0.1,0.3s0.2,0.3,0.4,0.5
					c0.3,0.2,0.5,0.2,0.7,0.2c0.2,0,0.4,0,0.5-0.1s0.2-0.2,0.1-0.4c-0.1-0.1-0.2-0.3-0.4-0.4C985.2,96.5,984.9,96.4,984.7,96.4z
					 M986,95.3c-0.2,0-0.5,0-0.6,0.1c-0.2,0.1-0.2,0.3-0.2,0.5c0.1,0.2,0.2,0.3,0.5,0.5c0.3,0.2,0.5,0.2,0.8,0.3
					c0.3,0,0.5,0,0.6-0.1s0.2-0.2,0.1-0.4c0-0.2-0.2-0.3-0.5-0.5C986.5,95.4,986.2,95.4,986,95.3z"/>
				<path class="st8" d="M983.3,93.1l-0.7,0.5l1.8,1.1l-0.3,0.3l-3.7,0.1l-0.4-0.3l1.8-1.3l-0.6-0.4l0.3-0.2l0.6,0.4l0.7-0.5
					L983.3,93.1z M982.3,93.9l-1.2,0.9l2.6-0.1L982.3,93.9z"/>
				<path class="st8" d="M976.9,92.3c0-0.3,0.3-0.6,0.6-0.9c0.4-0.3,0.8-0.5,1.2-0.5c0.6-0.1,1.2,0,1.7,0.4c0.5,0.3,0.7,0.7,0.7,1
					s-0.2,0.6-0.6,0.9c-0.3,0.2-0.6,0.4-1,0.5c-0.6,0.2-1.3,0.1-1.9-0.3C977.1,93,976.8,92.7,976.9,92.3z M979.2,91.3
					c-0.3,0-0.7,0.2-1.1,0.5c-0.3,0.2-0.5,0.5-0.6,0.7s0,0.4,0.4,0.7c0.3,0.2,0.6,0.3,1,0.2c0.3-0.1,0.7-0.2,1.1-0.5
					c0.3-0.2,0.5-0.4,0.5-0.6c0.1-0.3,0-0.5-0.3-0.7C979.8,91.3,979.5,91.2,979.2,91.3z"/>
			</g>
			<line class="st9" x1="999.4" y1="102.1" x2="995.5" y2="99.9"/>
			<line class="st6" x1="1001.1" y1="100.6" x2="993.1" y2="96.2"/>
			<line class="st9" x1="1002.7" y1="99" x2="998.6" y2="96.9"/>
			<line class="st6" x1="1004.1" y1="97.3" x2="995.8" y2="93.3"/>
			<g class="st7">
				<path class="st8" d="M992.1,92c0.1,0.2,0.1,0.3,0,0.5s-0.4,0.3-0.8,0.3s-0.8-0.1-1.2-0.3s-0.7-0.4-0.9-0.7
					c-0.2-0.2-0.2-0.5,0-0.6c0.1-0.2,0.3-0.2,0.5-0.3c0.1,0,0.3,0,0.5,0c-0.2-0.1-0.3-0.3-0.3-0.4c-0.1-0.2-0.1-0.4,0-0.6
					c0.2-0.2,0.5-0.3,0.8-0.4c0.4,0,0.8,0.1,1.3,0.3c0.4,0.2,0.8,0.5,1,0.8c0.2,0.3,0.2,0.5,0,0.8c-0.1,0.1-0.3,0.2-0.5,0.3
					c-0.2,0-0.5,0-0.8,0C992,91.8,992.1,91.9,992.1,92z M990.3,91.2c-0.2,0-0.3,0.1-0.4,0.2c-0.1,0.1-0.1,0.2,0,0.4
					c0.1,0.1,0.3,0.3,0.5,0.4c0.3,0.1,0.5,0.2,0.7,0.2c0.2,0,0.3-0.1,0.4-0.2c0.1-0.1,0.1-0.2,0-0.4c-0.1-0.1-0.3-0.3-0.5-0.4
					C990.7,91.3,990.5,91.2,990.3,91.2z M991.2,90c-0.2,0-0.4,0.1-0.5,0.2c-0.1,0.2-0.1,0.3,0,0.5s0.3,0.3,0.6,0.5
					c0.3,0.1,0.5,0.2,0.8,0.2c0.2,0,0.4-0.1,0.5-0.2s0.1-0.3,0-0.4c-0.1-0.2-0.3-0.3-0.6-0.5C991.6,90,991.4,90,991.2,90z"/>
				<path class="st8" d="M985.5,89.8c-0.1-0.2-0.1-0.4,0.1-0.6l0.6,0.3c0,0.1-0.1,0.2,0,0.3c0.1,0.2,0.2,0.3,0.5,0.5
					c0.3,0.2,0.6,0.2,1,0.1c0.3-0.1,0.6-0.2,0.9-0.5c-0.2,0-0.4,0-0.7,0c-0.2,0-0.4-0.1-0.7-0.2c-0.4-0.2-0.7-0.4-0.8-0.7
					s-0.2-0.5,0-0.8c0.2-0.2,0.5-0.4,0.9-0.4s0.9,0.1,1.4,0.3c0.4,0.2,0.7,0.5,0.9,0.8c0.2,0.3,0.1,0.7-0.2,1.1
					c-0.2,0.3-0.5,0.5-0.8,0.7c-0.6,0.3-1.2,0.2-1.9-0.1C985.9,90.3,985.6,90.1,985.5,89.8z M987.4,88.2c-0.2,0-0.4,0.1-0.5,0.3
					c-0.1,0.1-0.1,0.3-0.1,0.5s0.2,0.4,0.6,0.5c0.2,0.1,0.5,0.2,0.8,0.2c0.3,0,0.5-0.1,0.6-0.3s0.1-0.3,0.1-0.5
					c-0.1-0.2-0.3-0.4-0.6-0.5C987.9,88.2,987.7,88.1,987.4,88.2z"/>
				<path class="st8" d="M982,87.8c0-0.3,0.1-0.6,0.4-1c0.3-0.3,0.6-0.6,0.9-0.7c0.5-0.2,1.1-0.1,1.7,0.2c0.5,0.3,0.8,0.6,0.9,1
					c0.1,0.3-0.1,0.7-0.4,1c-0.2,0.3-0.5,0.5-0.8,0.6c-0.5,0.2-1.1,0.2-1.8-0.1C982.3,88.6,982,88.2,982,87.8z M983.8,86.5
					c-0.3,0.1-0.6,0.3-0.9,0.7c-0.2,0.3-0.3,0.5-0.4,0.8c0,0.2,0.2,0.5,0.5,0.6c0.3,0.2,0.7,0.2,0.9,0.1c0.3-0.1,0.6-0.3,0.8-0.6
					c0.2-0.2,0.3-0.5,0.3-0.7c0-0.3-0.1-0.6-0.5-0.7C984.4,86.5,984.1,86.4,983.8,86.5z"/>
			</g>
			<line class="st9" x1="1005.4" y1="95.6" x2="1001.1" y2="93.7"/>
			<line class="st6" x1="1006.5" y1="93.8" x2="997.9" y2="90.1"/>
			<line class="st9" x1="1007.5" y1="92" x2="1003.1" y2="90.2"/>
			<line class="st6" x1="1008.3" y1="90.1" x2="999.6" y2="86.8"/>
			<g class="st7">
				<path class="st8" d="M995.9,85.8c0.1,0.2,0.2,0.3,0.1,0.5c-0.1,0.2-0.3,0.3-0.6,0.4c-0.3,0-0.7,0-1.2-0.2s-0.8-0.4-1-0.6
					c-0.2-0.2-0.3-0.5-0.2-0.6c0.1-0.2,0.2-0.3,0.4-0.3c0.1,0,0.3,0,0.5,0c-0.2-0.1-0.3-0.3-0.4-0.4c-0.2-0.2-0.2-0.4-0.1-0.6
					c0.1-0.2,0.3-0.4,0.7-0.5s0.8,0,1.3,0.2s0.8,0.4,1.1,0.7c0.3,0.3,0.3,0.5,0.2,0.8c-0.1,0.2-0.2,0.3-0.4,0.3
					c-0.2,0.1-0.4,0.1-0.7,0C995.7,85.6,995.8,85.7,995.9,85.8z M994,85.2c-0.2,0-0.3,0.1-0.4,0.2c0,0.1,0,0.2,0.1,0.4
					c0.1,0.1,0.3,0.3,0.6,0.4c0.3,0.1,0.5,0.1,0.7,0.1c0.2,0,0.3-0.1,0.3-0.2c0.1-0.1,0-0.3-0.1-0.4s-0.3-0.3-0.5-0.3
					C994.4,85.2,994.2,85.2,994,85.2z M994.5,83.8c-0.2,0-0.4,0.1-0.4,0.3c-0.1,0.2,0,0.4,0.1,0.5c0.2,0.2,0.4,0.3,0.7,0.4
					c0.3,0.1,0.5,0.2,0.8,0.1c0.2,0,0.4-0.1,0.4-0.3c0.1-0.1,0-0.3-0.1-0.5s-0.4-0.3-0.7-0.5C995,83.8,994.7,83.8,994.5,83.8z"/>
				<path class="st8" d="M992.1,84.3c0.1,0.2,0.2,0.3,0.1,0.5s-0.3,0.3-0.6,0.4c-0.3,0-0.7,0-1.2-0.2s-0.8-0.4-1-0.6
					c-0.2-0.2-0.3-0.5-0.2-0.6c0.1-0.2,0.2-0.3,0.4-0.3c0.1,0,0.3,0,0.5,0c-0.2-0.1-0.3-0.3-0.4-0.4c-0.2-0.2-0.2-0.4-0.1-0.6
					c0.1-0.2,0.3-0.4,0.7-0.5c0.3-0.1,0.8,0,1.3,0.2s0.8,0.4,1.1,0.7c0.3,0.3,0.3,0.5,0.2,0.8c-0.1,0.2-0.2,0.3-0.4,0.3
					c-0.2,0.1-0.4,0.1-0.7,0C991.9,84.1,992,84.2,992.1,84.3z M990.2,83.7c-0.2,0-0.3,0.1-0.4,0.2c0,0.1,0,0.2,0.1,0.4
					c0.1,0.1,0.3,0.3,0.6,0.4c0.3,0.1,0.5,0.1,0.7,0.1c0.2,0,0.3-0.1,0.3-0.2c0.1-0.1,0-0.3-0.1-0.4s-0.3-0.3-0.5-0.3
					C990.6,83.7,990.4,83.7,990.2,83.7z M990.7,82.3c-0.2,0-0.4,0.1-0.4,0.3c-0.1,0.2,0,0.4,0.1,0.5c0.2,0.2,0.4,0.3,0.7,0.4
					c0.3,0.1,0.5,0.2,0.8,0.1c0.2,0,0.4-0.1,0.4-0.3c0.1-0.1,0-0.3-0.1-0.5s-0.4-0.3-0.7-0.5C991.1,82.4,990.9,82.3,990.7,82.3z"/>
				<path class="st8" d="M985.5,82.6c-0.1-0.3-0.1-0.7,0.1-1.1c0.2-0.4,0.4-0.7,0.7-0.8c0.4-0.2,1-0.2,1.6,0s0.9,0.5,1.1,0.9
					c0.1,0.3,0.1,0.7-0.1,1.1c-0.1,0.3-0.3,0.6-0.5,0.7c-0.4,0.3-1,0.3-1.7,0.1C986,83.3,985.6,83,985.5,82.6z M986.9,81
					c-0.2,0.1-0.5,0.4-0.6,0.8c-0.1,0.3-0.2,0.6-0.1,0.9c0,0.3,0.3,0.5,0.6,0.6c0.4,0.1,0.6,0.1,0.9,0c0.2-0.1,0.4-0.4,0.6-0.8
					c0.1-0.3,0.2-0.5,0.1-0.7c-0.1-0.3-0.3-0.6-0.7-0.7C987.4,80.9,987.1,80.9,986.9,81z"/>
			</g>
			<line class="st9" x1="1009" y1="88.1" x2="1004.6" y2="86.6"/>
			<line class="st6" x1="1009.5" y1="86.1" x2="1000.7" y2="83.2"/>
			<line class="st9" x1="1009.9" y1="84.1" x2="1005.5" y2="82.7"/>
			<line class="st6" x1="1010.2" y1="82" x2="1001.3" y2="79.5"/>
			<g class="st7">
				<path class="st8" d="M997.6,77.8c0-0.2-0.1-0.4-0.3-0.5c-0.1-0.1-0.3-0.1-0.4-0.2c-0.3-0.1-0.5-0.1-0.8,0
					c-0.2,0.1-0.4,0.4-0.5,0.8c0.2-0.1,0.3-0.1,0.5-0.1c0.2,0,0.4,0,0.7,0.1c0.5,0.1,0.8,0.3,1.1,0.6c0.3,0.3,0.4,0.5,0.3,0.8
					c0,0.3-0.2,0.5-0.5,0.6c-0.3,0.1-0.7,0.1-1.2,0c-0.7-0.2-1.2-0.5-1.4-1c-0.1-0.3-0.2-0.6-0.1-0.9c0-0.4,0.2-0.7,0.4-0.9
					c0.3-0.4,0.9-0.5,1.6-0.3c0.5,0.1,0.8,0.3,1.1,0.5c0.2,0.2,0.3,0.5,0.3,0.7L997.6,77.8z M995.9,78.1c-0.2,0-0.3,0.2-0.4,0.4
					c0,0.2,0,0.4,0.2,0.6c0.2,0.2,0.4,0.3,0.7,0.4c0.3,0.1,0.5,0.1,0.7,0c0.2-0.1,0.3-0.2,0.3-0.4s0-0.4-0.2-0.5
					c-0.1-0.2-0.4-0.3-0.7-0.4C996.3,78.1,996.1,78.1,995.9,78.1z"/>
				<path class="st8" d="M991.2,77.8c-0.2-0.3-0.3-0.7-0.2-1.1c0-0.4,0.2-0.7,0.4-0.9c0.3-0.3,0.8-0.4,1.5-0.2
					c0.6,0.2,1,0.5,1.2,0.8c0.2,0.3,0.3,0.7,0.2,1.2c0,0.3-0.1,0.6-0.3,0.8c-0.3,0.4-0.8,0.5-1.5,0.3
					C991.9,78.5,991.4,78.2,991.2,77.8z M992,76c-0.2,0.1-0.3,0.4-0.4,0.9c0,0.3,0,0.6,0.1,0.9s0.4,0.4,0.8,0.6
					c0.4,0.1,0.6,0.1,0.8-0.1c0.2-0.2,0.3-0.4,0.4-0.9c0-0.3,0-0.6-0.1-0.8c-0.1-0.3-0.4-0.6-0.8-0.7C992.5,75.9,992.2,75.9,992,76z
					"/>
				<path class="st8" d="M987.4,76.7c-0.2-0.3-0.3-0.7-0.2-1.1c0-0.4,0.2-0.7,0.4-0.9c0.3-0.3,0.8-0.4,1.4-0.2
					c0.6,0.2,1,0.5,1.2,0.8c0.2,0.3,0.3,0.7,0.2,1.2c0,0.3-0.1,0.6-0.3,0.8c-0.3,0.4-0.8,0.5-1.5,0.3
					C988,77.4,987.6,77.1,987.4,76.7z M988.2,74.9c-0.2,0.1-0.3,0.4-0.4,0.9c0,0.3,0,0.6,0.1,0.9s0.4,0.4,0.7,0.6
					c0.4,0.1,0.6,0.1,0.8-0.1c0.2-0.2,0.3-0.4,0.4-0.9c0-0.3,0-0.6-0.1-0.8c-0.1-0.3-0.4-0.6-0.8-0.7
					C988.7,74.8,988.4,74.8,988.2,74.9z"/>
			</g>
			<line class="st9" x1="1010.2" y1="79.9" x2="1005.8" y2="78.8"/>
			<line class="st6" x1="1010.2" y1="77.8" x2="1001.4" y2="75.7"/>
			<line class="st9" x1="1010" y1="75.6" x2="1005.6" y2="74.7"/>
			<line class="st6" x1="1009.7" y1="73.4" x2="1001" y2="71.7"/>
			<g class="st7">
				<path class="st8" d="M997.2,70.4c-0.1-0.2-0.2-0.4-0.5-0.5c-0.1-0.1-0.3-0.1-0.4-0.1c-0.3-0.1-0.5,0-0.7,0.1
					c-0.2,0.1-0.3,0.4-0.3,0.9c0.1-0.1,0.3-0.2,0.4-0.2c0.2,0,0.4,0,0.6,0c0.5,0.1,0.8,0.3,1.1,0.5c0.3,0.2,0.5,0.5,0.5,0.8
					s0,0.5-0.3,0.7c-0.2,0.2-0.6,0.2-1.1,0.1c-0.7-0.1-1.2-0.4-1.5-0.9c-0.2-0.3-0.3-0.6-0.4-0.9c-0.1-0.4,0-0.7,0.1-1
					c0.2-0.4,0.7-0.6,1.4-0.5c0.5,0.1,0.8,0.2,1.1,0.5c0.3,0.2,0.4,0.4,0.5,0.7L997.2,70.4z M995.7,70.9c-0.2,0.1-0.3,0.2-0.2,0.5
					c0,0.2,0.2,0.4,0.3,0.6c0.2,0.1,0.4,0.3,0.7,0.3c0.3,0.1,0.5,0,0.7-0.1c0.2-0.1,0.2-0.3,0.2-0.5s-0.1-0.4-0.3-0.5
					c-0.2-0.2-0.4-0.3-0.8-0.3C996.1,70.8,995.9,70.8,995.7,70.9z"/>
				<path class="st8" d="M993.8,69.7c-0.1,0.2-0.4,0.3-0.8,0.4l-0.6,0.1c-0.3,0.1-0.5,0.1-0.6,0.2c-0.2,0.1-0.2,0.2-0.2,0.4
					c0,0.2,0.1,0.4,0.3,0.5c0.2,0.1,0.4,0.2,0.7,0.3c0.4,0.1,0.7,0,0.8-0.2c0.1-0.1,0.1-0.2,0.1-0.4l0.6,0.1c0,0.3,0,0.5-0.1,0.6
					c-0.2,0.3-0.7,0.3-1.3,0.2c-0.5-0.1-1-0.3-1.2-0.5c-0.3-0.2-0.4-0.5-0.5-0.7c0-0.3,0.1-0.5,0.3-0.6c0.1-0.1,0.4-0.2,0.8-0.2
					l0.4-0.1c0.2,0,0.4-0.1,0.5-0.1c0.2-0.1,0.3-0.2,0.4-0.4l-2.6-0.5l-0.1-0.4L994,69C994,69.3,993.9,69.5,993.8,69.7z"/>
				<path class="st8" d="M987.6,70.4c-0.2-0.3-0.4-0.7-0.5-1.1s0-0.8,0.1-1c0.2-0.4,0.6-0.5,1.3-0.4c0.6,0.1,1,0.4,1.3,0.7
					c0.3,0.3,0.4,0.7,0.5,1.2c0.1,0.4,0,0.7-0.1,0.9c-0.2,0.4-0.6,0.6-1.3,0.5C988.4,71.1,987.9,70.8,987.6,70.4z M987.9,68.4
					c-0.2,0.2-0.2,0.5-0.1,1c0,0.4,0.2,0.7,0.3,0.9c0.2,0.3,0.4,0.4,0.8,0.5c0.4,0.1,0.6,0,0.7-0.2c0.1-0.2,0.2-0.5,0.1-0.9
					c0-0.3-0.1-0.6-0.3-0.8c-0.2-0.3-0.5-0.5-0.9-0.6C988.3,68.2,988,68.2,987.9,68.4z"/>
			</g>
			<line class="st9" x1="1009.2" y1="71.1" x2="1004.9" y2="70.4"/>
			<line class="st6" x1="1008.6" y1="68.9" x2="1000.1" y2="67.7"/>
			<line class="st9" x1="1007.8" y1="66.6" x2="1003.7" y2="66.1"/>
			<line class="st6" x1="1006.9" y1="64.3" x2="998.7" y2="63.6"/>
			<g class="st7">
				<path class="st8" d="M994.9,62.6c-0.1-0.2-0.3-0.4-0.5-0.5c-0.1-0.1-0.3-0.1-0.4-0.1c-0.3,0-0.5,0-0.6,0.2c-0.1,0.1-0.1,0.5,0,1
					c0.1-0.1,0.2-0.2,0.4-0.3c0.2,0,0.4-0.1,0.6,0c0.4,0,0.8,0.2,1.2,0.4c0.3,0.2,0.6,0.5,0.7,0.8s0.1,0.6-0.1,0.8
					c-0.2,0.2-0.5,0.3-1,0.2c-0.7-0.1-1.2-0.3-1.6-0.8c-0.2-0.3-0.4-0.6-0.5-0.9c-0.2-0.4-0.2-0.8-0.2-1.1c0.1-0.5,0.5-0.7,1.1-0.7
					c0.4,0,0.8,0.2,1.1,0.3c0.3,0.2,0.5,0.4,0.6,0.7H994.9z M993.7,63.3c-0.1,0.1-0.2,0.3-0.1,0.5s0.2,0.4,0.5,0.6
					c0.2,0.1,0.5,0.2,0.7,0.2c0.3,0,0.5,0,0.6-0.1s0.1-0.3,0-0.5s-0.2-0.4-0.4-0.5c-0.2-0.1-0.4-0.2-0.8-0.3
					C994.1,63.2,993.9,63.2,993.7,63.3z"/>
				<path class="st8" d="M989.7,61.4l0.3,0.8l2,0.2l0.2,0.4l-1.3,1.9h-0.5l-0.8-2.2l-0.7-0.1l-0.1-0.4l0.7,0.1l-0.3-0.8L989.7,61.4z
					 M990.1,62.5l0.6,1.5l0.9-1.4L990.1,62.5z"/>
				<path class="st8" d="M986.2,63.8c-0.3-0.3-0.5-0.7-0.7-1.1c-0.2-0.5-0.2-0.8-0.1-1.1c0.1-0.4,0.5-0.6,1.1-0.5
					c0.5,0,1,0.3,1.4,0.6c0.3,0.3,0.6,0.7,0.8,1.2c0.1,0.4,0.2,0.7,0.2,1c-0.1,0.5-0.4,0.7-1.1,0.6
					C987.1,64.4,986.6,64.1,986.2,63.8z M986,61.6c-0.1,0.2-0.1,0.5,0.1,1c0.1,0.4,0.3,0.7,0.5,0.9c0.2,0.3,0.5,0.4,0.9,0.4
					c0.3,0,0.5-0.1,0.6-0.3c0.1-0.2,0-0.5-0.1-1c-0.1-0.3-0.3-0.6-0.4-0.8c-0.3-0.3-0.6-0.5-1-0.5C986.3,61.4,986.1,61.4,986,61.6z"
					/>
			</g>
			<line class="st9" x1="1005.9" y1="62" x2="1001.9" y2="61.8"/>
			<line class="st6" x1="1004.8" y1="59.7" x2="996.9" y2="59.5"/>
		</g>
		<g>
			<path class="st10" d="M777.6,23.2l-4.7,97.6h276.8l-60.3-100L777.6,23.2z M861.4,77c-14.5,0.1-27.3-8.5-28.5-19
				c-1.2-10.6,8.4-19.2,21.5-19.4c13-0.1,25.8,8.4,28.5,19C885.6,68.2,876,76.9,861.4,77z"/>
			<path class="st11" d="M850.2,57.7c-1.1-6.7-0.7-13.1,0.9-19.1c-11.3,1.4-19.3,9.5-18.2,19.2s11.8,17.6,24.8,18.9
				C853.8,70.8,851.3,64.4,850.2,57.7z"/>
			<path class="st12" d="M912.8,24.9l-57,0.6c-21,0.2-36.9,14.7-35.5,32.4s22.8,31.9,48,31.8l68.3-0.2c25.2-0.1,38.5-14.7,29.9-32.6
				C957.8,39,933.8,24.6,912.8,24.9z M861.4,76.9c-14.6,0.1-27.4-8.5-28.6-19.1s8.4-19.3,21.5-19.4s25.9,8.4,28.6,19.1
				S876,76.8,861.4,76.9z"/>
			<path class="st13" d="M915.2,31.3c17.1-0.2,36.3,11.3,42.9,25.6s-4.1,26-23.9,26.1s-39-11.4-42.9-25.6S898.1,31.5,915.2,31.3z"/>
			<line class="st14" x1="850.2" y1="57.7" x2="832.9" y2="57.8"/>
			<g class="st7">
				<path d="M857.9,109l-3.9-7l0,0l-1.8,7h-1.7l-4.3-8.3h1.6l3.4,6.9l0,0l1.7-6.9h1.7l3.8,6.9l0,0l1.3-6.9h1.6l-1.9,8.3H857.9z"/>
				<path d="M868.1,100.6l6.4,8.3h-1.8l-1.8-2.5h-5.2l-0.9,2.5h-1.7l3.3-8.3H868.1z M870.2,105.5l-2.8-3.9l0,0l-1.4,3.9H870.2z"/>
				<path d="M878.7,108.9l-6-8.3h1.7l5,7.2l0,0l2-7.2h1.7l-2.5,8.3H878.7z"/>
				<path d="M892.8,100.6l0.2,0.9h-6.8l0.6,2.6h6.4l0.2,0.9H887l0.7,2.9h6.9l0.2,0.9h-8.6l-1.9-8.3L892.8,100.6z"/>
				<path d="M896.4,100.6l1.9,7.4h6.5l0.3,0.9h-8.2l-2.1-8.3L896.4,100.6L896.4,100.6z"/>
				<path d="M912.6,100.6l0.3,0.9h-6.8l0.7,2.7h6.4l0.3,0.9h-6.4l0.8,2.9h6.9l0.3,0.9h-8.6l-2.3-8.3L912.6,100.6L912.6,100.6z"/>
				<path d="M916.3,100.6l8.6,6.8l0,0l-2.2-6.8h1.5l2.7,8.4h-1.8l-8.5-6.7l0,0l2.1,6.7h-1.6l-2.5-8.3L916.3,100.6z"/>
				<path d="M937,108.8c-0.6,0.2-1.3,0.3-2.1,0.3c-0.9,0-1.8-0.1-2.6-0.3c-0.8-0.2-1.5-0.5-2.2-0.9c-0.6-0.4-1.2-0.8-1.6-1.3
					s-0.7-1-0.9-1.6c-0.2-0.6-0.3-1.2-0.2-1.7c0.1-0.6,0.3-1,0.6-1.4c0.3-0.4,0.8-0.7,1.5-1c0.6-0.2,1.4-0.4,2.4-0.4
					c0.7,0,1.3,0.1,1.9,0.2c0.6,0.1,1.2,0.3,1.7,0.5s1,0.5,1.5,0.9c0.4,0.3,0.8,0.8,1.1,1.3h-1.6c-0.2-0.3-0.4-0.6-0.7-0.8
					c-0.3-0.2-0.6-0.4-1-0.6c-0.4-0.1-0.8-0.3-1.2-0.3c-0.4-0.1-0.9-0.1-1.3-0.1c-0.7,0-1.3,0.1-1.8,0.3s-0.8,0.5-1,0.8
					c-0.2,0.3-0.3,0.7-0.4,1.1c0,0.4,0,0.9,0.2,1.3c0.1,0.4,0.4,0.9,0.7,1.3c0.3,0.4,0.7,0.8,1.2,1.1s1,0.6,1.6,0.7
					c0.6,0.2,1.2,0.3,1.9,0.3c0.6,0,1.2-0.1,1.6-0.2c0.4-0.1,0.8-0.3,1-0.6c0.3-0.2,0.4-0.5,0.5-0.9c0.1-0.3,0-0.7-0.2-1.1h-3.9
					l-0.3-0.9h5.4l1.6,4.4h-1l-0.8-1C938.2,108.3,937.7,108.6,937,108.8z"/>
				<path d="M938.8,101.5l-0.3-0.9h9.7l0.4,0.9h-4l2.8,7.4h-1.6l-2.8-7.4H938.8z"/>
				<path d="M951.1,100.5l1.4,3.6h6.4l-1.5-3.6h1.6l3.5,8.4h-1.6l-1.6-3.8h-6.5l1.5,3.8h-1.6l-3.3-8.4H951.1z"/>
			</g>
		</g>
		<g>
			<path class="st15" d="M958.8,57.1c6.7,14.6-4.2,26.5-24.3,26.5c-20.2,0.1-39.7-11.6-43.7-26.1s6.9-26.4,24.3-26.5
				C932.5,30.8,952.1,42.5,958.8,57.1z"/>
			<path class="st16" d="M916.1,33.7c4.4,0,9.1,2.9,10.5,6.5s-1.1,6.6-5.7,6.6c-4.6,0-9.3-2.9-10.5-6.5
				C909.2,36.7,911.7,33.8,916.1,33.7z"/>
		</g>
	</g>
</g>
<g>
	<g>
		<path class="st5" d="M256.2,107.9H151.8c-8.3,11.7-13.2,25.9-13.2,41.3c0,16.5,5.6,31.6,14.9,43.7h102.6V107.9z"/>
		<g>
			<line class="st6" x1="142" y1="127.5" x2="148.8" y2="129.7"/>
			<line class="st9" x1="141.2" y1="130.2" x2="144.7" y2="131.1"/>
			<line class="st6" x1="140.6" y1="132.8" x2="147.5" y2="134.5"/>
			<line class="st9" x1="139.9" y1="135.5" x2="143.5" y2="136.2"/>
			<line class="st6" x1="139.5" y1="138.3" x2="146.5" y2="139.3"/>
			<line class="st9" x1="139.1" y1="141" x2="142.7" y2="141.4"/>
			<line class="st6" x1="138.9" y1="143.7" x2="146" y2="144.3"/>
			<line class="st9" x1="138.7" y1="146.5" x2="142.3" y2="146.6"/>
			<line class="st6" x1="138.7" y1="149.3" x2="145.8" y2="149.3"/>
			<line class="st9" x1="138.7" y1="152" x2="142.3" y2="151.8"/>
			<line class="st6" x1="138.9" y1="154.7" x2="146" y2="154.1"/>
			<line class="st9" x1="139.1" y1="157.5" x2="142.7" y2="157"/>
			<line class="st6" x1="139.5" y1="160.2" x2="146.6" y2="159.1"/>
			<line class="st9" x1="140" y1="162.9" x2="143.5" y2="162.2"/>
			<line class="st6" x1="140.6" y1="165.6" x2="147.5" y2="164"/>
			<line class="st9" x1="141.2" y1="168.3" x2="144.7" y2="167.3"/>
			<line class="st6" x1="142" y1="170.9" x2="148.8" y2="168.7"/>
		</g>
		<path class="st10" d="M102,103.2v114.5h164.3V103.2C266.4,103.2,102,103.2,102,103.2z M146,172.6c-12.8,0-23.3-10.4-23.3-23.3
			s10.4-23.3,23.3-23.3s23.3,10.4,23.3,23.3C169.4,162.2,159,172.6,146,172.6z"/>
		<path class="st11" d="M138.9,149.2c0-8.1,1.4-15.9,3.9-23.1c-11.3,1.6-20,11.3-20,23.1s8.7,21.5,20,23.1
			C140.3,165.1,138.9,157.3,138.9,149.2z"/>
		<path class="st19" d="M208.4,110.3H150c-21.5,0-38.9,17.4-38.9,38.9s17.4,38.9,38.9,38.9h58.4c21.5,0,38.9-17.4,38.9-38.9
			S229.8,110.3,208.4,110.3z M146.1,172.5c-12.9,0-23.3-10.4-23.3-23.3s10.4-23.3,23.3-23.3s23.3,10.4,23.3,23.3
			S159,172.5,146.1,172.5z"/>
		<circle class="st13" cx="208.4" cy="149.2" r="31.1"/>
		<line class="st14" x1="138.9" y1="149.2" x2="122.8" y2="149.2"/>
		<text transform="matrix(1 0 0 1 129.7252 211.3866)" style="font-family:'HelveticaNeue'; font-size:14.1014px;">WAVELENGTH</text>
		<path class="st15" d="M240,149.3c0,17.5-14.2,31.7-31.7,31.7s-31.7-14.2-31.7-31.7s14.2-31.7,31.7-31.7S240,131.9,240,149.3z"/>
		<circle class="st16" cx="208.4" cy="128.9" r="7.9"/>
	</g>
</g>
<g>
	<text transform="matrix(1 0 0 1 -49.0541 362.3775)" style="font-family:'HelveticaNeue'; font-size:14.1014px;">WAVELENGTH</text>
	<path class="st20" d="M61.9,272.3h-83.2c-6.6,9.3-10.5,20.7-10.5,32.9c0,13.1,4.4,25.2,11.9,34.8h81.8V272.3z"/>
	<g>
		<line class="st6" x1="-29.1" y1="288" x2="-23.7" y2="289.7"/>
		<line class="st9" x1="-29.8" y1="290.1" x2="-27" y2="290.9"/>
		<line class="st6" x1="-30.3" y1="292.2" x2="-24.8" y2="293.6"/>
		<line class="st9" x1="-30.8" y1="294.4" x2="-28" y2="294.9"/>
		<line class="st6" x1="-31.2" y1="296.6" x2="-25.6" y2="297.4"/>
		<line class="st9" x1="-31.4" y1="298.7" x2="-28.6" y2="299.1"/>
		<line class="st6" x1="-31.6" y1="300.9" x2="-26" y2="301.4"/>
		<line class="st9" x1="-31.8" y1="303.1" x2="-29" y2="303.2"/>
		<line class="st6" x1="-31.8" y1="305.3" x2="-26.1" y2="305.3"/>
		<line class="st9" x1="-31.8" y1="307.5" x2="-29" y2="307.4"/>
		<line class="st6" x1="-31.6" y1="309.7" x2="-26" y2="309.2"/>
		<line class="st9" x1="-31.4" y1="311.9" x2="-28.6" y2="311.5"/>
		<line class="st6" x1="-31.1" y1="314.1" x2="-25.5" y2="313.2"/>
		<line class="st9" x1="-30.7" y1="316.2" x2="-28" y2="315.7"/>
		<line class="st6" x1="-30.3" y1="318.4" x2="-24.8" y2="317.1"/>
		<line class="st9" x1="-29.8" y1="320.5" x2="-27" y2="319.7"/>
		<line class="st6" x1="-29.1" y1="322.6" x2="-23.7" y2="320.9"/>
	</g>
	<path class="st10" d="M-61,268.6v76.2H63v-76.2C63,268.6-61,268.6-61,268.6z M-26,323.9c-10.2,0-18.5-8.3-18.5-18.5
		s8.3-18.5,18.5-18.5s18.5,8.3,18.5,18.5C-7.3,315.6-15.7,323.9-26,323.9z"/>
	<path class="st20" d="M-31.6,305.3c0-6.5,1.1-12.7,3.1-18.4c-9,1.3-16,9-16,18.4c0,9.4,7,17.1,16,18.4
		C-30.6,317.9-31.6,311.7-31.6,305.3z"/>
	<path class="st21" d="M23.7,279.4h-46.5c-17.1,0-31,13.9-31,31s13.9,31,31,31h46.5c17.1,0,31-13.9,31-31
		C54.7,293.2,40.8,279.4,23.7,279.4z M-25.9,329c-10.3,0-18.6-8.3-18.6-18.6c0-10.3,8.3-18.6,18.6-18.6s18.6,8.3,18.6,18.6
		C-7.3,320.7-15.7,329-25.9,329z"/>
	<path class="st19" d="M23.7,274.3h-46.5c-17.1,0-31,13.9-31,31s13.9,31,31,31h46.5c17.1,0,31-13.9,31-31
		C54.7,288.1,40.8,274.3,23.7,274.3z M-25.9,323.9c-10.3,0-18.6-8.3-18.6-18.6c0-10.3,8.3-18.6,18.6-18.6s18.6,8.3,18.6,18.6
		C-7.3,315.6-15.7,323.9-25.9,323.9z"/>
	<circle class="st13" cx="23.7" cy="305.3" r="24.8"/>
	<line class="st14" x1="-31.6" y1="305.3" x2="-44.5" y2="305.3"/>
	<path class="st15" d="M49,305.4c0,13.9-11.3,25.3-25.3,25.3s-25.3-11.3-25.3-25.3s11.3-25.3,25.3-25.3S49,291.5,49,305.4z"/>
	<circle class="st16" cx="23.7" cy="289.1" r="6.3"/>
</g>
<g>
	<g>
		<g class="st7">
			<path d="M828.6,112.6l-2.7-8.2l0,0l-2.8,8.2l-1.7,0l-3.1-9.7l1.6,0l2.3,8.1l0,0l2.7-8.1l1.7,0l2.6,8.1h0l2.4-8.1l1.6,0l-3.2,9.7
				L828.6,112.6z"/>
			<path d="M840,102.9l4.7,9.7l-1.8,0l-1.3-2.9l-5.1,0l-1.3,2.9l-1.6,0l4.7-9.7L840,102.9z M841.1,108.6l-2-4.5l0,0l-2,4.5
				L841.1,108.6z"/>
			<path d="M848.7,112.6l-4.2-9.7l1.7,0l3.4,8.4h0l3.4-8.5l1.7,0l-4.3,9.7L848.7,112.6z"/>
			<path d="M864.3,102.9v1.1l-6.7,0v3.1l6.2,0v1.1l-6.2,0v3.4l6.7,0v1.1l-8.3,0v-9.7L864.3,102.9z"/>
			<path d="M867.9,102.9v8.7l6.3,0v1.1l-7.9,0v-9.8L867.9,102.9z"/>
			<path d="M883.8,102.9v1.1l-6.7,0v3.1l6.2,0v1.1l-6.2,0v3.4l6.7,0v1.1l-8.3,0v-9.8L883.8,102.9z"/>
			<path d="M887.5,102.9l6.3,7.9l0,0v-7.9l1.5,0v9.8l-1.7,0l-6.2-7.8l0,0v7.8l-1.5,0v-9.8L887.5,102.9z"/>
			<path d="M905.1,112.5c-0.7,0.2-1.4,0.3-2.1,0.3c-0.9,0-1.7-0.1-2.4-0.4s-1.3-0.6-1.8-1.1c-0.5-0.5-0.9-1-1.1-1.6
				c-0.3-0.6-0.4-1.2-0.4-1.8c0-0.7,0.1-1.4,0.4-2c0.2-0.6,0.6-1.2,1.1-1.7c0.5-0.5,1.1-0.9,1.8-1.2c0.7-0.3,1.5-0.4,2.5-0.4
				c0.6,0,1.3,0.1,1.8,0.2c0.6,0.1,1.1,0.3,1.5,0.6c0.5,0.3,0.8,0.6,1.1,1c0.3,0.4,0.5,0.9,0.6,1.5l-1.6,0c-0.1-0.4-0.2-0.7-0.4-1
				c-0.2-0.3-0.5-0.5-0.8-0.7c-0.3-0.2-0.7-0.3-1.1-0.4c-0.4-0.1-0.8-0.1-1.3-0.1c-0.7,0-1.3,0.1-1.9,0.4c-0.5,0.2-0.9,0.5-1.3,0.9
				c-0.3,0.4-0.6,0.8-0.7,1.3c-0.2,0.5-0.2,1-0.2,1.5c0,0.5,0.1,1,0.3,1.5c0.2,0.5,0.4,0.9,0.8,1.2c0.3,0.4,0.8,0.6,1.3,0.9
				s1.1,0.3,1.8,0.3c0.6,0,1.2-0.1,1.7-0.2c0.5-0.2,0.9-0.4,1.2-0.7c0.3-0.3,0.6-0.6,0.7-1s0.2-0.8,0.2-1.3l-3.8,0v-1.1l5.2,0v5.1
				l-1,0l-0.4-1.2C906.4,111.9,905.8,112.3,905.1,112.5z"/>
			<path d="M909.3,104v-1.1l9.6,0v1.1l-4,0v8.7l-1.6,0V104L909.3,104z"/>
			<path d="M921.8,102.9v4.2l6.3,0v-4.2l1.6,0v9.8l-1.6,0v-4.5l-6.3,0v4.5l-1.6,0v-9.8L921.8,102.9z"/>
		</g>
		<path class="st20" d="M949.9,25.3l-98.8,0.2c-7.8,9-12.5,20-12.5,31.9c0,12.7,5.3,24.4,14.1,33.7l97.1,0V25.3z"/>
		<g>
			<line class="st6" x1="841.8" y1="40.7" x2="848.3" y2="42.3"/>
			<line class="st9" x1="841" y1="42.7" x2="844.3" y2="43.4"/>
			<line class="st6" x1="840.4" y1="44.8" x2="847" y2="46"/>
			<line class="st9" x1="839.8" y1="46.9" x2="843.2" y2="47.3"/>
			<line class="st6" x1="839.4" y1="49" x2="846" y2="49.8"/>
			<line class="st9" x1="839.1" y1="51.1" x2="842.4" y2="51.4"/>
			<line class="st6" x1="838.8" y1="53.2" x2="845.5" y2="53.6"/>
			<line class="st9" x1="838.7" y1="55.3" x2="842" y2="55.4"/>
			<line class="st6" x1="838.6" y1="57.4" x2="845.4" y2="57.4"/>
			<line class="st9" x1="838.7" y1="59.5" x2="842" y2="59.4"/>
			<line class="st6" x1="838.8" y1="61.6" x2="845.5" y2="61.2"/>
			<line class="st9" x1="839.1" y1="63.8" x2="842.4" y2="63.4"/>
			<line class="st6" x1="839.4" y1="65.9" x2="846.1" y2="65"/>
			<line class="st9" x1="839.9" y1="68" x2="843.2" y2="67.5"/>
			<line class="st6" x1="840.4" y1="70.1" x2="847" y2="68.8"/>
			<line class="st9" x1="841" y1="72.1" x2="844.3" y2="71.4"/>
			<line class="st6" x1="841.8" y1="74.1" x2="848.3" y2="72.5"/>
		</g>
		<path class="st10" d="M803.9,22v73.7l147.3-0.1V21.7C951.2,21.7,803.9,22,803.9,22z M845.6,75.4c-12.1,0-22-8-22-17.9
			s9.9-18,22-18s22,8,22,17.9C867.7,67.4,857.8,75.4,845.6,75.4z"/>
		<path class="st20" d="M838.8,57.4c0-6.2,1.3-12.3,3.7-17.8c-10.7,1.3-19,8.7-19,17.8s8.3,16.6,19,17.8
			C840.1,69.6,838.8,63.6,838.8,57.4z"/>
		<path class="st21" d="M904.6,32.2l-55.3,0.1c-20.3,0-36.8,13.5-36.8,30.1s16.5,30,36.8,30l55.3,0c20.3,0,36.8-13.5,36.8-30.1
			S924.9,32.2,904.6,32.2z M845.7,80.3c-12.2,0-22.1-8-22.1-18s9.9-18,22.1-18c12.2,0,22.1,8,22.1,18S857.8,80.3,845.7,80.3z"/>
		<path class="st19" d="M904.6,27.3l-55.3,0.1c-20.3,0-36.8,13.5-36.8,30.1s16.5,30,36.8,30l55.3,0c20.3,0,36.8-13.5,36.8-30.1
			S924.9,27.2,904.6,27.3z M845.7,75.4c-12.2,0-22.1-8-22.1-18s9.9-18,22.1-18c12.2,0,22.1,8,22.1,18S857.8,75.4,845.7,75.4z"/>
		<path class="st13" d="M904.6,33.3c16.3,0,29.4,10.7,29.4,24s-13.2,24.1-29.4,24.1c-16.3,0-29.4-10.7-29.4-24
			S888.3,33.3,904.6,33.3z"/>
		<line class="st14" x1="838.8" y1="57.4" x2="823.6" y2="57.4"/>
		<path class="st22" d="M934.6,57.4c0,13.5-13.4,24.5-30,24.5c-16.5,0-30-10.9-30-24.4s13.4-24.5,30-24.5
			C921.1,32.9,934.6,43.9,934.6,57.4z"/>
		<path class="st15" d="M934.6,54.5c0,13.5-13.4,24.5-30,24.5c-16.5,0-30-10.9-30-24.4s13.4-24.5,30-24.5
			C921.1,30.1,934.6,41,934.6,54.5z"/>
		<path class="st16" d="M904.6,32.6c4.2,0,7.5,2.7,7.5,6.1s-3.4,6.1-7.5,6.1c-4.1,0-7.5-2.7-7.5-6.1S900.4,32.6,904.6,32.6z"/>
	</g>
</g>
</svg>
