<?xml version="1.0" encoding="utf-8"?>
<!-- Generator: Adobe Illustrator 15.1.0, SVG Export Plug-In . SVG Version: 6.00 Build 0)  -->
<!DOCTYPE svg PUBLIC "-//W3C//DTD SVG 1.1//EN" "http://www.w3.org/Graphics/SVG/1.1/DTD/svg11.dtd">
<svg version="1.1" id="Layer_1" xmlns="http://www.w3.org/2000/svg" xmlns:xlink="http://www.w3.org/1999/xlink" x="0px" y="0px"
	 width="100px" height="100px" viewBox="0 0 100 100" enable-background="new 0 0 100 100" xml:space="preserve">
<circle fill="#F1EBE1" stroke="#010101" stroke-width="0.5" stroke-miterlimit="10" cx="50" cy="50" r="48.5"/>
<g>
	<line fill="none" stroke="#010101" stroke-width="0.625" x1="98.5" y1="49.998" x2="93.65" y2="49.998"/>
	<text transform="matrix(-1 0 0 -1 92.0352 48.7871)" fill="#010101" font-family="'Helvetica'" font-size="3.8802">340</text>
	<line fill="none" stroke="#010101" stroke-width="0.25" x1="98.464" y1="48.125" x2="96.041" y2="48.219"/>
	<line fill="none" stroke="#010101" stroke-width="0.625" x1="98.356" y1="46.255" x2="93.52" y2="46.629"/>
	<line fill="none" stroke="#010101" stroke-width="0.25" x1="98.174" y1="44.39" x2="95.767" y2="44.671"/>
	<line fill="none" stroke="#010101" stroke-width="0.625" x1="97.922" y1="42.534" x2="93.13" y2="43.281"/>
	
		<text transform="matrix(-0.9881 0.1539 -0.1539 -0.9881 91.3477 42.334)" fill="#010101" font-family="'Helvetica'" font-size="3.8802">360</text>
	<line fill="none" stroke="#010101" stroke-width="0.25" x1="97.599" y1="40.689" x2="95.219" y2="41.154"/>
	<line fill="none" stroke="#010101" stroke-width="0.625" x1="97.203" y1="38.858" x2="92.483" y2="39.972"/>
	<line fill="none" stroke="#010101" stroke-width="0.25" x1="96.738" y1="37.044" x2="94.4" y2="37.691"/>
	<line fill="none" stroke="#010101" stroke-width="0.625" x1="96.203" y1="35.248" x2="91.582" y2="36.723"/>
	
		<text transform="matrix(-0.9526 0.3041 -0.3041 -0.9526 89.6748 36.0625)" fill="#010101" font-family="'Helvetica'" font-size="3.88">380</text>
	<line fill="none" stroke="#010101" stroke-width="0.25" x1="95.6" y1="33.475" x2="93.318" y2="34.3"/>
	<line fill="none" stroke="#010101" stroke-width="0.625" x1="94.927" y1="31.726" x2="90.433" y2="33.554"/>
	<line fill="none" stroke="#010101" stroke-width="0.25" x1="94.188" y1="30.004" x2="91.978" y2="31.004"/>
	<line fill="none" stroke="#010101" stroke-width="0.625" x1="93.383" y1="28.314" x2="89.044" y2="30.481"/>
	
		<text transform="matrix(-0.8945 0.4471 -0.4471 -0.8945 87.0586 30.1182)" fill="#010101" font-family="'Helvetica'" font-size="3.8802">400</text>
	<line fill="none" stroke="#010101" stroke-width="0.25" x1="92.514" y1="26.654" x2="90.388" y2="27.821"/>
	<line fill="none" stroke="#010101" stroke-width="0.625" x1="91.579" y1="25.029" x2="87.421" y2="27.527"/>
	<line fill="none" stroke="#010101" stroke-width="0.25" x1="90.585" y1="23.442" x2="88.555" y2="24.771"/>
	<line fill="none" stroke="#010101" stroke-width="0.625" x1="89.528" y1="21.895" x2="85.575" y2="24.705"/>
	
		<text transform="matrix(-0.815 0.5794 -0.5794 -0.815 83.5557 24.6523)" fill="#010101" font-family="'Helvetica'" font-size="3.8801">420</text>
	<line fill="none" stroke="#010101" stroke-width="0.25" x1="88.413" y1="20.39" x2="86.492" y2="21.87"/>
	<line fill="none" stroke="#010101" stroke-width="0.625" x1="87.243" y1="18.928" x2="83.518" y2="22.035"/>
	<line fill="none" stroke="#010101" stroke-width="0.25" x1="86.014" y1="17.513" x2="84.213" y2="19.138"/>
	<line fill="none" stroke="#010101" stroke-width="0.625" x1="84.732" y1="16.146" x2="81.26" y2="19.531"/>
	
		<text transform="matrix(-0.7162 0.6979 -0.6979 -0.7162 79.2568 19.791)" fill="#010101" font-family="'Helvetica'" font-size="3.8802">440</text>
	<line fill="none" stroke="#010101" stroke-width="0.25" x1="83.4" y1="14.831" x2="81.729" y2="16.588"/>
	<line fill="none" stroke="#010101" stroke-width="0.625" x1="82.018" y1="13.567" x2="78.814" y2="17.21"/>
	<line fill="none" stroke="#010101" stroke-width="0.25" x1="80.586" y1="12.357" x2="79.057" y2="14.239"/>
	<line fill="none" stroke="#010101" stroke-width="0.625" x1="79.109" y1="11.204" x2="76.198" y2="15.084"/>
	
		<text transform="matrix(-0.6002 0.7998 -0.7998 -0.6002 74.2588 15.645)" fill="#010101" font-family="'Helvetica'" font-size="3.88">460</text>
	<line fill="none" stroke="#010101" stroke-width="0.25" x1="77.59" y1="10.109" x2="76.211" y2="12.104"/>
	<line fill="none" stroke="#010101" stroke-width="0.625" x1="76.029" y1="9.074" x2="73.426" y2="13.166"/>
	<line fill="none" stroke="#010101" stroke-width="0.25" x1="74.43" y1="8.099" x2="73.208" y2="10.194"/>
	<line fill="none" stroke="#010101" stroke-width="0.625" x1="72.793" y1="7.186" x2="70.514" y2="11.468"/>
	
		<text transform="matrix(-0.47 0.8827 -0.8827 -0.47 68.6836 12.3213)" fill="#010101" font-family="'Helvetica'" font-size="3.8803">480</text>
	<line fill="none" stroke="#010101" stroke-width="0.25" x1="71.122" y1="6.338" x2="70.066" y2="8.522"/>
	<line fill="none" stroke="#010101" stroke-width="0.625" x1="69.421" y1="5.555" x2="67.479" y2="10"/>
	<line fill="none" stroke="#010101" stroke-width="0.25" x1="67.689" y1="4.838" x2="66.806" y2="7.096"/>
	<line fill="none" stroke="#010101" stroke-width="0.625" x1="65.933" y1="4.188" x2="64.34" y2="8.771"/>
	
		<text transform="matrix(-0.3285 0.9445 -0.9445 -0.3285 62.6621 9.895)" fill="#010101" font-family="'Helvetica'" font-size="3.8802">500</text>
	<line fill="none" stroke="#010101" stroke-width="0.25" x1="64.152" y1="3.607" x2="63.443" y2="5.926"/>
	<line fill="none" stroke="#010101" stroke-width="0.625" x1="62.351" y1="3.096" x2="61.115" y2="7.786"/>
	<line fill="none" stroke="#010101" stroke-width="0.25" x1="60.53" y1="2.653" x2="60.003" y2="5.02"/>
	<line fill="none" stroke="#010101" stroke-width="0.625" x1="58.694" y1="2.282" x2="57.824" y2="7.053"/>
	
		<text transform="matrix(-0.1793 0.9838 -0.9838 -0.1793 56.3398 8.4238)" fill="#010101" font-family="'Helvetica'" font-size="3.8802">520</text>
	<line fill="none" stroke="#010101" stroke-width="0.25" x1="56.845" y1="1.982" x2="56.502" y2="4.383"/>
	<line fill="none" stroke="#010101" stroke-width="0.625" x1="54.984" y1="1.753" x2="54.486" y2="6.577"/>
	<line fill="none" stroke="#010101" stroke-width="0.25" x1="53.118" y1="1.597" x2="52.963" y2="4.018"/>
	<line fill="none" stroke="#010101" stroke-width="0.625" x1="51.247" y1="1.513" x2="51.121" y2="6.36"/>
	
		<text transform="matrix(-0.0257 0.9997 -0.9997 -0.0257 49.8643 7.9419)" fill="#010101" font-family="'Helvetica'" font-size="3.8803">540</text>
	<line fill="none" stroke="#010101" stroke-width="0.25" x1="49.374" y1="1.5" x2="49.406" y2="3.925"/>
	<line fill="none" stroke="#010101" stroke-width="0.625" x1="47.501" y1="1.56" x2="47.751" y2="6.404"/>
	<line fill="none" stroke="#010101" stroke-width="0.25" x1="45.633" y1="1.693" x2="45.852" y2="4.108"/>
	<line fill="none" stroke="#010101" stroke-width="0.625" x1="43.771" y1="1.898" x2="44.394" y2="6.708"/>
	
		<text transform="matrix(0.1284 0.9917 -0.9917 0.1284 43.3945 8.4619)" fill="#010101" font-family="'Helvetica'" font-size="3.8801">560</text>
	<line fill="none" stroke="#010101" stroke-width="0.25" x1="41.917" y1="2.174" x2="42.321" y2="4.565"/>
	<line fill="none" stroke="#010101" stroke-width="0.625" x1="40.077" y1="2.521" x2="41.068" y2="7.27"/>
	<line fill="none" stroke="#010101" stroke-width="0.25" x1="38.251" y1="2.94" x2="38.838" y2="5.293"/>
	<line fill="none" stroke="#010101" stroke-width="0.625" x1="36.442" y1="3.43" x2="37.798" y2="8.086"/>
	
		<text transform="matrix(0.2795 0.9601 -0.9601 0.2795 37.0825 9.9741)" fill="#010101" font-family="'Helvetica'" font-size="3.88">580</text>
	<line fill="none" stroke="#010101" stroke-width="0.25" x1="34.655" y1="3.987" x2="35.422" y2="6.288"/>
	<line fill="none" stroke="#010101" stroke-width="0.625" x1="32.889" y1="4.614" x2="34.6" y2="9.152"/>
	<line fill="none" stroke="#010101" stroke-width="0.25" x1="31.149" y1="5.308" x2="32.092" y2="7.542"/>
	<line fill="none" stroke="#010101" stroke-width="0.625" x1="29.437" y1="6.07" x2="31.493" y2="10.463"/>
	
		<text transform="matrix(0.4239 0.9057 -0.9057 0.4239 31.0781 12.4395)" fill="#010101" font-family="'Helvetica'" font-size="3.8802">600</text>
	<line fill="none" stroke="#010101" stroke-width="0.25" x1="27.756" y1="6.896" x2="28.868" y2="9.053"/>
	<line fill="none" stroke="#010101" stroke-width="0.625" x1="26.109" y1="7.788" x2="28.498" y2="12.008"/>
	<line fill="none" stroke="#010101" stroke-width="0.25" x1="24.497" y1="8.742" x2="25.771" y2="10.804"/>
	<line fill="none" stroke="#010101" stroke-width="0.625" x1="22.922" y1="9.758" x2="25.63" y2="13.781"/>
	
		<text transform="matrix(0.5582 0.8297 -0.8297 0.5582 25.5225 15.7969)" fill="#010101" font-family="'Helvetica'" font-size="3.8802">620</text>
	<line fill="none" stroke="#010101" stroke-width="0.25" x1="21.389" y1="10.833" x2="22.82" y2="12.791"/>
	<line fill="none" stroke="#010101" stroke-width="0.625" x1="19.898" y1="11.967" x2="22.908" y2="15.77"/>
	<line fill="none" stroke="#010101" stroke-width="0.25" x1="18.451" y1="13.158" x2="20.029" y2="15"/>
	<line fill="none" stroke="#010101" stroke-width="0.625" x1="17.052" y1="14.403" x2="20.347" y2="17.963"/>
	
		<text transform="matrix(0.6793 0.7339 -0.7339 0.6793 20.5532 19.9688)" fill="#010101" font-family="'Helvetica'" font-size="3.8803">640</text>
	<line fill="none" stroke="#010101" stroke-width="0.25" x1="15.702" y1="15.702" x2="17.417" y2="17.417"/>
	<line fill="none" stroke="#010101" stroke-width="0.625" x1="14.403" y1="17.052" x2="17.963" y2="20.347"/>
	<line fill="none" stroke="#010101" stroke-width="0.25" x1="13.158" y1="18.451" x2="15" y2="20.029"/>
	<line fill="none" stroke="#010101" stroke-width="0.625" x1="11.967" y1="19.898" x2="15.77" y2="22.908"/>
	
		<text transform="matrix(0.7841 0.6206 -0.6206 0.7841 16.2827 24.8594)" fill="#010101" font-family="'Helvetica'" font-size="3.8801">660</text>
	<line fill="none" stroke="#010101" stroke-width="0.25" x1="10.833" y1="21.389" x2="12.791" y2="22.82"/>
	<line fill="none" stroke="#010101" stroke-width="0.625" x1="9.758" y1="22.922" x2="13.781" y2="25.63"/>
	<line fill="none" stroke="#010101" stroke-width="0.25" x1="8.742" y1="24.497" x2="10.804" y2="25.771"/>
	<line fill="none" stroke="#010101" stroke-width="0.625" x1="7.788" y1="26.109" x2="12.009" y2="28.498"/>
	
		<text transform="matrix(0.8703 0.4925 -0.4925 0.8703 12.8149 30.3477)" fill="#010101" font-family="'Helvetica'" font-size="3.8802">680</text>
	<line fill="none" stroke="#010101" stroke-width="0.25" x1="6.896" y1="27.756" x2="9.052" y2="28.868"/>
	<line fill="none" stroke="#010101" stroke-width="0.625" x1="6.07" y1="29.437" x2="10.463" y2="31.493"/>
	<line fill="none" stroke="#010101" stroke-width="0.25" x1="5.308" y1="31.149" x2="7.543" y2="32.092"/>
	<line fill="none" stroke="#010101" stroke-width="0.625" x1="4.614" y1="32.889" x2="9.152" y2="34.6"/>
	
		<text transform="matrix(0.9357 0.3528 -0.3528 0.9357 10.2344 36.3057)" fill="#010101" font-family="'Helvetica'" font-size="3.8802">700</text>
	<line fill="none" stroke="#010101" stroke-width="0.25" x1="3.987" y1="34.655" x2="6.288" y2="35.422"/>
	<line fill="none" stroke="#010101" stroke-width="0.625" x1="3.429" y1="36.442" x2="8.086" y2="37.798"/>
	<line fill="none" stroke="#010101" stroke-width="0.25" x1="2.94" y1="38.251" x2="5.293" y2="38.838"/>
	<line fill="none" stroke="#010101" stroke-width="0.625" x1="2.521" y1="40.077" x2="7.27" y2="41.068"/>
	
		<text transform="matrix(0.9788 0.2046 -0.2046 0.9788 8.6011 42.585)" fill="#010101" font-family="'Helvetica'" font-size="3.8804">720</text>
	<line fill="none" stroke="#010101" stroke-width="0.25" x1="2.174" y1="41.917" x2="4.565" y2="42.321"/>
	<line fill="none" stroke="#010101" stroke-width="0.625" x1="1.898" y1="43.771" x2="6.708" y2="44.394"/>
	<line fill="none" stroke="#010101" stroke-width="0.25" x1="1.693" y1="45.633" x2="4.108" y2="45.852"/>
	<line fill="none" stroke="#010101" stroke-width="0.625" x1="1.56" y1="47.501" x2="6.404" y2="47.751"/>
	
		<text transform="matrix(0.9987 0.0515 -0.0515 0.9987 7.9512 49.0464)" fill="#010101" font-family="'Helvetica'" font-size="3.8803">740</text>
	<line fill="none" stroke="#010101" stroke-width="0.25" x1="1.5" y1="49.374" x2="3.925" y2="49.406"/>
	<line fill="none" stroke="#010101" stroke-width="0.625" x1="1.513" y1="51.247" x2="6.361" y2="51.121"/>
	<line fill="none" stroke="#010101" stroke-width="0.25" x1="1.597" y1="53.118" x2="4.018" y2="52.963"/>
	<line fill="none" stroke="#010101" stroke-width="0.625" x1="1.753" y1="54.984" x2="6.577" y2="54.486"/>
	
		<text transform="matrix(0.9947 -0.1028 0.1028 0.9947 8.3066 55.5264)" fill="#010101" font-family="'Helvetica'" font-size="3.8802">760</text>
	<line fill="none" stroke="#010101" stroke-width="0.25" x1="1.982" y1="56.845" x2="4.383" y2="56.502"/>
	<line fill="none" stroke="#010101" stroke-width="0.625" x1="2.282" y1="58.694" x2="7.053" y2="57.824"/>
	<line fill="none" stroke="#010101" stroke-width="0.25" x1="2.653" y1="60.53" x2="5.02" y2="60.003"/>
	<line fill="none" stroke="#010101" stroke-width="0.625" x1="3.096" y1="62.351" x2="7.786" y2="61.115"/>
	<text transform="matrix(0.967 -0.2547 0.2547 0.967 9.6553 61.877)" fill="#010101" font-family="'Helvetica'" font-size="3.8801">780</text>
	<line fill="none" stroke="#010101" stroke-width="0.25" x1="3.607" y1="64.152" x2="5.926" y2="63.443"/>
	<line fill="none" stroke="#010101" stroke-width="0.625" x1="4.188" y1="65.933" x2="8.771" y2="64.34"/>
	<line fill="none" stroke="#010101" stroke-width="0.25" x1="4.838" y1="67.689" x2="7.096" y2="66.806"/>
	<line fill="none" stroke="#010101" stroke-width="0.625" x1="5.555" y1="69.421" x2="10" y2="67.479"/>
	
		<text transform="matrix(0.9163 -0.4005 0.4005 0.9163 11.9639 67.9443)" fill="#010101" font-family="'Helvetica'" font-size="3.8802">800</text>
	<line fill="none" stroke="#010101" stroke-width="0.25" x1="6.338" y1="71.122" x2="8.521" y2="70.066"/>
	<line fill="none" stroke="#010101" stroke-width="0.625" x1="7.186" y1="72.793" x2="11.468" y2="70.514"/>
	<line fill="none" stroke="#010101" stroke-width="0.25" x1="8.099" y1="74.43" x2="10.194" y2="73.208"/>
	<line fill="none" stroke="#010101" stroke-width="0.625" x1="9.074" y1="76.029" x2="13.166" y2="73.426"/>
	
		<text transform="matrix(0.8438 -0.5367 0.5367 0.8438 15.1777 73.582)" fill="#010101" font-family="'Helvetica'" font-size="3.8803">820</text>
	<line fill="none" stroke="#010101" stroke-width="0.25" x1="10.109" y1="77.59" x2="12.104" y2="76.211"/>
	<line fill="none" stroke="#010101" stroke-width="0.625" x1="11.204" y1="79.109" x2="15.084" y2="76.198"/>
	<line fill="none" stroke="#010101" stroke-width="0.25" x1="12.357" y1="80.586" x2="14.239" y2="79.057"/>
	<line fill="none" stroke="#010101" stroke-width="0.625" x1="13.567" y1="82.018" x2="17.21" y2="78.814"/>
	
		<text transform="matrix(0.7511 -0.6602 0.6602 0.7511 19.2227 78.6592)" fill="#010101" font-family="'Helvetica'" font-size="3.8802">840</text>
	<line fill="none" stroke="#010101" stroke-width="0.25" x1="14.831" y1="83.4" x2="16.588" y2="81.729"/>
	<line fill="none" stroke="#010101" stroke-width="0.625" x1="16.147" y1="84.732" x2="19.531" y2="81.26"/>
	<line fill="none" stroke="#010101" stroke-width="0.25" x1="17.513" y1="86.014" x2="19.138" y2="84.213"/>
	<line fill="none" stroke="#010101" stroke-width="0.625" x1="18.928" y1="87.243" x2="22.035" y2="83.518"/>
	
		<text transform="matrix(0.6406 -0.7679 0.7679 0.6406 23.9995 83.0566)" fill="#010101" font-family="'Helvetica'" font-size="3.8803">860</text>
	<line fill="none" stroke="#010101" stroke-width="0.25" x1="20.39" y1="88.413" x2="21.87" y2="86.492"/>
	<line fill="none" stroke="#010101" stroke-width="0.625" x1="21.895" y1="89.528" x2="24.705" y2="85.575"/>
	<line fill="none" stroke="#010101" stroke-width="0.25" x1="23.442" y1="90.585" x2="24.771" y2="88.556"/>
	<line fill="none" stroke="#010101" stroke-width="0.625" x1="25.029" y1="91.579" x2="27.527" y2="87.421"/>
	
		<text transform="matrix(0.5148 -0.8573 0.8573 0.5148 29.3945 86.6631)" fill="#010101" font-family="'Helvetica'" font-size="3.8802">880</text>
	<line fill="none" stroke="#010101" stroke-width="0.25" x1="26.654" y1="92.513" x2="27.821" y2="90.387"/>
	<line fill="none" stroke="#010101" stroke-width="0.625" x1="28.314" y1="93.383" x2="30.481" y2="89.044"/>
	<line fill="none" stroke="#010101" stroke-width="0.25" x1="30.005" y1="94.188" x2="31.004" y2="91.978"/>
	<line fill="none" stroke="#010101" stroke-width="0.625" x1="31.726" y1="94.927" x2="33.554" y2="90.433"/>
	
		<text transform="matrix(0.3767 -0.9263 0.9263 0.3767 35.2832 89.3965)" fill="#010101" font-family="'Helvetica'" font-size="3.8801">900</text>
	<line fill="none" stroke="#010101" stroke-width="0.25" x1="33.475" y1="95.599" x2="34.3" y2="93.318"/>
	<line fill="none" stroke="#010101" stroke-width="0.625" x1="35.248" y1="96.203" x2="36.723" y2="91.582"/>
	<line fill="none" stroke="#010101" stroke-width="0.25" x1="37.044" y1="96.738" x2="37.691" y2="94.4"/>
	<line fill="none" stroke="#010101" stroke-width="0.625" x1="38.858" y1="97.203" x2="39.972" y2="92.483"/>
	
		<text transform="matrix(0.2297 -0.9733 0.9733 0.2297 41.5225 91.1924)" fill="#010101" font-family="'Helvetica'" font-size="3.8803">920</text>
	<line fill="none" stroke="#010101" stroke-width="0.25" x1="40.689" y1="97.599" x2="41.154" y2="95.219"/>
	<line fill="none" stroke="#010101" stroke-width="0.625" x1="42.534" y1="97.922" x2="43.28" y2="93.13"/>
	<line fill="none" stroke="#010101" stroke-width="0.25" x1="44.39" y1="98.174" x2="44.671" y2="95.767"/>
	<line fill="none" stroke="#010101" stroke-width="0.625" x1="46.255" y1="98.356" x2="46.629" y2="93.52"/>
	
		<text transform="matrix(0.0772 -0.997 0.997 0.0772 47.9624 92.0039)" fill="#010101" font-family="'Helvetica'" font-size="3.8801">940</text>
	<line fill="none" stroke="#010101" stroke-width="0.25" x1="48.125" y1="98.464" x2="48.219" y2="96.041"/>
	<line fill="none" stroke="#010101" stroke-width="0.625" x1="49.998" y1="98.5" x2="49.998" y2="93.65"/>
</g>
</svg>
