<?xml version="1.0" encoding="utf-8"?>
<!-- Generator: Adobe Illustrator 19.1.0, SVG Export Plug-In . SVG Version: 6.00 Build 0)  -->
<svg version="1.1" id="Layer_1" xmlns="http://www.w3.org/2000/svg" xmlns:xlink="http://www.w3.org/1999/xlink" x="0px" y="0px"
	 viewBox="-165 297 280 200" style="enable-background:new -165 297 280 200;" xml:space="preserve">
<style type="text/css">
	.st0{fill:#F9F1DA;stroke:#C6B997;stroke-miterlimit:10;}
	.st1{fill:#F4EFE4;stroke:#010101;stroke-width:0.5;stroke-miterlimit:10;}
	.st2{fill:#F9F1DA;stroke:#010101;stroke-miterlimit:10;}
	.st3{fill:none;stroke:#010101;stroke-width:0.5;stroke-miterlimit:10;}
	.st4{font-family:'HelveticaNeue';}
	.st5{font-size:17.5848px;}
</style>
<g>
	<path class="st0" d="M-161.5,299.5v195h273v-195H-161.5z M-66.3,426.2c-16,0-29-13-29-29s13-29,29-29s29,13,29,29
		C-37.2,413.2-50.2,426.2-66.3,426.2z"/>
	<path class="st1" d="M-75.2,397c0-10.1,1.7-19.8,4.9-28.8c-14.1,2-25,14.1-25,28.8c0,14.7,10.9,26.8,25,28.8
		C-73.5,416.8-75.2,407.1-75.2,397z"/>
	<path class="st0" d="M11.4,348.5h-72.8c-26.8,0-48.5,21.7-48.5,48.5s21.7,48.5,48.5,48.5h72.8c26.8,0,48.5-21.7,48.5-48.5
		S38.2,348.5,11.4,348.5z M-66.2,426.1c-16.1,0-29.1-13-29.1-29.1s13-29.1,29.1-29.1s29.1,13,29.1,29.1S-50.2,426.1-66.2,426.1z"/>
	<circle class="st2" cx="11.4" cy="397" r="38.8"/>
	<line class="st3" x1="-75.2" y1="397" x2="-95.3" y2="397"/>
	<text transform="matrix(1 0 0 1 -86.6846 474.5635)" class="st4 st5">WAVELENGTH</text>
</g>
</svg>
