<?xml version="1.0" encoding="utf-8"?>
<!-- Generator: Adobe Illustrator 19.2.0, SVG Export Plug-In . SVG Version: 6.00 Build 0)  -->
<svg version="1.1" id="Layer_1" xmlns="http://www.w3.org/2000/svg" xmlns:xlink="http://www.w3.org/1999/xlink" x="0px" y="0px"
	 viewBox="0 0 400 300" style="enable-background:new 0 0 400 300;" xml:space="preserve">
<style type="text/css">
	.st0{fill:#331B0E;stroke:#000000;stroke-miterlimit:10;}
	.st1{fill:#3B1E0E;stroke:#000000;stroke-miterlimit:10;}
	.st2{fill:#2BB673;stroke:#000000;stroke-miterlimit:10;}
	.st3{fill:#67C18C;stroke:#000000;stroke-miterlimit:10;}
	.st4{fill:none;stroke:#000000;stroke-miterlimit:10;}
	.st5{fill:#FFFFFF;stroke:#A7A9AC;stroke-miterlimit:10;}
	.st6{font-family:'Helvetica-Bold';}
	.st7{font-size:40px;}
	.st8{font-family:'Helvetica';}
	.st9{font-size:10px;}
	.st10{fill:#FFFFFF;}
	.st11{fill:#FFFFFF;stroke:#000000;stroke-miterlimit:10;}
	.st12{font-size:18px;}
	.st13{font-family:'Helvetica-Oblique';}
	.st14{font-size:12px;}
	.st15{fill:#FFFFFF;stroke:#000000;stroke-linecap:round;stroke-miterlimit:10;}
	.st16{font-size:24px;}
	.st17{font-size:7px;}
	.st18{font-size:21px;}
	.st19{fill:#006838;}
	.st20{font-size:6px;}
	.st21{fill:#589C75;stroke:#000000;stroke-linecap:round;stroke-miterlimit:10;}
	.st22{fill:#E6E7E8;}
</style>
<rect y="280" class="st0" width="400" height="20"/>
<polygon class="st1" points="400,280 0,280 35,200 365,200 "/>
<rect x="50" y="120" class="st2" width="300" height="130"/>
<polygon class="st3" points="330,80 70,80 50,120 350,120 "/>
<ellipse class="st4" cx="200" cy="100" rx="91.5" ry="15.4"/>
<g>
	<rect x="124.5" y="134.7" class="st5" width="151.1" height="97"/>
	<text transform="matrix(1 0 0 1 134.9203 190.523)" class="st6 st7">Wipes</text>
	<text transform="matrix(1 0 0 1 134.9204 210.5232)"><tspan x="0" y="0" class="st8 st9">Non-Name Brand</tspan><tspan x="0" y="12" class="st8 st9">Delicate Task Wipers</tspan></text>
	<g>
		<rect x="130.3" y="138.9" class="st10" width="84.6" height="19.5"/>
		<polyline class="st11" points="130.3,138.9 265.1,138.9 260.1,152.2 214.9,152.2 		"/>
	</g>
	<text transform="matrix(1 0 0 1 131.9103 154.5235)" class="st6 st12">GENERIC</text>
	<text transform="matrix(1 0 0 1 215.5627 149.8565)" class="st13 st14">Science</text>
</g>
<g>
	<path class="st15" d="M50,153.8c18.7,0,33.8-15.1,33.8-33.8H50V153.8z"/>
	<g>
		<text transform="matrix(1 0 0 1 53.8263 143.25)" class="st8 st16">1</text>
		<text transform="matrix(1 0 0 1 64.4424 131.7274)" class="st8 st17">ply</text>
	</g>
</g>
<text transform="matrix(1 0 0 1 301.2314 238.25)" class="st11 st6 st18">280</text>
<text transform="matrix(1 0 0 1 296.7393 245.75)" class="st19 st8 st20">is a nice number</text>
<polygon class="st21" points="50,216.5 49.5,250 129.2,250 "/>
<polygon class="st21" points="349.5,153.7 350,120.1 270.3,120.1 "/>
<g>
	<path class="st22" d="M200,115.4c-50.5,0-91.5-6.9-91.5-15.4V63h183v37C291.5,108.5,250.5,115.4,200,115.4z"/>
	<path class="st22" d="M108.5,40.2V100c0-8.5,41-15.4,91.5-15.4s91.5,6.9,91.5,15.4V40.2l-42.8,3.5L200,40.2L149.7,44L108.5,40.2z"
		/>
</g>
<text transform="matrix(1 0 0 1 53.4883 245.7506)" class="st10 st8 st20">TLL Professional</text>
<path class="st4" d="M291.5,100c0,8.5-41,15.4-91.5,15.4s-91.5-6.9-91.5-15.4"/>
</svg>
