<?xml version="1.0" encoding="utf-8"?>
<!-- Generator: Adobe Illustrator 19.2.1, SVG Export Plug-In . SVG Version: 6.00 Build 0)  -->
<svg version="1.1" xmlns="http://www.w3.org/2000/svg" xmlns:xlink="http://www.w3.org/1999/xlink" x="0px" y="0px"
	 viewBox="0 0 401 176" style="enable-background:new 0 0 401 176;" xml:space="preserve">
<style type="text/css">
	.st0{fill:none;}
	.st1{fill:#303030;}
	.st2{fill:#383838;}
	.st3{fill:#ABCDEC;stroke:#000000;stroke-miterlimit:10;}
	.st4{fill:#F9F1DA;stroke:#010101;stroke-miterlimit:10;}
	.st5{fill:#DDD3B1;stroke:#010101;stroke-miterlimit:10;}
	.st6{fill:#FFF4CE;stroke:#010101;stroke-miterlimit:10;}
	.st7{fill:#010101;stroke:#010101;stroke-miterlimit:10;}
	.st8{fill:#FCF7EA;stroke:#010101;stroke-miterlimit:10;}
	.st9{fill:#EC2527;}
	.st10{fill:none;stroke:#020202;stroke-width:0.5;}
	.st11{fill:#767677;}
	.st12{fill:none;stroke:#010101;stroke-width:0.5;stroke-miterlimit:10;}
	.st13{fill:url(#SVGID_1_);}
	.st14{fill:#5B453A;stroke:#010101;stroke-width:0.5;stroke-miterlimit:10;}
	.st15{fill:#5B453A;}
	.st16{fill:#483529;stroke:#010101;stroke-width:0.5;stroke-miterlimit:10;}
	.st17{opacity:0.4;fill:#F3EA22;enable-background:new    ;}
	.st18{fill:#FFFFFF;stroke:#010101;stroke-width:0.5;stroke-miterlimit:1;}
	.st19{opacity:0.4;fill:#F7F18C;enable-background:new    ;}
	.st20{fill:none;stroke:#020202;stroke-width:0.25;}
	.st21{fill:none;stroke:#010101;stroke-width:0.25;stroke-miterlimit:10;}
	.st22{fill:url(#SVGID_2_);stroke:#000000;stroke-width:5;stroke-miterlimit:10;}
	.st23{fill:#FFFFFF;}
	.st24{font-family:'HelveticaNeue';}
	.st25{font-size:30px;}
	.st26{fill:url(#SVGID_3_);}
	.st27{fill:#5B453A;stroke:#010101;stroke-miterlimit:10;}
	.st28{fill:#483529;stroke:#010101;stroke-miterlimit:10;}
	.st29{fill:none;stroke:#010101;stroke-miterlimit:10;}
	.st30{fill:#FFFFFF;stroke:#010101;stroke-miterlimit:1;}
	.st31{display:none;}
	.st32{display:inline;fill:#FFFFFF;}
	.st33{display:inline;}
</style>
<pattern  x="0.5" y="-24.5" width="42.7" height="65.3" patternUnits="userSpaceOnUse" id="New_Pattern_Swatch_4" viewBox="0 -65.3 42.7 65.3" style="overflow:visible;">
	<g>
		<rect y="-65.3" class="st0" width="42.7" height="65.3"/>
		<rect x="0" y="-65.3" class="st1" width="21.3" height="65.3"/>
		<rect x="21.3" y="-65.3" class="st2" width="21.3" height="65.3"/>
	</g>
</pattern>
<g id="Layer_1">
	<path class="st3" d="M350,175.5H50c-27.5,0-50-22.5-50-50v-75c0-27.5,22.5-50,50-50h300c27.5,0,50,22.5,50,50v75
		C400,153,377.5,175.5,350,175.5z"/>
	<g>
		<g>
			<polygon class="st4" points="355.2,190.7 44.8,190.7 67,135.3 333,135.3 			"/>
			<rect x="44.8" y="190.7" class="st5" width="310.4" height="55.4"/>
			<path class="st6" d="M327.7,68.7H72.3c-2.9,0-5.3,2.4-5.3,5.3v31.3v29.9H333v-29.9v-12V74.1C333,71.1,330.7,68.7,327.7,68.7z"/>
			<rect x="100.2" y="75.4" class="st7" width="199.6" height="53.2"/>
			<rect x="151.3" y="82" class="st8" width="99.8" height="39.9"/>
			<circle class="st9" cx="124.6" cy="102" r="1.6"/>
		</g>
		<g>
			<line class="st10" x1="159.6" y1="105.8" x2="157.5" y2="103.8"/>
			<line class="st10" x1="166.6" y1="99.8" x2="164.9" y2="97.5"/>
			<line class="st10" x1="174.5" y1="95" x2="173.1" y2="92.4"/>
			<line class="st10" x1="183" y1="91.5" x2="182" y2="88.7"/>
			<line class="st10" x1="191.9" y1="89.4" x2="191.5" y2="86.5"/>
			<line class="st10" x1="201.1" y1="88.6" x2="201.1" y2="85.7"/>
			<line class="st10" x1="210.3" y1="89.4" x2="210.7" y2="86.5"/>
			<line class="st10" x1="219.2" y1="91.5" x2="220.1" y2="88.7"/>
			<line class="st10" x1="227.8" y1="95" x2="229.1" y2="92.4"/>
			<line class="st10" x1="235.6" y1="99.8" x2="237.3" y2="97.5"/>
			<line class="st10" x1="242.6" y1="105.8" x2="244.6" y2="103.8"/>
			<line class="st10" x1="238.5" y1="110" x2="236.4" y2="112.1"/>
			<line class="st10" x1="231.5" y1="104.2" x2="229.9" y2="106.6"/>
			<line class="st10" x1="224.7" y1="100.1" x2="223.3" y2="102.7"/>
			<line class="st10" x1="218" y1="97.3" x2="217.1" y2="100.1"/>
			<line class="st10" x1="211.9" y1="95.7" x2="211.3" y2="98.5"/>
			<line class="st10" x1="206.3" y1="94.8" x2="206" y2="97.7"/>
			<line class="st10" x1="201.2" y1="94.5" x2="201.2" y2="97.5"/>
			<line class="st10" x1="196.7" y1="94.7" x2="196.9" y2="97.6"/>
			<line class="st10" x1="192.7" y1="95.2" x2="193.1" y2="98.1"/>
			<line class="st10" x1="189.2" y1="95.9" x2="189.8" y2="98.7"/>
			<line class="st10" x1="186.1" y1="96.7" x2="186.9" y2="99.5"/>
			<line class="st10" x1="181" y1="98.5" x2="182.1" y2="101.2"/>
			<line class="st10" x1="177.1" y1="100.3" x2="178.4" y2="102.9"/>
			<line class="st10" x1="174.1" y1="101.9" x2="175.6" y2="104.5"/>
			<line class="st10" x1="171.8" y1="103.4" x2="173.4" y2="105.8"/>
			<line class="st10" x1="170.1" y1="104.6" x2="171.8" y2="107"/>
			<line class="st10" x1="165.7" y1="108.2" x2="167.6" y2="110.4"/>
			<polyline class="st10" points="164.4,109.4 166.4,111.5 166.4,117.4 167.4,117.4 			"/>
			<polyline class="st10" points="163.8,110 165.9,112.1 165.9,118.5 165,118.5 			"/>
			<g>
				<path class="st11" d="M201.1,93.7c14.9,0,28.4,6.1,38.2,15.9l2.8-2.8c-10.4-10.5-24.9-17-40.9-17s-30.5,6.5-40.9,17l2.8,2.8
					C172.7,99.7,186.2,93.7,201.1,93.7z"/>
			</g>
			<path class="st12" d="M234.3,114.1"/>
			<path class="st12" d="M242.6,105.9c-10.6-10.6-25.2-17.2-41.5-17.2c-16.2,0-30.9,6.6-41.5,17.2"/>
			<path class="st12" d="M234.3,114.1"/>
			<path class="st12" d="M238.5,110.1c-9.5-9.6-22.8-15.6-37.4-15.6s-27.8,6-37.4,15.5"/>
		</g>
	</g>
	<path class="st3" d="M350,0.5H50C22.5,0.5,0,23,0,50.5v75c0,27.5,22.5,50,50,50h300c27.5,0,50-22.5,50-50v-75
		C400,23,377.5,0.5,350,0.5z M200.9,163.1c-33.1,0-60-26.9-60-60s26.9-60,60-60s60,26.9,60,60S234.1,163.1,200.9,163.1z"/>
	<g>
		<g id="Layer_1_copy_2_">
			
				<linearGradient id="SVGID_1_" gradientUnits="userSpaceOnUse" x1="38.9303" y1="77.8657" x2="38.9303" y2="73.3666" gradientTransform="matrix(1 0 0 -1 0 153)">
				<stop  offset="0" style="stop-color:#7C5F52"/>
				<stop  offset="1" style="stop-color:#2A1B12"/>
			</linearGradient>
			<rect x="25.1" y="75.1" class="st13" width="27.6" height="4.5"/>
			<path class="st14" d="M53.3,74.8h-29l-2,5.1h33L53.3,74.8z M30.4,79.4c-2,0-3.6-0.9-3.6-2c0-1.1,1.6-2,3.6-2s3.6,0.9,3.6,2
				C34,78.5,32.4,79.4,30.4,79.4z M47.2,79.4c-2,0-3.6-0.9-3.6-2c0-1.1,1.6-2,3.6-2s3.6,0.9,3.6,2C50.7,78.5,49.1,79.4,47.2,79.4z"
				/>
			<g>
				<path class="st15" d="M50.7,77.3c0,0,0,0.1,0,0.1c0,1.1-1.6,2-3.6,2s-3.6-0.9-3.6-2c0,0,0-0.1,0-0.1H34c0,0,0,0.1,0,0.1
					c0,1.1-1.6,2-3.6,2s-3.6-0.9-3.6-2c0,0,0-0.1,0-0.1h-3.5l-1.1,2.6h33l-1.1-2.6L50.7,77.3L50.7,77.3z"/>
				<rect x="22.3" y="79.9" class="st16" width="33" height="4.5"/>
			</g>
			<path class="st12" d="M53.3,74.8h-29l-2,5.1h33L53.3,74.8z M30.4,79.4c-2,0-3.6-0.9-3.6-2c0-1.1,1.6-2,3.6-2s3.6,0.9,3.6,2
				C34,78.5,32.4,79.4,30.4,79.4z M47.2,79.4c-2,0-3.6-0.9-3.6-2c0-1.1,1.6-2,3.6-2s3.6,0.9,3.6,2C50.7,78.5,49.1,79.4,47.2,79.4z"
				/>
		</g>
		<g>
			<path class="st17" d="M28.1,67.5v22.1c0,1.6,1.1,2.8,2.3,2.8c1.3,0,2.3-1.3,2.3-2.8V67.5H28.1z"/>
			<path class="st12" d="M28.1,67.5v22.1c0,1.6,1.1,2.8,2.3,2.8c1.3,0,2.3-1.3,2.3-2.8V67.5H28.1z"/>
			<path class="st18" d="M33.1,68.7c0,0,0.2-4.6,0.5-4.6h-6.5c0.4,0,0.5,4.6,0.5,4.6H33.1z"/>
		</g>
		<g>
			<path class="st19" d="M44.8,67.5v22c0,1.6,1.1,2.8,2.3,2.8s2.3-1.3,2.3-2.8v-22H44.8z"/>
			<path class="st12" d="M44.8,67.5v22c0,1.6,1.1,2.8,2.3,2.8s2.3-1.3,2.3-2.8v-22H44.8z"/>
			<path class="st18" d="M49.9,68.8c0,0,0.2-4.6,0.5-4.6h-6.5c0.4,0,0.5,4.6,0.5,4.6H49.9z"/>
		</g>
		<g>
			<path class="st15" d="M50.7,77.2c0,0,0,0.1,0,0.1c0,1.1-1.6,2-3.6,2s-3.6-0.9-3.6-2c0,0,0-0.1,0-0.1H34c0,0,0,0.1,0,0.1
				c0,1.1-1.6,2-3.6,2s-3.6-0.9-3.6-2c0,0,0-0.1,0-0.1h-3.2l-1.1,2.6h32.4l-1.1-2.6L50.7,77.2L50.7,77.2z"/>
			<rect x="22.3" y="79.9" class="st16" width="33" height="4.5"/>
		</g>
		<path class="st12" d="M34,77.3c0,1.1-1.6,2-3.6,2s-3.5-0.9-3.5-2 M50.7,77.3c0,1.1-1.6,2-3.6,2s-3.6-0.9-3.6-2"/>
	</g>
	<g>
		<g>
			<polygon class="st4" points="122.2,136.6 19.4,136.6 26.7,118.3 114.9,118.3 			"/>
			<rect x="19.4" y="136.6" class="st5" width="102.8" height="18.4"/>
			<path class="st6" d="M113.1,96.2H28.5c-1,0-1.8,0.8-1.8,1.8v10.4v9.9h88.1v-9.9v-4V98C114.9,97,114.1,96.2,113.1,96.2z"/>
			<rect x="37.7" y="98.5" class="st7" width="66.1" height="17.6"/>
			<rect x="54.7" y="100.7" class="st8" width="33.1" height="13.2"/>
			<circle class="st9" cx="45.8" cy="107.3" r="0.5"/>
		</g>
		<g>
			<line class="st20" x1="57.4" y1="108.5" x2="56.7" y2="107.9"/>
			<line class="st20" x1="59.7" y1="106.6" x2="59.2" y2="105.8"/>
			<line class="st20" x1="62.3" y1="105" x2="61.9" y2="104.1"/>
			<line class="st20" x1="65.2" y1="103.8" x2="64.8" y2="102.9"/>
			<line class="st20" x1="68.1" y1="103.1" x2="68" y2="102.1"/>
			<line class="st20" x1="71.2" y1="102.8" x2="71.2" y2="101.9"/>
			<line class="st20" x1="74.2" y1="103.1" x2="74.3" y2="102.1"/>
			<line class="st20" x1="77.2" y1="103.8" x2="77.5" y2="102.9"/>
			<line class="st20" x1="80" y1="105" x2="80.4" y2="104.1"/>
			<line class="st20" x1="82.6" y1="106.6" x2="83.1" y2="105.8"/>
			<line class="st20" x1="84.9" y1="108.5" x2="85.6" y2="107.9"/>
			<line class="st20" x1="83.5" y1="109.9" x2="82.8" y2="110.6"/>
			<line class="st20" x1="81.2" y1="108" x2="80.7" y2="108.8"/>
			<line class="st20" x1="79" y1="106.6" x2="78.5" y2="107.5"/>
			<line class="st20" x1="76.8" y1="105.7" x2="76.4" y2="106.6"/>
			<line class="st20" x1="74.7" y1="105.2" x2="74.5" y2="106.1"/>
			<line class="st20" x1="72.9" y1="104.9" x2="72.8" y2="105.8"/>
			<line class="st20" x1="71.2" y1="104.8" x2="71.2" y2="105.8"/>
			<line class="st20" x1="69.7" y1="104.9" x2="69.8" y2="105.8"/>
			<line class="st20" x1="68.4" y1="105" x2="68.5" y2="106"/>
			<line class="st20" x1="67.2" y1="105.3" x2="67.4" y2="106.2"/>
			<line class="st20" x1="66.2" y1="105.5" x2="66.5" y2="106.5"/>
			<line class="st20" x1="64.5" y1="106.1" x2="64.9" y2="107"/>
			<line class="st20" x1="63.2" y1="106.7" x2="63.6" y2="107.6"/>
			<line class="st20" x1="62.2" y1="107.3" x2="62.7" y2="108.1"/>
			<line class="st20" x1="61.5" y1="107.7" x2="62" y2="108.5"/>
			<line class="st20" x1="60.9" y1="108.1" x2="61.4" y2="108.9"/>
			<line class="st20" x1="59.4" y1="109.3" x2="60.1" y2="110"/>
			<polyline class="st20" points="59,109.7 59.7,110.4 59.7,112.4 60,112.4 			"/>
			<polyline class="st20" points="58.8,109.9 59.5,110.6 59.5,112.8 59.2,112.8 			"/>
			<g>
				<path class="st11" d="M71.2,104.5c4.9,0,9.4,2,12.6,5.3l0.9-0.9c-3.5-3.5-8.3-5.6-13.6-5.6s-10.1,2.2-13.6,5.6l0.9,0.9
					C61.7,106.5,66.2,104.5,71.2,104.5z"/>
			</g>
			<path class="st21" d="M82.2,111.3"/>
			<path class="st21" d="M84.9,108.6c-3.5-3.5-8.4-5.7-13.7-5.7c-5.4,0-10.2,2.2-13.7,5.7"/>
			<path class="st21" d="M82.2,111.3"/>
			<path class="st21" d="M83.5,109.9c-3.2-3.2-7.5-5.2-12.4-5.2s-9.2,2-12.4,5.1"/>
		</g>
	</g>
	
		<pattern  id="SVGID_2_" xlink:href="#New_Pattern_Swatch_4" patternTransform="matrix(0.7071 0.7071 -0.7071 0.7071 -7931.1675 3299.186)">
	</pattern>
	<path class="st22" d="M350.5,0.5h-300c-27.5,0-50,22.5-50,50v75c0,27.5,22.5,50,50,50h300c27.5,0,50-22.5,50-50v-75
		C400.5,23,378,0.5,350.5,0.5z M70.5,163.5c-33.1,0-60-26.9-60-60s26.9-60,60-60s60,26.9,60,60S103.6,163.5,70.5,163.5z
		 M200.5,163.5c-33.1,0-60-26.9-60-60s26.9-60,60-60s60,26.9,60,60S233.6,163.5,200.5,163.5z M330.5,163.5c-33.1,0-60-26.9-60-60
		s26.9-60,60-60s60,26.9,60,60S363.6,163.5,330.5,163.5z"/>
	<text transform="matrix(1 0 0 1 107.7116 32.1665)" class="st23 st24 st25">Zoom Control</text>
	<g>
		<g id="Layer_1_copy_1_">
			
				<linearGradient id="SVGID_3_" gradientUnits="userSpaceOnUse" x1="330.9355" y1="58.1709" x2="330.9355" y2="44.3209" gradientTransform="matrix(1 0 0 -1 0 153)">
				<stop  offset="0" style="stop-color:#7C5F52"/>
				<stop  offset="1" style="stop-color:#2A1B12"/>
			</linearGradient>
			<rect x="288.4" y="94.8" class="st26" width="85.1" height="13.9"/>
			<path class="st27" d="M375,93.9h-89.2l-6.2,15.6h101.6L375,93.9z M304.7,107.9c-6,0-10.9-2.8-10.9-6.2c0-3.4,4.9-6.2,10.9-6.2
				s10.9,2.8,10.9,6.2C315.6,105.1,310.7,107.9,304.7,107.9z M356.3,107.9c-6,0-10.9-2.8-10.9-6.2c0-3.4,4.9-6.2,10.9-6.2
				s10.9,2.8,10.9,6.2C367.2,105.1,362.3,107.9,356.3,107.9z"/>
			<g>
				<path class="st15" d="M367.2,101.4c0,0.1,0,0.2,0,0.3c0,3.4-4.9,6.2-10.9,6.2c-6,0-10.9-2.8-10.9-6.2c0-0.1,0-0.2,0-0.3h-29.7
					c0,0.1,0,0.2,0,0.3c0,3.4-4.9,6.2-10.9,6.2s-10.9-2.8-10.9-6.2c0-0.1,0-0.2,0-0.3h-10.9l-3.3,8.1h101.6l-3.3-8.1L367.2,101.4
					L367.2,101.4z"/>
				<rect x="279.7" y="109.5" class="st28" width="101.6" height="13.8"/>
			</g>
			<path class="st29" d="M375,93.9h-89.2l-6.2,15.6h101.6L375,93.9z M304.7,107.9c-6,0-10.9-2.8-10.9-6.2c0-3.4,4.9-6.2,10.9-6.2
				s10.9,2.8,10.9,6.2C315.6,105.1,310.7,107.9,304.7,107.9z M356.3,107.9c-6,0-10.9-2.8-10.9-6.2c0-3.4,4.9-6.2,10.9-6.2
				s10.9,2.8,10.9,6.2C367.2,105.1,362.3,107.9,356.3,107.9z"/>
		</g>
		<g>
			<path class="st17" d="M297.5,71.3v68.1c0,4.8,3.3,8.7,7.2,8.7c3.9,0,7.2-3.9,7.2-8.7V71.3H297.5z"/>
			<path class="st29" d="M297.5,71.3v68.1c0,4.8,3.3,8.7,7.2,8.7c3.9,0,7.2-3.9,7.2-8.7V71.3H297.5z"/>
			<path class="st30" d="M313.1,75.1c0,0,0.5-14.3,1.6-14.3h-20c1.2,0,1.6,14.3,1.6,14.3H313.1z"/>
		</g>
		<g>
			<path class="st19" d="M349.2,71.4v67.8c0,4.8,3.2,8.6,7.1,8.6s7.1-3.9,7.1-8.6V71.4H349.2z"/>
			<path class="st29" d="M349.2,71.4v67.8c0,4.8,3.2,8.6,7.1,8.6s7.1-3.9,7.1-8.6V71.4H349.2z"/>
			<path class="st30" d="M364.7,75.2c0,0,0.5-14.2,1.6-14.2h-20c1.2,0,1.6,14.2,1.6,14.2H364.7z"/>
		</g>
		<g>
			<path class="st15" d="M367.1,101.3c0,0.1,0,0.2,0,0.3c0,3.4-4.9,6.2-10.9,6.2s-10.9-2.8-10.9-6.2c0-0.1,0-0.2,0-0.3h-29.7
				c0,0.1,0,0.2,0,0.3c0,3.4-4.9,6.2-10.9,6.2s-10.9-2.8-10.9-6.2c0-0.1,0-0.2,0-0.3h-9.9l-3.3,8.1h99.6l-3.3-8.1L367.1,101.3
				L367.1,101.3z"/>
			<rect x="279.7" y="109.5" class="st28" width="101.6" height="13.8"/>
		</g>
		<path class="st29" d="M315.6,101.4c0,3.4-4.9,6.2-10.9,6.2s-10.9-2.8-10.9-6.2 M367.2,101.4c0,3.4-4.9,6.2-10.9,6.2
			s-10.9-2.8-10.9-6.2"/>
	</g>
	<g>
		<rect x="-121.2" y="-124.8" class="st1" width="21.3" height="65.3"/>
		<rect x="-99.8" y="-124.8" class="st2" width="21.3" height="65.3"/>
	</g>
</g>
<g id="Layer_1_copy" class="st31">
	<text transform="matrix(1 0 0 1 107.7116 32.1665)" class="st32 st24 st25">Zoom Control</text>
	<g class="st33">
		<polygon class="st4" points="105.4,111 35.6,111 40.6,98.5 100.4,98.5 		"/>
		<rect x="35.6" y="111" class="st5" width="69.8" height="12.5"/>
		<path class="st6" d="M99.2,83.6H41.8c-0.7,0-1.2,0.5-1.2,1.2v7v6.7h59.8v-6.7v-2.7v-4.3C100.4,84.1,99.9,83.6,99.2,83.6z"/>
		<rect x="48.1" y="85.1" class="st7" width="44.9" height="12"/>
		<rect x="59.5" y="86.5" class="st8" width="22.4" height="9"/>
		<circle class="st9" cx="53.5" cy="91" r="0.4"/>
	</g>
</g>
</svg>
