<?xml version="1.0" encoding="utf-8"?>
<!-- Generator: Adobe Illustrator 19.2.1, SVG Export Plug-In . SVG Version: 6.00 Build 0)  -->
<svg version="1.1" id="Layer_1" xmlns="http://www.w3.org/2000/svg" xmlns:xlink="http://www.w3.org/1999/xlink" x="0px" y="0px"
	 viewBox="0 0 16 16" style="enable-background:new 0 0 16 16;" xml:space="preserve">
<path d="M0,0v16h16V0H0z M12.4,11.7c-0.2,0.4-0.5,0.8-0.9,1.1c-0.4,0.3-0.9,0.6-1.5,0.7c-0.6,0.2-1.2,0.3-2,0.3
	c-0.6,0-1.2-0.1-1.8-0.2c-0.6-0.2-1.1-0.4-1.5-0.7c-0.4-0.3-0.8-0.7-1.1-1.2c-0.3-0.5-0.4-1.1-0.4-1.8h2.4c0,0.4,0.1,0.7,0.2,1
	c0.1,0.3,0.3,0.5,0.5,0.6c0.2,0.2,0.5,0.3,0.8,0.4c0.3,0.1,0.6,0.1,0.9,0.1c0.2,0,0.5,0,0.7-0.1c0.2,0,0.5-0.1,0.7-0.2
	c0.2-0.1,0.4-0.2,0.5-0.4c0.1-0.2,0.2-0.4,0.2-0.7c0-0.3-0.1-0.5-0.3-0.7C9.8,9.6,9.6,9.5,9.3,9.4C9,9.2,8.6,9.1,8.2,9
	C7.8,8.9,7.4,8.8,7,8.7C6.6,8.6,6.2,8.5,5.8,8.3C5.4,8.2,5,8,4.7,7.7C4.4,7.5,4.2,7.2,4,6.8C3.8,6.5,3.7,6,3.7,5.5
	C3.7,5,3.8,4.5,4,4C4.3,3.6,4.6,3.3,5,3c0.4-0.3,0.8-0.5,1.3-0.6c0.5-0.1,1-0.2,1.5-0.2c0.6,0,1.1,0.1,1.7,0.2
	c0.5,0.1,1,0.3,1.4,0.6c0.4,0.3,0.7,0.7,1,1.1c0.2,0.5,0.4,1,0.4,1.6H9.9c0-0.3-0.1-0.6-0.2-0.8C9.6,4.7,9.5,4.5,9.3,4.4
	C9.1,4.3,8.8,4.2,8.6,4.1C8.3,4.1,8,4.1,7.7,4.1c-0.2,0-0.4,0-0.6,0.1C7,4.2,6.8,4.2,6.6,4.4C6.4,4.5,6.3,4.6,6.2,4.7
	C6.1,4.9,6.1,5.1,6.1,5.3c0,0.2,0,0.4,0.1,0.5C6.3,6,6.4,6.1,6.7,6.2c0.2,0.1,0.6,0.2,1,0.3c0.4,0.1,1,0.3,1.7,0.4
	c0.2,0,0.5,0.1,0.9,0.2c0.4,0.1,0.7,0.3,1.1,0.5c0.4,0.2,0.7,0.6,0.9,1c0.3,0.4,0.4,0.9,0.4,1.5C12.7,10.8,12.6,11.3,12.4,11.7z"/>
</svg>
