<?xml version="1.0" encoding="utf-8"?>
<!-- Generator: Adobe Illustrator 19.2.1, SVG Export Plug-In . SVG Version: 6.00 Build 0)  -->
<svg version="1.1" id="Layer_1" xmlns="http://www.w3.org/2000/svg" xmlns:xlink="http://www.w3.org/1999/xlink" x="0px" y="0px"
	 viewBox="0 0 57.8 240.2" style="enable-background:new 0 0 57.8 240.2;" xml:space="preserve">
<style type="text/css">
	.st0{fill:#626361;stroke:#505150;stroke-miterlimit:10;}
	.st1{fill:#E9E7DE;stroke:#808080;stroke-miterlimit:10;}
	.st2{fill:none;stroke:#606161;stroke-miterlimit:10;}
	.st3{opacity:0.35;fill:#F6BE71;stroke:#606161;stroke-miterlimit:10;enable-background:new    ;}
	.st4{fill:#4274B0;}
	.st5{fill:#5D89C7;}
	.st6{fill:#263D8F;}
	.st7{fill:none;stroke:#808080;stroke-miterlimit:10;}
	.st8{enable-background:new    ;}
	.st9{fill:#FFFFFF;}
	.st10{fill:none;stroke:#FFFFFF;stroke-width:0.25;stroke-miterlimit:10;}
	.st11{fill:#545554;}
	.st12{fill:none;stroke:#505150;stroke-miterlimit:10;}
</style>
<rect x="0.5" y="97.9" class="st0" width="56.8" height="35.8"/>
<path class="st1" d="M34,2.8c0-1.3-2.2-2.3-5-2.3s-5,1-5,2.3L23.2,17h11.4L34,2.8z"/>
<path class="st1" d="M29.1,16.2c-6.4,0-11.6,1.1-11.6,2.5v7.8h23.3v-7.8C40.7,17.4,35.5,16.2,29.1,16.2z"/>
<path class="st2" d="M38.3,133.7H19.5v90.6c0.6,0.4,1.3,0.7,1.9,1v11.3c7.5,7.2,15,0,15,0v-11.4c1.2-0.5,1.9-0.9,1.9-0.9L38.3,133.7
	z"/>
<path class="st1" d="M28.9,25.5c-8.1,0-14.7,1.1-14.7,2.5v69.8h29.4V28.1C43.6,26.7,37,25.5,28.9,25.5z"/>
<path class="st3" d="M38.3,133.7H19.5v90.6c0.6,0.4,1.3,0.7,1.9,1v11.3c7.5,7.2,15,0,15,0v-11.4c1.2-0.5,1.9-0.9,1.9-0.9L38.3,133.7
	z"/>
<path class="st4" d="M29.1,82.5c-8.1,0-14.7-0.6-14.7-1.4V97h29.4V81.1C43.8,81.9,37.2,82.5,29.1,82.5z"/>
<path class="st5" d="M29.1,83.4c-8.1,0-14.7-0.6-14.7-1.4v15.9h29.4V82C43.8,82.8,37.2,83.4,29.1,83.4z"/>
<path class="st6" d="M43.7,44.9c0-0.4-6.6-0.8-14.7-0.8s-14.7,0.3-14.7,0.8h-0.1v20.9c0-0.4,6.6-0.8,14.7-0.8s14.7,0.3,14.7,0.8h0.2
	L43.7,44.9L43.7,44.9z"/>
<path class="st7" d="M28.9,25.5c-8.1,0-14.7,1.1-14.7,2.5v69.8h29.4V28.1C43.6,26.7,37,25.5,28.9,25.5z"/>
<g>
	<g class="st8">
		<path class="st9" d="M17.6,50.2v0.5h0c0.1-0.2,0.3-0.4,0.5-0.5c0.2-0.1,0.4-0.2,0.7-0.2c0.3,0,0.6,0.1,0.8,0.2
			c0.2,0.1,0.4,0.3,0.6,0.5c0.2,0.2,0.3,0.4,0.3,0.7s0.1,0.6,0.1,0.8c0,0.3,0,0.5-0.1,0.8c-0.1,0.3-0.2,0.5-0.3,0.7
			s-0.3,0.4-0.6,0.5c-0.2,0.1-0.5,0.2-0.8,0.2c-0.3,0-0.5-0.1-0.7-0.2c-0.2-0.1-0.4-0.3-0.5-0.5h0v2h-1.1v-5.6H17.6z M19.1,53.4
			c0.1-0.1,0.2-0.2,0.3-0.3c0.1-0.1,0.1-0.3,0.2-0.4c0-0.2,0-0.3,0-0.5c0-0.2,0-0.3-0.1-0.5s-0.1-0.3-0.2-0.4
			c-0.1-0.1-0.2-0.2-0.3-0.3c-0.1-0.1-0.3-0.1-0.5-0.1c-0.2,0-0.3,0-0.5,0.1c-0.1,0.1-0.2,0.2-0.3,0.3c-0.1,0.1-0.1,0.3-0.2,0.4
			c0,0.2,0,0.3,0,0.5c0,0.2,0,0.3,0.1,0.5c0,0.2,0.1,0.3,0.2,0.4c0.1,0.1,0.2,0.2,0.3,0.3c0.1,0.1,0.3,0.1,0.5,0.1
			C18.8,53.5,19,53.5,19.1,53.4z"/>
		<path class="st9" d="M22.5,50.2v0.8h0c0.1-0.1,0.1-0.2,0.2-0.4c0.1-0.1,0.2-0.2,0.3-0.3c0.1-0.1,0.2-0.1,0.4-0.2
			c0.1,0,0.3-0.1,0.4-0.1c0.1,0,0.2,0,0.2,0v1.1c-0.1,0-0.1,0-0.2,0c-0.1,0-0.1,0-0.2,0c-0.2,0-0.4,0-0.5,0.1s-0.3,0.2-0.3,0.3
			s-0.2,0.3-0.2,0.4c0,0.2-0.1,0.3-0.1,0.5v1.9h-1.1v-4.1H22.5z"/>
		<path class="st9" d="M25.6,53.3c0.2,0.2,0.4,0.2,0.7,0.2c0.2,0,0.4-0.1,0.6-0.2c0.2-0.1,0.3-0.2,0.3-0.4h1
			c-0.2,0.5-0.4,0.9-0.7,1.1c-0.3,0.2-0.7,0.3-1.2,0.3c-0.3,0-0.6-0.1-0.9-0.2c-0.3-0.1-0.5-0.3-0.7-0.4c-0.2-0.2-0.3-0.4-0.4-0.7
			s-0.1-0.6-0.1-0.9c0-0.3,0.1-0.6,0.2-0.9c0.1-0.3,0.2-0.5,0.4-0.7c0.2-0.2,0.4-0.3,0.7-0.5S26,50,26.3,50c0.4,0,0.7,0.1,0.9,0.2
			c0.3,0.1,0.5,0.3,0.6,0.5s0.3,0.5,0.4,0.8s0.1,0.6,0.1,0.9h-3C25.4,52.9,25.5,53.1,25.6,53.3z M26.9,51.1
			c-0.1-0.1-0.3-0.2-0.6-0.2c-0.2,0-0.3,0-0.5,0.1c-0.1,0.1-0.2,0.1-0.3,0.2c-0.1,0.1-0.1,0.2-0.2,0.3c0,0.1,0,0.2-0.1,0.3h1.8
			C27.1,51.5,27,51.3,26.9,51.1z"/>
		<path class="st9" d="M31,50.9c-0.2,0-0.3,0-0.5,0.1c-0.1,0.1-0.2,0.2-0.3,0.3s-0.1,0.3-0.2,0.4s0,0.3,0,0.5c0,0.1,0,0.3,0,0.5
			c0,0.2,0.1,0.3,0.2,0.4c0.1,0.1,0.2,0.2,0.3,0.3c0.1,0.1,0.3,0.1,0.4,0.1c0.3,0,0.5-0.1,0.6-0.2c0.1-0.2,0.2-0.4,0.3-0.6H33
			c-0.1,0.5-0.3,1-0.6,1.3c-0.4,0.3-0.8,0.4-1.4,0.4c-0.3,0-0.6-0.1-0.9-0.2c-0.3-0.1-0.5-0.2-0.7-0.4c-0.2-0.2-0.3-0.4-0.4-0.7
			c-0.1-0.3-0.2-0.5-0.2-0.9c0-0.3,0-0.6,0.1-0.9c0.1-0.3,0.2-0.5,0.4-0.7c0.2-0.2,0.4-0.4,0.7-0.5c0.3-0.1,0.6-0.2,0.9-0.2
			c0.2,0,0.5,0,0.7,0.1c0.2,0.1,0.4,0.2,0.6,0.3c0.2,0.1,0.3,0.3,0.4,0.5c0.1,0.2,0.2,0.4,0.2,0.7h-1.1C31.7,51.1,31.5,50.9,31,50.9
			z"/>
		<path class="st9" d="M33.6,49.5v-0.9h1.1v0.9H33.6z M34.8,50.2v4.1h-1.1v-4.1H34.8z"/>
		<path class="st9" d="M36.7,50.2v0.6h0c0.1-0.2,0.3-0.4,0.6-0.5S37.8,50,38,50c0.3,0,0.6,0,0.7,0.1c0.2,0.1,0.3,0.2,0.5,0.3
			c0.1,0.1,0.2,0.3,0.2,0.5c0,0.2,0.1,0.4,0.1,0.7v2.5h-1.1V52c0-0.3-0.1-0.6-0.2-0.8s-0.3-0.3-0.6-0.3c-0.3,0-0.5,0.1-0.7,0.3
			c-0.1,0.2-0.2,0.5-0.2,0.9v2.2h-1.1v-4.1H36.7z"/>
	</g>
	<g class="st8">
		<path class="st9" d="M39.8,48.5c0.1-0.1,0.1-0.3,0.3-0.4c0.1-0.1,0.2-0.2,0.4-0.2c0.1-0.1,0.3-0.1,0.4-0.1c0.2,0,0.3,0,0.4,0.1
			c0.1,0.1,0.3,0.1,0.4,0.2c0.1,0.1,0.2,0.2,0.3,0.4C42,48.7,42,48.8,42,49c0,0.2,0,0.3-0.1,0.5c-0.1,0.1-0.1,0.3-0.3,0.4
			c-0.1,0.1-0.2,0.2-0.4,0.2c-0.1,0.1-0.3,0.1-0.4,0.1c-0.2,0-0.3,0-0.4-0.1c-0.1-0.1-0.3-0.1-0.4-0.2c-0.1-0.1-0.2-0.2-0.3-0.4
			c-0.1-0.1-0.1-0.3-0.1-0.5C39.7,48.8,39.7,48.7,39.8,48.5z M40.1,49.3c0,0.1,0.1,0.2,0.2,0.3s0.2,0.1,0.3,0.2
			c0.1,0,0.2,0.1,0.3,0.1c0.1,0,0.2,0,0.3-0.1c0.1,0,0.2-0.1,0.3-0.2c0.1-0.1,0.1-0.2,0.2-0.3c0-0.1,0.1-0.2,0.1-0.4s0-0.2-0.1-0.4
			c0-0.1-0.1-0.2-0.2-0.3c-0.1-0.1-0.2-0.1-0.3-0.2c-0.1,0-0.2-0.1-0.3-0.1c-0.1,0-0.2,0-0.3,0.1c-0.1,0-0.2,0.1-0.3,0.2
			c-0.1,0.1-0.1,0.2-0.2,0.3c0,0.1-0.1,0.2-0.1,0.4S40,49.2,40.1,49.3z M40.9,48.4c0.2,0,0.3,0,0.4,0.1c0.1,0.1,0.1,0.2,0.1,0.3
			c0,0.1,0,0.1,0,0.1c0,0,0,0.1-0.1,0.1c0,0-0.1,0-0.1,0.1c0,0-0.1,0-0.1,0l0.3,0.5h-0.3l-0.3-0.5h-0.2v0.5h-0.2v-1.3H40.9z
			 M40.9,48.9c0.1,0,0.1,0,0.2,0c0,0,0.1-0.1,0.1-0.1c0,0,0-0.1,0-0.1c0,0,0,0-0.1,0c0,0-0.1,0-0.1,0s-0.1,0-0.1,0h-0.2v0.3H40.9z"
			/>
	</g>
</g>
<g>
	<polygon class="st10" points="40.2,59.3 36,57.6 36,61 	"/>
	<g class="st8">
		<path class="st9" d="M24.4,58.9V59h0c0-0.1,0.1-0.1,0.2-0.1s0.1,0,0.2,0c0.1,0,0.2,0,0.2,0.1c0.1,0,0.1,0.1,0.2,0.1
			s0.1,0.1,0.1,0.2c0,0.1,0,0.2,0,0.2c0,0.1,0,0.2,0,0.2c0,0.1-0.1,0.1-0.1,0.2c0,0.1-0.1,0.1-0.2,0.1c-0.1,0-0.1,0.1-0.2,0.1
			c-0.1,0-0.1,0-0.2,0c-0.1,0-0.1-0.1-0.2-0.1h0v0.6h-0.3v-1.6H24.4z M24.8,59.8C24.9,59.8,24.9,59.8,24.8,59.8
			c0.1-0.1,0.1-0.2,0.1-0.2s0-0.1,0-0.1s0-0.1,0-0.1c0,0,0-0.1,0-0.1c0,0-0.1-0.1-0.1-0.1c0,0-0.1,0-0.1,0c-0.1,0-0.1,0-0.1,0
			c0,0-0.1,0.1-0.1,0.1c0,0,0,0.1,0,0.1c0,0,0,0.1,0,0.1c0,0,0,0.1,0,0.1c0,0,0,0.1,0,0.1c0,0,0.1,0.1,0.1,0.1c0,0,0.1,0,0.1,0
			C24.7,59.9,24.8,59.9,24.8,59.8z"/>
		<path class="st9" d="M25.9,58.4v0.6h0.7v-0.6h0.4v1.7h-0.4v-0.7h-0.7v0.7h-0.4v-1.7H25.9z"/>
		<path class="st9" d="M28.2,58.9v0.2h0c0-0.1,0.1-0.1,0.2-0.1c0.1,0,0.1-0.1,0.2-0.1c0.1,0,0.1,0,0.2,0c0.1,0,0.1,0.1,0.1,0.2
			c0-0.1,0.1-0.1,0.1-0.1c0.1,0,0.1-0.1,0.2-0.1c0.1,0,0.1,0,0.2,0s0.1,0,0.1,0.1c0,0,0.1,0.1,0.1,0.1c0,0.1,0,0.1,0,0.2v0.8h-0.3
			v-0.7c0,0,0-0.1,0-0.1c0,0,0-0.1,0-0.1c0,0,0,0-0.1-0.1c0,0-0.1,0-0.1,0c0,0-0.1,0-0.1,0c0,0-0.1,0-0.1,0.1c0,0,0,0.1,0,0.1
			c0,0,0,0.1,0,0.1v0.7h-0.3v-0.7c0,0,0-0.1,0-0.1c0,0,0-0.1,0-0.1c0,0,0-0.1-0.1-0.1c0,0-0.1,0-0.1,0c0,0,0,0-0.1,0
			c0,0-0.1,0-0.1,0s0,0-0.1,0.1c0,0,0,0.1,0,0.1v0.7h-0.3v-1.2H28.2z"/>
		<path class="st9" d="M30.3,59.8c0,0,0.1,0.1,0.2,0.1c0.1,0,0.1,0,0.2,0s0.1-0.1,0.1-0.1h0.3c0,0.1-0.1,0.2-0.2,0.3
			c-0.1,0.1-0.2,0.1-0.3,0.1c-0.1,0-0.2,0-0.3,0c-0.1,0-0.1-0.1-0.2-0.1c-0.1-0.1-0.1-0.1-0.1-0.2c0-0.1,0-0.2,0-0.3
			c0-0.1,0-0.2,0-0.3s0.1-0.1,0.1-0.2c0.1-0.1,0.1-0.1,0.2-0.1c0.1,0,0.2,0,0.2,0c0.1,0,0.2,0,0.3,0.1c0.1,0,0.1,0.1,0.2,0.2
			s0.1,0.1,0.1,0.2c0,0.1,0,0.2,0,0.3h-0.9C30.2,59.7,30.3,59.8,30.3,59.8z M30.7,59.2c0,0-0.1-0.1-0.2-0.1c-0.1,0-0.1,0-0.1,0
			c0,0-0.1,0-0.1,0.1s0,0.1,0,0.1c0,0,0,0.1,0,0.1h0.5C30.8,59.3,30.7,59.2,30.7,59.2z"/>
		<path class="st9" d="M32,58.9v0.2h-0.2v0.6c0,0.1,0,0.1,0,0.1s0.1,0,0.1,0c0,0,0,0,0.1,0c0,0,0,0,0,0v0.3c0,0-0.1,0-0.1,0
			c0,0-0.1,0-0.1,0c-0.1,0-0.1,0-0.1,0c0,0-0.1,0-0.1,0c0,0-0.1,0-0.1-0.1c0,0,0-0.1,0-0.1v-0.7h-0.2v-0.2h0.2v-0.4h0.3v0.4H32z"/>
		<path class="st9" d="M32.5,59.8c0,0,0.1,0.1,0.2,0.1c0.1,0,0.1,0,0.2,0s0.1-0.1,0.1-0.1h0.3c0,0.1-0.1,0.2-0.2,0.3
			c-0.1,0.1-0.2,0.1-0.3,0.1c-0.1,0-0.2,0-0.3,0c-0.1,0-0.1-0.1-0.2-0.1s-0.1-0.1-0.1-0.2s0-0.2,0-0.3c0-0.1,0-0.2,0-0.3
			s0.1-0.1,0.1-0.2c0.1-0.1,0.1-0.1,0.2-0.1c0.1,0,0.2,0,0.2,0c0.1,0,0.2,0,0.3,0.1c0.1,0,0.1,0.1,0.2,0.2s0.1,0.1,0.1,0.2
			s0,0.2,0,0.3h-0.9C32.4,59.7,32.4,59.8,32.5,59.8z M32.8,59.2c0,0-0.1-0.1-0.2-0.1c-0.1,0-0.1,0-0.1,0s-0.1,0-0.1,0.1
			c0,0,0,0.1,0,0.1c0,0,0,0.1,0,0.1h0.5C32.9,59.3,32.9,59.2,32.8,59.2z"/>
		<path class="st9" d="M33.8,58.9v0.2h0c0,0,0-0.1,0.1-0.1c0,0,0.1-0.1,0.1-0.1s0.1,0,0.1-0.1c0,0,0.1,0,0.1,0c0,0,0,0,0.1,0v0.3
			c0,0,0,0-0.1,0c0,0,0,0-0.1,0c-0.1,0-0.1,0-0.2,0c0,0-0.1,0-0.1,0.1c0,0,0,0.1-0.1,0.1c0,0,0,0.1,0,0.2v0.5h-0.3v-1.2H33.8z"/>
	</g>
	<polygon class="st10" points="18,59.3 22.2,61 22.2,57.6 	"/>
</g>
<polygon class="st11" points="34.6,133.7 22.2,133.7 22.2,103.5 20.2,97.9 36.6,97.9 34.6,103.5 "/>
<rect x="0.5" y="97.9" class="st12" width="56.8" height="35.8"/>
</svg>
