<?xml version="1.0" encoding="utf-8"?>
<!-- Generator: Adobe Illustrator 19.2.1, SVG Export Plug-In . SVG Version: 6.00 Build 0)  -->
<svg version="1.1" id="Layer_1" xmlns="http://www.w3.org/2000/svg" xmlns:xlink="http://www.w3.org/1999/xlink" x="0px" y="0px"
	 viewBox="0 0 191.7 363.7" style="enable-background:new 0 0 191.7 363.7;" xml:space="preserve">
<style type="text/css">
	.st0{fill:none;stroke:#686868;stroke-miterlimit:10;}
	.st1{fill:#FFFFFF;stroke:#686868;stroke-miterlimit:10;}
	.st2{enable-background:new    ;}
</style>
<g>
	<path class="st0" d="M174,186.6c-3.1-3.6-1.8-8.9-1.8-14.1l0,0l1.2-0.2c4.2,0,7.7-3.5,7.7-7.7s-3.4-7.7-7.7-7.7H131H94.2H57.3H15
		c-4.2,0-7.7,3.5-7.7,7.7s3.4,7.7,7.7,7.7l1.2,0.2l0,0c0,5.1,1.3,10.5-1.8,14.1l-1.8,4.5c-3,6.4-5.2,8.4-5.2,15.8v106.4
		c0,27.5,22.5,50,50,50h36.9H131c27.5,0,50-22.5,50-50V206.9c0-7.5-2.2-9.4-5.2-15.8L174,186.6z"/>
</g>
<rect x="20.2" y="233" class="st1" width="148" height="67"/>
<g class="st2">
	<path d="M59.4,257.4h3l3.1,13.1h0l3.5-13.1h3.1l3.4,13.1h0l3.2-13.1h3l-4.7,17.1h-3l-3.4-13.1h0l-3.5,13.1H64L59.4,257.4z"/>
	<path d="M92.9,271.8c0,0.3,0,0.6,0.1,0.7s0.3,0.2,0.5,0.2c0.1,0,0.2,0,0.3,0c0.1,0,0.2,0,0.4,0v1.9c-0.1,0-0.2,0.1-0.4,0.1
		s-0.3,0.1-0.5,0.1c-0.2,0-0.3,0.1-0.5,0.1c-0.2,0-0.3,0-0.4,0c-0.6,0-1-0.1-1.4-0.3c-0.4-0.2-0.6-0.6-0.7-1.2
		c-0.5,0.5-1.2,0.9-2,1.2c-0.8,0.2-1.6,0.4-2.3,0.4c-0.6,0-1.1-0.1-1.6-0.2c-0.5-0.2-1-0.4-1.4-0.7c-0.4-0.3-0.7-0.7-0.9-1.1
		c-0.2-0.5-0.3-1-0.3-1.6c0-0.8,0.1-1.4,0.4-1.9c0.3-0.5,0.6-0.9,1.1-1.1c0.5-0.3,1-0.5,1.5-0.6c0.6-0.1,1.1-0.2,1.7-0.3
		c0.5-0.1,1-0.2,1.4-0.2c0.4,0,0.8-0.1,1.2-0.2c0.3-0.1,0.6-0.2,0.8-0.4s0.3-0.5,0.3-0.9c0-0.4-0.1-0.6-0.3-0.9
		c-0.2-0.2-0.4-0.4-0.6-0.5c-0.2-0.1-0.5-0.2-0.8-0.2c-0.3,0-0.6-0.1-0.9-0.1c-0.8,0-1.4,0.2-1.9,0.5c-0.5,0.3-0.8,0.8-0.8,1.5h-2.7
		c0-0.8,0.2-1.5,0.6-2c0.3-0.5,0.8-1,1.3-1.3c0.5-0.3,1.1-0.5,1.8-0.7c0.7-0.1,1.3-0.2,2-0.2c0.6,0,1.2,0.1,1.8,0.2
		c0.6,0.1,1.1,0.3,1.6,0.6c0.5,0.3,0.9,0.7,1.1,1.1c0.3,0.5,0.4,1,0.4,1.7V271.8z M90.2,268.3c-0.4,0.3-0.9,0.4-1.5,0.5
		c-0.6,0.1-1.2,0.1-1.8,0.3c-0.3,0-0.6,0.1-0.8,0.2c-0.3,0.1-0.5,0.2-0.7,0.4c-0.2,0.2-0.4,0.4-0.5,0.6s-0.2,0.5-0.2,0.9
		c0,0.3,0.1,0.6,0.3,0.8c0.2,0.2,0.4,0.4,0.6,0.5c0.2,0.1,0.5,0.2,0.8,0.3c0.3,0,0.6,0.1,0.8,0.1c0.3,0,0.6,0,1-0.1
		c0.4-0.1,0.7-0.2,1-0.4c0.3-0.2,0.6-0.4,0.8-0.7c0.2-0.3,0.3-0.7,0.3-1.1V268.3z"/>
	<path d="M97.9,270.5c0.1,0.8,0.4,1.4,0.9,1.7c0.5,0.3,1.2,0.5,1.9,0.5c0.3,0,0.5,0,0.9-0.1c0.3,0,0.6-0.1,0.9-0.2
		c0.3-0.1,0.5-0.3,0.7-0.5c0.2-0.2,0.3-0.5,0.3-0.9c0-0.4-0.1-0.6-0.4-0.9c-0.2-0.2-0.5-0.4-0.9-0.5c-0.4-0.1-0.8-0.3-1.3-0.3
		c-0.5-0.1-1-0.2-1.5-0.3c-0.5-0.1-1-0.2-1.5-0.4s-0.9-0.4-1.3-0.6c-0.4-0.3-0.7-0.6-0.9-1c-0.2-0.4-0.3-0.9-0.3-1.6
		c0-0.7,0.2-1.2,0.5-1.7c0.3-0.5,0.7-0.8,1.2-1.1c0.5-0.3,1.1-0.5,1.7-0.6c0.6-0.1,1.2-0.2,1.8-0.2c0.6,0,1.3,0.1,1.8,0.2
		s1.1,0.4,1.6,0.7c0.5,0.3,0.9,0.7,1.2,1.2c0.3,0.5,0.5,1.1,0.6,1.8H103c-0.1-0.7-0.4-1.1-0.9-1.3c-0.5-0.2-1-0.3-1.6-0.3
		c-0.2,0-0.4,0-0.7,0c-0.3,0-0.5,0.1-0.7,0.2c-0.2,0.1-0.4,0.2-0.6,0.4s-0.2,0.4-0.2,0.7c0,0.3,0.1,0.6,0.3,0.8
		c0.2,0.2,0.5,0.4,0.9,0.5c0.4,0.1,0.8,0.3,1.3,0.3c0.5,0.1,1,0.2,1.5,0.3c0.5,0.1,1,0.2,1.5,0.4c0.5,0.2,0.9,0.4,1.3,0.6
		c0.4,0.3,0.7,0.6,0.9,1c0.2,0.4,0.3,0.9,0.3,1.5c0,0.7-0.2,1.4-0.5,1.9c-0.3,0.5-0.8,0.9-1.3,1.2c-0.5,0.3-1.1,0.6-1.8,0.7
		c-0.7,0.1-1.3,0.2-1.9,0.2c-0.8,0-1.5-0.1-2.2-0.3s-1.2-0.4-1.7-0.8c-0.5-0.4-0.9-0.8-1.2-1.3c-0.3-0.5-0.4-1.2-0.4-1.9H97.9z"/>
	<path d="M107.1,262.1h2.1v-3.7h2.7v3.7h2.5v2h-2.5v6.6c0,0.3,0,0.5,0,0.7c0,0.2,0.1,0.4,0.2,0.5c0.1,0.1,0.2,0.3,0.4,0.3
		c0.2,0.1,0.4,0.1,0.7,0.1c0.2,0,0.4,0,0.6,0c0.2,0,0.4,0,0.6-0.1v2.1c-0.3,0-0.6,0.1-0.9,0.1c-0.3,0-0.6,0-0.9,0
		c-0.7,0-1.3-0.1-1.7-0.2c-0.4-0.1-0.8-0.3-1-0.6c-0.2-0.3-0.4-0.6-0.5-1c-0.1-0.4-0.1-0.9-0.2-1.4v-7.3h-2.1V262.1z"/>
	<path d="M118.4,269c0,0.5,0.1,0.9,0.2,1.4c0.1,0.4,0.3,0.8,0.6,1.2s0.6,0.6,1,0.8s0.9,0.3,1.5,0.3c0.8,0,1.4-0.2,1.9-0.5
		s0.9-0.9,1.1-1.5h2.6c-0.1,0.7-0.4,1.3-0.7,1.8c-0.4,0.5-0.8,1-1.3,1.3c-0.5,0.4-1.1,0.6-1.7,0.8c-0.6,0.2-1.3,0.3-1.9,0.3
		c-1,0-1.8-0.2-2.6-0.5c-0.8-0.3-1.4-0.8-1.9-1.3c-0.5-0.6-0.9-1.3-1.2-2.1c-0.3-0.8-0.4-1.7-0.4-2.6c0-0.9,0.1-1.7,0.4-2.5
		c0.3-0.8,0.7-1.5,1.2-2.1c0.5-0.6,1.1-1.1,1.9-1.4c0.7-0.4,1.6-0.5,2.5-0.5c1,0,1.9,0.2,2.6,0.6c0.8,0.4,1.4,0.9,1.9,1.6
		c0.5,0.7,0.9,1.4,1.1,2.3c0.2,0.9,0.3,1.8,0.2,2.7H118.4z M124.8,267.2c0-0.4-0.1-0.8-0.3-1.2c-0.2-0.4-0.4-0.7-0.6-1
		c-0.3-0.3-0.6-0.5-1-0.7c-0.4-0.2-0.8-0.3-1.3-0.3c-0.5,0-0.9,0.1-1.3,0.3c-0.4,0.2-0.7,0.4-1,0.7s-0.5,0.6-0.7,1s-0.3,0.8-0.3,1.3
		H124.8z"/>
</g>
</svg>
