<?xml version="1.0" encoding="utf-8"?>
<!-- Generator: Adobe Illustrator 19.2.1, SVG Export Plug-In . SVG Version: 6.00 Build 0)  -->
<svg version="1.1" id="Layer_1" xmlns="http://www.w3.org/2000/svg" xmlns:xlink="http://www.w3.org/1999/xlink" x="0px" y="0px"
	 viewBox="0 0 54.9 103.6" style="enable-background:new 0 0 54.9 103.6;" xml:space="preserve">
<style type="text/css">
	.st0{fill:#010101;}
	.st1{display:none;fill:#010101;}
</style>
<polygon class="st0" points="39.6,45 15.4,45 8.6,51.8 15.4,58.5 39.6,58.5 46.5,51.8 "/>
<polygon class="st0" points="13.5,43.4 13.5,15 3.7,5.2 0,8.2 0,43.4 6.7,50 "/>
<polygon class="st1" points="41.5,43.4 41.5,15 51.2,5.2 54.9,8.2 54.9,43.4 48.2,50 "/>
<polygon class="st0" points="45.5,0 9.5,0 5.5,3.8 15.5,13.5 39.5,13.5 49.5,3.8 "/>
<polygon class="st0" points="41.5,60.2 41.5,88.6 51.2,98.3 54.9,95.3 54.9,60.2 48.2,53.6 "/>
<polygon class="st1" points="13.5,60.2 13.5,88.6 3.7,98.3 0,95.3 0,60.2 6.7,53.6 "/>
<polygon class="st0" points="9.4,103.6 45.4,103.6 49.4,99.8 39.4,90.1 15.4,90.1 5.4,99.8 "/>
</svg>
