<?xml version="1.0" encoding="utf-8"?>
<!-- Generator: Adobe Illustrator 19.2.0, SVG Export Plug-In . SVG Version: 6.00 Build 0)  -->
<svg version="1.1" id="Layer_1" xmlns="http://www.w3.org/2000/svg" xmlns:xlink="http://www.w3.org/1999/xlink" x="0px" y="0px"
	 viewBox="0 0 214.5 151" style="enable-background:new 0 0 214.5 151;" xml:space="preserve">
<style type="text/css">
	.st0{fill:none;}
	.st1{fill:#191919;}
	.st2{fill:#262626;}
	.st3{fill:url(#SVGID_1_);stroke:#000000;stroke-miterlimit:10;}
</style>
<pattern  x="0.5" y="0.5" width="14.6" height="38.2" patternUnits="userSpaceOnUse" id="New_Pattern_Swatch_1" viewBox="0 -38.2 14.6 38.2" style="overflow:visible;">
	<g>
		<rect y="-38.2" class="st0" width="14.6" height="38.2"/>
		<rect x="0" y="-38.2" class="st1" width="11" height="38.2"/>
		<rect x="7.3" y="-38.2" class="st2" width="7.3" height="38.2"/>
	</g>
</pattern>
<pattern  id="SVGID_1_" xlink:href="#New_Pattern_Swatch_1" patternTransform="matrix(1.4053 0.8114 -0.8114 1.4053 -3192.9973 9861.7939)">
</pattern>
<path class="st3" d="M212.5,69.8L175.8,6.2c-2-3.5-5.8-5.7-9.9-5.7H122H92.5H48.6c-4.1,0-7.9,2.2-9.9,5.7L2,69.8
	c-2,3.5-2,7.9,0,11.4l36.7,63.6c2,3.5,5.8,5.7,9.9,5.7h43.9H122h43.9c4.1,0,7.9-2.2,9.9-5.7l36.7-63.6
	C214.6,77.7,214.6,73.3,212.5,69.8z"/>
</svg>
