<?xml version="1.0" encoding="utf-8"?>
<!-- Generator: Adobe Illustrator 19.2.1, SVG Export Plug-In . SVG Version: 6.00 Build 0)  -->
<svg version="1.1" id="Layer_1" xmlns="http://www.w3.org/2000/svg" xmlns:xlink="http://www.w3.org/1999/xlink" x="0px" y="0px"
	 viewBox="0 0 244.7 445" style="enable-background:new 0 0 244.7 445;" xml:space="preserve">
<style type="text/css">
	.st0{fill:#DBD8D1;}
	.st1{fill:#868586;stroke:#7D7D7D;stroke-miterlimit:10;}
	.st2{fill:#B1AD8A;}
	.st3{fill:none;stroke:#2A4A90;stroke-miterlimit:10;}
	.st4{fill:#415C9E;stroke:#294A90;stroke-miterlimit:10;}
	.st5{fill:#8C8C8C;stroke:#294A90;stroke-miterlimit:10;}
	.st6{enable-background:new    ;}
	.st7{fill:#2A4A90;}
	.st8{fill:#D1D3D4;}
	.st9{fill:none;stroke:#D1D3D4;stroke-miterlimit:10;}
	.st10{fill:#414042;}
	.st11{display:none;fill:#414042;}
	.st12{display:none;enable-background:new    ;}
	.st13{font-family:'DigitalDismay';}
	.st14{font-size:40.1011px;}
	.st15{font-size:21.0911px;}
	.st16{font-family:'HelveticaNeue-Medium';}
	.st17{font-size:17.2644px;}
	.st18{display:none;}
	.st19{font-family:'HelveticaNeue-Bold';}
	.st20{font-size:5.8895px;}
	.st21{font-size:9px;}
</style>
<path class="st0" d="M0,32.3c0,0,122.3-72.6,244.7,0c0,61.7,0,412.7,0,412.7H0V32.3z"/>
<path class="st1" d="M238,365c0,0-115.6,53.3-231.3,0c0-45.3,0-303.3,0-303.3H238V365z"/>
<rect x="65" y="131.3" class="st2" width="114.8" height="104.8"/>
<g>
	<g>
		<line class="st3" x1="6.7" y1="305.3" x2="238" y2="305.3"/>
		<circle class="st4" cx="199.7" cy="305.3" r="14.8"/>
		<circle class="st5" cx="149.1" cy="305.3" r="14.8"/>
		<circle class="st5" cx="98.5" cy="305.3" r="14.8"/>
		<circle class="st5" cx="47.9" cy="305.3" r="14.8"/>
	</g>
	<g class="st6">
		<path class="st7" d="M36.6,280.7h0.8v0.5h0c0.1-0.2,0.3-0.4,0.5-0.5c0.2-0.1,0.4-0.1,0.7-0.1c0.3,0,0.6,0.1,0.8,0.2
			s0.4,0.3,0.6,0.4c0.1,0.2,0.3,0.4,0.3,0.7c0.1,0.2,0.1,0.5,0.1,0.8c0,0.3,0,0.5-0.1,0.8s-0.2,0.5-0.3,0.6
			c-0.1,0.2-0.3,0.3-0.5,0.4c-0.2,0.1-0.5,0.2-0.7,0.2c-0.1,0-0.2,0-0.4,0c-0.1,0-0.2-0.1-0.4-0.1c-0.1,0-0.2-0.1-0.3-0.2
			c-0.1-0.1-0.2-0.2-0.2-0.3h0v1.9h-0.8V280.7z M39.6,282.7c0-0.2,0-0.3-0.1-0.5c0-0.2-0.1-0.3-0.2-0.4c-0.1-0.1-0.2-0.2-0.3-0.3
			c-0.1-0.1-0.3-0.1-0.5-0.1c-0.4,0-0.6,0.1-0.8,0.4s-0.3,0.6-0.3,1c0,0.2,0,0.4,0.1,0.5c0,0.2,0.1,0.3,0.2,0.4
			c0.1,0.1,0.2,0.2,0.3,0.3s0.3,0.1,0.5,0.1c0.2,0,0.4,0,0.5-0.1c0.1-0.1,0.2-0.2,0.3-0.3c0.1-0.1,0.1-0.3,0.2-0.4
			C39.6,283,39.6,282.8,39.6,282.7z"/>
		<path class="st7" d="M41.3,279.3h0.9v2.1h2.4v-2.1h0.9v5.3h-0.9v-2.4h-2.4v2.4h-0.9V279.3z"/>
		<path class="st7" d="M48.1,279.1h0.8l-2.1,5.6h-0.8L48.1,279.1z"/>
		<path class="st7" d="M49.1,280.7h0.8v0.5h0c0.1-0.1,0.1-0.2,0.2-0.3c0.1-0.1,0.2-0.1,0.2-0.2s0.2-0.1,0.3-0.1c0.1,0,0.3,0,0.4,0
			c0.2,0,0.4,0.1,0.7,0.2c0.2,0.1,0.3,0.3,0.4,0.5c0.1-0.2,0.3-0.4,0.5-0.5c0.2-0.1,0.4-0.2,0.7-0.2c0.4,0,0.7,0.1,0.9,0.3
			s0.3,0.5,0.3,1v2.7h-0.8v-2.2c0-0.2,0-0.3,0-0.4c0-0.1,0-0.2-0.1-0.3c0-0.1-0.1-0.2-0.2-0.2c-0.1,0-0.2-0.1-0.4-0.1
			c-0.3,0-0.5,0.1-0.6,0.3c-0.1,0.2-0.2,0.4-0.2,0.8v2.3h-0.8v-2.5c0-0.3,0-0.5-0.1-0.6c-0.1-0.1-0.3-0.2-0.5-0.2
			c-0.1,0-0.2,0-0.3,0.1s-0.2,0.1-0.3,0.2c-0.1,0.1-0.1,0.2-0.2,0.3c0,0.1-0.1,0.3-0.1,0.4v2.3h-0.8V280.7z"/>
		<path class="st7" d="M55.1,279.3h1l1.3,4.2h0l1.4-4.2h0.9l-1.8,5.3h-1L55.1,279.3z"/>
	</g>
	<g class="st6">
		<path class="st8" d="M79.1,282.8c0,0.2,0,0.4,0.1,0.5s0.2,0.3,0.3,0.4s0.3,0.2,0.4,0.2s0.3,0.1,0.5,0.1c0.2,0,0.4,0,0.5-0.1
			c0.1,0,0.3-0.1,0.3-0.2c0.1-0.1,0.2-0.2,0.2-0.3c0-0.1,0.1-0.2,0.1-0.3c0-0.2,0-0.4-0.1-0.5c-0.1-0.1-0.2-0.2-0.3-0.2
			c-0.2-0.1-0.4-0.1-0.7-0.2c-0.2-0.1-0.6-0.1-0.9-0.2c-0.2-0.1-0.4-0.1-0.6-0.2s-0.3-0.2-0.4-0.3c-0.1-0.1-0.2-0.2-0.2-0.4
			s-0.1-0.3-0.1-0.4c0-0.3,0.1-0.5,0.2-0.7c0.1-0.2,0.3-0.4,0.4-0.5s0.4-0.2,0.6-0.3c0.2-0.1,0.5-0.1,0.7-0.1c0.3,0,0.5,0,0.8,0.1
			s0.5,0.2,0.6,0.3c0.2,0.1,0.3,0.3,0.4,0.5c0.1,0.2,0.2,0.5,0.2,0.7h-0.9c0-0.3-0.1-0.6-0.3-0.7s-0.5-0.2-0.8-0.2
			c-0.1,0-0.2,0-0.3,0c-0.1,0-0.2,0.1-0.3,0.1c-0.1,0.1-0.2,0.1-0.2,0.2c-0.1,0.1-0.1,0.2-0.1,0.3c0,0.2,0.1,0.3,0.2,0.4
			s0.3,0.2,0.5,0.2c0,0,0.1,0,0.2,0.1c0.1,0,0.3,0.1,0.5,0.1c0.2,0,0.3,0.1,0.5,0.1s0.3,0.1,0.3,0.1c0.2,0.1,0.3,0.1,0.5,0.2
			c0.1,0.1,0.2,0.2,0.3,0.3c0.1,0.1,0.2,0.3,0.2,0.4s0.1,0.3,0.1,0.4c0,0.3-0.1,0.6-0.2,0.8c-0.1,0.2-0.3,0.4-0.5,0.5
			c-0.2,0.1-0.4,0.2-0.7,0.3c-0.3,0.1-0.5,0.1-0.8,0.1c-0.3,0-0.6,0-0.9-0.1s-0.5-0.2-0.7-0.3s-0.4-0.4-0.5-0.6
			c-0.1-0.2-0.2-0.5-0.2-0.9H79.1z"/>
		<path class="st8" d="M82.8,280.7h0.6v-1.2h0.8v1.2h0.8v0.6h-0.8v2.1c0,0.1,0,0.2,0,0.2c0,0.1,0,0.1,0.1,0.2c0,0,0.1,0.1,0.1,0.1
			c0.1,0,0.1,0,0.2,0c0.1,0,0.1,0,0.2,0c0.1,0,0.1,0,0.2,0v0.7c-0.1,0-0.2,0-0.3,0c-0.1,0-0.2,0-0.3,0c-0.2,0-0.4,0-0.5-0.1
			c-0.1,0-0.2-0.1-0.3-0.2c-0.1-0.1-0.1-0.2-0.2-0.3s0-0.3,0-0.4v-2.3h-0.6V280.7z"/>
		<path class="st8" d="M88.9,283.7c0,0.1,0,0.2,0,0.2s0.1,0.1,0.2,0.1c0,0,0.1,0,0.1,0c0,0,0.1,0,0.1,0v0.6c0,0-0.1,0-0.1,0
			c0,0-0.1,0-0.1,0c0,0-0.1,0-0.1,0s-0.1,0-0.1,0c-0.2,0-0.3,0-0.4-0.1s-0.2-0.2-0.2-0.4c-0.2,0.2-0.4,0.3-0.6,0.4
			c-0.2,0.1-0.5,0.1-0.7,0.1c-0.2,0-0.3,0-0.5-0.1c-0.2,0-0.3-0.1-0.4-0.2c-0.1-0.1-0.2-0.2-0.3-0.3c-0.1-0.1-0.1-0.3-0.1-0.5
			c0-0.2,0-0.4,0.1-0.6c0.1-0.1,0.2-0.3,0.3-0.3c0.1-0.1,0.3-0.1,0.5-0.2s0.4-0.1,0.5-0.1c0.2,0,0.3-0.1,0.4-0.1
			c0.1,0,0.3,0,0.4-0.1c0.1,0,0.2-0.1,0.3-0.1c0.1-0.1,0.1-0.2,0.1-0.3c0-0.1,0-0.2-0.1-0.3c-0.1-0.1-0.1-0.1-0.2-0.2
			c-0.1,0-0.2-0.1-0.3-0.1c-0.1,0-0.2,0-0.3,0c-0.2,0-0.4,0-0.6,0.1c-0.2,0.1-0.2,0.3-0.3,0.5h-0.8c0-0.2,0.1-0.5,0.2-0.6
			c0.1-0.2,0.2-0.3,0.4-0.4c0.2-0.1,0.3-0.2,0.5-0.2c0.2,0,0.4-0.1,0.6-0.1c0.2,0,0.4,0,0.6,0.1c0.2,0,0.3,0.1,0.5,0.2
			c0.1,0.1,0.3,0.2,0.4,0.3c0.1,0.1,0.1,0.3,0.1,0.5V283.7z M88,282.7c-0.1,0.1-0.3,0.1-0.5,0.2s-0.4,0-0.6,0.1
			c-0.1,0-0.2,0-0.3,0.1s-0.2,0.1-0.2,0.1c-0.1,0-0.1,0.1-0.2,0.2c0,0.1-0.1,0.2-0.1,0.3c0,0.1,0,0.2,0.1,0.2s0.1,0.1,0.2,0.2
			c0.1,0,0.2,0.1,0.3,0.1c0.1,0,0.2,0,0.2,0c0.1,0,0.2,0,0.3,0c0.1,0,0.2-0.1,0.3-0.1s0.2-0.1,0.2-0.2s0.1-0.2,0.1-0.3V282.7z"/>
		<path class="st8" d="M89.8,280.7h0.8v0.6l0,0c0.1-0.2,0.3-0.4,0.5-0.5c0.2-0.1,0.4-0.2,0.7-0.2c0.4,0,0.8,0.1,1,0.3
			c0.2,0.2,0.4,0.5,0.4,1v2.6h-0.8v-2.4c0-0.3-0.1-0.5-0.2-0.7c-0.1-0.1-0.3-0.2-0.6-0.2c-0.1,0-0.3,0-0.4,0.1
			c-0.1,0.1-0.2,0.1-0.3,0.2s-0.1,0.2-0.2,0.3c0,0.1-0.1,0.3-0.1,0.4v2.3h-0.8V280.7z"/>
		<path class="st8" d="M97.7,284.6h-0.8v-0.5h0c-0.1,0.2-0.3,0.4-0.5,0.5c-0.2,0.1-0.4,0.1-0.7,0.1c-0.3,0-0.6-0.1-0.8-0.2
			s-0.4-0.3-0.6-0.4c-0.1-0.2-0.3-0.4-0.3-0.7c-0.1-0.2-0.1-0.5-0.1-0.8c0-0.3,0-0.6,0.1-0.9c0.1-0.3,0.2-0.5,0.4-0.6
			c0.2-0.2,0.3-0.3,0.5-0.4c0.2-0.1,0.4-0.1,0.6-0.1c0.1,0,0.2,0,0.4,0c0.1,0,0.2,0.1,0.4,0.1s0.2,0.1,0.3,0.2s0.2,0.2,0.2,0.3h0v-2
			h0.8V284.6z M94.7,282.7c0,0.2,0,0.3,0.1,0.5c0,0.2,0.1,0.3,0.2,0.4s0.2,0.2,0.3,0.3s0.3,0.1,0.5,0.1c0.2,0,0.4,0,0.5-0.1
			c0.1-0.1,0.2-0.2,0.3-0.3s0.2-0.3,0.2-0.4c0-0.2,0.1-0.3,0.1-0.5c0-0.4-0.1-0.8-0.3-1c-0.2-0.2-0.5-0.4-0.8-0.4
			c-0.2,0-0.4,0-0.5,0.1c-0.1,0.1-0.2,0.2-0.3,0.3c-0.1,0.1-0.1,0.3-0.2,0.4S94.7,282.5,94.7,282.7z"/>
		<path class="st8" d="M101.8,283.7c0,0.1,0,0.2,0,0.2s0.1,0.1,0.2,0.1c0,0,0.1,0,0.1,0c0,0,0.1,0,0.1,0v0.6c0,0-0.1,0-0.1,0
			c0,0-0.1,0-0.1,0c0,0-0.1,0-0.1,0s-0.1,0-0.1,0c-0.2,0-0.3,0-0.4-0.1s-0.2-0.2-0.2-0.4c-0.2,0.2-0.4,0.3-0.6,0.4
			c-0.2,0.1-0.5,0.1-0.7,0.1c-0.2,0-0.3,0-0.5-0.1c-0.2,0-0.3-0.1-0.4-0.2c-0.1-0.1-0.2-0.2-0.3-0.3c-0.1-0.1-0.1-0.3-0.1-0.5
			c0-0.2,0-0.4,0.1-0.6c0.1-0.1,0.2-0.3,0.3-0.3c0.1-0.1,0.3-0.1,0.5-0.2s0.4-0.1,0.5-0.1c0.2,0,0.3-0.1,0.4-0.1
			c0.1,0,0.3,0,0.4-0.1c0.1,0,0.2-0.1,0.3-0.1c0.1-0.1,0.1-0.2,0.1-0.3c0-0.1,0-0.2-0.1-0.3c-0.1-0.1-0.1-0.1-0.2-0.2
			c-0.1,0-0.2-0.1-0.3-0.1c-0.1,0-0.2,0-0.3,0c-0.2,0-0.4,0-0.6,0.1c-0.2,0.1-0.2,0.3-0.3,0.5h-0.8c0-0.2,0.1-0.5,0.2-0.6
			c0.1-0.2,0.2-0.3,0.4-0.4c0.2-0.1,0.3-0.2,0.5-0.2c0.2,0,0.4-0.1,0.6-0.1c0.2,0,0.4,0,0.6,0.1c0.2,0,0.3,0.1,0.5,0.2
			c0.1,0.1,0.3,0.2,0.4,0.3c0.1,0.1,0.1,0.3,0.1,0.5V283.7z M101,282.7c-0.1,0.1-0.3,0.1-0.5,0.2s-0.4,0-0.6,0.1
			c-0.1,0-0.2,0-0.3,0.1s-0.2,0.1-0.2,0.1c-0.1,0-0.1,0.1-0.2,0.2c0,0.1-0.1,0.2-0.1,0.3c0,0.1,0,0.2,0.1,0.2s0.1,0.1,0.2,0.2
			c0.1,0,0.2,0.1,0.3,0.1c0.1,0,0.2,0,0.2,0c0.1,0,0.2,0,0.3,0c0.1,0,0.2-0.1,0.3-0.1s0.2-0.1,0.2-0.2s0.1-0.2,0.1-0.3V282.7z"/>
		<path class="st8" d="M102.8,280.7h0.8v0.7h0c0-0.1,0.1-0.2,0.1-0.3c0.1-0.1,0.2-0.2,0.3-0.3s0.2-0.1,0.3-0.2
			c0.1,0,0.2-0.1,0.4-0.1c0.1,0,0.2,0,0.2,0c0,0,0.1,0,0.1,0v0.8c-0.1,0-0.1,0-0.2,0c-0.1,0-0.1,0-0.2,0c-0.1,0-0.3,0-0.4,0.1
			c-0.1,0.1-0.2,0.1-0.3,0.3c-0.1,0.1-0.2,0.2-0.2,0.4c-0.1,0.2-0.1,0.4-0.1,0.6v1.8h-0.8V280.7z"/>
		<path class="st8" d="M108.9,284.6h-0.8v-0.5h0c-0.1,0.2-0.3,0.4-0.5,0.5c-0.2,0.1-0.4,0.1-0.7,0.1c-0.3,0-0.6-0.1-0.8-0.2
			s-0.4-0.3-0.6-0.4c-0.1-0.2-0.3-0.4-0.3-0.7c-0.1-0.2-0.1-0.5-0.1-0.8c0-0.3,0-0.6,0.1-0.9c0.1-0.3,0.2-0.5,0.4-0.6
			c0.2-0.2,0.3-0.3,0.5-0.4c0.2-0.1,0.4-0.1,0.6-0.1c0.1,0,0.2,0,0.4,0c0.1,0,0.2,0.1,0.4,0.1s0.2,0.1,0.3,0.2s0.2,0.2,0.2,0.3h0v-2
			h0.8V284.6z M105.9,282.7c0,0.2,0,0.3,0.1,0.5c0,0.2,0.1,0.3,0.2,0.4s0.2,0.2,0.3,0.3s0.3,0.1,0.5,0.1c0.2,0,0.4,0,0.5-0.1
			c0.1-0.1,0.2-0.2,0.3-0.3s0.2-0.3,0.2-0.4c0-0.2,0.1-0.3,0.1-0.5c0-0.4-0.1-0.8-0.3-1c-0.2-0.2-0.5-0.4-0.8-0.4
			c-0.2,0-0.4,0-0.5,0.1c-0.1,0.1-0.2,0.2-0.3,0.3c-0.1,0.1-0.1,0.3-0.2,0.4S105.9,282.5,105.9,282.7z"/>
		<path class="st8" d="M109.8,279.3h0.8v0.8h-0.8V279.3z M109.8,280.7h0.8v3.8h-0.8V280.7z"/>
		<path class="st8" d="M111.4,280.7h3.1v0.6l-2.2,2.6h2.3v0.7h-3.4V284l2.1-2.6h-2V280.7z"/>
		<path class="st8" d="M115.9,282.9c0,0.1,0,0.3,0.1,0.4s0.1,0.3,0.2,0.4c0.1,0.1,0.2,0.2,0.3,0.2c0.1,0.1,0.3,0.1,0.5,0.1
			c0.2,0,0.4-0.1,0.6-0.2s0.3-0.3,0.3-0.5h0.8c0,0.2-0.1,0.4-0.2,0.6c-0.1,0.2-0.2,0.3-0.4,0.4s-0.3,0.2-0.5,0.3
			c-0.2,0.1-0.4,0.1-0.6,0.1c-0.3,0-0.6,0-0.8-0.1c-0.2-0.1-0.4-0.2-0.6-0.4s-0.3-0.4-0.4-0.6c-0.1-0.2-0.1-0.5-0.1-0.8
			c0-0.3,0-0.5,0.1-0.8s0.2-0.5,0.4-0.6c0.2-0.2,0.4-0.3,0.6-0.4c0.2-0.1,0.5-0.2,0.8-0.2c0.3,0,0.6,0.1,0.8,0.2
			c0.2,0.1,0.4,0.3,0.6,0.5c0.2,0.2,0.3,0.4,0.3,0.7c0.1,0.3,0.1,0.5,0.1,0.8H115.9z M117.9,282.3c0-0.1,0-0.3-0.1-0.4
			s-0.1-0.2-0.2-0.3c-0.1-0.1-0.2-0.2-0.3-0.2s-0.2-0.1-0.4-0.1c-0.1,0-0.3,0-0.4,0.1c-0.1,0.1-0.2,0.1-0.3,0.2
			c-0.1,0.1-0.2,0.2-0.2,0.3c-0.1,0.1-0.1,0.3-0.1,0.4H117.9z"/>
	</g>
	<g class="st6">
		<path class="st8" d="M140.2,282.8c0,0.2,0,0.4,0.1,0.5s0.2,0.3,0.3,0.4s0.3,0.2,0.4,0.2c0.2,0,0.3,0.1,0.5,0.1
			c0.2,0,0.4,0,0.5-0.1c0.1,0,0.3-0.1,0.3-0.2c0.1-0.1,0.2-0.2,0.2-0.3c0-0.1,0.1-0.2,0.1-0.3c0-0.2,0-0.4-0.1-0.5s-0.2-0.2-0.3-0.2
			c-0.2-0.1-0.4-0.1-0.7-0.2c-0.2-0.1-0.6-0.1-0.9-0.2c-0.2-0.1-0.4-0.1-0.6-0.2c-0.2-0.1-0.3-0.2-0.4-0.3c-0.1-0.1-0.2-0.2-0.2-0.4
			s-0.1-0.3-0.1-0.4c0-0.3,0.1-0.5,0.2-0.7c0.1-0.2,0.3-0.4,0.4-0.5s0.4-0.2,0.6-0.3c0.2-0.1,0.5-0.1,0.7-0.1c0.3,0,0.5,0,0.8,0.1
			c0.2,0.1,0.5,0.2,0.6,0.3s0.3,0.3,0.4,0.5c0.1,0.2,0.2,0.5,0.2,0.7h-0.9c0-0.3-0.1-0.6-0.3-0.7s-0.5-0.2-0.8-0.2
			c-0.1,0-0.2,0-0.3,0c-0.1,0-0.2,0.1-0.3,0.1c-0.1,0.1-0.2,0.1-0.2,0.2c-0.1,0.1-0.1,0.2-0.1,0.3c0,0.2,0.1,0.3,0.2,0.4
			c0.1,0.1,0.3,0.2,0.5,0.2c0,0,0.1,0,0.2,0.1s0.3,0.1,0.5,0.1s0.3,0.1,0.5,0.1c0.2,0,0.3,0.1,0.3,0.1c0.2,0.1,0.3,0.1,0.5,0.2
			c0.1,0.1,0.2,0.2,0.3,0.3c0.1,0.1,0.2,0.3,0.2,0.4s0.1,0.3,0.1,0.4c0,0.3-0.1,0.6-0.2,0.8c-0.1,0.2-0.3,0.4-0.5,0.5
			c-0.2,0.1-0.4,0.2-0.7,0.3c-0.3,0.1-0.5,0.1-0.8,0.1c-0.3,0-0.6,0-0.9-0.1s-0.5-0.2-0.7-0.3c-0.2-0.2-0.4-0.4-0.5-0.6
			s-0.2-0.5-0.2-0.9H140.2z"/>
		<path class="st8" d="M144.9,282.9c0,0.1,0,0.3,0.1,0.4s0.1,0.3,0.2,0.4c0.1,0.1,0.2,0.2,0.3,0.2c0.1,0.1,0.3,0.1,0.5,0.1
			c0.2,0,0.4-0.1,0.6-0.2c0.2-0.1,0.3-0.3,0.3-0.5h0.8c0,0.2-0.1,0.4-0.2,0.6c-0.1,0.2-0.2,0.3-0.4,0.4c-0.2,0.1-0.3,0.2-0.5,0.3
			c-0.2,0.1-0.4,0.1-0.6,0.1c-0.3,0-0.6,0-0.8-0.1c-0.2-0.1-0.4-0.2-0.6-0.4s-0.3-0.4-0.4-0.6s-0.1-0.5-0.1-0.8c0-0.3,0-0.5,0.1-0.8
			c0.1-0.2,0.2-0.5,0.4-0.6c0.2-0.2,0.4-0.3,0.6-0.4c0.2-0.1,0.5-0.2,0.8-0.2c0.3,0,0.6,0.1,0.8,0.2c0.2,0.1,0.4,0.3,0.6,0.5
			c0.2,0.2,0.3,0.4,0.3,0.7c0.1,0.3,0.1,0.5,0.1,0.8H144.9z M146.9,282.3c0-0.1,0-0.3-0.1-0.4s-0.1-0.2-0.2-0.3
			c-0.1-0.1-0.2-0.2-0.3-0.2c-0.1-0.1-0.2-0.1-0.4-0.1c-0.1,0-0.3,0-0.4,0.1c-0.1,0.1-0.2,0.1-0.3,0.2s-0.2,0.2-0.2,0.3
			c-0.1,0.1-0.1,0.3-0.1,0.4H146.9z"/>
		<path class="st8" d="M148,280.7h0.6v-1.2h0.8v1.2h0.8v0.6h-0.8v2.1c0,0.1,0,0.2,0,0.2s0,0.1,0.1,0.2c0,0,0.1,0.1,0.1,0.1
			c0.1,0,0.1,0,0.2,0c0.1,0,0.1,0,0.2,0c0.1,0,0.1,0,0.2,0v0.7c-0.1,0-0.2,0-0.3,0s-0.2,0-0.3,0c-0.2,0-0.4,0-0.5-0.1
			c-0.1,0-0.2-0.1-0.3-0.2s-0.1-0.2-0.2-0.3s0-0.3,0-0.4v-2.3H148V280.7z"/>
		<path class="st8" d="M154.2,284.6h-0.8V284h0c-0.1,0.2-0.3,0.3-0.5,0.5c-0.2,0.1-0.4,0.2-0.6,0.2c-0.5,0-0.9-0.1-1.1-0.4
			c-0.2-0.2-0.3-0.6-0.3-1.1v-2.4h0.8v2.4c0,0.3,0.1,0.6,0.2,0.7s0.3,0.2,0.5,0.2c0.2,0,0.3,0,0.4-0.1s0.2-0.1,0.3-0.2
			c0.1-0.1,0.1-0.2,0.2-0.3c0-0.1,0-0.3,0-0.4v-2.2h0.8V284.6z"/>
		<path class="st8" d="M155.1,280.7h0.8v0.5h0c0.1-0.2,0.3-0.4,0.5-0.5s0.4-0.1,0.7-0.1c0.3,0,0.6,0.1,0.8,0.2
			c0.2,0.1,0.4,0.3,0.6,0.4c0.1,0.2,0.3,0.4,0.3,0.7c0.1,0.2,0.1,0.5,0.1,0.8c0,0.3,0,0.5-0.1,0.8c-0.1,0.2-0.2,0.5-0.3,0.6
			c-0.1,0.2-0.3,0.3-0.5,0.4c-0.2,0.1-0.5,0.2-0.7,0.2c-0.1,0-0.2,0-0.4,0c-0.1,0-0.2-0.1-0.4-0.1c-0.1,0-0.2-0.1-0.3-0.2
			s-0.2-0.2-0.2-0.3h0v1.9h-0.8V280.7z M158.1,282.7c0-0.2,0-0.3-0.1-0.5c0-0.2-0.1-0.3-0.2-0.4c-0.1-0.1-0.2-0.2-0.3-0.3
			c-0.1-0.1-0.3-0.1-0.5-0.1c-0.4,0-0.6,0.1-0.8,0.4c-0.2,0.2-0.3,0.6-0.3,1c0,0.2,0,0.4,0.1,0.5s0.1,0.3,0.2,0.4
			c0.1,0.1,0.2,0.2,0.3,0.3c0.1,0.1,0.3,0.1,0.5,0.1c0.2,0,0.4,0,0.5-0.1c0.1-0.1,0.2-0.2,0.3-0.3c0.1-0.1,0.1-0.3,0.2-0.4
			C158.1,283,158.1,282.8,158.1,282.7z"/>
	</g>
	<g class="st6">
		<path class="st8" d="M191.2,279.3h3.8v0.8h-2.9v1.4h2.7v0.8h-2.7v1.6h2.9v0.8h-3.9V279.3z"/>
		<path class="st8" d="M195.7,280.7h0.8v0.6l0,0c0.1-0.2,0.3-0.4,0.5-0.5c0.2-0.1,0.4-0.2,0.7-0.2c0.4,0,0.8,0.1,1,0.3
			c0.2,0.2,0.4,0.5,0.4,1v2.6h-0.8v-2.4c0-0.3-0.1-0.5-0.2-0.7c-0.1-0.1-0.3-0.2-0.6-0.2c-0.1,0-0.3,0-0.4,0.1
			c-0.1,0.1-0.2,0.1-0.3,0.2s-0.1,0.2-0.2,0.3c0,0.1-0.1,0.3-0.1,0.4v2.3h-0.8V280.7z"/>
		<path class="st8" d="M199.6,280.7h0.6v-1.2h0.8v1.2h0.8v0.6h-0.8v2.1c0,0.1,0,0.2,0,0.2c0,0.1,0,0.1,0.1,0.2c0,0,0.1,0.1,0.1,0.1
			c0.1,0,0.1,0,0.2,0c0.1,0,0.1,0,0.2,0c0.1,0,0.1,0,0.2,0v0.7c-0.1,0-0.2,0-0.3,0c-0.1,0-0.2,0-0.3,0c-0.2,0-0.4,0-0.5-0.1
			c-0.1,0-0.2-0.1-0.3-0.2c-0.1-0.1-0.1-0.2-0.2-0.3s0-0.3,0-0.4v-2.3h-0.6V280.7z"/>
		<path class="st8" d="M203.1,282.9c0,0.1,0,0.3,0.1,0.4s0.1,0.3,0.2,0.4c0.1,0.1,0.2,0.2,0.3,0.2c0.1,0.1,0.3,0.1,0.5,0.1
			c0.2,0,0.4-0.1,0.6-0.2s0.3-0.3,0.3-0.5h0.8c0,0.2-0.1,0.4-0.2,0.6c-0.1,0.2-0.2,0.3-0.4,0.4s-0.3,0.2-0.5,0.3
			c-0.2,0.1-0.4,0.1-0.6,0.1c-0.3,0-0.6,0-0.8-0.1c-0.2-0.1-0.4-0.2-0.6-0.4s-0.3-0.4-0.4-0.6c-0.1-0.2-0.1-0.5-0.1-0.8
			c0-0.3,0-0.5,0.1-0.8s0.2-0.5,0.4-0.6c0.2-0.2,0.4-0.3,0.6-0.4c0.2-0.1,0.5-0.2,0.8-0.2c0.3,0,0.6,0.1,0.8,0.2
			c0.2,0.1,0.4,0.3,0.6,0.5c0.2,0.2,0.3,0.4,0.3,0.7c0.1,0.3,0.1,0.5,0.1,0.8H203.1z M205.1,282.3c0-0.1,0-0.3-0.1-0.4
			s-0.1-0.2-0.2-0.3c-0.1-0.1-0.2-0.2-0.3-0.2s-0.2-0.1-0.4-0.1c-0.1,0-0.3,0-0.4,0.1c-0.1,0.1-0.2,0.1-0.3,0.2
			c-0.1,0.1-0.2,0.2-0.2,0.3c-0.1,0.1-0.1,0.3-0.1,0.4H205.1z"/>
		<path class="st8" d="M206.6,280.7h0.8v0.7h0c0-0.1,0.1-0.2,0.1-0.3c0.1-0.1,0.2-0.2,0.3-0.3s0.2-0.1,0.3-0.2
			c0.1,0,0.3-0.1,0.4-0.1c0.1,0,0.2,0,0.2,0s0.1,0,0.1,0v0.8c-0.1,0-0.1,0-0.2,0c-0.1,0-0.1,0-0.2,0c-0.1,0-0.3,0-0.4,0.1
			s-0.2,0.1-0.3,0.3c-0.1,0.1-0.2,0.2-0.2,0.4c-0.1,0.2-0.1,0.4-0.1,0.6v1.8h-0.8V280.7z"/>
	</g>
</g>
<g>
	<g class="st6">
		<path class="st8" d="M88.4,95.1v-1.8h8.2v1.8h-3v8.1h-2.2v-8.1H88.4z"/>
		<path class="st8" d="M99.9,93.3v8.1h4.9v1.8h-7.1v-10H99.9z"/>
		<path class="st8" d="M108.2,93.3v8.1h4.9v1.8H106v-10H108.2z"/>
		<path class="st8" d="M119.9,100.8c0.1,0.2,0.3,0.4,0.5,0.6c0.2,0.1,0.4,0.3,0.7,0.3c0.3,0.1,0.6,0.1,0.8,0.1c0.2,0,0.4,0,0.6,0
			c0.2,0,0.4-0.1,0.6-0.2s0.4-0.2,0.5-0.4s0.2-0.4,0.2-0.6c0-0.3-0.1-0.5-0.3-0.7s-0.4-0.3-0.7-0.4c-0.3-0.1-0.6-0.2-1-0.3
			c-0.4-0.1-0.7-0.2-1.1-0.3c-0.4-0.1-0.7-0.2-1.1-0.3c-0.4-0.1-0.7-0.3-1-0.5c-0.3-0.2-0.5-0.5-0.7-0.8c-0.2-0.3-0.3-0.7-0.3-1.2
			c0-0.5,0.1-1,0.3-1.3c0.2-0.4,0.5-0.7,0.9-0.9c0.4-0.3,0.8-0.4,1.2-0.6c0.4-0.1,0.9-0.2,1.3-0.2c0.5,0,1,0.1,1.5,0.2
			c0.5,0.1,0.9,0.3,1.3,0.6c0.4,0.3,0.7,0.6,0.9,1c0.2,0.4,0.3,0.9,0.3,1.5h-2.1c0-0.3-0.1-0.5-0.2-0.7c-0.1-0.2-0.2-0.3-0.4-0.5
			c-0.2-0.1-0.4-0.2-0.6-0.2s-0.5-0.1-0.7-0.1c-0.2,0-0.4,0-0.5,0.1c-0.2,0-0.3,0.1-0.5,0.2c-0.1,0.1-0.3,0.2-0.4,0.3
			c-0.1,0.1-0.1,0.3-0.1,0.5c0,0.2,0,0.4,0.1,0.5s0.2,0.2,0.4,0.3s0.5,0.2,0.9,0.3s0.9,0.2,1.5,0.4c0.2,0,0.4,0.1,0.8,0.2
			c0.3,0.1,0.7,0.3,1,0.5c0.3,0.2,0.6,0.5,0.8,0.9c0.2,0.4,0.4,0.8,0.4,1.4c0,0.5-0.1,0.9-0.3,1.3c-0.2,0.4-0.4,0.7-0.8,1
			c-0.3,0.3-0.8,0.5-1.3,0.7c-0.5,0.2-1.1,0.2-1.8,0.2c-0.6,0-1.1-0.1-1.6-0.2c-0.5-0.1-1-0.3-1.4-0.6c-0.4-0.3-0.7-0.7-0.9-1.1
			c-0.2-0.4-0.3-1-0.3-1.6h2.1C119.7,100.3,119.8,100.6,119.9,100.8z"/>
		<path class="st8" d="M130.5,97.3c-0.3,0-0.6,0.1-0.8,0.2c-0.2,0.1-0.4,0.3-0.5,0.6c-0.1,0.2-0.2,0.5-0.3,0.8
			c-0.1,0.3-0.1,0.5-0.1,0.8c0,0.3,0,0.5,0.1,0.8c0.1,0.3,0.1,0.5,0.3,0.7c0.1,0.2,0.3,0.4,0.5,0.5c0.2,0.1,0.5,0.2,0.8,0.2
			c0.5,0,0.8-0.1,1.1-0.4c0.3-0.3,0.4-0.6,0.5-1.1h1.9c-0.1,1-0.5,1.7-1.1,2.2c-0.6,0.5-1.4,0.8-2.4,0.8c-0.5,0-1-0.1-1.5-0.3
			c-0.5-0.2-0.8-0.4-1.2-0.8c-0.3-0.3-0.6-0.7-0.7-1.2c-0.2-0.5-0.3-0.9-0.3-1.5c0-0.6,0.1-1.1,0.2-1.6c0.2-0.5,0.4-0.9,0.7-1.2
			s0.7-0.6,1.2-0.8c0.5-0.2,1-0.3,1.6-0.3c0.4,0,0.8,0.1,1.2,0.2c0.4,0.1,0.8,0.3,1.1,0.5c0.3,0.2,0.6,0.5,0.8,0.9s0.3,0.7,0.3,1.2
			H132C131.9,97.8,131.4,97.3,130.5,97.3z"/>
		<path class="st8" d="M135.2,94.9v-1.6h2v1.6H135.2z M137.2,96v7.2h-2V96H137.2z"/>
		<path class="st8" d="M140.8,101.5c0.3,0.3,0.7,0.4,1.3,0.4c0.4,0,0.7-0.1,1-0.3c0.3-0.2,0.5-0.4,0.5-0.6h1.8
			c-0.3,0.9-0.7,1.5-1.3,1.9c-0.6,0.4-1.3,0.6-2.1,0.6c-0.6,0-1.1-0.1-1.5-0.3c-0.5-0.2-0.8-0.4-1.2-0.8s-0.6-0.7-0.7-1.2
			c-0.2-0.5-0.3-1-0.3-1.5c0-0.5,0.1-1,0.3-1.5c0.2-0.5,0.4-0.9,0.8-1.2s0.7-0.6,1.2-0.8c0.5-0.2,1-0.3,1.5-0.3
			c0.6,0,1.2,0.1,1.6,0.4s0.8,0.6,1.1,1s0.5,0.9,0.6,1.4c0.1,0.5,0.2,1,0.1,1.6h-5.2C140.4,100.8,140.5,101.3,140.8,101.5z
			 M143.1,97.7c-0.2-0.3-0.6-0.4-1.1-0.4c-0.3,0-0.6,0.1-0.8,0.2s-0.4,0.2-0.5,0.4c-0.1,0.2-0.2,0.3-0.3,0.5
			c-0.1,0.2-0.1,0.3-0.1,0.5h3.2C143.5,98.4,143.3,98,143.1,97.7z"/>
		<path class="st8" d="M148.6,96v1h0c0.3-0.4,0.6-0.7,1-0.9s0.8-0.3,1.2-0.3c0.5,0,1,0.1,1.3,0.2c0.3,0.1,0.6,0.3,0.8,0.6
			c0.2,0.3,0.3,0.6,0.4,0.9c0.1,0.4,0.1,0.8,0.1,1.2v4.5h-2v-4.1c0-0.6-0.1-1-0.3-1.3c-0.2-0.3-0.5-0.4-1-0.4
			c-0.5,0-0.9,0.2-1.2,0.5c-0.2,0.3-0.4,0.9-0.4,1.6v3.8h-2V96H148.6z"/>
		<path class="st8" d="M159,96v1.3h-1.5v3.6c0,0.3,0.1,0.6,0.2,0.7c0.1,0.1,0.3,0.2,0.7,0.2c0.1,0,0.2,0,0.3,0c0.1,0,0.2,0,0.3,0
			v1.5c-0.2,0-0.4,0-0.6,0.1c-0.2,0-0.4,0-0.6,0c-0.3,0-0.6,0-0.9-0.1s-0.5-0.1-0.7-0.2c-0.2-0.1-0.4-0.3-0.5-0.5
			c-0.1-0.2-0.2-0.5-0.2-0.9v-4.3h-1.2V96h1.2v-2.2h2V96H159z"/>
		<path class="st8" d="M160,94.9v-1.6h2v1.6H160z M162,96v7.2h-2V96H162z"/>
		<path class="st8" d="M162.8,97.4V96h1.2v-0.6c0-0.6,0.2-1.2,0.6-1.6c0.4-0.4,1-0.6,1.8-0.6c0.2,0,0.4,0,0.5,0c0.2,0,0.3,0,0.5,0
			v1.5c-0.2,0-0.5,0-0.7,0c-0.3,0-0.5,0.1-0.6,0.2c-0.1,0.1-0.2,0.3-0.2,0.6V96h1.4v1.3H166v5.9h-2v-5.9H162.8z"/>
		<path class="st8" d="M168.3,94.9v-1.6h2v1.6H168.3z M170.3,96v7.2h-2V96H170.3z"/>
		<path class="st8" d="M175.3,97.3c-0.3,0-0.6,0.1-0.8,0.2c-0.2,0.1-0.4,0.3-0.5,0.6c-0.1,0.2-0.2,0.5-0.3,0.8s-0.1,0.5-0.1,0.8
			c0,0.3,0,0.5,0.1,0.8s0.1,0.5,0.3,0.7c0.1,0.2,0.3,0.4,0.5,0.5c0.2,0.1,0.5,0.2,0.8,0.2c0.5,0,0.8-0.1,1.1-0.4s0.4-0.6,0.5-1.1
			h1.9c-0.1,1-0.5,1.7-1.1,2.2s-1.4,0.8-2.4,0.8c-0.5,0-1-0.1-1.5-0.3c-0.5-0.2-0.8-0.4-1.2-0.8c-0.3-0.3-0.6-0.7-0.7-1.2
			c-0.2-0.5-0.3-0.9-0.3-1.5c0-0.6,0.1-1.1,0.2-1.6s0.4-0.9,0.7-1.2s0.7-0.6,1.2-0.8c0.5-0.2,1-0.3,1.6-0.3c0.4,0,0.8,0.1,1.2,0.2
			c0.4,0.1,0.8,0.3,1.1,0.5c0.3,0.2,0.6,0.5,0.8,0.9c0.2,0.3,0.3,0.7,0.3,1.2h-1.9C176.7,97.8,176.2,97.3,175.3,97.3z"/>
	</g>
	<g>
		<polygon class="st8" points="80.4,94.7 79.4,93.7 72.8,100.4 69.9,97.5 69,98.5 72.8,102.3 72.8,102.3 72.8,102.3 		"/>
		<polygon class="st9" points="70.1,105.9 65.5,98 70.1,90.1 79.3,90.1 83.8,98 79.3,105.9 		"/>
	</g>
</g>
<g>
	<polygon class="st8" points="97.2,345.9 122.3,370.7 147.5,345.9 	"/>
	<g class="st6">
		<path class="st8" d="M104.5,336.3h3.2c0.5,0,0.9,0.1,1.2,0.2c0.3,0.1,0.6,0.3,0.7,0.5s0.3,0.5,0.4,0.7c0.1,0.3,0.1,0.5,0.1,0.7
			c0,0.2,0,0.5-0.1,0.7c-0.1,0.3-0.2,0.5-0.4,0.7s-0.4,0.4-0.7,0.5c-0.3,0.1-0.7,0.2-1.2,0.2h-1.9v2.7h-1.2V336.3z M105.8,339.7h1.8
			c0.1,0,0.3,0,0.4-0.1c0.1,0,0.3-0.1,0.4-0.2c0.1-0.1,0.2-0.2,0.3-0.4s0.1-0.3,0.1-0.6c0-0.2,0-0.4-0.1-0.6
			c-0.1-0.2-0.2-0.3-0.3-0.4c-0.1-0.1-0.2-0.2-0.4-0.2c-0.1,0-0.3,0-0.5,0h-1.9V339.7z"/>
		<path class="st8" d="M111.2,336.3h3.4c0.8,0,1.4,0.2,1.8,0.5s0.6,0.8,0.6,1.4c0,0.3,0,0.6-0.1,0.8c-0.1,0.2-0.2,0.4-0.4,0.5
			s-0.3,0.2-0.4,0.3c-0.1,0.1-0.2,0.1-0.3,0.1v0c0.1,0,0.2,0,0.3,0.1c0.1,0.1,0.2,0.1,0.3,0.3c0.1,0.1,0.2,0.3,0.3,0.5
			c0.1,0.2,0.1,0.4,0.1,0.7c0,0.4,0,0.8,0.1,1.1c0.1,0.3,0.2,0.6,0.3,0.7h-1.3c-0.1-0.2-0.1-0.3-0.2-0.5s0-0.4,0-0.5
			c0-0.3,0-0.6-0.1-0.8c0-0.2-0.1-0.4-0.2-0.6c-0.1-0.2-0.3-0.3-0.4-0.3c-0.2-0.1-0.4-0.1-0.7-0.1h-1.8v2.9h-1.2V336.3z
			 M112.5,339.5h2.1c0.4,0,0.7-0.1,0.9-0.3c0.2-0.2,0.3-0.5,0.3-0.9c0-0.2,0-0.4-0.1-0.6c-0.1-0.1-0.2-0.3-0.3-0.3s-0.2-0.1-0.4-0.2
			s-0.3,0-0.5,0h-2V339.5z"/>
		<path class="st8" d="M118.3,336.3h5.1v1.1h-3.9v1.9h3.6v1h-3.6v2.1h4v1.1h-5.2V336.3z"/>
		<path class="st8" d="M129.4,338.5c-0.1-0.2-0.1-0.4-0.2-0.6c-0.1-0.2-0.2-0.3-0.4-0.4c-0.1-0.1-0.3-0.2-0.5-0.3
			c-0.2-0.1-0.4-0.1-0.7-0.1c-0.4,0-0.7,0.1-1,0.2c-0.3,0.2-0.5,0.4-0.7,0.6c-0.2,0.3-0.3,0.5-0.4,0.9c-0.1,0.3-0.1,0.7-0.1,1
			s0,0.7,0.1,1c0.1,0.3,0.2,0.6,0.4,0.9c0.2,0.3,0.4,0.5,0.7,0.6c0.3,0.2,0.6,0.2,1,0.2c0.3,0,0.5,0,0.7-0.1
			c0.2-0.1,0.4-0.2,0.5-0.4c0.2-0.2,0.3-0.4,0.4-0.6s0.1-0.5,0.2-0.7h1.2c0,0.4-0.1,0.8-0.3,1.2c-0.2,0.4-0.4,0.7-0.6,0.9
			c-0.3,0.3-0.6,0.5-0.9,0.6s-0.8,0.2-1.2,0.2c-0.5,0-1-0.1-1.4-0.3c-0.4-0.2-0.8-0.5-1.1-0.8c-0.3-0.3-0.5-0.7-0.7-1.2
			s-0.2-0.9-0.2-1.5c0-0.5,0.1-1,0.2-1.4s0.4-0.9,0.7-1.2c0.3-0.3,0.7-0.6,1.1-0.8c0.4-0.2,0.9-0.3,1.4-0.3c0.4,0,0.8,0.1,1.1,0.2
			c0.4,0.1,0.7,0.3,0.9,0.5s0.5,0.5,0.7,0.8c0.2,0.3,0.3,0.6,0.3,1H129.4z"/>
		<path class="st8" d="M131.8,336.3h1.2v7.1h-1.2V336.3z"/>
		<path class="st8" d="M134.5,336.3h1.3l3.3,5.3h0v-5.3h1.2v7.1H139l-3.2-5.2h0v5.2h-1.2V336.3z"/>
	</g>
	<g class="st6">
		<path class="st10" d="M98,347.7h5.9c1.1,0,2,0.2,2.6,0.7c0.7,0.5,1,1.3,1,2.3c0,0.6-0.2,1.1-0.5,1.6c-0.3,0.4-0.7,0.8-1.3,1v0
			c0.7,0.2,1.3,0.5,1.7,1.1c0.4,0.5,0.6,1.2,0.6,2.1c0,0.5-0.1,0.9-0.3,1.3c-0.2,0.4-0.4,0.8-0.8,1.1c-0.4,0.3-0.8,0.5-1.4,0.7
			c-0.6,0.2-1.2,0.3-2,0.3H98V347.7z M100.1,352.7h3.5c0.5,0,0.9-0.1,1.3-0.4c0.3-0.3,0.5-0.7,0.5-1.2c0-0.6-0.2-1-0.5-1.3
			c-0.3-0.2-0.7-0.4-1.3-0.4h-3.5V352.7z M100.1,358.1h3.8c0.6,0,1.1-0.2,1.5-0.5c0.4-0.3,0.5-0.8,0.5-1.4c0-0.6-0.2-1.1-0.5-1.4
			c-0.4-0.3-0.9-0.5-1.5-0.5h-3.8V358.1z"/>
		<path class="st10" d="M113.2,347.7h2.3l4.7,12.1h-2.3l-1.1-3.2h-4.8l-1.1,3.2h-2.2L113.2,347.7z M112.4,355h3.7l-1.8-5.2h-0.1
			L112.4,355z"/>
		<path class="st10" d="M122.7,355.7c0,0.5,0.1,0.9,0.2,1.2c0.2,0.3,0.4,0.6,0.7,0.8c0.3,0.2,0.6,0.4,1,0.5c0.4,0.1,0.8,0.1,1.2,0.1
			c0.5,0,0.9-0.1,1.2-0.2s0.6-0.2,0.8-0.4c0.2-0.2,0.4-0.4,0.4-0.6s0.1-0.4,0.1-0.7c0-0.5-0.1-0.8-0.3-1s-0.4-0.4-0.7-0.5
			c-0.4-0.2-0.9-0.3-1.5-0.5s-1.3-0.3-2.1-0.6c-0.5-0.1-1-0.3-1.3-0.5s-0.6-0.5-0.8-0.7c-0.2-0.3-0.3-0.6-0.4-0.9s-0.1-0.6-0.1-0.9
			c0-0.6,0.1-1.1,0.4-1.6c0.3-0.4,0.6-0.8,1-1.1c0.4-0.3,0.9-0.5,1.4-0.7c0.5-0.1,1.1-0.2,1.6-0.2c0.6,0,1.2,0.1,1.8,0.2
			c0.6,0.2,1.1,0.4,1.5,0.7c0.4,0.3,0.8,0.7,1,1.2s0.4,1,0.4,1.7H128c-0.1-0.8-0.3-1.3-0.8-1.7c-0.5-0.3-1.1-0.5-1.8-0.5
			c-0.2,0-0.5,0-0.8,0.1c-0.3,0.1-0.5,0.1-0.7,0.3c-0.2,0.1-0.4,0.3-0.5,0.5s-0.2,0.5-0.2,0.8c0,0.4,0.1,0.8,0.4,1
			c0.3,0.2,0.6,0.4,1,0.6c0,0,0.2,0.1,0.5,0.1c0.3,0.1,0.7,0.2,1,0.3c0.4,0.1,0.8,0.2,1.1,0.3c0.4,0.1,0.6,0.2,0.8,0.2
			c0.4,0.1,0.7,0.3,1,0.5c0.3,0.2,0.5,0.5,0.7,0.7c0.2,0.3,0.3,0.6,0.4,0.9s0.1,0.6,0.1,1c0,0.7-0.1,1.3-0.4,1.7
			c-0.3,0.5-0.6,0.9-1.1,1.2c-0.5,0.3-1,0.5-1.5,0.7s-1.2,0.2-1.8,0.2c-0.7,0-1.3-0.1-2-0.3c-0.6-0.2-1.1-0.4-1.6-0.8
			c-0.5-0.4-0.8-0.8-1.1-1.4s-0.4-1.2-0.4-1.9H122.7z"/>
		<path class="st10" d="M132.3,347.7h2.1v12.1h-2.1V347.7z"/>
		<path class="st10" d="M145.2,351.5c-0.1-0.4-0.2-0.7-0.4-1c-0.2-0.3-0.4-0.5-0.6-0.8c-0.2-0.2-0.5-0.4-0.9-0.5
			c-0.3-0.1-0.7-0.2-1.2-0.2c-0.6,0-1.2,0.1-1.7,0.4c-0.5,0.3-0.9,0.6-1.1,1c-0.3,0.4-0.5,0.9-0.7,1.5c-0.1,0.6-0.2,1.1-0.2,1.7
			s0.1,1.1,0.2,1.7c0.1,0.6,0.4,1.1,0.7,1.5c0.3,0.4,0.7,0.8,1.1,1c0.5,0.3,1,0.4,1.7,0.4c0.5,0,0.9-0.1,1.3-0.2
			c0.4-0.2,0.7-0.4,0.9-0.7s0.5-0.6,0.6-1c0.1-0.4,0.2-0.8,0.3-1.2h2.1c0,0.7-0.2,1.4-0.5,2c-0.3,0.6-0.6,1.1-1.1,1.6
			c-0.5,0.4-1,0.8-1.6,1c-0.6,0.2-1.3,0.4-2,0.4c-0.9,0-1.7-0.2-2.4-0.5c-0.7-0.3-1.3-0.8-1.8-1.4c-0.5-0.6-0.9-1.3-1.1-2
			c-0.3-0.8-0.4-1.6-0.4-2.5c0-0.9,0.1-1.7,0.4-2.4c0.3-0.8,0.6-1.4,1.1-2c0.5-0.6,1.1-1,1.8-1.4s1.5-0.5,2.4-0.5
			c0.7,0,1.3,0.1,1.9,0.3c0.6,0.2,1.1,0.5,1.6,0.8c0.5,0.4,0.8,0.8,1.1,1.3c0.3,0.5,0.5,1.1,0.5,1.8H145.2z"/>
	</g>
</g>
<path class="st11" d="M86.2,135.9v16h16v-16H86.2z M98.6,147.6c-0.2,0.4-0.5,0.8-0.9,1.1s-0.9,0.6-1.5,0.7c-0.6,0.2-1.2,0.3-2,0.3
	c-0.6,0-1.2-0.1-1.8-0.2c-0.6-0.2-1.1-0.4-1.5-0.7s-0.8-0.7-1.1-1.2c-0.3-0.5-0.4-1.1-0.4-1.8h2.4c0,0.4,0.1,0.7,0.2,1
	s0.3,0.5,0.5,0.6c0.2,0.2,0.5,0.3,0.8,0.4c0.3,0.1,0.6,0.1,0.9,0.1c0.2,0,0.5,0,0.7-0.1c0.2,0,0.5-0.1,0.7-0.2
	c0.2-0.1,0.4-0.2,0.5-0.4s0.2-0.4,0.2-0.7s-0.1-0.5-0.3-0.7c-0.2-0.2-0.4-0.3-0.8-0.5c-0.3-0.1-0.7-0.2-1.1-0.3s-0.8-0.2-1.2-0.3
	c-0.4-0.1-0.8-0.2-1.2-0.4c-0.4-0.2-0.8-0.3-1.1-0.6c-0.3-0.2-0.6-0.5-0.8-0.9c-0.2-0.4-0.3-0.8-0.3-1.3c0-0.6,0.1-1.1,0.4-1.5
	c0.2-0.4,0.6-0.8,1-1.1s0.8-0.5,1.3-0.6s1-0.2,1.5-0.2c0.6,0,1.1,0.1,1.7,0.2c0.5,0.1,1,0.3,1.4,0.6s0.7,0.7,1,1.1
	c0.2,0.5,0.4,1,0.4,1.6h-2.4c0-0.3-0.1-0.6-0.2-0.8s-0.3-0.4-0.5-0.5s-0.4-0.2-0.7-0.3c-0.3-0.1-0.5-0.1-0.8-0.1
	c-0.2,0-0.4,0-0.6,0.1c-0.2,0-0.4,0.1-0.5,0.2c-0.2,0.1-0.3,0.2-0.4,0.4s-0.2,0.4-0.2,0.6c0,0.2,0,0.4,0.1,0.5s0.2,0.3,0.5,0.4
	c0.2,0.1,0.6,0.2,1,0.3s1,0.3,1.7,0.4c0.2,0,0.5,0.1,0.9,0.2c0.4,0.1,0.7,0.3,1.1,0.5s0.7,0.6,0.9,1c0.3,0.4,0.4,0.9,0.4,1.5
	C98.9,146.7,98.8,147.2,98.6,147.6z"/>
<text transform="matrix(1 0 0 1 87.1006 197.2175)" class="st12 st13 st14">6.75</text>
<text transform="matrix(1 0 0 1 119.3654 151.3982)" class="st12 st13 st15">21.8</text>
<text transform="matrix(1 0 0 1 163.3654 150.2913)" class="st12 st16 st17">C</text>
<path class="st18" d="M162.6,135.4c-1.4,0-2.5,1.1-2.5,2.5s1.1,2.5,2.5,2.5s2.5-1.1,2.5-2.5C165.1,136.6,164,135.4,162.6,135.4z
	 M162.6,139.1c-0.6,0-1.1-0.5-1.1-1.1s0.5-1.1,1.1-1.1s1.1,0.5,1.1,1.1S163.3,139.1,162.6,139.1z"/>
<text transform="matrix(1 0 0 1 71.0549 218.3108)" class="st12 st19 st20">Measuring</text>
<text transform="matrix(1 0 0 1 78.1535 225.1851)" class="st12 st19 st20">4   7</text>
<text transform="matrix(1 0 0 1 142.3 166.3108)" class="st12 st19 st21">pH</text>
</svg>
