<?xml version="1.0" encoding="utf-8"?>
<!-- Generator: Adobe Illustrator 19.2.1, SVG Export Plug-In . SVG Version: 6.00 Build 0)  -->
<svg version="1.1" id="Layer_1" xmlns="http://www.w3.org/2000/svg" xmlns:xlink="http://www.w3.org/1999/xlink" x="0px" y="0px"
	 viewBox="0 0 112.1 445.6" style="enable-background:new 0 0 112.1 445.6;" xml:space="preserve">
<style type="text/css">
	.st0{fill:#2E3E95;stroke:#020202;stroke-width:3.9705;stroke-linecap:round;stroke-linejoin:round;}
	.st1{fill:#E7E5E4;stroke:#020202;stroke-width:3.9705;stroke-linecap:round;stroke-linejoin:round;}
	.st2{fill:url(#rect6600_1_);stroke:#020202;stroke-width:3.9705;stroke-linecap:round;stroke-linejoin:round;}
	.st3{fill:url(#rect6602_1_);stroke:#020202;stroke-width:3.9705;stroke-linecap:round;stroke-linejoin:round;}
	.st4{fill:url(#rect6604_1_);stroke:#020202;stroke-width:3.9705;stroke-linecap:round;stroke-linejoin:round;}
	.st5{fill:url(#rect6606_1_);stroke:#020202;stroke-width:3.9705;stroke-linecap:round;stroke-linejoin:round;}
	.st6{fill:url(#rect6608_1_);stroke:#020202;stroke-width:3.9705;stroke-linecap:round;stroke-linejoin:round;}
	.st7{fill:url(#rect6610_1_);stroke:#020202;stroke-width:3.9705;stroke-linecap:round;stroke-linejoin:round;}
	.st8{fill:url(#rect6612_1_);stroke:#020202;stroke-width:3.9705;stroke-linecap:round;stroke-linejoin:round;}
	.st9{fill:url(#rect6614_1_);stroke:#020202;stroke-width:3.9705;stroke-linecap:round;stroke-linejoin:round;}
	.st10{fill:#ECEAEB;stroke:#020202;stroke-width:3.9705;stroke-linecap:round;stroke-linejoin:round;}
	.st11{fill:url(#rect1307_1_);stroke:#020202;stroke-width:3.9705;stroke-linecap:round;stroke-linejoin:round;}
	.st12{fill:url(#rect2182_1_);stroke:#020202;stroke-width:3.9705;stroke-linecap:round;stroke-linejoin:round;}
	.st13{fill:url(#rect2184_1_);stroke:#020202;stroke-width:3.9705;stroke-linecap:round;stroke-linejoin:round;}
	.st14{fill:url(#rect2186_1_);stroke:#020202;stroke-width:3.9705;stroke-linecap:round;stroke-linejoin:round;}
	.st15{fill:url(#rect3061_2_);stroke:#020202;stroke-width:3.9705;stroke-linecap:round;stroke-linejoin:round;}
	.st16{fill:#010101;stroke:#020202;stroke-width:2;stroke-linecap:round;stroke-linejoin:round;}
	.st17{fill:url(#rect11166_1_);}
	.st18{fill:url(#rect12922_1_);}
	.st19{fill:url(#rect12926_1_);}
	.st20{fill:url(#rect12928_1_);}
	.st21{fill:url(#rect12934_1_);}
	.st22{fill:url(#rect12936_1_);}
	.st23{fill:url(#rect12942_1_);}
	.st24{fill:url(#rect12944_1_);}
	.st25{fill:url(#path12959_1_);}
	.st26{fill:url(#path12977_1_);}
	.st27{fill:url(#path12981_1_);}
	.st28{fill:url(#path12983_1_);}
	.st29{fill:url(#path12989_1_);}
	.st30{fill:url(#path12991_1_);}
	.st31{fill:url(#path12993_1_);}
	.st32{fill:url(#path12995_1_);}
	.st33{fill:url(#path13005_1_);}
	.st34{fill:url(#path13007_1_);}
	.st35{fill:url(#path13009_1_);}
	.st36{fill:url(#path13011_1_);}
	.st37{fill:url(#path13021_1_);}
	.st38{fill:url(#path13023_1_);}
	.st39{fill:url(#path13025_1_);}
	.st40{fill:url(#path13027_1_);}
	.st41{fill:url(#path13037_1_);}
	.st42{fill:url(#path13039_1_);}
	.st43{fill:#FFFFFF;}
	.st44{font-family:'Helvetica';}
	.st45{font-size:10.8819px;}
	.st46{fill:none;stroke:#020202;stroke-width:3.9705;stroke-linecap:round;stroke-linejoin:round;}
</style>
<g>
	<g>
		<path id="rect7551" class="st0" d="M48.2,2h14.5h14.5l8.2,4.3l4.6,7.9H61.9l-28.1,0L39.2,6L48.2,2z"/>
		<g id="g7540">
			<path id="rect6598" class="st1" d="M49.2,15.6h25.9v41.8H49.2V15.6L49.2,15.6z"/>
			
				<linearGradient id="rect6600_1_" gradientUnits="userSpaceOnUse" x1="77.9469" y1="485.6215" x2="78.604" y2="485.6215" gradientTransform="matrix(3.2538 -2.313715e-05 -5.844383e-05 -11.2185 -203.006 5467.3823)">
				<stop  offset="0" style="stop-color:#E7E5E4"/>
				<stop  offset="1" style="stop-color:#B9BBBA;stop-opacity:0.7374"/>
			</linearGradient>
			<path id="rect6600" class="st2" d="M50.6,15.9h2V23h-2V15.9z"/>
			
				<linearGradient id="rect6602_1_" gradientUnits="userSpaceOnUse" x1="77.402" y1="485.6213" x2="78.0592" y2="485.6213" gradientTransform="matrix(3.2538 -2.313715e-05 -5.844383e-05 -11.2185 -198.2162 5467.3794)">
				<stop  offset="0" style="stop-color:#E7E5E4"/>
				<stop  offset="1" style="stop-color:#B9BBBA;stop-opacity:0.7374"/>
			</linearGradient>
			<path id="rect6602" class="st3" d="M53.7,15.9h2V23h-2.1L53.7,15.9z"/>
			
				<linearGradient id="rect6604_1_" gradientUnits="userSpaceOnUse" x1="76.8681" y1="485.6463" x2="77.524" y2="485.6463" gradientTransform="matrix(3.2539 1.102977e-05 -5.844383e-05 -11.2185 -193.4544 5467.6577)">
				<stop  offset="0" style="stop-color:#E7E5E4"/>
				<stop  offset="1" style="stop-color:#B9BBBA;stop-opacity:0.7374"/>
			</linearGradient>
			<path id="rect6604" class="st4" d="M56.7,15.9h2V23h-2V15.9z"/>
			
				<linearGradient id="rect6606_1_" gradientUnits="userSpaceOnUse" x1="76.3223" y1="485.6461" x2="76.9792" y2="485.6461" gradientTransform="matrix(3.2539 1.102977e-05 -5.844383e-05 -11.2185 -188.6647 5467.6548)">
				<stop  offset="0" style="stop-color:#E7E5E4"/>
				<stop  offset="1" style="stop-color:#B9BBBA;stop-opacity:0.7374"/>
			</linearGradient>
			<path id="rect6606" class="st5" d="M59.7,15.9h2V23h-2V15.9z"/>
			
				<linearGradient id="rect6608_1_" gradientUnits="userSpaceOnUse" x1="75.7702" y1="485.6212" x2="76.4264" y2="485.6212" gradientTransform="matrix(3.2538 -2.313715e-05 -5.844383e-05 -11.2185 -183.8497 5467.3789)">
				<stop  offset="0" style="stop-color:#E7E5E4"/>
				<stop  offset="1" style="stop-color:#B9BBBA;stop-opacity:0.7374"/>
			</linearGradient>
			<path id="rect6608" class="st6" d="M62.7,15.9h2V23h-2V15.9z"/>
			
				<linearGradient id="rect6610_1_" gradientUnits="userSpaceOnUse" x1="75.2343" y1="485.6463" x2="75.8905" y2="485.6463" gradientTransform="matrix(3.2539 1.102977e-05 -5.844383e-05 -11.2185 -179.0879 5467.6572)">
				<stop  offset="0" style="stop-color:#E7E5E4"/>
				<stop  offset="1" style="stop-color:#B9BBBA;stop-opacity:0.7374"/>
			</linearGradient>
			<path id="rect6610" class="st7" d="M65.7,15.9h2V23h-2V15.9z"/>
			
				<linearGradient id="rect6612_1_" gradientUnits="userSpaceOnUse" x1="74.6889" y1="485.646" x2="75.3456" y2="485.646" gradientTransform="matrix(3.2539 1.102977e-05 -5.844383e-05 -11.2185 -174.298 5467.6543)">
				<stop  offset="0" style="stop-color:#E7E5E4"/>
				<stop  offset="1" style="stop-color:#B9BBBA;stop-opacity:0.7374"/>
			</linearGradient>
			<path id="rect6612" class="st8" d="M68.7,15.9h2.1V23h-2L68.7,15.9z"/>
			
				<linearGradient id="rect6614_1_" gradientUnits="userSpaceOnUse" x1="74.144" y1="485.6458" x2="74.7993" y2="485.6458" gradientTransform="matrix(3.2539 1.102977e-05 -5.844383e-05 -11.2185 -169.5084 5467.6519)">
				<stop  offset="0" style="stop-color:#E7E5E4"/>
				<stop  offset="1" style="stop-color:#B9BBBA;stop-opacity:0.7374"/>
			</linearGradient>
			<path id="rect6614" class="st9" d="M71.8,15.9h2V23h-2V15.9L71.8,15.9z"/>
		</g>
		<title>Layer 1</title>
	</g>
	<g>
		<path id="rect6594" class="st10" d="M83.2,53.8h18.2v8.5H83.2V53.8L83.2,53.8z"/>
		
			<linearGradient id="rect1307_1_" gradientUnits="userSpaceOnUse" x1="307.516" y1="630.0883" x2="306.1288" y2="630.0883" gradientTransform="matrix(19.703 3.357250e-05 2.144606e-05 62.7448 -5988.6997 -39106.9883)">
			<stop  offset="0" style="stop-color:#E7E5E4"/>
			<stop  offset="1" style="stop-color:#898683"/>
		</linearGradient>
		<polygon id="rect1307" class="st11" points="65.3,412 75.3,412 75.3,443.6 65.3,443.6 		"/>
		
			<linearGradient id="rect2182_1_" gradientUnits="userSpaceOnUse" x1="297.6887" y1="635.1487" x2="296.8491" y2="635.1487" gradientTransform="matrix(36.899 -5.649221e-06 0 168.9544 -10914.1611 -106936.7891)">
			<stop  offset="0" style="stop-color:#E7E5E4"/>
			<stop  offset="1" style="stop-color:#898683"/>
		</linearGradient>
		<polygon id="rect2182" class="st12" points="61,331.8 79.6,331.8 79.6,417 61,417 		"/>
		
			<linearGradient id="rect2184_1_" gradientUnits="userSpaceOnUse" x1="293.5095" y1="628.4952" x2="292.7887" y2="628.162" gradientTransform="matrix(58.882 3.555982e-05 -2.949196e-05 40.9284 -17210.4668 -25395.8418)">
			<stop  offset="0" style="stop-color:#E7E5E4"/>
			<stop  offset="1" style="stop-color:#898683"/>
		</linearGradient>
		<polygon id="rect2184" class="st13" points="55.4,316.6 85.1,316.6 85.1,337.3 55.4,337.3 		"/>
		
			<linearGradient id="rect2186_1_" gradientUnits="userSpaceOnUse" x1="292.4115" y1="634.9079" x2="291.7732" y2="634.9079" gradientTransform="matrix(69.5071 2.312087e-05 1.848659e-05 122.7106 -20254.3594 -77623.1484)">
			<stop  offset="0" style="stop-color:#E7E5E4"/>
			<stop  offset="1" style="stop-color:#898683"/>
		</linearGradient>
		<polygon id="rect2186" class="st14" points="52.8,255.9 87.8,255.9 87.8,317.7 52.8,317.7 		"/>
		
			<linearGradient id="rect3061_2_" gradientUnits="userSpaceOnUse" x1="288.5927" y1="637.1572" x2="288.0583" y2="637.1572" gradientTransform="matrix(213.2016 5.021449e-05 -2.274494e-05 422.9696 -61440.8125 -269345.375)">
			<stop  offset="0" style="stop-color:#E7E5E4"/>
			<stop  offset="1" style="stop-color:#898683"/>
		</linearGradient>
		<path id="rect3061" class="st15" d="M36.3,46.2c-10.7,0.1-21.7,1-33,2.9c-1.9,0.5-2.3,5,2.4,4.3c21.4-4.3,41.5-1.2,40.7,8.7v197.3
			h63V59.6H78.7V46.4C78.8,46.4,47,46.1,36.3,46.2z"/>
		<path id="rect5718" class="st10" d="M79.9,45.8l30.2,4.5v4.6H80.3L79.9,45.8z"/>
		<path id="rect6596" class="st16" d="M94.4,68.2h14.4v42.6H94.4V68.2z"/>
		
			<linearGradient id="rect11166_1_" gradientUnits="userSpaceOnUse" x1="290.8754" y1="629.8071" x2="290.8754" y2="627.2142" gradientTransform="matrix(93.5602 -3.539523e-05 3.868324e-05 14.3859 -27144.0703 -8978.4912)">
			<stop  offset="0" style="stop-color:#E7E5E4"/>
			<stop  offset="1" style="stop-color:#898683"/>
		</linearGradient>
		<path id="rect11166" class="st17" d="M46.7,68h47.2v7.3H46.7V68z"/>
		
			<linearGradient id="rect12922_1_" gradientUnits="userSpaceOnUse" x1="290.8756" y1="629.3207" x2="290.8756" y2="626.7203" gradientTransform="matrix(93.5602 -3.539523e-05 3.868324e-05 14.3859 -27144.082 -8964.3936)">
			<stop  offset="0" style="stop-color:#E7E5E4"/>
			<stop  offset="1" style="stop-color:#898683"/>
		</linearGradient>
		<path id="rect12922" class="st18" d="M46.7,75.1h47.2v7.3H46.7V75.1z"/>
		
			<linearGradient id="rect12926_1_" gradientUnits="userSpaceOnUse" x1="290.8762" y1="628.8237" x2="290.8762" y2="626.2283" gradientTransform="matrix(93.5602 -3.539523e-05 3.868324e-05 14.3859 -27144.1406 -8949.9824)">
			<stop  offset="0" style="stop-color:#E7E5E4"/>
			<stop  offset="1" style="stop-color:#898683"/>
		</linearGradient>
		<path id="rect12926" class="st19" d="M46.7,82.4h47.2v7.3H46.7V82.4z"/>
		
			<linearGradient id="rect12928_1_" gradientUnits="userSpaceOnUse" x1="290.8761" y1="628.3403" x2="290.8761" y2="625.7474" gradientTransform="matrix(93.5602 -3.539523e-05 3.868324e-05 14.3859 -27144.1289 -8935.9443)">
			<stop  offset="0" style="stop-color:#E7E5E4"/>
			<stop  offset="1" style="stop-color:#898683"/>
		</linearGradient>
		<path id="rect12928" class="st20" d="M46.7,89.5h47.2v7.3H46.7V89.5z"/>
		
			<linearGradient id="rect12934_1_" gradientUnits="userSpaceOnUse" x1="290.8755" y1="627.8305" x2="290.8755" y2="625.2276" gradientTransform="matrix(93.5602 -3.539523e-05 3.868324e-05 14.3859 -27144.0781 -8921.0938)">
			<stop  offset="0" style="stop-color:#E7E5E4"/>
			<stop  offset="1" style="stop-color:#898683"/>
		</linearGradient>
		<path id="rect12934" class="st21" d="M46.7,96.9h47.2v7.3H46.7V96.9z"/>
		
			<linearGradient id="rect12936_1_" gradientUnits="userSpaceOnUse" x1="290.876" y1="627.3481" x2="290.876" y2="624.7476" gradientTransform="matrix(93.5602 -3.539523e-05 3.868324e-05 14.3859 -27144.125 -8907.0771)">
			<stop  offset="0" style="stop-color:#E7E5E4"/>
			<stop  offset="1" style="stop-color:#898683"/>
		</linearGradient>
		<path id="rect12936" class="st22" d="M46.7,104h47.2v7.3H46.7V104z"/>
		
			<linearGradient id="rect12942_1_" gradientUnits="userSpaceOnUse" x1="289.7532" y1="626.8676" x2="289.7532" y2="624.2658" gradientTransform="matrix(122.7798 -2.283089e-05 3.868324e-05 14.3859 -35498.1914 -8893.3057)">
			<stop  offset="0" style="stop-color:#E7E5E4"/>
			<stop  offset="1" style="stop-color:#898683"/>
		</linearGradient>
		<path id="rect12942" class="st23" d="M46.7,110.9h61.9v7.3H46.7V110.9z"/>
		
			<linearGradient id="rect12944_1_" gradientUnits="userSpaceOnUse" x1="293.1216" y1="626.353" x2="293.1216" y2="623.7474" gradientTransform="matrix(63.2168 3.055511e-05 3.868324e-05 14.3859 -18467.5625 -8878.7881)">
			<stop  offset="0" style="stop-color:#E7E5E4"/>
			<stop  offset="1" style="stop-color:#898683"/>
		</linearGradient>
		<path id="rect12944" class="st24" d="M46.7,118h31.9c-2.7,1.2-5.4,2.4-4.7,7.3H46.8L46.7,118z"/>
		
			<linearGradient id="path12959_1_" gradientUnits="userSpaceOnUse" x1="294.368" y1="625.8784" x2="294.368" y2="623.283" gradientTransform="matrix(53.6643 -4.279253e-05 3.868324e-05 14.3859 -15736.8066 -8864.4902)">
			<stop  offset="0" style="stop-color:#E7E5E4"/>
			<stop  offset="1" style="stop-color:#898683"/>
		</linearGradient>
		<path id="path12959" class="st25" d="M46.7,125.5h27.1v7.3H46.7V125.5z"/>
		
			<linearGradient id="path12977_1_" gradientUnits="userSpaceOnUse" x1="294.3682" y1="625.393" x2="294.3682" y2="622.8" gradientTransform="matrix(53.6643 -4.279253e-05 3.868324e-05 14.3859 -15736.8164 -8850.3936)">
			<stop  offset="0" style="stop-color:#E7E5E4"/>
			<stop  offset="1" style="stop-color:#898683"/>
		</linearGradient>
		<path id="path12977" class="st26" d="M46.7,132.6h27.1v7.3H46.7V132.6z"/>
		
			<linearGradient id="path12981_1_" gradientUnits="userSpaceOnUse" x1="294.368" y1="624.8823" x2="294.368" y2="622.2805" gradientTransform="matrix(53.6643 -4.279253e-05 3.868324e-05 14.3859 -15736.8066 -8835.5254)">
			<stop  offset="0" style="stop-color:#E7E5E4"/>
			<stop  offset="1" style="stop-color:#898683"/>
		</linearGradient>
		<path id="path12981" class="st27" d="M46.7,140.1h27.1v7.3H46.7V140.1z"/>
		
			<linearGradient id="path12983_1_" gradientUnits="userSpaceOnUse" x1="294.3682" y1="624.3959" x2="294.3682" y2="621.7986" gradientTransform="matrix(53.6643 -4.279253e-05 3.868324e-05 14.3859 -15736.8164 -8821.4287)">
			<stop  offset="0" style="stop-color:#E7E5E4"/>
			<stop  offset="1" style="stop-color:#898683"/>
		</linearGradient>
		<path id="path12983" class="st28" d="M46.7,147.2h27.1v7.3H46.7V147.2z"/>
		
			<linearGradient id="path12989_1_" gradientUnits="userSpaceOnUse" x1="294.3682" y1="623.8696" x2="294.3682" y2="621.2691" gradientTransform="matrix(53.6643 -4.279253e-05 3.868324e-05 14.3859 -15736.8184 -8806.165)">
			<stop  offset="0" style="stop-color:#E7E5E4"/>
			<stop  offset="1" style="stop-color:#898683"/>
		</linearGradient>
		<path id="path12989" class="st29" d="M46.7,154.9h27.1v7.3H46.7V154.9z"/>
		
			<linearGradient id="path12991_1_" gradientUnits="userSpaceOnUse" x1="294.3684" y1="623.3832" x2="294.3684" y2="620.7846" gradientTransform="matrix(53.6643 -4.279253e-05 3.868324e-05 14.3859 -15736.8281 -8792.0674)">
			<stop  offset="0" style="stop-color:#E7E5E4"/>
			<stop  offset="1" style="stop-color:#898683"/>
		</linearGradient>
		<path id="path12991" class="st30" d="M46.7,162h27.1v7.3H46.7V162z"/>
		
			<linearGradient id="path12993_1_" gradientUnits="userSpaceOnUse" x1="294.3682" y1="622.8735" x2="294.3682" y2="620.2705" gradientTransform="matrix(53.6643 -4.279253e-05 3.868324e-05 14.3859 -15736.8184 -8777.1992)">
			<stop  offset="0" style="stop-color:#E7E5E4"/>
			<stop  offset="1" style="stop-color:#898683"/>
		</linearGradient>
		<path id="path12993" class="st31" d="M46.7,169.5h27.1v7.3H46.7V169.5z"/>
		
			<linearGradient id="path12995_1_" gradientUnits="userSpaceOnUse" x1="294.3682" y1="622.3891" x2="294.3682" y2="619.7861" gradientTransform="matrix(53.6643 -4.279253e-05 3.868324e-05 14.3859 -15736.8184 -8763.1318)">
			<stop  offset="0" style="stop-color:#E7E5E4"/>
			<stop  offset="1" style="stop-color:#898683"/>
		</linearGradient>
		<path id="path12995" class="st32" d="M46.7,176.6h27.1v7.3H46.7V176.6z"/>
		
			<linearGradient id="path13005_1_" gradientUnits="userSpaceOnUse" x1="294.3685" y1="621.8578" x2="294.3685" y2="619.2574" gradientTransform="matrix(53.6643 -4.279253e-05 3.868324e-05 14.3859 -15736.832 -8747.7402)">
			<stop  offset="0" style="stop-color:#E7E5E4"/>
			<stop  offset="1" style="stop-color:#898683"/>
		</linearGradient>
		<path id="path13005" class="st33" d="M46.7,184.4h27.1v7.3H46.7V184.4z"/>
		
			<linearGradient id="path13007_1_" gradientUnits="userSpaceOnUse" x1="294.3681" y1="621.3696" x2="294.3681" y2="618.7666" gradientTransform="matrix(53.6643 -4.279253e-05 3.868324e-05 14.3859 -15736.8125 -8733.6328)">
			<stop  offset="0" style="stop-color:#E7E5E4"/>
			<stop  offset="1" style="stop-color:#898683"/>
		</linearGradient>
		<path id="path13007" class="st34" d="M46.7,191.5h27.1v7.3H46.7V191.5z"/>
		
			<linearGradient id="path13009_1_" gradientUnits="userSpaceOnUse" x1="294.368" y1="620.8549" x2="294.368" y2="618.2621" gradientTransform="matrix(53.6643 -4.279253e-05 3.868324e-05 14.3859 -15736.8047 -8718.7637)">
			<stop  offset="0" style="stop-color:#E7E5E4"/>
			<stop  offset="1" style="stop-color:#898683"/>
		</linearGradient>
		<path id="path13009" class="st35" d="M46.7,199h27.1v7.3H46.7V199z"/>
		
			<linearGradient id="path13011_1_" gradientUnits="userSpaceOnUse" x1="294.3681" y1="620.3705" x2="294.3681" y2="617.7718" gradientTransform="matrix(53.6643 -4.279253e-05 3.868324e-05 14.3859 -15736.8145 -8704.667)">
			<stop  offset="0" style="stop-color:#E7E5E4"/>
			<stop  offset="1" style="stop-color:#898683"/>
		</linearGradient>
		<path id="path13011" class="st36" d="M46.7,206.1h27.1v7.3H46.7V206.1z"/>
		
			<linearGradient id="path13021_1_" gradientUnits="userSpaceOnUse" x1="294.3683" y1="619.8237" x2="294.3683" y2="617.22" gradientTransform="matrix(53.6643 -4.279253e-05 3.868324e-05 14.3859 -15736.8242 -8688.7412)">
			<stop  offset="0" style="stop-color:#E7E5E4"/>
			<stop  offset="1" style="stop-color:#898683"/>
		</linearGradient>
		<path id="path13021" class="st37" d="M46.7,214.1h27.1v7.3H46.7V214.1z"/>
		
			<linearGradient id="path13023_1_" gradientUnits="userSpaceOnUse" x1="294.3685" y1="619.3373" x2="294.3685" y2="616.7293" gradientTransform="matrix(53.6643 -4.279253e-05 3.868324e-05 14.3859 -15736.834 -8674.6445)">
			<stop  offset="0" style="stop-color:#E7E5E4"/>
			<stop  offset="1" style="stop-color:#898683"/>
		</linearGradient>
		<path id="path13023" class="st38" d="M46.7,221.2h27.1v7.3H46.7V221.2z"/>
		
			<linearGradient id="path13025_1_" gradientUnits="userSpaceOnUse" x1="294.3638" y1="618.8198" x2="294.3638" y2="616.2218" gradientTransform="matrix(53.6643 -4.279253e-05 0 14.386 -15736.5596 -8659.7822)">
			<stop  offset="0" style="stop-color:#E7E5E4"/>
			<stop  offset="1" style="stop-color:#898683"/>
		</linearGradient>
		<path id="path13025" class="st39" d="M46.7,228.7h27.1v7.3H46.7V228.7z"/>
		
			<linearGradient id="path13027_1_" gradientUnits="userSpaceOnUse" x1="294.368" y1="618.3354" x2="294.368" y2="615.7424" gradientTransform="matrix(53.6643 -4.279253e-05 3.868324e-05 14.3859 -15736.8047 -8645.668)">
			<stop  offset="0" style="stop-color:#E7E5E4"/>
			<stop  offset="1" style="stop-color:#898683"/>
		</linearGradient>
		<path id="path13027" class="st40" d="M46.7,235.8h27.1v7.3H46.7V235.8z"/>
		
			<linearGradient id="path13037_1_" gradientUnits="userSpaceOnUse" x1="294.3638" y1="617.811" x2="294.3638" y2="615.2104" gradientTransform="matrix(53.6643 -4.279253e-05 0 14.386 -15736.5596 -8630.4512)">
			<stop  offset="0" style="stop-color:#E7E5E4"/>
			<stop  offset="1" style="stop-color:#898683"/>
		</linearGradient>
		<path id="path13037" class="st41" d="M46.7,243.5h27.1v7.3H46.7V243.5z"/>
		
			<linearGradient id="path13039_1_" gradientUnits="userSpaceOnUse" x1="294.368" y1="617.3246" x2="294.368" y2="614.7293" gradientTransform="matrix(53.6643 -4.279253e-05 3.868324e-05 14.3859 -15736.8047 -8616.3369)">
			<stop  offset="0" style="stop-color:#E7E5E4"/>
			<stop  offset="1" style="stop-color:#898683"/>
		</linearGradient>
		<path id="path13039" class="st42" d="M46.7,250.6h27.1v7.3H46.7V250.6z"/>
		<title>Layer 1</title>
		<text transform="matrix(1 2.144792e-05 -2.144792e-05 1 98.3912 77.3379)" class="st43 st44 st45">0</text>
		<text transform="matrix(1 2.144792e-05 -2.144792e-05 1 98.3902 87.6152)" class="st43 st44 st45">0</text>
		<text transform="matrix(1 2.144792e-05 -2.144792e-05 1 98.3912 97.8929)" class="st43 st44 st45">0</text>
		<text transform="matrix(1 2.144792e-05 -2.144792e-05 1 98.3912 108.1696)" class="st43 st44 st45">0</text>
		<path id="rect3061_1_" class="st46" d="M36.3,46.2c-10.7,0.1-21.7,1-33,2.9c-1.9,0.5-2.3,5,2.4,4.3c21.4-4.3,41.5-1.2,40.7,8.7
			v197.3h63V59.6H78.7V46.4C78.8,46.4,47,46.1,36.3,46.2z"/>
	</g>
</g>
</svg>
