<?xml version="1.0" encoding="utf-8"?>
<!-- Generator: Adobe Illustrator 19.2.1, SVG Export Plug-In . SVG Version: 6.00 Build 0)  -->
<svg version="1.1" id="Layer_1" xmlns="http://www.w3.org/2000/svg" xmlns:xlink="http://www.w3.org/1999/xlink" x="0px" y="0px"
	 viewBox="0 0 101.2 87.6" style="enable-background:new 0 0 101.2 87.6;" xml:space="preserve">
<style type="text/css">
	.st0{fill:none;}
	.st1{fill:#111111;}
	.st2{fill:#202020;}
	.st3{fill:url(#SVGID_2_);}
	.st4{fill:none;stroke:#000000;stroke-miterlimit:10;}
	.st5{fill:none;stroke:#58595B;stroke-width:3;stroke-miterlimit:10;}
	.st6{fill:#59595B;}
	.st7{font-family:'HelveticaNeue-Medium';}
	.st8{font-size:71.7388px;}
</style>
<pattern  y="87.6" width="33.5" height="69.7" patternUnits="userSpaceOnUse" id="SVGID_1_" viewBox="0 -69.7 33.5 69.7" style="overflow:visible;">
	<g>
		<rect y="-69.7" class="st0" width="33.5" height="69.7"/>
		<g>
			<polygon class="st0" points="0,-69.7 33.5,-69.7 33.5,0 0,0 			"/>
			<polygon class="st1" points="23.7,-69.7 0,-69.7 0,0 23.7,0 			"/>
			<polygon class="st2" points="33.5,-69.7 16.8,-69.7 16.8,0 33.5,0 			"/>
		</g>
	</g>
</pattern>
<g>
	<pattern  id="SVGID_2_" xlink:href="#SVGID_1_" patternTransform="matrix(0.6124 0.6124 -0.6124 0.6124 -14360.917 11364.3613)">
	</pattern>
	<polygon class="st3" points="25.6,87.1 0.6,43.8 25.6,0.5 75.6,0.5 100.6,43.8 75.6,87.1 	"/>
	<polygon class="st4" points="25.6,87.1 0.6,43.8 25.6,0.5 75.6,0.5 100.6,43.8 75.6,87.1 	"/>
</g>
<polygon class="st5" points="30.6,78.4 10.6,43.8 30.6,9.2 70.6,9.2 90.6,43.8 70.6,78.4 "/>
<text transform="matrix(1 0 0 1 30.6342 62.4322)" class="st6 st7 st8">~</text>
</svg>
