<?xml version="1.0" encoding="utf-8"?>
<!-- Generator: Adobe Illustrator 19.2.1, SVG Export Plug-In . SVG Version: 6.00 Build 0)  -->
<svg version="1.1" id="Layer_1" xmlns="http://www.w3.org/2000/svg" xmlns:xlink="http://www.w3.org/1999/xlink" x="0px" y="0px"
	 viewBox="0 0 147 74.8" style="enable-background:new 0 0 147 74.8;" xml:space="preserve">
<style type="text/css">
	.st0{stroke:#FFFFFF;stroke-width:3;stroke-miterlimit:10;}
	.st1{fill:#FFFFFF;}
	.st2{font-family:'HelveticaNeue';}
	.st3{font-size:34.7228px;}
	.st4{font-size:15px;}
</style>
<path class="st0" d="M144.3,33.3l-16-27.7c-1.4-2.5-4.2-4.1-7.1-4.1H95.5h-6.1H80H63.7h-6.1h-9.5H25.6c-2.9,0-5.7,1.6-7.1,4.1
	l-16,27.7c-1.4,2.5-1.4,5.7,0,8.2l16,27.7c1.4,2.5,4.2,4.1,7.1,4.1h22.5h9.4h6.1h16.3h9.4h6.1h25.7c2.9,0,5.7-1.6,7.1-4.1l16-27.7
	C145.8,38.9,145.8,35.8,144.3,33.3z"/>
<text transform="matrix(1 0 0 1 18.1199 41.1408)" class="st1 st2 st3">Submit</text>
<text transform="matrix(1 0 0 1 51.9199 59.1408)" class="st1 st2 st4">(Enter)</text>
</svg>
