<?xml version="1.0" encoding="utf-8"?>
<!-- Generator: Adobe Illustrator 19.2.1, SVG Export Plug-In . SVG Version: 6.00 Build 0)  -->
<svg version="1.1" id="Layer_1" xmlns="http://www.w3.org/2000/svg" xmlns:xlink="http://www.w3.org/1999/xlink" x="0px" y="0px"
	 viewBox="0 0 193.8 393.5" style="enable-background:new 0 0 193.8 393.5;" xml:space="preserve">
<style type="text/css">
	.st0{opacity:0.5;fill:#FFFFFF;enable-background:new    ;}
	.st1{opacity:0.25;fill:#FFFFFF;enable-background:new    ;}
	.st2{fill:#3463AF;stroke:#000000;stroke-miterlimit:10;}
	.st3{fill:#FFFFFF;stroke:#000000;stroke-miterlimit:10;}
	.st4{fill:none;stroke:#000000;stroke-miterlimit:10;}
	.st5{enable-background:new    ;}
</style>
<rect x="113.1" y="162.7" class="st0" width="15.4" height="212.6"/>
<path class="st1" d="M176.7,393H65.6c-9.2,0-16.8-7.5-16.8-16.8V195.4c0-9.2,38.4-32.6,47.6-32.6h49.3c9.2,0,47.6,23.4,47.6,32.6
	v180.9C193.4,385.5,185.9,393,176.7,393z"/>
<rect x="96.5" y="114.2" class="st2" width="49.3" height="48.6"/>
<path class="st2" d="M128.6,37.6c-0.1-20.5-16.7-37.1-37.2-37.1c-7.6,0-14.7,2.4-20.6,6.3L25,33.2L0.6,54.5l0.6,1L31.8,45l45.8-26.4
	c3.9-2.8,8.6-4.5,13.8-4.5c13.1,0,23.6,10.6,23.6,23.6v76.5h13.5L128.6,37.6L128.6,37.6z"/>
<rect x="55.9" y="255.1" class="st3" width="130.5" height="60"/>
<path class="st1" d="M48.8,222.1v154.1c0,9.2,7.5,16.8,16.8,16.8h111.1c9.2,0,16.8-7.5,16.8-16.8V222.1H48.8z"/>
<path class="st4" d="M176.7,393H65.6c-9.2,0-16.8-7.5-16.8-16.8V195.4c0-9.2,38.4-32.6,47.6-32.6h49.3c9.2,0,47.6,23.4,47.6,32.6
	v180.9C193.4,385.5,185.9,393,176.7,393z"/>
<g class="st5">
	<path d="M82.2,278h6.1c1.4,0,2.5,0.3,3.2,0.9c0.7,0.6,1.1,1.5,1.1,2.6c0,0.6-0.1,1.1-0.3,1.5c-0.2,0.4-0.4,0.7-0.6,1
		c-0.2,0.2-0.5,0.4-0.7,0.5c-0.2,0.1-0.4,0.2-0.5,0.2v0c0.2,0,0.4,0.1,0.6,0.2s0.4,0.2,0.6,0.5c0.2,0.2,0.4,0.5,0.5,0.8
		s0.2,0.8,0.2,1.3c0,0.8,0.1,1.4,0.2,2.1c0.1,0.6,0.3,1.1,0.5,1.3h-2.4c-0.2-0.3-0.3-0.6-0.3-0.9c0-0.3,0-0.7,0-1
		c0-0.6,0-1.1-0.1-1.5c-0.1-0.4-0.2-0.8-0.4-1.1s-0.5-0.5-0.8-0.6c-0.3-0.1-0.8-0.2-1.3-0.2h-3.3v5.3h-2.2V278z M84.5,283.9h3.7
		c0.7,0,1.3-0.2,1.6-0.5c0.4-0.3,0.6-0.9,0.6-1.5c0-0.4-0.1-0.7-0.2-1c-0.1-0.3-0.3-0.5-0.5-0.6c-0.2-0.1-0.5-0.2-0.7-0.3
		c-0.3,0-0.5-0.1-0.8-0.1h-3.7V283.9z"/>
	<path d="M100.4,277.7c1,0,1.8,0.2,2.6,0.5c0.8,0.4,1.4,0.8,1.9,1.5s0.9,1.3,1.2,2.1c0.3,0.8,0.4,1.7,0.4,2.6c0,0.9-0.1,1.8-0.4,2.6
		c-0.3,0.8-0.7,1.5-1.2,2.1s-1.2,1.1-1.9,1.4c-0.8,0.4-1.6,0.5-2.6,0.5s-1.8-0.2-2.6-0.5c-0.8-0.4-1.4-0.8-1.9-1.4
		c-0.5-0.6-0.9-1.3-1.2-2.1c-0.3-0.8-0.4-1.7-0.4-2.6c0-0.9,0.1-1.8,0.4-2.6c0.3-0.8,0.7-1.5,1.2-2.1c0.5-0.6,1.2-1.1,1.9-1.5
		C98.5,277.9,99.4,277.7,100.4,277.7z M100.4,279.6c-0.7,0-1.3,0.1-1.8,0.4c-0.5,0.3-0.9,0.6-1.2,1.1s-0.5,1-0.7,1.6
		c-0.2,0.6-0.2,1.2-0.2,1.8c0,0.6,0.1,1.2,0.2,1.8c0.1,0.6,0.4,1.1,0.7,1.6s0.7,0.8,1.2,1.1c0.5,0.3,1.1,0.4,1.8,0.4
		c0.7,0,1.3-0.1,1.8-0.4c0.5-0.3,0.9-0.6,1.2-1.1c0.3-0.5,0.5-1,0.7-1.6s0.2-1.2,0.2-1.8c0-0.6-0.1-1.2-0.2-1.8s-0.4-1.1-0.7-1.6
		c-0.3-0.5-0.7-0.8-1.2-1.1C101.6,279.7,101,279.6,100.4,279.6z"/>
	<path d="M112.3,278h2.3l2.3,9.8h0l2.6-9.8h2.3l2.5,9.8h0l2.4-9.8h2.3l-3.5,12.9h-2.3l-2.6-9.8h0l-2.6,9.8h-2.3L112.3,278z"/>
	<path d="M137.4,288.8c0,0.3,0,0.4,0.1,0.5c0.1,0.1,0.2,0.2,0.4,0.2c0.1,0,0.1,0,0.2,0c0.1,0,0.2,0,0.3,0v1.4
		c-0.1,0-0.2,0.1-0.3,0.1c-0.1,0-0.2,0.1-0.4,0.1c-0.1,0-0.2,0-0.4,0.1c-0.1,0-0.2,0-0.3,0c-0.4,0-0.8-0.1-1-0.3
		c-0.3-0.2-0.5-0.5-0.5-0.9c-0.4,0.4-0.9,0.7-1.5,0.9c-0.6,0.2-1.2,0.3-1.7,0.3c-0.4,0-0.8-0.1-1.2-0.2s-0.7-0.3-1-0.5
		c-0.3-0.2-0.5-0.5-0.7-0.8c-0.2-0.3-0.3-0.7-0.3-1.2c0-0.6,0.1-1,0.3-1.4s0.5-0.6,0.8-0.8s0.7-0.4,1.2-0.4c0.4-0.1,0.9-0.2,1.3-0.2
		c0.4-0.1,0.7-0.1,1.1-0.2c0.3,0,0.6-0.1,0.9-0.2c0.3-0.1,0.5-0.2,0.6-0.3s0.2-0.4,0.2-0.7c0-0.3-0.1-0.5-0.2-0.6s-0.3-0.3-0.5-0.4
		c-0.2-0.1-0.4-0.2-0.6-0.2c-0.2,0-0.4,0-0.6,0c-0.6,0-1,0.1-1.4,0.4s-0.6,0.6-0.6,1.1h-2.1c0-0.6,0.2-1.1,0.4-1.5
		c0.3-0.4,0.6-0.7,1-1s0.8-0.4,1.3-0.5c0.5-0.1,1-0.1,1.5-0.1c0.5,0,0.9,0,1.4,0.1c0.4,0.1,0.8,0.3,1.2,0.5c0.4,0.2,0.6,0.5,0.9,0.8
		c0.2,0.3,0.3,0.8,0.3,1.3V288.8z M135.4,286.2c-0.3,0.2-0.7,0.3-1.2,0.4s-0.9,0.1-1.4,0.2c-0.2,0-0.4,0.1-0.6,0.2
		c-0.2,0.1-0.4,0.2-0.5,0.3c-0.2,0.1-0.3,0.3-0.4,0.4c-0.1,0.2-0.1,0.4-0.1,0.7c0,0.2,0.1,0.4,0.2,0.6c0.1,0.2,0.3,0.3,0.5,0.4
		c0.2,0.1,0.4,0.2,0.6,0.2c0.2,0,0.4,0.1,0.6,0.1c0.2,0,0.5,0,0.7-0.1c0.3-0.1,0.5-0.2,0.7-0.3c0.2-0.1,0.4-0.3,0.6-0.5
		c0.2-0.2,0.2-0.5,0.2-0.8V286.2z"/>
	<path d="M138.7,281.6h1.5v-2.8h2.1v2.8h1.9v1.5h-1.9v5c0,0.2,0,0.4,0,0.6c0,0.2,0.1,0.3,0.1,0.4c0.1,0.1,0.2,0.2,0.3,0.2
		c0.1,0.1,0.3,0.1,0.5,0.1c0.1,0,0.3,0,0.4,0c0.1,0,0.3,0,0.4-0.1v1.6c-0.2,0-0.5,0-0.7,0.1c-0.2,0-0.4,0-0.7,0
		c-0.5,0-1-0.1-1.3-0.2c-0.3-0.1-0.6-0.3-0.8-0.4c-0.2-0.2-0.3-0.4-0.4-0.7c-0.1-0.3-0.1-0.6-0.1-1v-5.5h-1.5V281.6z"/>
	<path d="M147.2,286.8c0,0.4,0.1,0.7,0.2,1c0.1,0.3,0.3,0.6,0.5,0.9s0.5,0.5,0.8,0.6c0.3,0.2,0.7,0.2,1.1,0.2c0.6,0,1.1-0.1,1.4-0.4
		s0.6-0.6,0.8-1.2h1.9c-0.1,0.5-0.3,1-0.6,1.3c-0.3,0.4-0.6,0.7-1,1c-0.4,0.3-0.8,0.5-1.3,0.6s-0.9,0.2-1.4,0.2
		c-0.7,0-1.4-0.1-1.9-0.4c-0.6-0.2-1-0.6-1.4-1c-0.4-0.4-0.7-0.9-0.9-1.5c-0.2-0.6-0.3-1.3-0.3-2c0-0.7,0.1-1.3,0.3-1.9
		c0.2-0.6,0.5-1.1,0.9-1.6s0.9-0.8,1.4-1.1c0.6-0.3,1.2-0.4,1.9-0.4c0.7,0,1.4,0.2,2,0.5c0.6,0.3,1.1,0.7,1.4,1.2s0.7,1.1,0.8,1.7
		c0.2,0.7,0.2,1.3,0.1,2H147.2z M152,285.4c0-0.3-0.1-0.6-0.2-0.9c-0.1-0.3-0.3-0.6-0.5-0.8c-0.2-0.2-0.4-0.4-0.7-0.5
		c-0.3-0.1-0.6-0.2-0.9-0.2c-0.4,0-0.7,0.1-1,0.2s-0.5,0.3-0.8,0.5c-0.2,0.2-0.4,0.5-0.5,0.8c-0.1,0.3-0.2,0.6-0.2,1H152z"/>
	<path d="M155.6,281.6h1.9v1.8h0c0.1-0.3,0.2-0.5,0.4-0.7s0.4-0.5,0.6-0.7c0.2-0.2,0.5-0.4,0.8-0.5s0.6-0.2,0.9-0.2
		c0.2,0,0.4,0,0.5,0s0.2,0,0.3,0v2c-0.1,0-0.3,0-0.4-0.1c-0.2,0-0.3,0-0.4,0c-0.3,0-0.7,0.1-1,0.2c-0.3,0.1-0.6,0.3-0.8,0.6
		c-0.2,0.3-0.4,0.6-0.5,1c-0.1,0.4-0.2,0.9-0.2,1.4v4.4h-2.1V281.6z"/>
</g>
</svg>
