<?xml version="1.0" encoding="utf-8"?>
<!-- Generator: Adobe Illustrator 19.2.1, SVG Export Plug-In . SVG Version: 6.00 Build 0)  -->
<svg version="1.1" id="Layer_1" xmlns="http://www.w3.org/2000/svg" xmlns:xlink="http://www.w3.org/1999/xlink" x="0px" y="0px"
	 viewBox="0 0 301.5 200.5" style="enable-background:new 0 0 301.5 200.5;" xml:space="preserve">
<style type="text/css">
	.st0{fill:#E7E7E7;}
	.st1{fill:#2BB673;stroke:#000000;stroke-miterlimit:10;}
	.st2{fill:#FFFFFF;stroke:#A7A9AC;stroke-miterlimit:10;}
	.st3{enable-background:new    ;}
	.st4{fill:#FFFFFF;}
	.st5{fill:#FFFFFF;stroke:#000000;stroke-miterlimit:10;}
	.st6{fill:#FFFFFF;stroke:#000000;stroke-linecap:round;stroke-miterlimit:10;}
	.st7{fill:none;stroke:#000000;stroke-miterlimit:10;}
	.st8{fill:#006838;}
	.st9{fill:#589C75;stroke:#000000;stroke-linecap:round;stroke-miterlimit:10;}
</style>
<polygon class="st0" points="190.7,3.1 148.7,0 105.3,3.3 69.7,0 69.7,19.7 69.7,32.7 69.7,51.7 69.7,88.5 69.7,104.6 69.7,120.5 
	69.7,140.2 106.7,137.1 148.7,140.2 192.1,136.9 227.7,140.2 227.7,120.5 227.7,104.6 227.7,88.5 227.7,51.7 227.7,32.7 227.7,19.7 
	227.7,0 "/>
<rect x="1" y="70" class="st1" width="300" height="130"/>
<g>
	<rect x="75.5" y="84.7" class="st2" width="151.1" height="97"/>
	<g class="st3">
		<path d="M92.9,111.7l3.8,16.5l0.8,4.6l0.8-4.5l3.3-16.6h6.3l3.4,16.5l0.9,4.6l0.9-4.4l3.8-16.7h6.1l-8.1,28.8h-5.8l-3.5-16.8
			l-1-5.6l-1,5.6l-3.5,16.8h-5.6l-8.2-28.8H92.9z"/>
		<path d="M131.7,116.7H126v-5.1h5.6V116.7z M126,119.2h5.6v21.3H126V119.2z"/>
		<path d="M154.9,121.5c1.7,1.8,2.6,4.5,2.6,8.1c0,3.8-0.8,6.6-2.5,8.6c-1.7,2-3.9,2.9-6.6,2.9c-1.7,0-3.1-0.4-4.2-1.3
			c-0.6-0.5-1.2-1.2-1.8-2.1v11.1h-5.5v-29.7h5.3v3.1c0.6-0.9,1.2-1.7,1.9-2.2c1.2-1,2.7-1.4,4.4-1.4
			C151.1,118.8,153.2,119.7,154.9,121.5z M150.7,125.5c-0.8-1.3-2-1.9-3.7-1.9c-2,0-3.4,1-4.2,2.9c-0.4,1-0.6,2.3-0.6,3.9
			c0,2.5,0.7,4.2,2,5.2c0.8,0.6,1.7,0.9,2.8,0.9c1.6,0,2.8-0.6,3.6-1.8c0.8-1.2,1.2-2.8,1.2-4.8
			C151.8,128.2,151.4,126.8,150.7,125.5z"/>
		<path d="M175.3,119.7c1.5,0.7,2.7,1.7,3.7,3.1c0.9,1.3,1.4,2.7,1.7,4.4c0.1,1,0.2,2.4,0.2,4.2h-15.5c0.1,2.1,0.8,3.6,2.2,4.5
			c0.9,0.5,1.9,0.8,3.1,0.8c1.3,0,2.3-0.3,3.1-1c0.4-0.4,0.8-0.8,1.1-1.5h5.7c-0.1,1.3-0.8,2.5-2.1,3.8c-1.9,2.1-4.6,3.1-8,3.1
			c-2.8,0-5.3-0.9-7.5-2.6s-3.2-4.6-3.2-8.5c0-3.7,1-6.5,2.9-8.5s4.5-3,7.6-3C172.2,118.7,173.9,119,175.3,119.7z M167,124.5
			c-0.8,0.8-1.3,1.9-1.5,3.3h9.6c-0.1-1.5-0.6-2.6-1.5-3.4c-0.9-0.8-2-1.1-3.3-1.1C168.9,123.3,167.8,123.7,167,124.5z"/>
		<path d="M188,133.7c0.1,1,0.4,1.7,0.8,2.1c0.7,0.7,2,1.1,3.8,1.1c1.1,0,2-0.2,2.6-0.5s1-0.8,1-1.5c0-0.6-0.3-1.1-0.8-1.4
			c-0.5-0.3-2.5-0.9-5.8-1.7c-2.4-0.6-4.1-1.3-5.1-2.2c-1-0.9-1.5-2.2-1.5-3.8c0-2,0.8-3.7,2.3-5.1s3.7-2.1,6.5-2.1
			c2.7,0,4.8,0.5,6.5,1.6c1.7,1.1,2.6,2.9,2.9,5.5h-5.6c-0.1-0.7-0.3-1.3-0.6-1.7c-0.6-0.8-1.7-1.1-3.1-1.1c-1.2,0-2.1,0.2-2.6,0.6
			s-0.8,0.8-0.8,1.3c0,0.6,0.3,1.1,0.8,1.4c0.5,0.3,2.5,0.8,5.8,1.5c2.2,0.5,3.9,1.3,5,2.4c1.1,1.1,1.6,2.4,1.6,4
			c0,2.1-0.8,3.8-2.4,5.2s-4,2-7.3,2c-3.4,0-5.8-0.7-7.4-2.1s-2.4-3.2-2.4-5.4H188z"/>
	</g>
	<g class="st3">
		<path d="M86.7,153.4h1.1l3.6,5.8v-5.8h0.9v7.2h-1.1l-3.6-5.8v5.8h-0.9V153.4z"/>
		<path d="M97.6,155.8c0.5,0.4,0.7,1.1,0.7,2c0,0.8-0.2,1.5-0.6,2.1s-1,0.8-1.9,0.8c-0.7,0-1.3-0.2-1.7-0.7c-0.4-0.5-0.6-1.1-0.6-2
			c0-0.9,0.2-1.6,0.7-2.1s1-0.8,1.8-0.8C96.6,155.1,97.1,155.4,97.6,155.8z M97,159.3c0.2-0.4,0.3-0.9,0.3-1.5
			c0-0.5-0.1-0.9-0.2-1.2c-0.2-0.5-0.7-0.7-1.3-0.7c-0.5,0-0.9,0.2-1.2,0.6c-0.2,0.4-0.4,0.9-0.4,1.5c0,0.6,0.1,1,0.4,1.4
			c0.2,0.4,0.6,0.6,1.1,0.6C96.4,160,96.8,159.7,97,159.3z"/>
		<path d="M99.4,155.3h0.8v0.7c0.2-0.3,0.5-0.5,0.8-0.7s0.6-0.2,0.9-0.2c0.7,0,1.2,0.3,1.5,0.8c0.1,0.3,0.2,0.7,0.2,1.2v3.4h-0.9
			v-3.3c0-0.3,0-0.6-0.1-0.8c-0.2-0.3-0.4-0.5-0.8-0.5c-0.2,0-0.4,0-0.5,0.1c-0.2,0.1-0.5,0.2-0.6,0.4c-0.1,0.2-0.2,0.4-0.3,0.5
			c0,0.2-0.1,0.4-0.1,0.8v2.7h-0.9V155.3z"/>
		<path d="M104.7,157.3h2.5v0.9h-2.5V157.3z"/>
		<path d="M108.4,153.4h1.1l3.6,5.8v-5.8h0.9v7.2h-1.1l-3.6-5.8v5.8h-0.9V153.4z"/>
		<path d="M118.3,157.4c0.2,0,0.3-0.1,0.4-0.3c0-0.1,0.1-0.2,0.1-0.3c0-0.3-0.1-0.5-0.3-0.7s-0.5-0.2-0.9-0.2c-0.5,0-0.8,0.1-1,0.4
			c-0.1,0.1-0.2,0.3-0.2,0.6h-0.8c0-0.6,0.2-1.1,0.6-1.3c0.4-0.3,0.9-0.4,1.4-0.4c0.6,0,1.1,0.1,1.5,0.4c0.4,0.2,0.6,0.6,0.6,1.1v3
			c0,0.1,0,0.2,0.1,0.2c0,0.1,0.1,0.1,0.2,0.1c0,0,0.1,0,0.1,0c0,0,0.1,0,0.2,0v0.6c-0.1,0-0.2,0.1-0.3,0.1s-0.2,0-0.3,0
			c-0.3,0-0.5-0.1-0.7-0.3c-0.1-0.1-0.1-0.3-0.2-0.5c-0.2,0.2-0.4,0.4-0.8,0.6s-0.7,0.3-1.1,0.3c-0.5,0-0.9-0.1-1.2-0.4
			s-0.5-0.7-0.5-1.1c0-0.5,0.2-0.9,0.5-1.1s0.7-0.4,1.2-0.5L118.3,157.4z M116.4,159.7c0.2,0.1,0.4,0.2,0.7,0.2
			c0.3,0,0.6-0.1,0.9-0.2c0.5-0.2,0.7-0.6,0.7-1.2v-0.7c-0.1,0.1-0.2,0.1-0.4,0.2s-0.3,0.1-0.5,0.1l-0.5,0.1c-0.3,0-0.6,0.1-0.7,0.2
			c-0.3,0.2-0.4,0.4-0.4,0.7C116.1,159.4,116.2,159.6,116.4,159.7z"/>
		<path d="M121,155.3h0.9v0.7c0.2-0.3,0.4-0.4,0.6-0.6c0.3-0.2,0.6-0.3,1-0.3c0.4,0,0.8,0.1,1,0.3c0.1,0.1,0.3,0.3,0.4,0.5
			c0.2-0.3,0.4-0.5,0.7-0.6c0.3-0.1,0.6-0.2,0.9-0.2c0.7,0,1.2,0.3,1.4,0.8c0.1,0.3,0.2,0.6,0.2,1.1v3.5h-0.9v-3.6
			c0-0.3-0.1-0.6-0.3-0.7s-0.4-0.2-0.6-0.2c-0.3,0-0.6,0.1-0.9,0.3s-0.4,0.6-0.4,1.2v3h-0.9v-3.4c0-0.4,0-0.6-0.1-0.8
			c-0.1-0.2-0.4-0.4-0.7-0.4c-0.3,0-0.6,0.1-0.9,0.4s-0.4,0.7-0.4,1.4v2.8H121V155.3z"/>
		<path d="M132.6,155.4c0.3,0.2,0.6,0.4,0.8,0.7c0.2,0.3,0.3,0.6,0.3,0.9c0.1,0.2,0.1,0.6,0.1,1.2H130c0,0.5,0.1,1,0.4,1.3
			s0.6,0.5,1.1,0.5c0.5,0,0.8-0.2,1.1-0.5c0.2-0.2,0.3-0.4,0.3-0.6h0.9c0,0.2-0.1,0.4-0.2,0.6c-0.1,0.2-0.3,0.4-0.4,0.6
			c-0.3,0.3-0.6,0.4-1,0.5c-0.2,0.1-0.4,0.1-0.7,0.1c-0.6,0-1.2-0.2-1.6-0.7c-0.4-0.5-0.7-1.1-0.7-2c0-0.8,0.2-1.5,0.7-2
			c0.5-0.5,1-0.8,1.8-0.8C131.9,155.2,132.2,155.3,132.6,155.4z M132.9,157.5c0-0.4-0.1-0.7-0.2-0.9c-0.2-0.4-0.6-0.6-1.2-0.6
			c-0.4,0-0.7,0.1-1,0.4c-0.3,0.3-0.4,0.7-0.4,1.1H132.9z"/>
		<path d="M137.8,153.4h3.1c0.8,0,1.4,0.3,1.8,0.8c0.2,0.3,0.3,0.6,0.3,1c0,0.5-0.1,0.8-0.4,1.1c-0.1,0.2-0.3,0.3-0.6,0.4
			c0.4,0.1,0.6,0.3,0.8,0.5c0.3,0.3,0.5,0.7,0.5,1.3c0,0.5-0.1,0.9-0.4,1.3c-0.4,0.6-1.1,0.8-2.1,0.8h-3.1V153.4z M140.5,156.4
			c0.4,0,0.7-0.1,1-0.2c0.4-0.2,0.5-0.5,0.5-1c0-0.5-0.2-0.8-0.6-0.9c-0.2-0.1-0.5-0.1-1-0.1h-1.8v2.2H140.5z M140.9,159.7
			c0.6,0,1-0.2,1.3-0.5c0.2-0.2,0.2-0.5,0.2-0.8c0-0.5-0.2-0.9-0.7-1.1c-0.2-0.1-0.6-0.2-1-0.2h-1.9v2.5H140.9z"/>
		<path d="M144.4,155.3h0.8v0.9c0.1-0.2,0.2-0.4,0.5-0.6c0.3-0.3,0.6-0.4,0.9-0.4c0,0,0,0,0.1,0s0.1,0,0.2,0v0.9c-0.1,0-0.1,0-0.1,0
			s-0.1,0-0.1,0c-0.4,0-0.8,0.1-1,0.4c-0.2,0.3-0.4,0.6-0.4,1v3h-0.9V155.3z"/>
		<path d="M150.5,157.4c0.2,0,0.3-0.1,0.4-0.3c0-0.1,0.1-0.2,0.1-0.3c0-0.3-0.1-0.5-0.3-0.7s-0.5-0.2-0.9-0.2c-0.5,0-0.8,0.1-1,0.4
			c-0.1,0.1-0.2,0.3-0.2,0.6h-0.8c0-0.6,0.2-1.1,0.6-1.3c0.4-0.3,0.9-0.4,1.4-0.4c0.6,0,1.1,0.1,1.5,0.4c0.4,0.2,0.6,0.6,0.6,1.1v3
			c0,0.1,0,0.2,0.1,0.2c0,0.1,0.1,0.1,0.2,0.1c0,0,0.1,0,0.1,0c0,0,0.1,0,0.2,0v0.6c-0.1,0-0.2,0.1-0.3,0.1c-0.1,0-0.2,0-0.3,0
			c-0.3,0-0.5-0.1-0.7-0.3c-0.1-0.1-0.1-0.3-0.2-0.5c-0.2,0.2-0.4,0.4-0.8,0.6s-0.7,0.3-1.1,0.3c-0.5,0-0.9-0.1-1.2-0.4
			s-0.5-0.7-0.5-1.1c0-0.5,0.2-0.9,0.5-1.1s0.7-0.4,1.2-0.5L150.5,157.4z M148.7,159.7c0.2,0.1,0.4,0.2,0.7,0.2
			c0.3,0,0.6-0.1,0.9-0.2c0.5-0.2,0.7-0.6,0.7-1.2v-0.7c-0.1,0.1-0.2,0.1-0.4,0.2s-0.3,0.1-0.5,0.1l-0.5,0.1c-0.3,0-0.6,0.1-0.7,0.2
			c-0.3,0.2-0.4,0.4-0.4,0.7C148.4,159.4,148.5,159.6,148.7,159.7z"/>
		<path d="M153.3,155.3h0.8v0.7c0.2-0.3,0.5-0.5,0.8-0.7c0.3-0.1,0.6-0.2,0.9-0.2c0.7,0,1.2,0.3,1.5,0.8c0.1,0.3,0.2,0.7,0.2,1.2
			v3.4h-0.9v-3.3c0-0.3,0-0.6-0.1-0.8c-0.2-0.3-0.4-0.5-0.8-0.5c-0.2,0-0.4,0-0.5,0.1c-0.2,0.1-0.5,0.2-0.6,0.4
			c-0.1,0.2-0.2,0.4-0.3,0.5c0,0.2-0.1,0.4-0.1,0.8v2.7h-0.9V155.3z"/>
		<path d="M161.7,155.5c0.2,0.1,0.3,0.3,0.5,0.5v-2.6h0.8v7.2h-0.8v-0.7c-0.2,0.3-0.4,0.6-0.7,0.7s-0.6,0.2-1,0.2
			c-0.6,0-1.1-0.2-1.5-0.7c-0.4-0.5-0.6-1.1-0.6-2c0-0.8,0.2-1.4,0.6-2c0.4-0.6,0.9-0.8,1.7-0.8
			C161.1,155.2,161.4,155.3,161.7,155.5z M159.7,159.4c0.2,0.4,0.6,0.6,1.1,0.6c0.4,0,0.7-0.2,1-0.5c0.3-0.4,0.4-0.9,0.4-1.5
			c0-0.7-0.1-1.1-0.4-1.5c-0.3-0.3-0.6-0.5-1-0.5c-0.4,0-0.8,0.2-1.1,0.5c-0.3,0.3-0.4,0.8-0.4,1.5
			C159.4,158.5,159.5,159,159.7,159.4z"/>
	</g>
	<g class="st3">
		<path d="M86.7,165.4h2.9c1,0,1.7,0.3,2.3,1c0.5,0.6,0.7,1.4,0.7,2.4c0,0.8-0.1,1.5-0.4,2.1c-0.5,1.1-1.4,1.6-2.6,1.6h-2.9V165.4z
			 M89.4,171.7c0.3,0,0.6,0,0.8-0.1c0.4-0.1,0.7-0.4,0.9-0.7c0.2-0.3,0.3-0.7,0.4-1.1c0-0.3,0.1-0.5,0.1-0.8c0-0.9-0.2-1.6-0.5-2.1
			s-0.9-0.7-1.7-0.7h-1.7v5.5H89.4z"/>
		<path d="M97,167.4c0.3,0.2,0.6,0.4,0.8,0.7c0.2,0.3,0.3,0.6,0.3,0.9c0.1,0.2,0.1,0.6,0.1,1.2h-3.8c0,0.5,0.1,1,0.4,1.3
			s0.6,0.5,1.1,0.5c0.5,0,0.8-0.2,1.1-0.5c0.2-0.2,0.3-0.4,0.3-0.6h0.9c0,0.2-0.1,0.4-0.2,0.6c-0.1,0.2-0.3,0.4-0.4,0.6
			c-0.3,0.3-0.6,0.4-1,0.5c-0.2,0.1-0.4,0.1-0.7,0.1c-0.6,0-1.2-0.2-1.6-0.7c-0.4-0.5-0.7-1.1-0.7-2c0-0.8,0.2-1.5,0.7-2
			c0.5-0.5,1-0.8,1.8-0.8C96.3,167.2,96.7,167.3,97,167.4z M97.3,169.5c0-0.4-0.1-0.7-0.2-0.9c-0.2-0.4-0.6-0.6-1.2-0.6
			c-0.4,0-0.7,0.1-1,0.4c-0.3,0.3-0.4,0.7-0.4,1.1H97.3z"/>
		<path d="M99.4,165.4h0.9v7.2h-0.9V165.4z"/>
		<path d="M101.6,165.4h0.9v1h-0.9V165.4z M101.6,167.3h0.9v5.2h-0.9V167.3z"/>
		<path d="M107.3,167.6c0.4,0.3,0.6,0.8,0.7,1.5h-0.9c-0.1-0.3-0.2-0.6-0.4-0.8c-0.2-0.2-0.5-0.3-0.9-0.3c-0.6,0-1,0.3-1.2,0.8
			c-0.2,0.4-0.2,0.8-0.2,1.3c0,0.5,0.1,1,0.3,1.3c0.2,0.4,0.6,0.5,1,0.5c0.4,0,0.7-0.1,0.9-0.3c0.2-0.2,0.4-0.5,0.4-0.9h0.9
			c-0.1,0.7-0.3,1.2-0.7,1.5c-0.4,0.3-0.9,0.5-1.5,0.5c-0.7,0-1.2-0.2-1.6-0.7c-0.4-0.5-0.6-1.1-0.6-1.9c0-0.9,0.2-1.6,0.7-2.1
			s1-0.8,1.7-0.8C106.4,167.1,106.9,167.3,107.3,167.6z"/>
		<path d="M111.6,169.4c0.2,0,0.3-0.1,0.4-0.3c0-0.1,0.1-0.2,0.1-0.3c0-0.3-0.1-0.5-0.3-0.7s-0.5-0.2-0.9-0.2c-0.5,0-0.8,0.1-1,0.4
			c-0.1,0.1-0.2,0.3-0.2,0.6h-0.8c0-0.6,0.2-1.1,0.6-1.3c0.4-0.3,0.9-0.4,1.4-0.4c0.6,0,1.1,0.1,1.5,0.4c0.4,0.2,0.6,0.6,0.6,1.1v3
			c0,0.1,0,0.2,0.1,0.2c0,0.1,0.1,0.1,0.2,0.1c0,0,0.1,0,0.1,0c0,0,0.1,0,0.2,0v0.6c-0.1,0-0.2,0.1-0.3,0.1s-0.2,0-0.3,0
			c-0.3,0-0.5-0.1-0.7-0.3c-0.1-0.1-0.1-0.3-0.2-0.5c-0.2,0.2-0.4,0.4-0.8,0.6s-0.7,0.3-1.1,0.3c-0.5,0-0.9-0.1-1.2-0.4
			s-0.5-0.7-0.5-1.1c0-0.5,0.2-0.9,0.5-1.1s0.7-0.4,1.2-0.5L111.6,169.4z M109.8,171.7c0.2,0.1,0.4,0.2,0.7,0.2
			c0.3,0,0.6-0.1,0.9-0.2c0.5-0.2,0.7-0.6,0.7-1.2v-0.7c-0.1,0.1-0.2,0.1-0.4,0.2s-0.3,0.1-0.5,0.1l-0.5,0.1c-0.3,0-0.6,0.1-0.7,0.2
			c-0.3,0.2-0.4,0.4-0.4,0.7C109.5,171.4,109.6,171.6,109.8,171.7z"/>
		<path d="M114.5,165.8h0.9v1.5h0.8v0.7h-0.8v3.4c0,0.2,0.1,0.3,0.2,0.4c0.1,0,0.2,0.1,0.3,0.1c0,0,0.1,0,0.1,0s0.1,0,0.2,0v0.7
			c-0.1,0-0.2,0.1-0.3,0.1s-0.2,0-0.4,0c-0.4,0-0.7-0.1-0.8-0.3c-0.1-0.2-0.2-0.5-0.2-0.8V168h-0.7v-0.7h0.7V165.8z"/>
		<path d="M120.4,167.4c0.3,0.2,0.6,0.4,0.8,0.7c0.2,0.3,0.3,0.6,0.3,0.9c0.1,0.2,0.1,0.6,0.1,1.2h-3.8c0,0.5,0.1,1,0.4,1.3
			s0.6,0.5,1.1,0.5c0.5,0,0.8-0.2,1.1-0.5c0.2-0.2,0.3-0.4,0.3-0.6h0.9c0,0.2-0.1,0.4-0.2,0.6c-0.1,0.2-0.3,0.4-0.4,0.6
			c-0.3,0.3-0.6,0.4-1,0.5c-0.2,0.1-0.4,0.1-0.7,0.1c-0.6,0-1.2-0.2-1.6-0.7c-0.4-0.5-0.7-1.1-0.7-2c0-0.8,0.2-1.5,0.7-2
			c0.5-0.5,1-0.8,1.8-0.8C119.7,167.2,120,167.3,120.4,167.4z M120.7,169.5c0-0.4-0.1-0.7-0.2-0.9c-0.2-0.4-0.6-0.6-1.2-0.6
			c-0.4,0-0.7,0.1-1,0.4c-0.3,0.3-0.4,0.7-0.4,1.1H120.7z"/>
		<path d="M130.6,165.4v0.9h-2.4v6.3h-1v-6.3h-2.4v-0.9H130.6z"/>
		<path d="M133.1,169.4c0.2,0,0.3-0.1,0.4-0.3c0-0.1,0.1-0.2,0.1-0.3c0-0.3-0.1-0.5-0.3-0.7s-0.5-0.2-0.9-0.2c-0.5,0-0.8,0.1-1,0.4
			c-0.1,0.1-0.2,0.3-0.2,0.6h-0.8c0-0.6,0.2-1.1,0.6-1.3c0.4-0.3,0.9-0.4,1.4-0.4c0.6,0,1.1,0.1,1.5,0.4c0.4,0.2,0.6,0.6,0.6,1.1v3
			c0,0.1,0,0.2,0.1,0.2c0,0.1,0.1,0.1,0.2,0.1c0,0,0.1,0,0.1,0c0,0,0.1,0,0.2,0v0.6c-0.1,0-0.2,0.1-0.3,0.1s-0.2,0-0.3,0
			c-0.3,0-0.5-0.1-0.7-0.3c-0.1-0.1-0.1-0.3-0.2-0.5c-0.2,0.2-0.4,0.4-0.8,0.6s-0.7,0.3-1.1,0.3c-0.5,0-0.9-0.1-1.2-0.4
			s-0.5-0.7-0.5-1.1c0-0.5,0.2-0.9,0.5-1.1s0.7-0.4,1.2-0.5L133.1,169.4z M131.3,171.7c0.2,0.1,0.4,0.2,0.7,0.2
			c0.3,0,0.6-0.1,0.9-0.2c0.5-0.2,0.7-0.6,0.7-1.2v-0.7c-0.1,0.1-0.2,0.1-0.4,0.2s-0.3,0.1-0.5,0.1l-0.5,0.1c-0.3,0-0.6,0.1-0.7,0.2
			c-0.3,0.2-0.4,0.4-0.4,0.7C131,171.4,131.1,171.6,131.3,171.7z"/>
		<path d="M136.4,170.9c0,0.3,0.1,0.5,0.2,0.7c0.2,0.3,0.6,0.4,1.2,0.4c0.3,0,0.6-0.1,0.9-0.2c0.3-0.1,0.4-0.4,0.4-0.7
			c0-0.2-0.1-0.4-0.3-0.5c-0.1-0.1-0.4-0.2-0.8-0.2l-0.7-0.2c-0.5-0.1-0.8-0.2-1-0.4c-0.4-0.2-0.6-0.6-0.6-1c0-0.5,0.2-0.9,0.5-1.2
			c0.4-0.3,0.8-0.5,1.5-0.5c0.8,0,1.4,0.2,1.7,0.7c0.2,0.3,0.3,0.6,0.3,0.9h-0.8c0-0.2-0.1-0.4-0.2-0.5c-0.2-0.2-0.6-0.3-1.1-0.3
			c-0.3,0-0.6,0.1-0.8,0.2c-0.2,0.1-0.3,0.3-0.3,0.5c0,0.2,0.1,0.4,0.3,0.5c0.1,0.1,0.3,0.2,0.6,0.2l0.6,0.1
			c0.6,0.2,1.1,0.3,1.3,0.4c0.3,0.2,0.5,0.6,0.5,1.1c0,0.5-0.2,0.9-0.5,1.2c-0.4,0.3-0.9,0.5-1.6,0.5c-0.8,0-1.3-0.2-1.7-0.5
			c-0.3-0.4-0.5-0.8-0.5-1.3H136.4z"/>
		<path d="M140.8,165.4h0.8v4.2l2.3-2.2h1.1l-2,1.9l2.1,3.3h-1.1l-1.6-2.7l-0.7,0.7v2h-0.8V165.4z"/>
		<path d="M149.2,165.4l1.4,5.8l1.6-5.8h1l1.6,5.8l1.4-5.8h1.1l-1.9,7.2h-1l-1.7-5.9l-1.7,5.9h-1l-1.9-7.2H149.2z"/>
		<path d="M158.1,165.4h0.9v1h-0.9V165.4z M158.1,167.3h0.9v5.2h-0.9V167.3z"/>
		<path d="M160.2,167.3h0.9v0.7c0.2-0.2,0.4-0.4,0.6-0.6c0.3-0.2,0.6-0.3,1-0.3c0.6,0,1.1,0.2,1.5,0.7c0.4,0.5,0.6,1.1,0.6,1.9
			c0,1.1-0.3,2-0.9,2.4c-0.4,0.3-0.8,0.5-1.3,0.5c-0.4,0-0.7-0.1-1-0.3c-0.2-0.1-0.3-0.3-0.5-0.5v2.7h-0.9V167.3z M163.5,171.4
			c0.3-0.3,0.4-0.9,0.4-1.5c0-0.4-0.1-0.8-0.2-1.1c-0.2-0.6-0.6-0.9-1.3-0.9c-0.6,0-1,0.3-1.3,0.9c-0.1,0.3-0.2,0.7-0.2,1.2
			c0,0.4,0.1,0.7,0.2,1c0.2,0.5,0.6,0.8,1.3,0.8C162.9,171.9,163.3,171.8,163.5,171.4z"/>
		<path d="M169.1,167.4c0.3,0.2,0.6,0.4,0.8,0.7c0.2,0.3,0.3,0.6,0.3,0.9c0.1,0.2,0.1,0.6,0.1,1.2h-3.8c0,0.5,0.1,1,0.4,1.3
			s0.6,0.5,1.1,0.5c0.5,0,0.8-0.2,1.1-0.5c0.2-0.2,0.3-0.4,0.3-0.6h0.9c0,0.2-0.1,0.4-0.2,0.6c-0.1,0.2-0.3,0.4-0.4,0.6
			c-0.3,0.3-0.6,0.4-1,0.5c-0.2,0.1-0.4,0.1-0.7,0.1c-0.6,0-1.2-0.2-1.6-0.7c-0.5-0.5-0.7-1.1-0.7-2c0-0.8,0.2-1.5,0.7-2
			s1-0.8,1.8-0.8C168.4,167.2,168.7,167.3,169.1,167.4z M169.4,169.5c0-0.4-0.1-0.7-0.2-0.9c-0.2-0.4-0.6-0.6-1.2-0.6
			c-0.4,0-0.7,0.1-1,0.4c-0.3,0.3-0.4,0.7-0.4,1.1H169.4z"/>
		<path d="M171.5,167.3h0.8v0.9c0.1-0.2,0.2-0.4,0.5-0.6c0.3-0.3,0.6-0.4,0.9-0.4c0,0,0,0,0.1,0s0.1,0,0.2,0v0.9c-0.1,0-0.1,0-0.1,0
			s-0.1,0-0.1,0c-0.4,0-0.8,0.1-1,0.4c-0.2,0.3-0.4,0.6-0.4,1v3h-0.9V167.3z"/>
		<path d="M175.3,170.9c0,0.3,0.1,0.5,0.2,0.7c0.2,0.3,0.6,0.4,1.2,0.4c0.3,0,0.6-0.1,0.9-0.2c0.3-0.1,0.4-0.4,0.4-0.7
			c0-0.2-0.1-0.4-0.3-0.5c-0.1-0.1-0.4-0.2-0.8-0.2l-0.7-0.2c-0.5-0.1-0.8-0.2-1-0.4c-0.4-0.2-0.6-0.6-0.6-1c0-0.5,0.2-0.9,0.5-1.2
			s0.8-0.5,1.5-0.5c0.8,0,1.4,0.2,1.7,0.7c0.2,0.3,0.3,0.6,0.3,0.9h-0.8c0-0.2-0.1-0.4-0.2-0.5c-0.2-0.2-0.6-0.3-1.1-0.3
			c-0.3,0-0.6,0.1-0.8,0.2c-0.2,0.1-0.3,0.3-0.3,0.5c0,0.2,0.1,0.4,0.3,0.5c0.1,0.1,0.3,0.2,0.6,0.2l0.6,0.1
			c0.6,0.2,1.1,0.3,1.3,0.4c0.3,0.2,0.5,0.6,0.5,1.1c0,0.5-0.2,0.9-0.5,1.2s-0.9,0.5-1.6,0.5c-0.8,0-1.3-0.2-1.7-0.5
			c-0.3-0.4-0.5-0.8-0.5-1.3H175.3z"/>
	</g>
	<g>
		<rect x="81.3" y="88.9" class="st4" width="84.6" height="19.5"/>
		<polyline class="st5" points="81.3,88.9 216.1,88.9 211.1,102.2 165.9,102.2 		"/>
	</g>
	<g class="st3">
		<path d="M93,95.6c-0.2-0.9-0.7-1.5-1.5-1.9c-0.4-0.2-0.9-0.3-1.5-0.3c-1,0-1.9,0.4-2.6,1.2c-0.7,0.8-1,2-1,3.5
			c0,1.6,0.4,2.7,1.1,3.4s1.6,1,2.5,1c0.9,0,1.7-0.3,2.2-0.8c0.6-0.5,0.9-1.2,1.1-2h-3v-2.2h5.4v7h-1.8l-0.3-1.6
			c-0.5,0.6-1,1-1.4,1.3c-0.7,0.4-1.6,0.7-2.6,0.7c-1.7,0-3.1-0.6-4.2-1.8c-1.1-1.2-1.7-2.8-1.7-4.9c0-2.1,0.6-3.8,1.7-5
			s2.7-1.9,4.6-1.9c1.6,0,3,0.4,4,1.3c1,0.8,1.6,1.9,1.7,3.1H93z"/>
		<path d="M107.9,93.9H101v2.8h6.3v2.2H101v3.3h7.2v2.3h-9.8v-13h9.5V93.9z"/>
		<path d="M110.3,91.6h2.8l5.1,9v-9h2.5v13H118l-5.3-9.2v9.2h-2.5V91.6z"/>
		<path d="M132.9,93.9H126v2.8h6.3v2.2H126v3.3h7.2v2.3h-9.8v-13h9.5V93.9z"/>
		<path d="M143.6,91.9c0.5,0.2,0.9,0.5,1.2,0.9c0.3,0.3,0.5,0.7,0.7,1.1c0.2,0.4,0.2,0.9,0.2,1.4c0,0.6-0.2,1.2-0.5,1.8
			c-0.3,0.6-0.8,1-1.5,1.3c0.6,0.2,1,0.6,1.3,1c0.2,0.4,0.4,1.1,0.4,2v0.9c0,0.6,0,1,0.1,1.2c0.1,0.3,0.2,0.6,0.5,0.7v0.3h-3
			c-0.1-0.3-0.1-0.5-0.2-0.7c-0.1-0.4-0.1-0.7-0.1-1.1l0-1.2c0-0.8-0.2-1.4-0.4-1.7s-0.8-0.4-1.5-0.4H138v5.1h-2.6v-13h6.2
			C142.4,91.6,143.1,91.7,143.6,91.9z M138,93.8v3.5h2.9c0.6,0,1-0.1,1.3-0.2c0.5-0.2,0.8-0.7,0.8-1.5c0-0.8-0.2-1.3-0.7-1.6
			c-0.3-0.2-0.7-0.2-1.3-0.2H138z"/>
		<path d="M150.8,104.5h-2.7v-13h2.7V104.5z"/>
		<path d="M154.5,92.9c1-1.1,2.4-1.6,4-1.6c2.2,0,3.7,0.7,4.7,2.1c0.6,0.8,0.8,1.6,0.9,2.4h-2.7c-0.2-0.6-0.4-1.1-0.7-1.4
			c-0.5-0.6-1.2-0.8-2.1-0.8c-1,0-1.7,0.4-2.3,1.2c-0.6,0.8-0.8,1.9-0.8,3.4s0.3,2.5,0.9,3.3c0.6,0.7,1.3,1.1,2.2,1.1
			c0.9,0,1.6-0.3,2.1-0.9c0.3-0.3,0.5-0.8,0.7-1.5h2.7c-0.2,1.4-0.8,2.6-1.8,3.4c-1,0.9-2.2,1.3-3.7,1.3c-1.8,0-3.3-0.6-4.3-1.8
			c-1.1-1.2-1.6-2.8-1.6-4.9C152.7,95.9,153.3,94.1,154.5,92.9z"/>
	</g>
	<g class="st3">
		<path d="M168.8,97.1c-0.1,0.5,0,0.9,0.1,1.2c0.3,0.6,0.9,0.9,1.9,0.9c0.4,0,0.8-0.1,1.2-0.2c0.7-0.2,1.2-0.7,1.3-1.3
			c0.1-0.5,0-0.8-0.2-1c-0.3-0.2-0.7-0.4-1.3-0.5l-1.1-0.3c-0.7-0.2-1.2-0.4-1.5-0.6c-0.5-0.4-0.6-0.9-0.5-1.6
			c0.2-0.8,0.6-1.4,1.2-1.9s1.5-0.7,2.4-0.7c0.9,0,1.6,0.2,2.2,0.7s0.7,1.1,0.5,2.1H174c0-0.5,0-0.8-0.1-1.1
			c-0.3-0.4-0.8-0.7-1.7-0.7c-0.7,0-1.2,0.1-1.6,0.4s-0.6,0.6-0.7,1c-0.1,0.4,0,0.7,0.3,0.9c0.2,0.1,0.7,0.3,1.5,0.5l1.1,0.3
			c0.6,0.1,1,0.3,1.2,0.5c0.5,0.4,0.6,1,0.5,1.8c-0.2,1-0.7,1.6-1.5,2s-1.6,0.6-2.5,0.6c-1.1,0-1.8-0.3-2.3-0.8
			c-0.5-0.5-0.6-1.3-0.4-2.2H168.8z"/>
		<path d="M181.2,95.7h-1c0-0.4-0.1-0.7-0.2-1s-0.5-0.4-1-0.4c-0.7,0-1.2,0.3-1.7,1c-0.3,0.4-0.5,1-0.6,1.6
			c-0.1,0.6-0.1,1.2,0.1,1.6s0.5,0.6,1.1,0.6c0.4,0,0.8-0.1,1.1-0.4s0.6-0.6,0.8-1.1h1c-0.3,0.8-0.7,1.4-1.3,1.8s-1.2,0.6-1.9,0.6
			c-0.8,0-1.4-0.3-1.8-0.9s-0.4-1.3-0.3-2.2c0.2-1.1,0.7-2,1.4-2.6s1.4-0.9,2.2-0.9c0.7,0,1.2,0.2,1.6,0.5S181.3,94.9,181.2,95.7z"
			/>
		<path d="M182.7,93.6h1.1l-1.3,6.2h-1.1L182.7,93.6z M183.2,91.2h1.1l-0.3,1.2h-1.1L183.2,91.2z"/>
		<path d="M190,94.6c0.1,0.3,0.2,0.7,0.2,1.1c0,0.3-0.1,0.8-0.2,1.4h-4.6c-0.1,0.6-0.1,1.1,0.1,1.5s0.6,0.6,1.2,0.6
			c0.6,0,1-0.2,1.4-0.5c0.2-0.2,0.4-0.5,0.6-0.7h1c-0.1,0.2-0.2,0.5-0.4,0.8s-0.4,0.5-0.7,0.7c-0.4,0.3-0.8,0.5-1.3,0.6
			c-0.3,0.1-0.6,0.1-0.9,0.1c-0.8,0-1.4-0.3-1.8-0.9s-0.5-1.4-0.3-2.4c0.2-1,0.7-1.8,1.3-2.5s1.5-0.9,2.3-0.9c0.4,0,0.9,0.1,1.2,0.3
			S189.9,94.2,190,94.6z M189.1,96.2c0.1-0.5,0-0.8-0.1-1.1c-0.2-0.5-0.6-0.8-1.3-0.8c-0.5,0-0.9,0.2-1.3,0.5s-0.7,0.8-0.8,1.3
			H189.1z"/>
		<path d="M192,93.6h1l-0.2,0.9c0.4-0.4,0.7-0.6,1.1-0.8s0.8-0.2,1.2-0.2c0.9,0,1.4,0.3,1.6,0.9c0.1,0.3,0.1,0.8,0,1.5l-0.9,4h-1.1
			l0.8-4c0.1-0.4,0.1-0.7,0-0.9c-0.1-0.4-0.4-0.6-0.9-0.6c-0.2,0-0.5,0-0.6,0.1c-0.3,0.1-0.6,0.3-0.9,0.5c-0.2,0.2-0.4,0.4-0.5,0.6
			s-0.2,0.5-0.3,0.9l-0.7,3.3h-1.1L192,93.6z"/>
		<path d="M203.2,95.7h-1c0-0.4-0.1-0.7-0.2-1s-0.5-0.4-1-0.4c-0.7,0-1.2,0.3-1.7,1c-0.3,0.4-0.5,1-0.6,1.6
			c-0.1,0.6-0.1,1.2,0.1,1.6s0.5,0.6,1.1,0.6c0.4,0,0.8-0.1,1.1-0.4s0.6-0.6,0.8-1.1h1c-0.3,0.8-0.7,1.4-1.3,1.8s-1.2,0.6-1.9,0.6
			c-0.8,0-1.4-0.3-1.8-0.9s-0.4-1.3-0.3-2.2c0.2-1.1,0.7-2,1.4-2.6s1.4-0.9,2.2-0.9c0.7,0,1.2,0.2,1.6,0.5S203.3,94.9,203.2,95.7z"
			/>
		<path d="M209.3,94.6c0.1,0.3,0.2,0.7,0.2,1.1c0,0.3-0.1,0.8-0.2,1.4h-4.6c-0.1,0.6-0.1,1.1,0.1,1.5s0.6,0.6,1.2,0.6
			c0.6,0,1-0.2,1.4-0.5c0.2-0.2,0.4-0.5,0.6-0.7h1c-0.1,0.2-0.2,0.5-0.4,0.8s-0.4,0.5-0.7,0.7c-0.4,0.3-0.8,0.5-1.3,0.6
			c-0.3,0.1-0.6,0.1-0.9,0.1c-0.8,0-1.4-0.3-1.8-0.9s-0.5-1.4-0.3-2.4c0.2-1,0.7-1.8,1.3-2.5s1.5-0.9,2.3-0.9c0.4,0,0.9,0.1,1.2,0.3
			S209.2,94.2,209.3,94.6z M208.4,96.2c0.1-0.5,0-0.8-0.1-1.1c-0.2-0.5-0.6-0.8-1.3-0.8c-0.5,0-0.9,0.2-1.3,0.5s-0.7,0.8-0.8,1.3
			H208.4z"/>
	</g>
</g>
<g>
	<path class="st6" d="M1,103.8c18.7,0,33.8-15.1,33.8-33.8H1V103.8z"/>
	<g>
		<g class="st3">
			<path d="M7.1,81.4v-1.6c1.5-0.1,2.6-0.4,3.2-0.7s1.1-1.2,1.3-2.5h1.7v16.7h-2.2V81.4H7.1z"/>
		</g>
		<g class="st3">
			<path d="M15.8,78.1h0.6v0.5c0.1-0.2,0.3-0.3,0.4-0.4c0.2-0.1,0.5-0.2,0.7-0.2c0.4,0,0.8,0.2,1.1,0.5c0.3,0.3,0.4,0.8,0.4,1.4
				c0,0.8-0.2,1.4-0.6,1.7c-0.3,0.2-0.6,0.3-0.9,0.3c-0.3,0-0.5-0.1-0.7-0.2c-0.1-0.1-0.2-0.2-0.4-0.4v1.9h-0.6V78.1z M18.2,81
				c0.2-0.2,0.3-0.6,0.3-1.1c0-0.3,0-0.5-0.1-0.8c-0.2-0.4-0.5-0.6-0.9-0.6c-0.4,0-0.7,0.2-0.9,0.6c-0.1,0.2-0.1,0.5-0.1,0.9
				c0,0.3,0,0.5,0.1,0.7c0.2,0.4,0.5,0.6,0.9,0.6C17.7,81.3,18,81.2,18.2,81z"/>
			<path d="M19.8,76.7h0.6v5h-0.6V76.7z"/>
			<path d="M23.6,78.1h0.7c-0.1,0.2-0.3,0.8-0.6,1.6c-0.2,0.6-0.4,1.1-0.6,1.5c-0.4,0.9-0.6,1.5-0.8,1.7s-0.4,0.3-0.8,0.3
				c-0.1,0-0.2,0-0.2,0c0,0-0.1,0-0.2,0v-0.6c0.1,0,0.2,0,0.2,0.1c0,0,0.1,0,0.1,0c0.1,0,0.2,0,0.3-0.1c0.1,0,0.1-0.1,0.1-0.1
				c0,0,0.1-0.1,0.1-0.3c0.1-0.2,0.1-0.3,0.2-0.4L21,78.1h0.7l1,3L23.6,78.1z"/>
		</g>
	</g>
</g>
<g class="st3">
	<path class="st4" d="M253.6,185.3c0.4-1,1.4-2,3-3.1c1.3-1,2.2-1.7,2.6-2.1c0.6-0.6,0.9-1.4,0.9-2.1c0-0.6-0.2-1.2-0.5-1.6
		c-0.3-0.4-0.8-0.6-1.5-0.6c-0.9,0-1.5,0.3-1.8,1c-0.2,0.4-0.3,1-0.3,1.8h-2.8c0-1.3,0.3-2.3,0.7-3.1c0.8-1.5,2.2-2.2,4.2-2.2
		c1.6,0,2.8,0.4,3.8,1.3c0.9,0.9,1.4,2,1.4,3.5c0,1.1-0.3,2.1-1,2.9c-0.4,0.6-1.1,1.2-2.1,1.9l-1.2,0.8c-0.7,0.5-1.2,0.9-1.5,1.1
		c-0.3,0.2-0.5,0.5-0.7,0.8h6.5v2.6h-10.2C252.9,187.2,253.2,186.2,253.6,185.3z"/>
	<path class="st4" d="M265,181.9c0.4-0.7,0.9-1.2,1.7-1.5c-0.7-0.5-1.2-1-1.4-1.6c-0.2-0.6-0.3-1.1-0.3-1.6c0-1.1,0.4-2,1.2-2.8
		c0.8-0.8,2-1.1,3.5-1.1c1.5,0,2.6,0.4,3.5,1.1c0.8,0.8,1.2,1.7,1.2,2.8c0,0.5-0.1,1-0.3,1.6c-0.2,0.6-0.7,1-1.4,1.5
		c0.7,0.4,1.3,1,1.7,1.6c0.4,0.7,0.6,1.4,0.6,2.3c0,1.3-0.5,2.3-1.4,3.2c-0.9,0.9-2.2,1.3-3.9,1.3c-1.7,0-2.9-0.4-3.8-1.3
		c-0.9-0.9-1.3-1.9-1.3-3.2C264.5,183.3,264.7,182.5,265,181.9z M268.1,185.6c0.4,0.4,0.9,0.6,1.6,0.6s1.2-0.2,1.6-0.6
		c0.4-0.4,0.6-1,0.6-1.7c0-0.8-0.2-1.3-0.6-1.7c-0.4-0.4-0.9-0.6-1.6-0.6s-1.2,0.2-1.6,0.6c-0.4,0.4-0.6,1-0.6,1.7
		C267.5,184.7,267.7,185.2,268.1,185.6z M268.3,178.9c0.3,0.3,0.8,0.5,1.4,0.5c0.6,0,1.1-0.2,1.4-0.5c0.3-0.3,0.5-0.8,0.5-1.3
		c0-0.6-0.2-1-0.5-1.4c-0.3-0.3-0.8-0.5-1.4-0.5c-0.6,0-1,0.2-1.4,0.5c-0.3,0.3-0.5,0.8-0.5,1.4
		C267.8,178.1,267.9,178.5,268.3,178.9z"/>
	<path class="st4" d="M285.4,175.3c0.8,1.3,1.1,3.2,1.1,5.7c0,2.5-0.4,4.3-1.1,5.7c-0.8,1.3-2.1,2-4,2s-3.2-0.7-4-2
		c-0.8-1.3-1.1-3.2-1.1-5.7c0-2.5,0.4-4.3,1.1-5.7c0.8-1.3,2.1-2,4-2S284.6,173.9,285.4,175.3z M279.7,184.9
		c0.3,0.9,0.9,1.4,1.7,1.4s1.4-0.5,1.7-1.4c0.3-0.9,0.4-2.2,0.4-3.9c0-1.8-0.1-3.1-0.4-4c-0.3-0.9-0.8-1.3-1.7-1.3s-1.4,0.4-1.7,1.3
		s-0.4,2.2-0.4,4C279.2,182.7,279.4,184,279.7,184.9z"/>
</g>
<g class="st3">
	<path class="st7" d="M253.6,185.3c0.4-1,1.4-2,3-3.1c1.3-1,2.2-1.7,2.6-2.1c0.6-0.6,0.9-1.4,0.9-2.1c0-0.6-0.2-1.2-0.5-1.6
		c-0.3-0.4-0.8-0.6-1.5-0.6c-0.9,0-1.5,0.3-1.8,1c-0.2,0.4-0.3,1-0.3,1.8h-2.8c0-1.3,0.3-2.3,0.7-3.1c0.8-1.5,2.2-2.2,4.2-2.2
		c1.6,0,2.8,0.4,3.8,1.3c0.9,0.9,1.4,2,1.4,3.5c0,1.1-0.3,2.1-1,2.9c-0.4,0.6-1.1,1.2-2.1,1.9l-1.2,0.8c-0.7,0.5-1.2,0.9-1.5,1.1
		c-0.3,0.2-0.5,0.5-0.7,0.8h6.5v2.6h-10.2C252.9,187.2,253.2,186.2,253.6,185.3z"/>
	<path class="st7" d="M265,181.9c0.4-0.7,0.9-1.2,1.7-1.5c-0.7-0.5-1.2-1-1.4-1.6c-0.2-0.6-0.3-1.1-0.3-1.6c0-1.1,0.4-2,1.2-2.8
		c0.8-0.8,2-1.1,3.5-1.1c1.5,0,2.6,0.4,3.5,1.1c0.8,0.8,1.2,1.7,1.2,2.8c0,0.5-0.1,1-0.3,1.6c-0.2,0.6-0.7,1-1.4,1.5
		c0.7,0.4,1.3,1,1.7,1.6c0.4,0.7,0.6,1.4,0.6,2.3c0,1.3-0.5,2.3-1.4,3.2c-0.9,0.9-2.2,1.3-3.9,1.3c-1.7,0-2.9-0.4-3.8-1.3
		c-0.9-0.9-1.3-1.9-1.3-3.2C264.5,183.3,264.7,182.5,265,181.9z M268.1,185.6c0.4,0.4,0.9,0.6,1.6,0.6s1.2-0.2,1.6-0.6
		c0.4-0.4,0.6-1,0.6-1.7c0-0.8-0.2-1.3-0.6-1.7c-0.4-0.4-0.9-0.6-1.6-0.6s-1.2,0.2-1.6,0.6c-0.4,0.4-0.6,1-0.6,1.7
		C267.5,184.7,267.7,185.2,268.1,185.6z M268.3,178.9c0.3,0.3,0.8,0.5,1.4,0.5c0.6,0,1.1-0.2,1.4-0.5c0.3-0.3,0.5-0.8,0.5-1.3
		c0-0.6-0.2-1-0.5-1.4c-0.3-0.3-0.8-0.5-1.4-0.5c-0.6,0-1,0.2-1.4,0.5c-0.3,0.3-0.5,0.8-0.5,1.4
		C267.8,178.1,267.9,178.5,268.3,178.9z"/>
	<path class="st7" d="M285.4,175.3c0.8,1.3,1.1,3.2,1.1,5.7c0,2.5-0.4,4.3-1.1,5.7c-0.8,1.3-2.1,2-4,2s-3.2-0.7-4-2
		c-0.8-1.3-1.1-3.2-1.1-5.7c0-2.5,0.4-4.3,1.1-5.7c0.8-1.3,2.1-2,4-2S284.6,173.9,285.4,175.3z M279.7,184.9
		c0.3,0.9,0.9,1.4,1.7,1.4s1.4-0.5,1.7-1.4c0.3-0.9,0.4-2.2,0.4-3.9c0-1.8-0.1-3.1-0.4-4c-0.3-0.9-0.8-1.3-1.7-1.3s-1.4,0.4-1.7,1.3
		s-0.4,2.2-0.4,4C279.2,182.7,279.4,184,279.7,184.9z"/>
</g>
<g class="st3">
	<path class="st8" d="M248.1,191.4h0.5v0.6h-0.5V191.4z M248.1,192.6h0.5v3.1h-0.5V192.6z"/>
	<path class="st8" d="M249.8,194.8c0,0.2,0.1,0.3,0.1,0.4c0.1,0.2,0.4,0.3,0.7,0.3c0.2,0,0.4,0,0.5-0.1c0.2-0.1,0.2-0.2,0.2-0.4
		c0-0.1-0.1-0.2-0.2-0.3c-0.1,0-0.2-0.1-0.5-0.1l-0.4-0.1c-0.3-0.1-0.5-0.1-0.6-0.2c-0.2-0.1-0.3-0.3-0.3-0.6c0-0.3,0.1-0.5,0.3-0.7
		s0.5-0.3,0.9-0.3c0.5,0,0.8,0.1,1,0.4c0.1,0.2,0.2,0.4,0.2,0.6h-0.5c0-0.1-0.1-0.2-0.1-0.3c-0.1-0.1-0.3-0.2-0.6-0.2
		c-0.2,0-0.4,0-0.5,0.1c-0.1,0.1-0.2,0.2-0.2,0.3c0,0.1,0.1,0.2,0.2,0.3c0.1,0,0.2,0.1,0.4,0.1l0.4,0.1c0.4,0.1,0.6,0.2,0.8,0.3
		c0.2,0.1,0.3,0.3,0.3,0.6c0,0.3-0.1,0.5-0.3,0.7s-0.5,0.3-1,0.3c-0.5,0-0.8-0.1-1-0.3c-0.2-0.2-0.3-0.5-0.3-0.8H249.8z"/>
	<path class="st8" d="M255.8,193.9c0.1,0,0.2-0.1,0.2-0.2c0,0,0-0.1,0-0.2c0-0.2-0.1-0.3-0.2-0.4c-0.1-0.1-0.3-0.1-0.5-0.1
		c-0.3,0-0.5,0.1-0.6,0.2c-0.1,0.1-0.1,0.2-0.1,0.4h-0.5c0-0.4,0.1-0.7,0.4-0.8c0.2-0.2,0.5-0.2,0.8-0.2c0.4,0,0.7,0.1,0.9,0.2
		c0.2,0.1,0.3,0.4,0.3,0.7v1.8c0,0.1,0,0.1,0,0.1s0.1,0,0.1,0c0,0,0,0,0.1,0c0,0,0.1,0,0.1,0v0.4c-0.1,0-0.1,0-0.2,0s-0.1,0-0.2,0
		c-0.2,0-0.3-0.1-0.4-0.2c0-0.1-0.1-0.2-0.1-0.3c-0.1,0.1-0.3,0.3-0.5,0.4s-0.4,0.2-0.7,0.2c-0.3,0-0.5-0.1-0.7-0.3
		s-0.3-0.4-0.3-0.7c0-0.3,0.1-0.5,0.3-0.7s0.4-0.3,0.7-0.3L255.8,193.9z M254.7,195.3c0.1,0.1,0.2,0.1,0.4,0.1c0.2,0,0.4,0,0.5-0.1
		c0.3-0.1,0.4-0.4,0.4-0.7v-0.4c-0.1,0-0.1,0.1-0.2,0.1c-0.1,0-0.2,0-0.3,0.1l-0.3,0c-0.2,0-0.3,0.1-0.4,0.1
		c-0.2,0.1-0.2,0.2-0.2,0.4C254.5,195.1,254.6,195.2,254.7,195.3z"/>
	<path class="st8" d="M259.1,192.6h0.5v0.4c0.1-0.2,0.3-0.3,0.5-0.4s0.4-0.1,0.6-0.1c0.4,0,0.7,0.2,0.9,0.5c0.1,0.2,0.1,0.4,0.1,0.7
		v2h-0.5v-2c0-0.2,0-0.3-0.1-0.5c-0.1-0.2-0.3-0.3-0.5-0.3c-0.1,0-0.2,0-0.3,0c-0.1,0-0.3,0.1-0.4,0.3c-0.1,0.1-0.1,0.2-0.2,0.3
		c0,0.1,0,0.3,0,0.5v1.6h-0.5V192.6z"/>
	<path class="st8" d="M262.5,191.4h0.5v0.6h-0.5V191.4z M262.5,192.6h0.5v3.1h-0.5V192.6z"/>
	<path class="st8" d="M265.9,192.8c0.2,0.2,0.4,0.5,0.4,0.9h-0.5c0-0.2-0.1-0.4-0.2-0.5s-0.3-0.2-0.5-0.2c-0.3,0-0.6,0.2-0.7,0.5
		c-0.1,0.2-0.1,0.5-0.1,0.8c0,0.3,0.1,0.6,0.2,0.8c0.1,0.2,0.3,0.3,0.6,0.3c0.2,0,0.4-0.1,0.5-0.2c0.1-0.1,0.2-0.3,0.3-0.5h0.5
		c-0.1,0.4-0.2,0.7-0.4,0.9s-0.5,0.3-0.9,0.3c-0.4,0-0.7-0.1-1-0.5c-0.2-0.3-0.4-0.7-0.4-1.1c0-0.6,0.1-1,0.4-1.3s0.6-0.5,1-0.5
		C265.4,192.5,265.7,192.6,265.9,192.8z"/>
	<path class="st8" d="M268.7,192.7c0.2,0.1,0.4,0.2,0.5,0.4c0.1,0.2,0.2,0.3,0.2,0.6c0,0.1,0,0.4,0,0.7h-2.3c0,0.3,0.1,0.6,0.2,0.8
		c0.1,0.2,0.4,0.3,0.6,0.3c0.3,0,0.5-0.1,0.7-0.3c0.1-0.1,0.2-0.2,0.2-0.4h0.5c0,0.1-0.1,0.2-0.1,0.4c-0.1,0.1-0.2,0.3-0.3,0.3
		c-0.2,0.2-0.4,0.3-0.6,0.3c-0.1,0-0.3,0-0.4,0c-0.4,0-0.7-0.1-1-0.4c-0.3-0.3-0.4-0.7-0.4-1.2c0-0.5,0.1-0.9,0.4-1.2
		s0.6-0.5,1.1-0.5C268.3,192.5,268.5,192.6,268.7,192.7z M268.9,193.9c0-0.2-0.1-0.4-0.1-0.5c-0.1-0.3-0.4-0.4-0.7-0.4
		c-0.2,0-0.4,0.1-0.6,0.3c-0.2,0.2-0.2,0.4-0.3,0.7H268.9z"/>
	<path class="st8" d="M271.8,192.6h0.5v0.4c0.1-0.2,0.3-0.3,0.5-0.4s0.4-0.1,0.6-0.1c0.4,0,0.7,0.2,0.9,0.5c0.1,0.2,0.1,0.4,0.1,0.7
		v2h-0.5v-2c0-0.2,0-0.3-0.1-0.5c-0.1-0.2-0.3-0.3-0.5-0.3c-0.1,0-0.2,0-0.3,0c-0.1,0-0.3,0.1-0.4,0.3c-0.1,0.1-0.1,0.2-0.2,0.3
		c0,0.1,0,0.3,0,0.5v1.6h-0.5V192.6z"/>
	<path class="st8" d="M275.7,192.6v2.1c0,0.2,0,0.3,0.1,0.4c0.1,0.2,0.3,0.3,0.5,0.3c0.4,0,0.6-0.2,0.7-0.5c0.1-0.2,0.1-0.4,0.1-0.7
		v-1.5h0.5v3.1h-0.5l0-0.5c-0.1,0.1-0.2,0.2-0.2,0.3c-0.2,0.2-0.4,0.2-0.7,0.2c-0.4,0-0.7-0.1-0.9-0.4c-0.1-0.2-0.1-0.4-0.1-0.6
		v-2.1H275.7z"/>
	<path class="st8" d="M278.5,192.6h0.5v0.4c0.1-0.2,0.2-0.3,0.3-0.3c0.2-0.1,0.4-0.2,0.6-0.2c0.2,0,0.5,0.1,0.6,0.2
		c0.1,0.1,0.2,0.2,0.2,0.3c0.1-0.2,0.3-0.3,0.4-0.4s0.3-0.1,0.5-0.1c0.4,0,0.7,0.2,0.9,0.5c0.1,0.2,0.1,0.4,0.1,0.7v2.1h-0.5v-2.2
		c0-0.2-0.1-0.4-0.2-0.4s-0.2-0.1-0.4-0.1c-0.2,0-0.4,0.1-0.5,0.2s-0.2,0.4-0.2,0.7v1.8h-0.5v-2c0-0.2,0-0.4-0.1-0.5
		c-0.1-0.1-0.2-0.2-0.4-0.2c-0.2,0-0.4,0.1-0.5,0.2s-0.2,0.4-0.2,0.8v1.7h-0.5V192.6z"/>
	<path class="st8" d="M283.4,191.4h0.5v1.6c0.1-0.2,0.3-0.3,0.4-0.3c0.2-0.1,0.3-0.1,0.5-0.1c0.4,0,0.7,0.1,1,0.4s0.4,0.7,0.4,1.2
		c0,0.5-0.1,0.9-0.4,1.2s-0.6,0.5-1,0.5c-0.2,0-0.4-0.1-0.6-0.2c-0.1-0.1-0.2-0.2-0.3-0.3v0.4h-0.5V191.4z M285.5,195
		c0.1-0.2,0.2-0.5,0.2-0.9c0-0.3-0.1-0.6-0.2-0.8c-0.1-0.2-0.4-0.3-0.6-0.3c-0.2,0-0.5,0.1-0.6,0.3c-0.2,0.2-0.3,0.5-0.3,0.9
		c0,0.3,0,0.5,0.1,0.7c0.1,0.3,0.4,0.5,0.8,0.5C285.1,195.4,285.3,195.3,285.5,195z"/>
	<path class="st8" d="M288.8,192.7c0.2,0.1,0.4,0.2,0.5,0.4c0.1,0.2,0.2,0.3,0.2,0.6c0,0.1,0,0.4,0,0.7h-2.3c0,0.3,0.1,0.6,0.2,0.8
		c0.1,0.2,0.4,0.3,0.6,0.3c0.3,0,0.5-0.1,0.7-0.3c0.1-0.1,0.2-0.2,0.2-0.4h0.5c0,0.1-0.1,0.2-0.1,0.4c-0.1,0.1-0.2,0.3-0.3,0.3
		c-0.2,0.2-0.4,0.3-0.6,0.3c-0.1,0-0.3,0-0.4,0c-0.4,0-0.7-0.1-1-0.4c-0.3-0.3-0.4-0.7-0.4-1.2c0-0.5,0.1-0.9,0.4-1.2
		s0.6-0.5,1.1-0.5C288.3,192.5,288.6,192.6,288.8,192.7z M288.9,193.9c0-0.2-0.1-0.4-0.1-0.5c-0.1-0.3-0.4-0.4-0.7-0.4
		c-0.2,0-0.4,0.1-0.6,0.3c-0.2,0.2-0.2,0.4-0.3,0.7H288.9z"/>
	<path class="st8" d="M290.2,192.6h0.5v0.5c0-0.1,0.1-0.2,0.3-0.4s0.3-0.2,0.6-0.2c0,0,0,0,0,0s0.1,0,0.1,0v0.6c0,0-0.1,0-0.1,0
		s-0.1,0-0.1,0c-0.3,0-0.5,0.1-0.6,0.3s-0.2,0.4-0.2,0.6v1.8h-0.5V192.6z"/>
</g>
<polygon class="st9" points="1,166.5 0.5,200 80.2,200 "/>
<polygon class="st9" points="300.5,103.7 301,70.1 221.3,70.1 "/>
<g class="st3">
	<path class="st4" d="M8.1,191.4v0.5H6.6v3.8H6V192H4.6v-0.5H8.1z"/>
	<path class="st4" d="M8.6,191.4h0.6v3.8h2.2v0.5H8.6V191.4z"/>
	<path class="st4" d="M12,191.4h0.6v3.8h2.2v0.5H12V191.4z"/>
	<path class="st4" d="M16.8,191.4h1.9c0.4,0,0.7,0.1,0.9,0.3c0.2,0.2,0.4,0.5,0.4,0.9c0,0.3-0.1,0.6-0.3,0.9c-0.2,0.2-0.5,0.4-1,0.4
		h-1.3v1.8h-0.6V191.4z M19.1,192c-0.1-0.1-0.3-0.1-0.5-0.1h-1.2v1.5h1.2c0.3,0,0.5-0.1,0.6-0.2c0.2-0.1,0.2-0.3,0.2-0.6
		C19.4,192.4,19.3,192.2,19.1,192z"/>
	<path class="st4" d="M20.7,192.6h0.5v0.5c0-0.1,0.1-0.2,0.3-0.4s0.3-0.2,0.6-0.2c0,0,0,0,0,0s0.1,0,0.1,0v0.6c0,0-0.1,0-0.1,0
		s-0.1,0-0.1,0c-0.3,0-0.5,0.1-0.6,0.3s-0.2,0.4-0.2,0.6v1.8h-0.5V192.6z"/>
	<path class="st4" d="M24.9,192.9c0.3,0.3,0.4,0.7,0.4,1.2c0,0.5-0.1,0.9-0.4,1.3c-0.2,0.3-0.6,0.5-1.1,0.5c-0.4,0-0.8-0.1-1-0.4
		c-0.3-0.3-0.4-0.7-0.4-1.2c0-0.5,0.1-0.9,0.4-1.3c0.3-0.3,0.6-0.5,1.1-0.5C24.3,192.5,24.7,192.7,24.9,192.9z M24.6,195
		c0.1-0.3,0.2-0.6,0.2-0.9c0-0.3,0-0.5-0.1-0.7c-0.1-0.3-0.4-0.4-0.8-0.4c-0.3,0-0.6,0.1-0.7,0.4c-0.1,0.2-0.2,0.5-0.2,0.9
		c0,0.3,0.1,0.6,0.2,0.8c0.1,0.2,0.4,0.3,0.7,0.3C24.2,195.4,24.5,195.3,24.6,195z"/>
	<path class="st4" d="M26.3,191.7c0.1-0.2,0.4-0.3,0.7-0.3c0,0,0.1,0,0.1,0s0.1,0,0.1,0v0.5c-0.1,0-0.1,0-0.1,0c0,0,0,0-0.1,0
		c-0.2,0-0.3,0-0.3,0.1c0,0.1,0,0.3,0,0.6h0.5v0.4h-0.5v2.7h-0.5V193h-0.4v-0.4h0.4v-0.5C26.1,191.9,26.2,191.8,26.3,191.7z"/>
	<path class="st4" d="M29.6,192.7c0.2,0.1,0.4,0.2,0.5,0.4c0.1,0.2,0.2,0.3,0.2,0.6c0,0.1,0,0.4,0,0.7h-2.3c0,0.3,0.1,0.6,0.2,0.8
		c0.1,0.2,0.4,0.3,0.6,0.3c0.3,0,0.5-0.1,0.7-0.3c0.1-0.1,0.2-0.2,0.2-0.4h0.5c0,0.1-0.1,0.2-0.1,0.4c-0.1,0.1-0.2,0.3-0.3,0.3
		c-0.2,0.2-0.4,0.3-0.6,0.3c-0.1,0-0.3,0-0.4,0c-0.4,0-0.7-0.1-1-0.4c-0.3-0.3-0.4-0.7-0.4-1.2c0-0.5,0.1-0.9,0.4-1.2
		c0.3-0.3,0.6-0.5,1.1-0.5C29.2,192.5,29.4,192.6,29.6,192.7z M29.8,193.9c0-0.2-0.1-0.4-0.1-0.5c-0.1-0.3-0.4-0.4-0.7-0.4
		c-0.2,0-0.4,0.1-0.6,0.3c-0.2,0.2-0.2,0.4-0.3,0.7H29.8z"/>
	<path class="st4" d="M31.3,194.8c0,0.2,0.1,0.3,0.1,0.4c0.1,0.2,0.4,0.3,0.7,0.3c0.2,0,0.4,0,0.5-0.1c0.2-0.1,0.2-0.2,0.2-0.4
		c0-0.1-0.1-0.2-0.2-0.3c-0.1,0-0.2-0.1-0.5-0.1l-0.4-0.1c-0.3-0.1-0.5-0.1-0.6-0.2c-0.2-0.1-0.3-0.3-0.3-0.6c0-0.3,0.1-0.5,0.3-0.7
		s0.5-0.3,0.9-0.3c0.5,0,0.8,0.1,1,0.4c0.1,0.2,0.2,0.4,0.2,0.6h-0.5c0-0.1-0.1-0.2-0.1-0.3c-0.1-0.1-0.3-0.2-0.6-0.2
		c-0.2,0-0.4,0-0.5,0.1c-0.1,0.1-0.2,0.2-0.2,0.3c0,0.1,0.1,0.2,0.2,0.3c0.1,0,0.2,0.1,0.4,0.1l0.4,0.1c0.4,0.1,0.6,0.2,0.8,0.3
		c0.2,0.1,0.3,0.3,0.3,0.6c0,0.3-0.1,0.5-0.3,0.7c-0.2,0.2-0.5,0.3-1,0.3c-0.5,0-0.8-0.1-1-0.3c-0.2-0.2-0.3-0.5-0.3-0.8H31.3z"/>
	<path class="st4" d="M34.3,194.8c0,0.2,0.1,0.3,0.1,0.4c0.1,0.2,0.4,0.3,0.7,0.3c0.2,0,0.4,0,0.5-0.1c0.2-0.1,0.2-0.2,0.2-0.4
		c0-0.1-0.1-0.2-0.2-0.3c-0.1,0-0.2-0.1-0.5-0.1l-0.4-0.1c-0.3-0.1-0.5-0.1-0.6-0.2c-0.2-0.1-0.3-0.3-0.3-0.6c0-0.3,0.1-0.5,0.3-0.7
		s0.5-0.3,0.9-0.3c0.5,0,0.8,0.1,1,0.4c0.1,0.2,0.2,0.4,0.2,0.6h-0.5c0-0.1-0.1-0.2-0.1-0.3c-0.1-0.1-0.3-0.2-0.6-0.2
		c-0.2,0-0.4,0-0.5,0.1c-0.1,0.1-0.2,0.2-0.2,0.3c0,0.1,0.1,0.2,0.2,0.3c0.1,0,0.2,0.1,0.4,0.1l0.4,0.1c0.4,0.1,0.6,0.2,0.8,0.3
		c0.2,0.1,0.3,0.3,0.3,0.6c0,0.3-0.1,0.5-0.3,0.7c-0.2,0.2-0.5,0.3-1,0.3c-0.5,0-0.8-0.1-1-0.3c-0.2-0.2-0.3-0.5-0.3-0.8H34.3z"/>
	<path class="st4" d="M37,191.4h0.5v0.6H37V191.4z M37,192.6h0.5v3.1H37V192.6z"/>
	<path class="st4" d="M40.6,192.9c0.3,0.3,0.4,0.7,0.4,1.2c0,0.5-0.1,0.9-0.4,1.3c-0.2,0.3-0.6,0.5-1.1,0.5c-0.4,0-0.8-0.1-1-0.4
		c-0.3-0.3-0.4-0.7-0.4-1.2c0-0.5,0.1-0.9,0.4-1.3c0.3-0.3,0.6-0.5,1.1-0.5C40,192.5,40.3,192.7,40.6,192.9z M40.3,195
		c0.1-0.3,0.2-0.6,0.2-0.9c0-0.3,0-0.5-0.1-0.7c-0.1-0.3-0.4-0.4-0.8-0.4c-0.3,0-0.6,0.1-0.7,0.4c-0.1,0.2-0.2,0.5-0.2,0.9
		c0,0.3,0.1,0.6,0.2,0.8c0.1,0.2,0.4,0.3,0.7,0.3C39.9,195.4,40.2,195.3,40.3,195z"/>
	<path class="st4" d="M41.7,192.6h0.5v0.4c0.1-0.2,0.3-0.3,0.5-0.4s0.4-0.1,0.6-0.1c0.4,0,0.7,0.2,0.9,0.5c0.1,0.2,0.1,0.4,0.1,0.7
		v2h-0.5v-2c0-0.2,0-0.3-0.1-0.5c-0.1-0.2-0.3-0.3-0.5-0.3c-0.1,0-0.2,0-0.3,0c-0.1,0-0.3,0.1-0.4,0.3c-0.1,0.1-0.1,0.2-0.2,0.3
		c0,0.1,0,0.3,0,0.5v1.6h-0.5V192.6z"/>
	<path class="st4" d="M46.7,193.9c0.1,0,0.2-0.1,0.2-0.2c0,0,0-0.1,0-0.2c0-0.2-0.1-0.3-0.2-0.4c-0.1-0.1-0.3-0.1-0.5-0.1
		c-0.3,0-0.5,0.1-0.6,0.2c-0.1,0.1-0.1,0.2-0.1,0.4H45c0-0.4,0.1-0.7,0.4-0.8c0.2-0.2,0.5-0.2,0.8-0.2c0.4,0,0.7,0.1,0.9,0.2
		c0.2,0.1,0.3,0.4,0.3,0.7v1.8c0,0.1,0,0.1,0,0.1s0.1,0,0.1,0c0,0,0,0,0.1,0c0,0,0.1,0,0.1,0v0.4c-0.1,0-0.1,0-0.2,0s-0.1,0-0.2,0
		c-0.2,0-0.3-0.1-0.4-0.2c0-0.1-0.1-0.2-0.1-0.3c-0.1,0.1-0.3,0.3-0.5,0.4s-0.4,0.2-0.7,0.2c-0.3,0-0.5-0.1-0.7-0.3
		s-0.3-0.4-0.3-0.7c0-0.3,0.1-0.5,0.3-0.7s0.4-0.3,0.7-0.3L46.7,193.9z M45.6,195.3c0.1,0.1,0.2,0.1,0.4,0.1c0.2,0,0.4,0,0.5-0.1
		c0.3-0.1,0.4-0.4,0.4-0.7v-0.4c-0.1,0-0.1,0.1-0.2,0.1c-0.1,0-0.2,0-0.3,0.1l-0.3,0c-0.2,0-0.3,0.1-0.4,0.1
		c-0.2,0.1-0.2,0.2-0.2,0.4C45.4,195.1,45.5,195.2,45.6,195.3z"/>
	<path class="st4" d="M48.4,191.4h0.5v4.3h-0.5V191.4z"/>
</g>
</svg>
