<?xml version="1.0" encoding="utf-8"?>
<!-- Generator: Adobe Illustrator 15.1.0, SVG Export Plug-In . SVG Version: 6.00 Build 0)  -->
<!DOCTYPE svg PUBLIC "-//W3C//DTD SVG 1.1//EN" "http://www.w3.org/Graphics/SVG/1.1/DTD/svg11.dtd">
<svg version="1.1" id="Layer_1" xmlns="http://www.w3.org/2000/svg" xmlns:xlink="http://www.w3.org/1999/xlink" x="0px" y="0px"
	 width="220px" height="301px" viewBox="0 0 220 301" enable-background="new 0 0 220 301" xml:space="preserve">
<g>
	<g>
		
			<linearGradient id="SVGID_1_" gradientUnits="userSpaceOnUse" x1="325.9541" y1="-146.5513" x2="325.7123" y2="-228.0017" gradientTransform="matrix(1 0 0 -1 -215 -3)">
			<stop  offset="0" style="stop-color:#FFE7C3"/>
			<stop  offset="0.5394" style="stop-color:#FBAA19"/>
			<stop  offset="0.9697" style="stop-color:#F36C21"/>
		</linearGradient>
		<polygon fill="url(#SVGID_1_)" points="23.659,196.9 14.553,224.218 206.873,224.218 197.768,196.9 		"/>
		
			<linearGradient id="SVGID_2_" gradientUnits="userSpaceOnUse" x1="328.835" y1="-299.3091" x2="318.8014" y2="20.3352" gradientTransform="matrix(1 0 0 -1 -215 -3)">
			<stop  offset="0.3279" style="stop-color:#E2CFC2"/>
			<stop  offset="0.8885" style="stop-color:#000000"/>
		</linearGradient>
		<path fill="url(#SVGID_2_)" d="M159.93,83.395V22.416c0,0,9.68-11.189,10.176-16.277c0.525-5.422-8.139-4.578-8.139-4.578H59.46
			c0,0-8.847-1.052-8.139,4.578c0.638,5.072,10.173,16.277,10.173,16.277v60.979L23.659,196.9h174.108L159.93,83.395z"/>
	</g>
	
		<linearGradient id="SVGID_3_" gradientUnits="userSpaceOnUse" x1="330.5449" y1="65.1167" x2="322.8406" y2="-51.3071" gradientTransform="matrix(1 0 0 -1 -215 -3)">
		<stop  offset="0" style="stop-color:#FFFFFF"/>
		<stop  offset="0.7333" style="stop-color:#D8C2B0"/>
	</linearGradient>
	<path fill="url(#SVGID_3_)" d="M166.121,2.969h-34.387h-2.041H55.305c-0.763,0-2.157,0.363-2.157,1.92
		c0,1.328,0.654,1.92,1.417,1.92c0,0,0.928-1.082,3.787-1.08c7.482,0.006,65.044,0.001,72.113,0c4.24,0.001,25.127,0.006,32.607,0
		c2.861-0.002,3.787,1.08,3.787,1.08c0.764,0,1.418-0.592,1.418-1.92C168.277,3.332,166.883,2.969,166.121,2.969z"/>
	
		<linearGradient id="SVGID_4_" gradientUnits="userSpaceOnUse" x1="285.9678" y1="9.272" x2="277.9644" y2="-56.7559" gradientTransform="matrix(1 0 0 -1 -215 -3)">
		<stop  offset="0" style="stop-color:#FFFFFF"/>
		<stop  offset="0.7333" style="stop-color:#D8C2B0"/>
	</linearGradient>
	<path fill="url(#SVGID_4_)" d="M76.702,2.969h-15.5v2.763c3.675,0.001,9.344,0.002,15.5,0.002V2.969z"/>
	
		<linearGradient id="SVGID_5_" gradientUnits="userSpaceOnUse" x1="362.8604" y1="2.7324" x2="354.8604" y2="-63.2676" gradientTransform="matrix(1 0 0 -1 -215 -3)">
		<stop  offset="0" style="stop-color:#FFFFFF"/>
		<stop  offset="0.7333" style="stop-color:#D8C2B0"/>
	</linearGradient>
	<path fill="url(#SVGID_5_)" d="M157.951,2.969h-22.625v2.763c6.082,0.001,15.811,0.003,22.625,0.001V2.969z"/>
	
		<linearGradient id="SVGID_6_" gradientUnits="userSpaceOnUse" x1="381.4014" y1="0.4868" x2="373.4004" y2="-65.5218" gradientTransform="matrix(1 0 0 -1 -215 -3)">
		<stop  offset="0" style="stop-color:#FFFFFF"/>
		<stop  offset="0.7333" style="stop-color:#D8C2B0"/>
	</linearGradient>
	<path fill="url(#SVGID_6_)" d="M166.121,2.969h-3.42V5.73c0.121,0,0.258,0,0.371,0c2.861-0.002,3.787,1.08,3.787,1.08
		c0.764,0,1.418-0.592,1.418-1.92C168.277,3.332,166.883,2.969,166.121,2.969z"/>
	<g>
		
			<linearGradient id="SVGID_7_" gradientUnits="userSpaceOnUse" x1="329.9971" y1="-130.9326" x2="324.6878" y2="-314.8614" gradientTransform="matrix(1 0 0 -1 -215 -3)">
			<stop  offset="0" style="stop-color:#FFE7C3"/>
			<stop  offset="0.3181" style="stop-color:#FBAA19"/>
			<stop  offset="0.697" style="stop-color:#C14427"/>
			<stop  offset="1" style="stop-color:#741F13"/>
		</linearGradient>
		<path fill="url(#SVGID_7_)" d="M217.918,257.352l-19.014-57.039c-6.215,3.129-38.174,5.514-76.689,5.514
			c-38.519,0-93.479-2.385-99.693-5.514L3.509,257.352c0,0-12.1,35.291,29.092,40.151c30.005,3.541,85.299,3.127,89.614,3.127
			c4.311,0,36.613,0.481,66.607-3.127C231.598,292.357,217.918,257.352,217.918,257.352z"/>
	</g>
	
		<linearGradient id="SVGID_8_" gradientUnits="userSpaceOnUse" x1="242.3936" y1="-105.2192" x2="435.1837" y2="-105.2192" gradientTransform="matrix(1 0 0 -1 -215 -3)">
		<stop  offset="0.1697" style="stop-color:#E1CFC2"/>
		<stop  offset="0.297" style="stop-color:#FFFFFF"/>
		<stop  offset="0.7333" style="stop-color:#DCC7B8"/>
	</linearGradient>
	<path fill="url(#SVGID_8_)" d="M195.201,196.9L155.705,82.39c0,0,1-32.317,1-51.756c0-1.47-0.404-5.249,0.471-6.415
		c3.139-4.188,9.051-11.325,9.363-14.408c0.055-0.558-0.109-0.823-0.281-1.008c-0.707-0.768-2.686-1.265-5.039-1.265
		c-0.297,0-0.482,0.009-0.504,0.01l-0.059,0.003h-99.83l-0.11-0.003c-0.025-0.001-0.212-0.01-0.507-0.01
		c-2.354,0-4.333,0.497-5.041,1.265c-0.17,0.185-0.336,0.45-0.279,1.008c0.312,3.08,7.165,9.655,9.363,14.408
		c0.431,0.932,0.47,3.195,0.47,4.082c0,20.022,1,54.089,1,54.089L26.226,196.9c10.974-2.525,62.509-4.326,95.989-4.326
		C155.693,192.574,184.227,194.375,195.201,196.9z"/>
	
		<linearGradient id="SVGID_9_" gradientUnits="userSpaceOnUse" x1="270.0889" y1="-16.8154" x2="408.1726" y2="-17.3446" gradientTransform="matrix(1 0 0 -1 -215 -3)">
		<stop  offset="0.1231" style="stop-color:#D8C2B0"/>
		<stop  offset="0.297" style="stop-color:#FFFFFF"/>
		<stop  offset="0.7333" style="stop-color:#D8C2B0"/>
	</linearGradient>
	<path fill="url(#SVGID_9_)" d="M68.207,18.551c22.696,0,88.49,0,88.49,0c2.582-2.481,6.115-9.014,4.521-9.014
		c-0.211,0-0.352,0.005-0.44,0.01l-0.062,0.003H60.765l-0.158-0.005c-0.037-0.002-0.18-0.007-0.398-0.007
		c-1.412,0-0.76,4.342,0.746,6.285C61.655,16.726,63.229,18.551,68.207,18.551z"/>
	
		<linearGradient id="SVGID_10_" gradientUnits="userSpaceOnUse" x1="377.9121" y1="-17.7246" x2="359.3898" y2="-14.0259" gradientTransform="matrix(1 0 0 -1 -215 -3)">
		<stop  offset="0" style="stop-color:#FFFFFF"/>
		<stop  offset="0.7333" style="stop-color:#D8C2B0"/>
	</linearGradient>
	<path fill="url(#SVGID_10_)" d="M161.219,9.537c-0.072,0,0.129,1.329-0.551,2.69c-1.338,2.67-3.971,6.324-3.971,6.324
		S170.998,9.537,161.219,9.537z"/>
	
		<linearGradient id="SVGID_11_" gradientUnits="userSpaceOnUse" x1="321.1631" y1="-342.5166" x2="329.3415" y2="-210.1741" gradientTransform="matrix(1 0 0 -1 -215 -3)">
		<stop  offset="0" style="stop-color:#FFE7C3"/>
		<stop  offset="0.3848" style="stop-color:#FBAA19"/>
		<stop  offset="0.9697" style="stop-color:#F36C21"/>
	</linearGradient>
	<path fill="url(#SVGID_11_)" d="M212.799,247.924l-16.141-46.796c-9.697,2.72-39.354,4.697-74.443,4.697
		c-35.094,0-87.75-1.979-97.448-4.697L8.603,247.994c-0.078,0.203-7.665,20.415,1.041,34.477
		c4.657,7.523,13.227,12.051,25.469,13.454c22.524,2.582,47.002,2.968,59.588,2.968c1.415,0,25.558-0.004,26.39-0.008l1.125-0.004
		l1.125,0.004c0.832,0.004,1.976,0.008,3.388,0.008h0.004c12.584,0,37.059-0.386,59.584-2.968
		c12.242-1.403,20.811-5.931,25.469-13.454C220.488,268.409,212.902,248.197,212.799,247.924z"/>
	
		<linearGradient id="SVGID_12_" gradientUnits="userSpaceOnUse" x1="366.3047" y1="-100.3735" x2="303.7466" y2="-259.8808" gradientTransform="matrix(1 0 0 -1 -215 -3)">
		<stop  offset="0" style="stop-color:#FFE7C3"/>
		<stop  offset="0.5394" style="stop-color:#FBAA19"/>
		<stop  offset="0.9697" style="stop-color:#F36C21"/>
	</linearGradient>
	<path fill="url(#SVGID_12_)" d="M196.658,201.128l-1.457-4.228c-10.975-2.525-39.508-4.326-72.986-4.326
		c-33.48,0-85.015,1.801-95.989,4.326l-1.458,4.228c9.698,2.72,62.354,4.697,97.448,4.697
		C157.305,205.825,186.961,203.848,196.658,201.128z"/>
	
		<linearGradient id="SVGID_13_" gradientUnits="userSpaceOnUse" x1="406.7012" y1="-317.7041" x2="308.4493" y2="-178.6063" gradientTransform="matrix(1 0 0 -1 -215 -3)">
		<stop  offset="0" style="stop-color:#FFE7C3"/>
		<stop  offset="0.5394" style="stop-color:#FBAA19"/>
		<stop  offset="0.9697" style="stop-color:#F36C21"/>
	</linearGradient>
	<path fill="url(#SVGID_13_)" d="M31.139,199.199c9.628-5.842,61.198-4.696,94.677-4.696c30.656,0,57.156,1.511,69.836,3.704
		l-0.451-1.307c-10.975-2.525-39.508-4.326-72.986-4.326c-33.48,0-85.015,1.801-95.989,4.326l-1.458,4.228
		c1.091,0.306,2.447,0.603,4.022,0.888C29.209,201.137,29.961,199.914,31.139,199.199z"/>
	
		<linearGradient id="SVGID_14_" gradientUnits="userSpaceOnUse" x1="475.7402" y1="-65.2144" x2="176.3959" y2="56.3763" gradientTransform="matrix(1 0 0 -1 -215 -3)">
		<stop  offset="0" style="stop-color:#FFFFFF"/>
		<stop  offset="0.7333" style="stop-color:#D8C2B0"/>
	</linearGradient>
	<path fill="url(#SVGID_14_)" d="M149.535,20.736c0.086-0.611,0.225-1.127,0.453-1.451c2.268-3.214,5.967-8.053,7.971-11.734
		h-22.701c-2.006,3.681-5.707,8.521-7.973,11.734c-0.229,0.324-0.367,0.84-0.451,1.451H149.535z"/>
	
		<linearGradient id="SVGID_15_" gradientUnits="userSpaceOnUse" x1="467.2822" y1="-134.3433" x2="-4.0514" y2="-33.0098" gradientTransform="matrix(1 0 0 -1 -215 -3)">
		<stop  offset="0" style="stop-color:#FFFFFF"/>
		<stop  offset="0.7333" style="stop-color:#D8C2B0"/>
	</linearGradient>
	<path fill="url(#SVGID_15_)" d="M185.568,195.354L148.723,81.761H129.93l18.738-2.434c0.295-11.318,0.85-38.607,0.85-53.222
		c0-0.696-0.078-1.879-0.092-3.086h-22.703c0.012,1.208,0.092,2.391,0.092,3.087c0,20.668-2,55.03-2,55.03l11.824,111.554
		c11.508,0.185,22.113,0.584,31.234,1.146l-7.896-57.285c-0.488-1.771,17.412,57.98,17.412,57.98
		C180.363,194.786,183.109,195.061,185.568,195.354z"/>
	
		<linearGradient id="SVGID_16_" gradientUnits="userSpaceOnUse" x1="361.8213" y1="-12.4097" x2="313.1799" y2="-62.2542" gradientTransform="matrix(1 0 0 -1 -215 -3)">
		<stop  offset="0" style="stop-color:#FFFFFF"/>
		<stop  offset="0.7333" style="stop-color:#D8C2B0"/>
	</linearGradient>
	<path fill="url(#SVGID_16_)" d="M127.811,18.551h22.703c1.854-2.595,4.375-5.979,6.262-9h-22.703
		C132.186,12.571,129.666,15.956,127.811,18.551z"/>
	
		<linearGradient id="SVGID_17_" gradientUnits="userSpaceOnUse" x1="154.418" y1="-424.2334" x2="306.9078" y2="-135.6067" gradientTransform="matrix(1 0 0 -1 -215 -3)">
		<stop  offset="0" style="stop-color:#FFE7C3"/>
		<stop  offset="0.5394" style="stop-color:#FBAA19"/>
		<stop  offset="0.9697" style="stop-color:#F36C21"/>
	</linearGradient>
	<path fill="url(#SVGID_17_)" d="M51.424,206.128c-3.371-0.144-6.61-0.308-9.68-0.489L30.355,245.07l12.774,1.779
		C46.694,228.48,46.743,228.266,51.424,206.128z"/>
	
		<linearGradient id="SVGID_18_" gradientUnits="userSpaceOnUse" x1="155.8008" y1="-424.9551" x2="308.2865" y2="-136.3364" gradientTransform="matrix(1 0 0 -1 -215 -3)">
		<stop  offset="0" style="stop-color:#FFE7C3"/>
		<stop  offset="0.5394" style="stop-color:#FBAA19"/>
		<stop  offset="0.9697" style="stop-color:#F36C21"/>
	</linearGradient>
	<path fill="url(#SVGID_18_)" d="M23.667,291.507H37.44c-6.057-2.293-8.771-6.8-9.604-8.155
		c-8.706-14.162-1.119-34.521-1.016-34.795l1.083-3.164l-2.322-0.322l11.682-40.444c-3.298-0.313-6.266-0.651-8.825-1.015
		l-15.391,44.945c-0.104,0.274-7.69,20.633,1.016,34.795C14.896,284.707,17.61,289.214,23.667,291.507z"/>
	
		<linearGradient id="SVGID_19_" gradientUnits="userSpaceOnUse" x1="256.9287" y1="-100.2065" x2="316.6532" y2="-294.75" gradientTransform="matrix(1 0 0 -1 -215 -3)">
		<stop  offset="0" style="stop-color:#FFFFFF"/>
		<stop  offset="0.7333" style="stop-color:#D8C2B0"/>
	</linearGradient>
	<path fill="url(#SVGID_19_)" d="M31.139,195.989L31.139,195.989c5.412-0.83,12.867-1.552,21.775-2.113L78.632,82.835h-9.679
		L31.139,195.989z"/>
	<path fill="#FFFFFF" d="M75.537,52.328C72.875,26.981,68.84,81.1,68.84,81.1h9.792C78.632,81.101,76.383,60.379,75.537,52.328z"/>
	
		<linearGradient id="SVGID_20_" gradientUnits="userSpaceOnUse" x1="286.9951" y1="-336.9458" x2="287.4375" y2="-201.6977" gradientTransform="matrix(1 0 0 -1 -215 -3)">
		<stop  offset="0" style="stop-color:#FFE7C3"/>
		<stop  offset="0.5394" style="stop-color:#FBAA19"/>
		<stop  offset="0.9697" style="stop-color:#F36C21"/>
	</linearGradient>
	<path fill="url(#SVGID_20_)" d="M134.439,265.965c-12.713,1.027-31.937,1.82-52.265,1.669c-25.819-0.192-50.85-2.368-50.85-2.368
		s-2.477,18.148,9.316,27.15c-8.335-1.668-11.838-7.49-12.806-9.064c-3.542-5.762-4.387-12.547-4.136-18.591
		c-6.56-0.22-11.504-0.395-13.748-0.475c-0.315,6.161,0.475,13.151,4.11,19.065c0.999,1.625,4.867,6.926,13.616,9.227
		c14.559,3.829,67.553,4.754,96.606,3.67C129.777,292.154,135.338,278.164,134.439,265.965z"/>
	<g>
		
			<linearGradient id="SVGID_21_" gradientUnits="userSpaceOnUse" x1="275.7324" y1="-248.3955" x2="210.3886" y2="-98.0649" gradientTransform="matrix(1.0365 0.0499 0.0119 -0.9642 -218.0964 -8.2201)">
			<stop  offset="0.3279" style="stop-color:#E2CFC2"/>
			<stop  offset="0.8885" style="stop-color:#000000"/>
		</linearGradient>
		<polygon fill="url(#SVGID_21_)" points="50.967,147.824 50.288,150.16 50.262,150.57 56.689,150.881 47.054,186.073 
			39.956,185.73 39.159,188.473 46.303,188.814 39.244,214.602 31.675,214.236 30.879,216.979 38.493,217.346 32.763,238.273 
			24.804,237.891 24.007,240.63 35.041,241.163 60.47,148.282 		"/>
		
			<linearGradient id="SVGID_22_" gradientUnits="userSpaceOnUse" x1="261.7148" y1="-254.4863" x2="196.3712" y2="-104.1558" gradientTransform="matrix(1.0365 0.0499 0.0119 -0.9642 -218.0964 -8.2201)">
			<stop  offset="0.3279" style="stop-color:#E2CFC2"/>
			<stop  offset="0.8885" style="stop-color:#000000"/>
		</linearGradient>
		<polygon fill="url(#SVGID_22_)" points="42.941,236.307 43.119,237.361 44.37,236.88 44.39,236.881 44.083,241.59 45.527,241.658 
			45.913,235.717 44.686,235.657 		"/>
		
			<linearGradient id="SVGID_23_" gradientUnits="userSpaceOnUse" x1="265.8877" y1="-252.6709" x2="200.5465" y2="-102.3464" gradientTransform="matrix(1.0365 0.0499 0.0119 -0.9642 -218.0964 -8.2201)">
			<stop  offset="0.3279" style="stop-color:#E2CFC2"/>
			<stop  offset="0.8885" style="stop-color:#000000"/>
		</linearGradient>
		<path fill="url(#SVGID_23_)" d="M50.359,235.83c-1.649-0.079-2.512,1.234-2.625,2.963c-0.101,1.684,0.537,3.1,2.185,3.178
			c1.62,0.078,2.497-1.152,2.616-2.98C52.642,237.361,52.056,235.912,50.359,235.83z M50.017,240.92
			c-0.568-0.025-0.88-0.691-0.791-2.054c0.09-1.39,0.505-2.015,1.044-1.987c0.599,0.03,0.857,0.739,0.772,2.057
			C50.955,240.288,50.596,240.949,50.017,240.92z"/>
		
			<linearGradient id="SVGID_24_" gradientUnits="userSpaceOnUse" x1="270.3105" y1="-250.751" x2="204.9694" y2="-100.4265" gradientTransform="matrix(1.0365 0.0499 0.0119 -0.9642 -218.0964 -8.2201)">
			<stop  offset="0.3279" style="stop-color:#E2CFC2"/>
			<stop  offset="0.8885" style="stop-color:#000000"/>
		</linearGradient>
		<path fill="url(#SVGID_24_)" d="M55.807,236.093c-1.648-0.079-2.512,1.234-2.624,2.964c-0.099,1.684,0.538,3.098,2.186,3.178
			c1.619,0.078,2.497-1.154,2.615-2.982C58.091,237.623,57.505,236.175,55.807,236.093z M55.467,241.184
			c-0.57-0.026-0.88-0.692-0.792-2.056c0.09-1.39,0.504-2.012,1.044-1.985c0.599,0.029,0.858,0.737,0.771,2.056
			C56.404,240.551,56.045,241.212,55.467,241.184z"/>
		
			<linearGradient id="SVGID_25_" gradientUnits="userSpaceOnUse" x1="276.0098" y1="-248.2729" x2="210.666" y2="-97.9424" gradientTransform="matrix(1.0365 0.0499 0.0119 -0.9642 -218.0964 -8.2201)">
			<stop  offset="0.3279" style="stop-color:#E2CFC2"/>
			<stop  offset="0.8885" style="stop-color:#000000"/>
		</linearGradient>
		<polygon fill="url(#SVGID_25_)" points="52.247,218.014 52.633,212.07 51.406,212.012 49.662,212.661 49.839,213.715 
			51.091,213.234 51.111,213.234 50.804,217.943 		"/>
		
			<linearGradient id="SVGID_26_" gradientUnits="userSpaceOnUse" x1="280.0791" y1="-246.499" x2="214.7505" y2="-96.2033" gradientTransform="matrix(1.0365 0.0499 0.0119 -0.9642 -218.0964 -8.2201)">
			<stop  offset="0.3279" style="stop-color:#E2CFC2"/>
			<stop  offset="0.8885" style="stop-color:#000000"/>
		</linearGradient>
		<path fill="url(#SVGID_26_)" d="M58.993,216.35c0.045-0.695-0.216-1.203-0.678-1.527c-0.421-0.323-1.041-0.481-1.649-0.512
			c-0.158-0.008-0.275-0.014-0.415-0.002l0.197-0.906l2.473,0.119l0.074-1.144l-3.513-0.169l-0.615,3.1
			c0.257-0.026,0.503-0.033,0.857-0.018c1.276,0.062,1.771,0.463,1.731,1.075c-0.041,0.631-0.716,0.874-1.334,0.844
			c-0.579-0.026-1.147-0.222-1.414-0.36l-0.342,1.027c0.342,0.189,0.979,0.387,1.754,0.423
			C57.838,218.383,58.921,217.455,58.993,216.35z"/>
		
			<linearGradient id="SVGID_27_" gradientUnits="userSpaceOnUse" x1="284.6104" y1="-244.543" x2="219.2509" y2="-94.1764" gradientTransform="matrix(1.0365 0.0499 0.0119 -0.9642 -218.0964 -8.2201)">
			<stop  offset="0.3279" style="stop-color:#E2CFC2"/>
			<stop  offset="0.8885" style="stop-color:#000000"/>
		</linearGradient>
		<path fill="url(#SVGID_27_)" d="M62.528,212.447c-1.649-0.08-2.512,1.236-2.625,2.965c-0.099,1.682,0.537,3.096,2.187,3.175
			c1.618,0.079,2.496-1.151,2.615-2.979C64.811,213.979,64.226,212.529,62.528,212.447z M62.188,217.538
			c-0.569-0.027-0.881-0.692-0.792-2.056c0.091-1.39,0.505-2.012,1.044-1.984c0.6,0.029,0.857,0.736,0.773,2.055
			C63.124,216.906,62.766,217.564,62.188,217.538z"/>
		
			<linearGradient id="SVGID_28_" gradientUnits="userSpaceOnUse" x1="291.0215" y1="-241.7549" x2="225.6707" y2="-91.4083" gradientTransform="matrix(1.0365 0.0499 0.0119 -0.9642 -218.0964 -8.2201)">
			<stop  offset="0.3279" style="stop-color:#E2CFC2"/>
			<stop  offset="0.8885" style="stop-color:#000000"/>
		</linearGradient>
		<path fill="url(#SVGID_28_)" d="M55.923,184.885l0.358,1.006c0.348-0.209,0.845-0.442,1.395-0.416
			c0.736,0.034,1.015,0.434,0.984,0.918c-0.055,0.694-0.775,1.328-2.255,2.432l-0.859,0.646l-0.055,0.841l4.524,0.219l0.074-1.143
			l-2.415-0.117l0.001-0.019l0.619-0.429c0.982-0.723,1.8-1.481,1.865-2.486c0.069-1.07-0.665-1.895-2.117-1.964
			C57.189,184.331,56.416,184.568,55.923,184.885z"/>
		
			<linearGradient id="SVGID_29_" gradientUnits="userSpaceOnUse" x1="295.7969" y1="-239.6553" x2="230.4713" y2="-89.3667" gradientTransform="matrix(1.0365 0.0499 0.0119 -0.9642 -218.0964 -8.2201)">
			<stop  offset="0.3279" style="stop-color:#E2CFC2"/>
			<stop  offset="0.8885" style="stop-color:#000000"/>
		</linearGradient>
		<path fill="url(#SVGID_29_)" d="M63.221,190.783c1.619,0.078,2.497-1.153,2.615-2.98c0.107-1.628-0.479-3.078-2.176-3.16
			c-1.649-0.078-2.512,1.237-2.625,2.965C60.936,189.29,61.572,190.704,63.221,190.783z M63.572,185.693
			c0.598,0.027,0.857,0.738,0.771,2.055c-0.088,1.354-0.445,2.016-1.025,1.986c-0.568-0.027-0.879-0.693-0.791-2.057
			C62.617,186.289,63.031,185.667,63.572,185.693z"/>
		
			<linearGradient id="SVGID_30_" gradientUnits="userSpaceOnUse" x1="300.2256" y1="-237.7471" x2="234.8844" y2="-87.4225" gradientTransform="matrix(1.0365 0.0499 0.0119 -0.9642 -218.0964 -8.2201)">
			<stop  offset="0.3279" style="stop-color:#E2CFC2"/>
			<stop  offset="0.8885" style="stop-color:#000000"/>
		</linearGradient>
		<path fill="url(#SVGID_30_)" d="M69.108,184.906c-1.648-0.08-2.512,1.236-2.624,2.963c-0.1,1.684,0.537,3.099,2.186,3.179
			c1.619,0.077,2.498-1.155,2.617-2.981C71.393,186.438,70.807,184.988,69.108,184.906z M68.768,189.998
			c-0.568-0.027-0.879-0.693-0.791-2.057c0.09-1.391,0.504-2.012,1.044-1.985c0.6,0.028,0.858,0.739,0.772,2.055
			C69.705,189.364,69.348,190.025,68.768,189.998z"/>
		
			<linearGradient id="SVGID_31_" gradientUnits="userSpaceOnUse" x1="311.0107" y1="-233.043" x2="245.6786" y2="-82.7392" gradientTransform="matrix(1.0365 0.0499 0.0119 -0.9642 -218.0964 -8.2201)">
			<stop  offset="0.3279" style="stop-color:#E2CFC2"/>
			<stop  offset="0.8885" style="stop-color:#000000"/>
		</linearGradient>
		<path fill="url(#SVGID_31_)" d="M68.116,153.219l-2.415-0.115l0.002-0.02l0.619-0.428c0.982-0.723,1.799-1.482,1.864-2.487
			c0.069-1.07-0.665-1.894-2.117-1.964c-0.853-0.041-1.627,0.197-2.12,0.513l0.357,1.006c0.35-0.212,0.847-0.445,1.396-0.418
			c0.736,0.036,1.015,0.435,0.983,0.919c-0.056,0.694-0.776,1.328-2.255,2.431l-0.859,0.646l-0.055,0.842l4.525,0.219
			L68.116,153.219z"/>
		
			<linearGradient id="SVGID_32_" gradientUnits="userSpaceOnUse" x1="315.7021" y1="-231.0303" x2="250.3507" y2="-80.6823" gradientTransform="matrix(1.0365 0.0499 0.0119 -0.9642 -218.0964 -8.2201)">
			<stop  offset="0.3279" style="stop-color:#E2CFC2"/>
			<stop  offset="0.8885" style="stop-color:#000000"/>
		</linearGradient>
		<path fill="url(#SVGID_32_)" d="M72.922,151.113c-0.421-0.323-1.041-0.481-1.648-0.51c-0.158-0.007-0.275-0.013-0.414-0.003
			l0.195-0.907l2.475,0.119l0.074-1.143L70.09,148.5l-0.615,3.098c0.258-0.023,0.504-0.031,0.857-0.014
			c1.276,0.061,1.771,0.461,1.732,1.073c-0.041,0.631-0.717,0.872-1.336,0.843c-0.578-0.027-1.147-0.221-1.413-0.361l-0.342,1.028
			c0.341,0.192,0.979,0.388,1.754,0.425c1.718,0.082,2.802-0.847,2.873-1.951C73.646,151.945,73.384,151.438,72.922,151.113z"/>
		
			<linearGradient id="SVGID_33_" gradientUnits="userSpaceOnUse" x1="320.2207" y1="-229.043" x2="254.8874" y2="-78.7364" gradientTransform="matrix(1.0365 0.0499 0.0119 -0.9642 -218.0964 -8.2201)">
			<stop  offset="0.3279" style="stop-color:#E2CFC2"/>
			<stop  offset="0.8885" style="stop-color:#000000"/>
		</linearGradient>
		<path fill="url(#SVGID_33_)" d="M77.136,148.738c-1.649-0.079-2.513,1.237-2.625,2.964c-0.1,1.683,0.538,3.097,2.187,3.178
			c1.619,0.077,2.496-1.153,2.615-2.983C79.418,150.271,78.834,148.821,77.136,148.738z M76.795,153.83
			c-0.569-0.027-0.881-0.693-0.792-2.057c0.091-1.39,0.505-2.01,1.044-1.984c0.6,0.029,0.857,0.738,0.773,2.055
			C77.731,153.197,77.373,153.857,76.795,153.83z"/>
	</g>
	
		<linearGradient id="SVGID_34_" gradientUnits="userSpaceOnUse" x1="305.7422" y1="-118.5981" x2="320.1793" y2="-61.4282" gradientTransform="matrix(1 0 0 -1 -215 -3)">
		<stop  offset="0.1697" style="stop-color:#E1CFC2"/>
		<stop  offset="0.297" style="stop-color:#FFFFFF"/>
		<stop  offset="0.7333" style="stop-color:#DCC7B8"/>
	</linearGradient>
	<polygon fill="url(#SVGID_34_)" points="78.632,82.835 119.836,82.835 78.632,81.101 	"/>
	<g>
		
			<linearGradient id="SVGID_35_" gradientUnits="userSpaceOnUse" x1="389.7939" y1="-337.5488" x2="375.1247" y2="-182.0505" gradientTransform="matrix(1 0 0 -1 -215 -3)">
			<stop  offset="0" style="stop-color:#FFE7C3"/>
			<stop  offset="0.5394" style="stop-color:#FBAA19"/>
			<stop  offset="0.9697" style="stop-color:#F36C21"/>
		</linearGradient>
		<path fill="url(#SVGID_35_)" d="M204.293,248.557l-15.391-44.945c-2.56,0.363-5.525,0.701-8.824,1.015l11.682,40.444
			l-12.775,1.779c-3.604-18.574-3.61-18.572-8.448-41.459c-9.205,0.623-20.103,1.072-32.015,1.289
			c1.629,5.68,6.011,39.37,3.822,62.09c0,0,0,0,0,0.002c-0.246,11.64-5.539,21.182-10.43,27.558
			c0.928,0.044,2.012,0.071,3.291,0.077c11.383,0.053,35.375-0.762,54.457-3.827c8.932-1.435,12.617-7.603,13.617-9.228
			C211.984,269.188,204.396,248.831,204.293,248.557z"/>
	</g>
	
		<linearGradient id="SVGID_36_" gradientUnits="userSpaceOnUse" x1="343.71" y1="-344.9824" x2="404.232" y2="-86.2139" gradientTransform="matrix(1 0 0 -1 -215 -3)">
		<stop  offset="0" style="stop-color:#FFE7C3"/>
		<stop  offset="0.5394" style="stop-color:#FBAA19"/>
		<stop  offset="0.9697" style="stop-color:#F36C21"/>
	</linearGradient>
	<path fill="url(#SVGID_36_)" d="M152.225,265.126c-2.897,0.233-6.141,0.455-9.639,0.658c-0.07,1.011-0.146,2.011-0.242,2.983
		c0,0.002,0,0.002,0,0.002c-0.246,11.641-5.539,21.183-10.43,27.559c0.928,0.044,2.012,0.07,3.291,0.077
		c0.387,0.002,0.791,0.002,1.205,0.002c1.867-0.05,3.67-0.106,5.385-0.171C147.438,292.031,153.146,277.659,152.225,265.126z"/>
	
		<linearGradient id="SVGID_37_" gradientUnits="userSpaceOnUse" x1="385.041" y1="-324.8418" x2="386.8088" y2="-172.7922" gradientTransform="matrix(1 0 0 -1 -215 -3)">
		<stop  offset="0" style="stop-color:#FFE7C3"/>
		<stop  offset="0.5394" style="stop-color:#FBAA19"/>
		<stop  offset="0.9697" style="stop-color:#F36C21"/>
	</linearGradient>
	<path fill="url(#SVGID_37_)" d="M201.861,285.436c0.688-0.897,1.152-1.652,1.418-2.084c1.221-1.985,2.109-4.096,2.756-6.252
		c-12.051,3.795-37.189,6.627-67.322,7.778c-1.129,2.604-2.434,4.993-3.799,7.147C163.143,291.114,187.203,288.758,201.861,285.436z
		"/>
	
		<linearGradient id="SVGID_38_" gradientUnits="userSpaceOnUse" x1="353.083" y1="-301.6997" x2="442.1958" y2="-68.1983" gradientTransform="matrix(1 0 0 -1 -215 -3)">
		<stop  offset="0" style="stop-color:#FFE7C3"/>
		<stop  offset="0.5394" style="stop-color:#FBAA19"/>
		<stop  offset="0.9697" style="stop-color:#F36C21"/>
	</linearGradient>
	<path fill="url(#SVGID_38_)" d="M134.914,292.025c3.699-0.118,7.328-0.262,10.873-0.43c1.277-2.033,2.465-4.488,3.467-7.199
		c-3.434,0.184-6.953,0.345-10.541,0.48C137.584,287.48,136.279,289.871,134.914,292.025z"/>
	<g>
		
			<linearGradient id="SVGID_39_" gradientUnits="userSpaceOnUse" x1="237.3818" y1="-314.1953" x2="234.8261" y2="-210.1133" gradientTransform="matrix(1 0 0 -1 -215 -3)">
			<stop  offset="0" style="stop-color:#FFE7C3"/>
			<stop  offset="0.5394" style="stop-color:#FBAA19"/>
			<stop  offset="0.9697" style="stop-color:#F36C21"/>
		</linearGradient>
		<path fill="url(#SVGID_39_)" d="M27.836,283.352c-0.582-0.945-1.083-1.922-1.527-2.914c-6.089-0.957-11.159-2.023-14.96-3.18
			c0.642,2.102,1.522,4.156,2.713,6.094c0.295,0.48,0.849,1.287,1.698,2.236c4.591,1.003,10.056,1.918,16.26,2.73
			C29.641,286.307,28.361,284.205,27.836,283.352z"/>
		
			<linearGradient id="SVGID_40_" gradientUnits="userSpaceOnUse" x1="297.8477" y1="-312.707" x2="295.2924" y2="-208.6481" gradientTransform="matrix(1 0 0 -1 -215 -3)">
			<stop  offset="0" style="stop-color:#FFE7C3"/>
			<stop  offset="0.5394" style="stop-color:#FBAA19"/>
			<stop  offset="0.9697" style="stop-color:#F36C21"/>
		</linearGradient>
		<path fill="url(#SVGID_40_)" d="M127.857,292.223c1.301-1.972,2.516-4.397,3.543-7.101c-7.441,0.212-15.131,0.325-22.963,0.325
			c-28.876,0-56-1.537-75.441-4.057c0.897,2.609,2.203,5.215,4.085,7.545c19.244,2.213,44.349,3.512,71.356,3.512
			C115.055,292.447,121.543,292.369,127.857,292.223z"/>
	</g>
	<g>
		
			<linearGradient id="SVGID_41_" gradientUnits="userSpaceOnUse" x1="381.6494" y1="-156.6289" x2="363.0023" y2="-357.5534" gradientTransform="matrix(1 0 0 -1 -215 -3)">
			<stop  offset="0" style="stop-color:#FFE7C3"/>
			<stop  offset="0.5394" style="stop-color:#FBAA19"/>
			<stop  offset="0.9697" style="stop-color:#F36C21"/>
		</linearGradient>
		<path fill="url(#SVGID_41_)" d="M185.771,195.378c-11.429-1.375-28.857-2.362-49.043-2.688l1.922,12.986
			c20.977-0.385,38.797-1.488,49.742-2.996L185.771,195.378z"/>
	</g>
</g>
</svg>
