<?xml version="1.0" encoding="utf-8"?>
<!-- Generator: Adobe Illustrator 15.1.0, SVG Export Plug-In . SVG Version: 6.00 Build 0)  -->
<!DOCTYPE svg PUBLIC "-//W3C//DTD SVG 1.1//EN" "http://www.w3.org/Graphics/SVG/1.1/DTD/svg11.dtd">
<svg version="1.1" id="Layer_1" xmlns="http://www.w3.org/2000/svg" xmlns:xlink="http://www.w3.org/1999/xlink" x="0px" y="0px"
	 width="234px" height="1051.5px" viewBox="0 0 234 1051.5" enable-background="new 0 0 234 1051.5" xml:space="preserve">
<symbol  id="svg_17" viewBox="-4.75 -39 9.5 78">
	<g>
		<title>Layer 1</title>
		
			<linearGradient id="svg_9_1_" gradientUnits="userSpaceOnUse" x1="14485.5352" y1="-16358.75" x2="14486.0312" y2="-16358.7422" gradientTransform="matrix(9.5 0 0 78 -137617.4062 1275981.625)">
			<stop  offset="0" style="stop-color:#0000FF"/>
			<stop  offset="1" style="stop-color:#A8A8FF;stop-opacity:0.9961"/>
		</linearGradient>
		<path id="svg_9_2_" fill="url(#svg_9_1_)" fill-opacity="0.76" d="M-4.75-39c3.167,0,6.334,0,9.5,0L4.5-19H4.25l-1.8,33l-2.2,25
			h-1.5l-1.8-25l-1.42-33h-0.28V-39z"/>
		
			<linearGradient id="svg_7_1_" gradientUnits="userSpaceOnUse" x1="14485.5342" y1="-15759.1387" x2="14486.0303" y2="-15759.1309" gradientTransform="matrix(9.5 0 0 20 -137617.4062 315153.5938)">
			<stop  offset="0" style="stop-color:#0000FF"/>
			<stop  offset="1" style="stop-color:#A8A8FF;stop-opacity:0.9961"/>
		</linearGradient>
		<polygon id="svg_7_2_" fill="url(#svg_7_1_)" fill-opacity="0.76" points="-4.75,-39 4.75,-39 4.75,-19 -4.75,-19 		"/>
		
			<linearGradient id="svg_6_1_" gradientUnits="userSpaceOnUse" x1="-104.3535" y1="-15759.1299" x2="-103.3535" y2="-15759.1299" gradientTransform="matrix(1 0 0 20 107.6035 315153.5938)">
			<stop  offset="0" style="stop-color:#0000FF"/>
			<stop  offset="1" style="stop-color:#5B5BFF;stop-opacity:0.9961"/>
		</linearGradient>
		<polygon id="svg_6_2_" fill="url(#svg_6_1_)" fill-opacity="0.8" points="3.25,-39 4.25,-39 4.25,-19 3.25,-19 		"/>
		
			<linearGradient id="svg_5_1_" gradientUnits="userSpaceOnUse" x1="-104.3535" y1="-15759.1299" x2="-103.3535" y2="-15759.1299" gradientTransform="matrix(1 0 0 20 99.6035 315153.5938)">
			<stop  offset="0" style="stop-color:#0000FF"/>
			<stop  offset="1" style="stop-color:#5B5BFF;stop-opacity:0.9961"/>
		</linearGradient>
		<polygon id="svg_5_2_" fill="url(#svg_5_1_)" fill-opacity="0.8" points="-4.75,-39 -3.75,-39 -3.75,-19 -4.75,-19 		"/>
		
			<linearGradient id="svg_4_1_" gradientUnits="userSpaceOnUse" x1="-104.3535" y1="-15759.1299" x2="-103.3535" y2="-15759.1299" gradientTransform="matrix(1 0 0 20 105.6035 315153.5938)">
			<stop  offset="0" style="stop-color:#0000FF"/>
			<stop  offset="1" style="stop-color:#5B5BFF;stop-opacity:0.9961"/>
		</linearGradient>
		<polygon id="svg_4_2_" fill="url(#svg_4_1_)" fill-opacity="0.8" points="1.25,-39 2.25,-39 2.25,-19 1.25,-19 		"/>
		
			<linearGradient id="svg_2_1_" gradientUnits="userSpaceOnUse" x1="-104.3535" y1="-15759.1299" x2="-103.3535" y2="-15759.1299" gradientTransform="matrix(1 0 0 20 101.6533 315153.5938)">
			<stop  offset="0" style="stop-color:#0000FF"/>
			<stop  offset="1" style="stop-color:#5B5BFF;stop-opacity:0.9961"/>
		</linearGradient>
		<polygon id="svg_2_2_" fill="url(#svg_2_1_)" fill-opacity="0.8" points="-2.7,-39 -1.7,-39 -1.7,-19 -2.7,-19 		"/>
	</g>
</symbol>
<g>
	<path id="rect6594" fill="#ECEAEB" stroke="#000000" stroke-width="3.9705" stroke-linecap="round" stroke-linejoin="round" d="
		M169.37,87.873h36.123v16.916H169.37V87.873L169.37,87.873z"/>
	
		<linearGradient id="rect1307_1_" gradientUnits="userSpaceOnUse" x1="263.4014" y1="286.6919" x2="260.6432" y2="286.6919" gradientTransform="matrix(19.703 0 0 62.7448 -5046.0513 -17158.6016)">
		<stop  offset="0" style="stop-color:#E7E5E4"/>
		<stop  offset="1" style="stop-color:#898683"/>
	</linearGradient>
	
		<rect id="rect1307" x="133.922" y="798.434" fill="url(#rect1307_1_)" stroke="#000000" stroke-width="3.9705" stroke-linecap="round" stroke-linejoin="round" width="19.703" height="62.745"/>
	
		<linearGradient id="rect2182_1_" gradientUnits="userSpaceOnUse" x1="260.1855" y1="286.4141" x2="258.5193" y2="286.4141" gradientTransform="matrix(36.899 0 0 168.9544 -9456.792 -47667.1094)">
		<stop  offset="0" style="stop-color:#E7E5E4"/>
		<stop  offset="1" style="stop-color:#898683"/>
	</linearGradient>
	
		<rect id="rect2182" x="125.324" y="639.334" fill="url(#rect2182_1_)" stroke="#000000" stroke-width="3.9705" stroke-linecap="round" stroke-linejoin="round" width="36.898" height="168.954"/>
	
		<linearGradient id="rect2184_1_" gradientUnits="userSpaceOnUse" x1="258.8613" y1="286.9502" x2="257.4321" y2="286.2896" gradientTransform="matrix(58.882 0 0 40.9284 -15095.4668 -11113.7109)">
		<stop  offset="0" style="stop-color:#E7E5E4"/>
		<stop  offset="1" style="stop-color:#898683"/>
	</linearGradient>
	
		<rect id="rect2184" x="114.332" y="609.281" fill="url(#rect2184_1_)" stroke="#000000" stroke-width="3.9705" stroke-linecap="round" stroke-linejoin="round" width="58.882" height="40.929"/>
	
		<linearGradient id="rect2186_1_" gradientUnits="userSpaceOnUse" x1="258.4561" y1="286.4761" x2="257.1918" y2="286.4761" gradientTransform="matrix(69.5071 0 0 122.7106 -17820.8125 -34603.5547)">
		<stop  offset="0" style="stop-color:#E7E5E4"/>
		<stop  offset="1" style="stop-color:#898683"/>
	</linearGradient>
	
		<rect id="rect2186" x="109.02" y="488.728" fill="url(#rect2186_1_)" stroke="#000000" stroke-width="3.9705" stroke-linecap="round" stroke-linejoin="round" width="69.508" height="122.711"/>
	
		<linearGradient id="rect3061_1_" gradientUnits="userSpaceOnUse" x1="257.4355" y1="286.3159" x2="256.3771" y2="286.3159" gradientTransform="matrix(213.2016 0 0 422.9696 -54707.2188 -120818.4844)">
		<stop  offset="0" style="stop-color:#E7E5E4"/>
		<stop  offset="1" style="stop-color:#898683"/>
	</linearGradient>
	
		<path id="rect3061" fill="url(#rect3061_1_)" stroke="#000000" stroke-width="3.9705" stroke-linecap="round" stroke-linejoin="round" d="
		M76.419,72.824c-21.265,0.215-42.999,1.893-65.446,5.729c-3.809,0.922-4.49,9.954,4.791,8.59
		c42.364-8.487,82.306-2.441,80.776,17.178V495.75h124.997V99.492h-60.844V73.247C160.693,73.247,97.559,72.61,76.419,72.824z"/>
	<path id="rect5718" fill="#ECEAEB" stroke="#000000" stroke-width="3.9705" stroke-linecap="round" stroke-linejoin="round" d="
		M162.866,71.947l59.906,9.054v9.054H163.71L162.866,71.947z"/>
	<path id="rect6596" fill="#ECFFFF" stroke="#000000" stroke-width="3.9705" stroke-linecap="round" stroke-linejoin="round" d="
		M191.619,116.456h28.631v84.563h-28.631V116.456z"/>
	
		<linearGradient id="rect11166_1_" gradientUnits="userSpaceOnUse" x1="257.9531" y1="289.5835" x2="257.9531" y2="284.4279" gradientTransform="matrix(93.5602 0 0 14.3859 -23990.3457 -4022.3838)">
		<stop  offset="0" style="stop-color:#E7E5E4"/>
		<stop  offset="1" style="stop-color:#898683"/>
	</linearGradient>
	<path id="rect11166" fill="url(#rect11166_1_)" d="M97.057,116.105h93.56v14.386h-93.56V116.105z"/>
	
		<linearGradient id="rect12922_1_" gradientUnits="userSpaceOnUse" x1="257.9531" y1="289.5835" x2="257.9531" y2="284.4279" gradientTransform="matrix(93.5602 0 0 14.3859 -23990.3457 -4008.3057)">
		<stop  offset="0" style="stop-color:#E7E5E4"/>
		<stop  offset="1" style="stop-color:#898683"/>
	</linearGradient>
	<path id="rect12922" fill="url(#rect12922_1_)" d="M97.057,130.171h93.56v14.386h-93.56V130.171z"/>
	
		<linearGradient id="rect12926_1_" gradientUnits="userSpaceOnUse" x1="257.9531" y1="289.5835" x2="257.9531" y2="284.4279" gradientTransform="matrix(93.5602 0 0 14.3859 -23990.3457 -3993.8838)">
		<stop  offset="0" style="stop-color:#E7E5E4"/>
		<stop  offset="1" style="stop-color:#898683"/>
	</linearGradient>
	<path id="rect12926" fill="url(#rect12926_1_)" d="M97.057,144.594h93.56v14.386h-93.56V144.594z"/>
	
		<linearGradient id="rect12928_1_" gradientUnits="userSpaceOnUse" x1="257.9531" y1="289.5835" x2="257.9531" y2="284.4279" gradientTransform="matrix(93.5602 0 0 14.3859 -23990.3457 -3979.8213)">
		<stop  offset="0" style="stop-color:#E7E5E4"/>
		<stop  offset="1" style="stop-color:#898683"/>
	</linearGradient>
	<path id="rect12928" fill="url(#rect12928_1_)" d="M97.057,158.659h93.56v14.386h-93.56V158.659z"/>
	
		<linearGradient id="rect12934_1_" gradientUnits="userSpaceOnUse" x1="257.9531" y1="289.5835" x2="257.9531" y2="284.4279" gradientTransform="matrix(93.5602 0 0 14.3859 -23990.3457 -3965.001)">
		<stop  offset="0" style="stop-color:#E7E5E4"/>
		<stop  offset="1" style="stop-color:#898683"/>
	</linearGradient>
	<path id="rect12934" fill="url(#rect12934_1_)" d="M97.057,173.482h93.56v14.386h-93.56V173.482z"/>
	
		<linearGradient id="rect12936_1_" gradientUnits="userSpaceOnUse" x1="257.9531" y1="289.5835" x2="257.9531" y2="284.4279" gradientTransform="matrix(93.5602 0 0 14.3859 -23990.3457 -3950.9463)">
		<stop  offset="0" style="stop-color:#E7E5E4"/>
		<stop  offset="1" style="stop-color:#898683"/>
	</linearGradient>
	<path id="rect12936" fill="url(#rect12936_1_)" d="M97.057,187.548h93.56v14.386h-93.56V187.548z"/>
	
		<linearGradient id="rect12942_1_" gradientUnits="userSpaceOnUse" x1="257.6084" y1="289.5825" x2="257.6084" y2="284.4268" gradientTransform="matrix(122.7798 0 0 14.3859 -31470.5391 -3937.2432)">
		<stop  offset="0" style="stop-color:#E7E5E4"/>
		<stop  offset="1" style="stop-color:#898683"/>
	</linearGradient>
	<path id="rect12942" fill="url(#rect12942_1_)" d="M97.057,201.246h122.779v14.386H97.057V201.246z"/>
	
		<linearGradient id="rect12944_1_" gradientUnits="userSpaceOnUse" x1="258.6514" y1="289.5825" x2="258.6514" y2="284.4268" gradientTransform="matrix(63.2168 0 0 14.3859 -16222.4326 -3923.165)">
		<stop  offset="0" style="stop-color:#E7E5E4"/>
		<stop  offset="1" style="stop-color:#898683"/>
	</linearGradient>
	<path id="rect12944" fill="url(#rect12944_1_)" d="M97.057,215.312h63.217c-5.313,2.377-10.674,4.701-9.41,14.386H97.057V215.312z"
		/>
	
		<linearGradient id="path12959_1_" gradientUnits="userSpaceOnUse" x1="259.0342" y1="289.5835" x2="259.0342" y2="284.4279" gradientTransform="matrix(53.6643 0 0 14.3859 -13777.0098 -3908.2979)">
		<stop  offset="0" style="stop-color:#E7E5E4"/>
		<stop  offset="1" style="stop-color:#898683"/>
	</linearGradient>
	<path id="path12959" fill="url(#path12959_1_)" d="M97.057,230.193h53.664v14.386H97.057V230.193z"/>
	
		<linearGradient id="path12977_1_" gradientUnits="userSpaceOnUse" x1="259.0342" y1="289.5825" x2="259.0342" y2="284.4268" gradientTransform="matrix(53.6643 0 0 14.3859 -13777.0098 -3894.1963)">
		<stop  offset="0" style="stop-color:#E7E5E4"/>
		<stop  offset="1" style="stop-color:#898683"/>
	</linearGradient>
	<path id="path12977" fill="url(#path12977_1_)" d="M97.057,244.29h53.664v14.387H97.057V244.29z"/>
	
		<linearGradient id="path12981_1_" gradientUnits="userSpaceOnUse" x1="259.0342" y1="289.5815" x2="259.0342" y2="284.4283" gradientTransform="matrix(53.6643 0 0 14.3859 -13777.0098 -3879.3213)">
		<stop  offset="0" style="stop-color:#E7E5E4"/>
		<stop  offset="1" style="stop-color:#898683"/>
	</linearGradient>
	<path id="path12981" fill="url(#path12981_1_)" d="M97.057,259.157h53.664v14.385H97.057V259.157z"/>
	
		<linearGradient id="path12983_1_" gradientUnits="userSpaceOnUse" x1="259.0342" y1="289.5835" x2="259.0342" y2="284.4265" gradientTransform="matrix(53.6643 0 0 14.3859 -13777.0098 -3865.2275)">
		<stop  offset="0" style="stop-color:#E7E5E4"/>
		<stop  offset="1" style="stop-color:#898683"/>
	</linearGradient>
	<path id="path12983" fill="url(#path12983_1_)" d="M97.057,273.253h53.664v14.387H97.057V273.253z"/>
	
		<linearGradient id="path12989_1_" gradientUnits="userSpaceOnUse" x1="259.0342" y1="289.5825" x2="259.0342" y2="284.4268" gradientTransform="matrix(53.6643 0 0 14.3859 -13777.0098 -3849.9775)">
		<stop  offset="0" style="stop-color:#E7E5E4"/>
		<stop  offset="1" style="stop-color:#898683"/>
	</linearGradient>
	<path id="path12989" fill="url(#path12989_1_)" d="M97.057,288.505h53.664v14.385H97.057V288.505z"/>
	
		<linearGradient id="path12991_1_" gradientUnits="userSpaceOnUse" x1="259.0342" y1="289.5825" x2="259.0342" y2="284.428" gradientTransform="matrix(53.6643 0 0 14.3859 -13777.0098 -3835.8838)">
		<stop  offset="0" style="stop-color:#E7E5E4"/>
		<stop  offset="1" style="stop-color:#898683"/>
	</linearGradient>
	<path id="path12991" fill="url(#path12991_1_)" d="M97.057,302.601h53.664v14.387H97.057V302.601z"/>
	
		<linearGradient id="path12993_1_" gradientUnits="userSpaceOnUse" x1="259.0342" y1="289.5835" x2="259.0342" y2="284.4279" gradientTransform="matrix(53.6643 0 0 14.3859 -13777.0098 -3821.0088)">
		<stop  offset="0" style="stop-color:#E7E5E4"/>
		<stop  offset="1" style="stop-color:#898683"/>
	</linearGradient>
	<path id="path12993" fill="url(#path12993_1_)" d="M97.057,317.468h53.664v14.386H97.057V317.468z"/>
	
		<linearGradient id="path12995_1_" gradientUnits="userSpaceOnUse" x1="259.0342" y1="289.5835" x2="259.0342" y2="284.4279" gradientTransform="matrix(53.6643 0 0 14.3859 -13777.0098 -3806.9307)">
		<stop  offset="0" style="stop-color:#E7E5E4"/>
		<stop  offset="1" style="stop-color:#898683"/>
	</linearGradient>
	<path id="path12995" fill="url(#path12995_1_)" d="M97.057,331.564h53.664v14.386H97.057V331.564z"/>
	
		<linearGradient id="path13005_1_" gradientUnits="userSpaceOnUse" x1="259.0342" y1="289.5835" x2="259.0342" y2="284.4279" gradientTransform="matrix(53.6643 0 0 14.3859 -13777.0098 -3791.54)">
		<stop  offset="0" style="stop-color:#E7E5E4"/>
		<stop  offset="1" style="stop-color:#898683"/>
	</linearGradient>
	<path id="path13005" fill="url(#path13005_1_)" d="M97.057,346.943h53.664v14.386H97.057V346.943z"/>
	
		<linearGradient id="path13007_1_" gradientUnits="userSpaceOnUse" x1="259.0342" y1="289.5845" x2="259.0342" y2="284.4238" gradientTransform="matrix(53.6643 0 0 14.3859 -13777.0098 -3777.4463)">
		<stop  offset="0" style="stop-color:#E7E5E4"/>
		<stop  offset="1" style="stop-color:#898683"/>
	</linearGradient>
	<path id="path13007" fill="url(#path13007_1_)" d="M97.057,361.04h53.664v14.387H97.057V361.04z"/>
	
		<linearGradient id="path13009_1_" gradientUnits="userSpaceOnUse" x1="259.0342" y1="289.5835" x2="259.0342" y2="284.4279" gradientTransform="matrix(53.6643 0 0 14.3859 -13777.0098 -3762.5713)">
		<stop  offset="0" style="stop-color:#E7E5E4"/>
		<stop  offset="1" style="stop-color:#898683"/>
	</linearGradient>
	<path id="path13009" fill="url(#path13009_1_)" d="M97.057,375.907h53.664v14.385H97.057V375.907z"/>
	
		<linearGradient id="path13011_1_" gradientUnits="userSpaceOnUse" x1="259.0342" y1="289.5835" x2="259.0342" y2="284.4265" gradientTransform="matrix(53.6643 0 0 14.3859 -13777.0098 -3748.4775)">
		<stop  offset="0" style="stop-color:#E7E5E4"/>
		<stop  offset="1" style="stop-color:#898683"/>
	</linearGradient>
	<path id="path13011" fill="url(#path13011_1_)" d="M97.057,390.003h53.664v14.387H97.057V390.003z"/>
	
		<linearGradient id="path13021_1_" gradientUnits="userSpaceOnUse" x1="259.0342" y1="289.584" x2="259.0342" y2="284.427" gradientTransform="matrix(53.6643 0 0 14.3859 -13777.0098 -3732.5479)">
		<stop  offset="0" style="stop-color:#E7E5E4"/>
		<stop  offset="1" style="stop-color:#898683"/>
	</linearGradient>
	<path id="path13021" fill="url(#path13021_1_)" d="M97.057,405.944h53.664v14.386H97.057V405.944z"/>
	
		<linearGradient id="path13023_1_" gradientUnits="userSpaceOnUse" x1="259.0342" y1="289.5845" x2="259.0342" y2="284.4238" gradientTransform="matrix(53.6643 0 0 14.3859 -13777.0098 -3718.4541)">
		<stop  offset="0" style="stop-color:#E7E5E4"/>
		<stop  offset="1" style="stop-color:#898683"/>
	</linearGradient>
	<path id="path13023" fill="url(#path13023_1_)" d="M97.057,420.041h53.664v14.387H97.057V420.041z"/>
	
		<linearGradient id="path13025_1_" gradientUnits="userSpaceOnUse" x1="259.0342" y1="289.5825" x2="259.0342" y2="284.4268" gradientTransform="matrix(53.6643 0 0 14.386 -13777.0098 -3703.626)">
		<stop  offset="0" style="stop-color:#E7E5E4"/>
		<stop  offset="1" style="stop-color:#898683"/>
	</linearGradient>
	<path id="path13025" fill="url(#path13025_1_)" d="M97.057,434.907h53.664v14.387H97.057V434.907z"/>
	
		<linearGradient id="path13027_1_" gradientUnits="userSpaceOnUse" x1="259.0342" y1="289.5835" x2="259.0342" y2="284.4279" gradientTransform="matrix(53.6643 0 0 14.3859 -13777.0098 -3689.4775)">
		<stop  offset="0" style="stop-color:#E7E5E4"/>
		<stop  offset="1" style="stop-color:#898683"/>
	</linearGradient>
	<path id="path13027" fill="url(#path13027_1_)" d="M97.057,449.005h53.664v14.386H97.057V449.005z"/>
	
		<linearGradient id="path13037_1_" gradientUnits="userSpaceOnUse" x1="259.0342" y1="289.5835" x2="259.0342" y2="284.4279" gradientTransform="matrix(53.6643 0 0 14.386 -13777.0098 -3674.2666)">
		<stop  offset="0" style="stop-color:#E7E5E4"/>
		<stop  offset="1" style="stop-color:#898683"/>
	</linearGradient>
	<path id="path13037" fill="url(#path13037_1_)" d="M97.057,464.256h53.664v14.386H97.057V464.256z"/>
	
		<linearGradient id="path13039_1_" gradientUnits="userSpaceOnUse" x1="259.0342" y1="289.5835" x2="259.0342" y2="284.4279" gradientTransform="matrix(53.6643 0 0 14.3859 -13777.0098 -3660.1416)">
		<stop  offset="0" style="stop-color:#E7E5E4"/>
		<stop  offset="1" style="stop-color:#898683"/>
	</linearGradient>
	<path id="path13039" fill="url(#path13039_1_)" d="M97.057,478.353h53.664v14.387H97.057V478.353z"/>
	
		<use xlink:href="#svg_17"  width="9.5" height="78" id="svg_18" x="-4.75" y="-39" transform="matrix(2.5934 0 0 2.3386 143.7998 942.3691)" overflow="visible"/>
	<title>Layer 1</title>
</g>
</svg>
